{
  "version": "1.1.4",
  "modules": [
    {
      "id": 25,
      "plugin": "noobhour",
      "version": "1.0.3",
      "model": "baseliner",
      "params": [
        {
          "id": 0,
          "value": 1.79999948
        },
        {
          "id": 1,
          "value": -1.16500044
        },
        {
          "id": 2,
          "value": 0.955000162
        },
        {
          "id": 3,
          "value": -1.25500011
        },
        {
          "id": 4,
          "value": 0.511000335
        },
        {
          "id": 5,
          "value": 0.592000067
        },
        {
          "id": 6,
          "value": 0.591999948
        },
        {
          "id": 7,
          "value": 0.505000114
        },
        {
          "id": 8,
          "value": -1.67500007
        },
        {
          "id": 9,
          "value": -0.620000064
        },
        {
          "id": 10,
          "value": 0.859999955
        },
        {
          "id": 11,
          "value": 1.79500055
        },
        {
          "id": 12,
          "value": 1.0
        },
        {
          "id": 13,
          "value": 0.594999552
        },
        {
          "id": 14,
          "value": 0.579999924
        },
        {
          "id": 15,
          "value": 0.514000058
        },
        {
          "id": 16,
          "value": 2.0
        },
        {
          "id": 17,
          "value": 2.0
        },
        {
          "id": 18,
          "value": 2.0
        },
        {
          "id": 19,
          "value": 2.0
        },
        {
          "id": 20,
          "value": 0.729999781
        },
        {
          "id": 21,
          "value": 0.670000017
        },
        {
          "id": 22,
          "value": 0.7330001
        },
        {
          "id": 23,
          "value": 0.830499947
        }
      ],
      "leftModuleId": 40,
      "rightModuleId": 28,
      "pos": [
        10,
        0
      ]
    },
    {
      "id": 28,
      "plugin": "Fundamental",
      "version": "1.2.1",
      "model": "Scope",
      "params": [
        {
          "id": 0,
          "value": 0.0
        },
        {
          "id": 1,
          "value": 0.0
        },
        {
          "id": 2,
          "value": 0.0
        },
        {
          "id": 3,
          "value": 0.0
        },
        {
          "id": 4,
          "value": 15.3850002
        },
        {
          "id": 5,
          "value": 0.0
        },
        {
          "id": 6,
          "value": 0.0
        },
        {
          "id": 7,
          "value": 0.0
        }
      ],
      "leftModuleId": 25,
      "rightModuleId": 43,
      "data": {
        "lissajous": 0,
        "external": 0
      },
      "pos": [
        22,
        0
      ]
    },
    {
      "id": 30,
      "plugin": "Bogaudio",
      "version": "1.1.22",
      "model": "Bogaudio-VCO",
      "params": [
        {
          "id": 0,
          "value": 0.121499397
        },
        {
          "id": 1,
          "value": 0.0
        },
        {
          "id": 2,
          "value": 0.0
        },
        {
          "id": 3,
          "value": 0.0
        },
        {
          "id": 4,
          "value": 0.0
        },
        {
          "id": 5,
          "value": 1.0
        }
      ],
      "leftModuleId": 47,
      "rightModuleId": 34,
      "pos": [
        22,
        1
      ]
    },
    {
      "id": 31,
      "plugin": "Core",
      "version": "1.1.4",
      "model": "AudioInterface",
      "params": [],
      "leftModuleId": 32,
      "data": {
        "audio": {
          "driver": 4,
          "deviceName": "system",
          "offset": 0,
          "maxChannels": 8,
          "sampleRate": 48000,
          "blockSize": 1024
        }
      },
      "pos": [
        72,
        0
      ]
    },
    {
      "id": 32,
      "plugin": "squinkylabs-plug1",
      "version": "1.0.4",
      "model": "squinkylabs-mixm",
      "params": [
        {
          "id": 0,
          "value": 0.75
        },
        {
          "id": 1,
          "value": 0.0
        },
        {
          "id": 2,
          "value": 0.596999884
        },
        {
          "id": 3,
          "value": 0.692999899
        },
        {
          "id": 4,
          "value": 0.0
        },
        {
          "id": 5,
          "value": 0.0
        },
        {
          "id": 6,
          "value": 0.0
        },
        {
          "id": 7,
          "value": 0.0
        },
        {
          "id": 8,
          "value": 0.0
        },
        {
          "id": 9,
          "value": 0.0
        },
        {
          "id": 10,
          "value": 0.0
        },
        {
          "id": 11,
          "value": 0.0
        },
        {
          "id": 12,
          "value": 0.0
        },
        {
          "id": 13,
          "value": 0.0
        },
        {
          "id": 14,
          "value": 0.0
        },
        {
          "id": 15,
          "value": 0.0
        },
        {
          "id": 16,
          "value": 0.0
        },
        {
          "id": 17,
          "value": 0.0
        },
        {
          "id": 18,
          "value": 0.0
        },
        {
          "id": 19,
          "value": 0.0
        },
        {
          "id": 20,
          "value": 0.0
        },
        {
          "id": 21,
          "value": 0.0
        },
        {
          "id": 22,
          "value": 0.0
        },
        {
          "id": 23,
          "value": 0.0
        },
        {
          "id": 24,
          "value": 0.0
        },
        {
          "id": 25,
          "value": 0.0
        },
        {
          "id": 26,
          "value": 0.0
        },
        {
          "id": 27,
          "value": 0.0
        },
        {
          "id": 28,
          "value": 0.0
        },
        {
          "id": 29,
          "value": 0.0
        },
        {
          "id": 30,
          "value": 0.0
        },
        {
          "id": 31,
          "value": 0.0
        },
        {
          "id": 32,
          "value": 0.0
        },
        {
          "id": 33,
          "value": 0.0
        },
        {
          "id": 34,
          "value": 0.0
        },
        {
          "id": 35,
          "value": 0.0
        },
        {
          "id": 36,
          "value": 0.0
        }
      ],
      "leftModuleId": 44,
      "rightModuleId": 31,
      "pos": [
        55,
        0
      ]
    },
    {
      "id": 34,
      "plugin": "Bogaudio",
      "version": "1.1.22",
      "model": "Bogaudio-VCO",
      "params": [
        {
          "id": 0,
          "value": 2.74556184
        },
        {
          "id": 1,
          "value": 0.0
        },
        {
          "id": 2,
          "value": 0.0
        },
        {
          "id": 3,
          "value": 0.0
        },
        {
          "id": 4,
          "value": 0.0
        },
        {
          "id": 5,
          "value": 1.0
        }
      ],
      "leftModuleId": 30,
      "rightModuleId": 41,
      "pos": [
        32,
        1
      ]
    },
    {
      "id": 40,
      "plugin": "Bogaudio",
      "version": "1.1.22",
      "model": "Bogaudio-LFO",
      "params": [
        {
          "id": 0,
          "value": -1.92550015
        },
        {
          "id": 1,
          "value": 0.0
        },
        {
          "id": 2,
          "value": 0.0
        },
        {
          "id": 3,
          "value": 0.0
        },
        {
          "id": 4,
          "value": 0.0
        },
        {
          "id": 5,
          "value": 1.0
        }
      ],
      "rightModuleId": 25,
      "pos": [
        0,
        0
      ]
    },
    {
      "id": 41,
      "plugin": "Bogaudio",
      "version": "1.1.22",
      "model": "Bogaudio-VCO",
      "params": [
        {
          "id": 0,
          "value": 1.77356362
        },
        {
          "id": 1,
          "value": 0.0
        },
        {
          "id": 2,
          "value": 0.0
        },
        {
          "id": 3,
          "value": 0.0
        },
        {
          "id": 4,
          "value": 0.0
        },
        {
          "id": 5,
          "value": 1.0
        }
      ],
      "leftModuleId": 34,
      "rightModuleId": 42,
      "pos": [
        42,
        1
      ]
    },
    {
      "id": 42,
      "plugin": "Bogaudio",
      "version": "1.1.22",
      "model": "Bogaudio-VCO",
      "params": [
        {
          "id": 0,
          "value": 2.67806268
        },
        {
          "id": 1,
          "value": 0.0
        },
        {
          "id": 2,
          "value": 0.0
        },
        {
          "id": 3,
          "value": 0.0
        },
        {
          "id": 4,
          "value": 0.0
        },
        {
          "id": 5,
          "value": 1.0
        }
      ],
      "leftModuleId": 41,
      "rightModuleId": 46,
      "pos": [
        52,
        1
      ]
    },
    {
      "id": 43,
      "plugin": "Fundamental",
      "version": "1.2.1",
      "model": "VCF",
      "params": [
        {
          "id": 0,
          "value": 0.731499851
        },
        {
          "id": 1,
          "value": 0.5
        },
        {
          "id": 2,
          "value": 0.619500041
        },
        {
          "id": 3,
          "value": 0.315000117
        },
        {
          "id": 4,
          "value": 0.612000048
        }
      ],
      "leftModuleId": 28,
      "rightModuleId": 44,
      "pos": [
        35,
        0
      ]
    },
    {
      "id": 44,
      "plugin": "AlrightDevices",
      "version": "1.0.1",
      "model": "Chronoblob2",
      "params": [
        {
          "id": 0,
          "value": 0.954999924
        },
        {
          "id": 1,
          "value": 0.0915000737
        },
        {
          "id": 2,
          "value": 1.0
        },
        {
          "id": 3,
          "value": 0.0
        },
        {
          "id": 4,
          "value": 0.444000065
        },
        {
          "id": 5,
          "value": 0.0
        },
        {
          "id": 6,
          "value": 0.0
        },
        {
          "id": 7,
          "value": 0.0
        },
        {
          "id": 8,
          "value": 0.0
        },
        {
          "id": 9,
          "value": 0.0
        }
      ],
      "leftModuleId": 43,
      "rightModuleId": 32,
      "data": {
        "delay_mode": 2,
        "hold_behavior": 0,
        "sync_prescaler": 0
      },
      "pos": [
        43,
        0
      ]
    },
    {
      "id": 46,
      "plugin": "ImpromptuModular",
      "version": "1.1.1",
      "model": "Clocked",
      "params": [
        {
          "id": 0,
          "value": 120.0
        },
        {
          "id": 1,
          "value": 5.0
        },
        {
          "id": 2,
          "value": 0.0
        },
        {
          "id": 3,
          "value": 0.0
        },
        {
          "id": 4,
          "value": 0.0
        },
        {
          "id": 5,
          "value": 0.0
        },
        {
          "id": 6,
          "value": 0.0
        },
        {
          "id": 7,
          "value": 0.0
        },
        {
          "id": 8,
          "value": 0.5
        },
        {
          "id": 9,
          "value": 0.5
        },
        {
          "id": 10,
          "value": 0.5
        },
        {
          "id": 11,
          "value": 0.5
        },
        {
          "id": 12,
          "value": 0.0
        },
        {
          "id": 13,
          "value": 0.0
        },
        {
          "id": 14,
          "value": 0.0
        },
        {
          "id": 15,
          "value": 0.0
        },
        {
          "id": 16,
          "value": 0.0
        },
        {
          "id": 17,
          "value": 0.0
        },
        {
          "id": 18,
          "value": 0.0
        },
        {
          "id": 19,
          "value": 0.0
        }
      ],
      "leftModuleId": 42,
      "data": {
        "panelTheme": 1,
        "running": true,
        "displayDelayNoteMode": true,
        "bpmDetectionMode": false,
        "emitResetOnStopRun": false,
        "ppqn": 4,
        "resetClockOutputsHigh": true
      },
      "pos": [
        62,
        1
      ]
    },
    {
      "id": 47,
      "plugin": "Fundamental",
      "version": "1.2.1",
      "model": "SEQ3",
      "params": [
        {
          "id": 0,
          "value": 2.0
        },
        {
          "id": 1,
          "value": 0.0
        },
        {
          "id": 2,
          "value": 0.0
        },
        {
          "id": 3,
          "value": 8.0
        },
        {
          "id": 4,
          "value": 3.10500026
        },
        {
          "id": 5,
          "value": 1.38000011
        },
        {
          "id": 6,
          "value": 2.68499994
        },
        {
          "id": 7,
          "value": 1.15499997
        },
        {
          "id": 8,
          "value": 0.899999976
        },
        {
          "id": 9,
          "value": 6.27000046
        },
        {
          "id": 10,
          "value": 2.43000054
        },
        {
          "id": 11,
          "value": 7.3650012
        },
        {
          "id": 12,
          "value": 0.0
        },
        {
          "id": 13,
          "value": 0.0
        },
        {
          "id": 14,
          "value": 0.0
        },
        {
          "id": 15,
          "value": 0.0
        },
        {
          "id": 16,
          "value": 0.0
        },
        {
          "id": 17,
          "value": 0.0
        },
        {
          "id": 18,
          "value": 0.0
        },
        {
          "id": 19,
          "value": 0.0
        },
        {
          "id": 20,
          "value": 0.0
        },
        {
          "id": 21,
          "value": 0.0
        },
        {
          "id": 22,
          "value": 0.0
        },
        {
          "id": 23,
          "value": 0.0
        },
        {
          "id": 24,
          "value": 0.0
        },
        {
          "id": 25,
          "value": 0.0
        },
        {
          "id": 26,
          "value": 0.0
        },
        {
          "id": 27,
          "value": 0.0
        },
        {
          "id": 28,
          "value": 0.0
        },
        {
          "id": 29,
          "value": 0.0
        },
        {
          "id": 30,
          "value": 0.0
        },
        {
          "id": 31,
          "value": 0.0
        },
        {
          "id": 32,
          "value": 0.0
        },
        {
          "id": 33,
          "value": 0.0
        },
        {
          "id": 34,
          "value": 0.0
        },
        {
          "id": 35,
          "value": 0.0
        }
      ],
      "rightModuleId": 30,
      "data": {
        "running": true,
        "gates": [
          1,
          1,
          1,
          1,
          1,
          1,
          1,
          1
        ]
      },
      "pos": [
        0,
        1
      ]
    }
  ],
  "cables": [
    {
      "id": 41,
      "outputModuleId": 32,
      "outputId": 1,
      "inputModuleId": 31,
      "inputId": 0,
      "color": "#c9b70e"
    },
    {
      "id": 42,
      "outputModuleId": 32,
      "outputId": 0,
      "inputModuleId": 31,
      "inputId": 1,
      "color": "#0c8e15"
    },
    {
      "id": 50,
      "outputModuleId": 30,
      "outputId": 3,
      "inputModuleId": 25,
      "inputId": 4,
      "color": "#0c8e15"
    },
    {
      "id": 53,
      "outputModuleId": 34,
      "outputId": 3,
      "inputModuleId": 25,
      "inputId": 5,
      "color": "#c9b70e"
    },
    {
      "id": 56,
      "outputModuleId": 41,
      "outputId": 3,
      "inputModuleId": 25,
      "inputId": 6,
      "color": "#0986ad"
    },
    {
      "id": 57,
      "outputModuleId": 42,
      "outputId": 3,
      "inputModuleId": 25,
      "inputId": 7,
      "color": "#0c8e15"
    },
    {
      "id": 59,
      "outputModuleId": 30,
      "outputId": 0,
      "inputModuleId": 25,
      "inputId": 0,
      "color": "#0986ad"
    },
    {
      "id": 60,
      "outputModuleId": 34,
      "outputId": 0,
      "inputModuleId": 25,
      "inputId": 9,
      "color": "#c9b70e"
    },
    {
      "id": 61,
      "outputModuleId": 41,
      "outputId": 0,
      "inputModuleId": 25,
      "inputId": 10,
      "color": "#0c8e15"
    },
    {
      "id": 62,
      "outputModuleId": 42,
      "outputId": 0,
      "inputModuleId": 25,
      "inputId": 11,
      "color": "#c91847"
    },
    {
      "id": 58,
      "outputModuleId": 25,
      "outputId": 3,
      "inputModuleId": 28,
      "inputId": 0,
      "color": "#c91847"
    },
    {
      "id": 64,
      "outputModuleId": 40,
      "outputId": 4,
      "inputModuleId": 43,
      "inputId": 0,
      "color": "#c9b70e"
    },
    {
      "id": 65,
      "outputModuleId": 40,
      "outputId": 4,
      "inputModuleId": 25,
      "inputId": 12,
      "color": "#0c8e15"
    },
    {
      "id": 66,
      "outputModuleId": 40,
      "outputId": 4,
      "inputModuleId": 25,
      "inputId": 13,
      "color": "#c91847"
    },
    {
      "id": 67,
      "outputModuleId": 40,
      "outputId": 4,
      "inputModuleId": 25,
      "inputId": 14,
      "color": "#0986ad"
    },
    {
      "id": 68,
      "outputModuleId": 40,
      "outputId": 4,
      "inputModuleId": 25,
      "inputId": 15,
      "color": "#c9b70e"
    },
    {
      "id": 69,
      "outputModuleId": 44,
      "outputId": 0,
      "inputModuleId": 32,
      "inputId": 0,
      "color": "#0c8e15"
    },
    {
      "id": 74,
      "outputModuleId": 46,
      "outputId": 0,
      "inputModuleId": 44,
      "inputId": 7,
      "color": "#0986ad"
    },
    {
      "id": 73,
      "outputModuleId": 46,
      "outputId": 0,
      "inputModuleId": 25,
      "inputId": 8,
      "color": "#c91847"
    },
    {
      "id": 63,
      "outputModuleId": 43,
      "outputId": 0,
      "inputModuleId": 44,
      "inputId": 5,
      "color": "#0986ad"
    },
    {
      "id": 76,
      "outputModuleId": 40,
      "outputId": 3,
      "inputModuleId": 44,
      "inputId": 1,
      "color": "#0c8e15"
    },
    {
      "id": 52,
      "outputModuleId": 25,
      "outputId": 3,
      "inputModuleId": 43,
      "inputId": 3,
      "color": "#0986ad"
    },
    {
      "id": 77,
      "outputModuleId": 47,
      "outputId": 1,
      "inputModuleId": 30,
      "inputId": 0,
      "color": "#c91847"
    },
    {
      "id": 78,
      "outputModuleId": 47,
      "outputId": 1,
      "inputModuleId": 34,
      "inputId": 0,
      "color": "#0986ad"
    },
    {
      "id": 79,
      "outputModuleId": 47,
      "outputId": 1,
      "inputModuleId": 41,
      "inputId": 0,
      "color": "#c9b70e"
    },
    {
      "id": 80,
      "outputModuleId": 47,
      "outputId": 1,
      "inputModuleId": 42,
      "inputId": 0,
      "color": "#0c8e15"
    },
    {
      "id": 82,
      "outputModuleId": 46,
      "outputId": 0,
      "inputModuleId": 47,
      "inputId": 1,
      "color": "#0986ad"
    }
  ]
}