{
  "version": "1.1.3",
  "modules": [
    {
      "id": 20,
      "plugin": "Core",
      "version": "1.1.3",
      "model": "AudioInterface",
      "params": [],
      "leftModuleId": 35,
      "rightModuleId": 36,
      "data": {
        "audio": {
          "driver": 1,
          "deviceName": "hw:Scarlett 2i2 USB,0",
          "offset": 0,
          "maxChannels": 8,
          "sampleRate": 48000,
          "blockSize": 256
        }
      },
      "pos": [
        98,
        0
      ]
    },
    {
      "id": 23,
      "plugin": "repelzen",
      "version": "1.1.0",
      "model": "rexmix",
      "params": [
        {
          "id": 0,
          "value": 0.0
        },
        {
          "id": 1,
          "value": 0.0
        },
        {
          "id": 2,
          "value": 0.0
        },
        {
          "id": 3,
          "value": 0.0
        },
        {
          "id": 4,
          "value": 0.0
        },
        {
          "id": 5,
          "value": 0.0
        },
        {
          "id": 6,
          "value": 0.0
        },
        {
          "id": 7,
          "value": -7.25997782
        },
        {
          "id": 8,
          "value": -11.8800058
        },
        {
          "id": 9,
          "value": -13.199996
        },
        {
          "id": 10,
          "value": 0.0
        },
        {
          "id": 11,
          "value": 0.0
        },
        {
          "id": 12,
          "value": 0.0
        },
        {
          "id": 13,
          "value": 0.0
        },
        {
          "id": 14,
          "value": 0.0
        },
        {
          "id": 15,
          "value": 0.0
        },
        {
          "id": 16,
          "value": 0.0
        },
        {
          "id": 17,
          "value": 0.0
        },
        {
          "id": 18,
          "value": 0.0
        },
        {
          "id": 19,
          "value": 0.0
        },
        {
          "id": 20,
          "value": 0.0
        },
        {
          "id": 21,
          "value": 0.0
        },
        {
          "id": 22,
          "value": 0.0
        },
        {
          "id": 23,
          "value": 0.0
        },
        {
          "id": 24,
          "value": 0.0
        },
        {
          "id": 25,
          "value": 0.0
        },
        {
          "id": 26,
          "value": 0.0
        },
        {
          "id": 27,
          "value": 0.0
        },
        {
          "id": 28,
          "value": 0.0
        },
        {
          "id": 29,
          "value": 0.0
        },
        {
          "id": 30,
          "value": 0.0
        },
        {
          "id": 31,
          "value": 0.0
        },
        {
          "id": 32,
          "value": 0.0
        },
        {
          "id": 33,
          "value": 0.0
        },
        {
          "id": 34,
          "value": 0.0
        },
        {
          "id": 35,
          "value": 0.0
        },
        {
          "id": 36,
          "value": 0.0
        },
        {
          "id": 37,
          "value": 0.0
        },
        {
          "id": 38,
          "value": 0.0
        },
        {
          "id": 39,
          "value": 0.0
        },
        {
          "id": 40,
          "value": 0.292500049
        },
        {
          "id": 41,
          "value": 0.255000025
        },
        {
          "id": 42,
          "value": 0.0
        },
        {
          "id": 43,
          "value": 0.0
        },
        {
          "id": 44,
          "value": 0.487499744
        },
        {
          "id": 45,
          "value": 0.505499899
        },
        {
          "id": 46,
          "value": 0.0
        },
        {
          "id": 47,
          "value": 0.0
        },
        {
          "id": 48,
          "value": 0.0
        },
        {
          "id": 49,
          "value": 0.0
        },
        {
          "id": 50,
          "value": 0.0
        },
        {
          "id": 51,
          "value": 0.0
        }
      ],
      "leftModuleId": 24,
      "rightModuleId": 35,
      "pos": [
        58,
        0
      ]
    },
    {
      "id": 24,
      "plugin": "repelzen",
      "version": "1.1.0",
      "model": "rexmix",
      "params": [
        {
          "id": 0,
          "value": 0.0
        },
        {
          "id": 1,
          "value": 0.0
        },
        {
          "id": 2,
          "value": 0.0
        },
        {
          "id": 3,
          "value": 0.0
        },
        {
          "id": 4,
          "value": -9.23997784
        },
        {
          "id": 5,
          "value": -18.2700043
        },
        {
          "id": 6,
          "value": -17.6999702
        },
        {
          "id": 7,
          "value": -60.0
        },
        {
          "id": 8,
          "value": -60.0
        },
        {
          "id": 9,
          "value": -60.0
        },
        {
          "id": 10,
          "value": 0.0
        },
        {
          "id": 11,
          "value": 0.0
        },
        {
          "id": 12,
          "value": 0.0
        },
        {
          "id": 13,
          "value": 0.0
        },
        {
          "id": 14,
          "value": 0.0
        },
        {
          "id": 15,
          "value": 0.0
        },
        {
          "id": 16,
          "value": 0.0
        },
        {
          "id": 17,
          "value": 0.0
        },
        {
          "id": 18,
          "value": 0.0
        },
        {
          "id": 19,
          "value": 0.0
        },
        {
          "id": 20,
          "value": 0.0
        },
        {
          "id": 21,
          "value": 0.0
        },
        {
          "id": 22,
          "value": 0.0
        },
        {
          "id": 23,
          "value": 0.0
        },
        {
          "id": 24,
          "value": 0.0
        },
        {
          "id": 25,
          "value": 0.0
        },
        {
          "id": 26,
          "value": 0.0
        },
        {
          "id": 27,
          "value": 0.0
        },
        {
          "id": 28,
          "value": 0.0
        },
        {
          "id": 29,
          "value": 0.0
        },
        {
          "id": 30,
          "value": 0.0
        },
        {
          "id": 31,
          "value": 0.0
        },
        {
          "id": 32,
          "value": 0.0
        },
        {
          "id": 33,
          "value": 0.0
        },
        {
          "id": 34,
          "value": 0.0
        },
        {
          "id": 35,
          "value": 0.0
        },
        {
          "id": 36,
          "value": 0.0
        },
        {
          "id": 37,
          "value": 0.0
        },
        {
          "id": 38,
          "value": 0.0
        },
        {
          "id": 39,
          "value": 0.0
        },
        {
          "id": 40,
          "value": 0.0
        },
        {
          "id": 41,
          "value": 0.0
        },
        {
          "id": 42,
          "value": 0.0
        },
        {
          "id": 43,
          "value": 0.0
        },
        {
          "id": 44,
          "value": 0.0
        },
        {
          "id": 45,
          "value": 0.0
        },
        {
          "id": 46,
          "value": 0.0
        },
        {
          "id": 47,
          "value": 0.0
        },
        {
          "id": 48,
          "value": 0.0
        },
        {
          "id": 49,
          "value": 0.0
        },
        {
          "id": 50,
          "value": 0.0
        },
        {
          "id": 51,
          "value": 0.0
        }
      ],
      "rightModuleId": 23,
      "pos": [
        30,
        0
      ]
    },
    {
      "id": 25,
      "plugin": "repelzen",
      "version": "1.1.0",
      "model": "reblank",
      "params": [],
      "leftModuleId": 73,
      "rightModuleId": 80,
      "pos": [
        53,
        2
      ]
    },
    {
      "id": 26,
      "plugin": "ImpromptuModular",
      "version": "1.1.1",
      "model": "Clocked",
      "params": [
        {
          "id": 0,
          "value": 177.0
        },
        {
          "id": 1,
          "value": 2.0
        },
        {
          "id": 2,
          "value": -9.0
        },
        {
          "id": 3,
          "value": -9.0
        },
        {
          "id": 4,
          "value": 0.0
        },
        {
          "id": 5,
          "value": 0.0
        },
        {
          "id": 6,
          "value": 0.0
        },
        {
          "id": 7,
          "value": 0.0
        },
        {
          "id": 8,
          "value": 0.5
        },
        {
          "id": 9,
          "value": 0.5
        },
        {
          "id": 10,
          "value": 0.5
        },
        {
          "id": 11,
          "value": 0.5
        },
        {
          "id": 12,
          "value": 0.0
        },
        {
          "id": 13,
          "value": 0.0
        },
        {
          "id": 14,
          "value": 0.0
        },
        {
          "id": 15,
          "value": 0.0
        },
        {
          "id": 16,
          "value": 0.0
        },
        {
          "id": 17,
          "value": 0.0
        },
        {
          "id": 18,
          "value": 0.0
        },
        {
          "id": 19,
          "value": 0.0
        }
      ],
      "data": {
        "panelTheme": 1,
        "running": false,
        "displayDelayNoteMode": true,
        "bpmDetectionMode": false,
        "emitResetOnStopRun": false,
        "ppqn": 4,
        "resetClockOutputsHigh": true
      },
      "pos": [
        6,
        0
      ]
    },
    {
      "id": 35,
      "plugin": "Valley",
      "version": "1.0.1",
      "model": "Plateau",
      "params": [
        {
          "id": 0,
          "value": 1.0
        },
        {
          "id": 1,
          "value": 0.5
        },
        {
          "id": 2,
          "value": 0.0
        },
        {
          "id": 3,
          "value": 10.0
        },
        {
          "id": 4,
          "value": 10.0
        },
        {
          "id": 5,
          "value": 0.5
        },
        {
          "id": 6,
          "value": 10.0
        },
        {
          "id": 7,
          "value": 0.549950004
        },
        {
          "id": 8,
          "value": 10.0
        },
        {
          "id": 9,
          "value": 10.0
        },
        {
          "id": 10,
          "value": 0.0
        },
        {
          "id": 11,
          "value": 0.5
        },
        {
          "id": 12,
          "value": 0.5
        },
        {
          "id": 13,
          "value": 0.0
        },
        {
          "id": 14,
          "value": 0.0
        },
        {
          "id": 15,
          "value": 0.0
        },
        {
          "id": 16,
          "value": 0.0
        },
        {
          "id": 17,
          "value": 0.0
        },
        {
          "id": 18,
          "value": 0.0
        },
        {
          "id": 19,
          "value": 0.0
        },
        {
          "id": 20,
          "value": 0.0
        },
        {
          "id": 21,
          "value": 0.0
        },
        {
          "id": 22,
          "value": 0.0
        },
        {
          "id": 23,
          "value": 0.0
        },
        {
          "id": 24,
          "value": 0.0
        },
        {
          "id": 25,
          "value": 0.0
        },
        {
          "id": 26,
          "value": 0.0
        },
        {
          "id": 27,
          "value": 0.0
        },
        {
          "id": 28,
          "value": 0.0
        },
        {
          "id": 29,
          "value": 0.0
        },
        {
          "id": 30,
          "value": 1.0
        }
      ],
      "leftModuleId": 23,
      "rightModuleId": 20,
      "data": {
        "frozen": false,
        "freezeToggle": false,
        "panelStyle": 0,
        "tuned": 0,
        "diffuseInput": 1,
        "preDelayCVSens": 0,
        "inputSensitivity": 0,
        "outputSaturation": 0
      },
      "pos": [
        86,
        0
      ]
    },
    {
      "id": 36,
      "plugin": "Core",
      "version": "1.1.3",
      "model": "Notes",
      "params": [],
      "leftModuleId": 20,
      "text": "Omri Cohen \nRepelzen - VCV Rack Live Stream\n\nhttps://www.youtube.com/watch?v=9408ynAsIlc\n\n  \n2nd patch in the video starting 1:16 hrs\n\n\n ",
      "pos": [
        108,
        0
      ]
    },
    {
      "id": 37,
      "plugin": "repelzen",
      "version": "1.1.0",
      "model": "reburst",
      "params": [
        {
          "id": 0,
          "value": 0.0
        },
        {
          "id": 1,
          "value": 0.508000016
        },
        {
          "id": 2,
          "value": 5.0
        },
        {
          "id": 3,
          "value": 1.0
        },
        {
          "id": 4,
          "value": 0.0
        },
        {
          "id": 5,
          "value": 0.0
        },
        {
          "id": 6,
          "value": 0.0
        },
        {
          "id": 7,
          "value": 0.0
        },
        {
          "id": 8,
          "value": 0.0
        }
      ],
      "leftModuleId": 52,
      "rightModuleId": 38,
      "pos": [
        6,
        1
      ]
    },
    {
      "id": 38,
      "plugin": "AS",
      "version": "1.0.3",
      "model": "QuadVCA",
      "params": [
        {
          "id": 0,
          "value": 0.146999791
        },
        {
          "id": 1,
          "value": 0.5
        },
        {
          "id": 2,
          "value": 0.5
        },
        {
          "id": 3,
          "value": 0.5
        },
        {
          "id": 4,
          "value": 1.0
        },
        {
          "id": 5,
          "value": 1.0
        },
        {
          "id": 6,
          "value": 1.0
        },
        {
          "id": 7,
          "value": 1.0
        }
      ],
      "leftModuleId": 37,
      "rightModuleId": 39,
      "pos": [
        14,
        1
      ]
    },
    {
      "id": 39,
      "plugin": "repelzen",
      "version": "1.1.0",
      "model": "rewin",
      "params": [
        {
          "id": 0,
          "value": 0.0
        },
        {
          "id": 1,
          "value": 0.0
        },
        {
          "id": 2,
          "value": 0.0
        },
        {
          "id": 3,
          "value": 0.0
        },
        {
          "id": 4,
          "value": 0.0
        },
        {
          "id": 5,
          "value": 0.0
        },
        {
          "id": 6,
          "value": 0.0
        },
        {
          "id": 7,
          "value": 0.0
        },
        {
          "id": 8,
          "value": 0.0
        },
        {
          "id": 9,
          "value": 0.0
        },
        {
          "id": 10,
          "value": 0.0
        },
        {
          "id": 11,
          "value": 0.0
        },
        {
          "id": 12,
          "value": 0.0
        },
        {
          "id": 13,
          "value": 0.0
        },
        {
          "id": 14,
          "value": 0.0
        },
        {
          "id": 15,
          "value": 0.0
        },
        {
          "id": 16,
          "value": 0.0
        }
      ],
      "leftModuleId": 38,
      "rightModuleId": 40,
      "data": {
        "notes": [
          false,
          false,
          false,
          false,
          true,
          false,
          true,
          false,
          false,
          false,
          false,
          true,
          false,
          false,
          false,
          false,
          true,
          false,
          false,
          false,
          true,
          true,
          false,
          false,
          false,
          false,
          false,
          true,
          false,
          true,
          true,
          false,
          false,
          false,
          false,
          true,
          false,
          true,
          false,
          false,
          false,
          false,
          false,
          false,
          true,
          false,
          false,
          false,
          false,
          false,
          false,
          false,
          true,
          false,
          true,
          false,
          false,
          false,
          false,
          true,
          false,
          false,
          false,
          false,
          false,
          false,
          false,
          false,
          false,
          false,
          false,
          false,
          false,
          false,
          false,
          false,
          false,
          false,
          false,
          false,
          false,
          false,
          false,
          false,
          false,
          false,
          false,
          false,
          false,
          false,
          false,
          false,
          false,
          false,
          false,
          false,
          false,
          false,
          false,
          false,
          false,
          false,
          false,
          false,
          false,
          false,
          false,
          false,
          false,
          false,
          false,
          false,
          false,
          false,
          false,
          false,
          false,
          false,
          false,
          false,
          false,
          false,
          false,
          false,
          false,
          false,
          false,
          false,
          false,
          false,
          false,
          false,
          false,
          false,
          false,
          false,
          false,
          false,
          false,
          false,
          false,
          false,
          false,
          false,
          false,
          false,
          false,
          false,
          false,
          false,
          false,
          false,
          false,
          false,
          false,
          false,
          false,
          false,
          false,
          false,
          false,
          false,
          false,
          false,
          false,
          false,
          false,
          false,
          false,
          false,
          false,
          false,
          false,
          false,
          false,
          false,
          false,
          false,
          false,
          false,
          false,
          false,
          false,
          false,
          false,
          false,
          false,
          false,
          false,
          false,
          false,
          false
        ],
        "mode": 0
      },
      "pos": [
        22,
        1
      ]
    },
    {
      "id": 40,
      "plugin": "RJModules",
      "version": "1.0.1",
      "model": "Acid",
      "params": [
        {
          "id": 0,
          "value": 1.0
        },
        {
          "id": 1,
          "value": 2.0
        },
        {
          "id": 2,
          "value": 0.0
        },
        {
          "id": 3,
          "value": 0.0
        },
        {
          "id": 4,
          "value": -0.707000017
        },
        {
          "id": 5,
          "value": 1.0
        },
        {
          "id": 6,
          "value": 0.561000407
        },
        {
          "id": 7,
          "value": 2.32830644e-9
        },
        {
          "id": 8,
          "value": -0.0209999941
        },
        {
          "id": 9,
          "value": 0.942099988
        },
        {
          "id": 10,
          "value": 1.97499704
        },
        {
          "id": 11,
          "value": 0.899999976
        },
        {
          "id": 12,
          "value": 0.280099958
        },
        {
          "id": 13,
          "value": 0.0646834522
        },
        {
          "id": 14,
          "value": 25.0
        }
      ],
      "leftModuleId": 39,
      "rightModuleId": 46,
      "pos": [
        30,
        1
      ]
    },
    {
      "id": 41,
      "plugin": "CountModula",
      "version": "1.2.1",
      "model": "TriggerSequencer8",
      "params": [
        {
          "id": 0,
          "value": 1.0
        },
        {
          "id": 1,
          "value": 1.0
        },
        {
          "id": 2,
          "value": 0.0
        },
        {
          "id": 3,
          "value": 2.0
        },
        {
          "id": 4,
          "value": 2.0
        },
        {
          "id": 5,
          "value": 2.0
        },
        {
          "id": 6,
          "value": 0.0
        },
        {
          "id": 7,
          "value": 2.0
        },
        {
          "id": 8,
          "value": 2.0
        },
        {
          "id": 9,
          "value": 1.0
        },
        {
          "id": 10,
          "value": 1.0
        },
        {
          "id": 11,
          "value": 1.0
        },
        {
          "id": 12,
          "value": 2.0
        },
        {
          "id": 13,
          "value": 1.0
        },
        {
          "id": 14,
          "value": 0.0
        },
        {
          "id": 15,
          "value": 1.0
        },
        {
          "id": 16,
          "value": 2.0
        },
        {
          "id": 17,
          "value": 1.0
        },
        {
          "id": 18,
          "value": 2.0
        },
        {
          "id": 19,
          "value": 1.0
        },
        {
          "id": 20,
          "value": 0.0
        },
        {
          "id": 21,
          "value": 2.0
        },
        {
          "id": 22,
          "value": 1.0
        },
        {
          "id": 23,
          "value": 1.0
        },
        {
          "id": 24,
          "value": 2.0
        },
        {
          "id": 25,
          "value": 1.0
        },
        {
          "id": 26,
          "value": 1.0
        },
        {
          "id": 27,
          "value": 1.0
        },
        {
          "id": 28,
          "value": 1.0
        },
        {
          "id": 29,
          "value": 1.0
        },
        {
          "id": 30,
          "value": 1.0
        },
        {
          "id": 31,
          "value": 1.0
        },
        {
          "id": 32,
          "value": 8.0
        },
        {
          "id": 33,
          "value": 8.0
        },
        {
          "id": 34,
          "value": 6.0
        },
        {
          "id": 35,
          "value": 5.0
        },
        {
          "id": 36,
          "value": 0.0
        },
        {
          "id": 37,
          "value": 0.0
        },
        {
          "id": 38,
          "value": 0.0
        },
        {
          "id": 39,
          "value": 0.0
        },
        {
          "id": 40,
          "value": 0.0
        },
        {
          "id": 41,
          "value": 0.0
        },
        {
          "id": 42,
          "value": 0.0
        },
        {
          "id": 43,
          "value": 0.0
        },
        {
          "id": 44,
          "value": 0.0
        },
        {
          "id": 45,
          "value": 0.0
        },
        {
          "id": 46,
          "value": 0.0
        },
        {
          "id": 47,
          "value": 0.0
        }
      ],
      "rightModuleId": 44,
      "data": {
        "moduleVersion": "1.1"
      },
      "pos": [
        6,
        3
      ]
    },
    {
      "id": 42,
      "plugin": "Autodafe-DrumKit",
      "version": "1.0.0",
      "model": "DrumsHiHatClosed",
      "params": [
        {
          "id": 0,
          "value": 0.0
        }
      ],
      "leftModuleId": 43,
      "rightModuleId": 47,
      "data": {
        "sampletype": 4
      },
      "pos": [
        48,
        3
      ]
    },
    {
      "id": 43,
      "plugin": "Autodafe-DrumKit",
      "version": "1.0.0",
      "model": "DrumsSnare",
      "params": [
        {
          "id": 0,
          "value": 0.0
        }
      ],
      "leftModuleId": 44,
      "rightModuleId": 42,
      "data": {
        "sampletype": 1
      },
      "pos": [
        44,
        3
      ]
    },
    {
      "id": 44,
      "plugin": "Autodafe-DrumKit",
      "version": "1.0.0",
      "model": "DrumsKick",
      "params": [
        {
          "id": 0,
          "value": 0.0
        }
      ],
      "leftModuleId": 41,
      "rightModuleId": 43,
      "data": {
        "sampletype": 1
      },
      "pos": [
        40,
        3
      ]
    },
    {
      "id": 46,
      "plugin": "Autodafe-DrumKit",
      "version": "1.0.0",
      "model": "DrumsMixer",
      "params": [
        {
          "id": 0,
          "value": 1.0
        },
        {
          "id": 1,
          "value": 0.664500415
        },
        {
          "id": 2,
          "value": 0.108000092
        },
        {
          "id": 3,
          "value": 0.428999692
        },
        {
          "id": 4,
          "value": 0.755999625
        },
        {
          "id": 5,
          "value": 0.643500268
        },
        {
          "id": 6,
          "value": 0.494999945
        },
        {
          "id": 7,
          "value": 0.0
        },
        {
          "id": 8,
          "value": 0.0
        },
        {
          "id": 9,
          "value": 0.0
        },
        {
          "id": 10,
          "value": 0.0
        },
        {
          "id": 11,
          "value": 0.0
        },
        {
          "id": 12,
          "value": 0.0
        },
        {
          "id": 13,
          "value": 0.0
        },
        {
          "id": 14,
          "value": 0.0
        },
        {
          "id": 15,
          "value": 0.0
        },
        {
          "id": 16,
          "value": 0.0
        },
        {
          "id": 17,
          "value": 0.0
        },
        {
          "id": 18,
          "value": 0.0
        },
        {
          "id": 19,
          "value": 0.0
        },
        {
          "id": 20,
          "value": 0.0
        },
        {
          "id": 21,
          "value": 0.0
        },
        {
          "id": 22,
          "value": 0.0
        },
        {
          "id": 23,
          "value": 0.0
        },
        {
          "id": 24,
          "value": 0.0
        }
      ],
      "leftModuleId": 40,
      "data": {
        "autodafeDrumMixerMutes": [
          0,
          0,
          0,
          0,
          0,
          0,
          0,
          0
        ]
      },
      "pos": [
        50,
        1
      ]
    },
    {
      "id": 47,
      "plugin": "Autodafe-DrumKit",
      "version": "1.0.0",
      "model": "DrumsRide",
      "params": [
        {
          "id": 0,
          "value": 0.0
        }
      ],
      "leftModuleId": 42,
      "rightModuleId": 49,
      "data": {
        "sampletype": 1
      },
      "pos": [
        52,
        3
      ]
    },
    {
      "id": 48,
      "plugin": "Bogaudio",
      "version": "1.1.22",
      "model": "Bogaudio-EightFO",
      "params": [
        {
          "id": 0,
          "value": -3.29550123
        },
        {
          "id": 1,
          "value": 3.0
        },
        {
          "id": 2,
          "value": 0.0
        },
        {
          "id": 3,
          "value": 0.0
        },
        {
          "id": 4,
          "value": 0.0
        },
        {
          "id": 5,
          "value": 0.0
        },
        {
          "id": 6,
          "value": 0.0
        },
        {
          "id": 7,
          "value": 0.0
        },
        {
          "id": 8,
          "value": 0.0
        },
        {
          "id": 9,
          "value": 0.0
        },
        {
          "id": 10,
          "value": 0.16700004
        },
        {
          "id": 11,
          "value": 0.0
        },
        {
          "id": 12,
          "value": 0.0
        },
        {
          "id": 13,
          "value": 1.0
        }
      ],
      "leftModuleId": 50,
      "pos": [
        64,
        3
      ]
    },
    {
      "id": 49,
      "plugin": "Autodafe-DrumKit",
      "version": "1.0.0",
      "model": "DrumsRimClaves",
      "params": [
        {
          "id": 0,
          "value": 0.0
        }
      ],
      "leftModuleId": 47,
      "rightModuleId": 50,
      "data": {
        "sampletype": 1
      },
      "pos": [
        56,
        3
      ]
    },
    {
      "id": 50,
      "plugin": "Autodafe-DrumKit",
      "version": "1.0.0",
      "model": "DrumsClaps",
      "params": [
        {
          "id": 0,
          "value": 0.0
        }
      ],
      "leftModuleId": 49,
      "rightModuleId": 48,
      "data": {
        "sampletype": 7
      },
      "pos": [
        60,
        3
      ]
    },
    {
      "id": 52,
      "plugin": "Bogaudio",
      "version": "1.1.22",
      "model": "Bogaudio-AddrSeq",
      "params": [
        {
          "id": 0,
          "value": 5.0
        },
        {
          "id": 1,
          "value": 1.0
        },
        {
          "id": 2,
          "value": 0.0
        },
        {
          "id": 3,
          "value": 0.0700000003
        },
        {
          "id": 4,
          "value": 0.129999995
        },
        {
          "id": 5,
          "value": 0.209999993
        },
        {
          "id": 6,
          "value": 0.270000011
        },
        {
          "id": 7,
          "value": 0.310000002
        },
        {
          "id": 8,
          "value": 0.0
        },
        {
          "id": 9,
          "value": 0.0
        },
        {
          "id": 10,
          "value": 0.0
        }
      ],
      "rightModuleId": 37,
      "data": {
        "select_on_clock": false,
        "range_offset": 0.0,
        "range_scale": 10.0
      },
      "pos": [
        0,
        1
      ]
    },
    {
      "id": 54,
      "plugin": "NYSTHI",
      "version": "1.0.3",
      "model": "PolySevenSeas",
      "params": [
        {
          "id": 0,
          "value": 0.0
        },
        {
          "id": 1,
          "value": 0.0
        },
        {
          "id": 2,
          "value": 0.0
        },
        {
          "id": 3,
          "value": 0.0
        },
        {
          "id": 4,
          "value": 0.88800025
        },
        {
          "id": 5,
          "value": 0.0
        },
        {
          "id": 6,
          "value": 0.0
        },
        {
          "id": 7,
          "value": 0.0
        },
        {
          "id": 8,
          "value": 0.0
        },
        {
          "id": 9,
          "value": 0.0
        },
        {
          "id": 10,
          "value": 0.0
        },
        {
          "id": 11,
          "value": 0.0
        },
        {
          "id": 12,
          "value": 0.180320203
        },
        {
          "id": 13,
          "value": 0.0520999283
        },
        {
          "id": 14,
          "value": 0.0
        },
        {
          "id": 15,
          "value": 0.0
        },
        {
          "id": 16,
          "value": 0.0
        },
        {
          "id": 17,
          "value": 0.0
        },
        {
          "id": 18,
          "value": 0.0
        },
        {
          "id": 19,
          "value": 0.0
        },
        {
          "id": 20,
          "value": 0.0
        },
        {
          "id": 21,
          "value": 0.0
        },
        {
          "id": 22,
          "value": 0.0
        },
        {
          "id": 23,
          "value": 0.0
        },
        {
          "id": 24,
          "value": 0.0
        }
      ],
      "leftModuleId": 84,
      "rightModuleId": 60,
      "data": {
        "m_stop_animations": false,
        "m_decimate_mode": 0,
        "m_current_octave": 0,
        "m_bank": 0.30035156,
        "m_wave": 0.0,
        "m_pw": 0.5,
        "m_swarming": false,
        "m_morphing": true,
        "m_multithreaded": true,
        "m_multithreaded_processing_block": 256,
        "m_bank_navigator_scale": 4.0,
        "m_global_original_file_name": "sevenseas_default",
        "m_original_file_name_array": [
          "",
          "",
          "",
          "",
          "",
          "",
          "",
          "",
          "",
          "",
          "",
          "",
          "",
          "",
          "",
          "",
          "",
          "",
          "",
          "",
          "",
          "",
          "",
          "",
          "",
          "",
          "",
          "",
          "",
          "",
          "",
          "",
          "",
          "",
          "",
          "",
          "",
          "",
          "",
          "",
          "",
          "",
          "",
          "",
          "",
          "",
          "",
          "",
          "",
          "",
          "",
          "",
          "",
          "",
          "",
          "",
          "",
          "",
          "",
          "",
          "",
          "",
          "",
          ""
        ],
        "m_swarming_vco_count": 8
      },
      "pos": [
        77,
        2
      ]
    },
    {
      "id": 55,
      "plugin": "NYSTHI",
      "version": "1.0.3",
      "model": "b208_5steps",
      "params": [
        {
          "id": 0,
          "value": 0.0
        },
        {
          "id": 1,
          "value": 0.0
        },
        {
          "id": 2,
          "value": 0.0
        },
        {
          "id": 3,
          "value": 0.0
        },
        {
          "id": 4,
          "value": 0.0
        },
        {
          "id": 5,
          "value": 0.0
        },
        {
          "id": 6,
          "value": 0.0
        },
        {
          "id": 7,
          "value": 1.0
        },
        {
          "id": 8,
          "value": 1.0
        },
        {
          "id": 9,
          "value": 1.0
        },
        {
          "id": 10,
          "value": 1.0
        },
        {
          "id": 11,
          "value": 1.0
        },
        {
          "id": 12,
          "value": 0.0
        },
        {
          "id": 13,
          "value": 0.0
        },
        {
          "id": 14,
          "value": 0.0
        },
        {
          "id": 15,
          "value": 0.0
        },
        {
          "id": 16,
          "value": 0.0
        },
        {
          "id": 17,
          "value": 0.0
        },
        {
          "id": 18,
          "value": 0.0
        },
        {
          "id": 19,
          "value": 0.0
        },
        {
          "id": 20,
          "value": 0.0
        },
        {
          "id": 21,
          "value": 2.73999953
        },
        {
          "id": 22,
          "value": 1.0
        },
        {
          "id": 23,
          "value": 3.52000046
        },
        {
          "id": 24,
          "value": 1.0
        },
        {
          "id": 25,
          "value": 1.9000001
        },
        {
          "id": 26,
          "value": 0.0
        },
        {
          "id": 27,
          "value": 0.0
        }
      ],
      "leftModuleId": 60,
      "rightModuleId": 57,
      "data": {
        "m_max_steps1": 5,
        "m_max_steps2": 5,
        "m_trig_on_bitset": 0,
        "m_trig_on2_bitset": 21,
        "m_reset_is_immediate": true
      },
      "pos": [
        100,
        2
      ]
    },
    {
      "id": 56,
      "plugin": "AS",
      "version": "1.0.3",
      "model": "ADSR",
      "params": [
        {
          "id": 0,
          "value": 0.119999982
        },
        {
          "id": 1,
          "value": 0.568999708
        },
        {
          "id": 2,
          "value": 0.497000724
        },
        {
          "id": 3,
          "value": 0.629000068
        }
      ],
      "leftModuleId": 57,
      "pos": [
        112,
        2
      ]
    },
    {
      "id": 57,
      "plugin": "Fundamental",
      "version": "1.2.0",
      "model": "VCA-1",
      "params": [
        {
          "id": 0,
          "value": 0.68050009
        },
        {
          "id": 1,
          "value": 1.0
        }
      ],
      "leftModuleId": 55,
      "rightModuleId": 56,
      "pos": [
        109,
        2
      ]
    },
    {
      "id": 60,
      "plugin": "Fundamental",
      "version": "1.2.0",
      "model": "Merge",
      "params": [],
      "leftModuleId": 54,
      "rightModuleId": 55,
      "data": {
        "channels": -1
      },
      "pos": [
        95,
        2
      ]
    },
    {
      "id": 62,
      "plugin": "LindenbergResearch",
      "version": "1.0.0",
      "model": "DIODE_VCF",
      "params": [
        {
          "id": 0,
          "value": 0.688001156
        },
        {
          "id": 1,
          "value": 0.626499951
        },
        {
          "id": 2,
          "value": 0.482499927
        },
        {
          "id": 3,
          "value": 0.591299713
        },
        {
          "id": 4,
          "value": 0.577799678
        },
        {
          "id": 5,
          "value": 0.0
        }
      ],
      "leftModuleId": 67,
      "gestaltID": 1,
      "gradient": true,
      "patina": false,
      "patina_a_x": -216.554642,
      "patina_a_y": -303.941956,
      "patina_b_x": -263.288025,
      "patina_b_y": -156.367142,
      "pos": [
        24,
        2
      ]
    },
    {
      "id": 64,
      "plugin": "repelzen",
      "version": "1.1.0",
      "model": "reburst",
      "params": [
        {
          "id": 0,
          "value": 0.0
        },
        {
          "id": 1,
          "value": 0.581500471
        },
        {
          "id": 2,
          "value": 7.0
        },
        {
          "id": 3,
          "value": 1.0
        },
        {
          "id": 4,
          "value": 0.0
        },
        {
          "id": 5,
          "value": 2.0
        },
        {
          "id": 6,
          "value": 0.0
        },
        {
          "id": 7,
          "value": 0.0
        },
        {
          "id": 8,
          "value": 0.284999996
        }
      ],
      "rightModuleId": 67,
      "pos": [
        6,
        2
      ]
    },
    {
      "id": 67,
      "plugin": "squinkylabs-plug1",
      "version": "1.0.3",
      "model": "squinkylabs-funv",
      "params": [
        {
          "id": 0,
          "value": 1.0
        },
        {
          "id": 1,
          "value": 1.0
        },
        {
          "id": 2,
          "value": -12.7979889
        },
        {
          "id": 3,
          "value": 0.0
        },
        {
          "id": 4,
          "value": 0.123000003
        },
        {
          "id": 5,
          "value": 0.699499726
        },
        {
          "id": 6,
          "value": 0.0
        }
      ],
      "leftModuleId": 64,
      "rightModuleId": 62,
      "pos": [
        14,
        2
      ]
    },
    {
      "id": 69,
      "plugin": "VultModulesFree",
      "version": "1.2.0",
      "model": "Trummor2",
      "params": [
        {
          "id": 0,
          "value": 0.0500000007
        },
        {
          "id": 1,
          "value": 0.5
        },
        {
          "id": 2,
          "value": 0.0
        },
        {
          "id": 3,
          "value": 0.0
        },
        {
          "id": 4,
          "value": 0.0
        },
        {
          "id": 5,
          "value": 0.0
        },
        {
          "id": 6,
          "value": 0.0
        },
        {
          "id": 7,
          "value": 0.200000003
        },
        {
          "id": 8,
          "value": 0.400000006
        },
        {
          "id": 9,
          "value": 0.0
        },
        {
          "id": 10,
          "value": 0.0
        },
        {
          "id": 11,
          "value": 0.699999988
        },
        {
          "id": 12,
          "value": 0.100000001
        },
        {
          "id": 13,
          "value": 0.0
        },
        {
          "id": 14,
          "value": 0.0
        },
        {
          "id": 15,
          "value": 0.949999988
        },
        {
          "id": 16,
          "value": 0.0
        },
        {
          "id": 17,
          "value": 0.0
        },
        {
          "id": 18,
          "value": 0.0
        },
        {
          "id": 19,
          "value": 0.0500000007
        },
        {
          "id": 20,
          "value": 0.0500000007
        },
        {
          "id": 21,
          "value": 0.0
        },
        {
          "id": 22,
          "value": 0.0
        },
        {
          "id": 23,
          "value": 0.100000001
        },
        {
          "id": 24,
          "value": 0.0
        },
        {
          "id": 25,
          "value": 0.0
        },
        {
          "id": 26,
          "value": 0.0
        },
        {
          "id": 27,
          "value": 0.0
        },
        {
          "id": 28,
          "value": 0.0
        },
        {
          "id": 29,
          "value": 0.0
        },
        {
          "id": 30,
          "value": 0.0
        },
        {
          "id": 31,
          "value": 0.0
        },
        {
          "id": 32,
          "value": 0.0
        }
      ],
      "data": {
        "mod_a": 0,
        "mod_b": 0,
        "mod_c": 0,
        "mod_d": 0,
        "mk2": true
      },
      "pos": [
        88,
        1
      ]
    },
    {
      "id": 73,
      "plugin": "squinkylabs-plug1",
      "version": "1.0.3",
      "model": "squinkylabs-vocalfilter",
      "params": [
        {
          "id": 0,
          "value": 1.5600009
        },
        {
          "id": 1,
          "value": 1.0
        },
        {
          "id": 2,
          "value": -2.17500353
        },
        {
          "id": 3,
          "value": 0.315999538
        },
        {
          "id": 4,
          "value": -1.82999992
        },
        {
          "id": 5,
          "value": 0.471999556
        },
        {
          "id": 6,
          "value": 1.0
        },
        {
          "id": 7,
          "value": 0.0
        },
        {
          "id": 8,
          "value": 1.0
        }
      ],
      "rightModuleId": 25,
      "pos": [
        41,
        2
      ]
    },
    {
      "id": 77,
      "plugin": "VultModulesFree",
      "version": "1.2.0",
      "model": "Slap",
      "params": [
        {
          "id": 0,
          "value": 0.0134999976
        },
        {
          "id": 1,
          "value": 0.606499791
        },
        {
          "id": 2,
          "value": 0.687499464
        },
        {
          "id": 3,
          "value": 0.66050005
        },
        {
          "id": 4,
          "value": 0.0
        },
        {
          "id": 5,
          "value": 0.549000025
        },
        {
          "id": 6,
          "value": 0.0
        },
        {
          "id": 7,
          "value": 0.0
        },
        {
          "id": 8,
          "value": 0.0
        }
      ],
      "pos": [
        110,
        1
      ]
    },
    {
      "id": 80,
      "plugin": "repelzen",
      "version": "1.1.0",
      "model": "reblank",
      "params": [],
      "leftModuleId": 25,
      "rightModuleId": 81,
      "pos": [
        57,
        2
      ]
    },
    {
      "id": 81,
      "plugin": "repelzen",
      "version": "1.1.0",
      "model": "reblank",
      "params": [],
      "leftModuleId": 80,
      "rightModuleId": 82,
      "pos": [
        61,
        2
      ]
    },
    {
      "id": 82,
      "plugin": "repelzen",
      "version": "1.1.0",
      "model": "reblank",
      "params": [],
      "leftModuleId": 81,
      "rightModuleId": 83,
      "pos": [
        65,
        2
      ]
    },
    {
      "id": 83,
      "plugin": "repelzen",
      "version": "1.1.0",
      "model": "reblank",
      "params": [],
      "leftModuleId": 82,
      "rightModuleId": 84,
      "pos": [
        69,
        2
      ]
    },
    {
      "id": 84,
      "plugin": "repelzen",
      "version": "1.1.0",
      "model": "reblank",
      "params": [],
      "leftModuleId": 83,
      "rightModuleId": 54,
      "pos": [
        73,
        2
      ]
    }
  ],
  "cables": [
    {
      "id": 96,
      "outputModuleId": 23,
      "outputId": 0,
      "inputModuleId": 20,
      "inputId": 0,
      "color": "#c9b70e"
    },
    {
      "id": 97,
      "outputModuleId": 23,
      "outputId": 1,
      "inputModuleId": 20,
      "inputId": 1,
      "color": "#0c8e15"
    },
    {
      "id": 98,
      "outputModuleId": 24,
      "outputId": 0,
      "inputModuleId": 23,
      "inputId": 4,
      "color": "#c9b70e"
    },
    {
      "id": 99,
      "outputModuleId": 24,
      "outputId": 1,
      "inputModuleId": 23,
      "inputId": 5,
      "color": "#0c8e15"
    },
    {
      "id": 100,
      "outputModuleId": 23,
      "outputId": 2,
      "inputModuleId": 35,
      "inputId": 0,
      "color": "#0986ad"
    },
    {
      "id": 101,
      "outputModuleId": 23,
      "outputId": 3,
      "inputModuleId": 35,
      "inputId": 1,
      "color": "#c9b70e"
    },
    {
      "id": 102,
      "outputModuleId": 35,
      "outputId": 0,
      "inputModuleId": 23,
      "inputId": 0,
      "color": "#0c8e15"
    },
    {
      "id": 103,
      "outputModuleId": 35,
      "outputId": 1,
      "inputModuleId": 23,
      "inputId": 1,
      "color": "#c91847"
    },
    {
      "id": 108,
      "outputModuleId": 37,
      "outputId": 0,
      "inputModuleId": 40,
      "inputId": 2,
      "color": "#0c8e15"
    },
    {
      "id": 114,
      "outputModuleId": 39,
      "outputId": 0,
      "inputModuleId": 40,
      "inputId": 0,
      "color": "#c9b70e"
    },
    {
      "id": 115,
      "outputModuleId": 26,
      "outputId": 1,
      "inputModuleId": 37,
      "inputId": 1,
      "color": "#c9b70e"
    },
    {
      "id": 129,
      "outputModuleId": 42,
      "outputId": 0,
      "inputModuleId": 46,
      "inputId": 7,
      "color": "#0986ad"
    },
    {
      "id": 128,
      "outputModuleId": 41,
      "outputId": 0,
      "inputModuleId": 42,
      "inputId": 0,
      "color": "#c91847"
    },
    {
      "id": 130,
      "outputModuleId": 41,
      "outputId": 1,
      "inputModuleId": 43,
      "inputId": 0,
      "color": "#c9b70e"
    },
    {
      "id": 133,
      "outputModuleId": 41,
      "outputId": 2,
      "inputModuleId": 44,
      "inputId": 0,
      "color": "#0c8e15"
    },
    {
      "id": 138,
      "outputModuleId": 44,
      "outputId": 0,
      "inputModuleId": 46,
      "inputId": 1,
      "color": "#0986ad"
    },
    {
      "id": 139,
      "outputModuleId": 43,
      "outputId": 0,
      "inputModuleId": 46,
      "inputId": 4,
      "color": "#c9b70e"
    },
    {
      "id": 135,
      "outputModuleId": 41,
      "outputId": 3,
      "inputModuleId": 47,
      "inputId": 0,
      "color": "#0986ad"
    },
    {
      "id": 141,
      "outputModuleId": 47,
      "outputId": 0,
      "inputModuleId": 46,
      "inputId": 10,
      "color": "#c91847"
    },
    {
      "id": 142,
      "outputModuleId": 48,
      "outputId": 0,
      "inputModuleId": 46,
      "inputId": 11,
      "color": "#0986ad"
    },
    {
      "id": 143,
      "outputModuleId": 41,
      "outputId": 4,
      "inputModuleId": 49,
      "inputId": 0,
      "color": "#c9b70e"
    },
    {
      "id": 144,
      "outputModuleId": 49,
      "outputId": 0,
      "inputModuleId": 46,
      "inputId": 13,
      "color": "#0c8e15"
    },
    {
      "id": 145,
      "outputModuleId": 48,
      "outputId": 1,
      "inputModuleId": 46,
      "inputId": 14,
      "color": "#c91847"
    },
    {
      "id": 146,
      "outputModuleId": 41,
      "outputId": 5,
      "inputModuleId": 50,
      "inputId": 0,
      "color": "#0986ad"
    },
    {
      "id": 147,
      "outputModuleId": 50,
      "outputId": 0,
      "inputModuleId": 46,
      "inputId": 16,
      "color": "#c9b70e"
    },
    {
      "id": 148,
      "outputModuleId": 48,
      "outputId": 1,
      "inputModuleId": 46,
      "inputId": 20,
      "color": "#0c8e15"
    },
    {
      "id": 149,
      "outputModuleId": 48,
      "outputId": 0,
      "inputModuleId": 46,
      "inputId": 17,
      "color": "#c91847"
    },
    {
      "id": 150,
      "outputModuleId": 26,
      "outputId": 3,
      "inputModuleId": 52,
      "inputId": 0,
      "color": "#0986ad"
    },
    {
      "id": 151,
      "outputModuleId": 52,
      "outputId": 0,
      "inputModuleId": 39,
      "inputId": 6,
      "color": "#c9b70e"
    },
    {
      "id": 161,
      "outputModuleId": 60,
      "outputId": 0,
      "inputModuleId": 57,
      "inputId": 1,
      "color": "#0c8e15"
    },
    {
      "id": 127,
      "outputModuleId": 26,
      "outputId": 1,
      "inputModuleId": 41,
      "inputId": 4,
      "color": "#0c8e15"
    },
    {
      "id": 164,
      "outputModuleId": 26,
      "outputId": 1,
      "inputModuleId": 64,
      "inputId": 1,
      "color": "#c9b70e"
    },
    {
      "id": 176,
      "outputModuleId": 26,
      "outputId": 3,
      "inputModuleId": 64,
      "inputId": 0,
      "color": "#0c8e15"
    },
    {
      "id": 179,
      "outputModuleId": 48,
      "outputId": 0,
      "inputModuleId": 62,
      "inputId": 1,
      "color": "#c9b70e"
    },
    {
      "id": 171,
      "outputModuleId": 39,
      "outputId": 2,
      "inputModuleId": 67,
      "inputId": 1,
      "color": "#c9b70e"
    },
    {
      "id": 181,
      "outputModuleId": 64,
      "outputId": 2,
      "inputModuleId": 67,
      "inputId": 0,
      "color": "#0986ad"
    },
    {
      "id": 183,
      "outputModuleId": 26,
      "outputId": 1,
      "inputModuleId": 67,
      "inputId": 2,
      "color": "#0c8e15"
    },
    {
      "id": 184,
      "outputModuleId": 48,
      "outputId": 2,
      "inputModuleId": 62,
      "inputId": 2,
      "color": "#c91847"
    },
    {
      "id": 170,
      "outputModuleId": 64,
      "outputId": 2,
      "inputModuleId": 39,
      "inputId": 4,
      "color": "#0986ad"
    },
    {
      "id": 156,
      "outputModuleId": 48,
      "outputId": 2,
      "inputModuleId": 54,
      "inputId": 7,
      "color": "#c9b70e"
    },
    {
      "id": 153,
      "outputModuleId": 55,
      "outputId": 3,
      "inputModuleId": 39,
      "inputId": 5,
      "color": "#0986ad"
    },
    {
      "id": 187,
      "outputModuleId": 55,
      "outputId": 2,
      "inputModuleId": 69,
      "inputId": 0,
      "color": "#0986ad"
    },
    {
      "id": 189,
      "outputModuleId": 26,
      "outputId": 4,
      "inputModuleId": 55,
      "inputId": 2,
      "color": "#c91847"
    },
    {
      "id": 137,
      "outputModuleId": 46,
      "outputId": 1,
      "inputModuleId": 23,
      "inputId": 9,
      "color": "#0c8e15"
    },
    {
      "id": 136,
      "outputModuleId": 46,
      "outputId": 0,
      "inputModuleId": 23,
      "inputId": 8,
      "color": "#c9b70e"
    },
    {
      "id": 188,
      "outputModuleId": 69,
      "outputId": 0,
      "inputModuleId": 23,
      "inputId": 7,
      "color": "#c9b70e"
    },
    {
      "id": 109,
      "outputModuleId": 40,
      "outputId": 0,
      "inputModuleId": 23,
      "inputId": 6,
      "color": "#0986ad"
    },
    {
      "id": 126,
      "outputModuleId": 37,
      "outputId": 2,
      "inputModuleId": 40,
      "inputId": 9,
      "color": "#0c8e15"
    },
    {
      "id": 159,
      "outputModuleId": 54,
      "outputId": 2,
      "inputModuleId": 60,
      "inputId": 0,
      "color": "#0986ad"
    },
    {
      "id": 160,
      "outputModuleId": 54,
      "outputId": 3,
      "inputModuleId": 60,
      "inputId": 1,
      "color": "#c9b70e"
    },
    {
      "id": 186,
      "outputModuleId": 39,
      "outputId": 3,
      "inputModuleId": 54,
      "inputId": 1,
      "color": "#c9b70e"
    },
    {
      "id": 154,
      "outputModuleId": 57,
      "outputId": 0,
      "inputModuleId": 24,
      "inputId": 4,
      "color": "#c9b70e"
    },
    {
      "id": 178,
      "outputModuleId": 62,
      "outputId": 0,
      "inputModuleId": 60,
      "inputId": 2,
      "color": "#0986ad"
    },
    {
      "id": 162,
      "outputModuleId": 56,
      "outputId": 0,
      "inputModuleId": 57,
      "inputId": 0,
      "color": "#c91847"
    },
    {
      "id": 157,
      "outputModuleId": 26,
      "outputId": 0,
      "inputModuleId": 56,
      "inputId": 4,
      "color": "#0c8e15"
    },
    {
      "id": 163,
      "outputModuleId": 48,
      "outputId": 3,
      "inputModuleId": 56,
      "inputId": 1,
      "color": "#0986ad"
    },
    {
      "id": 208,
      "outputModuleId": 26,
      "outputId": 0,
      "inputModuleId": 77,
      "inputId": 0,
      "color": "#c9b70e"
    },
    {
      "id": 174,
      "outputModuleId": 67,
      "outputId": 2,
      "inputModuleId": 62,
      "inputId": 0,
      "color": "#0986ad"
    },
    {
      "id": 201,
      "outputModuleId": 67,
      "outputId": 3,
      "inputModuleId": 73,
      "inputId": 0,
      "color": "#0c8e15"
    },
    {
      "id": 207,
      "outputModuleId": 77,
      "outputId": 0,
      "inputModuleId": 24,
      "inputId": 5,
      "color": "#0986ad"
    },
    {
      "id": 210,
      "outputModuleId": 77,
      "outputId": 1,
      "inputModuleId": 73,
      "inputId": 2,
      "color": "#c91847"
    },
    {
      "id": 211,
      "outputModuleId": 48,
      "outputId": 4,
      "inputModuleId": 77,
      "inputId": 2,
      "color": "#0986ad"
    },
    {
      "id": 212,
      "outputModuleId": 48,
      "outputId": 7,
      "inputModuleId": 73,
      "inputId": 3,
      "color": "#c9b70e"
    },
    {
      "id": 217,
      "outputModuleId": 40,
      "outputId": 0,
      "inputModuleId": 48,
      "inputId": 8,
      "color": "#c91847"
    },
    {
      "id": 218,
      "outputModuleId": 48,
      "outputId": 6,
      "inputModuleId": 64,
      "inputId": 3,
      "color": "#0986ad"
    },
    {
      "id": 206,
      "outputModuleId": 73,
      "outputId": 0,
      "inputModuleId": 77,
      "inputId": 5,
      "color": "#c91847"
    },
    {
      "id": 152,
      "outputModuleId": 26,
      "outputId": 0,
      "inputModuleId": 55,
      "inputId": 3,
      "color": "#c91847"
    },
    {
      "id": 123,
      "outputModuleId": 37,
      "outputId": 2,
      "inputModuleId": 38,
      "inputId": 1,
      "color": "#c91847"
    },
    {
      "id": 234,
      "outputModuleId": 26,
      "outputId": 3,
      "inputModuleId": 37,
      "inputId": 0,
      "color": "#c9b70e"
    },
    {
      "id": 230,
      "outputModuleId": 38,
      "outputId": 0,
      "inputModuleId": 39,
      "inputId": 2,
      "color": "#c9b70e"
    },
    {
      "id": 240,
      "outputModuleId": 26,
      "outputId": 1,
      "inputModuleId": 25,
      "inputId": 0,
      "color": "#c91847"
    },
    {
      "id": 241,
      "outputModuleId": 26,
      "outputId": 1,
      "inputModuleId": 80,
      "inputId": 0,
      "color": "#0986ad"
    },
    {
      "id": 242,
      "outputModuleId": 26,
      "outputId": 1,
      "inputModuleId": 81,
      "inputId": 0,
      "color": "#c9b70e"
    },
    {
      "id": 243,
      "outputModuleId": 26,
      "outputId": 1,
      "inputModuleId": 82,
      "inputId": 0,
      "color": "#0c8e15"
    },
    {
      "id": 244,
      "outputModuleId": 26,
      "outputId": 1,
      "inputModuleId": 83,
      "inputId": 0,
      "color": "#0986ad"
    },
    {
      "id": 245,
      "outputModuleId": 26,
      "outputId": 1,
      "inputModuleId": 84,
      "inputId": 0,
      "color": "#c9b70e"
    }
  ]
}