{
  "version": "1.1.3",
  "modules": [
    {
      "id": 20,
      "plugin": "Core",
      "version": "1.1.3",
      "model": "AudioInterface",
      "params": [],
      "leftModuleId": 21,
      "data": {
        "audio": {
          "driver": 1,
          "deviceName": "hw:Scarlett 2i2 USB,0",
          "offset": 0,
          "maxChannels": 8,
          "sampleRate": 48000,
          "blockSize": 256
        }
      },
      "pos": [
        63,
        0
      ]
    },
    {
      "id": 21,
      "plugin": "Fundamental",
      "version": "1.2.0",
      "model": "VCMixer",
      "params": [
        {
          "id": 0,
          "value": 1.0
        },
        {
          "id": 1,
          "value": 1.0
        },
        {
          "id": 2,
          "value": 1.0
        },
        {
          "id": 3,
          "value": 1.0
        },
        {
          "id": 4,
          "value": 1.0
        }
      ],
      "rightModuleId": 20,
      "pos": [
        53,
        0
      ]
    },
    {
      "id": 34,
      "plugin": "Bogaudio",
      "version": "1.1.21",
      "model": "Bogaudio-XCO",
      "params": [
        {
          "id": 0,
          "value": -1.03949964
        },
        {
          "id": 1,
          "value": 0.0
        },
        {
          "id": 2,
          "value": 0.0
        },
        {
          "id": 3,
          "value": 0.0
        },
        {
          "id": 4,
          "value": 1.0
        },
        {
          "id": 5,
          "value": 0.0
        },
        {
          "id": 6,
          "value": 0.0
        },
        {
          "id": 7,
          "value": 1.0
        },
        {
          "id": 8,
          "value": 0.0
        },
        {
          "id": 9,
          "value": 0.0
        },
        {
          "id": 10,
          "value": 1.0
        },
        {
          "id": 11,
          "value": 0.0
        },
        {
          "id": 12,
          "value": 0.0
        },
        {
          "id": 13,
          "value": 1.0
        },
        {
          "id": 14,
          "value": 0.0
        },
        {
          "id": 15,
          "value": 0.0
        },
        {
          "id": 16,
          "value": 0.93900007
        }
      ],
      "leftModuleId": 35,
      "rightModuleId": 39,
      "pos": [
        12,
        0
      ]
    },
    {
      "id": 35,
      "plugin": "Bogaudio",
      "version": "1.1.21",
      "model": "Bogaudio-AddrSeq",
      "params": [
        {
          "id": 0,
          "value": 8.0
        },
        {
          "id": 1,
          "value": 1.0
        },
        {
          "id": 2,
          "value": 0.0
        },
        {
          "id": 3,
          "value": 0.104999974
        },
        {
          "id": 4,
          "value": -0.113999978
        },
        {
          "id": 5,
          "value": 0.0
        },
        {
          "id": 6,
          "value": 0.0
        },
        {
          "id": 7,
          "value": -0.0629999936
        },
        {
          "id": 8,
          "value": 0.0420001037
        },
        {
          "id": 9,
          "value": 0.0749999434
        },
        {
          "id": 10,
          "value": 0.0899999887
        }
      ],
      "leftModuleId": 38,
      "rightModuleId": 34,
      "data": {
        "select_on_clock": false,
        "range_offset": 0.0,
        "range_scale": 10.0
      },
      "pos": [
        6,
        0
      ]
    },
    {
      "id": 38,
      "plugin": "cf",
      "version": "1.1.0",
      "model": "METRO",
      "params": [
        {
          "id": 0,
          "value": 120.099998
        },
        {
          "id": 1,
          "value": 0.0
        },
        {
          "id": 2,
          "value": 0.0
        },
        {
          "id": 3,
          "value": 0.0
        }
      ],
      "rightModuleId": 35,
      "data": {
        "onstate": 0
      },
      "pos": [
        0,
        0
      ]
    },
    {
      "id": 39,
      "plugin": "Bogaudio",
      "version": "1.1.21",
      "model": "Bogaudio-ADSR",
      "params": [
        {
          "id": 0,
          "value": 0.141421005
        },
        {
          "id": 1,
          "value": 0.622229874
        },
        {
          "id": 2,
          "value": 0.706000268
        },
        {
          "id": 3,
          "value": 0.323730141
        },
        {
          "id": 4,
          "value": 0.0
        }
      ],
      "leftModuleId": 34,
      "rightModuleId": 36,
      "pos": [
        32,
        0
      ]
    },
    {
      "id": 36,
      "plugin": "Bogaudio",
      "version": "1.1.21",
      "model": "Bogaudio-VCA",
      "params": [
        {
          "id": 0,
          "value": 0.681000113
        },
        {
          "id": 1,
          "value": 1.0
        },
        {
          "id": 2,
          "value": 1.0
        }
      ],
      "leftModuleId": 39,
      "pos": [
        35,
        0
      ]
    }
  ],
  "cables": [
    {
      "id": 67,
      "outputModuleId": 21,
      "outputId": 0,
      "inputModuleId": 20,
      "inputId": 0,
      "color": "#c91847"
    },
    {
      "id": 164,
      "outputModuleId": 38,
      "outputId": 2,
      "inputModuleId": 35,
      "inputId": 0,
      "color": "#0c8e15"
    },
    {
      "id": 165,
      "outputModuleId": 35,
      "outputId": 0,
      "inputModuleId": 34,
      "inputId": 14,
      "color": "#c91847"
    },
    {
      "id": 176,
      "outputModuleId": 38,
      "outputId": 2,
      "inputModuleId": 39,
      "inputId": 0,
      "color": "#c91847"
    },
    {
      "id": 169,
      "outputModuleId": 34,
      "outputId": 4,
      "inputModuleId": 36,
      "inputId": 3,
      "color": "#0986ad"
    },
    {
      "id": 172,
      "outputModuleId": 39,
      "outputId": 0,
      "inputModuleId": 36,
      "inputId": 2,
      "color": "#c91847"
    },
    {
      "id": 190,
      "outputModuleId": 36,
      "outputId": 1,
      "inputModuleId": 21,
      "inputId": 1,
      "color": "#c91847"
    }
  ]
}