{
  "version": "1.1.5",
  "modules": [
    {
      "id": 9,
      "plugin": "squinkylabs-plug1",
      "version": "1.0.4",
      "model": "squinkylabs-mixm",
      "params": [
        {
          "id": 0,
          "value": 0.75
        },
        {
          "id": 1,
          "value": 0.0
        },
        {
          "id": 2,
          "value": 0.499499947
        },
        {
          "id": 3,
          "value": 0.129000038
        },
        {
          "id": 4,
          "value": 0.114000119
        },
        {
          "id": 5,
          "value": 0.163499877
        },
        {
          "id": 6,
          "value": 0.0
        },
        {
          "id": 7,
          "value": 0.0
        },
        {
          "id": 8,
          "value": 0.0
        },
        {
          "id": 9,
          "value": 0.0
        },
        {
          "id": 10,
          "value": 0.0
        },
        {
          "id": 11,
          "value": 0.0
        },
        {
          "id": 12,
          "value": 0.0
        },
        {
          "id": 13,
          "value": 0.0
        },
        {
          "id": 14,
          "value": 0.0
        },
        {
          "id": 15,
          "value": 0.0
        },
        {
          "id": 16,
          "value": 0.0
        },
        {
          "id": 17,
          "value": 0.0
        },
        {
          "id": 18,
          "value": 0.0
        },
        {
          "id": 19,
          "value": 0.0
        },
        {
          "id": 20,
          "value": 0.447000057
        },
        {
          "id": 21,
          "value": 0.446999997
        },
        {
          "id": 22,
          "value": 0.0
        },
        {
          "id": 23,
          "value": 0.0
        },
        {
          "id": 24,
          "value": 0.0
        },
        {
          "id": 25,
          "value": 0.0
        },
        {
          "id": 26,
          "value": 0.0
        },
        {
          "id": 27,
          "value": 0.0
        },
        {
          "id": 28,
          "value": 0.0
        },
        {
          "id": 29,
          "value": 0.486000091
        },
        {
          "id": 30,
          "value": 0.0
        },
        {
          "id": 31,
          "value": 0.0
        },
        {
          "id": 32,
          "value": 0.0
        },
        {
          "id": 33,
          "value": 0.0
        },
        {
          "id": 34,
          "value": 0.0
        },
        {
          "id": 35,
          "value": 0.0
        },
        {
          "id": 36,
          "value": 0.0
        }
      ],
      "leftModuleId": 10,
      "rightModuleId": 12,
      "pos": [
        55,
        0
      ]
    },
    {
      "id": 10,
      "plugin": "squinkylabs-plug1",
      "version": "1.0.4",
      "model": "squinkylabs-mix4",
      "params": [
        {
          "id": 0,
          "value": 0.67050004
        },
        {
          "id": 1,
          "value": 0.391500026
        },
        {
          "id": 2,
          "value": 0.54150039
        },
        {
          "id": 3,
          "value": 0.369000047
        },
        {
          "id": 4,
          "value": 0.0
        },
        {
          "id": 5,
          "value": 0.0
        },
        {
          "id": 6,
          "value": 0.0
        },
        {
          "id": 7,
          "value": 0.0
        },
        {
          "id": 8,
          "value": 0.0
        },
        {
          "id": 9,
          "value": 0.0
        },
        {
          "id": 10,
          "value": 0.0
        },
        {
          "id": 11,
          "value": 0.0
        },
        {
          "id": 12,
          "value": 0.0
        },
        {
          "id": 13,
          "value": 0.0
        },
        {
          "id": 14,
          "value": 0.0
        },
        {
          "id": 15,
          "value": 0.0
        },
        {
          "id": 16,
          "value": 0.0
        },
        {
          "id": 17,
          "value": 0.0
        },
        {
          "id": 18,
          "value": 0.48300007
        },
        {
          "id": 19,
          "value": 0.470999867
        },
        {
          "id": 20,
          "value": 0.0
        },
        {
          "id": 21,
          "value": 0.0
        },
        {
          "id": 22,
          "value": 0.0
        },
        {
          "id": 23,
          "value": 0.0
        },
        {
          "id": 24,
          "value": 0.0
        },
        {
          "id": 25,
          "value": 0.0
        },
        {
          "id": 26,
          "value": 0.0
        },
        {
          "id": 27,
          "value": 0.0
        },
        {
          "id": 28,
          "value": 0.0
        },
        {
          "id": 29,
          "value": 0.0
        },
        {
          "id": 30,
          "value": 0.0
        },
        {
          "id": 31,
          "value": 0.0
        }
      ],
      "rightModuleId": 9,
      "pos": [
        45,
        0
      ]
    },
    {
      "id": 11,
      "plugin": "Core",
      "version": "1.1.5",
      "model": "AudioInterface",
      "params": [],
      "leftModuleId": 12,
      "data": {
        "audio": {
          "driver": 4,
          "deviceName": "system",
          "offset": 0,
          "maxChannels": 8,
          "sampleRate": 48000,
          "blockSize": 1024
        }
      },
      "pos": [
        84,
        0
      ]
    },
    {
      "id": 12,
      "plugin": "Valley",
      "version": "1.0.1",
      "model": "Plateau",
      "params": [
        {
          "id": 0,
          "value": 1.0
        },
        {
          "id": 1,
          "value": 0.5
        },
        {
          "id": 2,
          "value": 0.0
        },
        {
          "id": 3,
          "value": 9.38499546
        },
        {
          "id": 4,
          "value": 8.84499836
        },
        {
          "id": 5,
          "value": 0.399499953
        },
        {
          "id": 6,
          "value": 10.0
        },
        {
          "id": 7,
          "value": 0.408215821
        },
        {
          "id": 8,
          "value": 9.34000015
        },
        {
          "id": 9,
          "value": 8.94999981
        },
        {
          "id": 10,
          "value": 0.349500149
        },
        {
          "id": 11,
          "value": 0.5
        },
        {
          "id": 12,
          "value": 3.90799999
        },
        {
          "id": 13,
          "value": 0.0
        },
        {
          "id": 14,
          "value": 0.0
        },
        {
          "id": 15,
          "value": 0.0
        },
        {
          "id": 16,
          "value": 0.0
        },
        {
          "id": 17,
          "value": 0.0
        },
        {
          "id": 18,
          "value": 0.0
        },
        {
          "id": 19,
          "value": 0.0
        },
        {
          "id": 20,
          "value": 0.0
        },
        {
          "id": 21,
          "value": 0.0
        },
        {
          "id": 22,
          "value": 0.0
        },
        {
          "id": 23,
          "value": 0.0
        },
        {
          "id": 24,
          "value": 0.0
        },
        {
          "id": 25,
          "value": 0.0
        },
        {
          "id": 26,
          "value": 0.0
        },
        {
          "id": 27,
          "value": 0.0
        },
        {
          "id": 28,
          "value": 0.0
        },
        {
          "id": 29,
          "value": 0.0
        },
        {
          "id": 30,
          "value": 1.0
        }
      ],
      "leftModuleId": 9,
      "rightModuleId": 11,
      "data": {
        "frozen": false,
        "freezeToggle": false,
        "panelStyle": 0,
        "tuned": 0,
        "diffuseInput": 1,
        "preDelayCVSens": 0,
        "inputSensitivity": 0,
        "outputSaturation": 0
      },
      "pos": [
        72,
        0
      ]
    },
    {
      "id": 13,
      "plugin": "AudibleInstruments",
      "version": "1.0.0",
      "model": "Braids",
      "params": [
        {
          "id": 0,
          "value": -0.165000051
        },
        {
          "id": 1,
          "value": -2.0
        },
        {
          "id": 2,
          "value": -1.0
        },
        {
          "id": 3,
          "value": 0.5
        },
        {
          "id": 4,
          "value": 0.194999918
        },
        {
          "id": 5,
          "value": 0.600499988
        },
        {
          "id": 6,
          "value": 0.103500001
        }
      ],
      "leftModuleId": 20,
      "rightModuleId": 26,
      "data": {
        "settings": [
          5,
          0,
          0,
          0,
          0,
          0,
          0,
          0,
          0,
          0,
          0,
          0,
          0,
          0,
          0,
          0,
          0,
          0,
          0,
          0
        ],
        "lowCpu": false
      },
      "pos": [
        60,
        1
      ]
    },
    {
      "id": 14,
      "plugin": "StellareModular",
      "version": "1.0.0",
      "model": "TuringMachine",
      "params": [
        {
          "id": 0,
          "value": 0.5
        },
        {
          "id": 1,
          "value": 0.5
        },
        {
          "id": 2,
          "value": 0.5
        },
        {
          "id": 3,
          "value": 0.5
        },
        {
          "id": 4,
          "value": 0.5
        },
        {
          "id": 5,
          "value": 0.0
        },
        {
          "id": 6,
          "value": 7.0
        },
        {
          "id": 7,
          "value": 0.303500026
        },
        {
          "id": 8,
          "value": 0.0
        },
        {
          "id": 9,
          "value": 0.0
        },
        {
          "id": 10,
          "value": 0.0
        },
        {
          "id": 11,
          "value": 0.0
        },
        {
          "id": 12,
          "value": 0.0
        }
      ],
      "rightModuleId": 15,
      "data": {
        "pulses_mode": 0
      },
      "pos": [
        0,
        1
      ]
    },
    {
      "id": 15,
      "plugin": "ML_modules",
      "version": "1.0.2",
      "model": "Quantum",
      "params": [
        {
          "id": 0,
          "value": 0.0
        },
        {
          "id": 1,
          "value": 0.0
        },
        {
          "id": 2,
          "value": 0.0
        },
        {
          "id": 3,
          "value": 0.0
        },
        {
          "id": 4,
          "value": 0.0
        },
        {
          "id": 5,
          "value": 0.0
        },
        {
          "id": 6,
          "value": 0.0
        },
        {
          "id": 7,
          "value": 0.0
        },
        {
          "id": 8,
          "value": 0.0
        },
        {
          "id": 9,
          "value": 0.0
        },
        {
          "id": 10,
          "value": 0.0
        },
        {
          "id": 11,
          "value": 0.0
        }
      ],
      "leftModuleId": 14,
      "rightModuleId": 16,
      "data": {
        "scale": [
          1,
          0,
          0,
          0,
          1,
          0,
          1,
          1,
          0,
          1,
          0,
          0
        ],
        "mode": 1,
        "transpose_select": 1,
        "toggle_mode": 0
      },
      "pos": [
        18,
        1
      ]
    },
    {
      "id": 16,
      "plugin": "AudibleInstruments",
      "version": "1.0.0",
      "model": "Branches",
      "params": [
        {
          "id": 0,
          "value": 0.275999963
        },
        {
          "id": 1,
          "value": 0.325999975
        },
        {
          "id": 2,
          "value": 0.0
        },
        {
          "id": 3,
          "value": 0.0
        }
      ],
      "leftModuleId": 15,
      "rightModuleId": 18,
      "data": {
        "modes": [
          false,
          false
        ]
      },
      "pos": [
        26,
        1
      ]
    },
    {
      "id": 18,
      "plugin": "AudibleInstruments",
      "version": "1.0.0",
      "model": "Braids",
      "params": [
        {
          "id": 0,
          "value": 0.110999987
        },
        {
          "id": 1,
          "value": 0.0
        },
        {
          "id": 2,
          "value": 1.0
        },
        {
          "id": 3,
          "value": 0.5
        },
        {
          "id": 4,
          "value": 0.335999966
        },
        {
          "id": 5,
          "value": 0.651499987
        },
        {
          "id": 6,
          "value": 0.103500001
        }
      ],
      "leftModuleId": 16,
      "rightModuleId": 19,
      "data": {
        "settings": [
          5,
          0,
          0,
          0,
          0,
          0,
          0,
          0,
          0,
          0,
          0,
          0,
          0,
          0,
          0,
          0,
          0,
          0,
          0,
          0
        ],
        "lowCpu": false
      },
      "pos": [
        32,
        1
      ]
    },
    {
      "id": 19,
      "plugin": "Befaco",
      "version": "1.0.0",
      "model": "SlewLimiter",
      "params": [
        {
          "id": 0,
          "value": 0.736000061
        },
        {
          "id": 1,
          "value": 0.446999788
        },
        {
          "id": 2,
          "value": 0.43500036
        }
      ],
      "leftModuleId": 18,
      "rightModuleId": 20,
      "pos": [
        48,
        1
      ]
    },
    {
      "id": 20,
      "plugin": "Befaco",
      "version": "1.0.0",
      "model": "SlewLimiter",
      "params": [
        {
          "id": 0,
          "value": 0.741999865
        },
        {
          "id": 1,
          "value": 0.501000106
        },
        {
          "id": 2,
          "value": 0.465000331
        }
      ],
      "leftModuleId": 19,
      "rightModuleId": 13,
      "pos": [
        54,
        1
      ]
    },
    {
      "id": 21,
      "plugin": "ML_modules",
      "version": "1.0.2",
      "model": "SeqSwitch",
      "params": [
        {
          "id": 0,
          "value": 6.0
        },
        {
          "id": 1,
          "value": 0.0
        },
        {
          "id": 2,
          "value": 0.0
        },
        {
          "id": 3,
          "value": 0.0
        },
        {
          "id": 4,
          "value": 0.0
        },
        {
          "id": 5,
          "value": 0.0
        },
        {
          "id": 6,
          "value": 0.0
        },
        {
          "id": 7,
          "value": 0.0
        },
        {
          "id": 8,
          "value": 0.0
        }
      ],
      "leftModuleId": 22,
      "rightModuleId": 23,
      "data": {
        "inputRange": 0
      },
      "pos": [
        10,
        0
      ]
    },
    {
      "id": 22,
      "plugin": "Autodafe",
      "version": "1.0.1",
      "model": "BPMClock",
      "params": [
        {
          "id": 0,
          "value": 120.0
        },
        {
          "id": 1,
          "value": 0.0
        },
        {
          "id": 2,
          "value": 0.0
        },
        {
          "id": 3,
          "value": 0.0
        },
        {
          "id": 4,
          "value": 0.0
        }
      ],
      "rightModuleId": 21,
      "data": {
        "bpmint": 140,
        "bpmdec": 0
      },
      "pos": [
        0,
        0
      ]
    },
    {
      "id": 23,
      "plugin": "ML_modules",
      "version": "1.0.2",
      "model": "Quantum",
      "params": [
        {
          "id": 0,
          "value": 0.0
        },
        {
          "id": 1,
          "value": 0.0
        },
        {
          "id": 2,
          "value": 0.0
        },
        {
          "id": 3,
          "value": 0.0
        },
        {
          "id": 4,
          "value": 0.0
        },
        {
          "id": 5,
          "value": 0.0
        },
        {
          "id": 6,
          "value": 0.0
        },
        {
          "id": 7,
          "value": 0.0
        },
        {
          "id": 8,
          "value": 0.0
        },
        {
          "id": 9,
          "value": 0.0
        },
        {
          "id": 10,
          "value": 0.0
        },
        {
          "id": 11,
          "value": 0.0
        }
      ],
      "leftModuleId": 21,
      "rightModuleId": 25,
      "data": {
        "scale": [
          1,
          0,
          1,
          0,
          1,
          1,
          0,
          0,
          0,
          1,
          0,
          0
        ],
        "mode": 1,
        "transpose_select": 1,
        "toggle_mode": 0
      },
      "pos": [
        18,
        0
      ]
    },
    {
      "id": 25,
      "plugin": "SubmarineFree",
      "version": "1.0.4",
      "model": "BB-120",
      "params": [],
      "leftModuleId": 23,
      "data": {
        "voltage0": 0.0,
        "voltage1": 10.0
      },
      "pos": [
        26,
        0
      ]
    },
    {
      "id": 26,
      "plugin": "VultModulesFree",
      "version": "1.3.0",
      "model": "Debriatus",
      "params": [
        {
          "id": 0,
          "value": 0.288000166
        },
        {
          "id": 1,
          "value": 0.226500213
        },
        {
          "id": 2,
          "value": 0.209999815
        },
        {
          "id": 3,
          "value": 0.618000031
        },
        {
          "id": 4,
          "value": 0.279000014
        },
        {
          "id": 5,
          "value": 0.0
        },
        {
          "id": 6,
          "value": 0.0
        },
        {
          "id": 7,
          "value": 0.0
        }
      ],
      "leftModuleId": 13,
      "rightModuleId": 29,
      "pos": [
        76,
        1
      ]
    },
    {
      "id": 29,
      "plugin": "VultModulesFree",
      "version": "1.3.0",
      "model": "Tangents",
      "params": [
        {
          "id": 0,
          "value": 0.583998919
        },
        {
          "id": 1,
          "value": 0.666000187
        },
        {
          "id": 2,
          "value": 0.0
        },
        {
          "id": 3,
          "value": 0.0
        },
        {
          "id": 4,
          "value": 0.533999622
        },
        {
          "id": 5,
          "value": 0.0
        },
        {
          "id": 6,
          "value": 0.0
        }
      ],
      "leftModuleId": 26,
      "pos": [
        86,
        1
      ]
    },
    {
      "id": 30,
      "plugin": "Bogaudio",
      "version": "1.1.22",
      "model": "Bogaudio-DADSRH",
      "params": [
        {
          "id": 0,
          "value": 0.0
        },
        {
          "id": 1,
          "value": 0.0195000004
        },
        {
          "id": 2,
          "value": 0.241229817
        },
        {
          "id": 3,
          "value": 0.0749999732
        },
        {
          "id": 4,
          "value": 0.130500183
        },
        {
          "id": 5,
          "value": 0.447210014
        },
        {
          "id": 6,
          "value": 1.0
        },
        {
          "id": 7,
          "value": 1.0
        },
        {
          "id": 8,
          "value": 1.0
        },
        {
          "id": 9,
          "value": 0.0
        },
        {
          "id": 10,
          "value": 1.0
        },
        {
          "id": 11,
          "value": 1.0
        },
        {
          "id": 12,
          "value": 1.0
        },
        {
          "id": 13,
          "value": 1.0
        }
      ],
      "leftModuleId": 33,
      "data": {
        "triggerOnLoad": true,
        "shouldTriggerOnLoad": false
      },
      "pos": [
        86,
        2
      ]
    },
    {
      "id": 31,
      "plugin": "Fundamental",
      "version": "1.2.1",
      "model": "Merge",
      "params": [],
      "leftModuleId": 32,
      "rightModuleId": 33,
      "data": {
        "channels": -1
      },
      "pos": [
        78,
        2
      ]
    },
    {
      "id": 32,
      "plugin": "Fundamental",
      "version": "1.2.1",
      "model": "VCA-1",
      "params": [
        {
          "id": 0,
          "value": 1.0
        },
        {
          "id": 1,
          "value": 1.0
        }
      ],
      "leftModuleId": 34,
      "rightModuleId": 31,
      "pos": [
        75,
        2
      ]
    },
    {
      "id": 33,
      "plugin": "Bogaudio",
      "version": "1.1.22",
      "model": "Bogaudio-DGate",
      "params": [
        {
          "id": 0,
          "value": 0.0
        },
        {
          "id": 1,
          "value": 0.316229999
        },
        {
          "id": 2,
          "value": 1.0
        },
        {
          "id": 3,
          "value": 0.0
        }
      ],
      "leftModuleId": 31,
      "rightModuleId": 30,
      "data": {
        "triggerOnLoad": true,
        "shouldTriggerOnLoad": false
      },
      "pos": [
        83,
        2
      ]
    },
    {
      "id": 34,
      "plugin": "Fundamental",
      "version": "1.2.1",
      "model": "Split",
      "params": [],
      "leftModuleId": 35,
      "rightModuleId": 32,
      "pos": [
        70,
        2
      ]
    },
    {
      "id": 35,
      "plugin": "mscHack",
      "version": "1.0.2",
      "model": "PingPong_Widget",
      "params": [
        {
          "id": 0,
          "value": 0.142499894
        },
        {
          "id": 1,
          "value": 0.51000005
        },
        {
          "id": 2,
          "value": 0.0
        },
        {
          "id": 3,
          "value": 0.416499913
        },
        {
          "id": 4,
          "value": 0.0
        },
        {
          "id": 5,
          "value": 0.601500034
        },
        {
          "id": 6,
          "value": 0.595000327
        },
        {
          "id": 7,
          "value": 0.589499831
        },
        {
          "id": 8,
          "value": 0.584499896
        },
        {
          "id": 9,
          "value": 0.0
        },
        {
          "id": 10,
          "value": 0.0
        }
      ],
      "rightModuleId": 34,
      "data": {
        "ReverseState": false
      },
      "pos": [
        62,
        2
      ]
    },
    {
      "id": 36,
      "plugin": "AudibleInstruments",
      "version": "1.0.0",
      "model": "Braids",
      "params": [
        {
          "id": 0,
          "value": 0.0
        },
        {
          "id": 1,
          "value": -2.0
        },
        {
          "id": 2,
          "value": 1.0
        },
        {
          "id": 3,
          "value": 0.282499999
        },
        {
          "id": 4,
          "value": 0.308999985
        },
        {
          "id": 5,
          "value": 0.672500014
        },
        {
          "id": 6,
          "value": 0.103500001
        }
      ],
      "leftModuleId": 41,
      "rightModuleId": 42,
      "data": {
        "settings": [
          5,
          0,
          0,
          0,
          0,
          0,
          0,
          0,
          0,
          0,
          0,
          0,
          0,
          0,
          0,
          0,
          0,
          0,
          0,
          0
        ],
        "lowCpu": false
      },
      "pos": [
        29,
        2
      ]
    },
    {
      "id": 37,
      "plugin": "Bogaudio",
      "version": "1.1.22",
      "model": "Bogaudio-DADSRH",
      "params": [
        {
          "id": 0,
          "value": 0.0
        },
        {
          "id": 1,
          "value": 0.0195000004
        },
        {
          "id": 2,
          "value": 0.604229867
        },
        {
          "id": 3,
          "value": 0.797999918
        },
        {
          "id": 4,
          "value": 0.625500083
        },
        {
          "id": 5,
          "value": 0.447210014
        },
        {
          "id": 6,
          "value": 1.0
        },
        {
          "id": 7,
          "value": 1.0
        },
        {
          "id": 8,
          "value": 1.0
        },
        {
          "id": 9,
          "value": 0.0
        },
        {
          "id": 10,
          "value": 1.0
        },
        {
          "id": 11,
          "value": 1.0
        },
        {
          "id": 12,
          "value": 1.0
        },
        {
          "id": 13,
          "value": 1.0
        }
      ],
      "leftModuleId": 38,
      "rightModuleId": 39,
      "data": {
        "triggerOnLoad": true,
        "shouldTriggerOnLoad": true
      },
      "pos": [
        10,
        2
      ]
    },
    {
      "id": 38,
      "plugin": "Fundamental",
      "version": "1.2.1",
      "model": "VCA-1",
      "params": [
        {
          "id": 0,
          "value": 1.0
        },
        {
          "id": 1,
          "value": 1.0
        }
      ],
      "leftModuleId": 40,
      "rightModuleId": 37,
      "pos": [
        7,
        2
      ]
    },
    {
      "id": 39,
      "plugin": "Bogaudio",
      "version": "1.1.22",
      "model": "Bogaudio-DGate",
      "params": [
        {
          "id": 0,
          "value": 0.0
        },
        {
          "id": 1,
          "value": 0.316229999
        },
        {
          "id": 2,
          "value": 1.0
        },
        {
          "id": 3,
          "value": 0.0
        }
      ],
      "leftModuleId": 37,
      "rightModuleId": 41,
      "data": {
        "triggerOnLoad": true,
        "shouldTriggerOnLoad": false
      },
      "pos": [
        20,
        2
      ]
    },
    {
      "id": 40,
      "plugin": "AudibleInstruments",
      "version": "1.0.0",
      "model": "Kinks",
      "params": [],
      "leftModuleId": 43,
      "rightModuleId": 38,
      "pos": [
        3,
        2
      ]
    },
    {
      "id": 41,
      "plugin": "Befaco",
      "version": "1.0.0",
      "model": "SlewLimiter",
      "params": [
        {
          "id": 0,
          "value": 0.736000061
        },
        {
          "id": 1,
          "value": 0.783000052
        },
        {
          "id": 2,
          "value": 0.417000175
        }
      ],
      "leftModuleId": 39,
      "rightModuleId": 36,
      "pos": [
        23,
        2
      ]
    },
    {
      "id": 42,
      "plugin": "AudibleInstruments",
      "version": "1.0.0",
      "model": "Braids",
      "params": [
        {
          "id": 0,
          "value": 0.0
        },
        {
          "id": 1,
          "value": 0.0
        },
        {
          "id": 2,
          "value": 1.0
        },
        {
          "id": 3,
          "value": 0.282499999
        },
        {
          "id": 4,
          "value": 0.380999982
        },
        {
          "id": 5,
          "value": 0.257000059
        },
        {
          "id": 6,
          "value": 0.103500001
        }
      ],
      "leftModuleId": 36,
      "data": {
        "settings": [
          5,
          0,
          0,
          0,
          0,
          0,
          0,
          0,
          0,
          0,
          0,
          0,
          0,
          0,
          0,
          0,
          0,
          0,
          0,
          0
        ],
        "lowCpu": false
      },
      "pos": [
        45,
        2
      ]
    },
    {
      "id": 43,
      "plugin": "Fundamental",
      "version": "1.2.1",
      "model": "VCA-1",
      "params": [
        {
          "id": 0,
          "value": 1.0
        },
        {
          "id": 1,
          "value": 1.0
        }
      ],
      "rightModuleId": 40,
      "pos": [
        0,
        2
      ]
    },
    {
      "id": 45,
      "plugin": "Starling_Via",
      "version": "1.0.0",
      "model": "META",
      "params": [
        {
          "id": 0,
          "value": 0.0
        },
        {
          "id": 1,
          "value": 2490.26025
        },
        {
          "id": 2,
          "value": 2852.66724
        },
        {
          "id": 3,
          "value": -5.0
        },
        {
          "id": 4,
          "value": 1.0
        },
        {
          "id": 5,
          "value": 1.0
        },
        {
          "id": 6,
          "value": 1.0
        },
        {
          "id": 7,
          "value": 0.0
        },
        {
          "id": 8,
          "value": 0.0
        },
        {
          "id": 9,
          "value": 0.0
        },
        {
          "id": 10,
          "value": 0.0
        },
        {
          "id": 11,
          "value": 0.0
        },
        {
          "id": 12,
          "value": 0.0
        },
        {
          "id": 13,
          "value": 0.0
        }
      ],
      "data": {
        "meta_modes": 524288
      },
      "pos": [
        32,
        0
      ]
    }
  ],
  "cables": [
    {
      "id": 10,
      "outputModuleId": 9,
      "outputId": 0,
      "inputModuleId": 11,
      "inputId": 0,
      "color": "#c91847"
    },
    {
      "id": 11,
      "outputModuleId": 9,
      "outputId": 1,
      "inputModuleId": 11,
      "inputId": 1,
      "color": "#0986ad"
    },
    {
      "id": 12,
      "outputModuleId": 9,
      "outputId": 6,
      "inputModuleId": 12,
      "inputId": 0,
      "color": "#c9b70e"
    },
    {
      "id": 13,
      "outputModuleId": 9,
      "outputId": 7,
      "inputModuleId": 12,
      "inputId": 1,
      "color": "#0c8e15"
    },
    {
      "id": 14,
      "outputModuleId": 12,
      "outputId": 0,
      "inputModuleId": 9,
      "inputId": 16,
      "color": "#c91847"
    },
    {
      "id": 15,
      "outputModuleId": 12,
      "outputId": 1,
      "inputModuleId": 9,
      "inputId": 17,
      "color": "#0986ad"
    },
    {
      "id": 16,
      "outputModuleId": 14,
      "outputId": 14,
      "inputModuleId": 15,
      "inputId": 0,
      "color": "#c91847"
    },
    {
      "id": 22,
      "outputModuleId": 15,
      "outputId": 0,
      "inputModuleId": 16,
      "inputId": 0,
      "color": "#0c8e15"
    },
    {
      "id": 28,
      "outputModuleId": 15,
      "outputId": 0,
      "inputModuleId": 16,
      "inputId": 1,
      "color": "#0986ad"
    },
    {
      "id": 29,
      "outputModuleId": 16,
      "outputId": 1,
      "inputModuleId": 20,
      "inputId": 2,
      "color": "#c9b70e"
    },
    {
      "id": 27,
      "outputModuleId": 19,
      "outputId": 0,
      "inputModuleId": 18,
      "inputId": 1,
      "color": "#c91847"
    },
    {
      "id": 33,
      "outputModuleId": 20,
      "outputId": 0,
      "inputModuleId": 13,
      "inputId": 1,
      "color": "#c9b70e"
    },
    {
      "id": 21,
      "outputModuleId": 16,
      "outputId": 0,
      "inputModuleId": 19,
      "inputId": 2,
      "color": "#0986ad"
    },
    {
      "id": 46,
      "outputModuleId": 23,
      "outputId": 0,
      "inputModuleId": 15,
      "inputId": 1,
      "color": "#0c8e15"
    },
    {
      "id": 48,
      "outputModuleId": 23,
      "outputId": 0,
      "inputModuleId": 25,
      "inputId": 0,
      "color": "#c9b70e"
    },
    {
      "id": 51,
      "outputModuleId": 25,
      "outputId": 4,
      "inputModuleId": 18,
      "inputId": 3,
      "color": "#0986ad"
    },
    {
      "id": 52,
      "outputModuleId": 25,
      "outputId": 6,
      "inputModuleId": 13,
      "inputId": 3,
      "color": "#c9b70e"
    },
    {
      "id": 53,
      "outputModuleId": 25,
      "outputId": 8,
      "inputModuleId": 18,
      "inputId": 4,
      "color": "#0c8e15"
    },
    {
      "id": 54,
      "outputModuleId": 25,
      "outputId": 10,
      "inputModuleId": 13,
      "inputId": 4,
      "color": "#c91847"
    },
    {
      "id": 30,
      "outputModuleId": 18,
      "outputId": 0,
      "inputModuleId": 26,
      "inputId": 0,
      "color": "#0c8e15"
    },
    {
      "id": 34,
      "outputModuleId": 13,
      "outputId": 0,
      "inputModuleId": 26,
      "inputId": 5,
      "color": "#0c8e15"
    },
    {
      "id": 61,
      "outputModuleId": 26,
      "outputId": 0,
      "inputModuleId": 29,
      "inputId": 0,
      "color": "#c91847"
    },
    {
      "id": 62,
      "outputModuleId": 26,
      "outputId": 1,
      "inputModuleId": 29,
      "inputId": 1,
      "color": "#0986ad"
    },
    {
      "id": 64,
      "outputModuleId": 22,
      "outputId": 0,
      "inputModuleId": 21,
      "inputId": 0,
      "color": "#0c8e15"
    },
    {
      "id": 65,
      "outputModuleId": 22,
      "outputId": 1,
      "inputModuleId": 21,
      "inputId": 1,
      "color": "#c91847"
    },
    {
      "id": 66,
      "outputModuleId": 22,
      "outputId": 9,
      "inputModuleId": 21,
      "inputId": 2,
      "color": "#0986ad"
    },
    {
      "id": 67,
      "outputModuleId": 22,
      "outputId": 8,
      "inputModuleId": 21,
      "inputId": 3,
      "color": "#c9b70e"
    },
    {
      "id": 47,
      "outputModuleId": 21,
      "outputId": 0,
      "inputModuleId": 23,
      "inputId": 0,
      "color": "#c91847"
    },
    {
      "id": 45,
      "outputModuleId": 21,
      "outputId": 0,
      "inputModuleId": 14,
      "inputId": 0,
      "color": "#c9b70e"
    },
    {
      "id": 71,
      "outputModuleId": 25,
      "outputId": 19,
      "inputModuleId": 18,
      "inputId": 2,
      "color": "#c9b70e"
    },
    {
      "id": 72,
      "outputModuleId": 25,
      "outputId": 18,
      "inputModuleId": 13,
      "inputId": 2,
      "color": "#0c8e15"
    },
    {
      "id": 70,
      "outputModuleId": 26,
      "outputId": 0,
      "inputModuleId": 31,
      "inputId": 0,
      "color": "#0986ad"
    },
    {
      "id": 69,
      "outputModuleId": 26,
      "outputId": 1,
      "inputModuleId": 31,
      "inputId": 1,
      "color": "#c91847"
    },
    {
      "id": 63,
      "outputModuleId": 29,
      "outputId": 0,
      "inputModuleId": 31,
      "inputId": 2,
      "color": "#c9b70e"
    },
    {
      "id": 73,
      "outputModuleId": 30,
      "outputId": 0,
      "inputModuleId": 32,
      "inputId": 0,
      "color": "#0986ad"
    },
    {
      "id": 74,
      "outputModuleId": 21,
      "outputId": 0,
      "inputModuleId": 33,
      "inputId": 0,
      "color": "#c9b70e"
    },
    {
      "id": 75,
      "outputModuleId": 33,
      "outputId": 0,
      "inputModuleId": 30,
      "inputId": 0,
      "color": "#0c8e15"
    },
    {
      "id": 76,
      "outputModuleId": 31,
      "outputId": 0,
      "inputModuleId": 32,
      "inputId": 1,
      "color": "#c91847"
    },
    {
      "id": 78,
      "outputModuleId": 34,
      "outputId": 0,
      "inputModuleId": 9,
      "inputId": 3,
      "color": "#c9b70e"
    },
    {
      "id": 79,
      "outputModuleId": 34,
      "outputId": 1,
      "inputModuleId": 9,
      "inputId": 2,
      "color": "#0c8e15"
    },
    {
      "id": 80,
      "outputModuleId": 34,
      "outputId": 2,
      "inputModuleId": 9,
      "inputId": 1,
      "color": "#c91847"
    },
    {
      "id": 81,
      "outputModuleId": 25,
      "outputId": 12,
      "inputModuleId": 26,
      "inputId": 1,
      "color": "#0986ad"
    },
    {
      "id": 82,
      "outputModuleId": 25,
      "outputId": 16,
      "inputModuleId": 19,
      "inputId": 1,
      "color": "#c9b70e"
    },
    {
      "id": 83,
      "outputModuleId": 25,
      "outputId": 17,
      "inputModuleId": 20,
      "inputId": 1,
      "color": "#0c8e15"
    },
    {
      "id": 77,
      "outputModuleId": 32,
      "outputId": 0,
      "inputModuleId": 35,
      "inputId": 0,
      "color": "#0986ad"
    },
    {
      "id": 85,
      "outputModuleId": 21,
      "outputId": 0,
      "inputModuleId": 35,
      "inputId": 2,
      "color": "#0986ad"
    },
    {
      "id": 84,
      "outputModuleId": 35,
      "outputId": 0,
      "inputModuleId": 9,
      "inputId": 0,
      "color": "#c91847"
    },
    {
      "id": 86,
      "outputModuleId": 32,
      "outputId": 0,
      "inputModuleId": 34,
      "inputId": 0,
      "color": "#c9b70e"
    },
    {
      "id": 87,
      "outputModuleId": 29,
      "outputId": 0,
      "inputModuleId": 35,
      "inputId": 1,
      "color": "#0c8e15"
    },
    {
      "id": 88,
      "outputModuleId": 35,
      "outputId": 1,
      "inputModuleId": 10,
      "inputId": 3,
      "color": "#c91847"
    },
    {
      "id": 68,
      "outputModuleId": 22,
      "outputId": 4,
      "inputModuleId": 21,
      "inputId": 9,
      "color": "#0c8e15"
    },
    {
      "id": 91,
      "outputModuleId": 37,
      "outputId": 0,
      "inputModuleId": 38,
      "inputId": 0,
      "color": "#c91847"
    },
    {
      "id": 92,
      "outputModuleId": 39,
      "outputId": 0,
      "inputModuleId": 37,
      "inputId": 0,
      "color": "#0986ad"
    },
    {
      "id": 93,
      "outputModuleId": 36,
      "outputId": 0,
      "inputModuleId": 38,
      "inputId": 1,
      "color": "#c9b70e"
    },
    {
      "id": 94,
      "outputModuleId": 38,
      "outputId": 0,
      "inputModuleId": 10,
      "inputId": 2,
      "color": "#0c8e15"
    },
    {
      "id": 89,
      "outputModuleId": 15,
      "outputId": 0,
      "inputModuleId": 40,
      "inputId": 3,
      "color": "#c9b70e"
    },
    {
      "id": 95,
      "outputModuleId": 22,
      "outputId": 3,
      "inputModuleId": 40,
      "inputId": 4,
      "color": "#c91847"
    },
    {
      "id": 90,
      "outputModuleId": 22,
      "outputId": 4,
      "inputModuleId": 39,
      "inputId": 0,
      "color": "#0c8e15"
    },
    {
      "id": 96,
      "outputModuleId": 41,
      "outputId": 0,
      "inputModuleId": 36,
      "inputId": 1,
      "color": "#0986ad"
    },
    {
      "id": 97,
      "outputModuleId": 40,
      "outputId": 6,
      "inputModuleId": 41,
      "inputId": 2,
      "color": "#c9b70e"
    },
    {
      "id": 98,
      "outputModuleId": 41,
      "outputId": 0,
      "inputModuleId": 42,
      "inputId": 1,
      "color": "#0c8e15"
    },
    {
      "id": 100,
      "outputModuleId": 37,
      "outputId": 1,
      "inputModuleId": 43,
      "inputId": 0,
      "color": "#0986ad"
    },
    {
      "id": 99,
      "outputModuleId": 42,
      "outputId": 0,
      "inputModuleId": 43,
      "inputId": 1,
      "color": "#c91847"
    },
    {
      "id": 101,
      "outputModuleId": 43,
      "outputId": 0,
      "inputModuleId": 10,
      "inputId": 1,
      "color": "#c9b70e"
    },
    {
      "id": 102,
      "outputModuleId": 25,
      "outputId": 1,
      "inputModuleId": 42,
      "inputId": 2,
      "color": "#0c8e15"
    },
    {
      "id": 103,
      "outputModuleId": 25,
      "outputId": 3,
      "inputModuleId": 36,
      "inputId": 2,
      "color": "#c91847"
    },
    {
      "id": 105,
      "outputModuleId": 45,
      "outputId": 0,
      "inputModuleId": 10,
      "inputId": 0,
      "color": "#c9b70e"
    },
    {
      "id": 104,
      "outputModuleId": 21,
      "outputId": 0,
      "inputModuleId": 45,
      "inputId": 5,
      "color": "#0986ad"
    },
    {
      "id": 106,
      "outputModuleId": 16,
      "outputId": 2,
      "inputModuleId": 45,
      "inputId": 3,
      "color": "#0c8e15"
    },
    {
      "id": 107,
      "outputModuleId": 16,
      "outputId": 3,
      "inputModuleId": 45,
      "inputId": 2,
      "color": "#c91847"
    }
  ]
}