{
  "version": "1.1.5",
  "modules": [
    {
      "id": 9,
      "plugin": "squinkylabs-plug1",
      "version": "1.0.4",
      "model": "squinkylabs-mixm",
      "params": [
        {
          "id": 0,
          "value": 0.599999726
        },
        {
          "id": 1,
          "value": 0.0
        },
        {
          "id": 2,
          "value": 0.342000037
        },
        {
          "id": 3,
          "value": 0.354000121
        },
        {
          "id": 4,
          "value": 0.601500154
        },
        {
          "id": 5,
          "value": 0.646500051
        },
        {
          "id": 6,
          "value": 0.0
        },
        {
          "id": 7,
          "value": 0.0
        },
        {
          "id": 8,
          "value": 0.0
        },
        {
          "id": 9,
          "value": 0.0
        },
        {
          "id": 10,
          "value": 0.0
        },
        {
          "id": 11,
          "value": 0.0
        },
        {
          "id": 12,
          "value": 0.0
        },
        {
          "id": 13,
          "value": 0.0
        },
        {
          "id": 14,
          "value": 0.0
        },
        {
          "id": 15,
          "value": 0.0
        },
        {
          "id": 16,
          "value": 0.0
        },
        {
          "id": 17,
          "value": 0.0
        },
        {
          "id": 18,
          "value": 0.0
        },
        {
          "id": 19,
          "value": 0.370499969
        },
        {
          "id": 20,
          "value": 0.412500024
        },
        {
          "id": 21,
          "value": 0.406500161
        },
        {
          "id": 22,
          "value": 0.40049994
        },
        {
          "id": 23,
          "value": 0.0
        },
        {
          "id": 24,
          "value": 0.0
        },
        {
          "id": 25,
          "value": 0.0
        },
        {
          "id": 26,
          "value": 0.0
        },
        {
          "id": 27,
          "value": 0.0
        },
        {
          "id": 28,
          "value": 0.0
        },
        {
          "id": 29,
          "value": 0.463500232
        },
        {
          "id": 30,
          "value": 0.0
        },
        {
          "id": 31,
          "value": 0.0
        },
        {
          "id": 32,
          "value": 0.0
        },
        {
          "id": 33,
          "value": 0.0
        },
        {
          "id": 34,
          "value": 0.0
        },
        {
          "id": 35,
          "value": 0.0
        },
        {
          "id": 36,
          "value": 1.0
        }
      ],
      "leftModuleId": 10,
      "rightModuleId": 12,
      "pos": [
        44,
        0
      ]
    },
    {
      "id": 10,
      "plugin": "squinkylabs-plug1",
      "version": "1.0.4",
      "model": "squinkylabs-mix4",
      "params": [
        {
          "id": 0,
          "value": 0.273000002
        },
        {
          "id": 1,
          "value": 0.325500011
        },
        {
          "id": 2,
          "value": 0.346499681
        },
        {
          "id": 3,
          "value": 0.300000072
        },
        {
          "id": 4,
          "value": 0.0
        },
        {
          "id": 5,
          "value": 0.0
        },
        {
          "id": 6,
          "value": 0.0
        },
        {
          "id": 7,
          "value": 0.0
        },
        {
          "id": 8,
          "value": 0.0
        },
        {
          "id": 9,
          "value": 0.0
        },
        {
          "id": 10,
          "value": 0.0
        },
        {
          "id": 11,
          "value": 0.0
        },
        {
          "id": 12,
          "value": 0.0
        },
        {
          "id": 13,
          "value": 0.0
        },
        {
          "id": 14,
          "value": 0.0
        },
        {
          "id": 15,
          "value": 0.0
        },
        {
          "id": 16,
          "value": 0.0
        },
        {
          "id": 17,
          "value": 0.379500061
        },
        {
          "id": 18,
          "value": 0.358499974
        },
        {
          "id": 19,
          "value": 0.366000026
        },
        {
          "id": 20,
          "value": 0.407999963
        },
        {
          "id": 21,
          "value": 0.0
        },
        {
          "id": 22,
          "value": 0.0
        },
        {
          "id": 23,
          "value": 0.0
        },
        {
          "id": 24,
          "value": 0.0
        },
        {
          "id": 25,
          "value": 0.0
        },
        {
          "id": 26,
          "value": 0.0
        },
        {
          "id": 27,
          "value": 0.0
        },
        {
          "id": 28,
          "value": 0.0
        },
        {
          "id": 29,
          "value": 0.0
        },
        {
          "id": 30,
          "value": 0.0
        },
        {
          "id": 31,
          "value": 0.0
        }
      ],
      "rightModuleId": 9,
      "pos": [
        34,
        0
      ]
    },
    {
      "id": 11,
      "plugin": "Core",
      "version": "1.1.5",
      "model": "AudioInterface",
      "params": [],
      "leftModuleId": 12,
      "data": {
        "audio": {
          "driver": 4,
          "deviceName": "system",
          "offset": 0,
          "maxChannels": 8,
          "sampleRate": 48000,
          "blockSize": 1024
        }
      },
      "pos": [
        73,
        0
      ]
    },
    {
      "id": 12,
      "plugin": "Valley",
      "version": "1.0.1",
      "model": "Plateau",
      "params": [
        {
          "id": 0,
          "value": 0.0
        },
        {
          "id": 1,
          "value": 1.0
        },
        {
          "id": 2,
          "value": 0.0
        },
        {
          "id": 3,
          "value": 8.61999989
        },
        {
          "id": 4,
          "value": 8.91999912
        },
        {
          "id": 5,
          "value": 0.339499891
        },
        {
          "id": 6,
          "value": 10.0
        },
        {
          "id": 7,
          "value": 0.40821588
        },
        {
          "id": 8,
          "value": 8.73999977
        },
        {
          "id": 9,
          "value": 10.0
        },
        {
          "id": 10,
          "value": 0.0
        },
        {
          "id": 11,
          "value": 0.5
        },
        {
          "id": 12,
          "value": 0.5
        },
        {
          "id": 13,
          "value": 0.0
        },
        {
          "id": 14,
          "value": 0.0
        },
        {
          "id": 15,
          "value": 0.0
        },
        {
          "id": 16,
          "value": 0.0
        },
        {
          "id": 17,
          "value": 0.0
        },
        {
          "id": 18,
          "value": 0.0
        },
        {
          "id": 19,
          "value": 0.0
        },
        {
          "id": 20,
          "value": 0.0
        },
        {
          "id": 21,
          "value": 0.0
        },
        {
          "id": 22,
          "value": 0.0
        },
        {
          "id": 23,
          "value": 0.0
        },
        {
          "id": 24,
          "value": 0.0
        },
        {
          "id": 25,
          "value": 0.0
        },
        {
          "id": 26,
          "value": 0.0
        },
        {
          "id": 27,
          "value": 0.0
        },
        {
          "id": 28,
          "value": 0.0
        },
        {
          "id": 29,
          "value": 0.0
        },
        {
          "id": 30,
          "value": 1.0
        }
      ],
      "leftModuleId": 9,
      "rightModuleId": 11,
      "data": {
        "frozen": false,
        "freezeToggle": false,
        "panelStyle": 0,
        "tuned": 0,
        "diffuseInput": 1,
        "preDelayCVSens": 0,
        "inputSensitivity": 0,
        "outputSaturation": 0
      },
      "pos": [
        61,
        0
      ]
    },
    {
      "id": 22,
      "plugin": "AudibleInstruments",
      "version": "1.0.0",
      "model": "Braids",
      "params": [
        {
          "id": 0,
          "value": 0.0
        },
        {
          "id": 1,
          "value": 0.0
        },
        {
          "id": 2,
          "value": 0.0
        },
        {
          "id": 3,
          "value": 0.0
        },
        {
          "id": 4,
          "value": 0.324000001
        },
        {
          "id": 5,
          "value": 0.0
        },
        {
          "id": 6,
          "value": 0.0449999943
        }
      ],
      "leftModuleId": 23,
      "rightModuleId": 27,
      "data": {
        "settings": [
          2,
          0,
          0,
          0,
          0,
          0,
          0,
          0,
          0,
          0,
          0,
          0,
          0,
          0,
          0,
          0,
          0,
          0,
          0,
          0
        ],
        "lowCpu": false
      },
      "pos": [
        51,
        1
      ]
    },
    {
      "id": 23,
      "plugin": "AudibleInstruments",
      "version": "1.0.0",
      "model": "Braids",
      "params": [
        {
          "id": 0,
          "value": 0.0
        },
        {
          "id": 1,
          "value": 0.0
        },
        {
          "id": 2,
          "value": 0.0
        },
        {
          "id": 3,
          "value": 0.00150000001
        },
        {
          "id": 4,
          "value": 0.16500023
        },
        {
          "id": 5,
          "value": 0.0
        },
        {
          "id": 6,
          "value": 0.0449999943
        }
      ],
      "leftModuleId": 53,
      "rightModuleId": 22,
      "data": {
        "settings": [
          2,
          0,
          0,
          0,
          0,
          0,
          0,
          0,
          0,
          0,
          0,
          0,
          0,
          0,
          0,
          0,
          0,
          0,
          0,
          0
        ],
        "lowCpu": false
      },
      "pos": [
        35,
        1
      ]
    },
    {
      "id": 24,
      "plugin": "StellareModular",
      "version": "1.0.0",
      "model": "TuringMachine",
      "params": [
        {
          "id": 0,
          "value": 0.5
        },
        {
          "id": 1,
          "value": 0.5
        },
        {
          "id": 2,
          "value": 0.5
        },
        {
          "id": 3,
          "value": 0.5
        },
        {
          "id": 4,
          "value": 0.5
        },
        {
          "id": 5,
          "value": 0.0
        },
        {
          "id": 6,
          "value": 4.0
        },
        {
          "id": 7,
          "value": 0.0930002108
        },
        {
          "id": 8,
          "value": 0.0
        },
        {
          "id": 9,
          "value": 0.0
        },
        {
          "id": 10,
          "value": 0.0
        },
        {
          "id": 11,
          "value": 0.0
        },
        {
          "id": 12,
          "value": 0.0
        }
      ],
      "leftModuleId": 27,
      "rightModuleId": 26,
      "data": {
        "pulses_mode": 0
      },
      "pos": [
        71,
        1
      ]
    },
    {
      "id": 25,
      "plugin": "StellareModular",
      "version": "1.0.0",
      "model": "TuringMachine",
      "params": [
        {
          "id": 0,
          "value": 0.5
        },
        {
          "id": 1,
          "value": 0.5
        },
        {
          "id": 2,
          "value": 0.5
        },
        {
          "id": 3,
          "value": 0.5
        },
        {
          "id": 4,
          "value": 0.5
        },
        {
          "id": 5,
          "value": 0.0
        },
        {
          "id": 6,
          "value": 5.0
        },
        {
          "id": 7,
          "value": 0.112500161
        },
        {
          "id": 8,
          "value": 0.0
        },
        {
          "id": 9,
          "value": 0.0
        },
        {
          "id": 10,
          "value": 0.0
        },
        {
          "id": 11,
          "value": 0.0
        },
        {
          "id": 12,
          "value": 0.0
        }
      ],
      "leftModuleId": 26,
      "rightModuleId": 35,
      "data": {
        "pulses_mode": 0
      },
      "pos": [
        93,
        1
      ]
    },
    {
      "id": 26,
      "plugin": "JW-Modules",
      "version": "1.0.8",
      "model": "Quantizer",
      "params": [
        {
          "id": 0,
          "value": 0.0
        },
        {
          "id": 1,
          "value": 9.0
        }
      ],
      "leftModuleId": 24,
      "rightModuleId": 25,
      "data": {},
      "pos": [
        89,
        1
      ]
    },
    {
      "id": 27,
      "plugin": "JW-Modules",
      "version": "1.0.8",
      "model": "Quantizer",
      "params": [
        {
          "id": 0,
          "value": 0.0
        },
        {
          "id": 1,
          "value": 14.0
        }
      ],
      "leftModuleId": 22,
      "rightModuleId": 24,
      "data": {},
      "pos": [
        67,
        1
      ]
    },
    {
      "id": 28,
      "plugin": "Autodafe",
      "version": "1.0.1",
      "model": "BPMClock",
      "params": [
        {
          "id": 0,
          "value": 120.0
        },
        {
          "id": 1,
          "value": 0.0
        },
        {
          "id": 2,
          "value": 0.0
        },
        {
          "id": 3,
          "value": 0.0
        },
        {
          "id": 4,
          "value": 0.0
        }
      ],
      "rightModuleId": 29,
      "data": {
        "bpmint": 120,
        "bpmdec": 0
      },
      "pos": [
        84,
        0
      ]
    },
    {
      "id": 29,
      "plugin": "Autodafe",
      "version": "1.0.1",
      "model": "ClockDivider",
      "params": [
        {
          "id": 0,
          "value": 0.0
        }
      ],
      "leftModuleId": 28,
      "pos": [
        94,
        0
      ]
    },
    {
      "id": 31,
      "plugin": "FrozenWasteland",
      "version": "1.9.5",
      "model": "BPMLFO",
      "params": [
        {
          "id": 0,
          "value": 1.0
        },
        {
          "id": 1,
          "value": 0.0
        },
        {
          "id": 2,
          "value": 11.0
        },
        {
          "id": 3,
          "value": 0.0
        },
        {
          "id": 4,
          "value": 0.0
        },
        {
          "id": 5,
          "value": 0.0
        },
        {
          "id": 6,
          "value": 0.0
        },
        {
          "id": 7,
          "value": 1.0
        },
        {
          "id": 8,
          "value": 1.0
        },
        {
          "id": 9,
          "value": 1.0
        }
      ],
      "rightModuleId": 33,
      "pos": [
        100,
        0
      ]
    },
    {
      "id": 33,
      "plugin": "FrozenWasteland",
      "version": "1.9.5",
      "model": "BPMLFO",
      "params": [
        {
          "id": 0,
          "value": 1.0
        },
        {
          "id": 1,
          "value": 0.0
        },
        {
          "id": 2,
          "value": 22.0
        },
        {
          "id": 3,
          "value": 0.0
        },
        {
          "id": 4,
          "value": 0.0
        },
        {
          "id": 5,
          "value": 0.0
        },
        {
          "id": 6,
          "value": 0.0
        },
        {
          "id": 7,
          "value": 1.0
        },
        {
          "id": 8,
          "value": 1.0
        },
        {
          "id": 9,
          "value": 1.0
        }
      ],
      "leftModuleId": 31,
      "pos": [
        108,
        0
      ]
    },
    {
      "id": 35,
      "plugin": "Befaco",
      "version": "1.0.0",
      "model": "Rampage",
      "params": [
        {
          "id": 0,
          "value": 0.0
        },
        {
          "id": 1,
          "value": 0.0
        },
        {
          "id": 2,
          "value": 0.0
        },
        {
          "id": 3,
          "value": 0.0
        },
        {
          "id": 4,
          "value": 0.0
        },
        {
          "id": 5,
          "value": 0.0
        },
        {
          "id": 6,
          "value": 0.0
        },
        {
          "id": 7,
          "value": 0.0509999953
        },
        {
          "id": 8,
          "value": 0.53499943
        },
        {
          "id": 9,
          "value": 0.657000244
        },
        {
          "id": 10,
          "value": 0.0
        },
        {
          "id": 11,
          "value": 0.0
        },
        {
          "id": 12,
          "value": 0.5
        }
      ],
      "leftModuleId": 25,
      "pos": [
        111,
        1
      ]
    },
    {
      "id": 36,
      "plugin": "AS",
      "version": "1.0.3",
      "model": "VCA",
      "params": [
        {
          "id": 0,
          "value": 0.870999932
        },
        {
          "id": 1,
          "value": 0.874000013
        },
        {
          "id": 2,
          "value": 1.0
        },
        {
          "id": 3,
          "value": 1.0
        }
      ],
      "pos": [
        119,
        0
      ]
    },
    {
      "id": 37,
      "plugin": "AudibleInstruments",
      "version": "1.0.0",
      "model": "Braids",
      "params": [
        {
          "id": 0,
          "value": 0.0
        },
        {
          "id": 1,
          "value": 0.0
        },
        {
          "id": 2,
          "value": 0.0
        },
        {
          "id": 3,
          "value": 0.74150002
        },
        {
          "id": 4,
          "value": 0.477000028
        },
        {
          "id": 5,
          "value": 0.226999968
        },
        {
          "id": 6,
          "value": 0.0449999943
        }
      ],
      "leftModuleId": 43,
      "rightModuleId": 38,
      "data": {
        "settings": [
          2,
          0,
          0,
          0,
          0,
          0,
          0,
          0,
          0,
          0,
          0,
          0,
          0,
          0,
          0,
          0,
          0,
          0,
          0,
          0
        ],
        "lowCpu": false
      },
      "pos": [
        39,
        2
      ]
    },
    {
      "id": 38,
      "plugin": "AudibleInstruments",
      "version": "1.0.0",
      "model": "Braids",
      "params": [
        {
          "id": 0,
          "value": 0.0
        },
        {
          "id": 1,
          "value": -2.0
        },
        {
          "id": 2,
          "value": 0.0
        },
        {
          "id": 3,
          "value": 0.5
        },
        {
          "id": 4,
          "value": 0.263999879
        },
        {
          "id": 5,
          "value": 0.762500048
        },
        {
          "id": 6,
          "value": 0.0449999943
        }
      ],
      "leftModuleId": 37,
      "rightModuleId": 40,
      "data": {
        "settings": [
          2,
          0,
          0,
          0,
          0,
          0,
          0,
          0,
          0,
          0,
          0,
          0,
          0,
          0,
          0,
          0,
          0,
          0,
          0,
          0
        ],
        "lowCpu": false
      },
      "pos": [
        55,
        2
      ]
    },
    {
      "id": 39,
      "plugin": "Befaco",
      "version": "1.0.0",
      "model": "Rampage",
      "params": [
        {
          "id": 0,
          "value": 0.0
        },
        {
          "id": 1,
          "value": 0.0
        },
        {
          "id": 2,
          "value": 0.0
        },
        {
          "id": 3,
          "value": 0.0
        },
        {
          "id": 4,
          "value": 0.0
        },
        {
          "id": 5,
          "value": 0.0
        },
        {
          "id": 6,
          "value": 0.0
        },
        {
          "id": 7,
          "value": 0.0
        },
        {
          "id": 8,
          "value": 0.50999999
        },
        {
          "id": 9,
          "value": 0.513000131
        },
        {
          "id": 10,
          "value": 0.0
        },
        {
          "id": 11,
          "value": 0.0
        },
        {
          "id": 12,
          "value": 0.5
        }
      ],
      "leftModuleId": 42,
      "pos": [
        111,
        2
      ]
    },
    {
      "id": 40,
      "plugin": "AudibleInstruments",
      "version": "1.0.0",
      "model": "Braids",
      "params": [
        {
          "id": 0,
          "value": 0.0
        },
        {
          "id": 1,
          "value": -2.0
        },
        {
          "id": 2,
          "value": 0.0
        },
        {
          "id": 3,
          "value": 0.628999829
        },
        {
          "id": 4,
          "value": 0.324000001
        },
        {
          "id": 5,
          "value": 0.677000046
        },
        {
          "id": 6,
          "value": 0.0449999943
        }
      ],
      "leftModuleId": 38,
      "rightModuleId": 41,
      "data": {
        "settings": [
          2,
          0,
          0,
          0,
          0,
          0,
          0,
          0,
          0,
          0,
          0,
          0,
          0,
          0,
          0,
          0,
          0,
          0,
          0,
          0
        ],
        "lowCpu": false
      },
      "pos": [
        71,
        2
      ]
    },
    {
      "id": 41,
      "plugin": "AudibleInstruments",
      "version": "1.0.0",
      "model": "Braids",
      "params": [
        {
          "id": 0,
          "value": 0.0
        },
        {
          "id": 1,
          "value": 2.0
        },
        {
          "id": 2,
          "value": 0.0
        },
        {
          "id": 3,
          "value": 0.5
        },
        {
          "id": 4,
          "value": 0.474000037
        },
        {
          "id": 5,
          "value": 0.264499903
        },
        {
          "id": 6,
          "value": 0.0449999943
        }
      ],
      "leftModuleId": 40,
      "rightModuleId": 42,
      "data": {
        "settings": [
          2,
          0,
          0,
          0,
          0,
          0,
          0,
          0,
          0,
          0,
          0,
          0,
          0,
          0,
          0,
          0,
          0,
          0,
          0,
          0
        ],
        "lowCpu": false
      },
      "pos": [
        87,
        2
      ]
    },
    {
      "id": 42,
      "plugin": "AS",
      "version": "1.0.3",
      "model": "QuadVCA",
      "params": [
        {
          "id": 0,
          "value": 1.0
        },
        {
          "id": 1,
          "value": 1.0
        },
        {
          "id": 2,
          "value": 1.0
        },
        {
          "id": 3,
          "value": 1.0
        },
        {
          "id": 4,
          "value": 1.0
        },
        {
          "id": 5,
          "value": 1.0
        },
        {
          "id": 6,
          "value": 1.0
        },
        {
          "id": 7,
          "value": 1.0
        }
      ],
      "leftModuleId": 41,
      "rightModuleId": 39,
      "pos": [
        103,
        2
      ]
    },
    {
      "id": 43,
      "plugin": "AS",
      "version": "1.0.3",
      "model": "SignalDelay",
      "params": [
        {
          "id": 0,
          "value": 0.394999385
        },
        {
          "id": 1,
          "value": 0.705000877
        },
        {
          "id": 2,
          "value": 1.0
        },
        {
          "id": 3,
          "value": 1.0
        }
      ],
      "leftModuleId": 44,
      "rightModuleId": 37,
      "pos": [
        33,
        2
      ]
    },
    {
      "id": 44,
      "plugin": "AS",
      "version": "1.0.3",
      "model": "SignalDelay",
      "params": [
        {
          "id": 0,
          "value": 0.0
        },
        {
          "id": 1,
          "value": 5.79000139
        },
        {
          "id": 2,
          "value": 1.0
        },
        {
          "id": 3,
          "value": 1.0
        }
      ],
      "rightModuleId": 43,
      "pos": [
        27,
        2
      ]
    },
    {
      "id": 45,
      "plugin": "VultModulesFree",
      "version": "1.3.0",
      "model": "Tangents",
      "params": [
        {
          "id": 0,
          "value": 0.536999583
        },
        {
          "id": 1,
          "value": 0.666999936
        },
        {
          "id": 2,
          "value": 0.0149999931
        },
        {
          "id": 3,
          "value": 0.0
        },
        {
          "id": 4,
          "value": 0.53399986
        },
        {
          "id": 5,
          "value": 0.0
        },
        {
          "id": 6,
          "value": 0.0
        }
      ],
      "leftModuleId": 52,
      "rightModuleId": 46,
      "pos": [
        10,
        1
      ]
    },
    {
      "id": 46,
      "plugin": "Fundamental",
      "version": "1.2.1",
      "model": "Merge",
      "params": [],
      "leftModuleId": 45,
      "rightModuleId": 48,
      "data": {
        "channels": -1
      },
      "pos": [
        20,
        1
      ]
    },
    {
      "id": 48,
      "plugin": "Fundamental",
      "version": "1.2.1",
      "model": "Split",
      "params": [],
      "leftModuleId": 46,
      "rightModuleId": 53,
      "pos": [
        25,
        1
      ]
    },
    {
      "id": 49,
      "plugin": "AudibleInstruments",
      "version": "1.0.0",
      "model": "Kinks",
      "params": [],
      "leftModuleId": 50,
      "pos": [
        12,
        0
      ]
    },
    {
      "id": 50,
      "plugin": "Bogaudio",
      "version": "1.1.22",
      "model": "Bogaudio-Slew",
      "params": [
        {
          "id": 0,
          "value": 0.338500291
        },
        {
          "id": 1,
          "value": 0.0
        },
        {
          "id": 2,
          "value": 0.405999929
        },
        {
          "id": 3,
          "value": 0.0
        }
      ],
      "rightModuleId": 49,
      "pos": [
        9,
        0
      ]
    },
    {
      "id": 52,
      "plugin": "VultModulesFree",
      "version": "1.3.0",
      "model": "Tangents",
      "params": [
        {
          "id": 0,
          "value": 0.586499572
        },
        {
          "id": 1,
          "value": 0.635499537
        },
        {
          "id": 2,
          "value": -0.156000182
        },
        {
          "id": 3,
          "value": 0.0
        },
        {
          "id": 4,
          "value": 0.64199996
        },
        {
          "id": 5,
          "value": 0.0
        },
        {
          "id": 6,
          "value": 0.0
        }
      ],
      "rightModuleId": 45,
      "pos": [
        0,
        1
      ]
    },
    {
      "id": 53,
      "plugin": "Fundamental",
      "version": "1.2.1",
      "model": "Split",
      "params": [],
      "leftModuleId": 48,
      "rightModuleId": 23,
      "pos": [
        30,
        1
      ]
    }
  ],
  "cables": [
    {
      "id": 10,
      "outputModuleId": 9,
      "outputId": 0,
      "inputModuleId": 11,
      "inputId": 0,
      "color": "#c91847"
    },
    {
      "id": 11,
      "outputModuleId": 9,
      "outputId": 1,
      "inputModuleId": 11,
      "inputId": 1,
      "color": "#0986ad"
    },
    {
      "id": 12,
      "outputModuleId": 9,
      "outputId": 6,
      "inputModuleId": 12,
      "inputId": 0,
      "color": "#c9b70e"
    },
    {
      "id": 13,
      "outputModuleId": 9,
      "outputId": 7,
      "inputModuleId": 12,
      "inputId": 1,
      "color": "#0c8e15"
    },
    {
      "id": 14,
      "outputModuleId": 12,
      "outputId": 0,
      "inputModuleId": 9,
      "inputId": 16,
      "color": "#c91847"
    },
    {
      "id": 15,
      "outputModuleId": 12,
      "outputId": 1,
      "inputModuleId": 9,
      "inputId": 17,
      "color": "#0986ad"
    },
    {
      "id": 56,
      "outputModuleId": 24,
      "outputId": 14,
      "inputModuleId": 27,
      "inputId": 2,
      "color": "#0c8e15"
    },
    {
      "id": 57,
      "outputModuleId": 27,
      "outputId": 0,
      "inputModuleId": 23,
      "inputId": 1,
      "color": "#c91847"
    },
    {
      "id": 58,
      "outputModuleId": 25,
      "outputId": 14,
      "inputModuleId": 26,
      "inputId": 2,
      "color": "#0986ad"
    },
    {
      "id": 59,
      "outputModuleId": 26,
      "outputId": 0,
      "inputModuleId": 22,
      "inputId": 1,
      "color": "#c9b70e"
    },
    {
      "id": 60,
      "outputModuleId": 28,
      "outputId": 0,
      "inputModuleId": 24,
      "inputId": 0,
      "color": "#c91847"
    },
    {
      "id": 61,
      "outputModuleId": 28,
      "outputId": 1,
      "inputModuleId": 25,
      "inputId": 0,
      "color": "#0986ad"
    },
    {
      "id": 64,
      "outputModuleId": 31,
      "outputId": 0,
      "inputModuleId": 22,
      "inputId": 3,
      "color": "#c91847"
    },
    {
      "id": 65,
      "outputModuleId": 28,
      "outputId": 8,
      "inputModuleId": 31,
      "inputId": 0,
      "color": "#0986ad"
    },
    {
      "id": 67,
      "outputModuleId": 33,
      "outputId": 0,
      "inputModuleId": 23,
      "inputId": 3,
      "color": "#0c8e15"
    },
    {
      "id": 68,
      "outputModuleId": 33,
      "outputId": 0,
      "inputModuleId": 23,
      "inputId": 4,
      "color": "#c91847"
    },
    {
      "id": 77,
      "outputModuleId": 28,
      "outputId": 0,
      "inputModuleId": 35,
      "inputId": 2,
      "color": "#0986ad"
    },
    {
      "id": 62,
      "outputModuleId": 35,
      "outputId": 6,
      "inputModuleId": 36,
      "inputId": 0,
      "color": "#c9b70e"
    },
    {
      "id": 63,
      "outputModuleId": 35,
      "outputId": 7,
      "inputModuleId": 36,
      "inputId": 2,
      "color": "#0c8e15"
    },
    {
      "id": 75,
      "outputModuleId": 23,
      "outputId": 0,
      "inputModuleId": 36,
      "inputId": 1,
      "color": "#0c8e15"
    },
    {
      "id": 76,
      "outputModuleId": 22,
      "outputId": 0,
      "inputModuleId": 36,
      "inputId": 3,
      "color": "#c91847"
    },
    {
      "id": 79,
      "outputModuleId": 36,
      "outputId": 0,
      "inputModuleId": 10,
      "inputId": 0,
      "color": "#c91847"
    },
    {
      "id": 80,
      "outputModuleId": 36,
      "outputId": 1,
      "inputModuleId": 10,
      "inputId": 1,
      "color": "#0986ad"
    },
    {
      "id": 81,
      "outputModuleId": 35,
      "outputId": 9,
      "inputModuleId": 22,
      "inputId": 2,
      "color": "#c9b70e"
    },
    {
      "id": 82,
      "outputModuleId": 35,
      "outputId": 10,
      "inputModuleId": 23,
      "inputId": 2,
      "color": "#0c8e15"
    },
    {
      "id": 78,
      "outputModuleId": 28,
      "outputId": 0,
      "inputModuleId": 35,
      "inputId": 3,
      "color": "#c9b70e"
    },
    {
      "id": 66,
      "outputModuleId": 28,
      "outputId": 8,
      "inputModuleId": 33,
      "inputId": 0,
      "color": "#c9b70e"
    },
    {
      "id": 85,
      "outputModuleId": 39,
      "outputId": 6,
      "inputModuleId": 42,
      "inputId": 4,
      "color": "#c9b70e"
    },
    {
      "id": 87,
      "outputModuleId": 39,
      "outputId": 7,
      "inputModuleId": 42,
      "inputId": 6,
      "color": "#c91847"
    },
    {
      "id": 88,
      "outputModuleId": 37,
      "outputId": 0,
      "inputModuleId": 42,
      "inputId": 1,
      "color": "#0986ad"
    },
    {
      "id": 89,
      "outputModuleId": 38,
      "outputId": 0,
      "inputModuleId": 42,
      "inputId": 3,
      "color": "#c9b70e"
    },
    {
      "id": 90,
      "outputModuleId": 40,
      "outputId": 0,
      "inputModuleId": 42,
      "inputId": 5,
      "color": "#c91847"
    },
    {
      "id": 96,
      "outputModuleId": 44,
      "outputId": 2,
      "inputModuleId": 37,
      "inputId": 1,
      "color": "#c91847"
    },
    {
      "id": 97,
      "outputModuleId": 43,
      "outputId": 2,
      "inputModuleId": 38,
      "inputId": 1,
      "color": "#0986ad"
    },
    {
      "id": 98,
      "outputModuleId": 44,
      "outputId": 3,
      "inputModuleId": 40,
      "inputId": 1,
      "color": "#c9b70e"
    },
    {
      "id": 99,
      "outputModuleId": 43,
      "outputId": 3,
      "inputModuleId": 41,
      "inputId": 1,
      "color": "#0c8e15"
    },
    {
      "id": 100,
      "outputModuleId": 28,
      "outputId": 9,
      "inputModuleId": 39,
      "inputId": 2,
      "color": "#c91847"
    },
    {
      "id": 101,
      "outputModuleId": 28,
      "outputId": 9,
      "inputModuleId": 39,
      "inputId": 3,
      "color": "#0986ad"
    },
    {
      "id": 113,
      "outputModuleId": 33,
      "outputId": 2,
      "inputModuleId": 43,
      "inputId": 1,
      "color": "#0986ad"
    },
    {
      "id": 115,
      "outputModuleId": 43,
      "outputId": 2,
      "inputModuleId": 38,
      "inputId": 4,
      "color": "#0c8e15"
    },
    {
      "id": 116,
      "outputModuleId": 43,
      "outputId": 3,
      "inputModuleId": 40,
      "inputId": 4,
      "color": "#c91847"
    },
    {
      "id": 117,
      "outputModuleId": 44,
      "outputId": 3,
      "inputModuleId": 41,
      "inputId": 4,
      "color": "#0986ad"
    },
    {
      "id": 120,
      "outputModuleId": 35,
      "outputId": 0,
      "inputModuleId": 37,
      "inputId": 2,
      "color": "#c91847"
    },
    {
      "id": 124,
      "outputModuleId": 39,
      "outputId": 2,
      "inputModuleId": 40,
      "inputId": 2,
      "color": "#c91847"
    },
    {
      "id": 91,
      "outputModuleId": 41,
      "outputId": 0,
      "inputModuleId": 42,
      "inputId": 7,
      "color": "#0986ad"
    },
    {
      "id": 121,
      "outputModuleId": 35,
      "outputId": 1,
      "inputModuleId": 40,
      "inputId": 3,
      "color": "#0986ad"
    },
    {
      "id": 84,
      "outputModuleId": 39,
      "outputId": 6,
      "inputModuleId": 44,
      "inputId": 0,
      "color": "#0986ad"
    },
    {
      "id": 86,
      "outputModuleId": 39,
      "outputId": 7,
      "inputModuleId": 43,
      "inputId": 0,
      "color": "#0c8e15"
    },
    {
      "id": 114,
      "outputModuleId": 44,
      "outputId": 2,
      "inputModuleId": 42,
      "inputId": 0,
      "color": "#c9b70e"
    },
    {
      "id": 125,
      "outputModuleId": 28,
      "outputId": 8,
      "inputModuleId": 44,
      "inputId": 2,
      "color": "#0986ad"
    },
    {
      "id": 126,
      "outputModuleId": 28,
      "outputId": 0,
      "inputModuleId": 43,
      "inputId": 2,
      "color": "#0c8e15"
    },
    {
      "id": 128,
      "outputModuleId": 28,
      "outputId": 8,
      "inputModuleId": 44,
      "inputId": 3,
      "color": "#0986ad"
    },
    {
      "id": 129,
      "outputModuleId": 39,
      "outputId": 8,
      "inputModuleId": 42,
      "inputId": 2,
      "color": "#c9b70e"
    },
    {
      "id": 102,
      "outputModuleId": 42,
      "outputId": 0,
      "inputModuleId": 46,
      "inputId": 0,
      "color": "#c9b70e"
    },
    {
      "id": 103,
      "outputModuleId": 42,
      "outputId": 1,
      "inputModuleId": 46,
      "inputId": 1,
      "color": "#0c8e15"
    },
    {
      "id": 104,
      "outputModuleId": 42,
      "outputId": 2,
      "inputModuleId": 46,
      "inputId": 2,
      "color": "#c91847"
    },
    {
      "id": 105,
      "outputModuleId": 42,
      "outputId": 3,
      "inputModuleId": 46,
      "inputId": 3,
      "color": "#0986ad"
    },
    {
      "id": 131,
      "outputModuleId": 45,
      "outputId": 0,
      "inputModuleId": 48,
      "inputId": 0,
      "color": "#c91847"
    },
    {
      "id": 132,
      "outputModuleId": 48,
      "outputId": 0,
      "inputModuleId": 9,
      "inputId": 0,
      "color": "#0986ad"
    },
    {
      "id": 133,
      "outputModuleId": 48,
      "outputId": 1,
      "inputModuleId": 9,
      "inputId": 1,
      "color": "#c9b70e"
    },
    {
      "id": 134,
      "outputModuleId": 48,
      "outputId": 2,
      "inputModuleId": 9,
      "inputId": 2,
      "color": "#0c8e15"
    },
    {
      "id": 135,
      "outputModuleId": 48,
      "outputId": 3,
      "inputModuleId": 9,
      "inputId": 3,
      "color": "#c91847"
    },
    {
      "id": 140,
      "outputModuleId": 50,
      "outputId": 0,
      "inputModuleId": 45,
      "inputId": 3,
      "color": "#0c8e15"
    },
    {
      "id": 143,
      "outputModuleId": 49,
      "outputId": 6,
      "inputModuleId": 49,
      "inputId": 0,
      "color": "#0c8e15"
    },
    {
      "id": 141,
      "outputModuleId": 49,
      "outputId": 2,
      "inputModuleId": 50,
      "inputId": 2,
      "color": "#c91847"
    },
    {
      "id": 146,
      "outputModuleId": 49,
      "outputId": 1,
      "inputModuleId": 52,
      "inputId": 3,
      "color": "#0c8e15"
    },
    {
      "id": 148,
      "outputModuleId": 52,
      "outputId": 0,
      "inputModuleId": 53,
      "inputId": 0,
      "color": "#c9b70e"
    },
    {
      "id": 149,
      "outputModuleId": 53,
      "outputId": 2,
      "inputModuleId": 10,
      "inputId": 2,
      "color": "#0c8e15"
    },
    {
      "id": 150,
      "outputModuleId": 53,
      "outputId": 3,
      "inputModuleId": 10,
      "inputId": 3,
      "color": "#c91847"
    },
    {
      "id": 130,
      "outputModuleId": 46,
      "outputId": 0,
      "inputModuleId": 45,
      "inputId": 0,
      "color": "#0c8e15"
    },
    {
      "id": 147,
      "outputModuleId": 46,
      "outputId": 0,
      "inputModuleId": 52,
      "inputId": 0,
      "color": "#c91847"
    },
    {
      "id": 136,
      "outputModuleId": 28,
      "outputId": 4,
      "inputModuleId": 49,
      "inputId": 4,
      "color": "#c9b70e"
    }
  ]
}