{
  "version": "1.1.6",
  "modules": [
    {
      "id": 9,
      "plugin": "squinkylabs-plug1",
      "version": "1.0.5",
      "model": "squinkylabs-mixm",
      "params": [
        {
          "id": 0,
          "value": 0.823000014
        },
        {
          "id": 1,
          "value": 0.0
        },
        {
          "id": 2,
          "value": 0.32100004
        },
        {
          "id": 3,
          "value": 0.0
        },
        {
          "id": 4,
          "value": 0.0
        },
        {
          "id": 5,
          "value": 0.0
        },
        {
          "id": 6,
          "value": 0.0
        },
        {
          "id": 7,
          "value": 0.0
        },
        {
          "id": 8,
          "value": 0.0
        },
        {
          "id": 9,
          "value": 0.0
        },
        {
          "id": 10,
          "value": 0.0
        },
        {
          "id": 11,
          "value": 0.0
        },
        {
          "id": 12,
          "value": 0.0
        },
        {
          "id": 13,
          "value": 0.0
        },
        {
          "id": 14,
          "value": 0.0
        },
        {
          "id": 15,
          "value": 0.0
        },
        {
          "id": 16,
          "value": 0.0
        },
        {
          "id": 17,
          "value": 0.0
        },
        {
          "id": 18,
          "value": 0.0
        },
        {
          "id": 19,
          "value": 0.0
        },
        {
          "id": 20,
          "value": 0.0
        },
        {
          "id": 21,
          "value": 0.0
        },
        {
          "id": 22,
          "value": 0.0
        },
        {
          "id": 23,
          "value": 0.0
        },
        {
          "id": 24,
          "value": 0.0
        },
        {
          "id": 25,
          "value": 0.0
        },
        {
          "id": 26,
          "value": 0.0
        },
        {
          "id": 27,
          "value": 0.0
        },
        {
          "id": 28,
          "value": 0.0
        },
        {
          "id": 29,
          "value": 0.486000091
        },
        {
          "id": 30,
          "value": 0.0
        },
        {
          "id": 31,
          "value": 0.0
        },
        {
          "id": 32,
          "value": 0.0
        },
        {
          "id": 33,
          "value": 0.0
        },
        {
          "id": 34,
          "value": 0.0
        },
        {
          "id": 35,
          "value": 0.0
        },
        {
          "id": 36,
          "value": 0.0
        }
      ],
      "leftModuleId": 10,
      "rightModuleId": 12,
      "pos": [
        38,
        0
      ]
    },
    {
      "id": 10,
      "plugin": "squinkylabs-plug1",
      "version": "1.0.5",
      "model": "squinkylabs-mix4",
      "params": [
        {
          "id": 0,
          "value": 0.423000097
        },
        {
          "id": 1,
          "value": 0.424500257
        },
        {
          "id": 2,
          "value": 0.366000086
        },
        {
          "id": 3,
          "value": 0.378000081
        },
        {
          "id": 4,
          "value": 0.0
        },
        {
          "id": 5,
          "value": 0.0
        },
        {
          "id": 6,
          "value": 0.0
        },
        {
          "id": 7,
          "value": 0.0
        },
        {
          "id": 8,
          "value": 0.0
        },
        {
          "id": 9,
          "value": 0.0
        },
        {
          "id": 10,
          "value": 0.0
        },
        {
          "id": 11,
          "value": 0.0
        },
        {
          "id": 12,
          "value": 0.0
        },
        {
          "id": 13,
          "value": 0.0
        },
        {
          "id": 14,
          "value": 0.0
        },
        {
          "id": 15,
          "value": 0.0
        },
        {
          "id": 16,
          "value": 0.0
        },
        {
          "id": 17,
          "value": 0.228000015
        },
        {
          "id": 18,
          "value": 0.203999951
        },
        {
          "id": 19,
          "value": 0.0
        },
        {
          "id": 20,
          "value": 0.0
        },
        {
          "id": 21,
          "value": 0.0
        },
        {
          "id": 22,
          "value": 0.0
        },
        {
          "id": 23,
          "value": 0.0
        },
        {
          "id": 24,
          "value": 0.0
        },
        {
          "id": 25,
          "value": 0.0
        },
        {
          "id": 26,
          "value": 0.0
        },
        {
          "id": 27,
          "value": 0.0
        },
        {
          "id": 28,
          "value": 0.0
        },
        {
          "id": 29,
          "value": 0.0
        },
        {
          "id": 30,
          "value": 0.0
        },
        {
          "id": 31,
          "value": 0.0
        }
      ],
      "leftModuleId": 115,
      "rightModuleId": 9,
      "pos": [
        28,
        0
      ]
    },
    {
      "id": 11,
      "plugin": "Core",
      "version": "1.1.6",
      "model": "AudioInterface",
      "params": [],
      "leftModuleId": 12,
      "rightModuleId": 168,
      "data": {
        "audio": {
          "driver": 4,
          "deviceName": "system",
          "offset": 0,
          "maxChannels": 8,
          "sampleRate": 48000,
          "blockSize": 1024
        }
      },
      "pos": [
        67,
        0
      ]
    },
    {
      "id": 12,
      "plugin": "Valley",
      "version": "1.0.1",
      "model": "Plateau",
      "params": [
        {
          "id": 0,
          "value": 1.0
        },
        {
          "id": 1,
          "value": 0.5
        },
        {
          "id": 2,
          "value": 0.0
        },
        {
          "id": 3,
          "value": 9.08499718
        },
        {
          "id": 4,
          "value": 10.0
        },
        {
          "id": 5,
          "value": 0.5
        },
        {
          "id": 6,
          "value": 10.0
        },
        {
          "id": 7,
          "value": 0.549950004
        },
        {
          "id": 8,
          "value": 10.0
        },
        {
          "id": 9,
          "value": 10.0
        },
        {
          "id": 10,
          "value": 0.0
        },
        {
          "id": 11,
          "value": 0.5
        },
        {
          "id": 12,
          "value": 0.5
        },
        {
          "id": 13,
          "value": 0.0
        },
        {
          "id": 14,
          "value": 0.0
        },
        {
          "id": 15,
          "value": 0.0
        },
        {
          "id": 16,
          "value": 0.0
        },
        {
          "id": 17,
          "value": 0.0
        },
        {
          "id": 18,
          "value": 0.0
        },
        {
          "id": 19,
          "value": 0.0
        },
        {
          "id": 20,
          "value": 0.0
        },
        {
          "id": 21,
          "value": 0.0
        },
        {
          "id": 22,
          "value": 0.0
        },
        {
          "id": 23,
          "value": 0.0
        },
        {
          "id": 24,
          "value": 0.0
        },
        {
          "id": 25,
          "value": 0.0
        },
        {
          "id": 26,
          "value": 0.0
        },
        {
          "id": 27,
          "value": 0.0
        },
        {
          "id": 28,
          "value": 0.0
        },
        {
          "id": 29,
          "value": 0.0
        },
        {
          "id": 30,
          "value": 1.0
        }
      ],
      "leftModuleId": 9,
      "rightModuleId": 11,
      "data": {
        "frozen": false,
        "freezeToggle": false,
        "panelStyle": 1,
        "tuned": 0,
        "diffuseInput": 1,
        "preDelayCVSens": 0,
        "inputSensitivity": 0,
        "outputSaturation": 0
      },
      "pos": [
        55,
        0
      ]
    },
    {
      "id": 115,
      "plugin": "HolonicSystems-Free",
      "version": "1.0.2",
      "model": "HolonicSystems-Pantry",
      "params": [
        {
          "id": 0,
          "value": 0.0
        },
        {
          "id": 1,
          "value": 0.0
        },
        {
          "id": 2,
          "value": 0.0
        },
        {
          "id": 3,
          "value": 0.0
        },
        {
          "id": 4,
          "value": 0.0
        },
        {
          "id": 5,
          "value": 0.0
        },
        {
          "id": 6,
          "value": 16.0
        },
        {
          "id": 7,
          "value": 16.0
        },
        {
          "id": 8,
          "value": 0.0
        },
        {
          "id": 9,
          "value": 0.0
        }
      ],
      "leftModuleId": 116,
      "rightModuleId": 10,
      "pos": [
        20,
        0
      ]
    },
    {
      "id": 116,
      "plugin": "ImpromptuModular",
      "version": "1.1.2",
      "model": "Clocked",
      "params": [
        {
          "id": 0,
          "value": 44.0
        },
        {
          "id": 1,
          "value": 9.0
        },
        {
          "id": 2,
          "value": 2.0
        },
        {
          "id": 3,
          "value": 0.0
        },
        {
          "id": 4,
          "value": 0.0
        },
        {
          "id": 5,
          "value": 0.0
        },
        {
          "id": 6,
          "value": 0.285000026
        },
        {
          "id": 7,
          "value": 0.0
        },
        {
          "id": 8,
          "value": 0.5
        },
        {
          "id": 9,
          "value": 0.5
        },
        {
          "id": 10,
          "value": 0.5
        },
        {
          "id": 11,
          "value": 0.0439999811
        },
        {
          "id": 12,
          "value": 0.0
        },
        {
          "id": 13,
          "value": 0.0
        },
        {
          "id": 14,
          "value": 0.0
        },
        {
          "id": 15,
          "value": 0.0
        },
        {
          "id": 16,
          "value": 0.0
        },
        {
          "id": 17,
          "value": 1.0
        },
        {
          "id": 18,
          "value": 0.0
        },
        {
          "id": 19,
          "value": 0.0
        }
      ],
      "rightModuleId": 115,
      "data": {
        "panelTheme": 1,
        "running": true,
        "displayDelayNoteMode": true,
        "bpmDetectionMode": false,
        "restartOnStopStartRun": 0,
        "sendResetOnRestart": false,
        "ppqn": 4,
        "resetClockOutputsHigh": true
      },
      "pos": [
        0,
        0
      ]
    },
    {
      "id": 118,
      "plugin": "Bogaudio",
      "version": "1.1.25",
      "model": "Bogaudio-FMOp",
      "params": [
        {
          "id": 0,
          "value": 0.0
        },
        {
          "id": 1,
          "value": 0.0
        },
        {
          "id": 2,
          "value": 0.0269999988
        },
        {
          "id": 3,
          "value": 0.933999956
        },
        {
          "id": 4,
          "value": 0.757000148
        },
        {
          "id": 5,
          "value": 0.148500144
        },
        {
          "id": 6,
          "value": 0.0
        },
        {
          "id": 7,
          "value": 0.139500052
        },
        {
          "id": 8,
          "value": 1.0
        },
        {
          "id": 9,
          "value": 1.0
        },
        {
          "id": 10,
          "value": 0.0
        },
        {
          "id": 11,
          "value": 0.0
        }
      ],
      "leftModuleId": 122,
      "rightModuleId": 127,
      "data": {
        "linearLevel": false
      },
      "pos": [
        67,
        1
      ]
    },
    {
      "id": 119,
      "plugin": "Bogaudio",
      "version": "1.1.25",
      "model": "Bogaudio-FMOp",
      "params": [
        {
          "id": 0,
          "value": 0.0
        },
        {
          "id": 1,
          "value": 0.0
        },
        {
          "id": 2,
          "value": 0.0435000025
        },
        {
          "id": 3,
          "value": 0.863500059
        },
        {
          "id": 4,
          "value": 0.938499868
        },
        {
          "id": 5,
          "value": 0.0389999971
        },
        {
          "id": 6,
          "value": 0.0
        },
        {
          "id": 7,
          "value": 0.0945000052
        },
        {
          "id": 8,
          "value": 1.0
        },
        {
          "id": 9,
          "value": 1.0
        },
        {
          "id": 10,
          "value": 0.0
        },
        {
          "id": 11,
          "value": 0.0
        }
      ],
      "leftModuleId": 127,
      "data": {
        "linearLevel": false
      },
      "pos": [
        80,
        1
      ]
    },
    {
      "id": 122,
      "plugin": "ML_modules",
      "version": "1.0.3",
      "model": "Quantum",
      "params": [
        {
          "id": 0,
          "value": 0.0
        },
        {
          "id": 1,
          "value": 0.0
        },
        {
          "id": 2,
          "value": 0.0
        },
        {
          "id": 3,
          "value": 0.0
        },
        {
          "id": 4,
          "value": 0.0
        },
        {
          "id": 5,
          "value": 0.0
        },
        {
          "id": 6,
          "value": 0.0
        },
        {
          "id": 7,
          "value": 0.0
        },
        {
          "id": 8,
          "value": 0.0
        },
        {
          "id": 9,
          "value": 0.0
        },
        {
          "id": 10,
          "value": 0.0
        },
        {
          "id": 11,
          "value": 0.0
        }
      ],
      "leftModuleId": 133,
      "rightModuleId": 118,
      "data": {
        "scale": [
          1,
          0,
          1,
          0,
          0,
          0,
          0,
          1,
          0,
          1,
          0,
          0
        ],
        "mode": 1,
        "transpose_select": 1,
        "toggle_mode": 0
      },
      "pos": [
        59,
        1
      ]
    },
    {
      "id": 127,
      "plugin": "Bogaudio",
      "version": "1.1.25",
      "model": "Bogaudio-Stack",
      "params": [
        {
          "id": 0,
          "value": 0.0
        },
        {
          "id": 1,
          "value": -1.0
        },
        {
          "id": 2,
          "value": 0.0
        },
        {
          "id": 3,
          "value": 1.0
        }
      ],
      "leftModuleId": 118,
      "rightModuleId": 119,
      "pos": [
        77,
        1
      ]
    },
    {
      "id": 133,
      "plugin": "stocaudio",
      "version": "1.0.1",
      "model": "Polyturing",
      "params": [
        {
          "id": 0,
          "value": 0.59649992
        },
        {
          "id": 1,
          "value": 0.0
        },
        {
          "id": 2,
          "value": 0.387499899
        },
        {
          "id": 3,
          "value": 0.0
        },
        {
          "id": 4,
          "value": 16.0
        },
        {
          "id": 5,
          "value": 0.0
        },
        {
          "id": 6,
          "value": -0.468000025
        },
        {
          "id": 7,
          "value": 0.0
        },
        {
          "id": 8,
          "value": 0.0
        },
        {
          "id": 9,
          "value": 0.0
        },
        {
          "id": 10,
          "value": 0.0
        }
      ],
      "leftModuleId": 145,
      "rightModuleId": 122,
      "data": {
        "celles": [
          -4.42337084,
          -3.32046151,
          2.28846598,
          1.94712973,
          -0.34382695,
          -2.84806752,
          0.108344555,
          0.0385910273,
          1.70832586,
          3.95755243,
          0.761023819,
          0.929319501,
          0.875675917,
          1.8679626,
          1.20009744,
          1.01652265,
          1.65621638,
          1.92459726,
          1.68546593,
          1.89884651,
          1.80421352,
          1.11014986,
          0.105554819,
          0.446267128,
          1.54465556,
          1.68267512,
          1.37558496,
          1.42431474,
          0.370317698,
          0.154748082,
          0.166447401,
          1.9333632,
          -4.31021976,
          1.72146046,
          -0.932418823,
          -0.946375132,
          0.129024267,
          0.0,
          0.0,
          1.21016335,
          0.725893855,
          1.88975823,
          1.5671401,
          1.5108031,
          0.750987649,
          0.836867809,
          1.09946823,
          1.56305242,
          1.16158187,
          0.79166925,
          1.67049217,
          1.74185848,
          0.648384333,
          1.48290622,
          0.217057109,
          0.551528335,
          1.01723564,
          1.18613279,
          0.77624166,
          1.55901945,
          1.1562587,
          0.793735862,
          1.36078644,
          0.443981886,
          2.52600288,
          1.98188972,
          -0.0639763623,
          1.3938185,
          0.0712872744,
          0.583333373,
          0.78802669,
          0.340394378,
          1.14258993,
          1.16666663,
          0.166666672,
          1.0836302,
          -1.41666663,
          0.814642191,
          0.346257329,
          1.3761903,
          1.88202679,
          1.35661614,
          0.527985096,
          1.47182727,
          1.20855677,
          1.17845654,
          0.638604403,
          0.415068626,
          0.41194129,
          0.0423978567,
          1.78810036,
          1.18203032,
          0.222930789,
          1.15505731,
          0.485089779,
          1.91482556,
          -0.322404861,
          1.11247993,
          1.49779296,
          1.19156992,
          1.85963285,
          1.1777612,
          0.925981522,
          0.09920609,
          0.484514356,
          1.96168244,
          0.691926599,
          0.705524325,
          0.0177406073,
          0.511803508,
          0.963592529,
          1.29215229,
          0.282095075,
          0.469723344,
          0.603787899,
          0.638484359,
          0.17190218,
          0.191370606,
          1.8524437,
          1.42863023,
          1.3398571,
          1.12897515,
          1.12271142,
          1.00167203,
          0.201903105,
          0.247442245,
          0.182278872,
          0.455700994,
          0.0,
          0.0,
          0.0,
          0.0,
          0.0,
          0.100344896,
          1.3437444,
          0.88808167,
          0.0421370268,
          1.6467545,
          1.47786629,
          0.993668079,
          0.44516027,
          1.1857059,
          0.397107959,
          1.88858795,
          1.68029678,
          1.60931802,
          1.83557844,
          0.920601845,
          1.59171975,
          1.98729074,
          1.23712456,
          0.0191514492,
          1.35251486,
          0.93267858,
          0.348625422,
          0.554195523,
          0.53295064,
          0.414236665,
          1.17381608,
          0.369203806,
          -4.99984741,
          1.45082247,
          -4.99984741,
          0.851760149,
          0.51242125,
          -4.99984741,
          0.769561291,
          1.61569834,
          -4.99984741,
          0.614757061,
          -4.99984741,
          1.88790166,
          1.45761704,
          1.09614062,
          0.559715629,
          -4.99984741,
          1.30247283,
          1.03692913,
          1.44592559,
          1.15790975,
          1.60890925,
          1.49828851,
          1.38020575,
          1.08690631,
          0.0548253059,
          0.698938608,
          1.14512563,
          0.909896135,
          1.17878926,
          0.703288555,
          1.34529424,
          1.52123225,
          4.01481676,
          4.00212383,
          4.00636196,
          4.01481676,
          4.00212383,
          0.856595635,
          0.743281364,
          1.64531088,
          1.34139061,
          0.0669032335,
          1.06242609,
          1.58611703,
          0.338405609,
          1.16492939,
          0.818018436,
          1.81254661,
          0.415662766,
          0.542930961,
          0.0521179438,
          1.32101071,
          1.57612097,
          0.245733738,
          0.936937571,
          0.958580852,
          1.67208159,
          1.90913403,
          1.64184272,
          1.69721508,
          1.03090751,
          1.55860078,
          0.739103198,
          0.250699759,
          0.0,
          0.0,
          1.49865711,
          0.0,
          0.449900985,
          1.7882129,
          0.587323904,
          0.164152026,
          0.655747652,
          0.0950719118,
          1.49672925,
          1.65453732,
          0.49839437,
          0.804986715,
          0.90220511,
          1.29750133,
          1.70690811,
          0.303235054,
          1.73398864,
          1.51904893,
          0.617852449,
          0.0945369005,
          1.196262,
          1.52677333,
          0.268061876,
          0.0488091707,
          0.996058106,
          1.63478017,
          1.15617728,
          0.86453557,
          1.85853684,
          0.821038365,
          2.42846055e-36,
          0.0,
          0.0,
          0.0,
          -1.87566992e-17,
          4.5879913e-41,
          4.23831146e-36,
          0.0,
          4.23830572e-36,
          0.0,
          1.35631151e-19,
          1.35631564e-19,
          9.10844002e-44,
          0.0,
          2.4265234e-36,
          0.0,
          2.4282654e-36,
          0.0,
          2.4285323e-36,
          0.0,
          4.62428493e-44,
          0.0,
          2.42836585e-36,
          0.0,
          2.42809321e-36,
          0.0,
          1.68155816e-42,
          0.0,
          1.79366203e-43,
          0.0,
          2.42824244e-36,
          0.0,
          54.0,
          330.0,
          18.0,
          18.0,
          0.0,
          0.0,
          2.42848925e-36,
          0.0,
          2.42848925e-36,
          0.0,
          0.0,
          0.0,
          5.00975548e33,
          1.8041545e28,
          0.0,
          0.0,
          1.40129846e-44,
          4.14874029e-39,
          1.40129846e-45,
          1.08762541e-19,
          2.42850647e-36,
          0.0,
          2.4285323e-36,
          0.0,
          2.42855813e-36,
          0.0,
          2.42857822e-36,
          0.0,
          1.21212317e-42,
          0.0,
          1.06128256e-36,
          0.0,
          2.42814487e-36,
          0.0,
          8.0,
          8.0,
          0.0,
          0.0,
          2.42851221e-36,
          0.0,
          2.42851221e-36,
          0.0,
          0.0,
          0.0,
          0.000926971494,
          0.0,
          0.0,
          0.0,
          0.0,
          0.0,
          0.0,
          0.0,
          0.0,
          0.0,
          0.0,
          0.0,
          0.0,
          1.35558359e-19,
          7.34424534e-36,
          0.0,
          7.34427978e-36,
          0.0,
          2.01786979e-43,
          0.0,
          2.01786979e-43,
          0.0,
          1.22592876e-38,
          0.0,
          0.0,
          0.0,
          18.0,
          18.0,
          0.0,
          0.0,
          2.42853804e-36,
          0.0,
          2.42853804e-36,
          0.0,
          0.0,
          0.0,
          9.18368975e-41,
          1.0,
          0.0,
          0.0,
          0.0,
          0.0,
          0.0,
          0.0,
          0.0,
          0.0,
          0.0,
          0.0,
          0.0,
          0.0,
          0.0,
          0.0,
          0.0,
          0.0,
          4.03573958e-43,
          0.0,
          1.12103877e-43,
          0.0,
          7.34423386e-36,
          0.0,
          0.0,
          1.79999995,
          18.0,
          18.0,
          0.0,
          0.0,
          2.42856387e-36,
          0.0,
          2.42856387e-36,
          0.0,
          0.0,
          0.0,
          7.35237396e31,
          0.0,
          0.150000006,
          6.89056508e22,
          4.62428493e-44,
          0.0,
          2.42846916e-36,
          0.0,
          2.42834002e-36,
          0.0,
          5.60519386e-43,
          0.0,
          1.34524653e-43,
          0.0,
          2.42845194e-36,
          0.0,
          0.0,
          0.0,
          18.0,
          18.0,
          0.0,
          0.0,
          2.42858396e-36,
          0.0,
          2.42858396e-36,
          0.0,
          0.0,
          0.0,
          2.5611373e-9,
          4.20037795e-5,
          3.3269934e-35,
          0.0,
          3.3269888e-35,
          0.0,
          4.41599392e21,
          7.00623823e22,
          5.17079133e-43,
          0.0,
          2.96033444e-36,
          0.0,
          2.42834002e-36,
          0.0,
          2.42857822e-36,
          0.0,
          4.62428493e-44,
          0.0,
          2.42883937e-36,
          0.0,
          2.42861839e-36,
          0.0,
          8.96831017e-44,
          0.0,
          1.12103877e-43,
          0.0,
          2.42855526e-36,
          0.0,
          0.0,
          1.60000002,
          16.0,
          16.0,
          0.0,
          0.0,
          2.42861265e-36,
          0.0,
          2.42861265e-36,
          0.0,
          0.0,
          0.0,
          1.42936522e13,
          0.0,
          0.150000006,
          1.35631564e-19,
          3.15292154e-43,
          0.0,
          2.42886233e-36,
          0.0,
          2.42846916e-36,
          0.0,
          2.42875328e-36,
          0.0,
          2.25609053e-43,
          0.0,
          2.42867866e-36,
          0.0,
          2.42877337e-36,
          0.0,
          16.0,
          16.0,
          0.0,
          0.0,
          2.42863274e-36,
          0.0,
          2.42863274e-36,
          0.0,
          0.0,
          0.0,
          1.40129846e-45,
          0.0,
          0.0,
          0.0,
          0.0,
          0.0,
          0.0,
          -1.70141204e38,
          0.0,
          2.42868153e-36,
          3.93846865e-11,
          1.03006909e-11
        ]
      },
      "pos": [
        51,
        1
      ]
    },
    {
      "id": 135,
      "plugin": "Fundamental",
      "version": "1.4.0",
      "model": "Merge",
      "params": [],
      "leftModuleId": 137,
      "rightModuleId": 145,
      "data": {
        "channels": -1
      },
      "pos": [
        41,
        1
      ]
    },
    {
      "id": 137,
      "plugin": "AudibleInstruments",
      "version": "1.0.0",
      "model": "Tides2",
      "params": [
        {
          "id": 0,
          "value": 0.0
        },
        {
          "id": 1,
          "value": 0.0
        },
        {
          "id": 2,
          "value": 0.0
        },
        {
          "id": 3,
          "value": -19.1040039
        },
        {
          "id": 4,
          "value": 0.5
        },
        {
          "id": 5,
          "value": 0.5
        },
        {
          "id": 6,
          "value": 0.5
        },
        {
          "id": 7,
          "value": 0.5
        },
        {
          "id": 8,
          "value": 0.0
        },
        {
          "id": 9,
          "value": 0.0
        },
        {
          "id": 10,
          "value": 0.0
        },
        {
          "id": 11,
          "value": 0.0
        },
        {
          "id": 12,
          "value": 0.0
        }
      ],
      "leftModuleId": 149,
      "rightModuleId": 135,
      "data": {
        "range": 1,
        "output": 0,
        "ramp": 1
      },
      "pos": [
        27,
        1
      ]
    },
    {
      "id": 145,
      "plugin": "Fundamental",
      "version": "1.4.0",
      "model": "Merge",
      "params": [],
      "leftModuleId": 135,
      "rightModuleId": 133,
      "data": {
        "channels": -1
      },
      "pos": [
        46,
        1
      ]
    },
    {
      "id": 146,
      "plugin": "TinyTricks",
      "version": "1.4.2",
      "model": "SNOSC",
      "params": [
        {
          "id": 0,
          "value": 1.9700011
        },
        {
          "id": 1,
          "value": 1.0
        },
        {
          "id": 2,
          "value": 0.0
        },
        {
          "id": 3,
          "value": 0.0
        },
        {
          "id": 4,
          "value": 2.5
        },
        {
          "id": 5,
          "value": 2.5
        },
        {
          "id": 6,
          "value": 0.0
        }
      ],
      "rightModuleId": 147,
      "data": {
        "mirror": true,
        "skin": 0,
        "forcebright": false
      },
      "pos": [
        0,
        1
      ]
    },
    {
      "id": 147,
      "plugin": "Bogaudio",
      "version": "1.1.25",
      "model": "Bogaudio-DADSRH",
      "params": [
        {
          "id": 0,
          "value": 0.0
        },
        {
          "id": 1,
          "value": 0.020999901
        },
        {
          "id": 2,
          "value": 0.161499962
        },
        {
          "id": 3,
          "value": 0.0204994269
        },
        {
          "id": 4,
          "value": 0.675999761
        },
        {
          "id": 5,
          "value": 0.114000045
        },
        {
          "id": 6,
          "value": 1.0
        },
        {
          "id": 7,
          "value": 1.0
        },
        {
          "id": 8,
          "value": 1.0
        },
        {
          "id": 9,
          "value": 0.0
        },
        {
          "id": 10,
          "value": 1.0
        },
        {
          "id": 11,
          "value": 1.0
        },
        {
          "id": 12,
          "value": 1.0
        },
        {
          "id": 13,
          "value": 1.0
        }
      ],
      "leftModuleId": 146,
      "rightModuleId": 161,
      "data": {
        "triggerOnLoad": true,
        "shouldTriggerOnLoad": true
      },
      "pos": [
        6,
        1
      ]
    },
    {
      "id": 149,
      "plugin": "Fundamental",
      "version": "1.4.0",
      "model": "VCA-1",
      "params": [
        {
          "id": 0,
          "value": 0.802500248
        },
        {
          "id": 1,
          "value": 1.0
        }
      ],
      "leftModuleId": 161,
      "rightModuleId": 137,
      "pos": [
        24,
        1
      ]
    },
    {
      "id": 161,
      "plugin": "VultModulesFree",
      "version": "1.6.0",
      "model": "Boomstick",
      "params": [
        {
          "id": 0,
          "value": 0.515499353
        },
        {
          "id": 1,
          "value": 0.486000091
        },
        {
          "id": 2,
          "value": 0.67849952
        },
        {
          "id": 3,
          "value": 0.0340000577
        },
        {
          "id": 4,
          "value": 0.0509998798
        }
      ],
      "leftModuleId": 147,
      "rightModuleId": 149,
      "pos": [
        16,
        1
      ]
    },
    {
      "id": 168,
      "plugin": "VultModulesFree",
      "version": "1.6.0",
      "model": "Trummor2",
      "params": [
        {
          "id": 0,
          "value": 0.0500000007
        },
        {
          "id": 1,
          "value": 0.5
        },
        {
          "id": 2,
          "value": 0.0
        },
        {
          "id": 3,
          "value": 0.0
        },
        {
          "id": 4,
          "value": 0.0
        },
        {
          "id": 5,
          "value": 0.0
        },
        {
          "id": 6,
          "value": 0.0
        },
        {
          "id": 7,
          "value": 0.200000003
        },
        {
          "id": 8,
          "value": 0.400000006
        },
        {
          "id": 9,
          "value": 0.0
        },
        {
          "id": 10,
          "value": 0.0
        },
        {
          "id": 11,
          "value": 0.699999988
        },
        {
          "id": 12,
          "value": 0.100000001
        },
        {
          "id": 13,
          "value": 0.0
        },
        {
          "id": 14,
          "value": 0.0
        },
        {
          "id": 15,
          "value": 0.949999988
        },
        {
          "id": 16,
          "value": 0.0
        },
        {
          "id": 17,
          "value": 0.0
        },
        {
          "id": 18,
          "value": 0.0360000059
        },
        {
          "id": 19,
          "value": 0.0500000007
        },
        {
          "id": 20,
          "value": 0.548000336
        },
        {
          "id": 21,
          "value": 0.0
        },
        {
          "id": 22,
          "value": 0.0
        },
        {
          "id": 23,
          "value": 0.8950001
        },
        {
          "id": 24,
          "value": 0.0
        },
        {
          "id": 25,
          "value": 0.0
        },
        {
          "id": 26,
          "value": -0.261000037
        },
        {
          "id": 27,
          "value": 0.0
        },
        {
          "id": 28,
          "value": 0.0
        },
        {
          "id": 29,
          "value": 0.0
        },
        {
          "id": 30,
          "value": 0.0
        },
        {
          "id": 31,
          "value": 0.0
        },
        {
          "id": 32,
          "value": 0.0
        }
      ],
      "leftModuleId": 11,
      "data": {
        "mod_a": 0,
        "mod_b": 20,
        "mod_c": 0,
        "mod_d": 0,
        "mk2": true
      },
      "pos": [
        77,
        0
      ]
    }
  ],
  "cables": [
    {
      "id": 10,
      "outputModuleId": 9,
      "outputId": 0,
      "inputModuleId": 11,
      "inputId": 0,
      "color": "#c91847"
    },
    {
      "id": 11,
      "outputModuleId": 9,
      "outputId": 1,
      "inputModuleId": 11,
      "inputId": 1,
      "color": "#0986ad"
    },
    {
      "id": 12,
      "outputModuleId": 9,
      "outputId": 6,
      "inputModuleId": 12,
      "inputId": 0,
      "color": "#c9b70e"
    },
    {
      "id": 13,
      "outputModuleId": 9,
      "outputId": 7,
      "inputModuleId": 12,
      "inputId": 1,
      "color": "#0c8e15"
    },
    {
      "id": 14,
      "outputModuleId": 12,
      "outputId": 0,
      "inputModuleId": 9,
      "inputId": 16,
      "color": "#c91847"
    },
    {
      "id": 15,
      "outputModuleId": 12,
      "outputId": 1,
      "inputModuleId": 9,
      "inputId": 17,
      "color": "#0986ad"
    },
    {
      "id": 319,
      "outputModuleId": 118,
      "outputId": 0,
      "inputModuleId": 10,
      "inputId": 0,
      "color": "#c9b70e"
    },
    {
      "id": 334,
      "outputModuleId": 116,
      "outputId": 1,
      "inputModuleId": 115,
      "inputId": 0,
      "color": "#c91847"
    },
    {
      "id": 373,
      "outputModuleId": 116,
      "outputId": 1,
      "inputModuleId": 135,
      "inputId": 0,
      "color": "#0c8e15"
    },
    {
      "id": 377,
      "outputModuleId": 135,
      "outputId": 0,
      "inputModuleId": 133,
      "inputId": 1,
      "color": "#0c8e15"
    },
    {
      "id": 376,
      "outputModuleId": 116,
      "outputId": 0,
      "inputModuleId": 135,
      "inputId": 1,
      "color": "#c9b70e"
    },
    {
      "id": 379,
      "outputModuleId": 133,
      "outputId": 0,
      "inputModuleId": 122,
      "inputId": 0,
      "color": "#c9b70e"
    },
    {
      "id": 382,
      "outputModuleId": 122,
      "outputId": 2,
      "inputModuleId": 118,
      "inputId": 5,
      "color": "#0986ad"
    },
    {
      "id": 383,
      "outputModuleId": 122,
      "outputId": 0,
      "inputModuleId": 115,
      "inputId": 12,
      "color": "#0986ad"
    },
    {
      "id": 384,
      "outputModuleId": 116,
      "outputId": 1,
      "inputModuleId": 115,
      "inputId": 14,
      "color": "#c9b70e"
    },
    {
      "id": 387,
      "outputModuleId": 115,
      "outputId": 2,
      "inputModuleId": 119,
      "inputId": 5,
      "color": "#0986ad"
    },
    {
      "id": 388,
      "outputModuleId": 119,
      "outputId": 0,
      "inputModuleId": 10,
      "inputId": 1,
      "color": "#c9b70e"
    },
    {
      "id": 385,
      "outputModuleId": 116,
      "outputId": 0,
      "inputModuleId": 115,
      "inputId": 4,
      "color": "#0c8e15"
    },
    {
      "id": 386,
      "outputModuleId": 115,
      "outputId": 0,
      "inputModuleId": 127,
      "inputId": 1,
      "color": "#c91847"
    },
    {
      "id": 389,
      "outputModuleId": 127,
      "outputId": 1,
      "inputModuleId": 119,
      "inputId": 4,
      "color": "#0c8e15"
    },
    {
      "id": 390,
      "outputModuleId": 122,
      "outputId": 0,
      "inputModuleId": 115,
      "inputId": 8,
      "color": "#c91847"
    },
    {
      "id": 391,
      "outputModuleId": 137,
      "outputId": 0,
      "inputModuleId": 135,
      "inputId": 2,
      "color": "#0986ad"
    },
    {
      "id": 393,
      "outputModuleId": 137,
      "outputId": 2,
      "inputModuleId": 135,
      "inputId": 4,
      "color": "#0c8e15"
    },
    {
      "id": 394,
      "outputModuleId": 137,
      "outputId": 3,
      "inputModuleId": 135,
      "inputId": 5,
      "color": "#c91847"
    },
    {
      "id": 396,
      "outputModuleId": 116,
      "outputId": 0,
      "inputModuleId": 137,
      "inputId": 7,
      "color": "#c9b70e"
    },
    {
      "id": 422,
      "outputModuleId": 122,
      "outputId": 0,
      "inputModuleId": 118,
      "inputId": 4,
      "color": "#c91847"
    },
    {
      "id": 423,
      "outputModuleId": 137,
      "outputId": 3,
      "inputModuleId": 133,
      "inputId": 4,
      "color": "#0986ad"
    },
    {
      "id": 425,
      "outputModuleId": 137,
      "outputId": 3,
      "inputModuleId": 135,
      "inputId": 6,
      "color": "#c91847"
    },
    {
      "id": 426,
      "outputModuleId": 137,
      "outputId": 2,
      "inputModuleId": 135,
      "inputId": 7,
      "color": "#0986ad"
    },
    {
      "id": 440,
      "outputModuleId": 118,
      "outputId": 0,
      "inputModuleId": 145,
      "inputId": 0,
      "color": "#c91847"
    },
    {
      "id": 441,
      "outputModuleId": 119,
      "outputId": 0,
      "inputModuleId": 145,
      "inputId": 1,
      "color": "#0986ad"
    },
    {
      "id": 443,
      "outputModuleId": 122,
      "outputId": 0,
      "inputModuleId": 145,
      "inputId": 2,
      "color": "#0c8e15"
    },
    {
      "id": 439,
      "outputModuleId": 145,
      "outputId": 0,
      "inputModuleId": 133,
      "inputId": 0,
      "color": "#0c8e15"
    },
    {
      "id": 448,
      "outputModuleId": 147,
      "outputId": 0,
      "inputModuleId": 149,
      "inputId": 0,
      "color": "#c91847"
    },
    {
      "id": 450,
      "outputModuleId": 149,
      "outputId": 0,
      "inputModuleId": 10,
      "inputId": 2,
      "color": "#c9b70e"
    },
    {
      "id": 451,
      "outputModuleId": 122,
      "outputId": 0,
      "inputModuleId": 146,
      "inputId": 0,
      "color": "#0c8e15"
    },
    {
      "id": 483,
      "outputModuleId": 147,
      "outputId": 1,
      "inputModuleId": 145,
      "inputId": 3,
      "color": "#c91847"
    },
    {
      "id": 485,
      "outputModuleId": 137,
      "outputId": 1,
      "inputModuleId": 135,
      "inputId": 3,
      "color": "#c9b70e"
    },
    {
      "id": 484,
      "outputModuleId": 137,
      "outputId": 0,
      "inputModuleId": 145,
      "inputId": 4,
      "color": "#0986ad"
    },
    {
      "id": 487,
      "outputModuleId": 137,
      "outputId": 1,
      "inputModuleId": 145,
      "inputId": 5,
      "color": "#0986ad"
    },
    {
      "id": 488,
      "outputModuleId": 137,
      "outputId": 2,
      "inputModuleId": 145,
      "inputId": 6,
      "color": "#c9b70e"
    },
    {
      "id": 489,
      "outputModuleId": 137,
      "outputId": 3,
      "inputModuleId": 145,
      "inputId": 7,
      "color": "#0c8e15"
    },
    {
      "id": 455,
      "outputModuleId": 145,
      "outputId": 0,
      "inputModuleId": 146,
      "inputId": 5,
      "color": "#0986ad"
    },
    {
      "id": 449,
      "outputModuleId": 146,
      "outputId": 0,
      "inputModuleId": 161,
      "inputId": 2,
      "color": "#0986ad"
    },
    {
      "id": 492,
      "outputModuleId": 161,
      "outputId": 0,
      "inputModuleId": 149,
      "inputId": 1,
      "color": "#c9b70e"
    },
    {
      "id": 498,
      "outputModuleId": 146,
      "outputId": 1,
      "inputModuleId": 147,
      "inputId": 0,
      "color": "#0986ad"
    },
    {
      "id": 491,
      "outputModuleId": 122,
      "outputId": 1,
      "inputModuleId": 146,
      "inputId": 7,
      "color": "#0986ad"
    },
    {
      "id": 499,
      "outputModuleId": 147,
      "outputId": 0,
      "inputModuleId": 161,
      "inputId": 0,
      "color": "#c9b70e"
    },
    {
      "id": 500,
      "outputModuleId": 147,
      "outputId": 0,
      "inputModuleId": 161,
      "inputId": 1,
      "color": "#0c8e15"
    },
    {
      "id": 512,
      "outputModuleId": 116,
      "outputId": 4,
      "inputModuleId": 115,
      "inputId": 6,
      "color": "#c91847"
    },
    {
      "id": 513,
      "outputModuleId": 116,
      "outputId": 0,
      "inputModuleId": 146,
      "inputId": 2,
      "color": "#0986ad"
    },
    {
      "id": 350,
      "outputModuleId": 116,
      "outputId": 2,
      "inputModuleId": 115,
      "inputId": 5,
      "color": "#c9b70e"
    },
    {
      "id": 519,
      "outputModuleId": 168,
      "outputId": 0,
      "inputModuleId": 9,
      "inputId": 0,
      "color": "#c91847"
    },
    {
      "id": 502,
      "outputModuleId": 137,
      "outputId": 3,
      "inputModuleId": 168,
      "inputId": 8,
      "color": "#0986ad"
    },
    {
      "id": 523,
      "outputModuleId": 115,
      "outputId": 1,
      "inputModuleId": 168,
      "inputId": 0,
      "color": "#c91847"
    },
    {
      "id": 524,
      "outputModuleId": 147,
      "outputId": 0,
      "inputModuleId": 168,
      "inputId": 4,
      "color": "#0986ad"
    },
    {
      "id": 525,
      "outputModuleId": 137,
      "outputId": 2,
      "inputModuleId": 115,
      "inputId": 13,
      "color": "#c9b70e"
    }
  ]
}