{
  "version": "1.1.6",
  "modules": [
    {
      "id": 20,
      "plugin": "Core",
      "version": "1.1.6",
      "model": "AudioInterface",
      "params": [],
      "leftModuleId": 21,
      "data": {
        "audio": {
          "driver": 1,
          "offset": 0,
          "maxChannels": 8,
          "sampleRate": 48000,
          "blockSize": 256
        }
      },
      "pos": [
        87,
        0
      ]
    },
    {
      "id": 21,
      "plugin": "Fundamental",
      "version": "1.4.0",
      "model": "VCMixer",
      "params": [
        {
          "id": 0,
          "value": 1.0
        },
        {
          "id": 1,
          "value": 0.712763727
        },
        {
          "id": 2,
          "value": 0.708521068
        },
        {
          "id": 3,
          "value": 0.834536791
        },
        {
          "id": 4,
          "value": 1.0
        }
      ],
      "rightModuleId": 20,
      "pos": [
        77,
        0
      ]
    },
    {
      "id": 85,
      "plugin": "Skylights",
      "version": "1.0.2",
      "model": "SkTuringV2",
      "params": [
        {
          "id": 0,
          "value": 1.0
        },
        {
          "id": 1,
          "value": 8.0
        },
        {
          "id": 2,
          "value": 1.0
        },
        {
          "id": 3,
          "value": 0.0
        },
        {
          "id": 4,
          "value": 1.0
        }
      ],
      "leftModuleId": 101,
      "rightModuleId": 104,
      "data": {
        "sequence": 7168
      },
      "pos": [
        26,
        0
      ]
    },
    {
      "id": 88,
      "plugin": "ImpromptuModular",
      "version": "1.1.7",
      "model": "Clocked",
      "params": [
        {
          "id": 0,
          "value": 120.0
        },
        {
          "id": 1,
          "value": 2.0
        },
        {
          "id": 2,
          "value": -9.0
        },
        {
          "id": 3,
          "value": 9.0
        },
        {
          "id": 4,
          "value": 0.0
        },
        {
          "id": 5,
          "value": 0.0
        },
        {
          "id": 6,
          "value": 0.0
        },
        {
          "id": 7,
          "value": 0.0
        },
        {
          "id": 8,
          "value": 0.5
        },
        {
          "id": 9,
          "value": 0.5
        },
        {
          "id": 10,
          "value": 0.5
        },
        {
          "id": 11,
          "value": 0.5
        },
        {
          "id": 12,
          "value": 0.0
        },
        {
          "id": 13,
          "value": 0.0
        },
        {
          "id": 14,
          "value": 0.0
        },
        {
          "id": 15,
          "value": 0.0
        },
        {
          "id": 16,
          "value": 0.0
        },
        {
          "id": 17,
          "value": 0.0
        },
        {
          "id": 18,
          "value": 0.0
        },
        {
          "id": 19,
          "value": 0.0
        }
      ],
      "data": {
        "panelTheme": 0,
        "running": true,
        "displayDelayNoteMode": true,
        "bpmDetectionMode": false,
        "resetOnStartStop": 0,
        "ppqn": 4,
        "resetClockOutputsHigh": true,
        "momentaryRunInput": true,
        "clockMaster": false
      },
      "pos": [
        0,
        0
      ]
    },
    {
      "id": 89,
      "plugin": "Fundamental",
      "version": "1.4.0",
      "model": "Scope",
      "params": [
        {
          "id": 0,
          "value": 0.0
        },
        {
          "id": 1,
          "value": 5.1900034
        },
        {
          "id": 2,
          "value": 0.0
        },
        {
          "id": 3,
          "value": -3.3000021
        },
        {
          "id": 4,
          "value": 6.01499987
        },
        {
          "id": 5,
          "value": 0.0
        },
        {
          "id": 6,
          "value": 0.0
        },
        {
          "id": 7,
          "value": 0.0
        }
      ],
      "leftModuleId": 91,
      "rightModuleId": 107,
      "data": {
        "lissajous": 0,
        "external": 0
      },
      "pos": [
        60,
        1
      ]
    },
    {
      "id": 90,
      "plugin": "VultModulesFree",
      "version": "1.10.1",
      "model": "Basal",
      "params": [
        {
          "id": 0,
          "value": 0.0
        },
        {
          "id": 1,
          "value": 0.0
        },
        {
          "id": 2,
          "value": 0.0
        },
        {
          "id": 3,
          "value": 0.0
        },
        {
          "id": 4,
          "value": 0.0
        },
        {
          "id": 5,
          "value": 0.0
        }
      ],
      "leftModuleId": 96,
      "rightModuleId": 91,
      "pos": [
        44,
        1
      ]
    },
    {
      "id": 91,
      "plugin": "VultModulesFree",
      "version": "1.10.1",
      "model": "Slap",
      "params": [
        {
          "id": 0,
          "value": 0.0869999975
        },
        {
          "id": 1,
          "value": 0.313500017
        },
        {
          "id": 2,
          "value": 0.704000175
        },
        {
          "id": 3,
          "value": 0.645499766
        },
        {
          "id": 4,
          "value": 0.0
        },
        {
          "id": 5,
          "value": 0.0
        },
        {
          "id": 6,
          "value": 0.0
        },
        {
          "id": 7,
          "value": 1.0
        },
        {
          "id": 8,
          "value": 0.0
        }
      ],
      "leftModuleId": 90,
      "rightModuleId": 89,
      "pos": [
        50,
        1
      ]
    },
    {
      "id": 92,
      "plugin": "Fundamental",
      "version": "1.4.0",
      "model": "VCO2",
      "params": [
        {
          "id": 0,
          "value": 1.0
        },
        {
          "id": 1,
          "value": 1.0
        },
        {
          "id": 2,
          "value": 20.574007
        },
        {
          "id": 3,
          "value": 1.5
        },
        {
          "id": 4,
          "value": 0.0
        }
      ],
      "leftModuleId": 94,
      "pos": [
        6,
        1
      ]
    },
    {
      "id": 94,
      "plugin": "Fundamental",
      "version": "1.4.0",
      "model": "VCO2",
      "params": [
        {
          "id": 0,
          "value": 1.0
        },
        {
          "id": 1,
          "value": 1.0
        },
        {
          "id": 2,
          "value": -15.06598
        },
        {
          "id": 3,
          "value": 1.5
        },
        {
          "id": 4,
          "value": 0.0
        }
      ],
      "rightModuleId": 92,
      "pos": [
        0,
        1
      ]
    },
    {
      "id": 96,
      "plugin": "Skylights",
      "version": "1.0.2",
      "model": "SkTuringVactrolAnalogue",
      "params": [
        {
          "id": 0,
          "value": 1.0
        },
        {
          "id": 1,
          "value": 0.477000028
        },
        {
          "id": 2,
          "value": 0.357000083
        },
        {
          "id": 3,
          "value": 0.363000035
        }
      ],
      "leftModuleId": 103,
      "rightModuleId": 90,
      "pos": [
        36,
        1
      ]
    },
    {
      "id": 101,
      "plugin": "Bogaudio",
      "version": "1.1.31",
      "model": "Bogaudio-LLFO",
      "params": [
        {
          "id": 0,
          "value": -5.0
        },
        {
          "id": 1,
          "value": 0.0
        },
        {
          "id": 2,
          "value": 0.0
        },
        {
          "id": 3,
          "value": 0.0
        },
        {
          "id": 4,
          "value": 1.0
        }
      ],
      "rightModuleId": 85,
      "pos": [
        23,
        0
      ]
    },
    {
      "id": 102,
      "plugin": "Bogaudio",
      "version": "1.1.31",
      "model": "Bogaudio-Slew",
      "params": [
        {
          "id": 0,
          "value": 0.316229999
        },
        {
          "id": 1,
          "value": 0.0
        },
        {
          "id": 2,
          "value": 0.26222977
        },
        {
          "id": 3,
          "value": 0.0
        }
      ],
      "pos": [
        16,
        1
      ]
    },
    {
      "id": 103,
      "plugin": "Fundamental",
      "version": "1.4.0",
      "model": "Scope",
      "params": [
        {
          "id": 0,
          "value": -1.0
        },
        {
          "id": 1,
          "value": -10.0
        },
        {
          "id": 2,
          "value": -1.0
        },
        {
          "id": 3,
          "value": 9.7300005
        },
        {
          "id": 4,
          "value": 14.3199978
        },
        {
          "id": 5,
          "value": 0.0
        },
        {
          "id": 6,
          "value": 0.0
        },
        {
          "id": 7,
          "value": 0.0
        }
      ],
      "rightModuleId": 96,
      "data": {
        "lissajous": 0,
        "external": 0
      },
      "pos": [
        23,
        1
      ]
    },
    {
      "id": 104,
      "plugin": "Fundamental",
      "version": "1.4.0",
      "model": "Scope",
      "params": [
        {
          "id": 0,
          "value": 0.0
        },
        {
          "id": 1,
          "value": 0.0
        },
        {
          "id": 2,
          "value": 0.0
        },
        {
          "id": 3,
          "value": 0.0
        },
        {
          "id": 4,
          "value": 14.0
        },
        {
          "id": 5,
          "value": 0.0
        },
        {
          "id": 6,
          "value": 0.0
        },
        {
          "id": 7,
          "value": 0.0
        }
      ],
      "leftModuleId": 85,
      "rightModuleId": 109,
      "data": {
        "lissajous": 0,
        "external": 0
      },
      "pos": [
        36,
        0
      ]
    },
    {
      "id": 105,
      "plugin": "Stoermelder-P1",
      "version": "1.6.3",
      "model": "CVMapMicro",
      "params": [
        {
          "id": 0,
          "value": 0.0
        },
        {
          "id": 1,
          "value": 0.0
        },
        {
          "id": 2,
          "value": 1.0
        }
      ],
      "leftModuleId": 109,
      "rightModuleId": 106,
      "data": {
        "textScrolling": true,
        "mappingIndicatorHidden": false,
        "maps": [
          {
            "moduleId": 85,
            "paramId": 0
          }
        ],
        "lockParameterChanges": true,
        "bipolarInput": false,
        "panelTheme": 0,
        "invertedOutput": false
      },
      "pos": [
        57,
        0
      ]
    },
    {
      "id": 106,
      "plugin": "RJModules",
      "version": "1.7.2",
      "model": "Button",
      "params": [
        {
          "id": 0,
          "value": 1.0
        }
      ],
      "leftModuleId": 105,
      "pos": [
        60,
        0
      ]
    },
    {
      "id": 107,
      "plugin": "VultModulesFree",
      "version": "1.10.1",
      "model": "Basal",
      "params": [
        {
          "id": 0,
          "value": 0.0
        },
        {
          "id": 1,
          "value": 0.0
        },
        {
          "id": 2,
          "value": 0.0
        },
        {
          "id": 3,
          "value": 0.0
        },
        {
          "id": 4,
          "value": 0.0
        },
        {
          "id": 5,
          "value": 0.0
        }
      ],
      "leftModuleId": 89,
      "rightModuleId": 108,
      "pos": [
        73,
        1
      ]
    },
    {
      "id": 108,
      "plugin": "VultModulesFree",
      "version": "1.10.1",
      "model": "Slap",
      "params": [
        {
          "id": 0,
          "value": 0.0869999975
        },
        {
          "id": 1,
          "value": 0.315000027
        },
        {
          "id": 2,
          "value": 0.704000175
        },
        {
          "id": 3,
          "value": 0.645499766
        },
        {
          "id": 4,
          "value": 0.0
        },
        {
          "id": 5,
          "value": 0.0
        },
        {
          "id": 6,
          "value": 0.0
        },
        {
          "id": 7,
          "value": 1.0
        },
        {
          "id": 8,
          "value": 0.0
        }
      ],
      "leftModuleId": 107,
      "pos": [
        79,
        1
      ]
    },
    {
      "id": 109,
      "plugin": "ML_modules",
      "version": "1.1.2",
      "model": "VoltMeter",
      "params": [],
      "leftModuleId": 104,
      "rightModuleId": 105,
      "pos": [
        49,
        0
      ]
    },
    {
      "id": 111,
      "plugin": "Skylights",
      "version": "1.0.2",
      "model": "SkTuringVolts",
      "params": [
        {
          "id": 0,
          "value": 0.584999979
        },
        {
          "id": 1,
          "value": 0.338999987
        },
        {
          "id": 2,
          "value": 0.363000005
        },
        {
          "id": 3,
          "value": 0.413999945
        },
        {
          "id": 4,
          "value": 0.504000008
        }
      ],
      "pos": [
        31,
        2
      ]
    },
    {
      "id": 112,
      "plugin": "VultModulesFree",
      "version": "1.10.1",
      "model": "Trummor2",
      "params": [
        {
          "id": 0,
          "value": 0.0488000028
        },
        {
          "id": 1,
          "value": 0.5
        },
        {
          "id": 2,
          "value": 0.0
        },
        {
          "id": 3,
          "value": 0.667499602
        },
        {
          "id": 4,
          "value": 0.0
        },
        {
          "id": 5,
          "value": 0.0
        },
        {
          "id": 6,
          "value": 0.0
        },
        {
          "id": 7,
          "value": 0.200000003
        },
        {
          "id": 8,
          "value": 0.400000006
        },
        {
          "id": 9,
          "value": 0.0
        },
        {
          "id": 10,
          "value": 0.0
        },
        {
          "id": 11,
          "value": 0.699999988
        },
        {
          "id": 12,
          "value": 0.1285
        },
        {
          "id": 13,
          "value": 0.0
        },
        {
          "id": 14,
          "value": -0.0539999977
        },
        {
          "id": 15,
          "value": 0.949999988
        },
        {
          "id": 16,
          "value": 0.0
        },
        {
          "id": 17,
          "value": 0.0
        },
        {
          "id": 18,
          "value": 0.0
        },
        {
          "id": 19,
          "value": 0.0500000007
        },
        {
          "id": 20,
          "value": 0.0500000007
        },
        {
          "id": 21,
          "value": 0.0
        },
        {
          "id": 22,
          "value": 0.0
        },
        {
          "id": 23,
          "value": 0.81099993
        },
        {
          "id": 24,
          "value": 0.0
        },
        {
          "id": 25,
          "value": 0.0
        },
        {
          "id": 26,
          "value": 0.0
        },
        {
          "id": 27,
          "value": 0.0
        },
        {
          "id": 28,
          "value": 0.0
        },
        {
          "id": 29,
          "value": 0.0
        },
        {
          "id": 30,
          "value": 0.0
        },
        {
          "id": 31,
          "value": 0.0
        },
        {
          "id": 32,
          "value": 0.0
        }
      ],
      "data": {
        "mod_a": 3,
        "mod_b": 0,
        "mod_c": 0,
        "mod_d": 0,
        "mk2": true
      },
      "pos": [
        37,
        2
      ]
    },
    {
      "id": 114,
      "plugin": "VCV-Recorder",
      "version": "1.0.1",
      "model": "Recorder",
      "params": [
        {
          "id": 0,
          "value": 1.0
        },
        {
          "id": 1,
          "value": 0.0
        }
      ],
      "data": {
        "format": "wav",
        "path": "",
        "incrementPath": true,
        "sampleRate": 44100,
        "depth": 16,
        "bitRate": 320000
      },
      "pos": [
        92,
        1
      ]
    }
  ],
  "cables": [
    {
      "id": 67,
      "outputModuleId": 21,
      "outputId": 0,
      "inputModuleId": 20,
      "inputId": 0,
      "color": "#c91847"
    },
    {
      "id": 277,
      "outputModuleId": 90,
      "outputId": 0,
      "inputModuleId": 91,
      "inputId": 5,
      "color": "#c91847"
    },
    {
      "id": 280,
      "outputModuleId": 88,
      "outputId": 1,
      "inputModuleId": 85,
      "inputId": 0,
      "color": "#c91847"
    },
    {
      "id": 359,
      "outputModuleId": 85,
      "outputId": 1,
      "inputModuleId": 96,
      "inputId": 0,
      "color": "#c9b70e"
    },
    {
      "id": 355,
      "outputModuleId": 91,
      "outputId": 0,
      "inputModuleId": 21,
      "inputId": 1,
      "color": "#0c8e15"
    },
    {
      "id": 358,
      "outputModuleId": 96,
      "outputId": 0,
      "inputModuleId": 90,
      "inputId": 0,
      "color": "#0986ad"
    },
    {
      "id": 363,
      "outputModuleId": 92,
      "outputId": 0,
      "inputModuleId": 96,
      "inputId": 2,
      "color": "#c9b70e"
    },
    {
      "id": 364,
      "outputModuleId": 94,
      "outputId": 0,
      "inputModuleId": 96,
      "inputId": 3,
      "color": "#0c8e15"
    },
    {
      "id": 373,
      "outputModuleId": 85,
      "outputId": 2,
      "inputModuleId": 91,
      "inputId": 0,
      "color": "#0986ad"
    },
    {
      "id": 374,
      "outputModuleId": 85,
      "outputId": 3,
      "inputModuleId": 96,
      "inputId": 4,
      "color": "#c91847"
    },
    {
      "id": 375,
      "outputModuleId": 101,
      "outputId": 0,
      "inputModuleId": 85,
      "inputId": 1,
      "color": "#0986ad"
    },
    {
      "id": 377,
      "outputModuleId": 102,
      "outputId": 0,
      "inputModuleId": 92,
      "inputId": 2,
      "color": "#0c8e15"
    },
    {
      "id": 378,
      "outputModuleId": 102,
      "outputId": 0,
      "inputModuleId": 94,
      "inputId": 2,
      "color": "#c91847"
    },
    {
      "id": 381,
      "outputModuleId": 92,
      "outputId": 0,
      "inputModuleId": 103,
      "inputId": 0,
      "color": "#0c8e15"
    },
    {
      "id": 382,
      "outputModuleId": 94,
      "outputId": 0,
      "inputModuleId": 103,
      "inputId": 1,
      "color": "#c91847"
    },
    {
      "id": 362,
      "outputModuleId": 85,
      "outputId": 0,
      "inputModuleId": 96,
      "inputId": 1,
      "color": "#0986ad"
    },
    {
      "id": 383,
      "outputModuleId": 101,
      "outputId": 0,
      "inputModuleId": 104,
      "inputId": 0,
      "color": "#0986ad"
    },
    {
      "id": 386,
      "outputModuleId": 106,
      "outputId": 0,
      "inputModuleId": 105,
      "inputId": 2,
      "color": "#c9b70e"
    },
    {
      "id": 387,
      "outputModuleId": 105,
      "outputId": 0,
      "inputModuleId": 104,
      "inputId": 1,
      "color": "#0c8e15"
    },
    {
      "id": 389,
      "outputModuleId": 88,
      "outputId": 2,
      "inputModuleId": 102,
      "inputId": 2,
      "color": "#0986ad"
    },
    {
      "id": 390,
      "outputModuleId": 106,
      "outputId": 1,
      "inputModuleId": 88,
      "inputId": 4,
      "color": "#c9b70e"
    },
    {
      "id": 392,
      "outputModuleId": 96,
      "outputId": 1,
      "inputModuleId": 107,
      "inputId": 0,
      "color": "#c91847"
    },
    {
      "id": 394,
      "outputModuleId": 85,
      "outputId": 3,
      "inputModuleId": 108,
      "inputId": 0,
      "color": "#0c8e15"
    },
    {
      "id": 393,
      "outputModuleId": 107,
      "outputId": 0,
      "inputModuleId": 108,
      "inputId": 5,
      "color": "#0986ad"
    },
    {
      "id": 395,
      "outputModuleId": 108,
      "outputId": 0,
      "inputModuleId": 21,
      "inputId": 2,
      "color": "#0986ad"
    },
    {
      "id": 396,
      "outputModuleId": 91,
      "outputId": 0,
      "inputModuleId": 89,
      "inputId": 0,
      "color": "#c9b70e"
    },
    {
      "id": 397,
      "outputModuleId": 108,
      "outputId": 0,
      "inputModuleId": 89,
      "inputId": 1,
      "color": "#0c8e15"
    },
    {
      "id": 398,
      "outputModuleId": 106,
      "outputId": 2,
      "inputModuleId": 101,
      "inputId": 1,
      "color": "#c91847"
    },
    {
      "id": 399,
      "outputModuleId": 101,
      "outputId": 0,
      "inputModuleId": 109,
      "inputId": 0,
      "color": "#0986ad"
    },
    {
      "id": 400,
      "outputModuleId": 85,
      "outputId": 1,
      "inputModuleId": 111,
      "inputId": 0,
      "color": "#c9b70e"
    },
    {
      "id": 401,
      "outputModuleId": 112,
      "outputId": 0,
      "inputModuleId": 21,
      "inputId": 3,
      "color": "#0c8e15"
    },
    {
      "id": 402,
      "outputModuleId": 111,
      "outputId": 0,
      "inputModuleId": 112,
      "inputId": 0,
      "color": "#c91847"
    },
    {
      "id": 406,
      "outputModuleId": 21,
      "outputId": 0,
      "inputModuleId": 20,
      "inputId": 1,
      "color": "#0c8e15"
    },
    {
      "id": 407,
      "outputModuleId": 21,
      "outputId": 0,
      "inputModuleId": 114,
      "inputId": 2,
      "color": "#c91847"
    },
    {
      "id": 408,
      "outputModuleId": 21,
      "outputId": 0,
      "inputModuleId": 114,
      "inputId": 3,
      "color": "#0986ad"
    }
  ]
}