{
  "version": "1.1.6",
  "modules": [
    {
      "id": 20,
      "plugin": "Core",
      "version": "1.1.6",
      "model": "AudioInterface",
      "params": [],
      "leftModuleId": 26,
      "data": {
        "audio": {
          "driver": 4,
          "deviceName": "system",
          "offset": 0,
          "maxChannels": 8,
          "sampleRate": 44100,
          "blockSize": 2048
        }
      },
      "pos": [
        94,
        0
      ]
    },
    {
      "id": 22,
      "plugin": "mscHack",
      "version": "1.0.2",
      "model": "Mix_9_3_4",
      "params": [
        {
          "id": 0,
          "value": 0.247000098
        },
        {
          "id": 1,
          "value": 0.255000293
        },
        {
          "id": 2,
          "value": 0.248999998
        },
        {
          "id": 3,
          "value": 0.324000061
        },
        {
          "id": 4,
          "value": 0.0689999983
        },
        {
          "id": 5,
          "value": 0.315999925
        },
        {
          "id": 6,
          "value": 0.222000077
        },
        {
          "id": 7,
          "value": 0.0
        },
        {
          "id": 8,
          "value": 0.0
        },
        {
          "id": 9,
          "value": 0.0
        },
        {
          "id": 10,
          "value": 0.0
        },
        {
          "id": 11,
          "value": 0.0
        },
        {
          "id": 12,
          "value": 0.0
        },
        {
          "id": 13,
          "value": 0.462000072
        },
        {
          "id": 14,
          "value": 0.0
        },
        {
          "id": 15,
          "value": 0.0
        },
        {
          "id": 16,
          "value": 0.0
        },
        {
          "id": 17,
          "value": 0.0
        },
        {
          "id": 18,
          "value": 0.0
        },
        {
          "id": 19,
          "value": 0.0
        },
        {
          "id": 20,
          "value": 0.0
        },
        {
          "id": 21,
          "value": 0.0
        },
        {
          "id": 22,
          "value": 0.0
        },
        {
          "id": 23,
          "value": 0.0
        },
        {
          "id": 24,
          "value": 0.0
        },
        {
          "id": 25,
          "value": 0.0
        },
        {
          "id": 26,
          "value": 0.0
        },
        {
          "id": 27,
          "value": 0.0
        },
        {
          "id": 28,
          "value": 0.0
        },
        {
          "id": 29,
          "value": 0.0
        },
        {
          "id": 30,
          "value": 0.0
        },
        {
          "id": 31,
          "value": 0.0
        },
        {
          "id": 32,
          "value": 0.0
        },
        {
          "id": 33,
          "value": 0.5
        },
        {
          "id": 34,
          "value": 0.5
        },
        {
          "id": 35,
          "value": 0.5
        },
        {
          "id": 36,
          "value": 0.5
        },
        {
          "id": 37,
          "value": 0.5
        },
        {
          "id": 38,
          "value": 0.5
        },
        {
          "id": 39,
          "value": 0.5
        },
        {
          "id": 40,
          "value": 0.5
        },
        {
          "id": 41,
          "value": 0.5
        },
        {
          "id": 42,
          "value": 0.5
        },
        {
          "id": 43,
          "value": 0.5
        },
        {
          "id": 44,
          "value": 0.5
        },
        {
          "id": 45,
          "value": 0.5
        },
        {
          "id": 46,
          "value": 0.5
        },
        {
          "id": 47,
          "value": 0.5
        },
        {
          "id": 48,
          "value": 0.5
        },
        {
          "id": 49,
          "value": 0.5
        },
        {
          "id": 50,
          "value": 0.5
        },
        {
          "id": 51,
          "value": 0.5
        },
        {
          "id": 52,
          "value": 0.5
        },
        {
          "id": 53,
          "value": 0.5
        },
        {
          "id": 54,
          "value": 0.5
        },
        {
          "id": 55,
          "value": 0.5
        },
        {
          "id": 56,
          "value": 0.5
        },
        {
          "id": 57,
          "value": 0.5
        },
        {
          "id": 58,
          "value": 0.5
        },
        {
          "id": 59,
          "value": 0.5
        },
        {
          "id": 60,
          "value": 0.5
        },
        {
          "id": 61,
          "value": 0.5
        },
        {
          "id": 62,
          "value": 0.5
        },
        {
          "id": 63,
          "value": 0.5
        },
        {
          "id": 64,
          "value": 0.5
        },
        {
          "id": 65,
          "value": 0.5
        },
        {
          "id": 66,
          "value": 0.5
        },
        {
          "id": 67,
          "value": 0.5
        },
        {
          "id": 68,
          "value": 0.5
        },
        {
          "id": 69,
          "value": 0.5
        },
        {
          "id": 70,
          "value": 0.5
        },
        {
          "id": 71,
          "value": 0.5
        },
        {
          "id": 72,
          "value": 0.5
        },
        {
          "id": 73,
          "value": 0.5
        },
        {
          "id": 74,
          "value": 0.5
        },
        {
          "id": 75,
          "value": 0.5
        },
        {
          "id": 76,
          "value": 0.5
        },
        {
          "id": 77,
          "value": 0.5
        },
        {
          "id": 78,
          "value": 0.5
        },
        {
          "id": 79,
          "value": 0.5
        },
        {
          "id": 80,
          "value": 0.5
        },
        {
          "id": 81,
          "value": 0.313499868
        },
        {
          "id": 82,
          "value": 0.0
        },
        {
          "id": 83,
          "value": 0.0
        },
        {
          "id": 84,
          "value": 0.0
        },
        {
          "id": 85,
          "value": 0.0
        },
        {
          "id": 86,
          "value": 0.0
        },
        {
          "id": 87,
          "value": 0.0
        },
        {
          "id": 88,
          "value": 0.0
        },
        {
          "id": 89,
          "value": 0.0
        },
        {
          "id": 90,
          "value": 0.0
        },
        {
          "id": 91,
          "value": 0.0
        },
        {
          "id": 92,
          "value": 0.0
        },
        {
          "id": 93,
          "value": 0.0
        },
        {
          "id": 94,
          "value": 0.0
        },
        {
          "id": 95,
          "value": 0.0
        },
        {
          "id": 96,
          "value": 0.0
        },
        {
          "id": 97,
          "value": 0.0
        },
        {
          "id": 98,
          "value": 0.0
        },
        {
          "id": 99,
          "value": 0.0
        },
        {
          "id": 100,
          "value": 0.0
        },
        {
          "id": 101,
          "value": 0.0
        },
        {
          "id": 102,
          "value": 0.0
        },
        {
          "id": 103,
          "value": 0.0
        },
        {
          "id": 104,
          "value": 0.0
        },
        {
          "id": 105,
          "value": 0.0
        },
        {
          "id": 106,
          "value": 0.0
        },
        {
          "id": 107,
          "value": 0.0
        },
        {
          "id": 108,
          "value": 0.0
        },
        {
          "id": 109,
          "value": 0.0
        },
        {
          "id": 110,
          "value": 0.0
        },
        {
          "id": 111,
          "value": 0.0
        },
        {
          "id": 112,
          "value": 0.0
        },
        {
          "id": 113,
          "value": 0.0
        },
        {
          "id": 114,
          "value": 0.0
        },
        {
          "id": 115,
          "value": 0.0
        },
        {
          "id": 116,
          "value": 0.0
        },
        {
          "id": 117,
          "value": 0.0
        },
        {
          "id": 118,
          "value": 0.0
        },
        {
          "id": 119,
          "value": 0.0
        },
        {
          "id": 120,
          "value": 0.0
        },
        {
          "id": 121,
          "value": 0.0
        },
        {
          "id": 122,
          "value": 0.0
        },
        {
          "id": 123,
          "value": 0.0
        },
        {
          "id": 124,
          "value": 0.0
        },
        {
          "id": 125,
          "value": 0.0
        },
        {
          "id": 126,
          "value": 0.0
        },
        {
          "id": 127,
          "value": 0.0
        },
        {
          "id": 128,
          "value": 0.0
        },
        {
          "id": 129,
          "value": 1.0
        },
        {
          "id": 130,
          "value": 0.0
        },
        {
          "id": 131,
          "value": 0.0
        },
        {
          "id": 132,
          "value": 0.0
        }
      ],
      "leftModuleId": 134,
      "rightModuleId": 26,
      "data": {
        "m_bMuteStates": [
          false,
          false,
          false,
          false,
          false,
          false,
          false,
          false,
          false,
          false,
          false,
          false,
          false,
          false,
          false,
          false
        ],
        "m_bSoloStates": [
          false,
          false,
          false,
          false,
          false,
          false,
          false,
          false,
          false,
          false,
          false,
          false,
          false,
          false,
          false,
          false
        ],
        "m_iRouteGroup": [
          3,
          3,
          3,
          3,
          3,
          3,
          3,
          3,
          3
        ],
        "m_bGroupPreMute": [
          true
        ],
        "m_bGainLevelx2": [
          false
        ],
        "m_bPreFader": [
          false,
          false,
          false,
          false,
          false,
          false,
          false,
          false,
          false,
          false,
          false,
          false
        ],
        "m_bAuxIgnoreSolo": [
          false
        ]
      },
      "pos": [
        49,
        0
      ]
    },
    {
      "id": 24,
      "plugin": "ImpromptuModular",
      "version": "1.1.7",
      "model": "Clocked",
      "params": [
        {
          "id": 0,
          "value": 115.0
        },
        {
          "id": 1,
          "value": 5.0
        },
        {
          "id": 2,
          "value": -17.0
        },
        {
          "id": 3,
          "value": 0.0
        },
        {
          "id": 4,
          "value": 0.0
        },
        {
          "id": 5,
          "value": 0.0
        },
        {
          "id": 6,
          "value": 0.0
        },
        {
          "id": 7,
          "value": 0.0
        },
        {
          "id": 8,
          "value": 0.5
        },
        {
          "id": 9,
          "value": 0.5
        },
        {
          "id": 10,
          "value": 0.5
        },
        {
          "id": 11,
          "value": 0.5
        },
        {
          "id": 12,
          "value": 0.0
        },
        {
          "id": 13,
          "value": 0.0
        },
        {
          "id": 14,
          "value": 0.0
        },
        {
          "id": 15,
          "value": 0.0
        },
        {
          "id": 16,
          "value": 0.0
        },
        {
          "id": 17,
          "value": 0.0
        },
        {
          "id": 18,
          "value": 0.0
        },
        {
          "id": 19,
          "value": 0.0
        }
      ],
      "rightModuleId": 133,
      "data": {
        "panelTheme": 1,
        "running": true,
        "displayDelayNoteMode": true,
        "bpmDetectionMode": false,
        "resetOnStartStop": 0,
        "ppqn": 4,
        "resetClockOutputsHigh": true,
        "momentaryRunInput": true,
        "clockMaster": false
      },
      "pos": [
        4,
        0
      ]
    },
    {
      "id": 25,
      "plugin": "StellareModular-CreativeSuite",
      "version": "1.1.1",
      "model": "Nomlia",
      "params": [
        {
          "id": 0,
          "value": 3.0
        },
        {
          "id": 1,
          "value": 0.0
        },
        {
          "id": 2,
          "value": 0.0
        },
        {
          "id": 3,
          "value": 9.22449589
        },
        {
          "id": 4,
          "value": 7.19399881
        },
        {
          "id": 5,
          "value": 5.57699919
        },
        {
          "id": 6,
          "value": 3.31649947
        },
        {
          "id": 7,
          "value": 1.71599984
        },
        {
          "id": 8,
          "value": 1.31999981
        },
        {
          "id": 9,
          "value": 0.197999999
        },
        {
          "id": 10,
          "value": 5.74199915
        },
        {
          "id": 11,
          "value": 0.0
        },
        {
          "id": 12,
          "value": 0.0
        },
        {
          "id": 13,
          "value": 0.0
        },
        {
          "id": 14,
          "value": 0.0
        },
        {
          "id": 15,
          "value": 0.0
        },
        {
          "id": 16,
          "value": 0.0
        },
        {
          "id": 17,
          "value": 0.0
        },
        {
          "id": 18,
          "value": 0.0
        },
        {
          "id": 19,
          "value": 0.0
        },
        {
          "id": 20,
          "value": 0.0
        },
        {
          "id": 21,
          "value": 0.0
        },
        {
          "id": 22,
          "value": 0.0
        },
        {
          "id": 23,
          "value": 0.0
        },
        {
          "id": 24,
          "value": 0.0
        },
        {
          "id": 25,
          "value": 0.0
        },
        {
          "id": 26,
          "value": 0.0
        }
      ],
      "rightModuleId": 37,
      "data": {
        "step_actives": [
          true,
          true,
          true,
          true,
          true,
          true,
          true,
          false
        ]
      },
      "pos": [
        0,
        1
      ]
    },
    {
      "id": 26,
      "plugin": "Valley",
      "version": "1.0.1",
      "model": "Plateau",
      "params": [
        {
          "id": 0,
          "value": 1.0
        },
        {
          "id": 1,
          "value": 0.5
        },
        {
          "id": 2,
          "value": 0.0
        },
        {
          "id": 3,
          "value": 10.0
        },
        {
          "id": 4,
          "value": 10.0
        },
        {
          "id": 5,
          "value": 0.5
        },
        {
          "id": 6,
          "value": 10.0
        },
        {
          "id": 7,
          "value": 0.549950004
        },
        {
          "id": 8,
          "value": 10.0
        },
        {
          "id": 9,
          "value": 10.0
        },
        {
          "id": 10,
          "value": 0.0
        },
        {
          "id": 11,
          "value": 0.5
        },
        {
          "id": 12,
          "value": 0.5
        },
        {
          "id": 13,
          "value": 0.0
        },
        {
          "id": 14,
          "value": 0.0
        },
        {
          "id": 15,
          "value": 0.0
        },
        {
          "id": 16,
          "value": 0.0
        },
        {
          "id": 17,
          "value": 0.0
        },
        {
          "id": 18,
          "value": 0.0
        },
        {
          "id": 19,
          "value": 0.0
        },
        {
          "id": 20,
          "value": 0.0
        },
        {
          "id": 21,
          "value": 0.0
        },
        {
          "id": 22,
          "value": 0.0
        },
        {
          "id": 23,
          "value": 0.0
        },
        {
          "id": 24,
          "value": 0.0
        },
        {
          "id": 25,
          "value": 0.0
        },
        {
          "id": 26,
          "value": 0.0
        },
        {
          "id": 27,
          "value": 0.0
        },
        {
          "id": 28,
          "value": 0.0
        },
        {
          "id": 29,
          "value": 0.0
        },
        {
          "id": 30,
          "value": 1.0
        }
      ],
      "leftModuleId": 22,
      "rightModuleId": 20,
      "data": {
        "frozen": false,
        "freezeToggle": false,
        "panelStyle": 0,
        "tuned": 0,
        "diffuseInput": 1,
        "preDelayCVSens": 0,
        "inputSensitivity": 0,
        "outputSaturation": 0
      },
      "pos": [
        82,
        0
      ]
    },
    {
      "id": 27,
      "plugin": "ML_modules",
      "version": "1.1.2",
      "model": "Quantum",
      "params": [
        {
          "id": 0,
          "value": 0.0
        },
        {
          "id": 1,
          "value": 0.0
        },
        {
          "id": 2,
          "value": 0.0
        },
        {
          "id": 3,
          "value": 0.0
        },
        {
          "id": 4,
          "value": 0.0
        },
        {
          "id": 5,
          "value": 0.0
        },
        {
          "id": 6,
          "value": 0.0
        },
        {
          "id": 7,
          "value": 0.0
        },
        {
          "id": 8,
          "value": 0.0
        },
        {
          "id": 9,
          "value": 0.0
        },
        {
          "id": 10,
          "value": 0.0
        },
        {
          "id": 11,
          "value": 0.0
        }
      ],
      "leftModuleId": 37,
      "rightModuleId": 28,
      "data": {
        "scale": [
          1,
          0,
          0,
          1,
          0,
          0,
          0,
          1,
          0,
          0,
          0,
          0
        ],
        "mode": 1,
        "transpose_select": 1,
        "toggle_mode": 0
      },
      "pos": [
        20,
        1
      ]
    },
    {
      "id": 28,
      "plugin": "ML_modules",
      "version": "1.1.2",
      "model": "Quantum",
      "params": [
        {
          "id": 0,
          "value": 0.0
        },
        {
          "id": 1,
          "value": 0.0
        },
        {
          "id": 2,
          "value": 0.0
        },
        {
          "id": 3,
          "value": 0.0
        },
        {
          "id": 4,
          "value": 0.0
        },
        {
          "id": 5,
          "value": 0.0
        },
        {
          "id": 6,
          "value": 0.0
        },
        {
          "id": 7,
          "value": 0.0
        },
        {
          "id": 8,
          "value": 0.0
        },
        {
          "id": 9,
          "value": 0.0
        },
        {
          "id": 10,
          "value": 0.0
        },
        {
          "id": 11,
          "value": 0.0
        }
      ],
      "leftModuleId": 27,
      "rightModuleId": 199,
      "data": {
        "scale": [
          1,
          0,
          1,
          1,
          0,
          0,
          0,
          1,
          1,
          0,
          1,
          0
        ],
        "mode": 4,
        "transpose_select": 1,
        "toggle_mode": 0
      },
      "pos": [
        28,
        1
      ]
    },
    {
      "id": 29,
      "plugin": "AS",
      "version": "1.0.4",
      "model": "VCA",
      "params": [
        {
          "id": 0,
          "value": 1.0
        },
        {
          "id": 1,
          "value": 1.0
        },
        {
          "id": 2,
          "value": 0.0
        },
        {
          "id": 3,
          "value": 1.0
        }
      ],
      "leftModuleId": 199,
      "rightModuleId": 200,
      "pos": [
        48,
        1
      ]
    },
    {
      "id": 30,
      "plugin": "Fundamental",
      "version": "1.4.0",
      "model": "ADSR",
      "params": [
        {
          "id": 0,
          "value": 0.0344999991
        },
        {
          "id": 1,
          "value": 0.493999362
        },
        {
          "id": 2,
          "value": 0.0180000011
        },
        {
          "id": 3,
          "value": 0.396500021
        }
      ],
      "leftModuleId": 202,
      "rightModuleId": 201,
      "pos": [
        61,
        1
      ]
    },
    {
      "id": 37,
      "plugin": "StellareModular-CreativeSuite",
      "version": "1.1.1",
      "model": "Nomlia",
      "params": [
        {
          "id": 0,
          "value": 3.0
        },
        {
          "id": 1,
          "value": 0.0
        },
        {
          "id": 2,
          "value": 0.0
        },
        {
          "id": 3,
          "value": 10.0
        },
        {
          "id": 4,
          "value": 8.48099995
        },
        {
          "id": 5,
          "value": 4.61999941
        },
        {
          "id": 6,
          "value": 2.80499983
        },
        {
          "id": 7,
          "value": 1.60049975
        },
        {
          "id": 8,
          "value": 2.50799966
        },
        {
          "id": 9,
          "value": 0.77549988
        },
        {
          "id": 10,
          "value": 6.73199892
        },
        {
          "id": 11,
          "value": 0.0
        },
        {
          "id": 12,
          "value": 0.0
        },
        {
          "id": 13,
          "value": 0.0
        },
        {
          "id": 14,
          "value": 0.0
        },
        {
          "id": 15,
          "value": 0.0
        },
        {
          "id": 16,
          "value": 0.0
        },
        {
          "id": 17,
          "value": 0.0
        },
        {
          "id": 18,
          "value": 0.0
        },
        {
          "id": 19,
          "value": 0.0
        },
        {
          "id": 20,
          "value": 0.0
        },
        {
          "id": 21,
          "value": 0.0
        },
        {
          "id": 22,
          "value": 0.0
        },
        {
          "id": 23,
          "value": 0.0
        },
        {
          "id": 24,
          "value": 0.0
        },
        {
          "id": 25,
          "value": 0.0
        },
        {
          "id": 26,
          "value": 0.0
        }
      ],
      "leftModuleId": 25,
      "rightModuleId": 27,
      "data": {
        "step_actives": [
          true,
          true,
          true,
          true,
          false,
          false,
          false,
          false
        ]
      },
      "pos": [
        10,
        1
      ]
    },
    {
      "id": 133,
      "plugin": "EricaCopies",
      "version": "1.0.4",
      "model": "BlackOctasource",
      "params": [
        {
          "id": 0,
          "value": -0.0800002217
        },
        {
          "id": 1,
          "value": 0.0209999997
        },
        {
          "id": 2,
          "value": 0.0
        },
        {
          "id": 3,
          "value": 0.0
        }
      ],
      "leftModuleId": 24,
      "rightModuleId": 134,
      "data": {
        "unliPolarMode": false
      },
      "pos": [
        24,
        0
      ]
    },
    {
      "id": 134,
      "plugin": "Fundamental",
      "version": "1.4.0",
      "model": "Scope",
      "params": [
        {
          "id": 0,
          "value": 0.0
        },
        {
          "id": 1,
          "value": 0.0
        },
        {
          "id": 2,
          "value": 0.0
        },
        {
          "id": 3,
          "value": 0.0
        },
        {
          "id": 4,
          "value": 6.0
        },
        {
          "id": 5,
          "value": 0.0
        },
        {
          "id": 6,
          "value": 0.0
        },
        {
          "id": 7,
          "value": 0.0
        }
      ],
      "leftModuleId": 133,
      "rightModuleId": 22,
      "data": {
        "lissajous": 0,
        "external": 0
      },
      "pos": [
        36,
        0
      ]
    },
    {
      "id": 199,
      "plugin": "SurgeRack",
      "version": "1.beta1.4",
      "model": "SurgeOSC",
      "params": [
        {
          "id": 0,
          "value": 1.0
        },
        {
          "id": 1,
          "value": 0.0
        },
        {
          "id": 2,
          "value": 60.0
        },
        {
          "id": 3,
          "value": 0.0
        },
        {
          "id": 4,
          "value": 0.5
        },
        {
          "id": 5,
          "value": 0.5
        },
        {
          "id": 6,
          "value": 0.5
        },
        {
          "id": 7,
          "value": 0.0
        },
        {
          "id": 8,
          "value": 0.0
        },
        {
          "id": 9,
          "value": 0.200000003
        },
        {
          "id": 10,
          "value": 0.00499999989
        }
      ],
      "leftModuleId": 28,
      "rightModuleId": 29,
      "data": {
        "comment": "No Comment",
        "buildInfo": "os:linux pluggit: surgegit: buildtime=Nov 16 2019 15:30:46"
      },
      "pos": [
        36,
        1
      ]
    },
    {
      "id": 200,
      "plugin": "StellareModular-CreativeSuite",
      "version": "1.1.1",
      "model": "Delta",
      "params": [
        {
          "id": 0,
          "value": 0.0
        },
        {
          "id": 1,
          "value": 0.0
        }
      ],
      "leftModuleId": 29,
      "rightModuleId": 202,
      "pos": [
        54,
        1
      ]
    },
    {
      "id": 201,
      "plugin": "Fundamental",
      "version": "1.4.0",
      "model": "VCA-1",
      "params": [
        {
          "id": 0,
          "value": 0.20700036
        },
        {
          "id": 1,
          "value": 1.0
        }
      ],
      "leftModuleId": 30,
      "rightModuleId": 207,
      "pos": [
        69,
        1
      ]
    },
    {
      "id": 202,
      "plugin": "Fundamental",
      "version": "1.4.0",
      "model": "VCA-1",
      "params": [
        {
          "id": 0,
          "value": 0.280499905
        },
        {
          "id": 1,
          "value": 1.0
        }
      ],
      "leftModuleId": 200,
      "rightModuleId": 30,
      "pos": [
        58,
        1
      ]
    },
    {
      "id": 203,
      "plugin": "Befaco",
      "version": "1.0.1",
      "model": "EvenVCO",
      "params": [
        {
          "id": 0,
          "value": -2.0
        },
        {
          "id": 1,
          "value": 0.0
        },
        {
          "id": 2,
          "value": 0.0
        }
      ],
      "leftModuleId": 210,
      "rightModuleId": 204,
      "pos": [
        93,
        1
      ]
    },
    {
      "id": 204,
      "plugin": "VultModulesFree",
      "version": "1.10.1",
      "model": "Tangents",
      "params": [
        {
          "id": 0,
          "value": 0.467000306
        },
        {
          "id": 1,
          "value": 0.358500004
        },
        {
          "id": 2,
          "value": 0.306999892
        },
        {
          "id": 3,
          "value": 0.0
        },
        {
          "id": 4,
          "value": 0.600000024
        },
        {
          "id": 5,
          "value": 0.0
        },
        {
          "id": 6,
          "value": 0.0
        }
      ],
      "leftModuleId": 203,
      "rightModuleId": 212,
      "pos": [
        101,
        1
      ]
    },
    {
      "id": 207,
      "plugin": "ML_modules",
      "version": "1.1.2",
      "model": "Quantum",
      "params": [
        {
          "id": 0,
          "value": 0.0
        },
        {
          "id": 1,
          "value": 0.0
        },
        {
          "id": 2,
          "value": 0.0
        },
        {
          "id": 3,
          "value": 0.0
        },
        {
          "id": 4,
          "value": 0.0
        },
        {
          "id": 5,
          "value": 0.0
        },
        {
          "id": 6,
          "value": 0.0
        },
        {
          "id": 7,
          "value": 0.0
        },
        {
          "id": 8,
          "value": 0.0
        },
        {
          "id": 9,
          "value": 0.0
        },
        {
          "id": 10,
          "value": 0.0
        },
        {
          "id": 11,
          "value": 0.0
        }
      ],
      "leftModuleId": 201,
      "rightModuleId": 208,
      "data": {
        "scale": [
          1,
          0,
          0,
          1,
          0,
          0,
          0,
          1,
          0,
          0,
          0,
          0
        ],
        "mode": 1,
        "transpose_select": 1,
        "toggle_mode": 0
      },
      "pos": [
        72,
        1
      ]
    },
    {
      "id": 208,
      "plugin": "ML_modules",
      "version": "1.1.2",
      "model": "Quantum",
      "params": [
        {
          "id": 0,
          "value": 0.0
        },
        {
          "id": 1,
          "value": 0.0
        },
        {
          "id": 2,
          "value": 0.0
        },
        {
          "id": 3,
          "value": 0.0
        },
        {
          "id": 4,
          "value": 0.0
        },
        {
          "id": 5,
          "value": 0.0
        },
        {
          "id": 6,
          "value": 0.0
        },
        {
          "id": 7,
          "value": 0.0
        },
        {
          "id": 8,
          "value": 0.0
        },
        {
          "id": 9,
          "value": 0.0
        },
        {
          "id": 10,
          "value": 0.0
        },
        {
          "id": 11,
          "value": 0.0
        }
      ],
      "leftModuleId": 207,
      "data": {
        "scale": [
          1,
          0,
          1,
          1,
          0,
          1,
          0,
          1,
          1,
          0,
          1,
          0
        ],
        "mode": 4,
        "transpose_select": 1,
        "toggle_mode": 0
      },
      "pos": [
        80,
        1
      ]
    },
    {
      "id": 209,
      "plugin": "Befaco",
      "version": "1.0.1",
      "model": "EvenVCO",
      "params": [
        {
          "id": 0,
          "value": -2.0
        },
        {
          "id": 1,
          "value": 0.0
        },
        {
          "id": 2,
          "value": 0.0
        }
      ],
      "leftModuleId": 212,
      "rightModuleId": 213,
      "pos": [
        114,
        1
      ]
    },
    {
      "id": 210,
      "plugin": "Bogaudio",
      "version": "1.1.31",
      "model": "Bogaudio-Slew",
      "params": [
        {
          "id": 0,
          "value": 0.66723007
        },
        {
          "id": 1,
          "value": 0.0
        },
        {
          "id": 2,
          "value": 0.64923054
        },
        {
          "id": 3,
          "value": 0.0
        }
      ],
      "rightModuleId": 203,
      "pos": [
        90,
        1
      ]
    },
    {
      "id": 212,
      "plugin": "Bogaudio",
      "version": "1.1.31",
      "model": "Bogaudio-Slew",
      "params": [
        {
          "id": 0,
          "value": 0.635730326
        },
        {
          "id": 1,
          "value": -0.981999993
        },
        {
          "id": 2,
          "value": 0.721230507
        },
        {
          "id": 3,
          "value": 1.0
        }
      ],
      "leftModuleId": 204,
      "rightModuleId": 209,
      "pos": [
        111,
        1
      ]
    },
    {
      "id": 213,
      "plugin": "Fundamental",
      "version": "1.4.0",
      "model": "Scope",
      "params": [
        {
          "id": 0,
          "value": 0.0
        },
        {
          "id": 1,
          "value": -3.68999863
        },
        {
          "id": 2,
          "value": 0.0
        },
        {
          "id": 3,
          "value": 0.0
        },
        {
          "id": 4,
          "value": 6.0
        },
        {
          "id": 5,
          "value": 0.0
        },
        {
          "id": 6,
          "value": 0.0
        },
        {
          "id": 7,
          "value": 0.0
        }
      ],
      "leftModuleId": 209,
      "data": {
        "lissajous": 0,
        "external": 0
      },
      "pos": [
        122,
        1
      ]
    },
    {
      "id": 214,
      "plugin": "StellareModular-CreativeSuite",
      "version": "1.1.1",
      "model": "Pelisia",
      "params": [
        {
          "id": 0,
          "value": 1.0
        },
        {
          "id": 1,
          "value": 0.5
        },
        {
          "id": 2,
          "value": 0.5
        },
        {
          "id": 3,
          "value": 0.5
        },
        {
          "id": 4,
          "value": 0.679999948
        },
        {
          "id": 5,
          "value": 1.0
        },
        {
          "id": 6,
          "value": 0.5
        },
        {
          "id": 7,
          "value": 0.5
        },
        {
          "id": 8,
          "value": 1.0
        },
        {
          "id": 9,
          "value": 1.0
        },
        {
          "id": 10,
          "value": 1.0
        },
        {
          "id": 11,
          "value": 0.5
        },
        {
          "id": 12,
          "value": 0.5
        },
        {
          "id": 13,
          "value": 0.791000009
        },
        {
          "id": 14,
          "value": 0.78850013
        },
        {
          "id": 15,
          "value": 0.678999484
        },
        {
          "id": 16,
          "value": 1.0
        },
        {
          "id": 17,
          "value": 1.0
        },
        {
          "id": 18,
          "value": 1.0
        },
        {
          "id": 19,
          "value": 1.0
        }
      ],
      "leftModuleId": 217,
      "rightModuleId": 218,
      "data": {
        "dc_offset": false
      },
      "pos": [
        74,
        2
      ]
    },
    {
      "id": 216,
      "plugin": "SurgeRack",
      "version": "1.beta1.4",
      "model": "SurgeDelay",
      "params": [
        {
          "id": 0,
          "value": 0.692000151
        },
        {
          "id": 1,
          "value": 0.746538639
        },
        {
          "id": 2,
          "value": 0.689538181
        },
        {
          "id": 3,
          "value": 0.0180000011
        },
        {
          "id": 4,
          "value": 0.0
        },
        {
          "id": 5,
          "value": 0.27692309
        },
        {
          "id": 6,
          "value": 0.692307711
        },
        {
          "id": 7,
          "value": 0.3125
        },
        {
          "id": 8,
          "value": 0.0
        },
        {
          "id": 9,
          "value": 1.0
        },
        {
          "id": 10,
          "value": 0.5
        },
        {
          "id": 11,
          "value": 0.0
        },
        {
          "id": 12,
          "value": 1.0
        },
        {
          "id": 13,
          "value": 1.0
        },
        {
          "id": 14,
          "value": 0.0
        },
        {
          "id": 15,
          "value": 0.0
        },
        {
          "id": 16,
          "value": 0.0
        },
        {
          "id": 17,
          "value": 0.0
        },
        {
          "id": 18,
          "value": 0.0
        },
        {
          "id": 19,
          "value": 0.0
        },
        {
          "id": 20,
          "value": 0.0
        },
        {
          "id": 21,
          "value": 0.0
        },
        {
          "id": 22,
          "value": 0.0
        },
        {
          "id": 23,
          "value": 0.0
        },
        {
          "id": 24,
          "value": 0.0
        },
        {
          "id": 25,
          "value": 0.0
        },
        {
          "id": 26,
          "value": 1.0
        }
      ],
      "rightModuleId": 217,
      "data": {
        "comment": "No Comment",
        "buildInfo": "os:linux pluggit: surgegit: buildtime=Nov 16 2019 15:30:46"
      },
      "pos": [
        36,
        2
      ]
    },
    {
      "id": 217,
      "plugin": "SurgeRack",
      "version": "1.beta1.4",
      "model": "SurgeDelay",
      "params": [
        {
          "id": 0,
          "value": 0.312499613
        },
        {
          "id": 1,
          "value": 0.604500115
        },
        {
          "id": 2,
          "value": 0.658038795
        },
        {
          "id": 3,
          "value": 0.0
        },
        {
          "id": 4,
          "value": 0.204000011
        },
        {
          "id": 5,
          "value": 0.27692309
        },
        {
          "id": 6,
          "value": 0.692307711
        },
        {
          "id": 7,
          "value": 0.3125
        },
        {
          "id": 8,
          "value": 0.0
        },
        {
          "id": 9,
          "value": 1.0
        },
        {
          "id": 10,
          "value": 0.5
        },
        {
          "id": 11,
          "value": 0.0
        },
        {
          "id": 12,
          "value": 1.0
        },
        {
          "id": 13,
          "value": 1.0
        },
        {
          "id": 14,
          "value": 0.0
        },
        {
          "id": 15,
          "value": 0.0
        },
        {
          "id": 16,
          "value": 0.0
        },
        {
          "id": 17,
          "value": 0.0
        },
        {
          "id": 18,
          "value": 0.0
        },
        {
          "id": 19,
          "value": 0.0
        },
        {
          "id": 20,
          "value": 0.0
        },
        {
          "id": 21,
          "value": 0.0
        },
        {
          "id": 22,
          "value": 0.0
        },
        {
          "id": 23,
          "value": 0.0
        },
        {
          "id": 24,
          "value": 0.0
        },
        {
          "id": 25,
          "value": 0.0
        },
        {
          "id": 26,
          "value": 1.0
        }
      ],
      "leftModuleId": 216,
      "rightModuleId": 214,
      "data": {
        "comment": "No Comment",
        "buildInfo": "os:linux pluggit: surgegit: buildtime=Nov 16 2019 15:30:46"
      },
      "pos": [
        55,
        2
      ]
    },
    {
      "id": 218,
      "plugin": "VultModulesFree",
      "version": "1.10.1",
      "model": "Debriatus",
      "params": [
        {
          "id": 0,
          "value": 0.447000623
        },
        {
          "id": 1,
          "value": 0.0
        },
        {
          "id": 2,
          "value": 0.0
        },
        {
          "id": 3,
          "value": 0.0
        },
        {
          "id": 4,
          "value": 0.0
        },
        {
          "id": 5,
          "value": 0.0
        },
        {
          "id": 6,
          "value": 0.0
        },
        {
          "id": 7,
          "value": 0.0
        }
      ],
      "leftModuleId": 214,
      "rightModuleId": 219,
      "pos": [
        86,
        2
      ]
    },
    {
      "id": 219,
      "plugin": "AudibleInstruments",
      "version": "1.3.1",
      "model": "Clouds",
      "params": [
        {
          "id": 0,
          "value": 0.0
        },
        {
          "id": 1,
          "value": 0.0
        },
        {
          "id": 2,
          "value": 0.0
        },
        {
          "id": 3,
          "value": 0.5
        },
        {
          "id": 4,
          "value": 1.0
        },
        {
          "id": 5,
          "value": 0.0
        },
        {
          "id": 6,
          "value": 0.683500051
        },
        {
          "id": 7,
          "value": 0.665500224
        },
        {
          "id": 8,
          "value": 1.0
        },
        {
          "id": 9,
          "value": 1.0
        },
        {
          "id": 10,
          "value": 1.0
        },
        {
          "id": 11,
          "value": 0.303000063
        },
        {
          "id": 12,
          "value": 0.679500222
        }
      ],
      "leftModuleId": 218,
      "rightModuleId": 220,
      "data": {
        "playback": 0,
        "quality": 2,
        "blendMode": 3
      },
      "pos": [
        96,
        2
      ]
    },
    {
      "id": 220,
      "plugin": "AS",
      "version": "1.0.4",
      "model": "QuadVCA",
      "params": [
        {
          "id": 0,
          "value": 1.0
        },
        {
          "id": 1,
          "value": 1.0
        },
        {
          "id": 2,
          "value": 1.0
        },
        {
          "id": 3,
          "value": 1.0
        },
        {
          "id": 4,
          "value": 1.0
        },
        {
          "id": 5,
          "value": 1.0
        },
        {
          "id": 6,
          "value": 1.0
        },
        {
          "id": 7,
          "value": 1.0
        }
      ],
      "leftModuleId": 219,
      "rightModuleId": 221,
      "pos": [
        114,
        2
      ]
    },
    {
      "id": 221,
      "plugin": "Bogaudio",
      "version": "1.1.31",
      "model": "Bogaudio-DADSRH",
      "params": [
        {
          "id": 0,
          "value": 0.00150000001
        },
        {
          "id": 1,
          "value": 0.0135000013
        },
        {
          "id": 2,
          "value": 0.271499991
        },
        {
          "id": 3,
          "value": 0.0
        },
        {
          "id": 4,
          "value": 0.303000033
        },
        {
          "id": 5,
          "value": 0.447210014
        },
        {
          "id": 6,
          "value": 1.0
        },
        {
          "id": 7,
          "value": 1.0
        },
        {
          "id": 8,
          "value": 1.0
        },
        {
          "id": 9,
          "value": 0.0
        },
        {
          "id": 10,
          "value": 1.0
        },
        {
          "id": 11,
          "value": 1.0
        },
        {
          "id": 12,
          "value": 1.0
        },
        {
          "id": 13,
          "value": 1.0
        }
      ],
      "leftModuleId": 220,
      "rightModuleId": 222,
      "data": {
        "triggerOnLoad": true,
        "shouldTriggerOnLoad": true
      },
      "pos": [
        122,
        2
      ]
    },
    {
      "id": 222,
      "plugin": "VultModulesFree",
      "version": "1.10.1",
      "model": "Trummor2",
      "params": [
        {
          "id": 0,
          "value": 0.0500000007
        },
        {
          "id": 1,
          "value": 0.5
        },
        {
          "id": 2,
          "value": 0.0
        },
        {
          "id": 3,
          "value": 0.0
        },
        {
          "id": 4,
          "value": 0.0
        },
        {
          "id": 5,
          "value": 0.0
        },
        {
          "id": 6,
          "value": 0.0
        },
        {
          "id": 7,
          "value": 0.200000003
        },
        {
          "id": 8,
          "value": 0.400000006
        },
        {
          "id": 9,
          "value": 0.0
        },
        {
          "id": 10,
          "value": 0.0
        },
        {
          "id": 11,
          "value": 0.699999988
        },
        {
          "id": 12,
          "value": 0.100000001
        },
        {
          "id": 13,
          "value": 0.0
        },
        {
          "id": 14,
          "value": 0.0
        },
        {
          "id": 15,
          "value": 0.949999988
        },
        {
          "id": 16,
          "value": 0.0
        },
        {
          "id": 17,
          "value": 0.0
        },
        {
          "id": 18,
          "value": 0.0
        },
        {
          "id": 19,
          "value": 0.0500000007
        },
        {
          "id": 20,
          "value": 0.0500000007
        },
        {
          "id": 21,
          "value": 0.0
        },
        {
          "id": 22,
          "value": 0.0
        },
        {
          "id": 23,
          "value": 0.100000001
        },
        {
          "id": 24,
          "value": 0.0
        },
        {
          "id": 25,
          "value": 0.0
        },
        {
          "id": 26,
          "value": 0.0
        },
        {
          "id": 27,
          "value": 0.0
        },
        {
          "id": 28,
          "value": 0.0
        },
        {
          "id": 29,
          "value": 0.0
        },
        {
          "id": 30,
          "value": 0.0
        },
        {
          "id": 31,
          "value": 0.0
        },
        {
          "id": 32,
          "value": 0.0
        }
      ],
      "leftModuleId": 221,
      "data": {
        "mod_a": 0,
        "mod_b": 0,
        "mod_c": 0,
        "mod_d": 0,
        "mk2": true
      },
      "pos": [
        132,
        2
      ]
    },
    {
      "id": 223,
      "plugin": "Core",
      "version": "1.1.6",
      "model": "Notes",
      "params": [],
      "text": "we are at 2:05:00\n\n\nafter adding Trummor2",
      "pos": [
        106,
        0
      ]
    }
  ],
  "cables": [
    {
      "id": 68,
      "outputModuleId": 24,
      "outputId": 1,
      "inputModuleId": 25,
      "inputId": 1,
      "color": "#0c8e15"
    },
    {
      "id": 69,
      "outputModuleId": 22,
      "outputId": 8,
      "inputModuleId": 26,
      "inputId": 0,
      "color": "#c91847"
    },
    {
      "id": 70,
      "outputModuleId": 22,
      "outputId": 12,
      "inputModuleId": 26,
      "inputId": 1,
      "color": "#0986ad"
    },
    {
      "id": 71,
      "outputModuleId": 26,
      "outputId": 0,
      "inputModuleId": 22,
      "inputId": 12,
      "color": "#0c8e15"
    },
    {
      "id": 72,
      "outputModuleId": 26,
      "outputId": 1,
      "inputModuleId": 22,
      "inputId": 28,
      "color": "#c91847"
    },
    {
      "id": 73,
      "outputModuleId": 25,
      "outputId": 0,
      "inputModuleId": 27,
      "inputId": 0,
      "color": "#0986ad"
    },
    {
      "id": 74,
      "outputModuleId": 27,
      "outputId": 0,
      "inputModuleId": 28,
      "inputId": 0,
      "color": "#c9b70e"
    },
    {
      "id": 75,
      "outputModuleId": 22,
      "outputId": 0,
      "inputModuleId": 20,
      "inputId": 0,
      "color": "#0c8e15"
    },
    {
      "id": 76,
      "outputModuleId": 22,
      "outputId": 1,
      "inputModuleId": 20,
      "inputId": 1,
      "color": "#c91847"
    },
    {
      "id": 77,
      "outputModuleId": 30,
      "outputId": 0,
      "inputModuleId": 29,
      "inputId": 0,
      "color": "#0c8e15"
    },
    {
      "id": 78,
      "outputModuleId": 30,
      "outputId": 0,
      "inputModuleId": 29,
      "inputId": 2,
      "color": "#0986ad"
    },
    {
      "id": 129,
      "outputModuleId": 133,
      "outputId": 0,
      "inputModuleId": 134,
      "inputId": 0,
      "color": "#0986ad"
    },
    {
      "id": 130,
      "outputModuleId": 133,
      "outputId": 2,
      "inputModuleId": 134,
      "inputId": 1,
      "color": "#c9b70e"
    },
    {
      "id": 136,
      "outputModuleId": 29,
      "outputId": 1,
      "inputModuleId": 22,
      "inputId": 16,
      "color": "#c9b70e"
    },
    {
      "id": 213,
      "outputModuleId": 199,
      "outputId": 0,
      "inputModuleId": 29,
      "inputId": 1,
      "color": "#c9b70e"
    },
    {
      "id": 214,
      "outputModuleId": 199,
      "outputId": 1,
      "inputModuleId": 29,
      "inputId": 3,
      "color": "#0c8e15"
    },
    {
      "id": 212,
      "outputModuleId": 28,
      "outputId": 0,
      "inputModuleId": 199,
      "inputId": 0,
      "color": "#0986ad"
    },
    {
      "id": 215,
      "outputModuleId": 29,
      "outputId": 0,
      "inputModuleId": 22,
      "inputId": 0,
      "color": "#0c8e15"
    },
    {
      "id": 216,
      "outputModuleId": 133,
      "outputId": 1,
      "inputModuleId": 199,
      "inputId": 2,
      "color": "#0c8e15"
    },
    {
      "id": 217,
      "outputModuleId": 133,
      "outputId": 7,
      "inputModuleId": 201,
      "inputId": 1,
      "color": "#c91847"
    },
    {
      "id": 218,
      "outputModuleId": 201,
      "outputId": 0,
      "inputModuleId": 30,
      "inputId": 1,
      "color": "#c9b70e"
    },
    {
      "id": 83,
      "outputModuleId": 24,
      "outputId": 1,
      "inputModuleId": 200,
      "inputId": 0,
      "color": "#0c8e15"
    },
    {
      "id": 219,
      "outputModuleId": 200,
      "outputId": 0,
      "inputModuleId": 30,
      "inputId": 4,
      "color": "#0c8e15"
    },
    {
      "id": 220,
      "outputModuleId": 133,
      "outputId": 4,
      "inputModuleId": 202,
      "inputId": 1,
      "color": "#c91847"
    },
    {
      "id": 221,
      "outputModuleId": 202,
      "outputId": 0,
      "inputModuleId": 200,
      "inputId": 2,
      "color": "#0986ad"
    },
    {
      "id": 222,
      "outputModuleId": 204,
      "outputId": 0,
      "inputModuleId": 22,
      "inputId": 1,
      "color": "#0986ad"
    },
    {
      "id": 223,
      "outputModuleId": 203,
      "outputId": 3,
      "inputModuleId": 204,
      "inputId": 0,
      "color": "#c9b70e"
    },
    {
      "id": 85,
      "outputModuleId": 37,
      "outputId": 0,
      "inputModuleId": 27,
      "inputId": 1,
      "color": "#0986ad"
    },
    {
      "id": 224,
      "outputModuleId": 37,
      "outputId": 0,
      "inputModuleId": 207,
      "inputId": 0,
      "color": "#c91847"
    },
    {
      "id": 225,
      "outputModuleId": 207,
      "outputId": 0,
      "inputModuleId": 208,
      "inputId": 0,
      "color": "#0986ad"
    },
    {
      "id": 84,
      "outputModuleId": 24,
      "outputId": 2,
      "inputModuleId": 37,
      "inputId": 1,
      "color": "#c91847"
    },
    {
      "id": 227,
      "outputModuleId": 37,
      "outputId": 0,
      "inputModuleId": 207,
      "inputId": 1,
      "color": "#0c8e15"
    },
    {
      "id": 228,
      "outputModuleId": 208,
      "outputId": 0,
      "inputModuleId": 209,
      "inputId": 1,
      "color": "#0c8e15"
    },
    {
      "id": 229,
      "outputModuleId": 209,
      "outputId": 1,
      "inputModuleId": 22,
      "inputId": 2,
      "color": "#c91847"
    },
    {
      "id": 226,
      "outputModuleId": 208,
      "outputId": 0,
      "inputModuleId": 210,
      "inputId": 2,
      "color": "#c9b70e"
    },
    {
      "id": 230,
      "outputModuleId": 210,
      "outputId": 0,
      "inputModuleId": 203,
      "inputId": 1,
      "color": "#0986ad"
    },
    {
      "id": 233,
      "outputModuleId": 24,
      "outputId": 2,
      "inputModuleId": 212,
      "inputId": 2,
      "color": "#c91847"
    },
    {
      "id": 234,
      "outputModuleId": 212,
      "outputId": 0,
      "inputModuleId": 204,
      "inputId": 3,
      "color": "#c9b70e"
    },
    {
      "id": 235,
      "outputModuleId": 212,
      "outputId": 0,
      "inputModuleId": 213,
      "inputId": 0,
      "color": "#0c8e15"
    },
    {
      "id": 237,
      "outputModuleId": 199,
      "outputId": 0,
      "inputModuleId": 216,
      "inputId": 0,
      "color": "#c9b70e"
    },
    {
      "id": 239,
      "outputModuleId": 24,
      "outputId": 0,
      "inputModuleId": 216,
      "inputId": 14,
      "color": "#c91847"
    },
    {
      "id": 241,
      "outputModuleId": 214,
      "outputId": 0,
      "inputModuleId": 214,
      "inputId": 0,
      "color": "#0986ad"
    },
    {
      "id": 244,
      "outputModuleId": 214,
      "outputId": 1,
      "inputModuleId": 214,
      "inputId": 2,
      "color": "#c91847"
    },
    {
      "id": 246,
      "outputModuleId": 214,
      "outputId": 2,
      "inputModuleId": 217,
      "inputId": 0,
      "color": "#c9b70e"
    },
    {
      "id": 247,
      "outputModuleId": 217,
      "outputId": 0,
      "inputModuleId": 214,
      "inputId": 3,
      "color": "#0c8e15"
    },
    {
      "id": 243,
      "outputModuleId": 216,
      "outputId": 1,
      "inputModuleId": 214,
      "inputId": 1,
      "color": "#c91847"
    },
    {
      "id": 240,
      "outputModuleId": 218,
      "outputId": 0,
      "inputModuleId": 22,
      "inputId": 3,
      "color": "#0986ad"
    },
    {
      "id": 248,
      "outputModuleId": 214,
      "outputId": 3,
      "inputModuleId": 218,
      "inputId": 0,
      "color": "#0986ad"
    },
    {
      "id": 251,
      "outputModuleId": 220,
      "outputId": 2,
      "inputModuleId": 22,
      "inputId": 20,
      "color": "#c91847"
    },
    {
      "id": 250,
      "outputModuleId": 220,
      "outputId": 1,
      "inputModuleId": 22,
      "inputId": 4,
      "color": "#0c8e15"
    },
    {
      "id": 252,
      "outputModuleId": 219,
      "outputId": 0,
      "inputModuleId": 220,
      "inputId": 3,
      "color": "#0986ad"
    },
    {
      "id": 253,
      "outputModuleId": 219,
      "outputId": 1,
      "inputModuleId": 220,
      "inputId": 5,
      "color": "#c9b70e"
    },
    {
      "id": 249,
      "outputModuleId": 220,
      "outputId": 0,
      "inputModuleId": 219,
      "inputId": 6,
      "color": "#c9b70e"
    },
    {
      "id": 254,
      "outputModuleId": 218,
      "outputId": 1,
      "inputModuleId": 220,
      "inputId": 1,
      "color": "#0c8e15"
    },
    {
      "id": 255,
      "outputModuleId": 24,
      "outputId": 0,
      "inputModuleId": 221,
      "inputId": 0,
      "color": "#c91847"
    },
    {
      "id": 256,
      "outputModuleId": 221,
      "outputId": 1,
      "inputModuleId": 220,
      "inputId": 0,
      "color": "#0986ad"
    },
    {
      "id": 257,
      "outputModuleId": 221,
      "outputId": 1,
      "inputModuleId": 220,
      "inputId": 2,
      "color": "#c9b70e"
    },
    {
      "id": 258,
      "outputModuleId": 221,
      "outputId": 1,
      "inputModuleId": 220,
      "inputId": 4,
      "color": "#0c8e15"
    },
    {
      "id": 259,
      "outputModuleId": 24,
      "outputId": 0,
      "inputModuleId": 222,
      "inputId": 0,
      "color": "#c91847"
    },
    {
      "id": 260,
      "outputModuleId": 222,
      "outputId": 0,
      "inputModuleId": 22,
      "inputId": 5,
      "color": "#0986ad"
    }
  ]
}