{
  "version": "1.1.4",
  "modules": [
    {
      "id": 57,
      "plugin": "squinkylabs-plug1",
      "version": "1.0.3",
      "model": "squinkylabs-mixm",
      "params": [
        {
          "id": 0,
          "value": 0.754000068
        },
        {
          "id": 1,
          "value": 0.0
        },
        {
          "id": 2,
          "value": 0.766500056
        },
        {
          "id": 3,
          "value": 0.243000001
        },
        {
          "id": 4,
          "value": 0.369000077
        },
        {
          "id": 5,
          "value": 0.355500102
        },
        {
          "id": 6,
          "value": 0.0
        },
        {
          "id": 7,
          "value": 0.0
        },
        {
          "id": 8,
          "value": 0.0
        },
        {
          "id": 9,
          "value": 0.0
        },
        {
          "id": 10,
          "value": 0.0
        },
        {
          "id": 11,
          "value": 0.0
        },
        {
          "id": 12,
          "value": 0.0
        },
        {
          "id": 13,
          "value": 0.0
        },
        {
          "id": 14,
          "value": 0.0
        },
        {
          "id": 15,
          "value": 0.0
        },
        {
          "id": 16,
          "value": 0.0
        },
        {
          "id": 17,
          "value": 0.0
        },
        {
          "id": 18,
          "value": 0.0
        },
        {
          "id": 19,
          "value": 0.210000023
        },
        {
          "id": 20,
          "value": 0.667000055
        },
        {
          "id": 21,
          "value": 0.0
        },
        {
          "id": 22,
          "value": 0.0
        },
        {
          "id": 23,
          "value": 0.0
        },
        {
          "id": 24,
          "value": 0.0
        },
        {
          "id": 25,
          "value": 0.0
        },
        {
          "id": 26,
          "value": 0.0
        },
        {
          "id": 27,
          "value": 0.0
        },
        {
          "id": 28,
          "value": 0.0
        },
        {
          "id": 29,
          "value": 0.385499895
        },
        {
          "id": 30,
          "value": 0.201000005
        },
        {
          "id": 31,
          "value": 0.0
        },
        {
          "id": 32,
          "value": 0.0
        },
        {
          "id": 33,
          "value": 0.0
        },
        {
          "id": 34,
          "value": 0.0
        },
        {
          "id": 35,
          "value": 0.0
        },
        {
          "id": 36,
          "value": 0.0
        }
      ],
      "leftModuleId": 74,
      "rightModuleId": 58,
      "pos": [
        43,
        0
      ]
    },
    {
      "id": 58,
      "plugin": "Valley",
      "version": "1.0.1",
      "model": "Plateau",
      "params": [
        {
          "id": 0,
          "value": 0.0
        },
        {
          "id": 1,
          "value": 1.0
        },
        {
          "id": 2,
          "value": 0.0
        },
        {
          "id": 3,
          "value": 8.03500271
        },
        {
          "id": 4,
          "value": 9.95499992
        },
        {
          "id": 5,
          "value": 0.336499989
        },
        {
          "id": 6,
          "value": 6.53500271
        },
        {
          "id": 7,
          "value": 0.637690187
        },
        {
          "id": 8,
          "value": 9.06999969
        },
        {
          "id": 9,
          "value": 8.90499973
        },
        {
          "id": 10,
          "value": 0.0
        },
        {
          "id": 11,
          "value": 0.5
        },
        {
          "id": 12,
          "value": 5.8760004
        },
        {
          "id": 13,
          "value": 0.0
        },
        {
          "id": 14,
          "value": 0.0
        },
        {
          "id": 15,
          "value": 0.0
        },
        {
          "id": 16,
          "value": 0.0
        },
        {
          "id": 17,
          "value": 0.0
        },
        {
          "id": 18,
          "value": 0.0
        },
        {
          "id": 19,
          "value": 0.0
        },
        {
          "id": 20,
          "value": 0.0
        },
        {
          "id": 21,
          "value": 0.0
        },
        {
          "id": 22,
          "value": 0.0
        },
        {
          "id": 23,
          "value": 0.0
        },
        {
          "id": 24,
          "value": 0.0
        },
        {
          "id": 25,
          "value": 0.0
        },
        {
          "id": 26,
          "value": 0.0
        },
        {
          "id": 27,
          "value": 0.0
        },
        {
          "id": 28,
          "value": 0.0
        },
        {
          "id": 29,
          "value": 0.0
        },
        {
          "id": 30,
          "value": 1.0
        }
      ],
      "leftModuleId": 57,
      "rightModuleId": 59,
      "data": {
        "frozen": false,
        "freezeToggle": false,
        "panelStyle": 0,
        "tuned": 0,
        "diffuseInput": 1,
        "preDelayCVSens": 0,
        "inputSensitivity": 0,
        "outputSaturation": 0
      },
      "pos": [
        60,
        0
      ]
    },
    {
      "id": 59,
      "plugin": "Core",
      "version": "1.1.4",
      "model": "AudioInterface",
      "params": [],
      "leftModuleId": 58,
      "rightModuleId": 86,
      "data": {
        "audio": {
          "driver": 4,
          "deviceName": "system",
          "offset": 0,
          "maxChannels": 8,
          "sampleRate": 48000,
          "blockSize": 1024
        }
      },
      "pos": [
        72,
        0
      ]
    },
    {
      "id": 62,
      "plugin": "ImpromptuModular",
      "version": "1.1.1",
      "model": "Clocked",
      "params": [
        {
          "id": 0,
          "value": 162.0
        },
        {
          "id": 1,
          "value": 2.0
        },
        {
          "id": 2,
          "value": -9.0
        },
        {
          "id": 3,
          "value": 5.0
        },
        {
          "id": 4,
          "value": 0.0
        },
        {
          "id": 5,
          "value": 0.0
        },
        {
          "id": 6,
          "value": 0.0
        },
        {
          "id": 7,
          "value": 0.0
        },
        {
          "id": 8,
          "value": 0.5
        },
        {
          "id": 9,
          "value": 0.5
        },
        {
          "id": 10,
          "value": 0.5
        },
        {
          "id": 11,
          "value": 0.5
        },
        {
          "id": 12,
          "value": 0.0
        },
        {
          "id": 13,
          "value": 0.0
        },
        {
          "id": 14,
          "value": 0.0
        },
        {
          "id": 15,
          "value": 0.0
        },
        {
          "id": 16,
          "value": 0.0
        },
        {
          "id": 17,
          "value": 0.0
        },
        {
          "id": 18,
          "value": 0.0
        },
        {
          "id": 19,
          "value": 0.0
        }
      ],
      "data": {
        "panelTheme": 1,
        "running": false,
        "displayDelayNoteMode": true,
        "bpmDetectionMode": false,
        "emitResetOnStopRun": false,
        "ppqn": 4,
        "resetClockOutputsHigh": true
      },
      "pos": [
        0,
        0
      ]
    },
    {
      "id": 74,
      "plugin": "squinkylabs-plug1",
      "version": "1.0.3",
      "model": "squinkylabs-mix4",
      "params": [
        {
          "id": 0,
          "value": 0.325499982
        },
        {
          "id": 1,
          "value": 0.624000013
        },
        {
          "id": 2,
          "value": 0.512999833
        },
        {
          "id": 3,
          "value": 0.48149991
        },
        {
          "id": 4,
          "value": 0.0
        },
        {
          "id": 5,
          "value": 0.0
        },
        {
          "id": 6,
          "value": 0.0
        },
        {
          "id": 7,
          "value": 0.0
        },
        {
          "id": 8,
          "value": 0.0
        },
        {
          "id": 9,
          "value": 0.0
        },
        {
          "id": 10,
          "value": 0.0
        },
        {
          "id": 11,
          "value": 0.0
        },
        {
          "id": 12,
          "value": 0.0
        },
        {
          "id": 13,
          "value": 0.0
        },
        {
          "id": 14,
          "value": 0.0
        },
        {
          "id": 15,
          "value": 0.0
        },
        {
          "id": 16,
          "value": 0.0
        },
        {
          "id": 17,
          "value": 0.197999999
        },
        {
          "id": 18,
          "value": 0.184500009
        },
        {
          "id": 19,
          "value": 0.196499974
        },
        {
          "id": 20,
          "value": 0.196499988
        },
        {
          "id": 21,
          "value": 0.0
        },
        {
          "id": 22,
          "value": 0.0
        },
        {
          "id": 23,
          "value": 0.0
        },
        {
          "id": 24,
          "value": 0.0
        },
        {
          "id": 25,
          "value": 0.0
        },
        {
          "id": 26,
          "value": 0.0
        },
        {
          "id": 27,
          "value": 0.0
        },
        {
          "id": 28,
          "value": 0.0
        },
        {
          "id": 29,
          "value": 0.0
        },
        {
          "id": 30,
          "value": 0.0
        },
        {
          "id": 31,
          "value": 0.0
        }
      ],
      "rightModuleId": 57,
      "pos": [
        33,
        0
      ]
    },
    {
      "id": 86,
      "plugin": "Core",
      "version": "1.1.4",
      "model": "Notes",
      "params": [],
      "leftModuleId": 59,
      "text": "Omri Cohen \nComposing with Sequential Switches, Logic Functions, and Shift Registers\n\nhttps://www.youtube.com/watch?v=UlJYgoFeBAs\n\nPatch 3 using Sequential Switches\n\n(> 32 min < 44 min)\n\nLike the Poops?",
      "pos": [
        82,
        0
      ]
    },
    {
      "id": 155,
      "plugin": "ML_modules",
      "version": "1.0.2",
      "model": "SeqSwitch",
      "params": [
        {
          "id": 0,
          "value": 4.0
        },
        {
          "id": 1,
          "value": 0.0
        },
        {
          "id": 2,
          "value": 0.0
        },
        {
          "id": 3,
          "value": 0.0
        },
        {
          "id": 4,
          "value": 0.0
        },
        {
          "id": 5,
          "value": 0.0
        },
        {
          "id": 6,
          "value": 0.0
        },
        {
          "id": 7,
          "value": 0.0
        },
        {
          "id": 8,
          "value": 0.0
        }
      ],
      "leftModuleId": 160,
      "rightModuleId": 161,
      "data": {
        "inputRange": 3
      },
      "pos": [
        24,
        1
      ]
    },
    {
      "id": 156,
      "plugin": "ML_modules",
      "version": "1.0.2",
      "model": "SeqSwitch2",
      "params": [
        {
          "id": 0,
          "value": 6.0
        },
        {
          "id": 1,
          "value": 0.0
        },
        {
          "id": 2,
          "value": 0.0
        },
        {
          "id": 3,
          "value": 0.0
        },
        {
          "id": 4,
          "value": 0.0
        },
        {
          "id": 5,
          "value": 0.0
        },
        {
          "id": 6,
          "value": 0.0
        },
        {
          "id": 7,
          "value": 0.0
        },
        {
          "id": 8,
          "value": 0.0
        }
      ],
      "leftModuleId": 168,
      "data": {
        "outMode": 0,
        "inputRange": 3
      },
      "pos": [
        45,
        2
      ]
    },
    {
      "id": 157,
      "plugin": "Bogaudio",
      "version": "1.1.22",
      "model": "Bogaudio-AddrSeq",
      "params": [
        {
          "id": 0,
          "value": 8.0
        },
        {
          "id": 1,
          "value": 1.0
        },
        {
          "id": 2,
          "value": 0.0
        },
        {
          "id": 3,
          "value": 0.216000035
        },
        {
          "id": 4,
          "value": 0.327000022
        },
        {
          "id": 5,
          "value": -0.0419999659
        },
        {
          "id": 6,
          "value": 0.117000028
        },
        {
          "id": 7,
          "value": -0.239999995
        },
        {
          "id": 8,
          "value": -0.237000003
        },
        {
          "id": 9,
          "value": 0.0
        },
        {
          "id": 10,
          "value": -0.216000006
        }
      ],
      "leftModuleId": 158,
      "rightModuleId": 159,
      "data": {
        "select_on_clock": false,
        "range_offset": 0.0,
        "range_scale": 10.0
      },
      "pos": [
        6,
        1
      ]
    },
    {
      "id": 158,
      "plugin": "Bogaudio",
      "version": "1.1.22",
      "model": "Bogaudio-AddrSeq",
      "params": [
        {
          "id": 0,
          "value": 8.0
        },
        {
          "id": 1,
          "value": 1.0
        },
        {
          "id": 2,
          "value": 0.0
        },
        {
          "id": 3,
          "value": 0.213000029
        },
        {
          "id": 4,
          "value": -0.18599999
        },
        {
          "id": 5,
          "value": 0.203999966
        },
        {
          "id": 6,
          "value": -0.254999995
        },
        {
          "id": 7,
          "value": 0.249000028
        },
        {
          "id": 8,
          "value": -0.260999978
        },
        {
          "id": 9,
          "value": 0.269999981
        },
        {
          "id": 10,
          "value": 0.24000001
        }
      ],
      "rightModuleId": 157,
      "data": {
        "select_on_clock": false,
        "range_offset": 0.0,
        "range_scale": 10.0
      },
      "pos": [
        0,
        1
      ]
    },
    {
      "id": 159,
      "plugin": "Bogaudio",
      "version": "1.1.22",
      "model": "Bogaudio-AddrSeq",
      "params": [
        {
          "id": 0,
          "value": 5.0
        },
        {
          "id": 1,
          "value": 1.0
        },
        {
          "id": 2,
          "value": 0.0
        },
        {
          "id": 3,
          "value": 0.0
        },
        {
          "id": 4,
          "value": 0.0899999738
        },
        {
          "id": 5,
          "value": -0.104999997
        },
        {
          "id": 6,
          "value": -0.116999976
        },
        {
          "id": 7,
          "value": 0.117000036
        },
        {
          "id": 8,
          "value": 0.180000007
        },
        {
          "id": 9,
          "value": 0.0
        },
        {
          "id": 10,
          "value": 0.0
        }
      ],
      "leftModuleId": 157,
      "rightModuleId": 160,
      "data": {
        "select_on_clock": false,
        "range_offset": 0.0,
        "range_scale": 10.0
      },
      "pos": [
        12,
        1
      ]
    },
    {
      "id": 160,
      "plugin": "Bogaudio",
      "version": "1.1.22",
      "model": "Bogaudio-AddrSeq",
      "params": [
        {
          "id": 0,
          "value": 8.0
        },
        {
          "id": 1,
          "value": 1.0
        },
        {
          "id": 2,
          "value": 0.0
        },
        {
          "id": 3,
          "value": 0.228000015
        },
        {
          "id": 4,
          "value": 0.278999954
        },
        {
          "id": 5,
          "value": 0.246000096
        },
        {
          "id": 6,
          "value": -0.0569999665
        },
        {
          "id": 7,
          "value": -0.017999975
        },
        {
          "id": 8,
          "value": -0.131999984
        },
        {
          "id": 9,
          "value": 0.0780000389
        },
        {
          "id": 10,
          "value": 0.0
        }
      ],
      "leftModuleId": 159,
      "rightModuleId": 155,
      "data": {
        "select_on_clock": false,
        "range_offset": 0.0,
        "range_scale": 10.0
      },
      "pos": [
        18,
        1
      ]
    },
    {
      "id": 161,
      "plugin": "ML_modules",
      "version": "1.0.2",
      "model": "Quantum",
      "params": [
        {
          "id": 0,
          "value": 0.0
        },
        {
          "id": 1,
          "value": 0.0
        },
        {
          "id": 2,
          "value": 0.0
        },
        {
          "id": 3,
          "value": 0.0
        },
        {
          "id": 4,
          "value": 0.0
        },
        {
          "id": 5,
          "value": 0.0
        },
        {
          "id": 6,
          "value": 0.0
        },
        {
          "id": 7,
          "value": 0.0
        },
        {
          "id": 8,
          "value": 0.0
        },
        {
          "id": 9,
          "value": 0.0
        },
        {
          "id": 10,
          "value": 0.0
        },
        {
          "id": 11,
          "value": 0.0
        }
      ],
      "leftModuleId": 155,
      "rightModuleId": 162,
      "data": {
        "scale": [
          1,
          0,
          0,
          0,
          1,
          0,
          0,
          1,
          0,
          1,
          0,
          0
        ],
        "mode": 1,
        "transpose_select": 1,
        "toggle_mode": 0
      },
      "pos": [
        32,
        1
      ]
    },
    {
      "id": 162,
      "plugin": "Valley",
      "version": "1.0.1",
      "model": "Interzone",
      "params": [
        {
          "id": 0,
          "value": 0.0
        },
        {
          "id": 1,
          "value": 1.0
        },
        {
          "id": 2,
          "value": 0.0
        },
        {
          "id": 3,
          "value": 0.0
        },
        {
          "id": 4,
          "value": 1.0
        },
        {
          "id": 5,
          "value": 0.0
        },
        {
          "id": 6,
          "value": 0.235999897
        },
        {
          "id": 7,
          "value": 0.262500048
        },
        {
          "id": 8,
          "value": 1.0
        },
        {
          "id": 9,
          "value": 0.0
        },
        {
          "id": 10,
          "value": 0.0
        },
        {
          "id": 11,
          "value": 0.101999991
        },
        {
          "id": 12,
          "value": 3.0
        },
        {
          "id": 13,
          "value": 1.0
        },
        {
          "id": 14,
          "value": 0.0
        },
        {
          "id": 15,
          "value": 0.60499984
        },
        {
          "id": 16,
          "value": 0.588000059
        },
        {
          "id": 17,
          "value": 0.201000005
        },
        {
          "id": 18,
          "value": 0.0
        },
        {
          "id": 19,
          "value": 0.0
        },
        {
          "id": 20,
          "value": 8.92000008
        },
        {
          "id": 21,
          "value": 0.0
        },
        {
          "id": 22,
          "value": 0.0
        },
        {
          "id": 23,
          "value": 1.0
        },
        {
          "id": 24,
          "value": 0.0
        },
        {
          "id": 25,
          "value": 0.0
        },
        {
          "id": 26,
          "value": 0.0
        },
        {
          "id": 27,
          "value": 1.0
        },
        {
          "id": 28,
          "value": 0.0
        },
        {
          "id": 29,
          "value": 0.0
        },
        {
          "id": 30,
          "value": 0.0
        },
        {
          "id": 31,
          "value": 0.0
        },
        {
          "id": 32,
          "value": 0.0
        },
        {
          "id": 33,
          "value": 0.0
        },
        {
          "id": 34,
          "value": 0.0
        },
        {
          "id": 35,
          "value": 0.512999952
        },
        {
          "id": 36,
          "value": 0.0
        },
        {
          "id": 37,
          "value": 0.0
        },
        {
          "id": 38,
          "value": 0.0
        },
        {
          "id": 39,
          "value": 0.0
        },
        {
          "id": 40,
          "value": 0.0
        },
        {
          "id": 41,
          "value": 0.0
        },
        {
          "id": 42,
          "value": 0.0
        }
      ],
      "leftModuleId": 161,
      "data": {
        "panelStyle": 0
      },
      "pos": [
        40,
        1
      ]
    },
    {
      "id": 163,
      "plugin": "Geodesics",
      "version": "1.0.0",
      "model": "Branes",
      "params": [
        {
          "id": 0,
          "value": 0.0
        },
        {
          "id": 1,
          "value": 0.0
        },
        {
          "id": 2,
          "value": 0.0
        },
        {
          "id": 3,
          "value": 0.0
        }
      ],
      "data": {
        "panelTheme": 1,
        "vibrations0": 0,
        "vibrations1": 0,
        "noiseRange0": 0.0,
        "noiseRange1": 0.0
      },
      "pos": [
        21,
        0
      ]
    },
    {
      "id": 164,
      "plugin": "AnimatedCircuits",
      "version": "1.0.0",
      "model": "ACFolding",
      "params": [
        {
          "id": 0,
          "value": 1.0
        },
        {
          "id": 1,
          "value": 3.22749972
        },
        {
          "id": 2,
          "value": 0.0
        },
        {
          "id": 3,
          "value": 0.0
        },
        {
          "id": 4,
          "value": 0.0
        },
        {
          "id": 5,
          "value": 0.0
        },
        {
          "id": 6,
          "value": 0.0
        }
      ],
      "rightModuleId": 165,
      "pos": [
        0,
        2
      ]
    },
    {
      "id": 165,
      "plugin": "AlrightDevices",
      "version": "1.0.1",
      "model": "Chronoblob2",
      "params": [
        {
          "id": 0,
          "value": 0.415999949
        },
        {
          "id": 1,
          "value": 0.152000025
        },
        {
          "id": 2,
          "value": 0.396499932
        },
        {
          "id": 3,
          "value": 0.0
        },
        {
          "id": 4,
          "value": 0.0
        },
        {
          "id": 5,
          "value": 0.0
        },
        {
          "id": 6,
          "value": 0.0
        },
        {
          "id": 7,
          "value": 0.0
        },
        {
          "id": 8,
          "value": 0.0
        },
        {
          "id": 9,
          "value": 0.0
        }
      ],
      "leftModuleId": 164,
      "rightModuleId": 166,
      "data": {
        "delay_mode": 2,
        "hold_behavior": 0,
        "sync_prescaler": 6
      },
      "pos": [
        5,
        2
      ]
    },
    {
      "id": 166,
      "plugin": "AS",
      "version": "1.0.3",
      "model": "PhaserFx",
      "params": [
        {
          "id": 0,
          "value": 0.655499816
        },
        {
          "id": 1,
          "value": 0.624149978
        },
        {
          "id": 2,
          "value": 0.885999978
        },
        {
          "id": 3,
          "value": 0.0
        }
      ],
      "leftModuleId": 165,
      "rightModuleId": 167,
      "data": {
        "as_FxBypass": [
          false
        ]
      },
      "pos": [
        17,
        2
      ]
    },
    {
      "id": 167,
      "plugin": "VultModulesFree",
      "version": "1.2.0",
      "model": "Debriatus",
      "params": [
        {
          "id": 0,
          "value": 0.0
        },
        {
          "id": 1,
          "value": 0.415499836
        },
        {
          "id": 2,
          "value": 0.0
        },
        {
          "id": 3,
          "value": 0.32100004
        },
        {
          "id": 4,
          "value": 0.0
        },
        {
          "id": 5,
          "value": 0.0
        },
        {
          "id": 6,
          "value": 0.0
        },
        {
          "id": 7,
          "value": 0.0
        }
      ],
      "leftModuleId": 166,
      "rightModuleId": 168,
      "pos": [
        23,
        2
      ]
    },
    {
      "id": 168,
      "plugin": "AlrightDevices",
      "version": "1.0.1",
      "model": "T-Wrex",
      "params": [
        {
          "id": 0,
          "value": 0.309999973
        },
        {
          "id": 1,
          "value": 0.351999909
        },
        {
          "id": 2,
          "value": 1.0
        },
        {
          "id": 3,
          "value": 1.0
        },
        {
          "id": 4,
          "value": 0.0
        },
        {
          "id": 5,
          "value": 0.0
        },
        {
          "id": 6,
          "value": 0.0
        },
        {
          "id": 7,
          "value": 0.0
        }
      ],
      "leftModuleId": 167,
      "rightModuleId": 156,
      "pos": [
        33,
        2
      ]
    },
    {
      "id": 170,
      "plugin": "ML_modules",
      "version": "1.0.2",
      "model": "SeqSwitch",
      "params": [
        {
          "id": 0,
          "value": 3.0
        },
        {
          "id": 1,
          "value": 0.0
        },
        {
          "id": 2,
          "value": 0.0
        },
        {
          "id": 3,
          "value": 0.0
        },
        {
          "id": 4,
          "value": 0.0
        },
        {
          "id": 5,
          "value": 0.0
        },
        {
          "id": 6,
          "value": 0.0
        },
        {
          "id": 7,
          "value": 0.0
        },
        {
          "id": 8,
          "value": 0.0
        }
      ],
      "rightModuleId": 171,
      "data": {
        "inputRange": 3
      },
      "pos": [
        73,
        1
      ]
    },
    {
      "id": 171,
      "plugin": "VultModulesFree",
      "version": "1.2.0",
      "model": "Spank",
      "params": [
        {
          "id": 0,
          "value": 0.0
        },
        {
          "id": 1,
          "value": 0.0
        },
        {
          "id": 2,
          "value": 0.276499957
        },
        {
          "id": 3,
          "value": 0.0
        },
        {
          "id": 4,
          "value": 0.0
        },
        {
          "id": 5,
          "value": 0.564999819
        },
        {
          "id": 6,
          "value": 1.0
        }
      ],
      "leftModuleId": 170,
      "pos": [
        81,
        1
      ]
    },
    {
      "id": 173,
      "plugin": "Autodafe-DrumKit",
      "version": "1.0.0",
      "model": "DrumsKick",
      "params": [
        {
          "id": 0,
          "value": 0.0
        }
      ],
      "rightModuleId": 174,
      "data": {
        "sampletype": 5
      },
      "pos": [
        73,
        2
      ]
    },
    {
      "id": 174,
      "plugin": "Autodafe-DrumKit",
      "version": "1.0.0",
      "model": "DrumsSnare",
      "params": [
        {
          "id": 0,
          "value": 0.0
        }
      ],
      "leftModuleId": 173,
      "data": {
        "sampletype": 4
      },
      "pos": [
        77,
        2
      ]
    }
  ],
  "cables": [
    {
      "id": 190,
      "outputModuleId": 57,
      "outputId": 6,
      "inputModuleId": 58,
      "inputId": 0,
      "color": "#c91847"
    },
    {
      "id": 191,
      "outputModuleId": 57,
      "outputId": 7,
      "inputModuleId": 58,
      "inputId": 1,
      "color": "#0986ad"
    },
    {
      "id": 192,
      "outputModuleId": 58,
      "outputId": 0,
      "inputModuleId": 57,
      "inputId": 16,
      "color": "#c9b70e"
    },
    {
      "id": 193,
      "outputModuleId": 58,
      "outputId": 1,
      "inputModuleId": 57,
      "inputId": 17,
      "color": "#0c8e15"
    },
    {
      "id": 194,
      "outputModuleId": 57,
      "outputId": 0,
      "inputModuleId": 59,
      "inputId": 0,
      "color": "#c91847"
    },
    {
      "id": 195,
      "outputModuleId": 57,
      "outputId": 1,
      "inputModuleId": 59,
      "inputId": 1,
      "color": "#0986ad"
    },
    {
      "id": 373,
      "outputModuleId": 62,
      "outputId": 1,
      "inputModuleId": 158,
      "inputId": 0,
      "color": "#c9b70e"
    },
    {
      "id": 374,
      "outputModuleId": 62,
      "outputId": 1,
      "inputModuleId": 157,
      "inputId": 0,
      "color": "#0c8e15"
    },
    {
      "id": 375,
      "outputModuleId": 62,
      "outputId": 1,
      "inputModuleId": 159,
      "inputId": 0,
      "color": "#c91847"
    },
    {
      "id": 376,
      "outputModuleId": 62,
      "outputId": 1,
      "inputModuleId": 160,
      "inputId": 0,
      "color": "#0986ad"
    },
    {
      "id": 377,
      "outputModuleId": 62,
      "outputId": 4,
      "inputModuleId": 158,
      "inputId": 1,
      "color": "#c9b70e"
    },
    {
      "id": 378,
      "outputModuleId": 62,
      "outputId": 4,
      "inputModuleId": 157,
      "inputId": 1,
      "color": "#0c8e15"
    },
    {
      "id": 379,
      "outputModuleId": 62,
      "outputId": 4,
      "inputModuleId": 159,
      "inputId": 1,
      "color": "#c91847"
    },
    {
      "id": 380,
      "outputModuleId": 62,
      "outputId": 4,
      "inputModuleId": 160,
      "inputId": 1,
      "color": "#0986ad"
    },
    {
      "id": 381,
      "outputModuleId": 158,
      "outputId": 0,
      "inputModuleId": 155,
      "inputId": 0,
      "color": "#c9b70e"
    },
    {
      "id": 382,
      "outputModuleId": 157,
      "outputId": 0,
      "inputModuleId": 155,
      "inputId": 1,
      "color": "#0c8e15"
    },
    {
      "id": 383,
      "outputModuleId": 159,
      "outputId": 0,
      "inputModuleId": 155,
      "inputId": 2,
      "color": "#c91847"
    },
    {
      "id": 385,
      "outputModuleId": 155,
      "outputId": 0,
      "inputModuleId": 161,
      "inputId": 0,
      "color": "#c9b70e"
    },
    {
      "id": 386,
      "outputModuleId": 161,
      "outputId": 0,
      "inputModuleId": 162,
      "inputId": 0,
      "color": "#0c8e15"
    },
    {
      "id": 387,
      "outputModuleId": 161,
      "outputId": 2,
      "inputModuleId": 162,
      "inputId": 3,
      "color": "#c9b70e"
    },
    {
      "id": 384,
      "outputModuleId": 160,
      "outputId": 0,
      "inputModuleId": 155,
      "inputId": 3,
      "color": "#0986ad"
    },
    {
      "id": 390,
      "outputModuleId": 62,
      "outputId": 4,
      "inputModuleId": 155,
      "inputId": 11,
      "color": "#0986ad"
    },
    {
      "id": 393,
      "outputModuleId": 62,
      "outputId": 2,
      "inputModuleId": 163,
      "inputId": 14,
      "color": "#0986ad"
    },
    {
      "id": 395,
      "outputModuleId": 163,
      "outputId": 3,
      "inputModuleId": 155,
      "inputId": 8,
      "color": "#0c8e15"
    },
    {
      "id": 396,
      "outputModuleId": 156,
      "outputId": 0,
      "inputModuleId": 164,
      "inputId": 0,
      "color": "#c91847"
    },
    {
      "id": 388,
      "outputModuleId": 162,
      "outputId": 5,
      "inputModuleId": 156,
      "inputId": 0,
      "color": "#0c8e15"
    },
    {
      "id": 397,
      "outputModuleId": 164,
      "outputId": 0,
      "inputModuleId": 74,
      "inputId": 0,
      "color": "#0986ad"
    },
    {
      "id": 398,
      "outputModuleId": 156,
      "outputId": 1,
      "inputModuleId": 165,
      "inputId": 5,
      "color": "#c9b70e"
    },
    {
      "id": 399,
      "outputModuleId": 165,
      "outputId": 0,
      "inputModuleId": 74,
      "inputId": 1,
      "color": "#0c8e15"
    },
    {
      "id": 400,
      "outputModuleId": 62,
      "outputId": 0,
      "inputModuleId": 165,
      "inputId": 7,
      "color": "#c91847"
    },
    {
      "id": 401,
      "outputModuleId": 156,
      "outputId": 2,
      "inputModuleId": 166,
      "inputId": 0,
      "color": "#0986ad"
    },
    {
      "id": 402,
      "outputModuleId": 166,
      "outputId": 0,
      "inputModuleId": 74,
      "inputId": 2,
      "color": "#c9b70e"
    },
    {
      "id": 403,
      "outputModuleId": 156,
      "outputId": 3,
      "inputModuleId": 167,
      "inputId": 0,
      "color": "#0c8e15"
    },
    {
      "id": 404,
      "outputModuleId": 167,
      "outputId": 0,
      "inputModuleId": 74,
      "inputId": 3,
      "color": "#c91847"
    },
    {
      "id": 405,
      "outputModuleId": 156,
      "outputId": 4,
      "inputModuleId": 168,
      "inputId": 0,
      "color": "#0986ad"
    },
    {
      "id": 406,
      "outputModuleId": 168,
      "outputId": 1,
      "inputModuleId": 57,
      "inputId": 0,
      "color": "#c9b70e"
    },
    {
      "id": 407,
      "outputModuleId": 62,
      "outputId": 1,
      "inputModuleId": 163,
      "inputId": 15,
      "color": "#0c8e15"
    },
    {
      "id": 408,
      "outputModuleId": 163,
      "outputId": 10,
      "inputModuleId": 156,
      "inputId": 5,
      "color": "#c91847"
    },
    {
      "id": 409,
      "outputModuleId": 163,
      "outputId": 8,
      "inputModuleId": 57,
      "inputId": 8,
      "color": "#0986ad"
    },
    {
      "id": 410,
      "outputModuleId": 163,
      "outputId": 7,
      "inputModuleId": 74,
      "inputId": 11,
      "color": "#c9b70e"
    },
    {
      "id": 411,
      "outputModuleId": 163,
      "outputId": 9,
      "inputModuleId": 74,
      "inputId": 10,
      "color": "#0c8e15"
    },
    {
      "id": 412,
      "outputModuleId": 163,
      "outputId": 11,
      "inputModuleId": 74,
      "inputId": 9,
      "color": "#c91847"
    },
    {
      "id": 413,
      "outputModuleId": 163,
      "outputId": 12,
      "inputModuleId": 74,
      "inputId": 8,
      "color": "#0986ad"
    },
    {
      "id": 415,
      "outputModuleId": 62,
      "outputId": 0,
      "inputModuleId": 170,
      "inputId": 0,
      "color": "#0c8e15"
    },
    {
      "id": 416,
      "outputModuleId": 62,
      "outputId": 1,
      "inputModuleId": 170,
      "inputId": 1,
      "color": "#c91847"
    },
    {
      "id": 417,
      "outputModuleId": 62,
      "outputId": 3,
      "inputModuleId": 170,
      "inputId": 2,
      "color": "#0986ad"
    },
    {
      "id": 418,
      "outputModuleId": 62,
      "outputId": 0,
      "inputModuleId": 170,
      "inputId": 9,
      "color": "#c9b70e"
    },
    {
      "id": 419,
      "outputModuleId": 62,
      "outputId": 2,
      "inputModuleId": 170,
      "inputId": 10,
      "color": "#0c8e15"
    },
    {
      "id": 420,
      "outputModuleId": 162,
      "outputId": 12,
      "inputModuleId": 171,
      "inputId": 4,
      "color": "#c91847"
    },
    {
      "id": 421,
      "outputModuleId": 171,
      "outputId": 0,
      "inputModuleId": 57,
      "inputId": 1,
      "color": "#0986ad"
    },
    {
      "id": 422,
      "outputModuleId": 170,
      "outputId": 0,
      "inputModuleId": 171,
      "inputId": 0,
      "color": "#c9b70e"
    },
    {
      "id": 423,
      "outputModuleId": 163,
      "outputId": 13,
      "inputModuleId": 171,
      "inputId": 3,
      "color": "#0c8e15"
    },
    {
      "id": 424,
      "outputModuleId": 62,
      "outputId": 0,
      "inputModuleId": 173,
      "inputId": 0,
      "color": "#c91847"
    },
    {
      "id": 414,
      "outputModuleId": 162,
      "outputId": 5,
      "inputModuleId": 57,
      "inputId": 18,
      "color": "#c9b70e"
    },
    {
      "id": 427,
      "outputModuleId": 162,
      "outputId": 5,
      "inputModuleId": 57,
      "inputId": 19,
      "color": "#c9b70e"
    },
    {
      "id": 429,
      "outputModuleId": 174,
      "outputId": 0,
      "inputModuleId": 57,
      "inputId": 3,
      "color": "#c91847"
    },
    {
      "id": 425,
      "outputModuleId": 156,
      "outputId": 5,
      "inputModuleId": 174,
      "inputId": 0,
      "color": "#0986ad"
    },
    {
      "id": 428,
      "outputModuleId": 173,
      "outputId": 0,
      "inputModuleId": 57,
      "inputId": 2,
      "color": "#0c8e15"
    }
  ]
}