{
  "version": "1.1.6",
  "modules": [
    {
      "id": 9,
      "plugin": "squinkylabs-plug1",
      "version": "1.0.5",
      "model": "squinkylabs-mixm",
      "params": [
        {
          "id": 0,
          "value": 0.75
        },
        {
          "id": 1,
          "value": 0.0
        },
        {
          "id": 2,
          "value": 0.283500016
        },
        {
          "id": 3,
          "value": 0.312000245
        },
        {
          "id": 4,
          "value": 0.390000165
        },
        {
          "id": 5,
          "value": 0.403499991
        },
        {
          "id": 6,
          "value": 0.0
        },
        {
          "id": 7,
          "value": 0.0
        },
        {
          "id": 8,
          "value": 0.0
        },
        {
          "id": 9,
          "value": 0.0
        },
        {
          "id": 10,
          "value": 0.0
        },
        {
          "id": 11,
          "value": 0.0
        },
        {
          "id": 12,
          "value": 0.0
        },
        {
          "id": 13,
          "value": 0.0
        },
        {
          "id": 14,
          "value": 0.0
        },
        {
          "id": 15,
          "value": 0.0
        },
        {
          "id": 16,
          "value": 0.0
        },
        {
          "id": 17,
          "value": 0.0
        },
        {
          "id": 18,
          "value": 0.0
        },
        {
          "id": 19,
          "value": 0.196499988
        },
        {
          "id": 20,
          "value": 0.190499991
        },
        {
          "id": 21,
          "value": 0.336000055
        },
        {
          "id": 22,
          "value": 0.0
        },
        {
          "id": 23,
          "value": 0.0
        },
        {
          "id": 24,
          "value": 0.0
        },
        {
          "id": 25,
          "value": 0.0
        },
        {
          "id": 26,
          "value": 0.0
        },
        {
          "id": 27,
          "value": 0.0
        },
        {
          "id": 28,
          "value": 0.0
        },
        {
          "id": 29,
          "value": 0.486000091
        },
        {
          "id": 30,
          "value": 0.0
        },
        {
          "id": 31,
          "value": 0.0
        },
        {
          "id": 32,
          "value": 0.0
        },
        {
          "id": 33,
          "value": 0.0
        },
        {
          "id": 34,
          "value": 0.0
        },
        {
          "id": 35,
          "value": 0.0
        },
        {
          "id": 36,
          "value": 0.0
        }
      ],
      "leftModuleId": 10,
      "rightModuleId": 12,
      "pos": [
        53,
        0
      ]
    },
    {
      "id": 10,
      "plugin": "squinkylabs-plug1",
      "version": "1.0.5",
      "model": "squinkylabs-mix4",
      "params": [
        {
          "id": 0,
          "value": 0.265499979
        },
        {
          "id": 1,
          "value": 0.248999998
        },
        {
          "id": 2,
          "value": 0.271500081
        },
        {
          "id": 3,
          "value": 0.203999922
        },
        {
          "id": 4,
          "value": 0.0
        },
        {
          "id": 5,
          "value": 0.0
        },
        {
          "id": 6,
          "value": 0.0
        },
        {
          "id": 7,
          "value": 0.0
        },
        {
          "id": 8,
          "value": 0.0
        },
        {
          "id": 9,
          "value": 0.0
        },
        {
          "id": 10,
          "value": 0.0
        },
        {
          "id": 11,
          "value": 0.0
        },
        {
          "id": 12,
          "value": 0.0
        },
        {
          "id": 13,
          "value": 0.0
        },
        {
          "id": 14,
          "value": 0.0
        },
        {
          "id": 15,
          "value": 0.0
        },
        {
          "id": 16,
          "value": 0.0
        },
        {
          "id": 17,
          "value": 0.284999996
        },
        {
          "id": 18,
          "value": 0.271500111
        },
        {
          "id": 19,
          "value": 0.298500001
        },
        {
          "id": 20,
          "value": 0.274500102
        },
        {
          "id": 21,
          "value": 0.0
        },
        {
          "id": 22,
          "value": 0.0
        },
        {
          "id": 23,
          "value": 0.0
        },
        {
          "id": 24,
          "value": 0.0
        },
        {
          "id": 25,
          "value": 0.0
        },
        {
          "id": 26,
          "value": 0.0
        },
        {
          "id": 27,
          "value": 0.0
        },
        {
          "id": 28,
          "value": 0.0
        },
        {
          "id": 29,
          "value": 0.0
        },
        {
          "id": 30,
          "value": 0.0
        },
        {
          "id": 31,
          "value": 0.0
        }
      ],
      "rightModuleId": 9,
      "pos": [
        43,
        0
      ]
    },
    {
      "id": 11,
      "plugin": "Core",
      "version": "1.1.6",
      "model": "AudioInterface",
      "params": [],
      "leftModuleId": 12,
      "data": {
        "audio": {
          "driver": 4,
          "deviceName": "system",
          "offset": 0,
          "maxChannels": 8,
          "sampleRate": 48000,
          "blockSize": 1024
        }
      },
      "pos": [
        82,
        0
      ]
    },
    {
      "id": 12,
      "plugin": "Valley",
      "version": "1.0.1",
      "model": "Plateau",
      "params": [
        {
          "id": 0,
          "value": 1.0
        },
        {
          "id": 1,
          "value": 0.5
        },
        {
          "id": 2,
          "value": 0.0
        },
        {
          "id": 3,
          "value": 9.23499966
        },
        {
          "id": 4,
          "value": 10.0
        },
        {
          "id": 5,
          "value": 0.5
        },
        {
          "id": 6,
          "value": 10.0
        },
        {
          "id": 7,
          "value": 0.549950004
        },
        {
          "id": 8,
          "value": 10.0
        },
        {
          "id": 9,
          "value": 9.29499912
        },
        {
          "id": 10,
          "value": 0.0
        },
        {
          "id": 11,
          "value": 0.5
        },
        {
          "id": 12,
          "value": 0.5
        },
        {
          "id": 13,
          "value": 0.0
        },
        {
          "id": 14,
          "value": 0.0
        },
        {
          "id": 15,
          "value": 0.0
        },
        {
          "id": 16,
          "value": 0.0
        },
        {
          "id": 17,
          "value": 0.0
        },
        {
          "id": 18,
          "value": 0.0
        },
        {
          "id": 19,
          "value": 0.0
        },
        {
          "id": 20,
          "value": 0.0
        },
        {
          "id": 21,
          "value": 0.0
        },
        {
          "id": 22,
          "value": 0.0
        },
        {
          "id": 23,
          "value": 0.0
        },
        {
          "id": 24,
          "value": 0.0
        },
        {
          "id": 25,
          "value": 0.0
        },
        {
          "id": 26,
          "value": 0.0
        },
        {
          "id": 27,
          "value": 0.0
        },
        {
          "id": 28,
          "value": 0.0
        },
        {
          "id": 29,
          "value": 0.0
        },
        {
          "id": 30,
          "value": 1.0
        }
      ],
      "leftModuleId": 9,
      "rightModuleId": 11,
      "data": {
        "frozen": false,
        "freezeToggle": false,
        "panelStyle": 0,
        "tuned": 0,
        "diffuseInput": 1,
        "preDelayCVSens": 0,
        "inputSensitivity": 0,
        "outputSaturation": 0
      },
      "pos": [
        70,
        0
      ]
    },
    {
      "id": 261,
      "plugin": "ImpromptuModular",
      "version": "1.1.2",
      "model": "Clocked",
      "params": [
        {
          "id": 0,
          "value": 67.0
        },
        {
          "id": 1,
          "value": -14.0
        },
        {
          "id": 2,
          "value": -17.0
        },
        {
          "id": 3,
          "value": 13.0
        },
        {
          "id": 4,
          "value": 0.0
        },
        {
          "id": 5,
          "value": 0.0
        },
        {
          "id": 6,
          "value": 0.0
        },
        {
          "id": 7,
          "value": 0.0
        },
        {
          "id": 8,
          "value": 0.5
        },
        {
          "id": 9,
          "value": 0.5
        },
        {
          "id": 10,
          "value": 0.5
        },
        {
          "id": 11,
          "value": 0.5
        },
        {
          "id": 12,
          "value": 0.0
        },
        {
          "id": 13,
          "value": 0.0
        },
        {
          "id": 14,
          "value": 0.0
        },
        {
          "id": 15,
          "value": 0.0
        },
        {
          "id": 16,
          "value": 0.0
        },
        {
          "id": 17,
          "value": 0.0
        },
        {
          "id": 18,
          "value": 0.0
        },
        {
          "id": 19,
          "value": 0.0
        }
      ],
      "rightModuleId": 268,
      "data": {
        "panelTheme": 1,
        "running": true,
        "displayDelayNoteMode": true,
        "bpmDetectionMode": false,
        "restartOnStopStartRun": 0,
        "sendResetOnRestart": false,
        "ppqn": 4,
        "resetClockOutputsHigh": true
      },
      "pos": [
        10,
        0
      ]
    },
    {
      "id": 264,
      "plugin": "stocaudio",
      "version": "1.0.1",
      "model": "Btnseq",
      "params": [
        {
          "id": 0,
          "value": 0.0
        },
        {
          "id": 1,
          "value": 0.0
        },
        {
          "id": 2,
          "value": 0.0
        },
        {
          "id": 3,
          "value": 0.0
        },
        {
          "id": 4,
          "value": 0.0
        },
        {
          "id": 5,
          "value": 0.0
        },
        {
          "id": 6,
          "value": 0.0
        },
        {
          "id": 7,
          "value": 0.0
        },
        {
          "id": 8,
          "value": 8.0
        },
        {
          "id": 9,
          "value": 0.0
        },
        {
          "id": 10,
          "value": 0.0
        },
        {
          "id": 11,
          "value": 1.0
        }
      ],
      "leftModuleId": 295,
      "rightModuleId": 272,
      "data": {
        "celles": [
          0.0,
          0.0,
          0.0,
          0.0,
          0.0,
          0.0,
          0.0,
          0.0,
          1.0,
          1.0,
          1.0,
          1.0,
          1.0,
          1.0,
          1.0,
          1.0,
          1.0,
          1.0,
          1.0,
          1.0,
          1.0,
          1.0,
          1.0,
          1.0,
          1.0,
          1.0,
          1.0,
          1.0,
          1.0,
          1.0,
          1.0,
          1.0,
          1.0,
          1.0,
          1.0,
          1.0,
          1.0,
          1.0,
          1.0,
          1.0,
          0.0,
          0.0,
          0.0,
          0.0,
          0.0,
          0.0,
          0.0,
          0.0,
          0.0,
          0.0,
          0.0,
          0.0,
          0.0,
          0.0,
          0.0,
          0.0,
          1.0,
          1.0,
          1.0,
          1.0,
          1.0,
          1.0,
          1.0,
          1.0,
          4.0,
          0.0,
          0.0,
          0.0,
          2.0,
          0.0,
          0.0,
          0.0,
          5.0,
          0.0,
          0.0,
          0.0,
          4.0,
          0.0,
          0.0,
          0.0,
          0.0,
          0.0,
          0.0,
          0.0,
          0.0,
          0.0,
          0.0,
          0.0,
          0.0,
          0.0,
          0.0,
          0.0,
          0.0,
          0.0,
          0.0,
          0.0,
          4.0,
          0.0,
          0.0,
          0.0,
          2.0,
          0.0,
          0.0,
          0.0,
          5.0,
          0.0,
          0.0,
          0.0,
          4.0,
          0.0,
          0.0,
          0.0,
          0.0,
          0.0,
          0.0,
          0.0,
          0.0,
          0.0,
          0.0,
          0.0,
          0.0,
          0.0,
          0.0,
          0.0,
          0.0,
          0.0,
          0.0,
          0.0
        ]
      },
      "pos": [
        31,
        1
      ]
    },
    {
      "id": 265,
      "plugin": "Bogaudio",
      "version": "1.1.24",
      "model": "Bogaudio-FMOp",
      "params": [
        {
          "id": 0,
          "value": 0.0
        },
        {
          "id": 1,
          "value": 0.0
        },
        {
          "id": 2,
          "value": 0.0870000198
        },
        {
          "id": 3,
          "value": 0.246000007
        },
        {
          "id": 4,
          "value": 0.623999894
        },
        {
          "id": 5,
          "value": 0.203999862
        },
        {
          "id": 6,
          "value": 0.0
        },
        {
          "id": 7,
          "value": 0.268500119
        },
        {
          "id": 8,
          "value": 1.0
        },
        {
          "id": 9,
          "value": 1.0
        },
        {
          "id": 10,
          "value": 0.0
        },
        {
          "id": 11,
          "value": 0.0
        }
      ],
      "leftModuleId": 274,
      "rightModuleId": 276,
      "data": {
        "linearLevel": false
      },
      "pos": [
        88,
        1
      ]
    },
    {
      "id": 268,
      "plugin": "ImpromptuModular",
      "version": "1.1.2",
      "model": "Clocked-Expander",
      "params": [],
      "leftModuleId": 261,
      "pos": [
        30,
        0
      ]
    },
    {
      "id": 269,
      "plugin": "SynthKit",
      "version": "1.0.1",
      "model": "ShiftingClockDividerCV",
      "params": [],
      "rightModuleId": 270,
      "pos": [
        10,
        1
      ]
    },
    {
      "id": 270,
      "plugin": "Fundamental",
      "version": "1.4.0",
      "model": "Merge",
      "params": [],
      "leftModuleId": 269,
      "data": {
        "channels": -1
      },
      "pos": [
        14,
        1
      ]
    },
    {
      "id": 271,
      "plugin": "Bogaudio",
      "version": "1.1.24",
      "model": "Bogaudio-FMOp",
      "params": [
        {
          "id": 0,
          "value": 0.0
        },
        {
          "id": 1,
          "value": 0.0
        },
        {
          "id": 2,
          "value": 0.190500051
        },
        {
          "id": 3,
          "value": 0.658500135
        },
        {
          "id": 4,
          "value": 0.308999926
        },
        {
          "id": 5,
          "value": 0.219000071
        },
        {
          "id": 6,
          "value": 0.0
        },
        {
          "id": 7,
          "value": 0.208500192
        },
        {
          "id": 8,
          "value": 1.0
        },
        {
          "id": 9,
          "value": 1.0
        },
        {
          "id": 10,
          "value": 0.0
        },
        {
          "id": 11,
          "value": 0.0
        }
      ],
      "leftModuleId": 281,
      "rightModuleId": 274,
      "data": {
        "linearLevel": false
      },
      "pos": [
        75,
        1
      ]
    },
    {
      "id": 272,
      "plugin": "Fundamental",
      "version": "1.4.0",
      "model": "Split",
      "params": [],
      "leftModuleId": 264,
      "rightModuleId": 273,
      "pos": [
        37,
        1
      ]
    },
    {
      "id": 273,
      "plugin": "Fundamental",
      "version": "1.4.0",
      "model": "Split",
      "params": [],
      "leftModuleId": 272,
      "pos": [
        42,
        1
      ]
    },
    {
      "id": 274,
      "plugin": "Bogaudio",
      "version": "1.1.24",
      "model": "Bogaudio-Stack",
      "params": [
        {
          "id": 0,
          "value": 7.0
        },
        {
          "id": 1,
          "value": 0.0
        },
        {
          "id": 2,
          "value": 0.0
        },
        {
          "id": 3,
          "value": 1.0
        }
      ],
      "leftModuleId": 271,
      "rightModuleId": 265,
      "pos": [
        85,
        1
      ]
    },
    {
      "id": 275,
      "plugin": "Bogaudio",
      "version": "1.1.24",
      "model": "Bogaudio-FMOp",
      "params": [
        {
          "id": 0,
          "value": 0.0
        },
        {
          "id": 1,
          "value": 0.0
        },
        {
          "id": 2,
          "value": 0.0209999997
        },
        {
          "id": 3,
          "value": 0.682499886
        },
        {
          "id": 4,
          "value": 0.308999926
        },
        {
          "id": 5,
          "value": 0.248999849
        },
        {
          "id": 6,
          "value": 0.0
        },
        {
          "id": 7,
          "value": 0.130500033
        },
        {
          "id": 8,
          "value": 1.0
        },
        {
          "id": 9,
          "value": 1.0
        },
        {
          "id": 10,
          "value": 0.0
        },
        {
          "id": 11,
          "value": 0.0
        }
      ],
      "leftModuleId": 276,
      "data": {
        "linearLevel": false
      },
      "pos": [
        101,
        1
      ]
    },
    {
      "id": 276,
      "plugin": "Bogaudio",
      "version": "1.1.24",
      "model": "Bogaudio-Stack",
      "params": [
        {
          "id": 0,
          "value": 5.0
        },
        {
          "id": 1,
          "value": 0.0
        },
        {
          "id": 2,
          "value": 0.0
        },
        {
          "id": 3,
          "value": 1.0
        }
      ],
      "leftModuleId": 265,
      "rightModuleId": 275,
      "pos": [
        98,
        1
      ]
    },
    {
      "id": 277,
      "plugin": "Bogaudio",
      "version": "1.1.24",
      "model": "Bogaudio-Additator",
      "params": [
        {
          "id": 0,
          "value": 0.0
        },
        {
          "id": 1,
          "value": 40.0
        },
        {
          "id": 2,
          "value": 1.0
        },
        {
          "id": 3,
          "value": 0.972180188
        },
        {
          "id": 4,
          "value": -0.99000001
        },
        {
          "id": 5,
          "value": 3.35400009
        },
        {
          "id": 6,
          "value": 1.88800132
        },
        {
          "id": 7,
          "value": 0.0
        },
        {
          "id": 8,
          "value": 0.821800113
        },
        {
          "id": 9,
          "value": 2.0
        },
        {
          "id": 10,
          "value": 0.0
        }
      ],
      "leftModuleId": 294,
      "rightModuleId": 282,
      "pos": [
        32,
        2
      ]
    },
    {
      "id": 279,
      "plugin": "ML_modules",
      "version": "1.0.3",
      "model": "Constants",
      "params": [],
      "rightModuleId": 280,
      "pos": [
        55,
        1
      ]
    },
    {
      "id": 280,
      "plugin": "ML_modules",
      "version": "1.0.3",
      "model": "SeqSwitch",
      "params": [
        {
          "id": 0,
          "value": 8.0
        },
        {
          "id": 1,
          "value": 0.0
        },
        {
          "id": 2,
          "value": 0.0
        },
        {
          "id": 3,
          "value": 0.0
        },
        {
          "id": 4,
          "value": 0.0
        },
        {
          "id": 5,
          "value": 0.0
        },
        {
          "id": 6,
          "value": 0.0
        },
        {
          "id": 7,
          "value": 0.0
        },
        {
          "id": 8,
          "value": 0.0
        }
      ],
      "leftModuleId": 279,
      "data": {
        "inputRange": 0
      },
      "pos": [
        61,
        1
      ]
    },
    {
      "id": 281,
      "plugin": "Bogaudio",
      "version": "1.1.24",
      "model": "Bogaudio-Slew",
      "params": [
        {
          "id": 0,
          "value": 0.236729905
        },
        {
          "id": 1,
          "value": 0.0
        },
        {
          "id": 2,
          "value": 0.244229913
        },
        {
          "id": 3,
          "value": 0.0
        }
      ],
      "rightModuleId": 271,
      "pos": [
        72,
        1
      ]
    },
    {
      "id": 282,
      "plugin": "Bogaudio",
      "version": "1.1.24",
      "model": "Bogaudio-Slew",
      "params": [
        {
          "id": 0,
          "value": 0.652229726
        },
        {
          "id": 1,
          "value": 0.0
        },
        {
          "id": 2,
          "value": 0.617730081
        },
        {
          "id": 3,
          "value": 0.0
        }
      ],
      "leftModuleId": 277,
      "rightModuleId": 289,
      "pos": [
        47,
        2
      ]
    },
    {
      "id": 285,
      "plugin": "Bogaudio",
      "version": "1.1.24",
      "model": "Bogaudio-ADSR",
      "params": [
        {
          "id": 0,
          "value": 0.0644999966
        },
        {
          "id": 1,
          "value": 0.483000219
        },
        {
          "id": 2,
          "value": 0.0150000006
        },
        {
          "id": 3,
          "value": 0.369000077
        },
        {
          "id": 4,
          "value": 0.0
        }
      ],
      "leftModuleId": 289,
      "rightModuleId": 292,
      "data": {
        "invert": 1.0
      },
      "pos": [
        54,
        2
      ]
    },
    {
      "id": 289,
      "plugin": "AudibleInstruments",
      "version": "1.0.0",
      "model": "Kinks",
      "params": [],
      "leftModuleId": 282,
      "rightModuleId": 285,
      "pos": [
        50,
        2
      ]
    },
    {
      "id": 291,
      "plugin": "VultModulesFree",
      "version": "1.6.0",
      "model": "Debriatus",
      "params": [
        {
          "id": 0,
          "value": 0.0
        },
        {
          "id": 1,
          "value": 0.0
        },
        {
          "id": 2,
          "value": 0.0
        },
        {
          "id": 3,
          "value": 0.000999862794
        },
        {
          "id": 4,
          "value": 0.309000164
        },
        {
          "id": 5,
          "value": 0.149999887
        },
        {
          "id": 6,
          "value": 0.0
        },
        {
          "id": 7,
          "value": 0.620999694
        }
      ],
      "leftModuleId": 292,
      "rightModuleId": 293,
      "pos": [
        69,
        2
      ]
    },
    {
      "id": 292,
      "plugin": "AlrightDevices",
      "version": "1.0.2",
      "model": "Chronoblob2",
      "params": [
        {
          "id": 0,
          "value": 0.5
        },
        {
          "id": 1,
          "value": 0.583999753
        },
        {
          "id": 2,
          "value": 0.721999943
        },
        {
          "id": 3,
          "value": 0.0
        },
        {
          "id": 4,
          "value": 0.213000029
        },
        {
          "id": 5,
          "value": 0.326999992
        },
        {
          "id": 6,
          "value": 0.0
        },
        {
          "id": 7,
          "value": 0.0
        },
        {
          "id": 8,
          "value": 0.0
        },
        {
          "id": 9,
          "value": 0.0
        }
      ],
      "leftModuleId": 285,
      "rightModuleId": 291,
      "data": {
        "delay_mode": 0,
        "hold_behavior": 0,
        "sync_prescaler": 6
      },
      "pos": [
        57,
        2
      ]
    },
    {
      "id": 293,
      "plugin": "EricaCopies",
      "version": "1.0.2",
      "model": "BlackOctasource",
      "params": [
        {
          "id": 0,
          "value": 0.109000139
        },
        {
          "id": 1,
          "value": 0.0
        },
        {
          "id": 2,
          "value": 0.0
        },
        {
          "id": 3,
          "value": 0.0
        }
      ],
      "leftModuleId": 291,
      "data": {
        "unliPolarMode": false
      },
      "pos": [
        79,
        2
      ]
    },
    {
      "id": 294,
      "plugin": "cf",
      "version": "1.1.1",
      "model": "trSEQ",
      "params": [
        {
          "id": 0,
          "value": 2.0
        },
        {
          "id": 1,
          "value": 0.0
        },
        {
          "id": 2,
          "value": 0.0
        },
        {
          "id": 3,
          "value": 0.0
        },
        {
          "id": 4,
          "value": 0.0
        },
        {
          "id": 5,
          "value": 16.0
        },
        {
          "id": 6,
          "value": 0.0
        },
        {
          "id": 7,
          "value": 0.0
        },
        {
          "id": 8,
          "value": 0.0
        },
        {
          "id": 9,
          "value": 0.0
        },
        {
          "id": 10,
          "value": 0.0
        },
        {
          "id": 11,
          "value": 0.0
        },
        {
          "id": 12,
          "value": 0.0
        },
        {
          "id": 13,
          "value": 0.0
        },
        {
          "id": 14,
          "value": 0.0
        },
        {
          "id": 15,
          "value": 0.0
        },
        {
          "id": 16,
          "value": 0.0
        },
        {
          "id": 17,
          "value": 0.0
        },
        {
          "id": 18,
          "value": 0.0
        },
        {
          "id": 19,
          "value": 0.0
        },
        {
          "id": 20,
          "value": 0.0
        },
        {
          "id": 21,
          "value": 0.0
        },
        {
          "id": 22,
          "value": 0.0
        },
        {
          "id": 23,
          "value": 0.0
        },
        {
          "id": 24,
          "value": 0.0
        },
        {
          "id": 25,
          "value": 0.0
        },
        {
          "id": 26,
          "value": 0.0
        },
        {
          "id": 27,
          "value": 0.0
        },
        {
          "id": 28,
          "value": 0.0
        },
        {
          "id": 29,
          "value": 0.0
        },
        {
          "id": 30,
          "value": 0.0
        },
        {
          "id": 31,
          "value": 0.0
        },
        {
          "id": 32,
          "value": 0.0
        },
        {
          "id": 33,
          "value": 0.0
        },
        {
          "id": 34,
          "value": 0.0
        },
        {
          "id": 35,
          "value": 0.0
        },
        {
          "id": 36,
          "value": 0.0
        }
      ],
      "leftModuleId": 301,
      "rightModuleId": 277,
      "data": {
        "running": true,
        "gates": [
          0,
          0,
          1,
          1,
          1,
          0,
          0,
          1,
          1,
          1,
          1,
          1,
          0,
          0,
          0,
          0
        ],
        "gateMode": 0
      },
      "pos": [
        10,
        2
      ]
    },
    {
      "id": 295,
      "plugin": "ML_modules",
      "version": "1.0.3",
      "model": "SeqSwitch",
      "params": [
        {
          "id": 0,
          "value": 8.0
        },
        {
          "id": 1,
          "value": 0.0
        },
        {
          "id": 2,
          "value": 0.0
        },
        {
          "id": 3,
          "value": 0.0
        },
        {
          "id": 4,
          "value": 0.0
        },
        {
          "id": 5,
          "value": 0.0
        },
        {
          "id": 6,
          "value": 0.0
        },
        {
          "id": 7,
          "value": 0.0
        },
        {
          "id": 8,
          "value": 0.0
        }
      ],
      "rightModuleId": 264,
      "data": {
        "inputRange": 3
      },
      "pos": [
        23,
        1
      ]
    },
    {
      "id": 296,
      "plugin": "squinkylabs-plug1",
      "version": "1.0.5",
      "model": "squinkylabs-super",
      "params": [
        {
          "id": 0,
          "value": -1.0
        },
        {
          "id": 1,
          "value": -4.0
        },
        {
          "id": 2,
          "value": 0.0
        },
        {
          "id": 3,
          "value": 0.0
        },
        {
          "id": 4,
          "value": 1.0
        },
        {
          "id": 5,
          "value": 0.0
        },
        {
          "id": 6,
          "value": 1.0
        },
        {
          "id": 7,
          "value": 0.0
        },
        {
          "id": 8,
          "value": 0.0
        },
        {
          "id": 9,
          "value": 0.0
        }
      ],
      "leftModuleId": 300,
      "pos": [
        22,
        3
      ]
    },
    {
      "id": 298,
      "plugin": "VultModulesFree",
      "version": "1.6.0",
      "model": "Debriatus",
      "params": [
        {
          "id": 0,
          "value": 0.0600000694
        },
        {
          "id": 1,
          "value": 0.0720000044
        },
        {
          "id": 2,
          "value": 0.0615001656
        },
        {
          "id": 3,
          "value": 0.0450000539
        },
        {
          "id": 4,
          "value": 0.0
        },
        {
          "id": 5,
          "value": 0.0
        },
        {
          "id": 6,
          "value": 0.0
        },
        {
          "id": 7,
          "value": 0.0
        }
      ],
      "leftModuleId": 302,
      "rightModuleId": 303,
      "pos": [
        36,
        3
      ]
    },
    {
      "id": 300,
      "plugin": "NYSTHI",
      "version": "1.0.8",
      "model": "PolyAttackDecaySustainRelease",
      "params": [
        {
          "id": 0,
          "value": 0.0
        },
        {
          "id": 1,
          "value": 0.100000001
        },
        {
          "id": 2,
          "value": 0.5
        },
        {
          "id": 3,
          "value": 0.5
        },
        {
          "id": 4,
          "value": 0.5
        },
        {
          "id": 5,
          "value": 1.0
        },
        {
          "id": 6,
          "value": 0.0
        },
        {
          "id": 7,
          "value": 0.0
        },
        {
          "id": 8,
          "value": 0.0
        },
        {
          "id": 9,
          "value": 0.0
        },
        {
          "id": 10,
          "value": 0.0
        },
        {
          "id": 11,
          "value": 0.0
        },
        {
          "id": 12,
          "value": 0.0
        },
        {
          "id": 13,
          "value": 0.0
        },
        {
          "id": 14,
          "value": 0.0
        },
        {
          "id": 15,
          "value": 1.0
        },
        {
          "id": 16,
          "value": 1.0
        }
      ],
      "rightModuleId": 296,
      "data": {
        "m_ZEROONTRIG": false,
        "m_TRIGIFSTABLE": false,
        "m_time_range": 10
      },
      "pos": [
        16,
        3
      ]
    },
    {
      "id": 301,
      "plugin": "VultModulesFree",
      "version": "1.6.0",
      "model": "Caudal",
      "params": [
        {
          "id": 0,
          "value": 0.0
        },
        {
          "id": 1,
          "value": 0.0
        },
        {
          "id": 2,
          "value": 0.0
        },
        {
          "id": 3,
          "value": 0.0
        },
        {
          "id": 4,
          "value": 0.0
        },
        {
          "id": 5,
          "value": 0.0
        },
        {
          "id": 6,
          "value": 0.0
        },
        {
          "id": 7,
          "value": 0.0
        },
        {
          "id": 8,
          "value": 0.0
        }
      ],
      "rightModuleId": 294,
      "data": {
        "phi1": -2.44743657,
        "phi2": 1.35862207,
        "phi3": -3.87675738,
        "phi4": 0.763617456,
        "w1": 10.1067781,
        "w2": 5.30898619,
        "w3": -5.73325777,
        "w4": 22.124548,
        "dx1": 0.0,
        "dy1": 0.0,
        "dx2": 0.0,
        "dy2": 0.0,
        "dx3": 0.0,
        "dy3": 0.0,
        "dx4": 0.0,
        "dy4": 0.0,
        "store_phi1": -2.44743657,
        "store_phi2": 1.35862207,
        "store_phi3": -3.87675738,
        "store_phi4": 0.763617456,
        "store_w1": 10.1067781,
        "store_w2": 5.30898619,
        "store_w3": -5.73325777,
        "store_w4": 22.124548,
        "store_dx1": 0.0,
        "store_dy1": 0.0,
        "store_dx2": 0.0,
        "store_dy2": 0.0,
        "store_dx3": 0.0,
        "store_dy3": 0.0,
        "store_dx4": 0.0,
        "store_dy4": 0.0,
        "model": 0
      },
      "pos": [
        0,
        2
      ]
    },
    {
      "id": 302,
      "plugin": "Bogaudio",
      "version": "1.1.24",
      "model": "Bogaudio-Slew",
      "params": [
        {
          "id": 0,
          "value": 1.0
        },
        {
          "id": 1,
          "value": 0.0
        },
        {
          "id": 2,
          "value": 0.933999896
        },
        {
          "id": 3,
          "value": 0.0
        }
      ],
      "rightModuleId": 298,
      "pos": [
        33,
        3
      ]
    },
    {
      "id": 303,
      "plugin": "Bogaudio",
      "version": "1.1.24",
      "model": "Bogaudio-FMOp",
      "params": [
        {
          "id": 0,
          "value": 0.0
        },
        {
          "id": 1,
          "value": 0.0
        },
        {
          "id": 2,
          "value": 0.0569999851
        },
        {
          "id": 3,
          "value": 0.767500103
        },
        {
          "id": 4,
          "value": 0.325499982
        },
        {
          "id": 5,
          "value": 0.204000041
        },
        {
          "id": 6,
          "value": 0.098999761
        },
        {
          "id": 7,
          "value": 0.157500103
        },
        {
          "id": 8,
          "value": 1.0
        },
        {
          "id": 9,
          "value": 1.0
        },
        {
          "id": 10,
          "value": 0.0
        },
        {
          "id": 11,
          "value": 0.0
        }
      ],
      "leftModuleId": 298,
      "data": {
        "linearLevel": false
      },
      "pos": [
        46,
        3
      ]
    },
    {
      "id": 304,
      "plugin": "Autodafe-REDsFREE",
      "version": "1.0.0",
      "model": "KICK",
      "params": [
        {
          "id": 0,
          "value": 0.0
        },
        {
          "id": 1,
          "value": 3545.14038
        },
        {
          "id": 2,
          "value": 2.46599841
        },
        {
          "id": 3,
          "value": 0.0
        },
        {
          "id": 4,
          "value": 1000.0
        },
        {
          "id": 5,
          "value": 0.0
        },
        {
          "id": 6,
          "value": 0.100000001
        },
        {
          "id": 7,
          "value": 1.0
        },
        {
          "id": 8,
          "value": 0.0
        },
        {
          "id": 9,
          "value": 0.0
        },
        {
          "id": 10,
          "value": 1.0
        }
      ],
      "pos": [
        61,
        3
      ]
    }
  ],
  "cables": [
    {
      "id": 10,
      "outputModuleId": 9,
      "outputId": 0,
      "inputModuleId": 11,
      "inputId": 0,
      "color": "#c91847"
    },
    {
      "id": 11,
      "outputModuleId": 9,
      "outputId": 1,
      "inputModuleId": 11,
      "inputId": 1,
      "color": "#0986ad"
    },
    {
      "id": 12,
      "outputModuleId": 9,
      "outputId": 6,
      "inputModuleId": 12,
      "inputId": 0,
      "color": "#c9b70e"
    },
    {
      "id": 13,
      "outputModuleId": 9,
      "outputId": 7,
      "inputModuleId": 12,
      "inputId": 1,
      "color": "#0c8e15"
    },
    {
      "id": 14,
      "outputModuleId": 12,
      "outputId": 0,
      "inputModuleId": 9,
      "inputId": 16,
      "color": "#c91847"
    },
    {
      "id": 15,
      "outputModuleId": 12,
      "outputId": 1,
      "inputModuleId": 9,
      "inputId": 17,
      "color": "#0986ad"
    },
    {
      "id": 109,
      "outputModuleId": 261,
      "outputId": 1,
      "inputModuleId": 269,
      "inputId": 0,
      "color": "#c9b70e"
    },
    {
      "id": 110,
      "outputModuleId": 269,
      "outputId": 0,
      "inputModuleId": 270,
      "inputId": 0,
      "color": "#0c8e15"
    },
    {
      "id": 111,
      "outputModuleId": 269,
      "outputId": 1,
      "inputModuleId": 270,
      "inputId": 1,
      "color": "#c91847"
    },
    {
      "id": 112,
      "outputModuleId": 269,
      "outputId": 2,
      "inputModuleId": 270,
      "inputId": 2,
      "color": "#0986ad"
    },
    {
      "id": 114,
      "outputModuleId": 269,
      "outputId": 3,
      "inputModuleId": 270,
      "inputId": 3,
      "color": "#0c8e15"
    },
    {
      "id": 115,
      "outputModuleId": 269,
      "outputId": 4,
      "inputModuleId": 270,
      "inputId": 4,
      "color": "#c91847"
    },
    {
      "id": 116,
      "outputModuleId": 269,
      "outputId": 5,
      "inputModuleId": 270,
      "inputId": 5,
      "color": "#0986ad"
    },
    {
      "id": 117,
      "outputModuleId": 269,
      "outputId": 6,
      "inputModuleId": 270,
      "inputId": 6,
      "color": "#c9b70e"
    },
    {
      "id": 118,
      "outputModuleId": 269,
      "outputId": 7,
      "inputModuleId": 270,
      "inputId": 7,
      "color": "#0c8e15"
    },
    {
      "id": 119,
      "outputModuleId": 270,
      "outputId": 0,
      "inputModuleId": 264,
      "inputId": 0,
      "color": "#0986ad"
    },
    {
      "id": 106,
      "outputModuleId": 264,
      "outputId": 1,
      "inputModuleId": 272,
      "inputId": 0,
      "color": "#0c8e15"
    },
    {
      "id": 121,
      "outputModuleId": 272,
      "outputId": 0,
      "inputModuleId": 271,
      "inputId": 5,
      "color": "#c91847"
    },
    {
      "id": 123,
      "outputModuleId": 271,
      "outputId": 0,
      "inputModuleId": 10,
      "inputId": 0,
      "color": "#c9b70e"
    },
    {
      "id": 100,
      "outputModuleId": 265,
      "outputId": 0,
      "inputModuleId": 10,
      "inputId": 1,
      "color": "#0986ad"
    },
    {
      "id": 125,
      "outputModuleId": 273,
      "outputId": 1,
      "inputModuleId": 265,
      "inputId": 6,
      "color": "#c91847"
    },
    {
      "id": 124,
      "outputModuleId": 272,
      "outputId": 1,
      "inputModuleId": 265,
      "inputId": 5,
      "color": "#0c8e15"
    },
    {
      "id": 122,
      "outputModuleId": 273,
      "outputId": 0,
      "inputModuleId": 271,
      "inputId": 6,
      "color": "#0986ad"
    },
    {
      "id": 126,
      "outputModuleId": 274,
      "outputId": 1,
      "inputModuleId": 265,
      "inputId": 4,
      "color": "#0986ad"
    },
    {
      "id": 127,
      "outputModuleId": 276,
      "outputId": 1,
      "inputModuleId": 275,
      "inputId": 4,
      "color": "#c9b70e"
    },
    {
      "id": 128,
      "outputModuleId": 272,
      "outputId": 2,
      "inputModuleId": 275,
      "inputId": 5,
      "color": "#0c8e15"
    },
    {
      "id": 129,
      "outputModuleId": 273,
      "outputId": 2,
      "inputModuleId": 275,
      "inputId": 6,
      "color": "#c91847"
    },
    {
      "id": 130,
      "outputModuleId": 275,
      "outputId": 0,
      "inputModuleId": 10,
      "inputId": 2,
      "color": "#0986ad"
    },
    {
      "id": 120,
      "outputModuleId": 261,
      "outputId": 3,
      "inputModuleId": 269,
      "inputId": 1,
      "color": "#c9b70e"
    },
    {
      "id": 132,
      "outputModuleId": 280,
      "outputId": 0,
      "inputModuleId": 274,
      "inputId": 1,
      "color": "#0986ad"
    },
    {
      "id": 133,
      "outputModuleId": 280,
      "outputId": 0,
      "inputModuleId": 276,
      "inputId": 1,
      "color": "#c9b70e"
    },
    {
      "id": 134,
      "outputModuleId": 279,
      "outputId": 10,
      "inputModuleId": 280,
      "inputId": 1,
      "color": "#c91847"
    },
    {
      "id": 136,
      "outputModuleId": 279,
      "outputId": 12,
      "inputModuleId": 280,
      "inputId": 3,
      "color": "#c9b70e"
    },
    {
      "id": 137,
      "outputModuleId": 279,
      "outputId": 8,
      "inputModuleId": 280,
      "inputId": 4,
      "color": "#0c8e15"
    },
    {
      "id": 138,
      "outputModuleId": 279,
      "outputId": 11,
      "inputModuleId": 280,
      "inputId": 5,
      "color": "#c9b70e"
    },
    {
      "id": 139,
      "outputModuleId": 279,
      "outputId": 13,
      "inputModuleId": 280,
      "inputId": 6,
      "color": "#c91847"
    },
    {
      "id": 141,
      "outputModuleId": 261,
      "outputId": 2,
      "inputModuleId": 280,
      "inputId": 9,
      "color": "#c9b70e"
    },
    {
      "id": 140,
      "outputModuleId": 279,
      "outputId": 4,
      "inputModuleId": 280,
      "inputId": 7,
      "color": "#0986ad"
    },
    {
      "id": 142,
      "outputModuleId": 261,
      "outputId": 4,
      "inputModuleId": 280,
      "inputId": 11,
      "color": "#0c8e15"
    },
    {
      "id": 143,
      "outputModuleId": 261,
      "outputId": 4,
      "inputModuleId": 264,
      "inputId": 1,
      "color": "#c91847"
    },
    {
      "id": 144,
      "outputModuleId": 261,
      "outputId": 4,
      "inputModuleId": 269,
      "inputId": 2,
      "color": "#0986ad"
    },
    {
      "id": 131,
      "outputModuleId": 280,
      "outputId": 0,
      "inputModuleId": 281,
      "inputId": 2,
      "color": "#c91847"
    },
    {
      "id": 145,
      "outputModuleId": 281,
      "outputId": 0,
      "inputModuleId": 271,
      "inputId": 4,
      "color": "#c9b70e"
    },
    {
      "id": 148,
      "outputModuleId": 277,
      "outputId": 0,
      "inputModuleId": 281,
      "inputId": 0,
      "color": "#0c8e15"
    },
    {
      "id": 146,
      "outputModuleId": 280,
      "outputId": 0,
      "inputModuleId": 282,
      "inputId": 2,
      "color": "#c91847"
    },
    {
      "id": 149,
      "outputModuleId": 282,
      "outputId": 0,
      "inputModuleId": 277,
      "inputId": 0,
      "color": "#c91847"
    },
    {
      "id": 151,
      "outputModuleId": 264,
      "outputId": 0,
      "inputModuleId": 277,
      "inputId": 4,
      "color": "#c9b70e"
    },
    {
      "id": 152,
      "outputModuleId": 264,
      "outputId": 1,
      "inputModuleId": 277,
      "inputId": 5,
      "color": "#0c8e15"
    },
    {
      "id": 176,
      "outputModuleId": 261,
      "outputId": 1,
      "inputModuleId": 285,
      "inputId": 0,
      "color": "#c91847"
    },
    {
      "id": 147,
      "outputModuleId": 277,
      "outputId": 0,
      "inputModuleId": 292,
      "inputId": 5,
      "color": "#c9b70e"
    },
    {
      "id": 180,
      "outputModuleId": 292,
      "outputId": 0,
      "inputModuleId": 291,
      "inputId": 0,
      "color": "#c91847"
    },
    {
      "id": 181,
      "outputModuleId": 292,
      "outputId": 1,
      "inputModuleId": 10,
      "inputId": 3,
      "color": "#0986ad"
    },
    {
      "id": 182,
      "outputModuleId": 291,
      "outputId": 0,
      "inputModuleId": 292,
      "inputId": 6,
      "color": "#c9b70e"
    },
    {
      "id": 183,
      "outputModuleId": 275,
      "outputId": 0,
      "inputModuleId": 291,
      "inputId": 5,
      "color": "#0c8e15"
    },
    {
      "id": 184,
      "outputModuleId": 293,
      "outputId": 0,
      "inputModuleId": 291,
      "inputId": 4,
      "color": "#c91847"
    },
    {
      "id": 186,
      "outputModuleId": 293,
      "outputId": 2,
      "inputModuleId": 291,
      "inputId": 2,
      "color": "#c9b70e"
    },
    {
      "id": 187,
      "outputModuleId": 293,
      "outputId": 3,
      "inputModuleId": 291,
      "inputId": 1,
      "color": "#0c8e15"
    },
    {
      "id": 188,
      "outputModuleId": 280,
      "outputId": 0,
      "inputModuleId": 292,
      "inputId": 1,
      "color": "#c91847"
    },
    {
      "id": 189,
      "outputModuleId": 264,
      "outputId": 0,
      "inputModuleId": 292,
      "inputId": 3,
      "color": "#0986ad"
    },
    {
      "id": 190,
      "outputModuleId": 261,
      "outputId": 2,
      "inputModuleId": 292,
      "inputId": 7,
      "color": "#c9b70e"
    },
    {
      "id": 191,
      "outputModuleId": 261,
      "outputId": 3,
      "inputModuleId": 294,
      "inputId": 0,
      "color": "#0c8e15"
    },
    {
      "id": 195,
      "outputModuleId": 272,
      "outputId": 0,
      "inputModuleId": 295,
      "inputId": 9,
      "color": "#0c8e15"
    },
    {
      "id": 198,
      "outputModuleId": 279,
      "outputId": 12,
      "inputModuleId": 295,
      "inputId": 2,
      "color": "#c9b70e"
    },
    {
      "id": 203,
      "outputModuleId": 296,
      "outputId": 1,
      "inputModuleId": 298,
      "inputId": 0,
      "color": "#0986ad"
    },
    {
      "id": 204,
      "outputModuleId": 296,
      "outputId": 0,
      "inputModuleId": 298,
      "inputId": 5,
      "color": "#c9b70e"
    },
    {
      "id": 205,
      "outputModuleId": 300,
      "outputId": 2,
      "inputModuleId": 9,
      "inputId": 0,
      "color": "#0c8e15"
    },
    {
      "id": 206,
      "outputModuleId": 300,
      "outputId": 3,
      "inputModuleId": 9,
      "inputId": 1,
      "color": "#c91847"
    },
    {
      "id": 208,
      "outputModuleId": 298,
      "outputId": 0,
      "inputModuleId": 300,
      "inputId": 9,
      "color": "#c9b70e"
    },
    {
      "id": 209,
      "outputModuleId": 298,
      "outputId": 1,
      "inputModuleId": 300,
      "inputId": 10,
      "color": "#0c8e15"
    },
    {
      "id": 210,
      "outputModuleId": 294,
      "outputId": 0,
      "inputModuleId": 300,
      "inputId": 6,
      "color": "#c91847"
    },
    {
      "id": 221,
      "outputModuleId": 301,
      "outputId": 0,
      "inputModuleId": 294,
      "inputId": 6,
      "color": "#0c8e15"
    },
    {
      "id": 222,
      "outputModuleId": 301,
      "outputId": 3,
      "inputModuleId": 294,
      "inputId": 8,
      "color": "#c91847"
    },
    {
      "id": 223,
      "outputModuleId": 301,
      "outputId": 6,
      "inputModuleId": 294,
      "inputId": 10,
      "color": "#0986ad"
    },
    {
      "id": 224,
      "outputModuleId": 301,
      "outputId": 9,
      "inputModuleId": 294,
      "inputId": 12,
      "color": "#c9b70e"
    },
    {
      "id": 225,
      "outputModuleId": 301,
      "outputId": 1,
      "inputModuleId": 294,
      "inputId": 14,
      "color": "#0c8e15"
    },
    {
      "id": 226,
      "outputModuleId": 301,
      "outputId": 4,
      "inputModuleId": 294,
      "inputId": 16,
      "color": "#c91847"
    },
    {
      "id": 227,
      "outputModuleId": 301,
      "outputId": 7,
      "inputModuleId": 294,
      "inputId": 18,
      "color": "#0986ad"
    },
    {
      "id": 228,
      "outputModuleId": 301,
      "outputId": 10,
      "inputModuleId": 294,
      "inputId": 20,
      "color": "#c9b70e"
    },
    {
      "id": 229,
      "outputModuleId": 301,
      "outputId": 2,
      "inputModuleId": 294,
      "inputId": 7,
      "color": "#0c8e15"
    },
    {
      "id": 230,
      "outputModuleId": 301,
      "outputId": 5,
      "inputModuleId": 294,
      "inputId": 9,
      "color": "#c91847"
    },
    {
      "id": 231,
      "outputModuleId": 301,
      "outputId": 8,
      "inputModuleId": 294,
      "inputId": 11,
      "color": "#0986ad"
    },
    {
      "id": 232,
      "outputModuleId": 301,
      "outputId": 11,
      "inputModuleId": 294,
      "inputId": 13,
      "color": "#c9b70e"
    },
    {
      "id": 233,
      "outputModuleId": 301,
      "outputId": 2,
      "inputModuleId": 294,
      "inputId": 15,
      "color": "#0c8e15"
    },
    {
      "id": 234,
      "outputModuleId": 301,
      "outputId": 5,
      "inputModuleId": 294,
      "inputId": 17,
      "color": "#c91847"
    },
    {
      "id": 235,
      "outputModuleId": 301,
      "outputId": 8,
      "inputModuleId": 294,
      "inputId": 19,
      "color": "#0986ad"
    },
    {
      "id": 236,
      "outputModuleId": 301,
      "outputId": 11,
      "inputModuleId": 294,
      "inputId": 21,
      "color": "#c9b70e"
    },
    {
      "id": 238,
      "outputModuleId": 279,
      "outputId": 7,
      "inputModuleId": 295,
      "inputId": 4,
      "color": "#c91847"
    },
    {
      "id": 239,
      "outputModuleId": 279,
      "outputId": 9,
      "inputModuleId": 295,
      "inputId": 1,
      "color": "#c9b70e"
    },
    {
      "id": 237,
      "outputModuleId": 279,
      "outputId": 1,
      "inputModuleId": 295,
      "inputId": 6,
      "color": "#0c8e15"
    },
    {
      "id": 242,
      "outputModuleId": 279,
      "outputId": 7,
      "inputModuleId": 295,
      "inputId": 7,
      "color": "#0986ad"
    },
    {
      "id": 240,
      "outputModuleId": 279,
      "outputId": 13,
      "inputModuleId": 295,
      "inputId": 0,
      "color": "#0c8e15"
    },
    {
      "id": 201,
      "outputModuleId": 295,
      "outputId": 0,
      "inputModuleId": 302,
      "inputId": 2,
      "color": "#0986ad"
    },
    {
      "id": 243,
      "outputModuleId": 302,
      "outputId": 0,
      "inputModuleId": 296,
      "inputId": 0,
      "color": "#c9b70e"
    },
    {
      "id": 244,
      "outputModuleId": 301,
      "outputId": 0,
      "inputModuleId": 302,
      "inputId": 0,
      "color": "#0c8e15"
    },
    {
      "id": 245,
      "outputModuleId": 301,
      "outputId": 1,
      "inputModuleId": 302,
      "inputId": 1,
      "color": "#c91847"
    },
    {
      "id": 246,
      "outputModuleId": 301,
      "outputId": 2,
      "inputModuleId": 296,
      "inputId": 2,
      "color": "#0986ad"
    },
    {
      "id": 247,
      "outputModuleId": 301,
      "outputId": 5,
      "inputModuleId": 296,
      "inputId": 3,
      "color": "#c9b70e"
    },
    {
      "id": 248,
      "outputModuleId": 294,
      "outputId": 0,
      "inputModuleId": 303,
      "inputId": 5,
      "color": "#0c8e15"
    },
    {
      "id": 249,
      "outputModuleId": 303,
      "outputId": 0,
      "inputModuleId": 9,
      "inputId": 2,
      "color": "#c91847"
    },
    {
      "id": 250,
      "outputModuleId": 280,
      "outputId": 0,
      "inputModuleId": 303,
      "inputId": 4,
      "color": "#0986ad"
    },
    {
      "id": 252,
      "outputModuleId": 293,
      "outputId": 4,
      "inputModuleId": 303,
      "inputId": 1,
      "color": "#0c8e15"
    },
    {
      "id": 253,
      "outputModuleId": 293,
      "outputId": 7,
      "inputModuleId": 303,
      "inputId": 2,
      "color": "#c91847"
    },
    {
      "id": 254,
      "outputModuleId": 261,
      "outputId": 0,
      "inputModuleId": 304,
      "inputId": 1,
      "color": "#0986ad"
    },
    {
      "id": 255,
      "outputModuleId": 304,
      "outputId": 0,
      "inputModuleId": 9,
      "inputId": 3,
      "color": "#c9b70e"
    }
  ]
}