{
  "version": "1.1.5",
  "modules": [
    {
      "id": 9,
      "plugin": "squinkylabs-plug1",
      "version": "1.0.4",
      "model": "squinkylabs-mixm",
      "params": [
        {
          "id": 0,
          "value": 0.367499888
        },
        {
          "id": 1,
          "value": 0.0
        },
        {
          "id": 2,
          "value": 0.628499985
        },
        {
          "id": 3,
          "value": 0.37950018
        },
        {
          "id": 4,
          "value": 0.440999985
        },
        {
          "id": 5,
          "value": 0.420000017
        },
        {
          "id": 6,
          "value": 0.0
        },
        {
          "id": 7,
          "value": 0.0
        },
        {
          "id": 8,
          "value": 0.0
        },
        {
          "id": 9,
          "value": 0.0
        },
        {
          "id": 10,
          "value": 0.0
        },
        {
          "id": 11,
          "value": 0.0
        },
        {
          "id": 12,
          "value": 0.0
        },
        {
          "id": 13,
          "value": 0.0
        },
        {
          "id": 14,
          "value": 0.0
        },
        {
          "id": 15,
          "value": 0.0
        },
        {
          "id": 16,
          "value": 0.0
        },
        {
          "id": 17,
          "value": 0.0
        },
        {
          "id": 18,
          "value": 0.0
        },
        {
          "id": 19,
          "value": 0.660000086
        },
        {
          "id": 20,
          "value": 0.406500071
        },
        {
          "id": 21,
          "value": 0.329999983
        },
        {
          "id": 22,
          "value": 0.0
        },
        {
          "id": 23,
          "value": 0.0
        },
        {
          "id": 24,
          "value": 0.0
        },
        {
          "id": 25,
          "value": 0.0
        },
        {
          "id": 26,
          "value": 0.0
        },
        {
          "id": 27,
          "value": 0.0
        },
        {
          "id": 28,
          "value": 0.0
        },
        {
          "id": 29,
          "value": 0.486000091
        },
        {
          "id": 30,
          "value": 0.0
        },
        {
          "id": 31,
          "value": 0.0
        },
        {
          "id": 32,
          "value": 0.0
        },
        {
          "id": 33,
          "value": 0.0
        },
        {
          "id": 34,
          "value": 0.0
        },
        {
          "id": 35,
          "value": 0.0
        },
        {
          "id": 36,
          "value": 1.0
        }
      ],
      "leftModuleId": 10,
      "rightModuleId": 12,
      "pos": [
        77,
        0
      ]
    },
    {
      "id": 10,
      "plugin": "squinkylabs-plug1",
      "version": "1.0.4",
      "model": "squinkylabs-mix4",
      "params": [
        {
          "id": 0,
          "value": 0.628499925
        },
        {
          "id": 1,
          "value": 0.602999985
        },
        {
          "id": 2,
          "value": 0.614999831
        },
        {
          "id": 3,
          "value": 0.579000056
        },
        {
          "id": 4,
          "value": 0.0
        },
        {
          "id": 5,
          "value": 0.0
        },
        {
          "id": 6,
          "value": 0.0
        },
        {
          "id": 7,
          "value": 0.0
        },
        {
          "id": 8,
          "value": 0.0
        },
        {
          "id": 9,
          "value": 0.0
        },
        {
          "id": 10,
          "value": 0.0
        },
        {
          "id": 11,
          "value": 0.0
        },
        {
          "id": 12,
          "value": 0.0
        },
        {
          "id": 13,
          "value": 0.0
        },
        {
          "id": 14,
          "value": 0.0
        },
        {
          "id": 15,
          "value": 0.0
        },
        {
          "id": 16,
          "value": 0.0
        },
        {
          "id": 17,
          "value": 0.447000146
        },
        {
          "id": 18,
          "value": 0.437999994
        },
        {
          "id": 19,
          "value": 0.430499941
        },
        {
          "id": 20,
          "value": 0.407999963
        },
        {
          "id": 21,
          "value": 0.0
        },
        {
          "id": 22,
          "value": 0.0
        },
        {
          "id": 23,
          "value": 0.0
        },
        {
          "id": 24,
          "value": 0.0
        },
        {
          "id": 25,
          "value": 0.0
        },
        {
          "id": 26,
          "value": 0.0
        },
        {
          "id": 27,
          "value": 0.0
        },
        {
          "id": 28,
          "value": 0.0
        },
        {
          "id": 29,
          "value": 0.0
        },
        {
          "id": 30,
          "value": 0.0
        },
        {
          "id": 31,
          "value": 0.0
        }
      ],
      "rightModuleId": 9,
      "pos": [
        67,
        0
      ]
    },
    {
      "id": 11,
      "plugin": "Core",
      "version": "1.1.5",
      "model": "AudioInterface",
      "params": [],
      "leftModuleId": 12,
      "data": {
        "audio": {
          "driver": 4,
          "deviceName": "system",
          "offset": 0,
          "maxChannels": 8,
          "sampleRate": 48000,
          "blockSize": 1024
        }
      },
      "pos": [
        106,
        0
      ]
    },
    {
      "id": 12,
      "plugin": "Valley",
      "version": "1.0.1",
      "model": "Plateau",
      "params": [
        {
          "id": 0,
          "value": 0.0
        },
        {
          "id": 1,
          "value": 1.0
        },
        {
          "id": 2,
          "value": 0.0
        },
        {
          "id": 3,
          "value": 8.21500015
        },
        {
          "id": 4,
          "value": 8.69500065
        },
        {
          "id": 5,
          "value": 0.0
        },
        {
          "id": 6,
          "value": 5.87500191
        },
        {
          "id": 7,
          "value": 0.448711395
        },
        {
          "id": 8,
          "value": 8.61999989
        },
        {
          "id": 9,
          "value": 9.10000038
        },
        {
          "id": 10,
          "value": 0.357000172
        },
        {
          "id": 11,
          "value": 0.5
        },
        {
          "id": 12,
          "value": 8.22800159
        },
        {
          "id": 13,
          "value": 0.0
        },
        {
          "id": 14,
          "value": 0.0
        },
        {
          "id": 15,
          "value": 0.0
        },
        {
          "id": 16,
          "value": 0.0
        },
        {
          "id": 17,
          "value": 0.0
        },
        {
          "id": 18,
          "value": 0.0
        },
        {
          "id": 19,
          "value": 0.0
        },
        {
          "id": 20,
          "value": 0.0
        },
        {
          "id": 21,
          "value": 0.0
        },
        {
          "id": 22,
          "value": 0.0
        },
        {
          "id": 23,
          "value": 0.0
        },
        {
          "id": 24,
          "value": 0.0
        },
        {
          "id": 25,
          "value": 0.0
        },
        {
          "id": 26,
          "value": 0.0
        },
        {
          "id": 27,
          "value": 0.0
        },
        {
          "id": 28,
          "value": 0.0
        },
        {
          "id": 29,
          "value": 0.0
        },
        {
          "id": 30,
          "value": 0.0
        }
      ],
      "leftModuleId": 9,
      "rightModuleId": 11,
      "data": {
        "frozen": false,
        "freezeToggle": false,
        "panelStyle": 0,
        "tuned": 0,
        "diffuseInput": 0,
        "preDelayCVSens": 0,
        "inputSensitivity": 0,
        "outputSaturation": 0
      },
      "pos": [
        94,
        0
      ]
    },
    {
      "id": 46,
      "plugin": "AudibleInstruments",
      "version": "1.0.0",
      "model": "Braids",
      "params": [
        {
          "id": 0,
          "value": 0.0
        },
        {
          "id": 1,
          "value": -2.0
        },
        {
          "id": 2,
          "value": 0.0
        },
        {
          "id": 3,
          "value": 1.0
        },
        {
          "id": 4,
          "value": 0.0
        },
        {
          "id": 5,
          "value": 0.269999921
        },
        {
          "id": 6,
          "value": 0.123000011
        }
      ],
      "leftModuleId": 48,
      "rightModuleId": 51,
      "data": {
        "settings": [
          6,
          0,
          0,
          0,
          0,
          0,
          0,
          0,
          0,
          0,
          0,
          0,
          0,
          0,
          0,
          0,
          0,
          0,
          0,
          0
        ],
        "lowCpu": false
      },
      "pos": [
        29,
        1
      ]
    },
    {
      "id": 48,
      "plugin": "TheXOR",
      "version": "1.1.1",
      "model": "M581",
      "params": [
        {
          "id": 0,
          "value": 1.0
        },
        {
          "id": 1,
          "value": 2.0
        },
        {
          "id": 2,
          "value": 0.0
        },
        {
          "id": 3,
          "value": 3.0
        },
        {
          "id": 4,
          "value": 2.0
        },
        {
          "id": 5,
          "value": 3.0
        },
        {
          "id": 6,
          "value": 1.0
        },
        {
          "id": 7,
          "value": 0.0
        },
        {
          "id": 8,
          "value": 2.0
        },
        {
          "id": 9,
          "value": 3.0
        },
        {
          "id": 10,
          "value": 6.0
        },
        {
          "id": 11,
          "value": 6.0
        },
        {
          "id": 12,
          "value": 6.0
        },
        {
          "id": 13,
          "value": 1.0
        },
        {
          "id": 14,
          "value": 2.0
        },
        {
          "id": 15,
          "value": 7.0
        },
        {
          "id": 16,
          "value": 0.965741873
        },
        {
          "id": 17,
          "value": 0.029433161
        },
        {
          "id": 18,
          "value": 0.934468865
        },
        {
          "id": 19,
          "value": 0.267817318
        },
        {
          "id": 20,
          "value": 0.94430232
        },
        {
          "id": 21,
          "value": 0.129011676
        },
        {
          "id": 22,
          "value": 0.00137511361
        },
        {
          "id": 23,
          "value": 0.676701307
        },
        {
          "id": 24,
          "value": 1.0
        },
        {
          "id": 25,
          "value": 2.0
        },
        {
          "id": 26,
          "value": 1.0
        },
        {
          "id": 27,
          "value": 1.0
        },
        {
          "id": 28,
          "value": 1.0
        },
        {
          "id": 29,
          "value": 2.0
        },
        {
          "id": 30,
          "value": 1.0
        },
        {
          "id": 31,
          "value": 1.0
        },
        {
          "id": 32,
          "value": 0.706117094
        },
        {
          "id": 33,
          "value": 1.82837129
        },
        {
          "id": 34,
          "value": 24.0
        },
        {
          "id": 35,
          "value": 3.0
        },
        {
          "id": 36,
          "value": 0.0
        },
        {
          "id": 37,
          "value": 0.0
        },
        {
          "id": 38,
          "value": 0.0
        },
        {
          "id": 39,
          "value": 5.0
        }
      ],
      "rightModuleId": 46,
      "data": {
        "theRandomizer": 0
      },
      "pos": [
        0,
        1
      ]
    },
    {
      "id": 49,
      "plugin": "Befaco",
      "version": "1.0.0",
      "model": "Rampage",
      "params": [
        {
          "id": 0,
          "value": 1.0
        },
        {
          "id": 1,
          "value": 1.0
        },
        {
          "id": 2,
          "value": 0.438825965
        },
        {
          "id": 3,
          "value": -0.872391105
        },
        {
          "id": 4,
          "value": 0.0
        },
        {
          "id": 5,
          "value": 0.0
        },
        {
          "id": 6,
          "value": 0.16673705
        },
        {
          "id": 7,
          "value": 0.373953372
        },
        {
          "id": 8,
          "value": 0.725257874
        },
        {
          "id": 9,
          "value": 0.880739927
        },
        {
          "id": 10,
          "value": 0.0
        },
        {
          "id": 11,
          "value": 1.0
        },
        {
          "id": 12,
          "value": 0.276130915
        }
      ],
      "pos": [
        16,
        0
      ]
    },
    {
      "id": 51,
      "plugin": "Fundamental",
      "version": "1.2.1",
      "model": "VCA-1",
      "params": [
        {
          "id": 0,
          "value": 1.0
        },
        {
          "id": 1,
          "value": 1.0
        }
      ],
      "leftModuleId": 46,
      "rightModuleId": 56,
      "pos": [
        45,
        1
      ]
    },
    {
      "id": 52,
      "plugin": "TheXOR",
      "version": "1.1.1",
      "model": "M581",
      "params": [
        {
          "id": 0,
          "value": 2.0
        },
        {
          "id": 1,
          "value": 0.0
        },
        {
          "id": 2,
          "value": 2.0
        },
        {
          "id": 3,
          "value": 1.0
        },
        {
          "id": 4,
          "value": 2.0
        },
        {
          "id": 5,
          "value": 2.0
        },
        {
          "id": 6,
          "value": 2.0
        },
        {
          "id": 7,
          "value": 1.0
        },
        {
          "id": 8,
          "value": 4.0
        },
        {
          "id": 9,
          "value": 5.0
        },
        {
          "id": 10,
          "value": 6.0
        },
        {
          "id": 11,
          "value": 6.0
        },
        {
          "id": 12,
          "value": 2.0
        },
        {
          "id": 13,
          "value": 2.0
        },
        {
          "id": 14,
          "value": 4.0
        },
        {
          "id": 15,
          "value": 3.0
        },
        {
          "id": 16,
          "value": 0.119322188
        },
        {
          "id": 17,
          "value": 0.386249751
        },
        {
          "id": 18,
          "value": 0.98565805
        },
        {
          "id": 19,
          "value": 0.194527745
        },
        {
          "id": 20,
          "value": 0.863556743
        },
        {
          "id": 21,
          "value": 0.82227397
        },
        {
          "id": 22,
          "value": 0.101378731
        },
        {
          "id": 23,
          "value": 0.203023568
        },
        {
          "id": 24,
          "value": 0.0
        },
        {
          "id": 25,
          "value": 1.0
        },
        {
          "id": 26,
          "value": 0.0
        },
        {
          "id": 27,
          "value": 2.0
        },
        {
          "id": 28,
          "value": 2.0
        },
        {
          "id": 29,
          "value": 1.0
        },
        {
          "id": 30,
          "value": 0.0
        },
        {
          "id": 31,
          "value": 0.0
        },
        {
          "id": 32,
          "value": 0.0395455845
        },
        {
          "id": 33,
          "value": 0.783900738
        },
        {
          "id": 34,
          "value": 20.0
        },
        {
          "id": 35,
          "value": 0.0
        },
        {
          "id": 36,
          "value": 2.0
        },
        {
          "id": 37,
          "value": 0.0
        },
        {
          "id": 38,
          "value": 0.0
        },
        {
          "id": 39,
          "value": 5.0
        }
      ],
      "rightModuleId": 54,
      "data": {
        "theRandomizer": 0
      },
      "pos": [
        0,
        2
      ]
    },
    {
      "id": 53,
      "plugin": "Fundamental",
      "version": "1.2.1",
      "model": "VCA-1",
      "params": [
        {
          "id": 0,
          "value": 1.0
        },
        {
          "id": 1,
          "value": 1.0
        }
      ],
      "leftModuleId": 54,
      "rightModuleId": 58,
      "pos": [
        45,
        2
      ]
    },
    {
      "id": 54,
      "plugin": "AudibleInstruments",
      "version": "1.0.0",
      "model": "Braids",
      "params": [
        {
          "id": 0,
          "value": 0.0
        },
        {
          "id": 1,
          "value": 0.0
        },
        {
          "id": 2,
          "value": 0.14700003
        },
        {
          "id": 3,
          "value": 0.299999923
        },
        {
          "id": 4,
          "value": 0.0
        },
        {
          "id": 5,
          "value": 0.313500166
        },
        {
          "id": 6,
          "value": 0.130500004
        }
      ],
      "leftModuleId": 52,
      "rightModuleId": 53,
      "data": {
        "settings": [
          6,
          0,
          0,
          0,
          0,
          0,
          0,
          0,
          0,
          0,
          0,
          0,
          0,
          0,
          0,
          0,
          0,
          0,
          0,
          0
        ],
        "lowCpu": false
      },
      "pos": [
        29,
        2
      ]
    },
    {
      "id": 55,
      "plugin": "Blamsoft-XFXF35",
      "version": "1.0.0",
      "model": "Blamsoft-XFXF35",
      "params": [
        {
          "id": 0,
          "value": 0.353999972
        },
        {
          "id": 1,
          "value": 0.5
        },
        {
          "id": 2,
          "value": 0.640500486
        },
        {
          "id": 3,
          "value": 0.853999794
        },
        {
          "id": 4,
          "value": 0.636000156
        },
        {
          "id": 5,
          "value": 0.616999805
        },
        {
          "id": 6,
          "value": 0.736000121
        }
      ],
      "leftModuleId": 57,
      "data": {
        "mode": 27
      },
      "pos": [
        67,
        1
      ]
    },
    {
      "id": 56,
      "plugin": "AudibleInstruments",
      "version": "1.0.0",
      "model": "Braids",
      "params": [
        {
          "id": 0,
          "value": 0.0
        },
        {
          "id": 1,
          "value": 0.0
        },
        {
          "id": 2,
          "value": 0.0
        },
        {
          "id": 3,
          "value": 1.0
        },
        {
          "id": 4,
          "value": 0.0
        },
        {
          "id": 5,
          "value": 0.181500077
        },
        {
          "id": 6,
          "value": 0.130500004
        }
      ],
      "leftModuleId": 51,
      "rightModuleId": 57,
      "data": {
        "settings": [
          6,
          0,
          0,
          0,
          0,
          0,
          0,
          0,
          0,
          0,
          0,
          0,
          0,
          0,
          0,
          0,
          0,
          0,
          0,
          0
        ],
        "lowCpu": false
      },
      "pos": [
        48,
        1
      ]
    },
    {
      "id": 57,
      "plugin": "Fundamental",
      "version": "1.2.1",
      "model": "VCA-1",
      "params": [
        {
          "id": 0,
          "value": 1.0
        },
        {
          "id": 1,
          "value": 1.0
        }
      ],
      "leftModuleId": 56,
      "rightModuleId": 55,
      "pos": [
        64,
        1
      ]
    },
    {
      "id": 58,
      "plugin": "AudibleInstruments",
      "version": "1.0.0",
      "model": "Braids",
      "params": [
        {
          "id": 0,
          "value": 0.0
        },
        {
          "id": 1,
          "value": -1.9460007
        },
        {
          "id": 2,
          "value": 0.0
        },
        {
          "id": 3,
          "value": 0.683000028
        },
        {
          "id": 4,
          "value": 0.0
        },
        {
          "id": 5,
          "value": 0.663499951
        },
        {
          "id": 6,
          "value": 0.130500004
        }
      ],
      "leftModuleId": 53,
      "rightModuleId": 59,
      "data": {
        "settings": [
          6,
          0,
          0,
          0,
          0,
          0,
          0,
          0,
          0,
          0,
          0,
          0,
          0,
          0,
          0,
          0,
          0,
          0,
          0,
          0
        ],
        "lowCpu": false
      },
      "pos": [
        48,
        2
      ]
    },
    {
      "id": 59,
      "plugin": "Fundamental",
      "version": "1.2.1",
      "model": "VCA-1",
      "params": [
        {
          "id": 0,
          "value": 1.0
        },
        {
          "id": 1,
          "value": 1.0
        }
      ],
      "leftModuleId": 58,
      "rightModuleId": 62,
      "pos": [
        64,
        2
      ]
    },
    {
      "id": 62,
      "plugin": "Blamsoft-XFXF35",
      "version": "1.0.0",
      "model": "Blamsoft-XFXF35",
      "params": [
        {
          "id": 0,
          "value": 0.34950003
        },
        {
          "id": 1,
          "value": 0.5
        },
        {
          "id": 2,
          "value": 0.606999159
        },
        {
          "id": 3,
          "value": 0.853999794
        },
        {
          "id": 4,
          "value": 0.607500136
        },
        {
          "id": 5,
          "value": 0.616999805
        },
        {
          "id": 6,
          "value": 0.736000121
        }
      ],
      "leftModuleId": 59,
      "data": {
        "mode": 1
      },
      "pos": [
        67,
        2
      ]
    },
    {
      "id": 70,
      "plugin": "Autodafe",
      "version": "1.0.1",
      "model": "BPMClock",
      "params": [
        {
          "id": 0,
          "value": 120.0
        },
        {
          "id": 1,
          "value": 0.0
        },
        {
          "id": 2,
          "value": 0.0
        },
        {
          "id": 3,
          "value": 0.0
        },
        {
          "id": 4,
          "value": 0.0
        }
      ],
      "data": {
        "bpmint": 74,
        "bpmdec": 0
      },
      "pos": [
        3,
        0
      ]
    },
    {
      "id": 71,
      "plugin": "AudibleInstruments",
      "version": "1.0.0",
      "model": "Braids",
      "params": [
        {
          "id": 0,
          "value": 0.0
        },
        {
          "id": 1,
          "value": -0.995999038
        },
        {
          "id": 2,
          "value": 0.0
        },
        {
          "id": 3,
          "value": 0.65500021
        },
        {
          "id": 4,
          "value": 0.0
        },
        {
          "id": 5,
          "value": 0.785999596
        },
        {
          "id": 6,
          "value": 0.130500004
        }
      ],
      "leftModuleId": 73,
      "rightModuleId": 72,
      "data": {
        "settings": [
          6,
          0,
          0,
          0,
          0,
          0,
          0,
          0,
          0,
          0,
          0,
          0,
          0,
          0,
          0,
          0,
          0,
          0,
          0,
          0
        ],
        "lowCpu": false
      },
      "pos": [
        47,
        0
      ]
    },
    {
      "id": 72,
      "plugin": "Fundamental",
      "version": "1.2.1",
      "model": "VCA-1",
      "params": [
        {
          "id": 0,
          "value": 1.0
        },
        {
          "id": 1,
          "value": 1.0
        }
      ],
      "leftModuleId": 71,
      "pos": [
        63,
        0
      ]
    },
    {
      "id": 73,
      "plugin": "Bogaudio",
      "version": "1.1.22",
      "model": "Bogaudio-ADSR",
      "params": [
        {
          "id": 0,
          "value": 0.00342101534
        },
        {
          "id": 1,
          "value": 0.183000043
        },
        {
          "id": 2,
          "value": 0.18699944
        },
        {
          "id": 3,
          "value": 0.0195000172
        },
        {
          "id": 4,
          "value": 0.0
        }
      ],
      "leftModuleId": 74,
      "rightModuleId": 71,
      "pos": [
        44,
        0
      ]
    },
    {
      "id": 74,
      "plugin": "Bogaudio",
      "version": "1.1.22",
      "model": "Bogaudio-DGate",
      "params": [
        {
          "id": 0,
          "value": 0.0
        },
        {
          "id": 1,
          "value": 0.316229999
        },
        {
          "id": 2,
          "value": 1.0
        },
        {
          "id": 3,
          "value": 0.0
        }
      ],
      "rightModuleId": 73,
      "data": {
        "triggerOnLoad": true,
        "shouldTriggerOnLoad": true
      },
      "pos": [
        41,
        0
      ]
    },
    {
      "id": 78,
      "plugin": "AlrightDevices",
      "version": "1.0.2",
      "model": "Chronoblob2",
      "params": [
        {
          "id": 0,
          "value": 0.858498991
        },
        {
          "id": 1,
          "value": 0.0315000005
        },
        {
          "id": 2,
          "value": 0.931999862
        },
        {
          "id": 3,
          "value": 0.0
        },
        {
          "id": 4,
          "value": 0.0
        },
        {
          "id": 5,
          "value": 0.0
        },
        {
          "id": 6,
          "value": 0.0
        },
        {
          "id": 7,
          "value": 0.0
        },
        {
          "id": 8,
          "value": 0.0
        },
        {
          "id": 9,
          "value": 0.0
        }
      ],
      "data": {
        "delay_mode": 0,
        "hold_behavior": 0,
        "sync_prescaler": 6
      },
      "pos": [
        85,
        1
      ]
    },
    {
      "id": 79,
      "plugin": "AlrightDevices",
      "version": "1.0.2",
      "model": "Chronoblob2",
      "params": [
        {
          "id": 0,
          "value": 0.313998967
        },
        {
          "id": 1,
          "value": 0.210000038
        },
        {
          "id": 2,
          "value": 0.784999847
        },
        {
          "id": 3,
          "value": 0.0
        },
        {
          "id": 4,
          "value": 0.0
        },
        {
          "id": 5,
          "value": 0.0
        },
        {
          "id": 6,
          "value": 0.0
        },
        {
          "id": 7,
          "value": 0.0
        },
        {
          "id": 8,
          "value": 0.0
        },
        {
          "id": 9,
          "value": 0.0
        }
      ],
      "data": {
        "delay_mode": 1,
        "hold_behavior": 0,
        "sync_prescaler": 6
      },
      "pos": [
        85,
        2
      ]
    }
  ],
  "cables": [
    {
      "id": 10,
      "outputModuleId": 9,
      "outputId": 0,
      "inputModuleId": 11,
      "inputId": 0,
      "color": "#c91847"
    },
    {
      "id": 11,
      "outputModuleId": 9,
      "outputId": 1,
      "inputModuleId": 11,
      "inputId": 1,
      "color": "#0986ad"
    },
    {
      "id": 12,
      "outputModuleId": 9,
      "outputId": 6,
      "inputModuleId": 12,
      "inputId": 0,
      "color": "#c9b70e"
    },
    {
      "id": 13,
      "outputModuleId": 9,
      "outputId": 7,
      "inputModuleId": 12,
      "inputId": 1,
      "color": "#0c8e15"
    },
    {
      "id": 14,
      "outputModuleId": 12,
      "outputId": 0,
      "inputModuleId": 9,
      "inputId": 16,
      "color": "#c91847"
    },
    {
      "id": 15,
      "outputModuleId": 12,
      "outputId": 1,
      "inputModuleId": 9,
      "inputId": 17,
      "color": "#0986ad"
    },
    {
      "id": 110,
      "outputModuleId": 48,
      "outputId": 0,
      "inputModuleId": 46,
      "inputId": 1,
      "color": "#0c8e15"
    },
    {
      "id": 112,
      "outputModuleId": 48,
      "outputId": 1,
      "inputModuleId": 49,
      "inputId": 2,
      "color": "#0986ad"
    },
    {
      "id": 111,
      "outputModuleId": 46,
      "outputId": 0,
      "inputModuleId": 51,
      "inputId": 1,
      "color": "#c91847"
    },
    {
      "id": 116,
      "outputModuleId": 49,
      "outputId": 6,
      "inputModuleId": 51,
      "inputId": 0,
      "color": "#c9b70e"
    },
    {
      "id": 118,
      "outputModuleId": 52,
      "outputId": 1,
      "inputModuleId": 49,
      "inputId": 3,
      "color": "#c91847"
    },
    {
      "id": 120,
      "outputModuleId": 49,
      "outputId": 7,
      "inputModuleId": 53,
      "inputId": 0,
      "color": "#c91847"
    },
    {
      "id": 119,
      "outputModuleId": 52,
      "outputId": 0,
      "inputModuleId": 54,
      "inputId": 1,
      "color": "#c9b70e"
    },
    {
      "id": 122,
      "outputModuleId": 54,
      "outputId": 0,
      "inputModuleId": 53,
      "inputId": 1,
      "color": "#c9b70e"
    },
    {
      "id": 123,
      "outputModuleId": 49,
      "outputId": 6,
      "inputModuleId": 46,
      "inputId": 4,
      "color": "#0986ad"
    },
    {
      "id": 121,
      "outputModuleId": 53,
      "outputId": 0,
      "inputModuleId": 55,
      "inputId": 6,
      "color": "#0986ad"
    },
    {
      "id": 124,
      "outputModuleId": 55,
      "outputId": 0,
      "inputModuleId": 10,
      "inputId": 0,
      "color": "#c9b70e"
    },
    {
      "id": 125,
      "outputModuleId": 55,
      "outputId": 1,
      "inputModuleId": 10,
      "inputId": 1,
      "color": "#0c8e15"
    },
    {
      "id": 127,
      "outputModuleId": 49,
      "outputId": 1,
      "inputModuleId": 55,
      "inputId": 2,
      "color": "#0986ad"
    },
    {
      "id": 126,
      "outputModuleId": 53,
      "outputId": 0,
      "inputModuleId": 55,
      "inputId": 1,
      "color": "#c91847"
    },
    {
      "id": 135,
      "outputModuleId": 56,
      "outputId": 0,
      "inputModuleId": 57,
      "inputId": 1,
      "color": "#c9b70e"
    },
    {
      "id": 136,
      "outputModuleId": 49,
      "outputId": 6,
      "inputModuleId": 57,
      "inputId": 0,
      "color": "#0c8e15"
    },
    {
      "id": 139,
      "outputModuleId": 49,
      "outputId": 7,
      "inputModuleId": 59,
      "inputId": 0,
      "color": "#c9b70e"
    },
    {
      "id": 140,
      "outputModuleId": 58,
      "outputId": 0,
      "inputModuleId": 59,
      "inputId": 1,
      "color": "#0c8e15"
    },
    {
      "id": 137,
      "outputModuleId": 57,
      "outputId": 0,
      "inputModuleId": 62,
      "inputId": 5,
      "color": "#c91847"
    },
    {
      "id": 141,
      "outputModuleId": 59,
      "outputId": 0,
      "inputModuleId": 62,
      "inputId": 6,
      "color": "#c91847"
    },
    {
      "id": 142,
      "outputModuleId": 62,
      "outputId": 0,
      "inputModuleId": 10,
      "inputId": 2,
      "color": "#0986ad"
    },
    {
      "id": 143,
      "outputModuleId": 62,
      "outputId": 1,
      "inputModuleId": 10,
      "inputId": 3,
      "color": "#c9b70e"
    },
    {
      "id": 158,
      "outputModuleId": 73,
      "outputId": 0,
      "inputModuleId": 72,
      "inputId": 0,
      "color": "#0986ad"
    },
    {
      "id": 159,
      "outputModuleId": 74,
      "outputId": 0,
      "inputModuleId": 73,
      "inputId": 0,
      "color": "#c9b70e"
    },
    {
      "id": 157,
      "outputModuleId": 70,
      "outputId": 8,
      "inputModuleId": 74,
      "inputId": 0,
      "color": "#c91847"
    },
    {
      "id": 160,
      "outputModuleId": 71,
      "outputId": 0,
      "inputModuleId": 72,
      "inputId": 1,
      "color": "#0c8e15"
    },
    {
      "id": 161,
      "outputModuleId": 72,
      "outputId": 0,
      "inputModuleId": 9,
      "inputId": 0,
      "color": "#c91847"
    },
    {
      "id": 156,
      "outputModuleId": 70,
      "outputId": 1,
      "inputModuleId": 52,
      "inputId": 0,
      "color": "#0c8e15"
    },
    {
      "id": 115,
      "outputModuleId": 51,
      "outputId": 0,
      "inputModuleId": 55,
      "inputId": 5,
      "color": "#0986ad"
    },
    {
      "id": 155,
      "outputModuleId": 70,
      "outputId": 0,
      "inputModuleId": 48,
      "inputId": 0,
      "color": "#c9b70e"
    },
    {
      "id": 164,
      "outputModuleId": 48,
      "outputId": 0,
      "inputModuleId": 56,
      "inputId": 1,
      "color": "#c91847"
    },
    {
      "id": 162,
      "outputModuleId": 52,
      "outputId": 0,
      "inputModuleId": 58,
      "inputId": 1,
      "color": "#0986ad"
    },
    {
      "id": 168,
      "outputModuleId": 78,
      "outputId": 0,
      "inputModuleId": 9,
      "inputId": 1,
      "color": "#c91847"
    },
    {
      "id": 169,
      "outputModuleId": 78,
      "outputId": 1,
      "inputModuleId": 9,
      "inputId": 2,
      "color": "#0986ad"
    },
    {
      "id": 170,
      "outputModuleId": 51,
      "outputId": 0,
      "inputModuleId": 78,
      "inputId": 5,
      "color": "#c9b70e"
    },
    {
      "id": 171,
      "outputModuleId": 57,
      "outputId": 0,
      "inputModuleId": 78,
      "inputId": 6,
      "color": "#0c8e15"
    },
    {
      "id": 172,
      "outputModuleId": 53,
      "outputId": 0,
      "inputModuleId": 79,
      "inputId": 5,
      "color": "#c91847"
    },
    {
      "id": 173,
      "outputModuleId": 59,
      "outputId": 0,
      "inputModuleId": 79,
      "inputId": 6,
      "color": "#0986ad"
    },
    {
      "id": 174,
      "outputModuleId": 79,
      "outputId": 0,
      "inputModuleId": 9,
      "inputId": 3,
      "color": "#c9b70e"
    },
    {
      "id": 175,
      "outputModuleId": 70,
      "outputId": 11,
      "inputModuleId": 79,
      "inputId": 7,
      "color": "#0c8e15"
    },
    {
      "id": 176,
      "outputModuleId": 70,
      "outputId": 12,
      "inputModuleId": 78,
      "inputId": 7,
      "color": "#c91847"
    }
  ]
}