{
  "version": "1.1.3",
  "modules": [
    {
      "id": 20,
      "plugin": "Core",
      "version": "1.1.3",
      "model": "AudioInterface",
      "params": [],
      "leftModuleId": 35,
      "rightModuleId": 36,
      "data": {
        "audio": {
          "driver": 1,
          "deviceName": "hw:Scarlett 2i2 USB,0",
          "offset": 0,
          "maxChannels": 8,
          "sampleRate": 48000,
          "blockSize": 256
        }
      },
      "pos": [
        124,
        0
      ]
    },
    {
      "id": 23,
      "plugin": "repelzen",
      "version": "1.1.0",
      "model": "rexmix",
      "params": [
        {
          "id": 0,
          "value": -16.0799541
        },
        {
          "id": 1,
          "value": 0.0
        },
        {
          "id": 2,
          "value": 0.0
        },
        {
          "id": 3,
          "value": 0.0
        },
        {
          "id": 4,
          "value": 0.0
        },
        {
          "id": 5,
          "value": 0.0
        },
        {
          "id": 6,
          "value": -6.57000256
        },
        {
          "id": 7,
          "value": -3.5999999
        },
        {
          "id": 8,
          "value": -5.30999994
        },
        {
          "id": 9,
          "value": -3.9599998
        },
        {
          "id": 10,
          "value": 0.0
        },
        {
          "id": 11,
          "value": 0.0
        },
        {
          "id": 12,
          "value": 0.0
        },
        {
          "id": 13,
          "value": 0.0
        },
        {
          "id": 14,
          "value": 0.0
        },
        {
          "id": 15,
          "value": 0.0
        },
        {
          "id": 16,
          "value": 0.0
        },
        {
          "id": 17,
          "value": 0.0
        },
        {
          "id": 18,
          "value": 0.0
        },
        {
          "id": 19,
          "value": 0.0
        },
        {
          "id": 20,
          "value": 0.0
        },
        {
          "id": 21,
          "value": 0.0
        },
        {
          "id": 22,
          "value": 0.0
        },
        {
          "id": 23,
          "value": 0.0
        },
        {
          "id": 24,
          "value": 0.0
        },
        {
          "id": 25,
          "value": 0.0
        },
        {
          "id": 26,
          "value": 0.0
        },
        {
          "id": 27,
          "value": 0.0
        },
        {
          "id": 28,
          "value": 0.0
        },
        {
          "id": 29,
          "value": 0.0
        },
        {
          "id": 30,
          "value": 0.0
        },
        {
          "id": 31,
          "value": 0.0
        },
        {
          "id": 32,
          "value": 0.0
        },
        {
          "id": 33,
          "value": 0.0
        },
        {
          "id": 34,
          "value": 0.0
        },
        {
          "id": 35,
          "value": 0.0
        },
        {
          "id": 36,
          "value": 0.0
        },
        {
          "id": 37,
          "value": 0.341999948
        },
        {
          "id": 38,
          "value": -0.379999846
        },
        {
          "id": 39,
          "value": 0.0
        },
        {
          "id": 40,
          "value": 0.0
        },
        {
          "id": 41,
          "value": 0.0
        },
        {
          "id": 42,
          "value": 0.26850006
        },
        {
          "id": 43,
          "value": 0.190499917
        },
        {
          "id": 44,
          "value": 0.200999945
        },
        {
          "id": 45,
          "value": 0.190500021
        },
        {
          "id": 46,
          "value": 0.0
        },
        {
          "id": 47,
          "value": 0.0
        },
        {
          "id": 48,
          "value": 0.0
        },
        {
          "id": 49,
          "value": 0.0
        },
        {
          "id": 50,
          "value": 0.0
        },
        {
          "id": 51,
          "value": 0.0
        }
      ],
      "leftModuleId": 24,
      "rightModuleId": 35,
      "pos": [
        84,
        0
      ]
    },
    {
      "id": 24,
      "plugin": "repelzen",
      "version": "1.1.0",
      "model": "rexmix",
      "params": [
        {
          "id": 0,
          "value": -9.00000191
        },
        {
          "id": 1,
          "value": 0.0
        },
        {
          "id": 2,
          "value": 0.0
        },
        {
          "id": 3,
          "value": 0.0
        },
        {
          "id": 4,
          "value": 0.0
        },
        {
          "id": 5,
          "value": 0.0
        },
        {
          "id": 6,
          "value": 0.0
        },
        {
          "id": 7,
          "value": 0.0
        },
        {
          "id": 8,
          "value": 0.0
        },
        {
          "id": 9,
          "value": -60.0
        },
        {
          "id": 10,
          "value": 0.0
        },
        {
          "id": 11,
          "value": 0.0
        },
        {
          "id": 12,
          "value": 0.0
        },
        {
          "id": 13,
          "value": 0.0
        },
        {
          "id": 14,
          "value": 0.0
        },
        {
          "id": 15,
          "value": 0.0
        },
        {
          "id": 16,
          "value": 0.0
        },
        {
          "id": 17,
          "value": 0.0
        },
        {
          "id": 18,
          "value": 0.0
        },
        {
          "id": 19,
          "value": 0.0
        },
        {
          "id": 20,
          "value": 0.0
        },
        {
          "id": 21,
          "value": 0.0
        },
        {
          "id": 22,
          "value": 0.0
        },
        {
          "id": 23,
          "value": 0.0
        },
        {
          "id": 24,
          "value": 0.0
        },
        {
          "id": 25,
          "value": 0.0
        },
        {
          "id": 26,
          "value": 0.0
        },
        {
          "id": 27,
          "value": 0.0
        },
        {
          "id": 28,
          "value": 0.0
        },
        {
          "id": 29,
          "value": 0.0
        },
        {
          "id": 30,
          "value": 0.0
        },
        {
          "id": 31,
          "value": 0.0
        },
        {
          "id": 32,
          "value": 0.0
        },
        {
          "id": 33,
          "value": 0.0
        },
        {
          "id": 34,
          "value": 0.0
        },
        {
          "id": 35,
          "value": 0.0
        },
        {
          "id": 36,
          "value": 0.0
        },
        {
          "id": 37,
          "value": 0.0
        },
        {
          "id": 38,
          "value": 0.0
        },
        {
          "id": 39,
          "value": 0.0
        },
        {
          "id": 40,
          "value": 0.0
        },
        {
          "id": 41,
          "value": 0.642000079
        },
        {
          "id": 42,
          "value": 0.586000025
        },
        {
          "id": 43,
          "value": 0.0
        },
        {
          "id": 44,
          "value": 0.0
        },
        {
          "id": 45,
          "value": 0.0
        },
        {
          "id": 46,
          "value": 0.0
        },
        {
          "id": 47,
          "value": 0.0
        },
        {
          "id": 48,
          "value": 0.0
        },
        {
          "id": 49,
          "value": 0.0
        },
        {
          "id": 50,
          "value": 0.0
        },
        {
          "id": 51,
          "value": 0.0
        }
      ],
      "leftModuleId": 42,
      "rightModuleId": 23,
      "pos": [
        56,
        0
      ]
    },
    {
      "id": 25,
      "plugin": "repelzen",
      "version": "1.1.0",
      "model": "reblank",
      "params": [],
      "leftModuleId": 26,
      "rightModuleId": 42,
      "pos": [
        40,
        0
      ]
    },
    {
      "id": 26,
      "plugin": "ImpromptuModular",
      "version": "1.1.1",
      "model": "Clocked",
      "params": [
        {
          "id": 0,
          "value": 94.0
        },
        {
          "id": 1,
          "value": 5.0
        },
        {
          "id": 2,
          "value": -19.0
        },
        {
          "id": 3,
          "value": -1.0
        },
        {
          "id": 4,
          "value": 0.0
        },
        {
          "id": 5,
          "value": 0.0
        },
        {
          "id": 6,
          "value": 0.0
        },
        {
          "id": 7,
          "value": 0.0
        },
        {
          "id": 8,
          "value": 0.5
        },
        {
          "id": 9,
          "value": 0.5
        },
        {
          "id": 10,
          "value": 0.5
        },
        {
          "id": 11,
          "value": 0.5
        },
        {
          "id": 12,
          "value": 0.0
        },
        {
          "id": 13,
          "value": 0.0
        },
        {
          "id": 14,
          "value": 0.0
        },
        {
          "id": 15,
          "value": 0.0
        },
        {
          "id": 16,
          "value": 0.0
        },
        {
          "id": 17,
          "value": 0.0
        },
        {
          "id": 18,
          "value": 0.0
        },
        {
          "id": 19,
          "value": 0.0
        }
      ],
      "rightModuleId": 25,
      "data": {
        "panelTheme": 1,
        "running": true,
        "displayDelayNoteMode": true,
        "bpmDetectionMode": false,
        "emitResetOnStopRun": false,
        "ppqn": 4,
        "resetClockOutputsHigh": true
      },
      "pos": [
        20,
        0
      ]
    },
    {
      "id": 27,
      "plugin": "repelzen",
      "version": "1.1.0",
      "model": "reburst",
      "params": [
        {
          "id": 0,
          "value": 0.0
        },
        {
          "id": 1,
          "value": 0.508000016
        },
        {
          "id": 2,
          "value": 2.0
        },
        {
          "id": 3,
          "value": 1.0
        },
        {
          "id": 4,
          "value": 0.388500035
        },
        {
          "id": 5,
          "value": 2.0
        },
        {
          "id": 6,
          "value": 0.0
        },
        {
          "id": 7,
          "value": 0.0
        },
        {
          "id": 8,
          "value": 0.0
        }
      ],
      "leftModuleId": 32,
      "rightModuleId": 39,
      "pos": [
        33,
        1
      ]
    },
    {
      "id": 32,
      "plugin": "Fundamental",
      "version": "1.2.0",
      "model": "Scope",
      "params": [
        {
          "id": 0,
          "value": -1.0
        },
        {
          "id": 1,
          "value": -8.55000114
        },
        {
          "id": 2,
          "value": -1.0
        },
        {
          "id": 3,
          "value": 4.46999645
        },
        {
          "id": 4,
          "value": 15.4899988
        },
        {
          "id": 5,
          "value": 0.0
        },
        {
          "id": 6,
          "value": 0.0
        },
        {
          "id": 7,
          "value": 0.0
        }
      ],
      "leftModuleId": 47,
      "rightModuleId": 27,
      "data": {
        "lissajous": 0,
        "external": 0
      },
      "pos": [
        20,
        1
      ]
    },
    {
      "id": 34,
      "plugin": "Geodesics",
      "version": "1.0.0",
      "model": "Energy",
      "params": [
        {
          "id": 0,
          "value": 0.0
        },
        {
          "id": 1,
          "value": 0.0
        },
        {
          "id": 2,
          "value": 0.0
        },
        {
          "id": 3,
          "value": 0.0
        },
        {
          "id": 4,
          "value": 0.0
        },
        {
          "id": 5,
          "value": -0.990000844
        },
        {
          "id": 6,
          "value": 0.62100023
        },
        {
          "id": 7,
          "value": 0.358501136
        },
        {
          "id": 8,
          "value": 0.714000106
        },
        {
          "id": 9,
          "value": 0.0
        }
      ],
      "leftModuleId": 38,
      "rightModuleId": 40,
      "data": {
        "panelTheme": 0,
        "oscM_phase": 3366966784,
        "oscC_phase": 3343242304,
        "routing": 0,
        "planck0": 2,
        "planck1": 2,
        "modtype0": 1,
        "modtype1": 1,
        "cross": 1
      },
      "pos": [
        61,
        1
      ]
    },
    {
      "id": 35,
      "plugin": "Valley",
      "version": "1.0.1",
      "model": "Plateau",
      "params": [
        {
          "id": 0,
          "value": 1.0
        },
        {
          "id": 1,
          "value": 0.5
        },
        {
          "id": 2,
          "value": 0.0
        },
        {
          "id": 3,
          "value": 10.0
        },
        {
          "id": 4,
          "value": 10.0
        },
        {
          "id": 5,
          "value": 0.5
        },
        {
          "id": 6,
          "value": 10.0
        },
        {
          "id": 7,
          "value": 0.549950004
        },
        {
          "id": 8,
          "value": 10.0
        },
        {
          "id": 9,
          "value": 10.0
        },
        {
          "id": 10,
          "value": 0.0
        },
        {
          "id": 11,
          "value": 0.5
        },
        {
          "id": 12,
          "value": 0.5
        },
        {
          "id": 13,
          "value": 0.0
        },
        {
          "id": 14,
          "value": 0.0
        },
        {
          "id": 15,
          "value": 0.0
        },
        {
          "id": 16,
          "value": 0.0
        },
        {
          "id": 17,
          "value": 0.0
        },
        {
          "id": 18,
          "value": 0.0
        },
        {
          "id": 19,
          "value": 0.0
        },
        {
          "id": 20,
          "value": 0.0
        },
        {
          "id": 21,
          "value": 0.0
        },
        {
          "id": 22,
          "value": 0.0
        },
        {
          "id": 23,
          "value": 0.0
        },
        {
          "id": 24,
          "value": 0.0
        },
        {
          "id": 25,
          "value": 0.0
        },
        {
          "id": 26,
          "value": 0.0
        },
        {
          "id": 27,
          "value": 0.0
        },
        {
          "id": 28,
          "value": 0.0
        },
        {
          "id": 29,
          "value": 0.0
        },
        {
          "id": 30,
          "value": 1.0
        }
      ],
      "leftModuleId": 23,
      "rightModuleId": 20,
      "data": {
        "frozen": false,
        "freezeToggle": false,
        "panelStyle": 0,
        "tuned": 0,
        "diffuseInput": 1,
        "preDelayCVSens": 0,
        "inputSensitivity": 0,
        "outputSaturation": 0
      },
      "pos": [
        112,
        0
      ]
    },
    {
      "id": 36,
      "plugin": "Core",
      "version": "1.1.3",
      "model": "Notes",
      "params": [],
      "leftModuleId": 20,
      "text": "Omri Cohen \nRepelzen - VCV Rack Live Stream\n\nhttps://www.youtube.com/watch?v=9408ynAsIlc\n\n  \nAlong the first patch in the video until ntil 1:16\n\nI took some freedom with Trummor and added different clock dividers.\n ",
      "pos": [
        134,
        0
      ]
    },
    {
      "id": 37,
      "plugin": "Fundamental",
      "version": "1.2.0",
      "model": "VCA-1",
      "params": [
        {
          "id": 0,
          "value": 0.180999666
        },
        {
          "id": 1,
          "value": 0.0
        }
      ],
      "leftModuleId": 39,
      "rightModuleId": 43,
      "pos": [
        44,
        1
      ]
    },
    {
      "id": 38,
      "plugin": "repelzen",
      "version": "1.1.0",
      "model": "rewin",
      "params": [
        {
          "id": 0,
          "value": 2.0
        },
        {
          "id": 1,
          "value": 0.0
        },
        {
          "id": 2,
          "value": 0.0
        },
        {
          "id": 3,
          "value": 0.0
        },
        {
          "id": 4,
          "value": 0.0
        },
        {
          "id": 5,
          "value": 0.0
        },
        {
          "id": 6,
          "value": 0.0
        },
        {
          "id": 7,
          "value": 0.0
        },
        {
          "id": 8,
          "value": 0.0
        },
        {
          "id": 9,
          "value": 0.0
        },
        {
          "id": 10,
          "value": 0.0
        },
        {
          "id": 11,
          "value": 0.0
        },
        {
          "id": 12,
          "value": 0.0
        },
        {
          "id": 13,
          "value": 0.0
        },
        {
          "id": 14,
          "value": 0.0
        },
        {
          "id": 15,
          "value": 0.0
        },
        {
          "id": 16,
          "value": 0.0
        }
      ],
      "leftModuleId": 43,
      "rightModuleId": 34,
      "data": {
        "notes": [
          false,
          false,
          true,
          false,
          false,
          true,
          false,
          false,
          false,
          true,
          true,
          false,
          true,
          false,
          false,
          false,
          true,
          false,
          false,
          true,
          false,
          false,
          true,
          false,
          false,
          false,
          true,
          false,
          false,
          false,
          false,
          true,
          false,
          false,
          true,
          false,
          false,
          true,
          false,
          false,
          true,
          false,
          false,
          true,
          false,
          false,
          true,
          false,
          true,
          false,
          false,
          false,
          true,
          false,
          false,
          true,
          false,
          false,
          true,
          true,
          false,
          false,
          false,
          false,
          false,
          false,
          false,
          false,
          false,
          false,
          false,
          false,
          true,
          false,
          false,
          false,
          false,
          true,
          false,
          false,
          true,
          false,
          false,
          true,
          false,
          false,
          false,
          false,
          false,
          false,
          false,
          false,
          false,
          false,
          false,
          false,
          false,
          false,
          false,
          false,
          false,
          false,
          false,
          false,
          false,
          false,
          false,
          false,
          false,
          false,
          false,
          false,
          false,
          false,
          false,
          false,
          false,
          false,
          false,
          false,
          false,
          false,
          false,
          false,
          false,
          false,
          false,
          false,
          false,
          false,
          false,
          false,
          false,
          false,
          false,
          false,
          false,
          false,
          false,
          false,
          false,
          false,
          false,
          false,
          false,
          false,
          false,
          false,
          false,
          false,
          false,
          false,
          false,
          false,
          false,
          false,
          false,
          false,
          false,
          false,
          false,
          false,
          false,
          false,
          false,
          false,
          false,
          false,
          false,
          false,
          false,
          false,
          false,
          false,
          false,
          false,
          false,
          false,
          false,
          false,
          false,
          false,
          false,
          false,
          false,
          false,
          false,
          false,
          false,
          false,
          false,
          false
        ],
        "mode": 0
      },
      "pos": [
        53,
        1
      ]
    },
    {
      "id": 39,
      "plugin": "Bogaudio",
      "version": "1.1.22",
      "model": "Bogaudio-ADSR",
      "params": [
        {
          "id": 0,
          "value": 0.0529210307
        },
        {
          "id": 1,
          "value": 0.0837299749
        },
        {
          "id": 2,
          "value": 0.0
        },
        {
          "id": 3,
          "value": 0.256500155
        },
        {
          "id": 4,
          "value": 0.0
        }
      ],
      "leftModuleId": 27,
      "rightModuleId": 37,
      "pos": [
        41,
        1
      ]
    },
    {
      "id": 40,
      "plugin": "repelzen",
      "version": "1.1.0",
      "model": "refold",
      "params": [
        {
          "id": 0,
          "value": 1.46200216
        },
        {
          "id": 1,
          "value": 0.170999989
        },
        {
          "id": 2,
          "value": 0.0
        },
        {
          "id": 3,
          "value": 0.0
        },
        {
          "id": 4,
          "value": 2.0
        }
      ],
      "leftModuleId": 34,
      "rightModuleId": 41,
      "data": {
        "alternativeMode": false
      },
      "pos": [
        68,
        1
      ]
    },
    {
      "id": 41,
      "plugin": "AlrightDevices",
      "version": "1.0.0",
      "model": "Chronoblob2",
      "params": [
        {
          "id": 0,
          "value": 0.5
        },
        {
          "id": 1,
          "value": 0.789499342
        },
        {
          "id": 2,
          "value": 0.210499868
        },
        {
          "id": 3,
          "value": 0.0
        },
        {
          "id": 4,
          "value": 0.300999671
        },
        {
          "id": 5,
          "value": 0.0
        },
        {
          "id": 6,
          "value": 0.0
        },
        {
          "id": 7,
          "value": 0.0
        },
        {
          "id": 8,
          "value": 1.0
        },
        {
          "id": 9,
          "value": 0.0
        }
      ],
      "leftModuleId": 40,
      "data": {
        "delay_mode": 1,
        "hold_behavior": 0,
        "sync_prescaler": 6
      },
      "pos": [
        72,
        1
      ]
    },
    {
      "id": 42,
      "plugin": "EricaCopies",
      "version": "1.0.2",
      "model": "BlackOctasource",
      "params": [
        {
          "id": 0,
          "value": 0.0849997625
        },
        {
          "id": 1,
          "value": 0.0
        },
        {
          "id": 2,
          "value": 0.0
        },
        {
          "id": 3,
          "value": 0.0
        }
      ],
      "leftModuleId": 25,
      "rightModuleId": 24,
      "data": {
        "unliPolarMode": true
      },
      "pos": [
        44,
        0
      ]
    },
    {
      "id": 43,
      "plugin": "Bogaudio",
      "version": "1.1.22",
      "model": "Bogaudio-AddrSeq",
      "params": [
        {
          "id": 0,
          "value": 4.0
        },
        {
          "id": 1,
          "value": 1.0
        },
        {
          "id": 2,
          "value": 1.0
        },
        {
          "id": 3,
          "value": 0.109999999
        },
        {
          "id": 4,
          "value": 0.209999993
        },
        {
          "id": 5,
          "value": 0.310000002
        },
        {
          "id": 6,
          "value": 0.409999996
        },
        {
          "id": 7,
          "value": 0.0
        },
        {
          "id": 8,
          "value": 0.0
        },
        {
          "id": 9,
          "value": 0.0
        },
        {
          "id": 10,
          "value": 0.0
        }
      ],
      "leftModuleId": 37,
      "rightModuleId": 38,
      "data": {
        "select_on_clock": false,
        "range_offset": 0.0,
        "range_scale": 10.0
      },
      "pos": [
        47,
        1
      ]
    },
    {
      "id": 44,
      "plugin": "repelzen",
      "version": "1.1.0",
      "model": "reburst",
      "params": [
        {
          "id": 0,
          "value": 0.0
        },
        {
          "id": 1,
          "value": 0.508000016
        },
        {
          "id": 2,
          "value": 4.0
        },
        {
          "id": 3,
          "value": 1.0
        },
        {
          "id": 4,
          "value": 0.0
        },
        {
          "id": 5,
          "value": 2.0
        },
        {
          "id": 6,
          "value": 0.0
        },
        {
          "id": 7,
          "value": 0.0
        },
        {
          "id": 8,
          "value": 0.0
        }
      ],
      "rightModuleId": 46,
      "pos": [
        33,
        2
      ]
    },
    {
      "id": 45,
      "plugin": "Bogaudio",
      "version": "1.1.22",
      "model": "Bogaudio-FMOp",
      "params": [
        {
          "id": 0,
          "value": 0.0
        },
        {
          "id": 1,
          "value": 0.0
        },
        {
          "id": 2,
          "value": 0.0454210266
        },
        {
          "id": 3,
          "value": 0.316229999
        },
        {
          "id": 4,
          "value": 0.0
        },
        {
          "id": 5,
          "value": 0.316229999
        },
        {
          "id": 6,
          "value": 0.0
        },
        {
          "id": 7,
          "value": 0.222000062
        },
        {
          "id": 8,
          "value": 1.0
        },
        {
          "id": 9,
          "value": 1.0
        },
        {
          "id": 10,
          "value": 0.0
        },
        {
          "id": 11,
          "value": 0.0
        }
      ],
      "leftModuleId": 48,
      "rightModuleId": 50,
      "data": {
        "linearLevel": false
      },
      "pos": [
        49,
        2
      ]
    },
    {
      "id": 46,
      "plugin": "Fundamental",
      "version": "1.2.0",
      "model": "VCA-1",
      "params": [
        {
          "id": 0,
          "value": 0.176499784
        },
        {
          "id": 1,
          "value": 1.0
        }
      ],
      "leftModuleId": 44,
      "rightModuleId": 48,
      "pos": [
        41,
        2
      ]
    },
    {
      "id": 47,
      "plugin": "VultModulesFree",
      "version": "1.2.0",
      "model": "Trummor2",
      "params": [
        {
          "id": 0,
          "value": 0.0500000007
        },
        {
          "id": 1,
          "value": 0.211999968
        },
        {
          "id": 2,
          "value": 0.0
        },
        {
          "id": 3,
          "value": 0.0
        },
        {
          "id": 4,
          "value": 0.0
        },
        {
          "id": 5,
          "value": 0.0
        },
        {
          "id": 6,
          "value": 0.0
        },
        {
          "id": 7,
          "value": 0.200000003
        },
        {
          "id": 8,
          "value": 0.400000006
        },
        {
          "id": 9,
          "value": 0.0
        },
        {
          "id": 10,
          "value": 0.0
        },
        {
          "id": 11,
          "value": 0.699999988
        },
        {
          "id": 12,
          "value": 0.100000001
        },
        {
          "id": 13,
          "value": 0.0
        },
        {
          "id": 14,
          "value": 0.0
        },
        {
          "id": 15,
          "value": 0.653600037
        },
        {
          "id": 16,
          "value": 0.267000139
        },
        {
          "id": 17,
          "value": 0.0
        },
        {
          "id": 18,
          "value": 0.0
        },
        {
          "id": 19,
          "value": 0.234500155
        },
        {
          "id": 20,
          "value": 0.0500000007
        },
        {
          "id": 21,
          "value": 0.0
        },
        {
          "id": 22,
          "value": 0.0
        },
        {
          "id": 23,
          "value": 0.335500181
        },
        {
          "id": 24,
          "value": 0.0
        },
        {
          "id": 25,
          "value": 0.195000157
        },
        {
          "id": 26,
          "value": 1.0
        },
        {
          "id": 27,
          "value": 0.0
        },
        {
          "id": 28,
          "value": 0.0
        },
        {
          "id": 29,
          "value": 0.0
        },
        {
          "id": 30,
          "value": 0.0
        },
        {
          "id": 31,
          "value": 0.0
        },
        {
          "id": 32,
          "value": 0.0
        }
      ],
      "rightModuleId": 32,
      "data": {
        "mod_a": 1,
        "mod_b": 15,
        "mod_c": 0,
        "mod_d": 0,
        "mk2": true
      },
      "pos": [
        0,
        1
      ]
    },
    {
      "id": 48,
      "plugin": "Geodesics",
      "version": "1.0.0",
      "model": "Fate",
      "params": [
        {
          "id": 0,
          "value": 0.136500016
        },
        {
          "id": 1,
          "value": 0.0479999892
        }
      ],
      "leftModuleId": 46,
      "rightModuleId": 45,
      "data": {
        "panelTheme": 0
      },
      "pos": [
        44,
        2
      ]
    },
    {
      "id": 49,
      "plugin": "AudibleInstruments",
      "version": "1.0.0",
      "model": "Braids",
      "params": [
        {
          "id": 0,
          "value": 0.0
        },
        {
          "id": 1,
          "value": 0.0
        },
        {
          "id": 2,
          "value": 0.0
        },
        {
          "id": 3,
          "value": 0.5
        },
        {
          "id": 4,
          "value": 0.0
        },
        {
          "id": 5,
          "value": 0.5
        },
        {
          "id": 6,
          "value": 0.6060009
        }
      ],
      "leftModuleId": 51,
      "rightModuleId": 57,
      "data": {
        "settings": [
          28,
          0,
          0,
          0,
          0,
          0,
          0,
          0,
          0,
          0,
          0,
          0,
          0,
          0,
          0,
          0,
          0,
          0,
          0,
          0
        ],
        "lowCpu": false
      },
      "pos": [
        70,
        2
      ]
    },
    {
      "id": 50,
      "plugin": "repelzen",
      "version": "1.1.0",
      "model": "reburst",
      "params": [
        {
          "id": 0,
          "value": 0.0
        },
        {
          "id": 1,
          "value": 0.508000016
        },
        {
          "id": 2,
          "value": 6.0
        },
        {
          "id": 3,
          "value": 1.0
        },
        {
          "id": 4,
          "value": 0.0614999868
        },
        {
          "id": 5,
          "value": 0.0
        },
        {
          "id": 6,
          "value": 0.0
        },
        {
          "id": 7,
          "value": 0.0
        },
        {
          "id": 8,
          "value": 0.0
        }
      ],
      "leftModuleId": 45,
      "rightModuleId": 51,
      "pos": [
        59,
        2
      ]
    },
    {
      "id": 51,
      "plugin": "Fundamental",
      "version": "1.2.0",
      "model": "VCA-1",
      "params": [
        {
          "id": 0,
          "value": 0.230500013
        },
        {
          "id": 1,
          "value": 1.0
        }
      ],
      "leftModuleId": 50,
      "rightModuleId": 49,
      "pos": [
        67,
        2
      ]
    },
    {
      "id": 52,
      "plugin": "VultModulesFree",
      "version": "1.2.0",
      "model": "Basal",
      "params": [
        {
          "id": 0,
          "value": 0.0
        },
        {
          "id": 1,
          "value": -0.0459998511
        },
        {
          "id": 2,
          "value": 0.0
        },
        {
          "id": 3,
          "value": 0.0
        },
        {
          "id": 4,
          "value": 0.0
        },
        {
          "id": 5,
          "value": 0.0
        }
      ],
      "rightModuleId": 53,
      "pos": [
        106,
        2
      ]
    },
    {
      "id": 53,
      "plugin": "VultModulesFree",
      "version": "1.2.0",
      "model": "Slap",
      "params": [
        {
          "id": 0,
          "value": 0.0390000008
        },
        {
          "id": 1,
          "value": 0.724999905
        },
        {
          "id": 2,
          "value": 0.792499781
        },
        {
          "id": 3,
          "value": 0.801000059
        },
        {
          "id": 4,
          "value": 0.0
        },
        {
          "id": 5,
          "value": 0.0
        },
        {
          "id": 6,
          "value": 0.0
        },
        {
          "id": 7,
          "value": 0.0
        },
        {
          "id": 8,
          "value": 0.0
        }
      ],
      "leftModuleId": 52,
      "pos": [
        112,
        2
      ]
    },
    {
      "id": 54,
      "plugin": "NYSTHI",
      "version": "1.0.3",
      "model": "b208_5steps",
      "params": [
        {
          "id": 0,
          "value": 0.0
        },
        {
          "id": 1,
          "value": 0.0
        },
        {
          "id": 2,
          "value": 0.0
        },
        {
          "id": 3,
          "value": 0.0
        },
        {
          "id": 4,
          "value": 0.0
        },
        {
          "id": 5,
          "value": 0.0
        },
        {
          "id": 6,
          "value": 0.0
        },
        {
          "id": 7,
          "value": 7.13515949
        },
        {
          "id": 8,
          "value": 5.15870619
        },
        {
          "id": 9,
          "value": 9.18872738
        },
        {
          "id": 10,
          "value": 2.60100007
        },
        {
          "id": 11,
          "value": 4.61316156
        },
        {
          "id": 12,
          "value": 0.0
        },
        {
          "id": 13,
          "value": 0.0
        },
        {
          "id": 14,
          "value": 0.0
        },
        {
          "id": 15,
          "value": 0.0
        },
        {
          "id": 16,
          "value": 0.0
        },
        {
          "id": 17,
          "value": 0.0
        },
        {
          "id": 18,
          "value": 0.0
        },
        {
          "id": 19,
          "value": 0.0
        },
        {
          "id": 20,
          "value": 0.0
        },
        {
          "id": 21,
          "value": 1.19129276
        },
        {
          "id": 22,
          "value": 2.29732251
        },
        {
          "id": 23,
          "value": 0.13325572
        },
        {
          "id": 24,
          "value": 2.024858
        },
        {
          "id": 25,
          "value": 1.38905048
        },
        {
          "id": 26,
          "value": 0.0
        },
        {
          "id": 27,
          "value": 0.0
        }
      ],
      "leftModuleId": 55,
      "data": {
        "m_max_steps1": 5,
        "m_max_steps2": 5,
        "m_trig_on_bitset": 0,
        "m_trig_on2_bitset": 0,
        "m_reset_is_immediate": true
      },
      "pos": [
        96,
        2
      ]
    },
    {
      "id": 55,
      "plugin": "SynthKit",
      "version": "1.0.1",
      "model": "ShiftingClockDividerCV",
      "params": [],
      "leftModuleId": 56,
      "rightModuleId": 54,
      "pos": [
        92,
        2
      ]
    },
    {
      "id": 56,
      "plugin": "SynthKit",
      "version": "1.0.1",
      "model": "PrimeClockDivider",
      "params": [],
      "leftModuleId": 57,
      "rightModuleId": 55,
      "pos": [
        89,
        2
      ]
    },
    {
      "id": 57,
      "plugin": "SynthKit",
      "version": "1.0.1",
      "model": "Or",
      "params": [],
      "leftModuleId": 49,
      "rightModuleId": 56,
      "pos": [
        86,
        2
      ]
    },
    {
      "id": 58,
      "plugin": "Bogaudio",
      "version": "1.1.22",
      "model": "Bogaudio-FMOp",
      "params": [
        {
          "id": 0,
          "value": -0.352436841
        },
        {
          "id": 1,
          "value": 0.0
        },
        {
          "id": 2,
          "value": 0.208499968
        },
        {
          "id": 3,
          "value": 0.316229999
        },
        {
          "id": 4,
          "value": 1.0
        },
        {
          "id": 5,
          "value": 0.316229999
        },
        {
          "id": 6,
          "value": 0.0570000112
        },
        {
          "id": 7,
          "value": 0.0884999111
        },
        {
          "id": 8,
          "value": 0.976499617
        },
        {
          "id": 9,
          "value": 0.0
        },
        {
          "id": 10,
          "value": 0.0
        },
        {
          "id": 11,
          "value": 0.0
        }
      ],
      "leftModuleId": 60,
      "rightModuleId": 59,
      "data": {
        "linearLevel": false
      },
      "pos": [
        33,
        3
      ]
    },
    {
      "id": 59,
      "plugin": "Bogaudio",
      "version": "1.1.22",
      "model": "Bogaudio-FMOp",
      "params": [
        {
          "id": 0,
          "value": -0.431999862
        },
        {
          "id": 1,
          "value": 0.0
        },
        {
          "id": 2,
          "value": 0.0
        },
        {
          "id": 3,
          "value": 0.0
        },
        {
          "id": 4,
          "value": 1.0
        },
        {
          "id": 5,
          "value": 0.103500113
        },
        {
          "id": 6,
          "value": 0.868000209
        },
        {
          "id": 7,
          "value": 0.138999835
        },
        {
          "id": 8,
          "value": 0.782999694
        },
        {
          "id": 9,
          "value": 1.0
        },
        {
          "id": 10,
          "value": 0.0
        },
        {
          "id": 11,
          "value": 1.0
        }
      ],
      "leftModuleId": 58,
      "rightModuleId": 61,
      "data": {
        "linearLevel": false
      },
      "pos": [
        43,
        3
      ]
    },
    {
      "id": 60,
      "plugin": "ImpromptuModular",
      "version": "1.1.1",
      "model": "Gate-Seq-64",
      "params": [
        {
          "id": 0,
          "value": 0.0
        },
        {
          "id": 1,
          "value": 0.0
        },
        {
          "id": 2,
          "value": 0.0
        },
        {
          "id": 3,
          "value": 0.0
        },
        {
          "id": 4,
          "value": 0.0
        },
        {
          "id": 5,
          "value": 0.0
        },
        {
          "id": 6,
          "value": 0.0
        },
        {
          "id": 7,
          "value": 0.0
        },
        {
          "id": 8,
          "value": 0.0
        },
        {
          "id": 9,
          "value": 0.0
        },
        {
          "id": 10,
          "value": 0.0
        },
        {
          "id": 11,
          "value": 0.0
        },
        {
          "id": 12,
          "value": 0.0
        },
        {
          "id": 13,
          "value": 0.0
        },
        {
          "id": 14,
          "value": 0.0
        },
        {
          "id": 15,
          "value": 0.0
        },
        {
          "id": 16,
          "value": 0.0
        },
        {
          "id": 17,
          "value": 0.0
        },
        {
          "id": 18,
          "value": 0.0
        },
        {
          "id": 19,
          "value": 0.0
        },
        {
          "id": 20,
          "value": 0.0
        },
        {
          "id": 21,
          "value": 0.0
        },
        {
          "id": 22,
          "value": 0.0
        },
        {
          "id": 23,
          "value": 0.0
        },
        {
          "id": 24,
          "value": 0.0
        },
        {
          "id": 25,
          "value": 0.0
        },
        {
          "id": 26,
          "value": 0.0
        },
        {
          "id": 27,
          "value": 0.0
        },
        {
          "id": 28,
          "value": 0.0
        },
        {
          "id": 29,
          "value": 0.0
        },
        {
          "id": 30,
          "value": 0.0
        },
        {
          "id": 31,
          "value": 0.0
        },
        {
          "id": 32,
          "value": 0.0
        },
        {
          "id": 33,
          "value": 0.0
        },
        {
          "id": 34,
          "value": 0.0
        },
        {
          "id": 35,
          "value": 0.0
        },
        {
          "id": 36,
          "value": 0.0
        },
        {
          "id": 37,
          "value": 0.0
        },
        {
          "id": 38,
          "value": 0.0
        },
        {
          "id": 39,
          "value": 0.0
        },
        {
          "id": 40,
          "value": 0.0
        },
        {
          "id": 41,
          "value": 0.0
        },
        {
          "id": 42,
          "value": 0.0
        },
        {
          "id": 43,
          "value": 0.0
        },
        {
          "id": 44,
          "value": 0.0
        },
        {
          "id": 45,
          "value": 0.0
        },
        {
          "id": 46,
          "value": 0.0
        },
        {
          "id": 47,
          "value": 0.0
        },
        {
          "id": 48,
          "value": 0.0
        },
        {
          "id": 49,
          "value": 0.0
        },
        {
          "id": 50,
          "value": 0.0
        },
        {
          "id": 51,
          "value": 0.0
        },
        {
          "id": 52,
          "value": 0.0
        },
        {
          "id": 53,
          "value": 0.0
        },
        {
          "id": 54,
          "value": 0.0
        },
        {
          "id": 55,
          "value": 0.0
        },
        {
          "id": 56,
          "value": 0.0
        },
        {
          "id": 57,
          "value": 0.0
        },
        {
          "id": 58,
          "value": 0.0
        },
        {
          "id": 59,
          "value": 0.0
        },
        {
          "id": 60,
          "value": 0.0
        },
        {
          "id": 61,
          "value": 0.0
        },
        {
          "id": 62,
          "value": 0.0
        },
        {
          "id": 63,
          "value": 0.0
        },
        {
          "id": 64,
          "value": 0.0
        },
        {
          "id": 65,
          "value": 0.0
        },
        {
          "id": 66,
          "value": 0.0
        },
        {
          "id": 67,
          "value": 0.0
        },
        {
          "id": 68,
          "value": 0.0
        },
        {
          "id": 69,
          "value": 0.0
        },
        {
          "id": 70,
          "value": 0.0
        },
        {
          "id": 71,
          "value": 1.0
        },
        {
          "id": 73,
          "value": 2.0
        },
        {
          "id": 74,
          "value": 0.0
        },
        {
          "id": 75,
          "value": 0.0
        },
        {
          "id": 76,
          "value": 0.0
        },
        {
          "id": 77,
          "value": 0.0
        },
        {
          "id": 78,
          "value": 0.0
        },
        {
          "id": 79,
          "value": 0.0
        },
        {
          "id": 80,
          "value": 0.0
        },
        {
          "id": 81,
          "value": 0.0
        },
        {
          "id": 82,
          "value": 0.0
        },
        {
          "id": 83,
          "value": 0.0
        }
      ],
      "rightModuleId": 58,
      "data": {
        "panelTheme": 1,
        "autoseq": false,
        "seqCVmethod": 0,
        "pulsesPerStep": 1,
        "running": true,
        "runModeSong3": 0,
        "stepIndexEdit": 23,
        "phraseIndexEdit": 0,
        "sequence": 0,
        "phrases": 4,
        "attributes2": [
          562,
          50,
          562,
          818,
          50,
          562,
          818,
          50,
          50,
          50,
          50,
          50,
          50,
          50,
          50,
          50,
          562,
          50,
          818,
          50,
          50,
          50,
          562,
          818,
          50,
          50,
          50,
          50,
          50,
          50,
          50,
          50,
          50,
          50,
          50,
          50,
          50,
          50,
          50,
          50,
          50,
          50,
          50,
          50,
          50,
          50,
          50,
          50,
          50,
          50,
          50,
          50,
          50,
          50,
          50,
          50,
          50,
          50,
          50,
          50,
          50,
          50,
          50,
          50,
          50,
          50,
          50,
          50,
          50,
          50,
          50,
          50,
          50,
          50,
          50,
          50,
          50,
          50,
          50,
          50,
          50,
          50,
          50,
          50,
          50,
          50,
          50,
          50,
          50,
          50,
          50,
          50,
          50,
          50,
          50,
          50,
          50,
          50,
          50,
          50,
          50,
          50,
          50,
          50,
          50,
          50,
          50,
          50,
          50,
          50,
          50,
          50,
          50,
          50,
          50,
          50,
          50,
          50,
          50,
          50,
          50,
          50,
          50,
          50,
          50,
          50,
          50,
          50,
          50,
          50,
          50,
          50,
          50,
          50,
          50,
          50,
          50,
          50,
          50,
          50,
          50,
          50,
          50,
          50,
          50,
          50,
          50,
          50,
          50,
          50,
          50,
          50,
          50,
          50,
          50,
          50,
          50,
          50,
          50,
          50,
          50,
          50,
          50,
          50,
          50,
          50,
          50,
          50,
          50,
          50,
          50,
          50,
          50,
          50,
          50,
          50,
          50,
          50,
          50,
          50,
          50,
          50,
          50,
          50,
          50,
          50,
          50,
          50,
          50,
          50,
          50,
          50,
          50,
          50,
          50,
          50,
          50,
          50,
          50,
          50,
          50,
          50,
          50,
          50,
          50,
          50,
          50,
          50,
          50,
          50,
          50,
          50,
          50,
          50,
          50,
          50,
          50,
          50,
          50,
          50,
          50,
          50,
          50,
          50,
          50,
          50,
          50,
          50,
          50,
          50,
          50,
          50,
          50,
          50,
          50,
          50,
          50,
          50,
          50,
          50,
          50,
          50,
          50,
          50,
          50,
          50,
          50,
          50,
          50,
          50,
          50,
          50,
          50,
          50,
          50,
          50,
          50,
          50,
          50,
          50,
          50,
          50,
          50,
          50,
          50,
          50,
          50,
          50,
          50,
          50,
          50,
          50,
          50,
          50,
          50,
          50,
          50,
          50,
          50,
          50,
          50,
          50,
          50,
          50,
          50,
          50,
          50,
          50,
          50,
          50,
          50,
          50,
          50,
          50,
          50,
          50,
          50,
          50,
          50,
          50,
          50,
          50,
          50,
          50,
          50,
          50,
          50,
          50,
          50,
          50,
          50,
          50,
          50,
          50,
          50,
          50,
          50,
          50,
          50,
          50,
          50,
          50,
          50,
          50,
          50,
          50,
          50,
          50,
          50,
          50,
          50,
          50,
          50,
          50,
          50,
          50,
          50,
          50,
          50,
          50,
          50,
          50,
          50,
          50,
          50,
          50,
          50,
          50,
          50,
          50,
          50,
          50,
          50,
          50,
          50,
          50,
          50,
          50,
          50,
          50,
          50,
          50,
          50,
          50,
          50,
          50,
          50,
          50,
          50,
          50,
          50,
          50,
          50,
          50,
          50,
          50,
          50,
          50,
          50,
          50,
          50,
          50,
          50,
          50,
          50,
          50,
          50,
          50,
          50,
          50,
          50,
          50,
          50,
          50,
          50,
          50,
          50,
          50,
          50,
          50,
          50,
          50,
          50,
          50,
          50,
          50,
          50,
          50,
          50,
          50,
          50,
          50,
          50,
          50,
          50,
          50,
          50,
          50,
          50,
          50,
          50,
          50,
          50,
          50,
          50,
          50,
          50,
          50,
          50,
          50,
          50,
          50,
          50,
          50,
          50,
          50,
          50,
          50,
          50,
          50,
          50,
          50,
          50,
          50,
          50,
          50,
          50,
          50,
          50,
          50,
          50,
          50,
          50,
          50,
          50,
          50,
          50,
          50,
          50,
          50,
          50,
          50,
          50,
          50,
          50,
          50,
          50,
          50,
          50,
          50,
          50,
          50,
          50,
          50,
          50,
          50,
          50,
          50,
          50,
          50,
          50,
          50,
          50,
          50,
          50,
          50,
          50,
          50,
          50,
          50,
          50,
          50,
          50,
          50,
          50,
          50,
          50,
          50,
          50,
          50,
          50,
          50,
          50,
          50,
          50,
          50,
          50,
          50,
          50,
          50,
          50,
          50,
          50,
          50,
          50,
          50,
          50,
          50,
          50,
          50,
          50,
          50,
          50,
          50,
          50,
          50,
          50,
          50,
          50,
          50,
          50,
          50,
          50,
          50,
          50,
          50,
          50,
          50,
          50,
          50,
          50,
          50,
          50,
          50,
          50,
          50,
          50,
          50,
          50,
          50,
          50,
          50,
          50,
          50,
          50,
          50,
          50,
          50,
          50,
          50,
          50,
          50,
          50,
          50,
          50,
          50,
          50,
          50,
          50,
          50,
          50,
          50,
          50,
          50,
          50,
          50,
          50,
          50,
          50,
          50,
          50,
          50,
          50,
          50,
          50,
          50,
          50,
          50,
          50,
          50,
          50,
          50,
          50,
          50,
          50,
          50,
          50,
          50,
          50,
          50,
          50,
          50,
          50,
          50,
          50,
          50,
          50,
          50,
          50,
          50,
          50,
          50,
          50,
          50,
          50,
          50,
          50,
          50,
          50,
          50,
          50,
          50,
          50,
          50,
          50,
          50,
          50,
          50,
          50,
          50,
          50,
          50,
          50,
          50,
          50,
          50,
          50,
          50,
          50,
          50,
          50,
          50,
          50,
          50,
          50,
          50,
          50,
          50,
          50,
          50,
          50,
          50,
          50,
          50,
          50,
          50,
          50,
          50,
          50,
          50,
          50,
          50,
          50,
          50,
          50,
          50,
          50,
          50,
          50,
          50,
          50,
          50,
          50,
          50,
          50,
          50,
          50,
          50,
          50,
          50,
          50,
          50,
          50,
          50,
          50,
          50,
          50,
          50,
          50,
          50,
          50,
          50,
          50,
          50,
          50,
          50,
          50,
          50,
          50,
          50,
          50,
          50,
          50,
          50,
          50,
          50,
          50,
          50,
          50,
          50,
          50,
          50,
          50,
          50,
          50,
          50,
          50,
          50,
          50,
          50,
          50,
          50,
          50,
          50,
          50,
          50,
          50,
          50,
          50,
          50,
          50,
          50,
          50,
          50,
          50,
          50,
          50,
          50,
          50,
          50,
          50,
          50,
          50,
          50,
          50,
          50,
          50,
          50,
          50,
          50,
          50,
          50,
          50,
          50,
          50,
          50,
          50,
          50,
          50,
          50,
          50,
          50,
          50,
          50,
          50,
          50,
          50,
          50,
          50,
          50,
          50,
          50,
          50,
          50,
          50,
          50,
          50,
          50,
          50,
          50,
          50,
          50,
          50,
          50,
          50,
          50,
          50,
          50,
          50,
          50,
          50,
          50,
          50,
          50,
          50,
          50,
          50,
          50,
          50,
          50,
          50,
          50,
          50,
          50,
          50,
          50,
          50,
          50,
          50,
          50,
          50,
          50,
          50,
          50,
          50,
          50,
          50,
          50,
          50,
          50,
          50,
          50,
          50,
          50,
          50,
          50,
          50,
          50,
          50,
          50,
          50,
          50,
          50,
          50,
          50,
          50,
          50,
          50,
          50,
          50,
          50,
          50,
          50,
          50,
          50,
          50,
          50,
          50,
          50,
          50,
          50,
          50,
          50,
          50,
          50,
          50,
          50,
          50,
          50,
          50,
          50,
          50,
          50,
          50,
          50,
          50,
          50,
          50,
          50,
          50,
          50,
          50,
          50,
          50,
          50,
          50,
          50,
          50,
          50,
          50,
          50,
          50,
          50,
          50,
          50,
          50,
          50,
          50,
          50,
          50,
          50,
          50,
          50,
          50,
          50,
          50,
          50,
          50,
          50,
          50,
          50,
          50,
          50,
          50,
          50,
          50,
          50,
          50,
          50,
          50,
          50,
          50,
          50,
          50,
          50,
          50,
          50,
          50,
          50,
          50,
          50,
          50,
          50,
          50,
          50,
          50,
          50,
          50,
          50,
          50,
          50,
          50,
          50,
          50,
          50,
          50,
          50,
          50,
          50,
          50,
          50,
          50,
          50,
          50,
          50,
          50,
          50,
          50,
          50,
          50,
          50,
          50,
          50,
          50,
          50,
          50,
          50,
          50,
          50,
          50,
          50,
          50,
          50,
          50,
          50,
          50,
          50,
          50,
          50,
          50,
          50,
          50,
          50,
          50,
          50,
          50,
          50,
          50,
          50,
          50,
          50,
          50,
          50,
          50,
          50,
          50,
          50,
          50,
          50,
          50,
          50,
          50,
          50,
          50,
          50,
          50,
          50,
          50,
          50,
          50,
          50,
          50,
          50,
          50,
          50,
          50,
          50,
          50,
          50,
          50,
          50,
          50,
          50,
          50,
          50,
          50,
          50,
          50,
          50,
          50,
          50,
          50,
          50,
          50,
          50,
          50,
          50,
          50,
          50,
          50,
          50,
          50,
          50,
          50,
          50,
          50,
          50,
          50,
          50,
          50,
          50,
          50,
          50,
          50,
          50,
          50,
          50,
          50,
          50,
          50,
          50,
          50,
          50,
          50,
          50,
          50,
          50,
          50,
          50,
          50,
          50,
          50,
          50,
          50,
          50,
          50,
          50,
          50,
          50,
          50,
          50,
          50,
          50,
          50,
          50,
          50,
          50,
          50,
          50,
          50,
          50,
          50,
          50,
          50,
          50,
          50,
          50,
          50,
          50,
          50,
          50,
          50,
          50,
          50,
          50,
          50,
          50,
          50,
          50,
          50,
          50,
          50,
          50,
          50,
          50,
          50,
          50,
          50,
          50,
          50,
          50,
          50,
          50,
          50,
          50,
          50,
          50,
          50,
          50,
          50,
          50,
          50,
          50,
          50,
          50,
          50,
          50,
          50,
          50,
          50,
          50,
          50,
          50,
          50,
          50,
          50,
          50,
          50,
          50,
          50,
          50,
          50,
          50,
          50,
          50,
          50,
          50,
          50,
          50,
          50,
          50,
          50,
          50,
          50,
          50,
          50,
          50,
          50,
          50,
          50,
          50,
          50,
          50,
          50,
          50,
          50,
          50,
          50,
          50,
          50,
          50,
          50,
          50,
          50,
          50,
          50,
          50,
          50,
          50,
          50,
          50,
          50,
          50,
          50,
          50,
          50,
          50,
          50,
          50,
          50,
          50,
          50,
          50,
          50,
          50,
          50,
          50,
          50,
          50,
          50,
          50,
          50,
          50,
          50,
          50,
          50,
          50,
          50,
          50,
          50,
          50,
          50,
          50,
          50,
          50,
          50,
          50,
          50,
          50,
          50,
          50,
          50,
          50,
          50,
          50,
          50,
          50,
          50,
          50,
          50,
          50,
          50,
          50,
          50,
          50,
          50,
          50,
          50,
          50,
          50,
          50,
          50,
          50,
          50,
          50,
          50,
          50,
          50,
          50,
          50,
          50,
          50,
          50,
          50,
          50,
          50,
          50,
          50,
          50,
          50,
          50,
          50,
          50,
          50,
          50,
          50,
          50,
          50,
          50,
          50,
          50,
          50,
          50,
          50,
          50,
          50,
          50,
          50,
          50,
          50,
          50,
          50,
          50,
          50,
          50,
          50,
          50,
          50,
          50,
          50,
          50,
          50,
          50,
          50,
          50,
          50,
          50,
          50,
          50,
          50,
          50,
          50,
          50,
          50,
          50,
          50,
          50,
          50,
          50,
          50,
          50,
          50,
          50,
          50,
          50,
          50,
          50,
          50,
          50,
          50,
          50,
          50,
          50,
          50,
          50,
          50,
          50,
          50,
          50,
          50,
          50,
          50,
          50,
          50,
          50,
          50,
          50,
          50,
          50,
          50,
          50,
          50,
          50,
          50,
          50,
          50,
          50,
          50,
          50,
          50,
          50,
          50,
          50,
          50,
          50,
          50,
          50,
          50,
          50,
          50,
          50,
          50,
          50,
          50,
          50,
          50,
          50,
          50,
          50,
          50,
          50,
          50,
          50,
          50,
          50,
          50,
          50,
          50,
          50,
          50,
          50,
          50,
          50,
          50,
          50,
          50,
          50,
          50,
          50,
          50,
          50,
          50,
          50,
          50,
          50,
          50,
          50,
          50,
          50,
          50,
          50,
          50,
          50,
          50,
          50,
          50,
          50,
          50,
          50,
          50,
          50,
          50,
          50,
          50,
          50,
          50,
          50,
          50,
          50,
          50,
          50,
          50,
          50,
          50,
          50,
          50,
          50,
          50,
          50,
          50,
          50,
          50,
          50,
          50,
          50,
          50,
          50,
          50,
          50,
          50,
          50,
          50,
          50,
          50,
          50,
          50,
          50,
          50,
          50,
          50,
          50,
          50,
          50,
          50,
          50,
          50,
          50,
          50,
          50,
          50,
          50,
          50,
          50,
          50,
          50,
          50,
          50,
          50,
          50,
          50,
          50,
          50,
          50,
          50,
          50,
          50,
          50,
          50,
          50,
          50,
          50,
          50,
          50,
          50,
          50,
          50,
          50,
          50,
          50,
          50,
          50,
          50,
          50,
          50,
          50,
          50,
          50,
          50,
          50,
          50,
          50,
          50,
          50,
          50,
          50,
          50,
          50,
          50,
          50,
          50,
          50,
          50,
          50,
          50,
          50,
          50,
          50,
          50,
          50,
          50,
          50,
          50,
          50,
          50,
          50,
          50,
          50,
          50,
          50,
          50,
          50,
          50,
          50,
          50,
          50,
          50,
          50,
          50,
          50,
          50,
          50,
          50,
          50,
          50,
          50,
          50,
          50,
          50,
          50,
          50,
          50,
          50,
          50,
          50,
          50,
          50,
          50,
          50,
          50,
          50,
          50,
          50,
          50,
          50,
          50,
          50,
          50,
          50,
          50,
          50,
          50,
          50,
          50,
          50,
          50,
          50,
          50,
          50,
          50,
          50,
          50,
          50,
          50,
          50,
          50,
          50,
          50,
          50,
          50,
          50,
          50,
          50,
          50,
          50,
          50,
          50,
          50,
          50,
          50,
          50,
          50,
          50,
          50,
          50,
          50,
          50,
          50,
          50,
          50,
          50,
          50,
          50,
          50,
          50,
          50,
          50,
          50,
          50,
          50,
          50,
          50,
          50,
          50,
          50,
          50,
          50,
          50,
          50,
          50,
          50,
          50,
          50,
          50,
          50,
          50,
          50,
          50,
          50,
          50,
          50,
          50,
          50,
          50,
          50,
          50,
          50,
          50,
          50,
          50,
          50,
          50,
          50,
          50,
          50,
          50,
          50,
          50,
          50,
          50,
          50,
          50,
          50,
          50,
          50,
          50,
          50,
          50,
          50,
          50,
          50,
          50,
          50,
          50,
          50,
          50,
          50,
          50,
          50,
          50,
          50,
          50,
          50,
          50,
          50,
          50,
          50,
          50,
          50,
          50,
          50,
          50,
          50,
          50,
          50,
          50,
          50,
          50,
          50,
          50,
          50,
          50,
          50,
          50,
          50,
          50,
          50,
          50,
          50,
          50,
          50,
          50,
          50,
          50,
          50,
          50,
          50,
          50,
          50,
          50,
          50,
          50,
          50,
          50,
          50,
          50,
          50,
          50,
          50,
          50,
          50,
          50,
          50,
          50,
          50,
          50,
          50,
          50,
          50,
          50,
          50,
          50,
          50,
          50,
          50,
          50,
          50,
          50,
          50,
          50,
          50,
          50,
          50,
          50,
          50,
          50,
          50,
          50,
          50,
          50,
          50,
          50,
          50,
          50,
          50,
          50,
          50,
          50,
          50,
          50,
          50,
          50,
          50,
          50,
          50,
          50,
          50,
          50,
          50,
          50,
          50,
          50,
          50,
          50,
          50,
          50,
          50,
          50,
          50,
          50,
          50,
          50,
          50,
          50,
          50,
          50,
          50,
          50,
          50,
          50,
          50,
          50,
          50,
          50,
          50,
          50,
          50,
          50,
          50,
          50,
          50,
          50,
          50,
          50,
          50,
          50,
          50,
          50,
          50,
          50,
          50,
          50,
          50,
          50,
          50,
          50,
          50,
          50,
          50,
          50,
          50,
          50,
          50,
          50,
          50,
          50,
          50,
          50,
          50,
          50,
          50,
          50,
          50,
          50,
          50,
          50,
          50,
          50,
          50,
          50,
          50,
          50,
          50,
          50,
          50,
          50,
          50,
          50,
          50,
          50,
          50,
          50,
          50,
          50,
          50,
          50,
          50,
          50,
          50,
          50,
          50,
          50,
          50,
          50,
          50,
          50,
          50,
          50,
          50,
          50,
          50,
          50,
          50,
          50,
          50,
          50,
          50,
          50,
          50,
          50,
          50,
          50,
          50,
          50,
          50,
          50,
          50,
          50,
          50,
          50,
          50,
          50,
          50,
          50,
          50,
          50,
          50,
          50,
          50,
          50,
          50,
          50,
          50,
          50,
          50,
          50,
          50,
          50,
          50,
          50,
          50,
          50,
          50,
          50,
          50,
          50,
          50,
          50,
          50,
          50,
          50,
          50,
          50,
          50,
          50,
          50,
          50,
          50,
          50,
          50,
          50,
          50,
          50,
          50,
          50,
          50,
          50,
          50,
          50,
          50,
          50,
          50,
          50,
          50,
          50,
          50,
          50,
          50,
          50,
          50,
          50,
          50,
          50,
          50,
          50,
          50,
          50,
          50,
          50,
          50,
          50,
          50,
          50,
          50,
          50,
          50,
          50,
          50,
          50,
          50,
          50,
          50,
          50,
          50,
          50,
          50,
          50,
          50,
          50,
          50,
          50,
          50,
          50,
          50,
          50,
          50,
          50,
          50,
          50,
          50,
          50,
          50,
          50,
          50,
          50,
          50,
          50,
          50,
          50,
          50,
          50,
          50,
          50,
          50,
          50,
          50,
          50,
          50,
          50,
          50,
          50,
          50,
          50,
          50,
          50,
          50,
          50,
          50,
          50,
          50,
          50,
          50,
          50,
          50,
          50,
          50,
          50,
          50,
          50,
          50,
          50,
          50,
          50,
          50,
          50,
          50,
          50,
          50,
          50
        ],
        "sequences": [
          8,
          16,
          16,
          16,
          16,
          16,
          16,
          16,
          16,
          16,
          16,
          16,
          16,
          16,
          16,
          16,
          16,
          16,
          16,
          16,
          16,
          16,
          16,
          16,
          16,
          16,
          16,
          16,
          16,
          16,
          16,
          16
        ],
        "phrase2": [
          0,
          0,
          0,
          0,
          0,
          0,
          0,
          0,
          0,
          0,
          0,
          0,
          0,
          0,
          0,
          0,
          0,
          0,
          0,
          0,
          0,
          0,
          0,
          0,
          0,
          0,
          0,
          0,
          0,
          0,
          0,
          0,
          0,
          0,
          0,
          0,
          0,
          0,
          0,
          0,
          0,
          0,
          0,
          0,
          0,
          0,
          0,
          0,
          0,
          0,
          0,
          0,
          0,
          0,
          0,
          0,
          0,
          0,
          0,
          0,
          0,
          0,
          0,
          0
        ],
        "resetOnRun": false,
        "stopAtEndOfSong": false
      },
      "pos": [
        9,
        3
      ]
    },
    {
      "id": 61,
      "plugin": "ML_modules",
      "version": "1.0.2",
      "model": "SH8",
      "params": [],
      "leftModuleId": 59,
      "rightModuleId": 62,
      "pos": [
        53,
        3
      ]
    },
    {
      "id": 62,
      "plugin": "EricaCopies",
      "version": "1.0.2",
      "model": "PicoDrums",
      "params": [
        {
          "id": 0,
          "value": 4.24492216
        },
        {
          "id": 1,
          "value": 0.0
        },
        {
          "id": 2,
          "value": 1.0
        }
      ],
      "leftModuleId": 61,
      "rightModuleId": 65,
      "data": {
        "mode": 0,
        "pitch_value1": 10.0,
        "pitch_value2": 10.0,
        "sample_value1": 0.707487106,
        "sample_value2": 8.91943359,
        "last_sample_value1": -9.29251289,
        "last_sample_value2": -1.08056641,
        "volume_value1": 1.25,
        "volume_value2": 1.25,
        "decay_value1": 0.100000001,
        "decay_value2": 0.100000001,
        "last_decay_value1": 0.0,
        "last_decay_value2": 0.0,
        "CVparam": 0
      },
      "pos": [
        61,
        3
      ]
    },
    {
      "id": 63,
      "plugin": "Bogaudio",
      "version": "1.1.22",
      "model": "Bogaudio-Noise",
      "params": [],
      "leftModuleId": 66,
      "pos": [
        77,
        3
      ]
    },
    {
      "id": 64,
      "plugin": "VultModulesFree",
      "version": "1.2.0",
      "model": "Trummor",
      "params": [
        {
          "id": 0,
          "value": 0.688499987
        },
        {
          "id": 1,
          "value": 0.100000001
        },
        {
          "id": 2,
          "value": 0.0
        },
        {
          "id": 3,
          "value": 0.200000003
        },
        {
          "id": 4,
          "value": 0.200000003
        },
        {
          "id": 5,
          "value": 0.066000022
        },
        {
          "id": 6,
          "value": 0.0
        },
        {
          "id": 7,
          "value": 0.0
        },
        {
          "id": 8,
          "value": 0.0318000019
        },
        {
          "id": 9,
          "value": 0.5
        },
        {
          "id": 10,
          "value": 0.0
        },
        {
          "id": 11,
          "value": -0.699999988
        },
        {
          "id": 12,
          "value": 0.0
        },
        {
          "id": 13,
          "value": 0.0
        },
        {
          "id": 14,
          "value": 0.0
        },
        {
          "id": 15,
          "value": 0.0
        },
        {
          "id": 16,
          "value": 0.0
        },
        {
          "id": 17,
          "value": 1.0
        },
        {
          "id": 18,
          "value": 0.194999993
        },
        {
          "id": 19,
          "value": 0.0
        },
        {
          "id": 20,
          "value": 4.0
        }
      ],
      "pos": [
        81,
        3
      ]
    },
    {
      "id": 65,
      "plugin": "Bogaudio",
      "version": "1.1.22",
      "model": "Bogaudio-DADSRH",
      "params": [
        {
          "id": 0,
          "value": 0.0
        },
        {
          "id": 1,
          "value": 0.100500017
        },
        {
          "id": 2,
          "value": 0.0
        },
        {
          "id": 3,
          "value": 0.0
        },
        {
          "id": 4,
          "value": 0.0960000008
        },
        {
          "id": 5,
          "value": 0.447210014
        },
        {
          "id": 6,
          "value": 1.0
        },
        {
          "id": 7,
          "value": 1.0
        },
        {
          "id": 8,
          "value": 1.0
        },
        {
          "id": 9,
          "value": 0.0
        },
        {
          "id": 10,
          "value": 1.0
        },
        {
          "id": 11,
          "value": 1.0
        },
        {
          "id": 12,
          "value": 1.0
        },
        {
          "id": 13,
          "value": 1.0
        }
      ],
      "leftModuleId": 62,
      "rightModuleId": 66,
      "data": {
        "triggerOnLoad": true,
        "shouldTriggerOnLoad": false
      },
      "pos": [
        64,
        3
      ]
    },
    {
      "id": 66,
      "plugin": "Fundamental",
      "version": "1.2.0",
      "model": "VCA-1",
      "params": [
        {
          "id": 0,
          "value": 1.0
        },
        {
          "id": 1,
          "value": 1.0
        }
      ],
      "leftModuleId": 65,
      "rightModuleId": 63,
      "pos": [
        74,
        3
      ]
    }
  ],
  "cables": [
    {
      "id": 68,
      "outputModuleId": 26,
      "outputId": 1,
      "inputModuleId": 25,
      "inputId": 0,
      "color": "#c91847"
    },
    {
      "id": 96,
      "outputModuleId": 23,
      "outputId": 0,
      "inputModuleId": 20,
      "inputId": 0,
      "color": "#c9b70e"
    },
    {
      "id": 97,
      "outputModuleId": 23,
      "outputId": 1,
      "inputModuleId": 20,
      "inputId": 1,
      "color": "#0c8e15"
    },
    {
      "id": 98,
      "outputModuleId": 24,
      "outputId": 0,
      "inputModuleId": 23,
      "inputId": 4,
      "color": "#c9b70e"
    },
    {
      "id": 99,
      "outputModuleId": 24,
      "outputId": 1,
      "inputModuleId": 23,
      "inputId": 5,
      "color": "#0c8e15"
    },
    {
      "id": 100,
      "outputModuleId": 23,
      "outputId": 2,
      "inputModuleId": 35,
      "inputId": 0,
      "color": "#0986ad"
    },
    {
      "id": 101,
      "outputModuleId": 23,
      "outputId": 3,
      "inputModuleId": 35,
      "inputId": 1,
      "color": "#c9b70e"
    },
    {
      "id": 102,
      "outputModuleId": 35,
      "outputId": 0,
      "inputModuleId": 23,
      "inputId": 0,
      "color": "#0c8e15"
    },
    {
      "id": 103,
      "outputModuleId": 35,
      "outputId": 1,
      "inputModuleId": 23,
      "inputId": 1,
      "color": "#c91847"
    },
    {
      "id": 110,
      "outputModuleId": 27,
      "outputId": 2,
      "inputModuleId": 37,
      "inputId": 1,
      "color": "#0986ad"
    },
    {
      "id": 114,
      "outputModuleId": 38,
      "outputId": 0,
      "inputModuleId": 34,
      "inputId": 2,
      "color": "#c91847"
    },
    {
      "id": 111,
      "outputModuleId": 27,
      "outputId": 0,
      "inputModuleId": 39,
      "inputId": 0,
      "color": "#c9b70e"
    },
    {
      "id": 85,
      "outputModuleId": 39,
      "outputId": 0,
      "inputModuleId": 34,
      "inputId": 3,
      "color": "#0c8e15"
    },
    {
      "id": 118,
      "outputModuleId": 37,
      "outputId": 0,
      "inputModuleId": 38,
      "inputId": 2,
      "color": "#0c8e15"
    },
    {
      "id": 119,
      "outputModuleId": 34,
      "outputId": 0,
      "inputModuleId": 40,
      "inputId": 0,
      "color": "#0c8e15"
    },
    {
      "id": 122,
      "outputModuleId": 40,
      "outputId": 0,
      "inputModuleId": 32,
      "inputId": 1,
      "color": "#c9b70e"
    },
    {
      "id": 123,
      "outputModuleId": 26,
      "outputId": 0,
      "inputModuleId": 41,
      "inputId": 7,
      "color": "#0986ad"
    },
    {
      "id": 121,
      "outputModuleId": 40,
      "outputId": 0,
      "inputModuleId": 41,
      "inputId": 5,
      "color": "#0986ad"
    },
    {
      "id": 126,
      "outputModuleId": 40,
      "outputId": 0,
      "inputModuleId": 41,
      "inputId": 6,
      "color": "#c91847"
    },
    {
      "id": 133,
      "outputModuleId": 42,
      "outputId": 0,
      "inputModuleId": 34,
      "inputId": 5,
      "color": "#0986ad"
    },
    {
      "id": 135,
      "outputModuleId": 26,
      "outputId": 0,
      "inputModuleId": 27,
      "inputId": 1,
      "color": "#c91847"
    },
    {
      "id": 136,
      "outputModuleId": 26,
      "outputId": 2,
      "inputModuleId": 27,
      "inputId": 0,
      "color": "#0986ad"
    },
    {
      "id": 143,
      "outputModuleId": 38,
      "outputId": 1,
      "inputModuleId": 45,
      "inputId": 4,
      "color": "#c9b70e"
    },
    {
      "id": 144,
      "outputModuleId": 44,
      "outputId": 0,
      "inputModuleId": 45,
      "inputId": 5,
      "color": "#0c8e15"
    },
    {
      "id": 145,
      "outputModuleId": 45,
      "outputId": 0,
      "inputModuleId": 23,
      "inputId": 9,
      "color": "#c91847"
    },
    {
      "id": 142,
      "outputModuleId": 44,
      "outputId": 2,
      "inputModuleId": 46,
      "inputId": 1,
      "color": "#0986ad"
    },
    {
      "id": 147,
      "outputModuleId": 26,
      "outputId": 1,
      "inputModuleId": 44,
      "inputId": 1,
      "color": "#c9b70e"
    },
    {
      "id": 148,
      "outputModuleId": 26,
      "outputId": 3,
      "inputModuleId": 44,
      "inputId": 0,
      "color": "#0c8e15"
    },
    {
      "id": 149,
      "outputModuleId": 42,
      "outputId": 1,
      "inputModuleId": 45,
      "inputId": 2,
      "color": "#c91847"
    },
    {
      "id": 151,
      "outputModuleId": 26,
      "outputId": 3,
      "inputModuleId": 47,
      "inputId": 0,
      "color": "#c9b70e"
    },
    {
      "id": 152,
      "outputModuleId": 42,
      "outputId": 4,
      "inputModuleId": 47,
      "inputId": 3,
      "color": "#0c8e15"
    },
    {
      "id": 153,
      "outputModuleId": 26,
      "outputId": 1,
      "inputModuleId": 47,
      "inputId": 8,
      "color": "#c91847"
    },
    {
      "id": 154,
      "outputModuleId": 42,
      "outputId": 4,
      "inputModuleId": 47,
      "inputId": 4,
      "color": "#0986ad"
    },
    {
      "id": 124,
      "outputModuleId": 41,
      "outputId": 0,
      "inputModuleId": 23,
      "inputId": 7,
      "color": "#c9b70e"
    },
    {
      "id": 146,
      "outputModuleId": 46,
      "outputId": 0,
      "inputModuleId": 48,
      "inputId": 2,
      "color": "#0986ad"
    },
    {
      "id": 155,
      "outputModuleId": 48,
      "outputId": 0,
      "inputModuleId": 38,
      "inputId": 3,
      "color": "#c9b70e"
    },
    {
      "id": 157,
      "outputModuleId": 26,
      "outputId": 3,
      "inputModuleId": 48,
      "inputId": 1,
      "color": "#c9b70e"
    },
    {
      "id": 158,
      "outputModuleId": 43,
      "outputId": 0,
      "inputModuleId": 38,
      "inputId": 6,
      "color": "#0c8e15"
    },
    {
      "id": 159,
      "outputModuleId": 27,
      "outputId": 1,
      "inputModuleId": 43,
      "inputId": 0,
      "color": "#c91847"
    },
    {
      "id": 160,
      "outputModuleId": 42,
      "outputId": 3,
      "inputModuleId": 40,
      "inputId": 1,
      "color": "#c91847"
    },
    {
      "id": 161,
      "outputModuleId": 50,
      "outputId": 0,
      "inputModuleId": 49,
      "inputId": 0,
      "color": "#0986ad"
    },
    {
      "id": 162,
      "outputModuleId": 50,
      "outputId": 2,
      "inputModuleId": 51,
      "inputId": 1,
      "color": "#c9b70e"
    },
    {
      "id": 164,
      "outputModuleId": 49,
      "outputId": 0,
      "inputModuleId": 23,
      "inputId": 6,
      "color": "#c91847"
    },
    {
      "id": 166,
      "outputModuleId": 26,
      "outputId": 1,
      "inputModuleId": 50,
      "inputId": 1,
      "color": "#c9b70e"
    },
    {
      "id": 163,
      "outputModuleId": 51,
      "outputId": 0,
      "inputModuleId": 38,
      "inputId": 5,
      "color": "#0c8e15"
    },
    {
      "id": 176,
      "outputModuleId": 38,
      "outputId": 3,
      "inputModuleId": 49,
      "inputId": 1,
      "color": "#0986ad"
    },
    {
      "id": 177,
      "outputModuleId": 26,
      "outputId": 0,
      "inputModuleId": 55,
      "inputId": 0,
      "color": "#c9b70e"
    },
    {
      "id": 178,
      "outputModuleId": 26,
      "outputId": 2,
      "inputModuleId": 55,
      "inputId": 1,
      "color": "#0c8e15"
    },
    {
      "id": 180,
      "outputModuleId": 26,
      "outputId": 0,
      "inputModuleId": 56,
      "inputId": 0,
      "color": "#0986ad"
    },
    {
      "id": 181,
      "outputModuleId": 55,
      "outputId": 6,
      "inputModuleId": 57,
      "inputId": 2,
      "color": "#c9b70e"
    },
    {
      "id": 182,
      "outputModuleId": 56,
      "outputId": 5,
      "inputModuleId": 57,
      "inputId": 3,
      "color": "#0c8e15"
    },
    {
      "id": 183,
      "outputModuleId": 26,
      "outputId": 2,
      "inputModuleId": 56,
      "inputId": 1,
      "color": "#c91847"
    },
    {
      "id": 185,
      "outputModuleId": 53,
      "outputId": 0,
      "inputModuleId": 32,
      "inputId": 0,
      "color": "#0c8e15"
    },
    {
      "id": 186,
      "outputModuleId": 26,
      "outputId": 1,
      "inputModuleId": 60,
      "inputId": 0,
      "color": "#c91847"
    },
    {
      "id": 189,
      "outputModuleId": 60,
      "outputId": 0,
      "inputModuleId": 59,
      "inputId": 5,
      "color": "#c9b70e"
    },
    {
      "id": 194,
      "outputModuleId": 26,
      "outputId": 2,
      "inputModuleId": 61,
      "inputId": 8,
      "color": "#c9b70e"
    },
    {
      "id": 191,
      "outputModuleId": 58,
      "outputId": 0,
      "inputModuleId": 59,
      "inputId": 6,
      "color": "#c91847"
    },
    {
      "id": 196,
      "outputModuleId": 60,
      "outputId": 1,
      "inputModuleId": 62,
      "inputId": 1,
      "color": "#0c8e15"
    },
    {
      "id": 167,
      "outputModuleId": 26,
      "outputId": 3,
      "inputModuleId": 54,
      "inputId": 3,
      "color": "#c9b70e"
    },
    {
      "id": 170,
      "outputModuleId": 53,
      "outputId": 0,
      "inputModuleId": 24,
      "inputId": 6,
      "color": "#c9b70e"
    },
    {
      "id": 200,
      "outputModuleId": 52,
      "outputId": 0,
      "inputModuleId": 53,
      "inputId": 5,
      "color": "#0986ad"
    },
    {
      "id": 179,
      "outputModuleId": 57,
      "outputId": 1,
      "inputModuleId": 50,
      "inputId": 0,
      "color": "#c91847"
    },
    {
      "id": 203,
      "outputModuleId": 26,
      "outputId": 3,
      "inputModuleId": 53,
      "inputId": 0,
      "color": "#0986ad"
    },
    {
      "id": 175,
      "outputModuleId": 38,
      "outputId": 2,
      "inputModuleId": 52,
      "inputId": 0,
      "color": "#c91847"
    },
    {
      "id": 204,
      "outputModuleId": 54,
      "outputId": 3,
      "inputModuleId": 38,
      "inputId": 4,
      "color": "#0986ad"
    },
    {
      "id": 208,
      "outputModuleId": 26,
      "outputId": 1,
      "inputModuleId": 61,
      "inputId": 9,
      "color": "#c91847"
    },
    {
      "id": 210,
      "outputModuleId": 63,
      "outputId": 5,
      "inputModuleId": 61,
      "inputId": 2,
      "color": "#c9b70e"
    },
    {
      "id": 207,
      "outputModuleId": 63,
      "outputId": 0,
      "inputModuleId": 61,
      "inputId": 1,
      "color": "#0c8e15"
    },
    {
      "id": 188,
      "outputModuleId": 59,
      "outputId": 0,
      "inputModuleId": 24,
      "inputId": 7,
      "color": "#c9b70e"
    },
    {
      "id": 195,
      "outputModuleId": 61,
      "outputId": 0,
      "inputModuleId": 59,
      "inputId": 4,
      "color": "#0c8e15"
    },
    {
      "id": 192,
      "outputModuleId": 38,
      "outputId": 0,
      "inputModuleId": 61,
      "inputId": 0,
      "color": "#c91847"
    },
    {
      "id": 213,
      "outputModuleId": 42,
      "outputId": 5,
      "inputModuleId": 59,
      "inputId": 1,
      "color": "#0986ad"
    },
    {
      "id": 125,
      "outputModuleId": 41,
      "outputId": 1,
      "inputModuleId": 23,
      "inputId": 8,
      "color": "#0c8e15"
    },
    {
      "id": 214,
      "outputModuleId": 65,
      "outputId": 1,
      "inputModuleId": 66,
      "inputId": 0,
      "color": "#0c8e15"
    },
    {
      "id": 209,
      "outputModuleId": 61,
      "outputId": 1,
      "inputModuleId": 64,
      "inputId": 4,
      "color": "#0986ad"
    },
    {
      "id": 212,
      "outputModuleId": 61,
      "outputId": 2,
      "inputModuleId": 64,
      "inputId": 3,
      "color": "#c91847"
    },
    {
      "id": 205,
      "outputModuleId": 60,
      "outputId": 0,
      "inputModuleId": 64,
      "inputId": 0,
      "color": "#c9b70e"
    },
    {
      "id": 206,
      "outputModuleId": 64,
      "outputId": 0,
      "inputModuleId": 24,
      "inputId": 8,
      "color": "#0c8e15"
    },
    {
      "id": 211,
      "outputModuleId": 26,
      "outputId": 1,
      "inputModuleId": 61,
      "inputId": 10,
      "color": "#0c8e15"
    },
    {
      "id": 150,
      "outputModuleId": 47,
      "outputId": 0,
      "inputModuleId": 24,
      "inputId": 4,
      "color": "#0986ad"
    },
    {
      "id": 224,
      "outputModuleId": 60,
      "outputId": 1,
      "inputModuleId": 65,
      "inputId": 0,
      "color": "#0986ad"
    },
    {
      "id": 197,
      "outputModuleId": 66,
      "outputId": 0,
      "inputModuleId": 24,
      "inputId": 5,
      "color": "#c91847"
    },
    {
      "id": 225,
      "outputModuleId": 62,
      "outputId": 0,
      "inputModuleId": 66,
      "inputId": 1,
      "color": "#c9b70e"
    }
  ]
}