{
  "version": "1.1.6",
  "modules": [
    {
      "id": 11,
      "plugin": "Core",
      "version": "1.1.6",
      "model": "AudioInterface",
      "params": [],
      "leftModuleId": 41,
      "data": {
        "audio": {
          "driver": 4,
          "deviceName": "system",
          "offset": 0,
          "maxChannels": 8,
          "sampleRate": 48000,
          "blockSize": 1024
        }
      },
      "pos": [
        88,
        0
      ]
    },
    {
      "id": 12,
      "plugin": "Valley",
      "version": "1.0.1",
      "model": "Plateau",
      "params": [
        {
          "id": 0,
          "value": 0.0
        },
        {
          "id": 1,
          "value": 0.324000061
        },
        {
          "id": 2,
          "value": 0.0
        },
        {
          "id": 3,
          "value": 8.70999908
        },
        {
          "id": 4,
          "value": 10.0
        },
        {
          "id": 5,
          "value": 0.5
        },
        {
          "id": 6,
          "value": 10.0
        },
        {
          "id": 7,
          "value": 0.549950004
        },
        {
          "id": 8,
          "value": 10.0
        },
        {
          "id": 9,
          "value": 8.87500095
        },
        {
          "id": 10,
          "value": 0.0
        },
        {
          "id": 11,
          "value": 0.5
        },
        {
          "id": 12,
          "value": 0.5
        },
        {
          "id": 13,
          "value": 0.0
        },
        {
          "id": 14,
          "value": 0.0
        },
        {
          "id": 15,
          "value": 0.0
        },
        {
          "id": 16,
          "value": 0.0
        },
        {
          "id": 17,
          "value": 0.0
        },
        {
          "id": 18,
          "value": 0.0
        },
        {
          "id": 19,
          "value": 0.0
        },
        {
          "id": 20,
          "value": 0.0
        },
        {
          "id": 21,
          "value": 0.0
        },
        {
          "id": 22,
          "value": 0.0
        },
        {
          "id": 23,
          "value": 0.0
        },
        {
          "id": 24,
          "value": 0.0
        },
        {
          "id": 25,
          "value": 0.0
        },
        {
          "id": 26,
          "value": 0.0
        },
        {
          "id": 27,
          "value": 0.0
        },
        {
          "id": 28,
          "value": 0.0
        },
        {
          "id": 29,
          "value": 0.0
        },
        {
          "id": 30,
          "value": 1.0
        }
      ],
      "leftModuleId": 37,
      "rightModuleId": 41,
      "data": {
        "frozen": false,
        "freezeToggle": false,
        "panelStyle": 0,
        "tuned": 0,
        "diffuseInput": 1,
        "preDelayCVSens": 0,
        "inputSensitivity": 0,
        "outputSaturation": 0
      },
      "pos": [
        56,
        0
      ]
    },
    {
      "id": 32,
      "plugin": "GlueTheGiant",
      "version": "1.0.7",
      "model": "BusDepot",
      "params": [
        {
          "id": 0,
          "value": 0.0
        },
        {
          "id": 1,
          "value": 1.0
        },
        {
          "id": 2,
          "value": 0.14500016
        },
        {
          "id": 3,
          "value": 8536.4873
        },
        {
          "id": 4,
          "value": 6090.35791
        }
      ],
      "leftModuleId": 53,
      "rightModuleId": 37,
      "data": {
        "input_on": 0,
        "level_cv_filter": 1,
        "color_theme": 0,
        "fade_cv_mode": 0,
        "audition_depot": 0,
        "auditioned": 0,
        "temped": 0,
        "audition_mode": 0
      },
      "pos": [
        44,
        0
      ]
    },
    {
      "id": 33,
      "plugin": "GlueTheGiant",
      "version": "1.0.7",
      "model": "MiniBus",
      "params": [
        {
          "id": 0,
          "value": 0.0
        },
        {
          "id": 1,
          "value": 0.0
        },
        {
          "id": 2,
          "value": 0.0
        },
        {
          "id": 3,
          "value": 1.0
        }
      ],
      "leftModuleId": 56,
      "rightModuleId": 38,
      "data": {
        "input_on": 1,
        "post_fades": 0,
        "gain": 1.0,
        "fade_in": 26.0,
        "fade_out": 26.0,
        "audition_mixer": 0,
        "auditioned": 0,
        "temped": 0,
        "color_theme": 0
      },
      "pos": [
        29,
        0
      ]
    },
    {
      "id": 37,
      "plugin": "GlueTheGiant",
      "version": "1.0.7",
      "model": "BusRoute",
      "params": [
        {
          "id": 0,
          "value": 0.0
        },
        {
          "id": 1,
          "value": 0.0
        },
        {
          "id": 2,
          "value": 0.0
        },
        {
          "id": 3,
          "value": 0.0
        },
        {
          "id": 4,
          "value": 0.0
        },
        {
          "id": 5,
          "value": 0.0
        }
      ],
      "leftModuleId": 32,
      "rightModuleId": 12,
      "data": {
        "onau_1": 1,
        "onau_2": 1,
        "onau_3": 1,
        "auditioning": 0,
        "bus_audition1": 0,
        "bus_audition2": 0,
        "bus_audition3": 0,
        "temped1": 0,
        "temped2": 0,
        "temped3": 0,
        "color_theme": 0
      },
      "pos": [
        50,
        0
      ]
    },
    {
      "id": 38,
      "plugin": "GlueTheGiant",
      "version": "1.0.7",
      "model": "MiniBus",
      "params": [
        {
          "id": 0,
          "value": 0.0
        },
        {
          "id": 1,
          "value": 0.0
        },
        {
          "id": 2,
          "value": 0.0
        },
        {
          "id": 3,
          "value": 1.0
        }
      ],
      "leftModuleId": 33,
      "rightModuleId": 48,
      "data": {
        "input_on": 1,
        "post_fades": 0,
        "gain": 1.0,
        "fade_in": 26.0,
        "fade_out": 26.0,
        "audition_mixer": 0,
        "auditioned": 0,
        "temped": 0,
        "color_theme": 0
      },
      "pos": [
        32,
        0
      ]
    },
    {
      "id": 41,
      "plugin": "ImpromptuModular",
      "version": "1.1.3",
      "model": "Clocked",
      "params": [
        {
          "id": 0,
          "value": 120.0
        },
        {
          "id": 1,
          "value": 2.0
        },
        {
          "id": 2,
          "value": 3.0
        },
        {
          "id": 3,
          "value": 7.0
        },
        {
          "id": 4,
          "value": 0.0
        },
        {
          "id": 5,
          "value": 0.0
        },
        {
          "id": 6,
          "value": 0.0
        },
        {
          "id": 7,
          "value": 0.0
        },
        {
          "id": 8,
          "value": 0.5
        },
        {
          "id": 9,
          "value": 0.5
        },
        {
          "id": 10,
          "value": 0.5
        },
        {
          "id": 11,
          "value": 0.5
        },
        {
          "id": 12,
          "value": 0.0
        },
        {
          "id": 13,
          "value": 0.0
        },
        {
          "id": 14,
          "value": 0.0
        },
        {
          "id": 15,
          "value": 0.0
        },
        {
          "id": 16,
          "value": 0.0
        },
        {
          "id": 17,
          "value": 0.0
        },
        {
          "id": 18,
          "value": 0.0
        },
        {
          "id": 19,
          "value": 0.0
        }
      ],
      "leftModuleId": 12,
      "rightModuleId": 11,
      "data": {
        "panelTheme": 1,
        "running": true,
        "displayDelayNoteMode": true,
        "bpmDetectionMode": false,
        "restartOnStopStartRun": 0,
        "sendResetOnRestart": false,
        "ppqn": 4,
        "resetClockOutputsHigh": true,
        "momentaryRunInput": true
      },
      "pos": [
        68,
        0
      ]
    },
    {
      "id": 48,
      "plugin": "GlueTheGiant",
      "version": "1.0.7",
      "model": "MiniBus",
      "params": [
        {
          "id": 0,
          "value": 0.0
        },
        {
          "id": 1,
          "value": 0.0
        },
        {
          "id": 2,
          "value": 0.0
        },
        {
          "id": 3,
          "value": 1.0
        }
      ],
      "leftModuleId": 38,
      "rightModuleId": 50,
      "data": {
        "input_on": 1,
        "post_fades": 0,
        "gain": 1.0,
        "fade_in": 26.0,
        "fade_out": 26.0,
        "audition_mixer": 0,
        "auditioned": 0,
        "temped": 0,
        "color_theme": 0
      },
      "pos": [
        35,
        0
      ]
    },
    {
      "id": 50,
      "plugin": "GlueTheGiant",
      "version": "1.0.7",
      "model": "MiniBus",
      "params": [
        {
          "id": 0,
          "value": 0.0
        },
        {
          "id": 1,
          "value": 0.0
        },
        {
          "id": 2,
          "value": 0.0
        },
        {
          "id": 3,
          "value": 1.0
        }
      ],
      "leftModuleId": 48,
      "rightModuleId": 53,
      "data": {
        "input_on": 1,
        "post_fades": 0,
        "gain": 1.0,
        "fade_in": 26.0,
        "fade_out": 26.0,
        "audition_mixer": 0,
        "auditioned": 0,
        "temped": 0,
        "color_theme": 0
      },
      "pos": [
        38,
        0
      ]
    },
    {
      "id": 53,
      "plugin": "GlueTheGiant",
      "version": "1.0.7",
      "model": "MiniBus",
      "params": [
        {
          "id": 0,
          "value": 0.0
        },
        {
          "id": 1,
          "value": 0.0
        },
        {
          "id": 2,
          "value": 0.0
        },
        {
          "id": 3,
          "value": 1.0
        }
      ],
      "leftModuleId": 50,
      "rightModuleId": 32,
      "data": {
        "input_on": 1,
        "post_fades": 0,
        "gain": 1.0,
        "fade_in": 26.0,
        "fade_out": 26.0,
        "audition_mixer": 0,
        "auditioned": 0,
        "temped": 0,
        "color_theme": 0
      },
      "pos": [
        41,
        0
      ]
    },
    {
      "id": 55,
      "plugin": "GlueTheGiant",
      "version": "1.0.7",
      "model": "GigBus",
      "params": [
        {
          "id": 0,
          "value": 0.0
        },
        {
          "id": 1,
          "value": 0.0
        },
        {
          "id": 2,
          "value": 0.0
        },
        {
          "id": 3,
          "value": 0.0
        },
        {
          "id": 4,
          "value": 1.0
        }
      ],
      "leftModuleId": 58,
      "rightModuleId": 56,
      "data": {
        "input_on": 1,
        "gain": 1.0,
        "color_theme": 0,
        "fade_in": 26.0,
        "fade_out": 26.0,
        "audition_mixer": 0,
        "auditioned": 0,
        "temped": 0
      },
      "pos": [
        22,
        0
      ]
    },
    {
      "id": 56,
      "plugin": "GlueTheGiant",
      "version": "1.0.7",
      "model": "MiniBus",
      "params": [
        {
          "id": 0,
          "value": 0.0
        },
        {
          "id": 1,
          "value": 0.0
        },
        {
          "id": 2,
          "value": 0.0
        },
        {
          "id": 3,
          "value": 1.0
        }
      ],
      "leftModuleId": 55,
      "rightModuleId": 33,
      "data": {
        "input_on": 1,
        "post_fades": 0,
        "gain": 1.0,
        "fade_in": 26.0,
        "fade_out": 26.0,
        "audition_mixer": 0,
        "auditioned": 0,
        "temped": 0,
        "color_theme": 0
      },
      "pos": [
        26,
        0
      ]
    },
    {
      "id": 57,
      "plugin": "GlueTheGiant",
      "version": "1.0.7",
      "model": "MetroCityBus",
      "params": [
        {
          "id": 0,
          "value": 0.0
        },
        {
          "id": 1,
          "value": 0.0
        },
        {
          "id": 2,
          "value": 0.5
        },
        {
          "id": 3,
          "value": 0.0
        },
        {
          "id": 4,
          "value": 0.0
        },
        {
          "id": 5,
          "value": 0.0
        },
        {
          "id": 6,
          "value": 0.0
        },
        {
          "id": 7,
          "value": 1.0
        },
        {
          "id": 8,
          "value": 0.0
        },
        {
          "id": 9,
          "value": 0.0
        }
      ],
      "rightModuleId": 110,
      "data": {
        "input_on": 1,
        "reverse_poly": 0,
        "blue_post_fade": 0,
        "orange_post_fade": 0,
        "gain": 1.0,
        "level_cv_filter": 1,
        "fade_in": 26.0,
        "fade_out": 26.0,
        "audition_mixer": 0,
        "auditioned": 0,
        "temped": 0,
        "color_theme": 0
      },
      "pos": [
        0,
        0
      ]
    },
    {
      "id": 58,
      "plugin": "GlueTheGiant",
      "version": "1.0.7",
      "model": "SchoolBus",
      "params": [
        {
          "id": 0,
          "value": 0.0
        },
        {
          "id": 1,
          "value": 0.5
        },
        {
          "id": 2,
          "value": 0.0
        },
        {
          "id": 3,
          "value": 0.0
        },
        {
          "id": 4,
          "value": 0.0
        },
        {
          "id": 5,
          "value": 0.0
        },
        {
          "id": 6,
          "value": 0.0
        },
        {
          "id": 7,
          "value": 1.0
        }
      ],
      "leftModuleId": 110,
      "rightModuleId": 55,
      "data": {
        "input_on": 1,
        "blue_post_fade": 0,
        "orange_post_fade": 0,
        "gain": 1.0,
        "pan_cv_filter": 1,
        "level_cv_filter": 1,
        "fade_in": 26.0,
        "fade_out": 26.0,
        "audition_mixer": 0,
        "auditioned": 0,
        "temped": 0,
        "color_theme": 0
      },
      "pos": [
        16,
        0
      ]
    },
    {
      "id": 62,
      "plugin": "Fundamental",
      "version": "1.4.0",
      "model": "VCO",
      "params": [
        {
          "id": 0,
          "value": 1.0
        },
        {
          "id": 1,
          "value": 1.0
        },
        {
          "id": 2,
          "value": 0.0
        },
        {
          "id": 3,
          "value": 0.0
        },
        {
          "id": 4,
          "value": 0.0
        },
        {
          "id": 5,
          "value": 0.5
        },
        {
          "id": 6,
          "value": 0.0
        }
      ],
      "leftModuleId": 109,
      "rightModuleId": 75,
      "pos": [
        35,
        1
      ]
    },
    {
      "id": 64,
      "plugin": "Bogaudio",
      "version": "1.1.25",
      "model": "Bogaudio-AddrSeq",
      "params": [
        {
          "id": 0,
          "value": 8.0
        },
        {
          "id": 1,
          "value": 1.0
        },
        {
          "id": 2,
          "value": 0.0
        },
        {
          "id": 3,
          "value": 0.966858983
        },
        {
          "id": 4,
          "value": 0.634954333
        },
        {
          "id": 5,
          "value": 0.0405856371
        },
        {
          "id": 6,
          "value": -0.404927373
        },
        {
          "id": 7,
          "value": 0.190450549
        },
        {
          "id": 8,
          "value": -0.39329505
        },
        {
          "id": 9,
          "value": 0.436098933
        },
        {
          "id": 10,
          "value": -0.0742435455
        }
      ],
      "rightModuleId": 106,
      "data": {
        "select_on_clock": false,
        "triggered_select": false,
        "range_offset": 0.0,
        "range_scale": 1.0
      },
      "pos": [
        0,
        1
      ]
    },
    {
      "id": 66,
      "plugin": "Fundamental",
      "version": "1.4.0",
      "model": "Scope",
      "params": [
        {
          "id": 0,
          "value": 0.0
        },
        {
          "id": 1,
          "value": 4.13999939
        },
        {
          "id": 2,
          "value": 0.0
        },
        {
          "id": 3,
          "value": -1.80000329
        },
        {
          "id": 4,
          "value": 6.71999788
        },
        {
          "id": 5,
          "value": 0.0
        },
        {
          "id": 6,
          "value": 0.0
        },
        {
          "id": 7,
          "value": 0.0
        }
      ],
      "leftModuleId": 86,
      "rightModuleId": 109,
      "data": {
        "lissajous": 0,
        "external": 0
      },
      "pos": [
        19,
        1
      ]
    },
    {
      "id": 75,
      "plugin": "Bogaudio",
      "version": "1.1.25",
      "model": "Bogaudio-ADSR",
      "params": [
        {
          "id": 0,
          "value": 0.0544210151
        },
        {
          "id": 1,
          "value": 0.421500087
        },
        {
          "id": 2,
          "value": 0.702000022
        },
        {
          "id": 3,
          "value": 0.019500237
        },
        {
          "id": 4,
          "value": 0.0
        }
      ],
      "leftModuleId": 62,
      "rightModuleId": 76,
      "data": {
        "invert": 1.0
      },
      "pos": [
        45,
        1
      ]
    },
    {
      "id": 76,
      "plugin": "Fundamental",
      "version": "1.4.0",
      "model": "VCA-1",
      "params": [
        {
          "id": 0,
          "value": 1.0
        },
        {
          "id": 1,
          "value": 1.0
        }
      ],
      "leftModuleId": 75,
      "rightModuleId": 92,
      "pos": [
        48,
        1
      ]
    },
    {
      "id": 86,
      "plugin": "Fundamental",
      "version": "1.4.0",
      "model": "Split",
      "params": [],
      "leftModuleId": 106,
      "rightModuleId": 66,
      "pos": [
        14,
        1
      ]
    },
    {
      "id": 88,
      "plugin": "Fundamental",
      "version": "1.4.0",
      "model": "Merge",
      "params": [],
      "leftModuleId": 92,
      "rightModuleId": 93,
      "data": {
        "channels": -1
      },
      "pos": [
        68,
        1
      ]
    },
    {
      "id": 92,
      "plugin": "Bogaudio",
      "version": "1.1.25",
      "model": "Bogaudio-EightFO",
      "params": [
        {
          "id": 0,
          "value": -1.38450086
        },
        {
          "id": 1,
          "value": 3.0
        },
        {
          "id": 2,
          "value": 0.0
        },
        {
          "id": 3,
          "value": 0.0
        },
        {
          "id": 4,
          "value": 0.0
        },
        {
          "id": 5,
          "value": 0.0
        },
        {
          "id": 6,
          "value": 0.0
        },
        {
          "id": 7,
          "value": 0.0
        },
        {
          "id": 8,
          "value": 0.0
        },
        {
          "id": 9,
          "value": 0.0
        },
        {
          "id": 10,
          "value": 0.0
        },
        {
          "id": 11,
          "value": 1.0
        },
        {
          "id": 12,
          "value": 0.339999855
        },
        {
          "id": 13,
          "value": 0.638500154
        }
      ],
      "leftModuleId": 76,
      "rightModuleId": 88,
      "pos": [
        51,
        1
      ]
    },
    {
      "id": 93,
      "plugin": "ML_modules",
      "version": "1.0.4",
      "model": "BPMdetect",
      "params": [
        {
          "id": 0,
          "value": 0.5
        },
        {
          "id": 1,
          "value": 2.0
        },
        {
          "id": 2,
          "value": 3.0
        },
        {
          "id": 3,
          "value": 1.0
        },
        {
          "id": 4,
          "value": 1.0
        },
        {
          "id": 5,
          "value": 1.0
        },
        {
          "id": 6,
          "value": 1.0
        }
      ],
      "leftModuleId": 88,
      "pos": [
        73,
        1
      ]
    },
    {
      "id": 95,
      "plugin": "AS",
      "version": "1.0.3",
      "model": "Flow",
      "params": [
        {
          "id": 0,
          "value": 0.0
        },
        {
          "id": 1,
          "value": 0.0
        },
        {
          "id": 2,
          "value": 0.0
        }
      ],
      "data": {
        "as_FlowStates": [
          0,
          1
        ]
      },
      "pos": [
        99,
        1
      ]
    },
    {
      "id": 97,
      "plugin": "CountModula",
      "version": "1.5.1",
      "model": "AnalogueShiftRegister",
      "params": [],
      "rightModuleId": 100,
      "data": {
        "moduleVersion": "1.1",
        "theme": 0
      },
      "pos": [
        10,
        2
      ]
    },
    {
      "id": 100,
      "plugin": "Fundamental",
      "version": "1.4.0",
      "model": "Merge",
      "params": [],
      "leftModuleId": 97,
      "rightModuleId": 101,
      "data": {
        "channels": -1
      },
      "pos": [
        18,
        2
      ]
    },
    {
      "id": 101,
      "plugin": "Fundamental",
      "version": "1.4.0",
      "model": "Scope",
      "params": [
        {
          "id": 0,
          "value": 1.0
        },
        {
          "id": 1,
          "value": -3.27000117
        },
        {
          "id": 2,
          "value": 1.0
        },
        {
          "id": 3,
          "value": 0.0299945772
        },
        {
          "id": 4,
          "value": 6.75000286
        },
        {
          "id": 5,
          "value": 0.0
        },
        {
          "id": 6,
          "value": 0.0
        },
        {
          "id": 7,
          "value": 0.0
        }
      ],
      "leftModuleId": 100,
      "rightModuleId": 102,
      "data": {
        "lissajous": 0,
        "external": 0
      },
      "pos": [
        23,
        2
      ]
    },
    {
      "id": 102,
      "plugin": "Fundamental",
      "version": "1.4.0",
      "model": "VCA-1",
      "params": [
        {
          "id": 0,
          "value": 0.91299957
        },
        {
          "id": 1,
          "value": 1.0
        }
      ],
      "leftModuleId": 101,
      "rightModuleId": 105,
      "pos": [
        36,
        2
      ]
    },
    {
      "id": 103,
      "plugin": "Bogaudio",
      "version": "1.1.25",
      "model": "Bogaudio-ADSR",
      "params": [
        {
          "id": 0,
          "value": 0.17249997
        },
        {
          "id": 1,
          "value": 0.347999722
        },
        {
          "id": 2,
          "value": 0.330000192
        },
        {
          "id": 3,
          "value": 0.121499501
        },
        {
          "id": 4,
          "value": 0.0
        }
      ],
      "rightModuleId": 104,
      "data": {
        "invert": 1.0
      },
      "pos": [
        64,
        2
      ]
    },
    {
      "id": 104,
      "plugin": "Fundamental",
      "version": "1.4.0",
      "model": "VCA-1",
      "params": [
        {
          "id": 0,
          "value": 1.0
        },
        {
          "id": 1,
          "value": 1.0
        }
      ],
      "leftModuleId": 103,
      "pos": [
        67,
        2
      ]
    },
    {
      "id": 105,
      "plugin": "ML_modules",
      "version": "1.0.4",
      "model": "Quantum",
      "params": [
        {
          "id": 0,
          "value": 0.0
        },
        {
          "id": 1,
          "value": 0.0
        },
        {
          "id": 2,
          "value": 0.0
        },
        {
          "id": 3,
          "value": 0.0
        },
        {
          "id": 4,
          "value": 0.0
        },
        {
          "id": 5,
          "value": 0.0
        },
        {
          "id": 6,
          "value": 0.0
        },
        {
          "id": 7,
          "value": 0.0
        },
        {
          "id": 8,
          "value": 0.0
        },
        {
          "id": 9,
          "value": 0.0
        },
        {
          "id": 10,
          "value": 0.0
        },
        {
          "id": 11,
          "value": 0.0
        }
      ],
      "leftModuleId": 102,
      "rightModuleId": 108,
      "data": {
        "scale": [
          1,
          0,
          1,
          0,
          1,
          0,
          0,
          1,
          0,
          1,
          0,
          0
        ],
        "mode": 1,
        "transpose_select": 1,
        "toggle_mode": 0
      },
      "pos": [
        39,
        2
      ]
    },
    {
      "id": 106,
      "plugin": "ML_modules",
      "version": "1.0.4",
      "model": "Quantum",
      "params": [
        {
          "id": 0,
          "value": 0.0
        },
        {
          "id": 1,
          "value": 0.0
        },
        {
          "id": 2,
          "value": 0.0
        },
        {
          "id": 3,
          "value": 0.0
        },
        {
          "id": 4,
          "value": 0.0
        },
        {
          "id": 5,
          "value": 0.0
        },
        {
          "id": 6,
          "value": 0.0
        },
        {
          "id": 7,
          "value": 0.0
        },
        {
          "id": 8,
          "value": 0.0
        },
        {
          "id": 9,
          "value": 0.0
        },
        {
          "id": 10,
          "value": 0.0
        },
        {
          "id": 11,
          "value": 0.0
        }
      ],
      "leftModuleId": 64,
      "rightModuleId": 86,
      "data": {
        "scale": [
          1,
          0,
          1,
          0,
          1,
          0,
          1,
          1,
          1,
          1,
          0,
          0
        ],
        "mode": 1,
        "transpose_select": 1,
        "toggle_mode": 0
      },
      "pos": [
        6,
        1
      ]
    },
    {
      "id": 108,
      "plugin": "Fundamental",
      "version": "1.4.0",
      "model": "VCO",
      "params": [
        {
          "id": 0,
          "value": 1.0
        },
        {
          "id": 1,
          "value": 1.0
        },
        {
          "id": 2,
          "value": 0.0
        },
        {
          "id": 3,
          "value": 0.0
        },
        {
          "id": 4,
          "value": 0.184500083
        },
        {
          "id": 5,
          "value": 0.5
        },
        {
          "id": 6,
          "value": 0.0
        }
      ],
      "leftModuleId": 105,
      "pos": [
        47,
        2
      ]
    },
    {
      "id": 109,
      "plugin": "Bogaudio",
      "version": "1.1.25",
      "model": "Bogaudio-Stack",
      "params": [
        {
          "id": 0,
          "value": 0.0
        },
        {
          "id": 1,
          "value": -1.0
        },
        {
          "id": 2,
          "value": 0.0
        },
        {
          "id": 3,
          "value": 1.0
        }
      ],
      "leftModuleId": 66,
      "rightModuleId": 62,
      "pos": [
        32,
        1
      ]
    },
    {
      "id": 110,
      "plugin": "GlueTheGiant",
      "version": "1.0.7",
      "model": "MetroCityBus",
      "params": [
        {
          "id": 0,
          "value": 0.0
        },
        {
          "id": 1,
          "value": 0.0
        },
        {
          "id": 2,
          "value": 0.5
        },
        {
          "id": 3,
          "value": 0.0
        },
        {
          "id": 4,
          "value": 0.0
        },
        {
          "id": 5,
          "value": 0.0
        },
        {
          "id": 6,
          "value": 0.0
        },
        {
          "id": 7,
          "value": 1.0
        },
        {
          "id": 8,
          "value": 0.0
        },
        {
          "id": 9,
          "value": 0.0
        }
      ],
      "leftModuleId": 57,
      "rightModuleId": 58,
      "data": {
        "input_on": 1,
        "reverse_poly": 0,
        "blue_post_fade": 0,
        "orange_post_fade": 0,
        "gain": 1.0,
        "level_cv_filter": 1,
        "fade_in": 26.0,
        "fade_out": 26.0,
        "audition_mixer": 0,
        "auditioned": 0,
        "temped": 0,
        "color_theme": 0
      },
      "pos": [
        8,
        0
      ]
    }
  ],
  "cables": [
    {
      "id": 57,
      "outputModuleId": 32,
      "outputId": 2,
      "inputModuleId": 37,
      "inputId": 6,
      "color": "#c9b70e"
    },
    {
      "id": 44,
      "outputModuleId": 33,
      "outputId": 0,
      "inputModuleId": 38,
      "inputId": 2,
      "color": "#c91847"
    },
    {
      "id": 47,
      "outputModuleId": 37,
      "outputId": 7,
      "inputModuleId": 11,
      "inputId": 0,
      "color": "#c91847"
    },
    {
      "id": 59,
      "outputModuleId": 37,
      "outputId": 0,
      "inputModuleId": 12,
      "inputId": 0,
      "color": "#0986ad"
    },
    {
      "id": 60,
      "outputModuleId": 37,
      "outputId": 1,
      "inputModuleId": 12,
      "inputId": 1,
      "color": "#c9b70e"
    },
    {
      "id": 61,
      "outputModuleId": 12,
      "outputId": 0,
      "inputModuleId": 37,
      "inputId": 0,
      "color": "#0c8e15"
    },
    {
      "id": 62,
      "outputModuleId": 12,
      "outputId": 1,
      "inputModuleId": 37,
      "inputId": 1,
      "color": "#c91847"
    },
    {
      "id": 48,
      "outputModuleId": 37,
      "outputId": 8,
      "inputModuleId": 11,
      "inputId": 1,
      "color": "#0986ad"
    },
    {
      "id": 58,
      "outputModuleId": 38,
      "outputId": 0,
      "inputModuleId": 48,
      "inputId": 2,
      "color": "#0c8e15"
    },
    {
      "id": 88,
      "outputModuleId": 48,
      "outputId": 0,
      "inputModuleId": 50,
      "inputId": 2,
      "color": "#0c8e15"
    },
    {
      "id": 94,
      "outputModuleId": 50,
      "outputId": 0,
      "inputModuleId": 53,
      "inputId": 2,
      "color": "#0986ad"
    },
    {
      "id": 101,
      "outputModuleId": 53,
      "outputId": 0,
      "inputModuleId": 32,
      "inputId": 4,
      "color": "#0986ad"
    },
    {
      "id": 108,
      "outputModuleId": 56,
      "outputId": 0,
      "inputModuleId": 33,
      "inputId": 2,
      "color": "#c9b70e"
    },
    {
      "id": 141,
      "outputModuleId": 58,
      "outputId": 0,
      "inputModuleId": 55,
      "inputId": 3,
      "color": "#c91847"
    },
    {
      "id": 142,
      "outputModuleId": 55,
      "outputId": 0,
      "inputModuleId": 56,
      "inputId": 2,
      "color": "#0986ad"
    },
    {
      "id": 145,
      "outputModuleId": 75,
      "outputId": 0,
      "inputModuleId": 76,
      "inputId": 0,
      "color": "#c91847"
    },
    {
      "id": 139,
      "outputModuleId": 76,
      "outputId": 0,
      "inputModuleId": 57,
      "inputId": 0,
      "color": "#0986ad"
    },
    {
      "id": 146,
      "outputModuleId": 62,
      "outputId": 0,
      "inputModuleId": 76,
      "inputId": 1,
      "color": "#0986ad"
    },
    {
      "id": 192,
      "outputModuleId": 86,
      "outputId": 0,
      "inputModuleId": 66,
      "inputId": 0,
      "color": "#c91847"
    },
    {
      "id": 202,
      "outputModuleId": 92,
      "outputId": 0,
      "inputModuleId": 88,
      "inputId": 0,
      "color": "#c91847"
    },
    {
      "id": 203,
      "outputModuleId": 92,
      "outputId": 1,
      "inputModuleId": 88,
      "inputId": 1,
      "color": "#0986ad"
    },
    {
      "id": 204,
      "outputModuleId": 92,
      "outputId": 2,
      "inputModuleId": 88,
      "inputId": 2,
      "color": "#c9b70e"
    },
    {
      "id": 205,
      "outputModuleId": 92,
      "outputId": 3,
      "inputModuleId": 88,
      "inputId": 3,
      "color": "#0c8e15"
    },
    {
      "id": 206,
      "outputModuleId": 92,
      "outputId": 4,
      "inputModuleId": 88,
      "inputId": 4,
      "color": "#c91847"
    },
    {
      "id": 207,
      "outputModuleId": 92,
      "outputId": 5,
      "inputModuleId": 88,
      "inputId": 5,
      "color": "#0986ad"
    },
    {
      "id": 208,
      "outputModuleId": 92,
      "outputId": 6,
      "inputModuleId": 88,
      "inputId": 6,
      "color": "#c9b70e"
    },
    {
      "id": 209,
      "outputModuleId": 92,
      "outputId": 7,
      "inputModuleId": 88,
      "inputId": 7,
      "color": "#0c8e15"
    },
    {
      "id": 212,
      "outputModuleId": 88,
      "outputId": 0,
      "inputModuleId": 75,
      "inputId": 0,
      "color": "#c91847"
    },
    {
      "id": 219,
      "outputModuleId": 41,
      "outputId": 1,
      "inputModuleId": 93,
      "inputId": 0,
      "color": "#0c8e15"
    },
    {
      "id": 193,
      "outputModuleId": 86,
      "outputId": 1,
      "inputModuleId": 66,
      "inputId": 1,
      "color": "#0986ad"
    },
    {
      "id": 211,
      "outputModuleId": 88,
      "outputId": 0,
      "inputModuleId": 64,
      "inputId": 0,
      "color": "#0c8e15"
    },
    {
      "id": 220,
      "outputModuleId": 93,
      "outputId": 0,
      "inputModuleId": 95,
      "inputId": 0,
      "color": "#c91847"
    },
    {
      "id": 228,
      "outputModuleId": 97,
      "outputId": 0,
      "inputModuleId": 100,
      "inputId": 0,
      "color": "#c91847"
    },
    {
      "id": 229,
      "outputModuleId": 97,
      "outputId": 1,
      "inputModuleId": 100,
      "inputId": 1,
      "color": "#0986ad"
    },
    {
      "id": 230,
      "outputModuleId": 97,
      "outputId": 2,
      "inputModuleId": 100,
      "inputId": 2,
      "color": "#c9b70e"
    },
    {
      "id": 231,
      "outputModuleId": 97,
      "outputId": 3,
      "inputModuleId": 100,
      "inputId": 3,
      "color": "#0c8e15"
    },
    {
      "id": 232,
      "outputModuleId": 100,
      "outputId": 0,
      "inputModuleId": 101,
      "inputId": 0,
      "color": "#c91847"
    },
    {
      "id": 235,
      "outputModuleId": 100,
      "outputId": 0,
      "inputModuleId": 102,
      "inputId": 1,
      "color": "#0c8e15"
    },
    {
      "id": 236,
      "outputModuleId": 102,
      "outputId": 0,
      "inputModuleId": 101,
      "inputId": 1,
      "color": "#c91847"
    },
    {
      "id": 238,
      "outputModuleId": 103,
      "outputId": 0,
      "inputModuleId": 104,
      "inputId": 0,
      "color": "#0c8e15"
    },
    {
      "id": 239,
      "outputModuleId": 88,
      "outputId": 0,
      "inputModuleId": 103,
      "inputId": 0,
      "color": "#c91847"
    },
    {
      "id": 243,
      "outputModuleId": 102,
      "outputId": 0,
      "inputModuleId": 105,
      "inputId": 0,
      "color": "#c91847"
    },
    {
      "id": 221,
      "outputModuleId": 95,
      "outputId": 0,
      "inputModuleId": 92,
      "inputId": 9,
      "color": "#0986ad"
    },
    {
      "id": 244,
      "outputModuleId": 97,
      "outputId": 4,
      "inputModuleId": 100,
      "inputId": 4,
      "color": "#0986ad"
    },
    {
      "id": 246,
      "outputModuleId": 97,
      "outputId": 6,
      "inputModuleId": 100,
      "inputId": 6,
      "color": "#0c8e15"
    },
    {
      "id": 247,
      "outputModuleId": 97,
      "outputId": 7,
      "inputModuleId": 100,
      "inputId": 7,
      "color": "#c91847"
    },
    {
      "id": 222,
      "outputModuleId": 88,
      "outputId": 0,
      "inputModuleId": 97,
      "inputId": 2,
      "color": "#c9b70e"
    },
    {
      "id": 227,
      "outputModuleId": 88,
      "outputId": 0,
      "inputModuleId": 97,
      "inputId": 1,
      "color": "#0c8e15"
    },
    {
      "id": 250,
      "outputModuleId": 97,
      "outputId": 5,
      "inputModuleId": 100,
      "inputId": 5,
      "color": "#0c8e15"
    },
    {
      "id": 177,
      "outputModuleId": 64,
      "outputId": 0,
      "inputModuleId": 106,
      "inputId": 0,
      "color": "#0986ad"
    },
    {
      "id": 242,
      "outputModuleId": 105,
      "outputId": 0,
      "inputModuleId": 108,
      "inputId": 0,
      "color": "#0c8e15"
    },
    {
      "id": 240,
      "outputModuleId": 108,
      "outputId": 0,
      "inputModuleId": 104,
      "inputId": 1,
      "color": "#0986ad"
    },
    {
      "id": 255,
      "outputModuleId": 88,
      "outputId": 0,
      "inputModuleId": 102,
      "inputId": 0,
      "color": "#0986ad"
    },
    {
      "id": 251,
      "outputModuleId": 106,
      "outputId": 0,
      "inputModuleId": 109,
      "inputId": 1,
      "color": "#c91847"
    },
    {
      "id": 256,
      "outputModuleId": 109,
      "outputId": 1,
      "inputModuleId": 62,
      "inputId": 0,
      "color": "#c9b70e"
    },
    {
      "id": 140,
      "outputModuleId": 57,
      "outputId": 0,
      "inputModuleId": 110,
      "inputId": 6,
      "color": "#0c8e15"
    },
    {
      "id": 258,
      "outputModuleId": 110,
      "outputId": 0,
      "inputModuleId": 58,
      "inputId": 7,
      "color": "#c91847"
    },
    {
      "id": 234,
      "outputModuleId": 104,
      "outputId": 0,
      "inputModuleId": 110,
      "inputId": 0,
      "color": "#c9b70e"
    },
    {
      "id": 210,
      "outputModuleId": 88,
      "outputId": 0,
      "inputModuleId": 86,
      "inputId": 0,
      "color": "#0986ad"
    },
    {
      "id": 264,
      "outputModuleId": 100,
      "outputId": 0,
      "inputModuleId": 105,
      "inputId": 2,
      "color": "#0c8e15"
    },
    {
      "id": 266,
      "outputModuleId": 105,
      "outputId": 1,
      "inputModuleId": 106,
      "inputId": 3,
      "color": "#c9b70e"
    },
    {
      "id": 267,
      "outputModuleId": 64,
      "outputId": 0,
      "inputModuleId": 106,
      "inputId": 2,
      "color": "#0c8e15"
    }
  ]
}