{
  "version": "1.1.4",
  "modules": [
    {
      "id": 0,
      "plugin": "Core",
      "version": "1.1.4",
      "model": "AudioInterface",
      "params": [],
      "leftModuleId": 72,
      "data": {
        "audio": {
          "driver": 4,
          "deviceName": "system",
          "offset": 0,
          "maxChannels": 8,
          "sampleRate": 48000,
          "blockSize": 1024
        }
      },
      "pos": [
        169,
        0
      ]
    },
    {
      "id": 14,
      "plugin": "CharredDesert",
      "version": "1.0.1",
      "model": "Eq",
      "params": [
        {
          "id": 0,
          "value": 40.0
        },
        {
          "id": 1,
          "value": 1.0
        },
        {
          "id": 2,
          "value": 0.100000001
        }
      ],
      "leftModuleId": 76,
      "rightModuleId": 15,
      "pos": [
        134,
        0
      ]
    },
    {
      "id": 15,
      "plugin": "CharredDesert",
      "version": "1.0.1",
      "model": "Eq",
      "params": [
        {
          "id": 0,
          "value": 40.0
        },
        {
          "id": 1,
          "value": 1.0
        },
        {
          "id": 2,
          "value": 0.100000001
        }
      ],
      "leftModuleId": 14,
      "rightModuleId": 16,
      "pos": [
        138,
        0
      ]
    },
    {
      "id": 16,
      "plugin": "CharredDesert",
      "version": "1.0.1",
      "model": "Eq",
      "params": [
        {
          "id": 0,
          "value": 12000.0
        },
        {
          "id": 1,
          "value": 0.0
        },
        {
          "id": 2,
          "value": 0.100000001
        }
      ],
      "leftModuleId": 15,
      "rightModuleId": 17,
      "pos": [
        142,
        0
      ]
    },
    {
      "id": 17,
      "plugin": "CharredDesert",
      "version": "1.0.1",
      "model": "Eq",
      "params": [
        {
          "id": 0,
          "value": 12000.0
        },
        {
          "id": 1,
          "value": 0.0
        },
        {
          "id": 2,
          "value": 0.100000001
        }
      ],
      "leftModuleId": 16,
      "rightModuleId": 72,
      "pos": [
        146,
        0
      ]
    },
    {
      "id": 72,
      "plugin": "SurgeRack",
      "version": "1.beta1.1",
      "model": "SurgeConditioner",
      "params": [
        {
          "id": 0,
          "value": 0.5
        },
        {
          "id": 1,
          "value": 0.5
        },
        {
          "id": 2,
          "value": 0.5
        },
        {
          "id": 3,
          "value": 0.5
        },
        {
          "id": 4,
          "value": 1.0
        },
        {
          "id": 5,
          "value": 0.5
        },
        {
          "id": 6,
          "value": 0.5
        },
        {
          "id": 7,
          "value": 0.9375
        },
        {
          "id": 8,
          "value": 0.0
        },
        {
          "id": 9,
          "value": 0.0
        },
        {
          "id": 10,
          "value": 0.0
        },
        {
          "id": 11,
          "value": 0.0
        },
        {
          "id": 12,
          "value": 1.0
        },
        {
          "id": 13,
          "value": 1.0
        },
        {
          "id": 14,
          "value": 0.0
        },
        {
          "id": 15,
          "value": 0.0
        },
        {
          "id": 16,
          "value": 0.0
        },
        {
          "id": 17,
          "value": 0.0
        },
        {
          "id": 18,
          "value": 0.0
        },
        {
          "id": 19,
          "value": 0.0
        },
        {
          "id": 20,
          "value": 0.0
        },
        {
          "id": 21,
          "value": 0.0
        },
        {
          "id": 22,
          "value": 0.0
        },
        {
          "id": 23,
          "value": 0.0
        },
        {
          "id": 24,
          "value": 0.0
        },
        {
          "id": 25,
          "value": 0.0
        },
        {
          "id": 26,
          "value": 1.0
        }
      ],
      "leftModuleId": 17,
      "rightModuleId": 0,
      "data": {
        "comment": "No Comment",
        "buildInfo": "os:linux pluggit:214ce47 surgegit:dbb0c48 buildtime=Jul 20 2019 19:05:21"
      },
      "pos": [
        150,
        0
      ]
    },
    {
      "id": 73,
      "plugin": "ImpromptuModular",
      "version": "1.1.1",
      "model": "Clocked",
      "params": [
        {
          "id": 0,
          "value": 129.0
        },
        {
          "id": 1,
          "value": 5.0
        },
        {
          "id": 2,
          "value": -10.0
        },
        {
          "id": 3,
          "value": -2.0
        },
        {
          "id": 4,
          "value": 0.0
        },
        {
          "id": 5,
          "value": 0.0
        },
        {
          "id": 6,
          "value": 0.0
        },
        {
          "id": 7,
          "value": 0.0
        },
        {
          "id": 8,
          "value": 0.5
        },
        {
          "id": 9,
          "value": 0.5
        },
        {
          "id": 10,
          "value": 0.5
        },
        {
          "id": 11,
          "value": 0.5
        },
        {
          "id": 12,
          "value": 0.0
        },
        {
          "id": 13,
          "value": 0.0
        },
        {
          "id": 14,
          "value": 0.0
        },
        {
          "id": 15,
          "value": 0.0
        },
        {
          "id": 16,
          "value": 0.0
        },
        {
          "id": 17,
          "value": 0.0
        },
        {
          "id": 18,
          "value": 0.0
        },
        {
          "id": 19,
          "value": 0.0
        }
      ],
      "leftModuleId": 125,
      "rightModuleId": 84,
      "data": {
        "panelTheme": 1,
        "running": true,
        "displayDelayNoteMode": true,
        "bpmDetectionMode": false,
        "emitResetOnStopRun": false,
        "ppqn": 4,
        "resetClockOutputsHigh": true
      },
      "pos": [
        17,
        0
      ]
    },
    {
      "id": 74,
      "plugin": "AS",
      "version": "1.0.3",
      "model": "Mixer8ch",
      "params": [
        {
          "id": 0,
          "value": 0.800000012
        },
        {
          "id": 1,
          "value": 0.760999918
        },
        {
          "id": 2,
          "value": 0.800000012
        },
        {
          "id": 3,
          "value": 0.800000012
        },
        {
          "id": 4,
          "value": 0.800000012
        },
        {
          "id": 5,
          "value": 0.800000012
        },
        {
          "id": 6,
          "value": 0.800000012
        },
        {
          "id": 7,
          "value": 0.800000012
        },
        {
          "id": 8,
          "value": 0.78900063
        },
        {
          "id": 9,
          "value": 0.0
        },
        {
          "id": 10,
          "value": 0.0
        },
        {
          "id": 11,
          "value": 0.0
        },
        {
          "id": 12,
          "value": 0.0
        },
        {
          "id": 13,
          "value": 0.0
        },
        {
          "id": 14,
          "value": 0.0
        },
        {
          "id": 15,
          "value": 0.0
        },
        {
          "id": 16,
          "value": 0.0
        },
        {
          "id": 17,
          "value": 0.0
        },
        {
          "id": 18,
          "value": 0.0
        },
        {
          "id": 19,
          "value": 0.0
        },
        {
          "id": 20,
          "value": 0.0
        },
        {
          "id": 21,
          "value": 0.0
        },
        {
          "id": 22,
          "value": 0.0
        },
        {
          "id": 23,
          "value": 0.0
        },
        {
          "id": 24,
          "value": 0.0
        },
        {
          "id": 25,
          "value": 0.0
        }
      ],
      "leftModuleId": 85,
      "rightModuleId": 75,
      "data": {
        "as_MixerMutes": [
          0,
          0,
          0,
          0,
          0,
          0,
          0,
          0,
          0
        ]
      },
      "pos": [
        72,
        0
      ]
    },
    {
      "id": 75,
      "plugin": "cf",
      "version": "1.1.0",
      "model": "MASTER",
      "params": [
        {
          "id": 0,
          "value": 5.0
        },
        {
          "id": 1,
          "value": 0.0
        }
      ],
      "leftModuleId": 74,
      "rightModuleId": 77,
      "data": {
        "onstate": 1
      },
      "pos": [
        98,
        0
      ]
    },
    {
      "id": 76,
      "plugin": "cf",
      "version": "1.1.0",
      "model": "MASTER",
      "params": [
        {
          "id": 0,
          "value": 2.92999721
        },
        {
          "id": 1,
          "value": 0.0
        }
      ],
      "leftModuleId": 102,
      "rightModuleId": 14,
      "data": {
        "onstate": 1
      },
      "pos": [
        128,
        0
      ]
    },
    {
      "id": 77,
      "plugin": "Valley",
      "version": "1.0.1",
      "model": "Plateau",
      "params": [
        {
          "id": 0,
          "value": 1.0
        },
        {
          "id": 1,
          "value": 0.3935
        },
        {
          "id": 2,
          "value": 0.0
        },
        {
          "id": 3,
          "value": 10.0
        },
        {
          "id": 4,
          "value": 10.0
        },
        {
          "id": 5,
          "value": 0.5
        },
        {
          "id": 6,
          "value": 10.0
        },
        {
          "id": 7,
          "value": 0.549950004
        },
        {
          "id": 8,
          "value": 10.0
        },
        {
          "id": 9,
          "value": 10.0
        },
        {
          "id": 10,
          "value": 0.0
        },
        {
          "id": 11,
          "value": 0.5
        },
        {
          "id": 12,
          "value": 0.5
        },
        {
          "id": 13,
          "value": 0.0
        },
        {
          "id": 14,
          "value": 0.0
        },
        {
          "id": 15,
          "value": 0.0
        },
        {
          "id": 16,
          "value": 0.0
        },
        {
          "id": 17,
          "value": 0.0
        },
        {
          "id": 18,
          "value": 0.0
        },
        {
          "id": 19,
          "value": 0.0
        },
        {
          "id": 20,
          "value": 0.0
        },
        {
          "id": 21,
          "value": 0.0
        },
        {
          "id": 22,
          "value": 0.0
        },
        {
          "id": 23,
          "value": 0.0
        },
        {
          "id": 24,
          "value": 0.0
        },
        {
          "id": 25,
          "value": 0.0
        },
        {
          "id": 26,
          "value": 0.0
        },
        {
          "id": 27,
          "value": 0.0
        },
        {
          "id": 28,
          "value": 0.0
        },
        {
          "id": 29,
          "value": 0.0
        },
        {
          "id": 30,
          "value": 1.0
        }
      ],
      "leftModuleId": 75,
      "rightModuleId": 101,
      "data": {
        "frozen": false,
        "freezeToggle": false,
        "panelStyle": 0,
        "tuned": 0,
        "diffuseInput": 1,
        "preDelayCVSens": 0,
        "inputSensitivity": 0,
        "outputSaturation": 0
      },
      "pos": [
        104,
        0
      ]
    },
    {
      "id": 79,
      "plugin": "Bogaudio",
      "version": "1.1.22",
      "model": "Bogaudio-FMOp",
      "params": [
        {
          "id": 0,
          "value": 0.0
        },
        {
          "id": 1,
          "value": 0.0
        },
        {
          "id": 2,
          "value": 0.0584999882
        },
        {
          "id": 3,
          "value": 0.316229999
        },
        {
          "id": 4,
          "value": 0.0885000229
        },
        {
          "id": 5,
          "value": 0.316229999
        },
        {
          "id": 6,
          "value": 0.0
        },
        {
          "id": 7,
          "value": 0.241499916
        },
        {
          "id": 8,
          "value": 1.0
        },
        {
          "id": 9,
          "value": 1.0
        },
        {
          "id": 10,
          "value": 0.0
        },
        {
          "id": 11,
          "value": 0.0
        }
      ],
      "leftModuleId": 78,
      "rightModuleId": 80,
      "data": {
        "linearLevel": false
      },
      "pos": [
        84,
        1
      ]
    },
    {
      "id": 80,
      "plugin": "Bogaudio",
      "version": "1.1.22",
      "model": "Bogaudio-FMOp",
      "params": [
        {
          "id": 0,
          "value": 0.0
        },
        {
          "id": 1,
          "value": 0.0
        },
        {
          "id": 2,
          "value": 0.043499995
        },
        {
          "id": 3,
          "value": 0.316229999
        },
        {
          "id": 4,
          "value": 0.0494999923
        },
        {
          "id": 5,
          "value": 0.316229999
        },
        {
          "id": 6,
          "value": 0.0
        },
        {
          "id": 7,
          "value": 0.238499939
        },
        {
          "id": 8,
          "value": 1.0
        },
        {
          "id": 9,
          "value": 1.0
        },
        {
          "id": 10,
          "value": 0.0
        },
        {
          "id": 11,
          "value": 0.0
        }
      ],
      "leftModuleId": 79,
      "rightModuleId": 82,
      "data": {
        "linearLevel": false
      },
      "pos": [
        94,
        1
      ]
    },
    {
      "id": 82,
      "plugin": "Bogaudio",
      "version": "1.1.22",
      "model": "Bogaudio-FMOp",
      "params": [
        {
          "id": 0,
          "value": 0.0
        },
        {
          "id": 1,
          "value": 0.0
        },
        {
          "id": 2,
          "value": 0.0614999868
        },
        {
          "id": 3,
          "value": 0.289229929
        },
        {
          "id": 4,
          "value": 0.0659999922
        },
        {
          "id": 5,
          "value": 0.278730005
        },
        {
          "id": 6,
          "value": 0.0
        },
        {
          "id": 7,
          "value": 0.274499923
        },
        {
          "id": 8,
          "value": 1.0
        },
        {
          "id": 9,
          "value": 1.0
        },
        {
          "id": 10,
          "value": 0.0
        },
        {
          "id": 11,
          "value": 0.0
        }
      ],
      "leftModuleId": 80,
      "rightModuleId": 83,
      "data": {
        "linearLevel": false
      },
      "pos": [
        104,
        1
      ]
    },
    {
      "id": 83,
      "plugin": "Bogaudio",
      "version": "1.1.22",
      "model": "Bogaudio-FMOp",
      "params": [
        {
          "id": 0,
          "value": 0.0
        },
        {
          "id": 1,
          "value": 0.0
        },
        {
          "id": 2,
          "value": 0.0614999868
        },
        {
          "id": 3,
          "value": 0.649230361
        },
        {
          "id": 4,
          "value": 0.00300000003
        },
        {
          "id": 5,
          "value": 0.727230191
        },
        {
          "id": 6,
          "value": 0.265500009
        },
        {
          "id": 7,
          "value": 0.282000035
        },
        {
          "id": 8,
          "value": 1.0
        },
        {
          "id": 9,
          "value": 1.0
        },
        {
          "id": 10,
          "value": 0.0
        },
        {
          "id": 11,
          "value": 1.0
        }
      ],
      "leftModuleId": 82,
      "data": {
        "linearLevel": false
      },
      "pos": [
        114,
        1
      ]
    },
    {
      "id": 84,
      "plugin": "Bogaudio",
      "version": "1.1.22",
      "model": "Bogaudio-EightFO",
      "params": [
        {
          "id": 0,
          "value": 0.0
        },
        {
          "id": 1,
          "value": 3.0
        },
        {
          "id": 2,
          "value": 0.0
        },
        {
          "id": 3,
          "value": 0.0
        },
        {
          "id": 4,
          "value": 0.0
        },
        {
          "id": 5,
          "value": 0.0
        },
        {
          "id": 6,
          "value": 0.0
        },
        {
          "id": 7,
          "value": 0.0
        },
        {
          "id": 8,
          "value": 0.0
        },
        {
          "id": 9,
          "value": 0.0
        },
        {
          "id": 10,
          "value": 0.0
        },
        {
          "id": 11,
          "value": 1.0
        },
        {
          "id": 12,
          "value": 1.0
        },
        {
          "id": 13,
          "value": 1.0
        }
      ],
      "leftModuleId": 73,
      "rightModuleId": 86,
      "pos": [
        37,
        0
      ]
    },
    {
      "id": 85,
      "plugin": "Fundamental",
      "version": "1.2.1",
      "model": "Scope",
      "params": [
        {
          "id": 0,
          "value": 1.0
        },
        {
          "id": 1,
          "value": -5.91999674
        },
        {
          "id": 2,
          "value": 1.0
        },
        {
          "id": 3,
          "value": 0.0
        },
        {
          "id": 4,
          "value": 6.87498617
        },
        {
          "id": 5,
          "value": 0.0
        },
        {
          "id": 6,
          "value": 0.0
        },
        {
          "id": 7,
          "value": 0.0
        }
      ],
      "leftModuleId": 86,
      "rightModuleId": 74,
      "data": {
        "lissajous": 1,
        "external": 0
      },
      "pos": [
        59,
        0
      ]
    },
    {
      "id": 86,
      "plugin": "Fundamental",
      "version": "1.2.1",
      "model": "Merge",
      "params": [],
      "leftModuleId": 84,
      "rightModuleId": 85,
      "data": {
        "channels": -1
      },
      "pos": [
        54,
        0
      ]
    },
    {
      "id": 78,
      "plugin": "Koralfx-Modules",
      "version": "1.0.2",
      "model": "Scorovnik",
      "params": [
        {
          "id": 0,
          "value": 0.0
        },
        {
          "id": 1,
          "value": 0.0
        },
        {
          "id": 2,
          "value": 0.0
        },
        {
          "id": 3,
          "value": 0.0
        },
        {
          "id": 4,
          "value": 0.0
        },
        {
          "id": 5,
          "value": 0.0
        },
        {
          "id": 6,
          "value": 0.0
        },
        {
          "id": 7,
          "value": 0.0
        },
        {
          "id": 8,
          "value": 0.0
        },
        {
          "id": 9,
          "value": 0.0
        },
        {
          "id": 10,
          "value": 0.0
        },
        {
          "id": 11,
          "value": 0.0
        },
        {
          "id": 12,
          "value": 0.0
        },
        {
          "id": 13,
          "value": 0.0
        },
        {
          "id": 14,
          "value": 0.0
        },
        {
          "id": 15,
          "value": 0.0
        },
        {
          "id": 16,
          "value": 0.0
        },
        {
          "id": 17,
          "value": 0.0
        },
        {
          "id": 18,
          "value": 0.0
        },
        {
          "id": 19,
          "value": 0.0
        },
        {
          "id": 20,
          "value": 0.0
        },
        {
          "id": 21,
          "value": 0.0
        },
        {
          "id": 22,
          "value": 0.0
        },
        {
          "id": 23,
          "value": 0.0
        },
        {
          "id": 24,
          "value": 4.0
        },
        {
          "id": 25,
          "value": 3.0
        },
        {
          "id": 26,
          "value": 4.0
        },
        {
          "id": 27,
          "value": 2.0
        },
        {
          "id": 28,
          "value": 2.0
        },
        {
          "id": 29,
          "value": 2.0
        },
        {
          "id": 30,
          "value": 4.0
        },
        {
          "id": 31,
          "value": 3.0
        },
        {
          "id": 32,
          "value": 2.0
        },
        {
          "id": 33,
          "value": 9.0
        },
        {
          "id": 34,
          "value": 14.0
        },
        {
          "id": 35,
          "value": 7.0
        },
        {
          "id": 36,
          "value": -3.0
        },
        {
          "id": 37,
          "value": -12.0
        },
        {
          "id": 38,
          "value": 0.0
        },
        {
          "id": 39,
          "value": 0.0
        },
        {
          "id": 40,
          "value": 9.0
        },
        {
          "id": 41,
          "value": 17.0
        },
        {
          "id": 42,
          "value": 14.0
        },
        {
          "id": 43,
          "value": 9.0
        },
        {
          "id": 44,
          "value": 7.0
        },
        {
          "id": 45,
          "value": 0.0
        },
        {
          "id": 46,
          "value": 0.0
        },
        {
          "id": 47,
          "value": 0.0
        },
        {
          "id": 48,
          "value": 2.0
        },
        {
          "id": 49,
          "value": -3.0
        },
        {
          "id": 50,
          "value": 2.0
        },
        {
          "id": 51,
          "value": 0.0
        },
        {
          "id": 52,
          "value": 0.0
        },
        {
          "id": 53,
          "value": 0.0
        },
        {
          "id": 54,
          "value": 0.0
        },
        {
          "id": 55,
          "value": 0.0
        },
        {
          "id": 56,
          "value": -10.0
        },
        {
          "id": 57,
          "value": -15.0
        },
        {
          "id": 58,
          "value": -7.0
        },
        {
          "id": 59,
          "value": -2.0
        },
        {
          "id": 60,
          "value": 5.0
        },
        {
          "id": 61,
          "value": 7.0
        },
        {
          "id": 62,
          "value": 9.0
        },
        {
          "id": 63,
          "value": 12.0
        },
        {
          "id": 64,
          "value": 0.0
        },
        {
          "id": 65,
          "value": 0.0
        },
        {
          "id": 66,
          "value": 0.0
        },
        {
          "id": 67,
          "value": 0.0
        },
        {
          "id": 68,
          "value": 0.0
        },
        {
          "id": 69,
          "value": 0.0
        },
        {
          "id": 70,
          "value": 0.0
        },
        {
          "id": 71,
          "value": 0.0
        },
        {
          "id": 72,
          "value": 0.0
        },
        {
          "id": 73,
          "value": 0.0
        },
        {
          "id": 74,
          "value": 0.0
        },
        {
          "id": 75,
          "value": 0.0
        },
        {
          "id": 76,
          "value": 0.0
        },
        {
          "id": 77,
          "value": 0.0
        },
        {
          "id": 78,
          "value": 0.0
        },
        {
          "id": 79,
          "value": 0.0
        },
        {
          "id": 80,
          "value": 0.0
        },
        {
          "id": 81,
          "value": 0.0
        },
        {
          "id": 82,
          "value": 0.0
        },
        {
          "id": 83,
          "value": 0.0
        },
        {
          "id": 84,
          "value": 0.0
        },
        {
          "id": 85,
          "value": 0.0
        },
        {
          "id": 86,
          "value": 0.0
        },
        {
          "id": 87,
          "value": 0.0
        },
        {
          "id": 88,
          "value": 0.0
        },
        {
          "id": 89,
          "value": 0.0
        },
        {
          "id": 90,
          "value": 0.0
        },
        {
          "id": 91,
          "value": 2.0
        },
        {
          "id": 92,
          "value": 2.0
        },
        {
          "id": 93,
          "value": 2.0
        },
        {
          "id": 94,
          "value": 0.0
        },
        {
          "id": 95,
          "value": 0.0
        },
        {
          "id": 96,
          "value": 1.0
        },
        {
          "id": 97,
          "value": 1.0
        },
        {
          "id": 98,
          "value": 1.0
        },
        {
          "id": 99,
          "value": 1.0
        },
        {
          "id": 100,
          "value": 1.0
        },
        {
          "id": 101,
          "value": 1.0
        },
        {
          "id": 102,
          "value": 1.0
        },
        {
          "id": 103,
          "value": 1.0
        },
        {
          "id": 104,
          "value": 1.0
        },
        {
          "id": 105,
          "value": 1.0
        },
        {
          "id": 106,
          "value": 1.0
        },
        {
          "id": 107,
          "value": 1.0
        },
        {
          "id": 108,
          "value": 1.0
        },
        {
          "id": 109,
          "value": 1.0
        },
        {
          "id": 110,
          "value": 1.0
        },
        {
          "id": 111,
          "value": 1.0
        },
        {
          "id": 112,
          "value": 1.0
        },
        {
          "id": 113,
          "value": 1.0
        },
        {
          "id": 114,
          "value": 1.0
        },
        {
          "id": 115,
          "value": 1.0
        },
        {
          "id": 116,
          "value": 1.0
        },
        {
          "id": 117,
          "value": 1.0
        },
        {
          "id": 118,
          "value": 1.0
        },
        {
          "id": 119,
          "value": 1.0
        },
        {
          "id": 120,
          "value": 1.0
        },
        {
          "id": 121,
          "value": 1.0
        },
        {
          "id": 122,
          "value": 1.0
        },
        {
          "id": 123,
          "value": 1.0
        },
        {
          "id": 124,
          "value": 1.0
        },
        {
          "id": 125,
          "value": 1.0
        },
        {
          "id": 126,
          "value": 1.0
        },
        {
          "id": 127,
          "value": 1.0
        },
        {
          "id": 128,
          "value": 0.0
        },
        {
          "id": 129,
          "value": 0.0
        },
        {
          "id": 130,
          "value": 0.0
        },
        {
          "id": 131,
          "value": 0.0
        },
        {
          "id": 132,
          "value": 0.0
        },
        {
          "id": 133,
          "value": 0.0
        },
        {
          "id": 134,
          "value": 0.0
        },
        {
          "id": 135,
          "value": 0.0
        },
        {
          "id": 136,
          "value": 0.0
        },
        {
          "id": 137,
          "value": 0.0
        },
        {
          "id": 138,
          "value": 0.0
        },
        {
          "id": 139,
          "value": 0.0
        },
        {
          "id": 140,
          "value": 0.0
        },
        {
          "id": 141,
          "value": 0.0
        },
        {
          "id": 142,
          "value": 0.0
        },
        {
          "id": 143,
          "value": 0.0
        },
        {
          "id": 144,
          "value": 0.0
        },
        {
          "id": 145,
          "value": 0.0
        },
        {
          "id": 146,
          "value": 0.0
        },
        {
          "id": 147,
          "value": 0.0
        },
        {
          "id": 148,
          "value": 0.0
        },
        {
          "id": 149,
          "value": 0.0
        },
        {
          "id": 150,
          "value": 0.0
        },
        {
          "id": 151,
          "value": 0.0
        },
        {
          "id": 152,
          "value": 0.0
        },
        {
          "id": 153,
          "value": 0.0
        },
        {
          "id": 154,
          "value": 0.0
        },
        {
          "id": 155,
          "value": 0.0
        },
        {
          "id": 156,
          "value": 0.0
        },
        {
          "id": 157,
          "value": 0.0
        },
        {
          "id": 158,
          "value": 0.0
        },
        {
          "id": 159,
          "value": 0.0
        },
        {
          "id": 160,
          "value": 0.0
        },
        {
          "id": 161,
          "value": 0.0
        },
        {
          "id": 162,
          "value": 0.0
        },
        {
          "id": 163,
          "value": 0.0
        },
        {
          "id": 164,
          "value": 0.0
        },
        {
          "id": 165,
          "value": 1.0
        },
        {
          "id": 166,
          "value": 1.0
        },
        {
          "id": 167,
          "value": 0.0
        },
        {
          "id": 168,
          "value": 1.0
        },
        {
          "id": 169,
          "value": 0.0
        },
        {
          "id": 170,
          "value": 0.0
        },
        {
          "id": 171,
          "value": 0.0
        },
        {
          "id": 172,
          "value": 0.0
        },
        {
          "id": 173,
          "value": 0.0
        },
        {
          "id": 174,
          "value": 0.0
        },
        {
          "id": 175,
          "value": 0.0
        },
        {
          "id": 176,
          "value": 0.0
        },
        {
          "id": 177,
          "value": 0.0
        },
        {
          "id": 178,
          "value": 0.0
        },
        {
          "id": 179,
          "value": 0.0
        },
        {
          "id": 180,
          "value": 0.0
        },
        {
          "id": 181,
          "value": 0.0
        },
        {
          "id": 182,
          "value": 0.0
        },
        {
          "id": 183,
          "value": 0.0
        },
        {
          "id": 184,
          "value": 0.0
        },
        {
          "id": 185,
          "value": 0.0
        },
        {
          "id": 186,
          "value": 0.0
        },
        {
          "id": 187,
          "value": 0.0
        },
        {
          "id": 188,
          "value": 0.0
        },
        {
          "id": 189,
          "value": 0.0
        },
        {
          "id": 190,
          "value": 0.0
        },
        {
          "id": 191,
          "value": 0.0
        },
        {
          "id": 192,
          "value": 120.0
        },
        {
          "id": 193,
          "value": 0.0
        },
        {
          "id": 194,
          "value": 2.0
        },
        {
          "id": 195,
          "value": 0.0
        },
        {
          "id": 196,
          "value": 0.0
        },
        {
          "id": 197,
          "value": 0.0
        },
        {
          "id": 198,
          "value": 0.0
        },
        {
          "id": 199,
          "value": 0.0
        },
        {
          "id": 200,
          "value": 0.0
        }
      ],
      "leftModuleId": 103,
      "rightModuleId": 79,
      "data": {
        "groupPlayA": 0,
        "groupPlayB": 0,
        "groupPlayC": 0,
        "groupPlayD": 0,
        "mode1SeqEnd": 6,
        "mode2SeqEndA": 16,
        "mode2SeqEndC": 16,
        "mode3SeqEndA": 6,
        "mode3SeqEndB": 1,
        "mode3SeqEndC": 3,
        "mode3SeqEndD": 8
      },
      "pos": [
        18,
        1
      ]
    },
    {
      "id": 92,
      "plugin": "Fundamental",
      "version": "1.2.1",
      "model": "VCO",
      "params": [
        {
          "id": 0,
          "value": 1.0
        },
        {
          "id": 1,
          "value": 1.0
        },
        {
          "id": 2,
          "value": -10.0136309
        },
        {
          "id": 3,
          "value": 0.0
        },
        {
          "id": 4,
          "value": 0.0
        },
        {
          "id": 5,
          "value": 0.5
        },
        {
          "id": 6,
          "value": 0.0
        }
      ],
      "leftModuleId": 98,
      "rightModuleId": 96,
      "pos": [
        46,
        2
      ]
    },
    {
      "id": 93,
      "plugin": "VultModulesFree",
      "version": "1.2.0",
      "model": "Tangents",
      "params": [
        {
          "id": 0,
          "value": 0.706498981
        },
        {
          "id": 1,
          "value": 0.577499747
        },
        {
          "id": 2,
          "value": 0.62800014
        },
        {
          "id": 3,
          "value": 0.0
        },
        {
          "id": 4,
          "value": 0.600000024
        },
        {
          "id": 5,
          "value": 0.0
        },
        {
          "id": 6,
          "value": 0.0
        }
      ],
      "leftModuleId": 96,
      "rightModuleId": 95,
      "pos": [
        64,
        2
      ]
    },
    {
      "id": 95,
      "plugin": "AS",
      "version": "1.0.3",
      "model": "VCA",
      "params": [
        {
          "id": 0,
          "value": 1.0
        },
        {
          "id": 1,
          "value": 0.609999955
        },
        {
          "id": 2,
          "value": 1.0
        },
        {
          "id": 3,
          "value": 1.0
        }
      ],
      "leftModuleId": 93,
      "rightModuleId": 126,
      "pos": [
        74,
        2
      ]
    },
    {
      "id": 96,
      "plugin": "CountModula",
      "version": "1.3.0",
      "model": "SubHarmonicGenerator",
      "params": [
        {
          "id": 0,
          "value": 0.661000073
        },
        {
          "id": 1,
          "value": 0.967000008
        },
        {
          "id": 2,
          "value": 0.0
        },
        {
          "id": 3,
          "value": 0.0
        },
        {
          "id": 4,
          "value": 0.0
        },
        {
          "id": 5,
          "value": 2.0
        },
        {
          "id": 6,
          "value": 2.0
        },
        {
          "id": 7,
          "value": 8.0
        },
        {
          "id": 8,
          "value": 16.0
        },
        {
          "id": 9,
          "value": 0.856000066
        }
      ],
      "leftModuleId": 92,
      "rightModuleId": 93,
      "data": {
        "moduleVersion": "1.0",
        "antiAlias": false
      },
      "pos": [
        56,
        2
      ]
    },
    {
      "id": 98,
      "plugin": "NYSTHI",
      "version": "1.0.3",
      "model": "HotTuna",
      "params": [
        {
          "id": 0,
          "value": -0.0
        },
        {
          "id": 1,
          "value": 0.0
        },
        {
          "id": 2,
          "value": 0.0
        },
        {
          "id": 3,
          "value": 0.0
        }
      ],
      "rightModuleId": 92,
      "data": {
        "m_use_DOREMI": false,
        "m_low_power_mode": true
      },
      "pos": [
        40,
        2
      ]
    },
    {
      "id": 101,
      "plugin": "cf",
      "version": "1.1.0",
      "model": "MONO",
      "params": [
        {
          "id": 0,
          "value": 0.0
        },
        {
          "id": 1,
          "value": 2.59999657
        },
        {
          "id": 2,
          "value": 0.0
        },
        {
          "id": 3,
          "value": 0.0
        }
      ],
      "leftModuleId": 77,
      "rightModuleId": 102,
      "data": {
        "solostate": 0,
        "onstate": 1
      },
      "pos": [
        116,
        0
      ]
    },
    {
      "id": 102,
      "plugin": "cf",
      "version": "1.1.0",
      "model": "MONO",
      "params": [
        {
          "id": 0,
          "value": 0.0
        },
        {
          "id": 1,
          "value": 5.0
        },
        {
          "id": 2,
          "value": 0.0
        },
        {
          "id": 3,
          "value": 0.0
        }
      ],
      "leftModuleId": 101,
      "rightModuleId": 76,
      "data": {
        "solostate": 0,
        "onstate": 1
      },
      "pos": [
        122,
        0
      ]
    },
    {
      "id": 103,
      "plugin": "RJModules",
      "version": "1.0.1",
      "model": "Button",
      "params": [
        {
          "id": 0,
          "value": 0.0
        }
      ],
      "leftModuleId": 145,
      "rightModuleId": 78,
      "pos": [
        8,
        1
      ]
    },
    {
      "id": 104,
      "plugin": "Stoermelder-P1",
      "version": "1.1.0",
      "model": "CVMapMicro",
      "params": [
        {
          "id": 0,
          "value": 0.0
        },
        {
          "id": 1,
          "value": 0.0
        },
        {
          "id": 2,
          "value": 1.0
        }
      ],
      "data": {
        "textScrolling": true,
        "maps": [
          {
            "moduleId": 76,
            "paramId": 1
          }
        ],
        "lockParameterChanges": true,
        "bipolarInput": false
      },
      "pos": [
        129,
        1
      ]
    },
    {
      "id": 105,
      "plugin": "ML_modules",
      "version": "1.0.2",
      "model": "Constants",
      "params": [],
      "rightModuleId": 106,
      "pos": [
        30,
        2
      ]
    },
    {
      "id": 106,
      "plugin": "Fundamental",
      "version": "1.2.1",
      "model": "SequentialSwitch2",
      "params": [
        {
          "id": 0,
          "value": 0.0
        }
      ],
      "leftModuleId": 105,
      "pos": [
        36,
        2
      ]
    },
    {
      "id": 118,
      "plugin": "ML_modules",
      "version": "1.0.2",
      "model": "Constants",
      "params": [],
      "rightModuleId": 119,
      "pos": [
        20,
        2
      ]
    },
    {
      "id": 119,
      "plugin": "Fundamental",
      "version": "1.2.1",
      "model": "SequentialSwitch2",
      "params": [
        {
          "id": 0,
          "value": 0.0
        }
      ],
      "leftModuleId": 118,
      "pos": [
        26,
        2
      ]
    },
    {
      "id": 122,
      "plugin": "Fundamental",
      "version": "1.2.1",
      "model": "SequentialSwitch2",
      "params": [
        {
          "id": 0,
          "value": 1.0
        }
      ],
      "rightModuleId": 123,
      "pos": [
        0,
        2
      ]
    },
    {
      "id": 123,
      "plugin": "Bogaudio",
      "version": "1.1.22",
      "model": "Bogaudio-Slew",
      "params": [
        {
          "id": 0,
          "value": 0.619230092
        },
        {
          "id": 1,
          "value": 0.0
        },
        {
          "id": 2,
          "value": 0.599729896
        },
        {
          "id": 3,
          "value": 0.0
        }
      ],
      "leftModuleId": 122,
      "rightModuleId": 124,
      "pos": [
        3,
        2
      ]
    },
    {
      "id": 124,
      "plugin": "Fundamental",
      "version": "1.2.1",
      "model": "Scope",
      "params": [
        {
          "id": 0,
          "value": 4.0
        },
        {
          "id": 1,
          "value": 0.0
        },
        {
          "id": 2,
          "value": 4.0
        },
        {
          "id": 3,
          "value": -0.0900000036
        },
        {
          "id": 4,
          "value": 6.0
        },
        {
          "id": 5,
          "value": 0.0
        },
        {
          "id": 6,
          "value": 0.0
        },
        {
          "id": 7,
          "value": 0.0
        }
      ],
      "leftModuleId": 123,
      "data": {
        "lissajous": 0,
        "external": 0
      },
      "pos": [
        6,
        2
      ]
    },
    {
      "id": 125,
      "plugin": "Core",
      "version": "1.1.4",
      "model": "Notes",
      "params": [],
      "rightModuleId": 73,
      "text": "\nOmri Cohen \n\nVCV Rack Patch from Scratch - KoralFX Scorovnik Sequencer\n\nhttps://www.youtube.com/watch?v=syG-wkD0_ww\n\n\n~27min I  added two sequences and a slew for the bass sound.\n\n   Fundamental VCO-1 plus Sub Harmonic Gen by Count Modula works instead of 21kHz Palm Loop. \n\n\n  \n",
      "pos": [
        1,
        0
      ]
    },
    {
      "id": 126,
      "plugin": "Bogaudio",
      "version": "1.1.22",
      "model": "Bogaudio-ADSR",
      "params": [
        {
          "id": 0,
          "value": 0.637499928
        },
        {
          "id": 1,
          "value": 0.292499721
        },
        {
          "id": 2,
          "value": 0.552000105
        },
        {
          "id": 3,
          "value": 0.703229606
        },
        {
          "id": 4,
          "value": 0.0
        }
      ],
      "leftModuleId": 95,
      "pos": [
        80,
        2
      ]
    },
    {
      "id": 129,
      "plugin": "Bogaudio",
      "version": "1.1.22",
      "model": "Bogaudio-UMix",
      "params": [
        {
          "id": 0,
          "value": 1.0
        }
      ],
      "rightModuleId": 135,
      "data": {
        "sum": true,
        "cv_mode": false
      },
      "pos": [
        181,
        2
      ]
    },
    {
      "id": 128,
      "plugin": "Koralfx-Modules",
      "version": "1.0.2",
      "model": "Scorovnik",
      "params": [
        {
          "id": 0,
          "value": 0.0
        },
        {
          "id": 1,
          "value": 0.0
        },
        {
          "id": 2,
          "value": 0.0
        },
        {
          "id": 3,
          "value": 0.0
        },
        {
          "id": 4,
          "value": 0.0
        },
        {
          "id": 5,
          "value": 0.0
        },
        {
          "id": 6,
          "value": 0.0
        },
        {
          "id": 7,
          "value": 0.0
        },
        {
          "id": 8,
          "value": 0.0
        },
        {
          "id": 9,
          "value": 0.0
        },
        {
          "id": 10,
          "value": 0.0
        },
        {
          "id": 11,
          "value": 0.0
        },
        {
          "id": 12,
          "value": 0.0
        },
        {
          "id": 13,
          "value": 0.0
        },
        {
          "id": 14,
          "value": 0.0
        },
        {
          "id": 15,
          "value": 0.0
        },
        {
          "id": 16,
          "value": 0.0
        },
        {
          "id": 17,
          "value": 0.0
        },
        {
          "id": 18,
          "value": 0.0
        },
        {
          "id": 19,
          "value": 0.0
        },
        {
          "id": 20,
          "value": 0.0
        },
        {
          "id": 21,
          "value": 0.0
        },
        {
          "id": 22,
          "value": 0.0
        },
        {
          "id": 23,
          "value": 0.0
        },
        {
          "id": 24,
          "value": 0.0
        },
        {
          "id": 25,
          "value": 0.0
        },
        {
          "id": 26,
          "value": 0.0
        },
        {
          "id": 27,
          "value": 0.0
        },
        {
          "id": 28,
          "value": 0.0
        },
        {
          "id": 29,
          "value": 0.0
        },
        {
          "id": 30,
          "value": 0.0
        },
        {
          "id": 31,
          "value": 0.0
        },
        {
          "id": 32,
          "value": 0.0
        },
        {
          "id": 33,
          "value": 12.0
        },
        {
          "id": 34,
          "value": 0.0
        },
        {
          "id": 35,
          "value": -19.0
        },
        {
          "id": 36,
          "value": 0.0
        },
        {
          "id": 37,
          "value": 17.0
        },
        {
          "id": 38,
          "value": -12.0
        },
        {
          "id": 39,
          "value": 0.0
        },
        {
          "id": 40,
          "value": 12.0
        },
        {
          "id": 41,
          "value": 17.0
        },
        {
          "id": 42,
          "value": 14.0
        },
        {
          "id": 43,
          "value": 9.0
        },
        {
          "id": 44,
          "value": 7.0
        },
        {
          "id": 45,
          "value": 0.0
        },
        {
          "id": 46,
          "value": 0.0
        },
        {
          "id": 47,
          "value": 0.0
        },
        {
          "id": 48,
          "value": 5.0
        },
        {
          "id": 49,
          "value": -3.0
        },
        {
          "id": 50,
          "value": 2.0
        },
        {
          "id": 51,
          "value": 0.0
        },
        {
          "id": 52,
          "value": 0.0
        },
        {
          "id": 53,
          "value": 0.0
        },
        {
          "id": 54,
          "value": 0.0
        },
        {
          "id": 55,
          "value": 0.0
        },
        {
          "id": 56,
          "value": -10.0
        },
        {
          "id": 57,
          "value": -15.0
        },
        {
          "id": 58,
          "value": -7.0
        },
        {
          "id": 59,
          "value": -2.0
        },
        {
          "id": 60,
          "value": 5.0
        },
        {
          "id": 61,
          "value": 7.0
        },
        {
          "id": 62,
          "value": 9.0
        },
        {
          "id": 63,
          "value": 12.0
        },
        {
          "id": 64,
          "value": 0.0
        },
        {
          "id": 65,
          "value": 0.0
        },
        {
          "id": 66,
          "value": 0.0
        },
        {
          "id": 67,
          "value": 0.0
        },
        {
          "id": 68,
          "value": 0.0
        },
        {
          "id": 69,
          "value": 0.0
        },
        {
          "id": 70,
          "value": 0.0
        },
        {
          "id": 71,
          "value": 0.0
        },
        {
          "id": 72,
          "value": 0.0
        },
        {
          "id": 73,
          "value": 0.0
        },
        {
          "id": 74,
          "value": 0.0
        },
        {
          "id": 75,
          "value": 0.0
        },
        {
          "id": 76,
          "value": 0.0
        },
        {
          "id": 77,
          "value": 0.0
        },
        {
          "id": 78,
          "value": 0.0
        },
        {
          "id": 79,
          "value": 0.0
        },
        {
          "id": 80,
          "value": 0.0
        },
        {
          "id": 81,
          "value": 0.0
        },
        {
          "id": 82,
          "value": 0.0
        },
        {
          "id": 83,
          "value": 0.0
        },
        {
          "id": 84,
          "value": 0.0
        },
        {
          "id": 85,
          "value": 0.0
        },
        {
          "id": 86,
          "value": 0.0
        },
        {
          "id": 87,
          "value": 0.0
        },
        {
          "id": 88,
          "value": 0.0
        },
        {
          "id": 89,
          "value": 0.0
        },
        {
          "id": 90,
          "value": 0.0
        },
        {
          "id": 91,
          "value": 0.0
        },
        {
          "id": 92,
          "value": 0.0
        },
        {
          "id": 93,
          "value": 0.0
        },
        {
          "id": 94,
          "value": 0.0
        },
        {
          "id": 95,
          "value": 0.0
        },
        {
          "id": 96,
          "value": 1.0
        },
        {
          "id": 97,
          "value": 1.0
        },
        {
          "id": 98,
          "value": 1.0
        },
        {
          "id": 99,
          "value": 1.0
        },
        {
          "id": 100,
          "value": 1.0
        },
        {
          "id": 101,
          "value": 1.0
        },
        {
          "id": 102,
          "value": 1.0
        },
        {
          "id": 103,
          "value": 1.0
        },
        {
          "id": 104,
          "value": 1.0
        },
        {
          "id": 105,
          "value": 1.0
        },
        {
          "id": 106,
          "value": 1.0
        },
        {
          "id": 107,
          "value": 1.0
        },
        {
          "id": 108,
          "value": 1.0
        },
        {
          "id": 109,
          "value": 1.0
        },
        {
          "id": 110,
          "value": 1.0
        },
        {
          "id": 111,
          "value": 1.0
        },
        {
          "id": 112,
          "value": 1.0
        },
        {
          "id": 113,
          "value": 1.0
        },
        {
          "id": 114,
          "value": 1.0
        },
        {
          "id": 115,
          "value": 1.0
        },
        {
          "id": 116,
          "value": 1.0
        },
        {
          "id": 117,
          "value": 1.0
        },
        {
          "id": 118,
          "value": 1.0
        },
        {
          "id": 119,
          "value": 1.0
        },
        {
          "id": 120,
          "value": 1.0
        },
        {
          "id": 121,
          "value": 1.0
        },
        {
          "id": 122,
          "value": 1.0
        },
        {
          "id": 123,
          "value": 1.0
        },
        {
          "id": 124,
          "value": 1.0
        },
        {
          "id": 125,
          "value": 1.0
        },
        {
          "id": 126,
          "value": 1.0
        },
        {
          "id": 127,
          "value": 1.0
        },
        {
          "id": 128,
          "value": 0.0
        },
        {
          "id": 129,
          "value": 0.0
        },
        {
          "id": 130,
          "value": 0.0
        },
        {
          "id": 131,
          "value": 0.0
        },
        {
          "id": 132,
          "value": 0.0
        },
        {
          "id": 133,
          "value": 0.0
        },
        {
          "id": 134,
          "value": 0.0
        },
        {
          "id": 135,
          "value": 0.0
        },
        {
          "id": 136,
          "value": 0.0
        },
        {
          "id": 137,
          "value": 0.0
        },
        {
          "id": 138,
          "value": 0.0
        },
        {
          "id": 139,
          "value": 0.0
        },
        {
          "id": 140,
          "value": 0.0
        },
        {
          "id": 141,
          "value": 0.0
        },
        {
          "id": 142,
          "value": 0.0
        },
        {
          "id": 143,
          "value": 0.0
        },
        {
          "id": 144,
          "value": 0.0
        },
        {
          "id": 145,
          "value": 0.0
        },
        {
          "id": 146,
          "value": 0.0
        },
        {
          "id": 147,
          "value": 0.0
        },
        {
          "id": 148,
          "value": 0.0
        },
        {
          "id": 149,
          "value": 0.0
        },
        {
          "id": 150,
          "value": 0.0
        },
        {
          "id": 151,
          "value": 0.0
        },
        {
          "id": 152,
          "value": 0.0
        },
        {
          "id": 153,
          "value": 0.0
        },
        {
          "id": 154,
          "value": 0.0
        },
        {
          "id": 155,
          "value": 0.0
        },
        {
          "id": 156,
          "value": 0.0
        },
        {
          "id": 157,
          "value": 0.0
        },
        {
          "id": 158,
          "value": 0.0
        },
        {
          "id": 159,
          "value": 0.0
        },
        {
          "id": 160,
          "value": 0.0
        },
        {
          "id": 161,
          "value": 0.0
        },
        {
          "id": 162,
          "value": 0.0
        },
        {
          "id": 163,
          "value": 0.0
        },
        {
          "id": 164,
          "value": 0.0
        },
        {
          "id": 165,
          "value": 1.0
        },
        {
          "id": 166,
          "value": 1.0
        },
        {
          "id": 167,
          "value": 1.0
        },
        {
          "id": 168,
          "value": 0.0
        },
        {
          "id": 169,
          "value": 1.0
        },
        {
          "id": 170,
          "value": 0.0
        },
        {
          "id": 171,
          "value": 0.0
        },
        {
          "id": 172,
          "value": 0.0
        },
        {
          "id": 173,
          "value": 0.0
        },
        {
          "id": 174,
          "value": 0.0
        },
        {
          "id": 175,
          "value": 0.0
        },
        {
          "id": 176,
          "value": 0.0
        },
        {
          "id": 177,
          "value": 0.0
        },
        {
          "id": 178,
          "value": 0.0
        },
        {
          "id": 179,
          "value": 0.0
        },
        {
          "id": 180,
          "value": 0.0
        },
        {
          "id": 181,
          "value": 0.0
        },
        {
          "id": 182,
          "value": 0.0
        },
        {
          "id": 183,
          "value": 0.0
        },
        {
          "id": 184,
          "value": 0.0
        },
        {
          "id": 185,
          "value": 0.0
        },
        {
          "id": 186,
          "value": 0.0
        },
        {
          "id": 187,
          "value": 0.0
        },
        {
          "id": 188,
          "value": 0.0
        },
        {
          "id": 189,
          "value": 0.0
        },
        {
          "id": 190,
          "value": 1.0
        },
        {
          "id": 191,
          "value": 0.0
        },
        {
          "id": 192,
          "value": 120.0
        },
        {
          "id": 193,
          "value": 0.0
        },
        {
          "id": 194,
          "value": 1.0
        },
        {
          "id": 195,
          "value": 3.0
        },
        {
          "id": 196,
          "value": 0.0
        },
        {
          "id": 197,
          "value": 0.0
        },
        {
          "id": 198,
          "value": 0.0
        },
        {
          "id": 199,
          "value": 0.0
        },
        {
          "id": 200,
          "value": 0.0
        }
      ],
      "leftModuleId": 146,
      "data": {
        "groupPlayA": 0,
        "groupPlayB": 1,
        "groupPlayC": 1,
        "groupPlayD": 1,
        "mode1SeqEnd": 6,
        "mode2SeqEndA": 10,
        "mode2SeqEndC": 15,
        "mode3SeqEndA": 8,
        "mode3SeqEndB": 5,
        "mode3SeqEndC": 3,
        "mode3SeqEndD": 8
      },
      "pos": [
        103,
        2
      ]
    },
    {
      "id": 135,
      "plugin": "squinkylabs-plug1",
      "version": "1.0.3",
      "model": "squinkylabs-ev3",
      "params": [
        {
          "id": 0,
          "value": 0.0
        },
        {
          "id": 1,
          "value": 0.0
        },
        {
          "id": 2,
          "value": 0.0
        },
        {
          "id": 3,
          "value": -1.0
        },
        {
          "id": 4,
          "value": 2.0
        },
        {
          "id": 5,
          "value": 0.0
        },
        {
          "id": 6,
          "value": 0.0
        },
        {
          "id": 7,
          "value": 0.0
        },
        {
          "id": 8,
          "value": 0.0
        },
        {
          "id": 9,
          "value": 0.0
        },
        {
          "id": 10,
          "value": 0.0
        },
        {
          "id": 11,
          "value": -2.0
        },
        {
          "id": 12,
          "value": 9.0
        },
        {
          "id": 13,
          "value": 0.0
        },
        {
          "id": 14,
          "value": 0.0
        },
        {
          "id": 15,
          "value": 0.0
        },
        {
          "id": 16,
          "value": 0.0
        },
        {
          "id": 17,
          "value": 0.0
        },
        {
          "id": 18,
          "value": 0.0
        },
        {
          "id": 19,
          "value": -0.0
        },
        {
          "id": 20,
          "value": -3.0
        },
        {
          "id": 21,
          "value": 0.0
        },
        {
          "id": 22,
          "value": 0.0
        },
        {
          "id": 23,
          "value": 0.0
        },
        {
          "id": 24,
          "value": 0.0
        },
        {
          "id": 25,
          "value": 0.0
        },
        {
          "id": 26,
          "value": 0.0
        }
      ],
      "leftModuleId": 129,
      "rightModuleId": 136,
      "pos": [
        184,
        2
      ]
    },
    {
      "id": 136,
      "plugin": "Bogaudio",
      "version": "1.1.22",
      "model": "Bogaudio-Mix4",
      "params": [
        {
          "id": 0,
          "value": 0.909090936
        },
        {
          "id": 1,
          "value": 0.0
        },
        {
          "id": 2,
          "value": 0.0
        },
        {
          "id": 3,
          "value": 0.909090936
        },
        {
          "id": 4,
          "value": -1.0
        },
        {
          "id": 5,
          "value": 0.0
        },
        {
          "id": 6,
          "value": 0.909090936
        },
        {
          "id": 7,
          "value": 1.0
        },
        {
          "id": 8,
          "value": 0.0
        },
        {
          "id": 9,
          "value": 0.909090936
        },
        {
          "id": 10,
          "value": 0.0
        },
        {
          "id": 11,
          "value": 0.0
        },
        {
          "id": 12,
          "value": 0.726090848
        },
        {
          "id": 13,
          "value": 0.0
        }
      ],
      "leftModuleId": 135,
      "rightModuleId": 139,
      "pos": [
        202,
        2
      ]
    },
    {
      "id": 138,
      "plugin": "AS",
      "version": "1.0.3",
      "model": "TremoloStereoFx",
      "params": [
        {
          "id": 0,
          "value": 0.5
        },
        {
          "id": 1,
          "value": 0.689500153
        },
        {
          "id": 2,
          "value": 1.0
        },
        {
          "id": 3,
          "value": 1.0
        },
        {
          "id": 4,
          "value": 0.0
        }
      ],
      "leftModuleId": 139,
      "data": {
        "as_FxBypass": [
          false
        ]
      },
      "pos": [
        229,
        2
      ]
    },
    {
      "id": 139,
      "plugin": "Valley",
      "version": "1.0.1",
      "model": "Plateau",
      "params": [
        {
          "id": 0,
          "value": 0.332499921
        },
        {
          "id": 1,
          "value": 0.624499977
        },
        {
          "id": 2,
          "value": 0.0
        },
        {
          "id": 3,
          "value": 10.0
        },
        {
          "id": 4,
          "value": 10.0
        },
        {
          "id": 5,
          "value": 0.5
        },
        {
          "id": 6,
          "value": 10.0
        },
        {
          "id": 7,
          "value": 0.549950004
        },
        {
          "id": 8,
          "value": 10.0
        },
        {
          "id": 9,
          "value": 10.0
        },
        {
          "id": 10,
          "value": 0.0
        },
        {
          "id": 11,
          "value": 0.5
        },
        {
          "id": 12,
          "value": 0.5
        },
        {
          "id": 13,
          "value": 0.0
        },
        {
          "id": 14,
          "value": 0.0
        },
        {
          "id": 15,
          "value": 0.0
        },
        {
          "id": 16,
          "value": 0.0
        },
        {
          "id": 17,
          "value": 0.0
        },
        {
          "id": 18,
          "value": 0.0
        },
        {
          "id": 19,
          "value": 0.0
        },
        {
          "id": 20,
          "value": 0.0
        },
        {
          "id": 21,
          "value": 0.0
        },
        {
          "id": 22,
          "value": 0.0
        },
        {
          "id": 23,
          "value": 0.0
        },
        {
          "id": 24,
          "value": 0.0
        },
        {
          "id": 25,
          "value": 0.0
        },
        {
          "id": 26,
          "value": 0.0
        },
        {
          "id": 27,
          "value": 0.0
        },
        {
          "id": 28,
          "value": 0.0
        },
        {
          "id": 29,
          "value": 0.0
        },
        {
          "id": 30,
          "value": 1.0
        }
      ],
      "leftModuleId": 136,
      "rightModuleId": 138,
      "data": {
        "frozen": false,
        "freezeToggle": false,
        "panelStyle": 0,
        "tuned": 0,
        "diffuseInput": 1,
        "preDelayCVSens": 0,
        "inputSensitivity": 0,
        "outputSaturation": 0
      },
      "pos": [
        217,
        2
      ]
    },
    {
      "id": 140,
      "plugin": "Bogaudio",
      "version": "1.1.22",
      "model": "Bogaudio-DADSRHPlus",
      "params": [
        {
          "id": 0,
          "value": 0.0
        },
        {
          "id": 1,
          "value": 0.0
        },
        {
          "id": 2,
          "value": 0.274229914
        },
        {
          "id": 3,
          "value": 0.0
        },
        {
          "id": 4,
          "value": 0.316229999
        },
        {
          "id": 5,
          "value": 0.447210014
        },
        {
          "id": 6,
          "value": 1.0
        },
        {
          "id": 7,
          "value": 1.0
        },
        {
          "id": 8,
          "value": 1.0
        },
        {
          "id": 9,
          "value": 0.0
        },
        {
          "id": 10,
          "value": 1.0
        },
        {
          "id": 11,
          "value": 1.0
        },
        {
          "id": 12,
          "value": 1.0
        },
        {
          "id": 13,
          "value": 1.0
        }
      ],
      "data": {
        "triggerOnLoad": true,
        "shouldTriggerOnLoad": true
      },
      "pos": [
        84,
        2
      ]
    },
    {
      "id": 141,
      "plugin": "Fundamental",
      "version": "1.2.1",
      "model": "Scope",
      "params": [
        {
          "id": 0,
          "value": 0.0
        },
        {
          "id": 1,
          "value": -9.93999958
        },
        {
          "id": 2,
          "value": 0.0
        },
        {
          "id": 3,
          "value": 1.8599993
        },
        {
          "id": 4,
          "value": 6.0
        },
        {
          "id": 5,
          "value": 0.0
        },
        {
          "id": 6,
          "value": 0.0
        },
        {
          "id": 7,
          "value": 0.0
        }
      ],
      "rightModuleId": 142,
      "data": {
        "lissajous": 0,
        "external": 0
      },
      "pos": [
        83,
        3
      ]
    },
    {
      "id": 142,
      "plugin": "Autodafe-DrumKit",
      "version": "1.0.0",
      "model": "DrumsKick",
      "params": [
        {
          "id": 0,
          "value": 0.0
        }
      ],
      "leftModuleId": 141,
      "rightModuleId": 143,
      "data": {
        "sampletype": 5
      },
      "pos": [
        96,
        3
      ]
    },
    {
      "id": 143,
      "plugin": "Autodafe-DrumKit",
      "version": "1.0.0",
      "model": "DrumsSnare",
      "params": [
        {
          "id": 0,
          "value": 0.0
        }
      ],
      "leftModuleId": 142,
      "rightModuleId": 144,
      "data": {
        "sampletype": 5
      },
      "pos": [
        100,
        3
      ]
    },
    {
      "id": 144,
      "plugin": "SynthKit",
      "version": "1.0.1",
      "model": "ShiftingClockDividerCV",
      "params": [],
      "leftModuleId": 143,
      "pos": [
        104,
        3
      ]
    },
    {
      "id": 145,
      "plugin": "Bogaudio",
      "version": "1.1.22",
      "model": "Bogaudio-UMix",
      "params": [
        {
          "id": 0,
          "value": 1.0
        }
      ],
      "rightModuleId": 103,
      "data": {
        "sum": true,
        "cv_mode": false
      },
      "pos": [
        5,
        1
      ]
    },
    {
      "id": 146,
      "plugin": "CharredDesert",
      "version": "1.0.1",
      "model": "M",
      "params": [
        {
          "id": 0,
          "value": 0.5
        },
        {
          "id": 1,
          "value": 0.5
        }
      ],
      "rightModuleId": 128,
      "pos": [
        101,
        2
      ]
    }
  ],
  "cables": [
    {
      "id": 21,
      "outputModuleId": 14,
      "outputId": 0,
      "inputModuleId": 16,
      "inputId": 0,
      "color": "#0c8e15"
    },
    {
      "id": 314,
      "outputModuleId": 15,
      "outputId": 0,
      "inputModuleId": 17,
      "inputId": 0,
      "color": "#c91847"
    },
    {
      "id": 315,
      "outputModuleId": 16,
      "outputId": 0,
      "inputModuleId": 72,
      "inputId": 0,
      "color": "#0986ad"
    },
    {
      "id": 316,
      "outputModuleId": 17,
      "outputId": 0,
      "inputModuleId": 72,
      "inputId": 1,
      "color": "#c9b70e"
    },
    {
      "id": 334,
      "outputModuleId": 80,
      "outputId": 0,
      "inputModuleId": 74,
      "inputId": 4,
      "color": "#0986ad"
    },
    {
      "id": 337,
      "outputModuleId": 82,
      "outputId": 0,
      "inputModuleId": 74,
      "inputId": 7,
      "color": "#c91847"
    },
    {
      "id": 331,
      "outputModuleId": 79,
      "outputId": 0,
      "inputModuleId": 74,
      "inputId": 1,
      "color": "#c9b70e"
    },
    {
      "id": 340,
      "outputModuleId": 83,
      "outputId": 0,
      "inputModuleId": 74,
      "inputId": 10,
      "color": "#c91847"
    },
    {
      "id": 342,
      "outputModuleId": 84,
      "outputId": 0,
      "inputModuleId": 79,
      "inputId": 2,
      "color": "#c9b70e"
    },
    {
      "id": 344,
      "outputModuleId": 84,
      "outputId": 3,
      "inputModuleId": 80,
      "inputId": 2,
      "color": "#c91847"
    },
    {
      "id": 343,
      "outputModuleId": 84,
      "outputId": 3,
      "inputModuleId": 86,
      "inputId": 1,
      "color": "#0c8e15"
    },
    {
      "id": 341,
      "outputModuleId": 84,
      "outputId": 0,
      "inputModuleId": 86,
      "inputId": 0,
      "color": "#0986ad"
    },
    {
      "id": 345,
      "outputModuleId": 86,
      "outputId": 0,
      "inputModuleId": 85,
      "inputId": 0,
      "color": "#0986ad"
    },
    {
      "id": 346,
      "outputModuleId": 84,
      "outputId": 2,
      "inputModuleId": 82,
      "inputId": 2,
      "color": "#c9b70e"
    },
    {
      "id": 347,
      "outputModuleId": 84,
      "outputId": 2,
      "inputModuleId": 86,
      "inputId": 2,
      "color": "#0c8e15"
    },
    {
      "id": 348,
      "outputModuleId": 83,
      "outputId": 0,
      "inputModuleId": 85,
      "inputId": 1,
      "color": "#c91847"
    },
    {
      "id": 322,
      "outputModuleId": 75,
      "outputId": 2,
      "inputModuleId": 77,
      "inputId": 1,
      "color": "#c91847"
    },
    {
      "id": 321,
      "outputModuleId": 75,
      "outputId": 3,
      "inputModuleId": 77,
      "inputId": 0,
      "color": "#0c8e15"
    },
    {
      "id": 351,
      "outputModuleId": 76,
      "outputId": 3,
      "inputModuleId": 15,
      "inputId": 0,
      "color": "#c91847"
    },
    {
      "id": 325,
      "outputModuleId": 76,
      "outputId": 2,
      "inputModuleId": 14,
      "inputId": 0,
      "color": "#c91847"
    },
    {
      "id": 317,
      "outputModuleId": 72,
      "outputId": 0,
      "inputModuleId": 0,
      "inputId": 0,
      "color": "#0c8e15"
    },
    {
      "id": 318,
      "outputModuleId": 72,
      "outputId": 1,
      "inputModuleId": 0,
      "inputId": 1,
      "color": "#c91847"
    },
    {
      "id": 328,
      "outputModuleId": 73,
      "outputId": 1,
      "inputModuleId": 78,
      "inputId": 0,
      "color": "#0c8e15"
    },
    {
      "id": 335,
      "outputModuleId": 78,
      "outputId": 8,
      "inputModuleId": 82,
      "inputId": 4,
      "color": "#c9b70e"
    },
    {
      "id": 336,
      "outputModuleId": 78,
      "outputId": 4,
      "inputModuleId": 82,
      "inputId": 5,
      "color": "#0c8e15"
    },
    {
      "id": 332,
      "outputModuleId": 78,
      "outputId": 7,
      "inputModuleId": 80,
      "inputId": 4,
      "color": "#0c8e15"
    },
    {
      "id": 333,
      "outputModuleId": 78,
      "outputId": 3,
      "inputModuleId": 80,
      "inputId": 5,
      "color": "#c91847"
    },
    {
      "id": 329,
      "outputModuleId": 78,
      "outputId": 2,
      "inputModuleId": 79,
      "inputId": 5,
      "color": "#c91847"
    },
    {
      "id": 353,
      "outputModuleId": 93,
      "outputId": 0,
      "inputModuleId": 95,
      "inputId": 1,
      "color": "#0986ad"
    },
    {
      "id": 356,
      "outputModuleId": 95,
      "outputId": 0,
      "inputModuleId": 74,
      "inputId": 13,
      "color": "#c91847"
    },
    {
      "id": 357,
      "outputModuleId": 92,
      "outputId": 2,
      "inputModuleId": 93,
      "inputId": 0,
      "color": "#0986ad"
    },
    {
      "id": 358,
      "outputModuleId": 95,
      "outputId": 0,
      "inputModuleId": 98,
      "inputId": 0,
      "color": "#c9b70e"
    },
    {
      "id": 364,
      "outputModuleId": 74,
      "outputId": 0,
      "inputModuleId": 75,
      "inputId": 2,
      "color": "#0986ad"
    },
    {
      "id": 365,
      "outputModuleId": 74,
      "outputId": 1,
      "inputModuleId": 75,
      "inputId": 3,
      "color": "#c9b70e"
    },
    {
      "id": 323,
      "outputModuleId": 77,
      "outputId": 0,
      "inputModuleId": 101,
      "inputId": 5,
      "color": "#c9b70e"
    },
    {
      "id": 350,
      "outputModuleId": 77,
      "outputId": 1,
      "inputModuleId": 101,
      "inputId": 6,
      "color": "#c9b70e"
    },
    {
      "id": 366,
      "outputModuleId": 101,
      "outputId": 1,
      "inputModuleId": 102,
      "inputId": 5,
      "color": "#c91847"
    },
    {
      "id": 367,
      "outputModuleId": 101,
      "outputId": 2,
      "inputModuleId": 102,
      "inputId": 6,
      "color": "#0986ad"
    },
    {
      "id": 368,
      "outputModuleId": 102,
      "outputId": 1,
      "inputModuleId": 76,
      "inputId": 2,
      "color": "#c9b70e"
    },
    {
      "id": 369,
      "outputModuleId": 102,
      "outputId": 2,
      "inputModuleId": 76,
      "inputId": 3,
      "color": "#0c8e15"
    },
    {
      "id": 371,
      "outputModuleId": 96,
      "outputId": 0,
      "inputModuleId": 95,
      "inputId": 3,
      "color": "#0986ad"
    },
    {
      "id": 372,
      "outputModuleId": 95,
      "outputId": 1,
      "inputModuleId": 101,
      "inputId": 8,
      "color": "#c9b70e"
    },
    {
      "id": 339,
      "outputModuleId": 78,
      "outputId": 5,
      "inputModuleId": 83,
      "inputId": 5,
      "color": "#0c8e15"
    },
    {
      "id": 379,
      "outputModuleId": 73,
      "outputId": 4,
      "inputModuleId": 106,
      "inputId": 1,
      "color": "#0986ad"
    },
    {
      "id": 380,
      "outputModuleId": 73,
      "outputId": 4,
      "inputModuleId": 78,
      "inputId": 9,
      "color": "#c9b70e"
    },
    {
      "id": 381,
      "outputModuleId": 73,
      "outputId": 4,
      "inputModuleId": 78,
      "inputId": 10,
      "color": "#0c8e15"
    },
    {
      "id": 382,
      "outputModuleId": 73,
      "outputId": 4,
      "inputModuleId": 78,
      "inputId": 11,
      "color": "#c91847"
    },
    {
      "id": 383,
      "outputModuleId": 73,
      "outputId": 4,
      "inputModuleId": 78,
      "inputId": 12,
      "color": "#0986ad"
    },
    {
      "id": 407,
      "outputModuleId": 105,
      "outputId": 4,
      "inputModuleId": 106,
      "inputId": 3,
      "color": "#0986ad"
    },
    {
      "id": 408,
      "outputModuleId": 105,
      "outputId": 2,
      "inputModuleId": 106,
      "inputId": 4,
      "color": "#c9b70e"
    },
    {
      "id": 409,
      "outputModuleId": 105,
      "outputId": 1,
      "inputModuleId": 106,
      "inputId": 5,
      "color": "#0c8e15"
    },
    {
      "id": 406,
      "outputModuleId": 105,
      "outputId": 5,
      "inputModuleId": 106,
      "inputId": 2,
      "color": "#c91847"
    },
    {
      "id": 423,
      "outputModuleId": 73,
      "outputId": 2,
      "inputModuleId": 106,
      "inputId": 0,
      "color": "#c91847"
    },
    {
      "id": 424,
      "outputModuleId": 118,
      "outputId": 12,
      "inputModuleId": 119,
      "inputId": 2,
      "color": "#c9b70e"
    },
    {
      "id": 425,
      "outputModuleId": 118,
      "outputId": 11,
      "inputModuleId": 119,
      "inputId": 3,
      "color": "#0c8e15"
    },
    {
      "id": 426,
      "outputModuleId": 118,
      "outputId": 10,
      "inputModuleId": 119,
      "inputId": 4,
      "color": "#c91847"
    },
    {
      "id": 427,
      "outputModuleId": 118,
      "outputId": 9,
      "inputModuleId": 119,
      "inputId": 5,
      "color": "#0986ad"
    },
    {
      "id": 429,
      "outputModuleId": 73,
      "outputId": 4,
      "inputModuleId": 119,
      "inputId": 1,
      "color": "#0c8e15"
    },
    {
      "id": 428,
      "outputModuleId": 73,
      "outputId": 2,
      "inputModuleId": 119,
      "inputId": 0,
      "color": "#c9b70e"
    },
    {
      "id": 430,
      "outputModuleId": 73,
      "outputId": 2,
      "inputModuleId": 122,
      "inputId": 0,
      "color": "#c91847"
    },
    {
      "id": 431,
      "outputModuleId": 119,
      "outputId": 0,
      "inputModuleId": 122,
      "inputId": 3,
      "color": "#0986ad"
    },
    {
      "id": 432,
      "outputModuleId": 106,
      "outputId": 0,
      "inputModuleId": 122,
      "inputId": 2,
      "color": "#c9b70e"
    },
    {
      "id": 433,
      "outputModuleId": 123,
      "outputId": 0,
      "inputModuleId": 92,
      "inputId": 0,
      "color": "#0c8e15"
    },
    {
      "id": 435,
      "outputModuleId": 122,
      "outputId": 0,
      "inputModuleId": 123,
      "inputId": 2,
      "color": "#0986ad"
    },
    {
      "id": 436,
      "outputModuleId": 123,
      "outputId": 0,
      "inputModuleId": 124,
      "inputId": 1,
      "color": "#c9b70e"
    },
    {
      "id": 434,
      "outputModuleId": 73,
      "outputId": 3,
      "inputModuleId": 122,
      "inputId": 1,
      "color": "#c91847"
    },
    {
      "id": 437,
      "outputModuleId": 103,
      "outputId": 1,
      "inputModuleId": 73,
      "inputId": 4,
      "color": "#0c8e15"
    },
    {
      "id": 438,
      "outputModuleId": 84,
      "outputId": 7,
      "inputModuleId": 93,
      "inputId": 3,
      "color": "#c91847"
    },
    {
      "id": 443,
      "outputModuleId": 126,
      "outputId": 0,
      "inputModuleId": 95,
      "inputId": 2,
      "color": "#0986ad"
    },
    {
      "id": 359,
      "outputModuleId": 92,
      "outputId": 0,
      "inputModuleId": 96,
      "inputId": 0,
      "color": "#0c8e15"
    },
    {
      "id": 442,
      "outputModuleId": 73,
      "outputId": 2,
      "inputModuleId": 126,
      "inputId": 0,
      "color": "#c91847"
    },
    {
      "id": 330,
      "outputModuleId": 78,
      "outputId": 6,
      "inputModuleId": 79,
      "inputId": 4,
      "color": "#0986ad"
    },
    {
      "id": 338,
      "outputModuleId": 78,
      "outputId": 9,
      "inputModuleId": 83,
      "inputId": 4,
      "color": "#c9b70e"
    },
    {
      "id": 447,
      "outputModuleId": 73,
      "outputId": 4,
      "inputModuleId": 128,
      "inputId": 11,
      "color": "#0986ad"
    },
    {
      "id": 446,
      "outputModuleId": 73,
      "outputId": 4,
      "inputModuleId": 128,
      "inputId": 9,
      "color": "#c91847"
    },
    {
      "id": 451,
      "outputModuleId": 128,
      "outputId": 8,
      "inputModuleId": 129,
      "inputId": 0,
      "color": "#0986ad"
    },
    {
      "id": 471,
      "outputModuleId": 135,
      "outputId": 1,
      "inputModuleId": 136,
      "inputId": 2,
      "color": "#0c8e15"
    },
    {
      "id": 474,
      "outputModuleId": 135,
      "outputId": 2,
      "inputModuleId": 136,
      "inputId": 5,
      "color": "#c9b70e"
    },
    {
      "id": 475,
      "outputModuleId": 135,
      "outputId": 3,
      "inputModuleId": 136,
      "inputId": 8,
      "color": "#0c8e15"
    },
    {
      "id": 476,
      "outputModuleId": 135,
      "outputId": 0,
      "inputModuleId": 136,
      "inputId": 4,
      "color": "#c91847"
    },
    {
      "id": 467,
      "outputModuleId": 128,
      "outputId": 6,
      "inputModuleId": 129,
      "inputId": 1,
      "color": "#0c8e15"
    },
    {
      "id": 477,
      "outputModuleId": 129,
      "outputId": 0,
      "inputModuleId": 135,
      "inputId": 0,
      "color": "#0986ad"
    },
    {
      "id": 478,
      "outputModuleId": 73,
      "outputId": 0,
      "inputModuleId": 128,
      "inputId": 0,
      "color": "#c9b70e"
    },
    {
      "id": 479,
      "outputModuleId": 128,
      "outputId": 14,
      "inputModuleId": 128,
      "inputId": 3,
      "color": "#c91847"
    },
    {
      "id": 473,
      "outputModuleId": 138,
      "outputId": 0,
      "inputModuleId": 74,
      "inputId": 16,
      "color": "#0986ad"
    },
    {
      "id": 466,
      "outputModuleId": 138,
      "outputId": 1,
      "inputModuleId": 74,
      "inputId": 19,
      "color": "#c9b70e"
    },
    {
      "id": 482,
      "outputModuleId": 73,
      "outputId": 4,
      "inputModuleId": 138,
      "inputId": 6,
      "color": "#0c8e15"
    },
    {
      "id": 480,
      "outputModuleId": 136,
      "outputId": 0,
      "inputModuleId": 139,
      "inputId": 0,
      "color": "#0986ad"
    },
    {
      "id": 481,
      "outputModuleId": 136,
      "outputId": 1,
      "inputModuleId": 139,
      "inputId": 1,
      "color": "#c9b70e"
    },
    {
      "id": 483,
      "outputModuleId": 139,
      "outputId": 0,
      "inputModuleId": 138,
      "inputId": 0,
      "color": "#c91847"
    },
    {
      "id": 484,
      "outputModuleId": 139,
      "outputId": 1,
      "inputModuleId": 138,
      "inputId": 1,
      "color": "#0986ad"
    },
    {
      "id": 485,
      "outputModuleId": 73,
      "outputId": 0,
      "inputModuleId": 140,
      "inputId": 6,
      "color": "#0c8e15"
    },
    {
      "id": 487,
      "outputModuleId": 140,
      "outputId": 6,
      "inputModuleId": 141,
      "inputId": 1,
      "color": "#c9b70e"
    },
    {
      "id": 486,
      "outputModuleId": 140,
      "outputId": 5,
      "inputModuleId": 141,
      "inputId": 0,
      "color": "#0986ad"
    },
    {
      "id": 488,
      "outputModuleId": 140,
      "outputId": 6,
      "inputModuleId": 95,
      "inputId": 0,
      "color": "#0c8e15"
    },
    {
      "id": 490,
      "outputModuleId": 142,
      "outputId": 0,
      "inputModuleId": 102,
      "inputId": 8,
      "color": "#0986ad"
    },
    {
      "id": 491,
      "outputModuleId": 84,
      "outputId": 6,
      "inputModuleId": 74,
      "inputId": 2,
      "color": "#c9b70e"
    },
    {
      "id": 494,
      "outputModuleId": 123,
      "outputId": 0,
      "inputModuleId": 84,
      "inputId": 9,
      "color": "#0c8e15"
    },
    {
      "id": 495,
      "outputModuleId": 84,
      "outputId": 5,
      "inputModuleId": 74,
      "inputId": 5,
      "color": "#c91847"
    },
    {
      "id": 496,
      "outputModuleId": 84,
      "outputId": 4,
      "inputModuleId": 74,
      "inputId": 8,
      "color": "#0986ad"
    },
    {
      "id": 497,
      "outputModuleId": 84,
      "outputId": 6,
      "inputModuleId": 74,
      "inputId": 11,
      "color": "#0c8e15"
    },
    {
      "id": 500,
      "outputModuleId": 84,
      "outputId": 1,
      "inputModuleId": 74,
      "inputId": 21,
      "color": "#0c8e15"
    },
    {
      "id": 440,
      "outputModuleId": 106,
      "outputId": 0,
      "inputModuleId": 84,
      "inputId": 8,
      "color": "#c9b70e"
    },
    {
      "id": 501,
      "outputModuleId": 143,
      "outputId": 0,
      "inputModuleId": 74,
      "inputId": 22,
      "color": "#c91847"
    },
    {
      "id": 504,
      "outputModuleId": 73,
      "outputId": 0,
      "inputModuleId": 144,
      "inputId": 0,
      "color": "#0c8e15"
    },
    {
      "id": 503,
      "outputModuleId": 144,
      "outputId": 1,
      "inputModuleId": 143,
      "inputId": 0,
      "color": "#c9b70e"
    },
    {
      "id": 510,
      "outputModuleId": 144,
      "outputId": 0,
      "inputModuleId": 142,
      "inputId": 0,
      "color": "#0986ad"
    },
    {
      "id": 512,
      "outputModuleId": 73,
      "outputId": 4,
      "inputModuleId": 144,
      "inputId": 2,
      "color": "#0c8e15"
    },
    {
      "id": 514,
      "outputModuleId": 122,
      "outputId": 0,
      "inputModuleId": 124,
      "inputId": 0,
      "color": "#0986ad"
    },
    {
      "id": 515,
      "outputModuleId": 73,
      "outputId": 5,
      "inputModuleId": 78,
      "inputId": 1,
      "color": "#0986ad"
    },
    {
      "id": 516,
      "outputModuleId": 146,
      "outputId": 0,
      "inputModuleId": 128,
      "inputId": 1,
      "color": "#c9b70e"
    },
    {
      "id": 517,
      "outputModuleId": 103,
      "outputId": 2,
      "inputModuleId": 146,
      "inputId": 2,
      "color": "#0c8e15"
    },
    {
      "id": 449,
      "outputModuleId": 128,
      "outputId": 16,
      "inputModuleId": 146,
      "inputId": 0,
      "color": "#0c8e15"
    },
    {
      "id": 376,
      "outputModuleId": 103,
      "outputId": 0,
      "inputModuleId": 104,
      "inputId": 2,
      "color": "#c9b70e"
    }
  ]
}