{
  "version": "1.1.6",
  "modules": [
    {
      "id": 9,
      "plugin": "squinkylabs-plug1",
      "version": "1.0.5",
      "model": "squinkylabs-mixm",
      "params": [
        {
          "id": 0,
          "value": 0.75
        },
        {
          "id": 1,
          "value": 0.0
        },
        {
          "id": 2,
          "value": 0.294000089
        },
        {
          "id": 3,
          "value": 0.343500167
        },
        {
          "id": 4,
          "value": 0.316500127
        },
        {
          "id": 5,
          "value": 0.0
        },
        {
          "id": 6,
          "value": 0.0
        },
        {
          "id": 7,
          "value": 0.0
        },
        {
          "id": 8,
          "value": 0.0
        },
        {
          "id": 9,
          "value": 0.0
        },
        {
          "id": 10,
          "value": 0.0
        },
        {
          "id": 11,
          "value": 0.0
        },
        {
          "id": 12,
          "value": 0.0
        },
        {
          "id": 13,
          "value": 0.0
        },
        {
          "id": 14,
          "value": 0.0
        },
        {
          "id": 15,
          "value": 0.0
        },
        {
          "id": 16,
          "value": 0.0
        },
        {
          "id": 17,
          "value": 0.0
        },
        {
          "id": 18,
          "value": 0.0
        },
        {
          "id": 19,
          "value": 0.305999994
        },
        {
          "id": 20,
          "value": 0.309000045
        },
        {
          "id": 21,
          "value": 0.0
        },
        {
          "id": 22,
          "value": 0.0
        },
        {
          "id": 23,
          "value": 0.0
        },
        {
          "id": 24,
          "value": 0.0
        },
        {
          "id": 25,
          "value": 0.0
        },
        {
          "id": 26,
          "value": 0.0
        },
        {
          "id": 27,
          "value": 0.0
        },
        {
          "id": 28,
          "value": 0.0
        },
        {
          "id": 29,
          "value": 0.486000091
        },
        {
          "id": 30,
          "value": 0.0
        },
        {
          "id": 31,
          "value": 0.0
        },
        {
          "id": 32,
          "value": 0.0
        },
        {
          "id": 33,
          "value": 0.0
        },
        {
          "id": 34,
          "value": 0.0
        },
        {
          "id": 35,
          "value": 0.0
        },
        {
          "id": 36,
          "value": 0.0
        }
      ],
      "leftModuleId": 10,
      "rightModuleId": 12,
      "pos": [
        40,
        0
      ]
    },
    {
      "id": 10,
      "plugin": "squinkylabs-plug1",
      "version": "1.0.5",
      "model": "squinkylabs-mix4",
      "params": [
        {
          "id": 0,
          "value": 0.37499994
        },
        {
          "id": 1,
          "value": 0.34950009
        },
        {
          "id": 2,
          "value": 0.313500017
        },
        {
          "id": 3,
          "value": 0.335999995
        },
        {
          "id": 4,
          "value": 0.0
        },
        {
          "id": 5,
          "value": 0.0
        },
        {
          "id": 6,
          "value": 0.0
        },
        {
          "id": 7,
          "value": 0.0
        },
        {
          "id": 8,
          "value": 0.0
        },
        {
          "id": 9,
          "value": 0.0
        },
        {
          "id": 10,
          "value": 0.0
        },
        {
          "id": 11,
          "value": 0.0
        },
        {
          "id": 12,
          "value": 0.0
        },
        {
          "id": 13,
          "value": 0.0
        },
        {
          "id": 14,
          "value": 0.0
        },
        {
          "id": 15,
          "value": 0.0
        },
        {
          "id": 16,
          "value": 0.0
        },
        {
          "id": 17,
          "value": 0.0
        },
        {
          "id": 18,
          "value": 0.0
        },
        {
          "id": 19,
          "value": 0.0
        },
        {
          "id": 20,
          "value": 0.0
        },
        {
          "id": 21,
          "value": 0.0
        },
        {
          "id": 22,
          "value": 0.0
        },
        {
          "id": 23,
          "value": 0.0
        },
        {
          "id": 24,
          "value": 0.0
        },
        {
          "id": 25,
          "value": 0.0
        },
        {
          "id": 26,
          "value": 0.0
        },
        {
          "id": 27,
          "value": 0.0
        },
        {
          "id": 28,
          "value": 0.0
        },
        {
          "id": 29,
          "value": 0.0
        },
        {
          "id": 30,
          "value": 0.0
        },
        {
          "id": 31,
          "value": 0.0
        }
      ],
      "rightModuleId": 9,
      "pos": [
        30,
        0
      ]
    },
    {
      "id": 11,
      "plugin": "Core",
      "version": "1.1.6",
      "model": "AudioInterface",
      "params": [],
      "leftModuleId": 12,
      "data": {
        "audio": {
          "driver": 4,
          "deviceName": "system",
          "offset": 0,
          "maxChannels": 8,
          "sampleRate": 48000,
          "blockSize": 1024
        }
      },
      "pos": [
        69,
        0
      ]
    },
    {
      "id": 12,
      "plugin": "Valley",
      "version": "1.0.1",
      "model": "Plateau",
      "params": [
        {
          "id": 0,
          "value": 1.0
        },
        {
          "id": 1,
          "value": 0.5
        },
        {
          "id": 2,
          "value": 0.0
        },
        {
          "id": 3,
          "value": 10.0
        },
        {
          "id": 4,
          "value": 10.0
        },
        {
          "id": 5,
          "value": 0.5
        },
        {
          "id": 6,
          "value": 10.0
        },
        {
          "id": 7,
          "value": 0.549950004
        },
        {
          "id": 8,
          "value": 10.0
        },
        {
          "id": 9,
          "value": 10.0
        },
        {
          "id": 10,
          "value": 0.0
        },
        {
          "id": 11,
          "value": 0.5
        },
        {
          "id": 12,
          "value": 0.5
        },
        {
          "id": 13,
          "value": 0.0
        },
        {
          "id": 14,
          "value": 0.0
        },
        {
          "id": 15,
          "value": 0.0
        },
        {
          "id": 16,
          "value": 0.0
        },
        {
          "id": 17,
          "value": 0.0
        },
        {
          "id": 18,
          "value": 0.0
        },
        {
          "id": 19,
          "value": 0.0
        },
        {
          "id": 20,
          "value": 0.0
        },
        {
          "id": 21,
          "value": 0.0
        },
        {
          "id": 22,
          "value": 0.0
        },
        {
          "id": 23,
          "value": 0.0
        },
        {
          "id": 24,
          "value": 0.0
        },
        {
          "id": 25,
          "value": 0.0
        },
        {
          "id": 26,
          "value": 0.0
        },
        {
          "id": 27,
          "value": 0.0
        },
        {
          "id": 28,
          "value": 0.0
        },
        {
          "id": 29,
          "value": 0.0
        },
        {
          "id": 30,
          "value": 1.0
        }
      ],
      "leftModuleId": 9,
      "rightModuleId": 11,
      "data": {
        "frozen": false,
        "freezeToggle": false,
        "panelStyle": 0,
        "tuned": 0,
        "diffuseInput": 1,
        "preDelayCVSens": 0,
        "inputSensitivity": 0,
        "outputSaturation": 0
      },
      "pos": [
        57,
        0
      ]
    },
    {
      "id": 60,
      "plugin": "scanner-darkly-collection-one",
      "version": "1.0.1",
      "model": "SDOrcasHeart",
      "params": [
        {
          "id": 0,
          "value": 8.0
        },
        {
          "id": 1,
          "value": 400.0
        },
        {
          "id": 2,
          "value": 0.0
        },
        {
          "id": 3,
          "value": 0.0
        },
        {
          "id": 4,
          "value": 0.288000375
        },
        {
          "id": 5,
          "value": 0.0
        },
        {
          "id": 6,
          "value": 0.0
        },
        {
          "id": 7,
          "value": 1.0
        },
        {
          "id": 8,
          "value": 0.0
        },
        {
          "id": 9,
          "value": 0.0
        },
        {
          "id": 10,
          "value": 0.0
        },
        {
          "id": 11,
          "value": 1.0
        },
        {
          "id": 12,
          "value": 0.0
        },
        {
          "id": 13,
          "value": 1.0
        },
        {
          "id": 14,
          "value": 0.0
        },
        {
          "id": 15,
          "value": 1.0
        },
        {
          "id": 16,
          "value": 1.0
        },
        {
          "id": 17,
          "value": 0.0
        },
        {
          "id": 18,
          "value": 1.0
        },
        {
          "id": 19,
          "value": 0.0
        },
        {
          "id": 20,
          "value": 1.0
        },
        {
          "id": 21,
          "value": 0.0
        },
        {
          "id": 22,
          "value": 1.0
        },
        {
          "id": 23,
          "value": 1.0
        },
        {
          "id": 24,
          "value": 0.0
        },
        {
          "id": 25,
          "value": 0.0
        },
        {
          "id": 26,
          "value": 0.0
        },
        {
          "id": 27,
          "value": 1.0
        },
        {
          "id": 28,
          "value": 0.0
        },
        {
          "id": 29,
          "value": 0.0
        },
        {
          "id": 30,
          "value": 0.0
        },
        {
          "id": 31,
          "value": 1.0
        },
        {
          "id": 32,
          "value": 0.0
        },
        {
          "id": 33,
          "value": 0.0
        },
        {
          "id": 34,
          "value": 0.0
        }
      ],
      "data": {
        "selected_scale": 1
      },
      "pos": [
        0,
        2
      ]
    },
    {
      "id": 61,
      "plugin": "ImpromptuModular",
      "version": "1.1.2",
      "model": "Clocked",
      "params": [
        {
          "id": 0,
          "value": 110.0
        },
        {
          "id": 1,
          "value": 2.0
        },
        {
          "id": 2,
          "value": 0.0
        },
        {
          "id": 3,
          "value": -9.0
        },
        {
          "id": 4,
          "value": 0.0
        },
        {
          "id": 5,
          "value": 0.0
        },
        {
          "id": 6,
          "value": 0.0
        },
        {
          "id": 7,
          "value": 0.0
        },
        {
          "id": 8,
          "value": 0.5
        },
        {
          "id": 9,
          "value": 0.5
        },
        {
          "id": 10,
          "value": 0.5
        },
        {
          "id": 11,
          "value": 0.5
        },
        {
          "id": 12,
          "value": 0.0
        },
        {
          "id": 13,
          "value": 0.0
        },
        {
          "id": 14,
          "value": 0.0
        },
        {
          "id": 15,
          "value": 0.0
        },
        {
          "id": 16,
          "value": 0.0
        },
        {
          "id": 17,
          "value": 0.0
        },
        {
          "id": 18,
          "value": 0.0
        },
        {
          "id": 19,
          "value": 0.0
        }
      ],
      "data": {
        "panelTheme": 1,
        "running": true,
        "displayDelayNoteMode": true,
        "bpmDetectionMode": false,
        "restartOnStopStartRun": 0,
        "sendResetOnRestart": false,
        "ppqn": 4,
        "resetClockOutputsHigh": true
      },
      "pos": [
        0,
        0
      ]
    },
    {
      "id": 63,
      "plugin": "VultModulesFree",
      "version": "1.6.0",
      "model": "Basal",
      "params": [
        {
          "id": 0,
          "value": 0.0
        },
        {
          "id": 1,
          "value": -0.131999999
        },
        {
          "id": 2,
          "value": 0.20250006
        },
        {
          "id": 3,
          "value": 0.0
        },
        {
          "id": 4,
          "value": 0.141000137
        },
        {
          "id": 5,
          "value": 0.0
        }
      ],
      "leftModuleId": 71,
      "rightModuleId": 66,
      "pos": [
        49,
        1
      ]
    },
    {
      "id": 66,
      "plugin": "VultModulesFree",
      "version": "1.6.0",
      "model": "Spank",
      "params": [
        {
          "id": 0,
          "value": 0.0
        },
        {
          "id": 1,
          "value": 0.0
        },
        {
          "id": 2,
          "value": 0.67650032
        },
        {
          "id": 3,
          "value": 0.0
        },
        {
          "id": 4,
          "value": 0.0
        },
        {
          "id": 5,
          "value": -0.335000187
        },
        {
          "id": 6,
          "value": 0.0
        }
      ],
      "leftModuleId": 63,
      "rightModuleId": 69,
      "pos": [
        55,
        1
      ]
    },
    {
      "id": 69,
      "plugin": "Fundamental",
      "version": "1.4.0",
      "model": "Merge",
      "params": [],
      "leftModuleId": 66,
      "rightModuleId": 68,
      "data": {
        "channels": -1
      },
      "pos": [
        65,
        1
      ]
    },
    {
      "id": 70,
      "plugin": "ML_modules",
      "version": "1.0.3",
      "model": "Quantum",
      "params": [
        {
          "id": 0,
          "value": 0.0
        },
        {
          "id": 1,
          "value": 0.0
        },
        {
          "id": 2,
          "value": 0.0
        },
        {
          "id": 3,
          "value": 0.0
        },
        {
          "id": 4,
          "value": 0.0
        },
        {
          "id": 5,
          "value": 0.0
        },
        {
          "id": 6,
          "value": 0.0
        },
        {
          "id": 7,
          "value": 0.0
        },
        {
          "id": 8,
          "value": 0.0
        },
        {
          "id": 9,
          "value": 0.0
        },
        {
          "id": 10,
          "value": 0.0
        },
        {
          "id": 11,
          "value": 0.0
        }
      ],
      "leftModuleId": 78,
      "rightModuleId": 82,
      "data": {
        "scale": [
          1,
          0,
          1,
          0,
          0,
          1,
          0,
          1,
          0,
          0,
          0,
          1
        ],
        "mode": 1,
        "transpose_select": 1,
        "toggle_mode": 1
      },
      "pos": [
        9,
        1
      ]
    },
    {
      "id": 71,
      "plugin": "Fundamental",
      "version": "1.4.0",
      "model": "VCA-1",
      "params": [
        {
          "id": 0,
          "value": 0.570999563
        },
        {
          "id": 1,
          "value": 1.0
        }
      ],
      "rightModuleId": 63,
      "pos": [
        46,
        1
      ]
    },
    {
      "id": 73,
      "plugin": "Fundamental",
      "version": "1.4.0",
      "model": "Sum",
      "params": [
        {
          "id": 0,
          "value": 1.0
        }
      ],
      "leftModuleId": 68,
      "rightModuleId": 75,
      "pos": [
        75,
        1
      ]
    },
    {
      "id": 68,
      "plugin": "Fundamental",
      "version": "1.4.0",
      "model": "Merge",
      "params": [],
      "leftModuleId": 69,
      "rightModuleId": 73,
      "data": {
        "channels": -1
      },
      "pos": [
        70,
        1
      ]
    },
    {
      "id": 75,
      "plugin": "Bogaudio",
      "version": "1.1.24",
      "model": "Bogaudio-LLFO",
      "params": [
        {
          "id": 0,
          "value": -3.01100564
        },
        {
          "id": 1,
          "value": 1.0
        },
        {
          "id": 2,
          "value": 0.0
        },
        {
          "id": 3,
          "value": 0.734000206
        },
        {
          "id": 4,
          "value": 1.0
        }
      ],
      "leftModuleId": 73,
      "pos": [
        78,
        1
      ]
    },
    {
      "id": 76,
      "plugin": "AudibleInstruments",
      "version": "1.0.0",
      "model": "Kinks",
      "params": [],
      "rightModuleId": 78,
      "pos": [
        0,
        1
      ]
    },
    {
      "id": 78,
      "plugin": "Fundamental",
      "version": "1.4.0",
      "model": "Merge",
      "params": [],
      "leftModuleId": 76,
      "rightModuleId": 70,
      "data": {
        "channels": -1
      },
      "pos": [
        4,
        1
      ]
    },
    {
      "id": 79,
      "plugin": "VultModulesFree",
      "version": "1.6.0",
      "model": "Basal",
      "params": [
        {
          "id": 0,
          "value": 0.0
        },
        {
          "id": 1,
          "value": -0.176999778
        },
        {
          "id": 2,
          "value": 0.182999745
        },
        {
          "id": 3,
          "value": 0.540999889
        },
        {
          "id": 4,
          "value": 0.141000137
        },
        {
          "id": 5,
          "value": 0.0
        }
      ],
      "leftModuleId": 82,
      "rightModuleId": 80,
      "pos": [
        25,
        1
      ]
    },
    {
      "id": 80,
      "plugin": "Fundamental",
      "version": "1.4.0",
      "model": "Sum",
      "params": [
        {
          "id": 0,
          "value": 0.530500233
        }
      ],
      "leftModuleId": 79,
      "rightModuleId": 81,
      "pos": [
        31,
        1
      ]
    },
    {
      "id": 81,
      "plugin": "VultModulesFree",
      "version": "1.6.0",
      "model": "Slap",
      "params": [
        {
          "id": 0,
          "value": 0.0239999928
        },
        {
          "id": 1,
          "value": 0.712999821
        },
        {
          "id": 2,
          "value": 0.5
        },
        {
          "id": 3,
          "value": 0.754999936
        },
        {
          "id": 4,
          "value": 0.0
        },
        {
          "id": 5,
          "value": 0.534999847
        },
        {
          "id": 6,
          "value": 0.0
        },
        {
          "id": 7,
          "value": 0.0
        },
        {
          "id": 8,
          "value": 0.0
        }
      ],
      "leftModuleId": 80,
      "pos": [
        34,
        1
      ]
    },
    {
      "id": 82,
      "plugin": "ML_modules",
      "version": "1.0.3",
      "model": "Quantum",
      "params": [
        {
          "id": 0,
          "value": 0.0
        },
        {
          "id": 1,
          "value": 0.0
        },
        {
          "id": 2,
          "value": 0.0
        },
        {
          "id": 3,
          "value": 0.0
        },
        {
          "id": 4,
          "value": 0.0
        },
        {
          "id": 5,
          "value": 0.0
        },
        {
          "id": 6,
          "value": 0.0
        },
        {
          "id": 7,
          "value": 0.0
        },
        {
          "id": 8,
          "value": 0.0
        },
        {
          "id": 9,
          "value": 0.0
        },
        {
          "id": 10,
          "value": 0.0
        },
        {
          "id": 11,
          "value": 0.0
        }
      ],
      "leftModuleId": 70,
      "rightModuleId": 79,
      "data": {
        "scale": [
          1,
          0,
          0,
          0,
          0,
          0,
          0,
          1,
          0,
          0,
          0,
          0
        ],
        "mode": 4,
        "transpose_select": 1,
        "toggle_mode": 1
      },
      "pos": [
        17,
        1
      ]
    },
    {
      "id": 83,
      "plugin": "VultModulesFree",
      "version": "1.6.0",
      "model": "Basal",
      "params": [
        {
          "id": 0,
          "value": 0.0
        },
        {
          "id": 1,
          "value": 0.495000362
        },
        {
          "id": 2,
          "value": 0.203999832
        },
        {
          "id": 3,
          "value": 0.540999889
        },
        {
          "id": 4,
          "value": 0.141000137
        },
        {
          "id": 5,
          "value": 0.0
        }
      ],
      "leftModuleId": 84,
      "rightModuleId": 88,
      "pos": [
        38,
        2
      ]
    },
    {
      "id": 84,
      "plugin": "AudibleInstruments",
      "version": "1.0.0",
      "model": "Kinks",
      "params": [],
      "rightModuleId": 83,
      "pos": [
        34,
        2
      ]
    },
    {
      "id": 85,
      "plugin": "Fundamental",
      "version": "1.4.0",
      "model": "VCA-1",
      "params": [
        {
          "id": 0,
          "value": 0.965499282
        },
        {
          "id": 1,
          "value": 1.0
        }
      ],
      "leftModuleId": 88,
      "pos": [
        47,
        2
      ]
    },
    {
      "id": 88,
      "plugin": "Bogaudio",
      "version": "1.1.24",
      "model": "Bogaudio-ADSR",
      "params": [
        {
          "id": 0,
          "value": 0.0375000127
        },
        {
          "id": 1,
          "value": 0.668999851
        },
        {
          "id": 2,
          "value": 0.529000044
        },
        {
          "id": 3,
          "value": 0.62650007
        },
        {
          "id": 4,
          "value": 0.0
        }
      ],
      "leftModuleId": 83,
      "rightModuleId": 85,
      "data": {
        "invert": 1.0
      },
      "pos": [
        44,
        2
      ]
    },
    {
      "id": 91,
      "plugin": "VultModulesFree",
      "version": "1.6.0",
      "model": "Tangents",
      "params": [
        {
          "id": 0,
          "value": 0.660499692
        },
        {
          "id": 1,
          "value": 0.46200034
        },
        {
          "id": 2,
          "value": 0.489999801
        },
        {
          "id": 3,
          "value": 0.0
        },
        {
          "id": 4,
          "value": 1.18499982
        },
        {
          "id": 5,
          "value": 0.0
        },
        {
          "id": 6,
          "value": 0.0
        }
      ],
      "pos": [
        51,
        2
      ]
    }
  ],
  "cables": [
    {
      "id": 10,
      "outputModuleId": 9,
      "outputId": 0,
      "inputModuleId": 11,
      "inputId": 0,
      "color": "#c91847"
    },
    {
      "id": 11,
      "outputModuleId": 9,
      "outputId": 1,
      "inputModuleId": 11,
      "inputId": 1,
      "color": "#0986ad"
    },
    {
      "id": 12,
      "outputModuleId": 9,
      "outputId": 6,
      "inputModuleId": 12,
      "inputId": 0,
      "color": "#c9b70e"
    },
    {
      "id": 13,
      "outputModuleId": 9,
      "outputId": 7,
      "inputModuleId": 12,
      "inputId": 1,
      "color": "#0c8e15"
    },
    {
      "id": 14,
      "outputModuleId": 12,
      "outputId": 0,
      "inputModuleId": 9,
      "inputId": 16,
      "color": "#c91847"
    },
    {
      "id": 15,
      "outputModuleId": 12,
      "outputId": 1,
      "inputModuleId": 9,
      "inputId": 17,
      "color": "#0986ad"
    },
    {
      "id": 172,
      "outputModuleId": 61,
      "outputId": 1,
      "inputModuleId": 60,
      "inputId": 11,
      "color": "#0c8e15"
    },
    {
      "id": 171,
      "outputModuleId": 60,
      "outputId": 14,
      "inputModuleId": 69,
      "inputId": 0,
      "color": "#c9b70e"
    },
    {
      "id": 175,
      "outputModuleId": 60,
      "outputId": 15,
      "inputModuleId": 69,
      "inputId": 1,
      "color": "#c9b70e"
    },
    {
      "id": 180,
      "outputModuleId": 60,
      "outputId": 16,
      "inputModuleId": 69,
      "inputId": 2,
      "color": "#c91847"
    },
    {
      "id": 181,
      "outputModuleId": 60,
      "outputId": 17,
      "inputModuleId": 69,
      "inputId": 3,
      "color": "#0986ad"
    },
    {
      "id": 183,
      "outputModuleId": 69,
      "outputId": 0,
      "inputModuleId": 66,
      "inputId": 0,
      "color": "#0c8e15"
    },
    {
      "id": 184,
      "outputModuleId": 63,
      "outputId": 0,
      "inputModuleId": 66,
      "inputId": 4,
      "color": "#c91847"
    },
    {
      "id": 187,
      "outputModuleId": 66,
      "outputId": 0,
      "inputModuleId": 73,
      "inputId": 0,
      "color": "#0c8e15"
    },
    {
      "id": 179,
      "outputModuleId": 60,
      "outputId": 13,
      "inputModuleId": 68,
      "inputId": 3,
      "color": "#c9b70e"
    },
    {
      "id": 178,
      "outputModuleId": 60,
      "outputId": 12,
      "inputModuleId": 68,
      "inputId": 2,
      "color": "#0986ad"
    },
    {
      "id": 174,
      "outputModuleId": 60,
      "outputId": 11,
      "inputModuleId": 68,
      "inputId": 1,
      "color": "#0986ad"
    },
    {
      "id": 169,
      "outputModuleId": 60,
      "outputId": 10,
      "inputModuleId": 68,
      "inputId": 0,
      "color": "#c91847"
    },
    {
      "id": 199,
      "outputModuleId": 75,
      "outputId": 0,
      "inputModuleId": 60,
      "inputId": 2,
      "color": "#c91847"
    },
    {
      "id": 200,
      "outputModuleId": 75,
      "outputId": 0,
      "inputModuleId": 71,
      "inputId": 0,
      "color": "#0986ad"
    },
    {
      "id": 202,
      "outputModuleId": 68,
      "outputId": 0,
      "inputModuleId": 66,
      "inputId": 3,
      "color": "#0c8e15"
    },
    {
      "id": 203,
      "outputModuleId": 61,
      "outputId": 2,
      "inputModuleId": 60,
      "inputId": 13,
      "color": "#0986ad"
    },
    {
      "id": 204,
      "outputModuleId": 61,
      "outputId": 3,
      "inputModuleId": 60,
      "inputId": 14,
      "color": "#c9b70e"
    },
    {
      "id": 182,
      "outputModuleId": 68,
      "outputId": 0,
      "inputModuleId": 71,
      "inputId": 1,
      "color": "#c9b70e"
    },
    {
      "id": 188,
      "outputModuleId": 71,
      "outputId": 0,
      "inputModuleId": 76,
      "inputId": 3,
      "color": "#c91847"
    },
    {
      "id": 206,
      "outputModuleId": 61,
      "outputId": 1,
      "inputModuleId": 76,
      "inputId": 4,
      "color": "#c91847"
    },
    {
      "id": 205,
      "outputModuleId": 76,
      "outputId": 6,
      "inputModuleId": 76,
      "inputId": 0,
      "color": "#0c8e15"
    },
    {
      "id": 210,
      "outputModuleId": 76,
      "outputId": 6,
      "inputModuleId": 78,
      "inputId": 0,
      "color": "#c91847"
    },
    {
      "id": 212,
      "outputModuleId": 76,
      "outputId": 2,
      "inputModuleId": 78,
      "inputId": 2,
      "color": "#c9b70e"
    },
    {
      "id": 213,
      "outputModuleId": 76,
      "outputId": 0,
      "inputModuleId": 78,
      "inputId": 3,
      "color": "#0c8e15"
    },
    {
      "id": 214,
      "outputModuleId": 76,
      "outputId": 3,
      "inputModuleId": 78,
      "inputId": 4,
      "color": "#c91847"
    },
    {
      "id": 215,
      "outputModuleId": 76,
      "outputId": 4,
      "inputModuleId": 78,
      "inputId": 5,
      "color": "#0986ad"
    },
    {
      "id": 221,
      "outputModuleId": 76,
      "outputId": 1,
      "inputModuleId": 78,
      "inputId": 1,
      "color": "#0c8e15"
    },
    {
      "id": 219,
      "outputModuleId": 79,
      "outputId": 0,
      "inputModuleId": 80,
      "inputId": 0,
      "color": "#0986ad"
    },
    {
      "id": 222,
      "outputModuleId": 78,
      "outputId": 0,
      "inputModuleId": 70,
      "inputId": 0,
      "color": "#c91847"
    },
    {
      "id": 224,
      "outputModuleId": 82,
      "outputId": 0,
      "inputModuleId": 63,
      "inputId": 0,
      "color": "#c9b70e"
    },
    {
      "id": 223,
      "outputModuleId": 82,
      "outputId": 0,
      "inputModuleId": 79,
      "inputId": 0,
      "color": "#0986ad"
    },
    {
      "id": 220,
      "outputModuleId": 80,
      "outputId": 0,
      "inputModuleId": 81,
      "inputId": 5,
      "color": "#c9b70e"
    },
    {
      "id": 226,
      "outputModuleId": 81,
      "outputId": 0,
      "inputModuleId": 9,
      "inputId": 1,
      "color": "#c91847"
    },
    {
      "id": 227,
      "outputModuleId": 61,
      "outputId": 0,
      "inputModuleId": 81,
      "inputId": 0,
      "color": "#c9b70e"
    },
    {
      "id": 228,
      "outputModuleId": 70,
      "outputId": 0,
      "inputModuleId": 81,
      "inputId": 2,
      "color": "#0c8e15"
    },
    {
      "id": 229,
      "outputModuleId": 75,
      "outputId": 0,
      "inputModuleId": 79,
      "inputId": 1,
      "color": "#c91847"
    },
    {
      "id": 225,
      "outputModuleId": 70,
      "outputId": 0,
      "inputModuleId": 82,
      "inputId": 0,
      "color": "#0c8e15"
    },
    {
      "id": 231,
      "outputModuleId": 61,
      "outputId": 3,
      "inputModuleId": 84,
      "inputId": 4,
      "color": "#c9b70e"
    },
    {
      "id": 230,
      "outputModuleId": 82,
      "outputId": 0,
      "inputModuleId": 84,
      "inputId": 3,
      "color": "#0986ad"
    },
    {
      "id": 232,
      "outputModuleId": 84,
      "outputId": 6,
      "inputModuleId": 84,
      "inputId": 0,
      "color": "#0c8e15"
    },
    {
      "id": 234,
      "outputModuleId": 84,
      "outputId": 0,
      "inputModuleId": 83,
      "inputId": 0,
      "color": "#0986ad"
    },
    {
      "id": 239,
      "outputModuleId": 61,
      "outputId": 3,
      "inputModuleId": 88,
      "inputId": 0,
      "color": "#0c8e15"
    },
    {
      "id": 240,
      "outputModuleId": 88,
      "outputId": 0,
      "inputModuleId": 85,
      "inputId": 0,
      "color": "#c91847"
    },
    {
      "id": 241,
      "outputModuleId": 83,
      "outputId": 0,
      "inputModuleId": 85,
      "inputId": 1,
      "color": "#c9b70e"
    },
    {
      "id": 242,
      "outputModuleId": 85,
      "outputId": 0,
      "inputModuleId": 9,
      "inputId": 2,
      "color": "#0c8e15"
    },
    {
      "id": 195,
      "outputModuleId": 73,
      "outputId": 0,
      "inputModuleId": 91,
      "inputId": 0,
      "color": "#0c8e15"
    },
    {
      "id": 243,
      "outputModuleId": 91,
      "outputId": 0,
      "inputModuleId": 9,
      "inputId": 0,
      "color": "#c91847"
    },
    {
      "id": 244,
      "outputModuleId": 60,
      "outputId": 2,
      "inputModuleId": 91,
      "inputId": 3,
      "color": "#0986ad"
    },
    {
      "id": 248,
      "outputModuleId": 60,
      "outputId": 1,
      "inputModuleId": 60,
      "inputId": 8,
      "color": "#0986ad"
    },
    {
      "id": 256,
      "outputModuleId": 61,
      "outputId": 4,
      "inputModuleId": 60,
      "inputId": 12,
      "color": "#c9b70e"
    },
    {
      "id": 257,
      "outputModuleId": 61,
      "outputId": 4,
      "inputModuleId": 75,
      "inputId": 1,
      "color": "#0c8e15"
    }
  ]
}