{
  "version": "1.1.3",
  "modules": [
    {
      "id": 20,
      "plugin": "Core",
      "version": "1.1.3",
      "model": "AudioInterface",
      "params": [],
      "leftModuleId": 108,
      "rightModuleId": 88,
      "data": {
        "audio": {
          "driver": 1,
          "deviceName": "hw:Scarlett 2i2 USB,0",
          "offset": 0,
          "maxChannels": 8,
          "sampleRate": 48000,
          "blockSize": 256
        }
      },
      "pos": [
        93,
        0
      ]
    },
    {
      "id": 88,
      "plugin": "Core",
      "version": "1.1.3",
      "model": "Notes",
      "params": [],
      "leftModuleId": 20,
      "text": "Omri Cohen\n\nPolyphony in VCV Rack 1.0\n\nhttps://www.youtube.com/watch?v=WXUJWA8RzZI\n\n",
      "pos": [
        103,
        0
      ]
    },
    {
      "id": 107,
      "plugin": "Bogaudio",
      "version": "1.1.22",
      "model": "Bogaudio-Mix8",
      "params": [
        {
          "id": 0,
          "value": 0.909090936
        },
        {
          "id": 1,
          "value": 0.0
        },
        {
          "id": 2,
          "value": 0.0
        },
        {
          "id": 3,
          "value": 0.856590807
        },
        {
          "id": 4,
          "value": 0.0
        },
        {
          "id": 5,
          "value": 0.0
        },
        {
          "id": 6,
          "value": 0.841590643
        },
        {
          "id": 7,
          "value": 0.0
        },
        {
          "id": 8,
          "value": 0.0
        },
        {
          "id": 9,
          "value": 0.898501694
        },
        {
          "id": 10,
          "value": 0.0
        },
        {
          "id": 11,
          "value": 0.0
        },
        {
          "id": 12,
          "value": 0.909090936
        },
        {
          "id": 13,
          "value": 0.0
        },
        {
          "id": 14,
          "value": 0.0
        },
        {
          "id": 15,
          "value": 0.909090936
        },
        {
          "id": 16,
          "value": 0.0
        },
        {
          "id": 17,
          "value": 0.0
        },
        {
          "id": 18,
          "value": 0.666091383
        },
        {
          "id": 19,
          "value": 0.0
        },
        {
          "id": 20,
          "value": 0.0
        },
        {
          "id": 21,
          "value": 0.672090054
        },
        {
          "id": 22,
          "value": 0.0
        },
        {
          "id": 23,
          "value": 0.0
        },
        {
          "id": 24,
          "value": 0.883591473
        },
        {
          "id": 25,
          "value": 0.0
        }
      ],
      "leftModuleId": 128,
      "rightModuleId": 108,
      "pos": [
        54,
        0
      ]
    },
    {
      "id": 108,
      "plugin": "Valley",
      "version": "1.0.1",
      "model": "Plateau",
      "params": [
        {
          "id": 0,
          "value": 1.0
        },
        {
          "id": 1,
          "value": 0.414499968
        },
        {
          "id": 2,
          "value": 0.0
        },
        {
          "id": 3,
          "value": 4.63000011
        },
        {
          "id": 4,
          "value": 7.5400033
        },
        {
          "id": 5,
          "value": 0.376999855
        },
        {
          "id": 6,
          "value": 10.0
        },
        {
          "id": 7,
          "value": 0.477057874
        },
        {
          "id": 8,
          "value": 8.3200016
        },
        {
          "id": 9,
          "value": 8.06500149
        },
        {
          "id": 10,
          "value": 0.0
        },
        {
          "id": 11,
          "value": 0.5
        },
        {
          "id": 12,
          "value": 0.5
        },
        {
          "id": 13,
          "value": 0.0
        },
        {
          "id": 14,
          "value": 0.0
        },
        {
          "id": 15,
          "value": 0.0
        },
        {
          "id": 16,
          "value": 0.0
        },
        {
          "id": 17,
          "value": 0.0
        },
        {
          "id": 18,
          "value": 0.0
        },
        {
          "id": 19,
          "value": 0.0
        },
        {
          "id": 20,
          "value": 0.0
        },
        {
          "id": 21,
          "value": 0.0
        },
        {
          "id": 22,
          "value": 0.0
        },
        {
          "id": 23,
          "value": 0.0
        },
        {
          "id": 24,
          "value": 0.0
        },
        {
          "id": 25,
          "value": 0.0
        },
        {
          "id": 26,
          "value": 0.0
        },
        {
          "id": 27,
          "value": 0.0
        },
        {
          "id": 28,
          "value": 0.0
        },
        {
          "id": 29,
          "value": 0.0
        },
        {
          "id": 30,
          "value": 1.0
        }
      ],
      "leftModuleId": 107,
      "rightModuleId": 20,
      "data": {
        "frozen": false,
        "freezeToggle": false,
        "panelStyle": 0,
        "tuned": 0,
        "diffuseInput": 1,
        "preDelayCVSens": 0,
        "inputSensitivity": 0,
        "outputSaturation": 0
      },
      "pos": [
        81,
        0
      ]
    },
    {
      "id": 109,
      "plugin": "ImpromptuModular",
      "version": "1.1.1",
      "model": "Clocked",
      "params": [
        {
          "id": 0,
          "value": 126.0
        },
        {
          "id": 1,
          "value": 2.0
        },
        {
          "id": 2,
          "value": 5.0
        },
        {
          "id": 3,
          "value": -9.0
        },
        {
          "id": 4,
          "value": 0.0
        },
        {
          "id": 5,
          "value": 0.0
        },
        {
          "id": 6,
          "value": 0.0
        },
        {
          "id": 7,
          "value": 0.0
        },
        {
          "id": 8,
          "value": 0.5
        },
        {
          "id": 9,
          "value": 0.5
        },
        {
          "id": 10,
          "value": 0.5
        },
        {
          "id": 11,
          "value": 0.5
        },
        {
          "id": 12,
          "value": 0.0
        },
        {
          "id": 13,
          "value": 0.0
        },
        {
          "id": 14,
          "value": 0.0
        },
        {
          "id": 15,
          "value": 0.0
        },
        {
          "id": 16,
          "value": 0.0
        },
        {
          "id": 17,
          "value": 0.0
        },
        {
          "id": 18,
          "value": 0.0
        },
        {
          "id": 19,
          "value": 0.0
        }
      ],
      "data": {
        "panelTheme": 1,
        "running": true,
        "displayDelayNoteMode": true,
        "bpmDetectionMode": false,
        "emitResetOnStopRun": false,
        "ppqn": 4,
        "resetClockOutputsHigh": true
      },
      "pos": [
        0,
        0
      ]
    },
    {
      "id": 110,
      "plugin": "Fundamental",
      "version": "1.2.0",
      "model": "SEQ3",
      "params": [
        {
          "id": 0,
          "value": 0.117681026
        },
        {
          "id": 1,
          "value": 0.0
        },
        {
          "id": 2,
          "value": 0.0
        },
        {
          "id": 3,
          "value": 8.0
        },
        {
          "id": 4,
          "value": 4.65027714
        },
        {
          "id": 5,
          "value": 1.71703935
        },
        {
          "id": 6,
          "value": 5.0472455
        },
        {
          "id": 7,
          "value": 6.75766039
        },
        {
          "id": 8,
          "value": 3.19869161
        },
        {
          "id": 9,
          "value": 2.18669891
        },
        {
          "id": 10,
          "value": 1.34579659
        },
        {
          "id": 11,
          "value": 4.18097258
        },
        {
          "id": 12,
          "value": 8.70976353
        },
        {
          "id": 13,
          "value": 5.63709974
        },
        {
          "id": 14,
          "value": 0.678116679
        },
        {
          "id": 15,
          "value": 8.78476906
        },
        {
          "id": 16,
          "value": 5.8599205
        },
        {
          "id": 17,
          "value": 2.05704093
        },
        {
          "id": 18,
          "value": 3.6527617
        },
        {
          "id": 19,
          "value": 5.75695896
        },
        {
          "id": 20,
          "value": 8.93787479
        },
        {
          "id": 21,
          "value": 3.76200557
        },
        {
          "id": 22,
          "value": 3.59272361
        },
        {
          "id": 23,
          "value": 0.646600723
        },
        {
          "id": 24,
          "value": 8.83337879
        },
        {
          "id": 25,
          "value": 6.14880991
        },
        {
          "id": 26,
          "value": 8.8166275
        },
        {
          "id": 27,
          "value": 1.0988003
        },
        {
          "id": 28,
          "value": 0.0
        },
        {
          "id": 29,
          "value": 0.0
        },
        {
          "id": 30,
          "value": 0.0
        },
        {
          "id": 31,
          "value": 0.0
        },
        {
          "id": 32,
          "value": 0.0
        },
        {
          "id": 33,
          "value": 0.0
        },
        {
          "id": 34,
          "value": 0.0
        },
        {
          "id": 35,
          "value": 0.0
        }
      ],
      "rightModuleId": 111,
      "data": {
        "running": true,
        "gates": [
          1,
          0,
          0,
          1,
          1,
          1,
          0,
          1
        ]
      },
      "pos": [
        2,
        1
      ]
    },
    {
      "id": 111,
      "plugin": "Fundamental",
      "version": "1.2.0",
      "model": "Merge",
      "params": [],
      "leftModuleId": 110,
      "rightModuleId": 112,
      "data": {
        "channels": -1
      },
      "pos": [
        24,
        1
      ]
    },
    {
      "id": 112,
      "plugin": "JW-Modules",
      "version": "1.0.7",
      "model": "Quantizer",
      "params": [
        {
          "id": 0,
          "value": 0.0
        },
        {
          "id": 1,
          "value": 11.0
        }
      ],
      "leftModuleId": 111,
      "rightModuleId": 114,
      "data": {},
      "pos": [
        29,
        1
      ]
    },
    {
      "id": 113,
      "plugin": "Fundamental",
      "version": "1.2.0",
      "model": "Split",
      "params": [],
      "leftModuleId": 115,
      "rightModuleId": 119,
      "pos": [
        42,
        1
      ]
    },
    {
      "id": 114,
      "plugin": "VultModulesFree",
      "version": "1.2.0",
      "model": "Basal",
      "params": [
        {
          "id": 0,
          "value": 0.0
        },
        {
          "id": 1,
          "value": -0.0210001152
        },
        {
          "id": 2,
          "value": 0.26699993
        },
        {
          "id": 3,
          "value": 1.0
        },
        {
          "id": 4,
          "value": 0.171000138
        },
        {
          "id": 5,
          "value": 0.0
        }
      ],
      "leftModuleId": 112,
      "rightModuleId": 115,
      "pos": [
        33,
        1
      ]
    },
    {
      "id": 115,
      "plugin": "Fundamental",
      "version": "1.2.0",
      "model": "VCA-1",
      "params": [
        {
          "id": 0,
          "value": 0.99849999
        },
        {
          "id": 1,
          "value": 1.0
        }
      ],
      "leftModuleId": 114,
      "rightModuleId": 113,
      "pos": [
        39,
        1
      ]
    },
    {
      "id": 117,
      "plugin": "Bogaudio",
      "version": "1.1.22",
      "model": "Bogaudio-LLFO",
      "params": [
        {
          "id": 0,
          "value": 1.87698925
        },
        {
          "id": 1,
          "value": 0.0
        },
        {
          "id": 2,
          "value": 0.0
        },
        {
          "id": 3,
          "value": 0.0
        },
        {
          "id": 4,
          "value": 1.0
        }
      ],
      "leftModuleId": 119,
      "rightModuleId": 123,
      "pos": [
        55,
        1
      ]
    },
    {
      "id": 119,
      "plugin": "Fundamental",
      "version": "1.2.0",
      "model": "ADSR",
      "params": [
        {
          "id": 0,
          "value": 0.0689999908
        },
        {
          "id": 1,
          "value": 0.397999793
        },
        {
          "id": 2,
          "value": 0.0
        },
        {
          "id": 3,
          "value": 0.505999923
        }
      ],
      "leftModuleId": 113,
      "rightModuleId": 117,
      "pos": [
        47,
        1
      ]
    },
    {
      "id": 120,
      "plugin": "ImpromptuModular",
      "version": "1.1.1",
      "model": "Gate-Seq-64",
      "params": [
        {
          "id": 0,
          "value": 0.0
        },
        {
          "id": 1,
          "value": 0.0
        },
        {
          "id": 2,
          "value": 0.0
        },
        {
          "id": 3,
          "value": 0.0
        },
        {
          "id": 4,
          "value": 0.0
        },
        {
          "id": 5,
          "value": 0.0
        },
        {
          "id": 6,
          "value": 0.0
        },
        {
          "id": 7,
          "value": 0.0
        },
        {
          "id": 8,
          "value": 0.0
        },
        {
          "id": 9,
          "value": 0.0
        },
        {
          "id": 10,
          "value": 0.0
        },
        {
          "id": 11,
          "value": 0.0
        },
        {
          "id": 12,
          "value": 0.0
        },
        {
          "id": 13,
          "value": 0.0
        },
        {
          "id": 14,
          "value": 0.0
        },
        {
          "id": 15,
          "value": 0.0
        },
        {
          "id": 16,
          "value": 0.0
        },
        {
          "id": 17,
          "value": 0.0
        },
        {
          "id": 18,
          "value": 0.0
        },
        {
          "id": 19,
          "value": 0.0
        },
        {
          "id": 20,
          "value": 0.0
        },
        {
          "id": 21,
          "value": 0.0
        },
        {
          "id": 22,
          "value": 0.0
        },
        {
          "id": 23,
          "value": 0.0
        },
        {
          "id": 24,
          "value": 0.0
        },
        {
          "id": 25,
          "value": 0.0
        },
        {
          "id": 26,
          "value": 0.0
        },
        {
          "id": 27,
          "value": 0.0
        },
        {
          "id": 28,
          "value": 0.0
        },
        {
          "id": 29,
          "value": 0.0
        },
        {
          "id": 30,
          "value": 0.0
        },
        {
          "id": 31,
          "value": 0.0
        },
        {
          "id": 32,
          "value": 0.0
        },
        {
          "id": 33,
          "value": 0.0
        },
        {
          "id": 34,
          "value": 0.0
        },
        {
          "id": 35,
          "value": 0.0
        },
        {
          "id": 36,
          "value": 0.0
        },
        {
          "id": 37,
          "value": 0.0
        },
        {
          "id": 38,
          "value": 0.0
        },
        {
          "id": 39,
          "value": 0.0
        },
        {
          "id": 40,
          "value": 0.0
        },
        {
          "id": 41,
          "value": 0.0
        },
        {
          "id": 42,
          "value": 0.0
        },
        {
          "id": 43,
          "value": 0.0
        },
        {
          "id": 44,
          "value": 0.0
        },
        {
          "id": 45,
          "value": 0.0
        },
        {
          "id": 46,
          "value": 0.0
        },
        {
          "id": 47,
          "value": 0.0
        },
        {
          "id": 48,
          "value": 0.0
        },
        {
          "id": 49,
          "value": 0.0
        },
        {
          "id": 50,
          "value": 0.0
        },
        {
          "id": 51,
          "value": 0.0
        },
        {
          "id": 52,
          "value": 0.0
        },
        {
          "id": 53,
          "value": 0.0
        },
        {
          "id": 54,
          "value": 0.0
        },
        {
          "id": 55,
          "value": 0.0
        },
        {
          "id": 56,
          "value": 0.0
        },
        {
          "id": 57,
          "value": 0.0
        },
        {
          "id": 58,
          "value": 0.0
        },
        {
          "id": 59,
          "value": 0.0
        },
        {
          "id": 60,
          "value": 0.0
        },
        {
          "id": 61,
          "value": 0.0
        },
        {
          "id": 62,
          "value": 0.0
        },
        {
          "id": 63,
          "value": 0.0
        },
        {
          "id": 64,
          "value": 0.0
        },
        {
          "id": 65,
          "value": 0.0
        },
        {
          "id": 66,
          "value": 0.0
        },
        {
          "id": 67,
          "value": 0.0
        },
        {
          "id": 68,
          "value": 0.0
        },
        {
          "id": 69,
          "value": 0.0
        },
        {
          "id": 70,
          "value": 0.0
        },
        {
          "id": 71,
          "value": 1.0
        },
        {
          "id": 73,
          "value": 2.0
        },
        {
          "id": 74,
          "value": 0.0
        },
        {
          "id": 75,
          "value": 0.0
        },
        {
          "id": 76,
          "value": 0.0
        },
        {
          "id": 77,
          "value": 0.0
        },
        {
          "id": 78,
          "value": 0.0
        },
        {
          "id": 79,
          "value": 0.0
        },
        {
          "id": 80,
          "value": 0.0
        },
        {
          "id": 81,
          "value": 0.0
        },
        {
          "id": 82,
          "value": 0.0
        },
        {
          "id": 83,
          "value": 0.0
        }
      ],
      "rightModuleId": 121,
      "data": {
        "panelTheme": 1,
        "autoseq": false,
        "seqCVmethod": 0,
        "pulsesPerStep": 1,
        "running": true,
        "runModeSong3": 0,
        "stepIndexEdit": 38,
        "phraseIndexEdit": 0,
        "sequence": 0,
        "phrases": 4,
        "attributes2": [
          562,
          50,
          562,
          562,
          562,
          562,
          562,
          50,
          50,
          50,
          50,
          50,
          50,
          50,
          50,
          50,
          50,
          562,
          50,
          50,
          562,
          50,
          562,
          50,
          50,
          50,
          50,
          50,
          50,
          50,
          50,
          50,
          562,
          50,
          562,
          50,
          50,
          562,
          562,
          50,
          50,
          50,
          50,
          50,
          50,
          50,
          50,
          50,
          50,
          50,
          50,
          50,
          50,
          50,
          50,
          50,
          50,
          50,
          50,
          50,
          50,
          50,
          50,
          50,
          50,
          50,
          50,
          50,
          50,
          50,
          50,
          50,
          50,
          50,
          50,
          50,
          50,
          50,
          50,
          50,
          50,
          50,
          50,
          50,
          50,
          50,
          50,
          50,
          50,
          50,
          50,
          50,
          50,
          50,
          50,
          50,
          50,
          50,
          50,
          50,
          50,
          50,
          50,
          50,
          50,
          50,
          50,
          50,
          50,
          50,
          50,
          50,
          50,
          50,
          50,
          50,
          50,
          50,
          50,
          50,
          50,
          50,
          50,
          50,
          50,
          50,
          50,
          50,
          50,
          50,
          50,
          50,
          50,
          50,
          50,
          50,
          50,
          50,
          50,
          50,
          50,
          50,
          50,
          50,
          50,
          50,
          50,
          50,
          50,
          50,
          50,
          50,
          50,
          50,
          50,
          50,
          50,
          50,
          50,
          50,
          50,
          50,
          50,
          50,
          50,
          50,
          50,
          50,
          50,
          50,
          50,
          50,
          50,
          50,
          50,
          50,
          50,
          50,
          50,
          50,
          50,
          50,
          50,
          50,
          50,
          50,
          50,
          50,
          50,
          50,
          50,
          50,
          50,
          50,
          50,
          50,
          50,
          50,
          50,
          50,
          50,
          50,
          50,
          50,
          50,
          50,
          50,
          50,
          50,
          50,
          50,
          50,
          50,
          50,
          50,
          50,
          50,
          50,
          50,
          50,
          50,
          50,
          50,
          50,
          50,
          50,
          50,
          50,
          50,
          50,
          50,
          50,
          50,
          50,
          50,
          50,
          50,
          50,
          50,
          50,
          50,
          50,
          50,
          50,
          50,
          50,
          50,
          50,
          50,
          50,
          50,
          50,
          50,
          50,
          50,
          50,
          50,
          50,
          50,
          50,
          50,
          50,
          50,
          50,
          50,
          50,
          50,
          50,
          50,
          50,
          50,
          50,
          50,
          50,
          50,
          50,
          50,
          50,
          50,
          50,
          50,
          50,
          50,
          50,
          50,
          50,
          50,
          50,
          50,
          50,
          50,
          50,
          50,
          50,
          50,
          50,
          50,
          50,
          50,
          50,
          50,
          50,
          50,
          50,
          50,
          50,
          50,
          50,
          50,
          50,
          50,
          50,
          50,
          50,
          50,
          50,
          50,
          50,
          50,
          50,
          50,
          50,
          50,
          50,
          50,
          50,
          50,
          50,
          50,
          50,
          50,
          50,
          50,
          50,
          50,
          50,
          50,
          50,
          50,
          50,
          50,
          50,
          50,
          50,
          50,
          50,
          50,
          50,
          50,
          50,
          50,
          50,
          50,
          50,
          50,
          50,
          50,
          50,
          50,
          50,
          50,
          50,
          50,
          50,
          50,
          50,
          50,
          50,
          50,
          50,
          50,
          50,
          50,
          50,
          50,
          50,
          50,
          50,
          50,
          50,
          50,
          50,
          50,
          50,
          50,
          50,
          50,
          50,
          50,
          50,
          50,
          50,
          50,
          50,
          50,
          50,
          50,
          50,
          50,
          50,
          50,
          50,
          50,
          50,
          50,
          50,
          50,
          50,
          50,
          50,
          50,
          50,
          50,
          50,
          50,
          50,
          50,
          50,
          50,
          50,
          50,
          50,
          50,
          50,
          50,
          50,
          50,
          50,
          50,
          50,
          50,
          50,
          50,
          50,
          50,
          50,
          50,
          50,
          50,
          50,
          50,
          50,
          50,
          50,
          50,
          50,
          50,
          50,
          50,
          50,
          50,
          50,
          50,
          50,
          50,
          50,
          50,
          50,
          50,
          50,
          50,
          50,
          50,
          50,
          50,
          50,
          50,
          50,
          50,
          50,
          50,
          50,
          50,
          50,
          50,
          50,
          50,
          50,
          50,
          50,
          50,
          50,
          50,
          50,
          50,
          50,
          50,
          50,
          50,
          50,
          50,
          50,
          50,
          50,
          50,
          50,
          50,
          50,
          50,
          50,
          50,
          50,
          50,
          50,
          50,
          50,
          50,
          50,
          50,
          50,
          50,
          50,
          50,
          50,
          50,
          50,
          50,
          50,
          50,
          50,
          50,
          50,
          50,
          50,
          50,
          50,
          50,
          50,
          50,
          50,
          50,
          50,
          50,
          50,
          50,
          50,
          50,
          50,
          50,
          50,
          50,
          50,
          50,
          50,
          50,
          50,
          50,
          50,
          50,
          50,
          50,
          50,
          50,
          50,
          50,
          50,
          50,
          50,
          50,
          50,
          50,
          50,
          50,
          50,
          50,
          50,
          50,
          50,
          50,
          50,
          50,
          50,
          50,
          50,
          50,
          50,
          50,
          50,
          50,
          50,
          50,
          50,
          50,
          50,
          50,
          50,
          50,
          50,
          50,
          50,
          50,
          50,
          50,
          50,
          50,
          50,
          50,
          50,
          50,
          50,
          50,
          50,
          50,
          50,
          50,
          50,
          50,
          50,
          50,
          50,
          50,
          50,
          50,
          50,
          50,
          50,
          50,
          50,
          50,
          50,
          50,
          50,
          50,
          50,
          50,
          50,
          50,
          50,
          50,
          50,
          50,
          50,
          50,
          50,
          50,
          50,
          50,
          50,
          50,
          50,
          50,
          50,
          50,
          50,
          50,
          50,
          50,
          50,
          50,
          50,
          50,
          50,
          50,
          50,
          50,
          50,
          50,
          50,
          50,
          50,
          50,
          50,
          50,
          50,
          50,
          50,
          50,
          50,
          50,
          50,
          50,
          50,
          50,
          50,
          50,
          50,
          50,
          50,
          50,
          50,
          50,
          50,
          50,
          50,
          50,
          50,
          50,
          50,
          50,
          50,
          50,
          50,
          50,
          50,
          50,
          50,
          50,
          50,
          50,
          50,
          50,
          50,
          50,
          50,
          50,
          50,
          50,
          50,
          50,
          50,
          50,
          50,
          50,
          50,
          50,
          50,
          50,
          50,
          50,
          50,
          50,
          50,
          50,
          50,
          50,
          50,
          50,
          50,
          50,
          50,
          50,
          50,
          50,
          50,
          50,
          50,
          50,
          50,
          50,
          50,
          50,
          50,
          50,
          50,
          50,
          50,
          50,
          50,
          50,
          50,
          50,
          50,
          50,
          50,
          50,
          50,
          50,
          50,
          50,
          50,
          50,
          50,
          50,
          50,
          50,
          50,
          50,
          50,
          50,
          50,
          50,
          50,
          50,
          50,
          50,
          50,
          50,
          50,
          50,
          50,
          50,
          50,
          50,
          50,
          50,
          50,
          50,
          50,
          50,
          50,
          50,
          50,
          50,
          50,
          50,
          50,
          50,
          50,
          50,
          50,
          50,
          50,
          50,
          50,
          50,
          50,
          50,
          50,
          50,
          50,
          50,
          50,
          50,
          50,
          50,
          50,
          50,
          50,
          50,
          50,
          50,
          50,
          50,
          50,
          50,
          50,
          50,
          50,
          50,
          50,
          50,
          50,
          50,
          50,
          50,
          50,
          50,
          50,
          50,
          50,
          50,
          50,
          50,
          50,
          50,
          50,
          50,
          50,
          50,
          50,
          50,
          50,
          50,
          50,
          50,
          50,
          50,
          50,
          50,
          50,
          50,
          50,
          50,
          50,
          50,
          50,
          50,
          50,
          50,
          50,
          50,
          50,
          50,
          50,
          50,
          50,
          50,
          50,
          50,
          50,
          50,
          50,
          50,
          50,
          50,
          50,
          50,
          50,
          50,
          50,
          50,
          50,
          50,
          50,
          50,
          50,
          50,
          50,
          50,
          50,
          50,
          50,
          50,
          50,
          50,
          50,
          50,
          50,
          50,
          50,
          50,
          50,
          50,
          50,
          50,
          50,
          50,
          50,
          50,
          50,
          50,
          50,
          50,
          50,
          50,
          50,
          50,
          50,
          50,
          50,
          50,
          50,
          50,
          50,
          50,
          50,
          50,
          50,
          50,
          50,
          50,
          50,
          50,
          50,
          50,
          50,
          50,
          50,
          50,
          50,
          50,
          50,
          50,
          50,
          50,
          50,
          50,
          50,
          50,
          50,
          50,
          50,
          50,
          50,
          50,
          50,
          50,
          50,
          50,
          50,
          50,
          50,
          50,
          50,
          50,
          50,
          50,
          50,
          50,
          50,
          50,
          50,
          50,
          50,
          50,
          50,
          50,
          50,
          50,
          50,
          50,
          50,
          50,
          50,
          50,
          50,
          50,
          50,
          50,
          50,
          50,
          50,
          50,
          50,
          50,
          50,
          50,
          50,
          50,
          50,
          50,
          50,
          50,
          50,
          50,
          50,
          50,
          50,
          50,
          50,
          50,
          50,
          50,
          50,
          50,
          50,
          50,
          50,
          50,
          50,
          50,
          50,
          50,
          50,
          50,
          50,
          50,
          50,
          50,
          50,
          50,
          50,
          50,
          50,
          50,
          50,
          50,
          50,
          50,
          50,
          50,
          50,
          50,
          50,
          50,
          50,
          50,
          50,
          50,
          50,
          50,
          50,
          50,
          50,
          50,
          50,
          50,
          50,
          50,
          50,
          50,
          50,
          50,
          50,
          50,
          50,
          50,
          50,
          50,
          50,
          50,
          50,
          50,
          50,
          50,
          50,
          50,
          50,
          50,
          50,
          50,
          50,
          50,
          50,
          50,
          50,
          50,
          50,
          50,
          50,
          50,
          50,
          50,
          50,
          50,
          50,
          50,
          50,
          50,
          50,
          50,
          50,
          50,
          50,
          50,
          50,
          50,
          50,
          50,
          50,
          50,
          50,
          50,
          50,
          50,
          50,
          50,
          50,
          50,
          50,
          50,
          50,
          50,
          50,
          50,
          50,
          50,
          50,
          50,
          50,
          50,
          50,
          50,
          50,
          50,
          50,
          50,
          50,
          50,
          50,
          50,
          50,
          50,
          50,
          50,
          50,
          50,
          50,
          50,
          50,
          50,
          50,
          50,
          50,
          50,
          50,
          50,
          50,
          50,
          50,
          50,
          50,
          50,
          50,
          50,
          50,
          50,
          50,
          50,
          50,
          50,
          50,
          50,
          50,
          50,
          50,
          50,
          50,
          50,
          50,
          50,
          50,
          50,
          50,
          50,
          50,
          50,
          50,
          50,
          50,
          50,
          50,
          50,
          50,
          50,
          50,
          50,
          50,
          50,
          50,
          50,
          50,
          50,
          50,
          50,
          50,
          50,
          50,
          50,
          50,
          50,
          50,
          50,
          50,
          50,
          50,
          50,
          50,
          50,
          50,
          50,
          50,
          50,
          50,
          50,
          50,
          50,
          50,
          50,
          50,
          50,
          50,
          50,
          50,
          50,
          50,
          50,
          50,
          50,
          50,
          50,
          50,
          50,
          50,
          50,
          50,
          50,
          50,
          50,
          50,
          50,
          50,
          50,
          50,
          50,
          50,
          50,
          50,
          50,
          50,
          50,
          50,
          50,
          50,
          50,
          50,
          50,
          50,
          50,
          50,
          50,
          50,
          50,
          50,
          50,
          50,
          50,
          50,
          50,
          50,
          50,
          50,
          50,
          50,
          50,
          50,
          50,
          50,
          50,
          50,
          50,
          50,
          50,
          50,
          50,
          50,
          50,
          50,
          50,
          50,
          50,
          50,
          50,
          50,
          50,
          50,
          50,
          50,
          50,
          50,
          50,
          50,
          50,
          50,
          50,
          50,
          50,
          50,
          50,
          50,
          50,
          50,
          50,
          50,
          50,
          50,
          50,
          50,
          50,
          50,
          50,
          50,
          50,
          50,
          50,
          50,
          50,
          50,
          50,
          50,
          50,
          50,
          50,
          50,
          50,
          50,
          50,
          50,
          50,
          50,
          50,
          50,
          50,
          50,
          50,
          50,
          50,
          50,
          50,
          50,
          50,
          50,
          50,
          50,
          50,
          50,
          50,
          50,
          50,
          50,
          50,
          50,
          50,
          50,
          50,
          50,
          50,
          50,
          50,
          50,
          50,
          50,
          50,
          50,
          50,
          50,
          50,
          50,
          50,
          50,
          50,
          50,
          50,
          50,
          50,
          50,
          50,
          50,
          50,
          50,
          50,
          50,
          50,
          50,
          50,
          50,
          50,
          50,
          50,
          50,
          50,
          50,
          50,
          50,
          50,
          50,
          50,
          50,
          50,
          50,
          50,
          50,
          50,
          50,
          50,
          50,
          50,
          50,
          50,
          50,
          50,
          50,
          50,
          50,
          50,
          50,
          50,
          50,
          50,
          50,
          50,
          50,
          50,
          50,
          50,
          50,
          50,
          50,
          50,
          50,
          50,
          50,
          50,
          50,
          50,
          50,
          50,
          50,
          50,
          50,
          50,
          50,
          50,
          50,
          50,
          50,
          50,
          50,
          50,
          50,
          50,
          50,
          50,
          50,
          50,
          50,
          50,
          50,
          50,
          50,
          50,
          50,
          50,
          50,
          50,
          50,
          50,
          50,
          50,
          50,
          50,
          50,
          50,
          50,
          50,
          50,
          50,
          50,
          50,
          50,
          50,
          50,
          50,
          50,
          50,
          50,
          50,
          50,
          50,
          50,
          50,
          50,
          50,
          50,
          50,
          50,
          50,
          50,
          50,
          50,
          50,
          50,
          50,
          50,
          50,
          50,
          50,
          50,
          50,
          50,
          50,
          50,
          50,
          50,
          50,
          50,
          50,
          50,
          50,
          50,
          50,
          50,
          50,
          50,
          50,
          50,
          50,
          50,
          50,
          50,
          50,
          50,
          50,
          50,
          50,
          50,
          50,
          50,
          50,
          50,
          50,
          50,
          50,
          50,
          50,
          50,
          50,
          50,
          50,
          50,
          50,
          50,
          50,
          50,
          50,
          50,
          50,
          50,
          50,
          50,
          50,
          50,
          50,
          50,
          50,
          50,
          50,
          50,
          50,
          50,
          50,
          50,
          50,
          50,
          50,
          50,
          50,
          50,
          50,
          50,
          50,
          50,
          50,
          50,
          50,
          50,
          50,
          50,
          50,
          50,
          50,
          50,
          50,
          50,
          50,
          50,
          50,
          50,
          50,
          50,
          50,
          50,
          50,
          50,
          50,
          50,
          50,
          50,
          50,
          50,
          50,
          50,
          50,
          50,
          50,
          50,
          50,
          50,
          50,
          50,
          50,
          50,
          50,
          50,
          50,
          50,
          50,
          50,
          50,
          50,
          50,
          50,
          50,
          50,
          50,
          50,
          50,
          50,
          50,
          50,
          50,
          50,
          50,
          50,
          50,
          50,
          50,
          50,
          50,
          50,
          50,
          50,
          50,
          50,
          50,
          50,
          50,
          50,
          50,
          50,
          50,
          50,
          50,
          50,
          50,
          50,
          50,
          50,
          50,
          50,
          50,
          50,
          50,
          50,
          50,
          50,
          50,
          50,
          50,
          50,
          50,
          50,
          50,
          50,
          50,
          50,
          50,
          50,
          50,
          50,
          50,
          50,
          50,
          50,
          50,
          50,
          50,
          50,
          50,
          50,
          50,
          50,
          50,
          50,
          50,
          50,
          50,
          50,
          50,
          50,
          50,
          50,
          50,
          50,
          50,
          50,
          50,
          50,
          50,
          50,
          50,
          50,
          50,
          50,
          50,
          50,
          50,
          50,
          50,
          50,
          50,
          50,
          50,
          50,
          50,
          50,
          50,
          50,
          50,
          50,
          50,
          50,
          50,
          50,
          50,
          50,
          50,
          50,
          50,
          50,
          50,
          50,
          50,
          50,
          50,
          50,
          50,
          50,
          50,
          50,
          50,
          50,
          50,
          50,
          50,
          50,
          50,
          50,
          50,
          50,
          50,
          50,
          50,
          50,
          50,
          50,
          50,
          50,
          50,
          50,
          50,
          50,
          50,
          50,
          50,
          50,
          50,
          50,
          50,
          50,
          50,
          50,
          50,
          50,
          50,
          50,
          50,
          50,
          50,
          50,
          50,
          50,
          50,
          50,
          50,
          50,
          50,
          50,
          50,
          50,
          50,
          50,
          50,
          50,
          50,
          50,
          50,
          50,
          50,
          50,
          50,
          50,
          50,
          50,
          50,
          50,
          50,
          50,
          50,
          50,
          50,
          50,
          50,
          50,
          50,
          50,
          50,
          50,
          50,
          50,
          50,
          50,
          50,
          50,
          50,
          50,
          50,
          50,
          50,
          50,
          50,
          50,
          50,
          50,
          50,
          50,
          50,
          50,
          50,
          50,
          50,
          50,
          50,
          50,
          50,
          50,
          50,
          50,
          50,
          50,
          50,
          50,
          50,
          50,
          50,
          50,
          50,
          50,
          50,
          50,
          50,
          50,
          50,
          50,
          50,
          50,
          50,
          50,
          50,
          50,
          50,
          50,
          50,
          50,
          50,
          50,
          50,
          50,
          50,
          50,
          50,
          50,
          50,
          50,
          50,
          50,
          50,
          50,
          50,
          50,
          50,
          50,
          50,
          50,
          50,
          50,
          50,
          50,
          50,
          50,
          50,
          50,
          50,
          50,
          50,
          50,
          50,
          50,
          50,
          50,
          50,
          50,
          50,
          50,
          50,
          50,
          50,
          50,
          50,
          50,
          50,
          50,
          50,
          50,
          50,
          50,
          50,
          50,
          50,
          50,
          50,
          50,
          50,
          50,
          50,
          50,
          50,
          50,
          50,
          50,
          50,
          50,
          50,
          50,
          50,
          50,
          50,
          50,
          50,
          50,
          50,
          50,
          50,
          50,
          50,
          50,
          50,
          50,
          50,
          50,
          50,
          50,
          50,
          50,
          50,
          50,
          50,
          50,
          50,
          50,
          50,
          50,
          50,
          50,
          50,
          50,
          50,
          50,
          50,
          50,
          50,
          50,
          50,
          50,
          50,
          50,
          50,
          50,
          50,
          50,
          50,
          50,
          50,
          50,
          50,
          50,
          50,
          50
        ],
        "sequences": [
          8,
          16,
          16,
          16,
          16,
          16,
          16,
          16,
          16,
          16,
          16,
          16,
          16,
          16,
          16,
          16,
          16,
          16,
          16,
          16,
          16,
          16,
          16,
          16,
          16,
          16,
          16,
          16,
          16,
          16,
          16,
          16
        ],
        "phrase2": [
          0,
          0,
          0,
          0,
          0,
          0,
          0,
          0,
          0,
          0,
          0,
          0,
          0,
          0,
          0,
          0,
          0,
          0,
          0,
          0,
          0,
          0,
          0,
          0,
          0,
          0,
          0,
          0,
          0,
          0,
          0,
          0,
          0,
          0,
          0,
          0,
          0,
          0,
          0,
          0,
          0,
          0,
          0,
          0,
          0,
          0,
          0,
          0,
          0,
          0,
          0,
          0,
          0,
          0,
          0,
          0,
          0,
          0,
          0,
          0,
          0,
          0,
          0,
          0
        ],
        "resetOnRun": false,
        "stopAtEndOfSong": false
      },
      "pos": [
        0,
        2
      ]
    },
    {
      "id": 121,
      "plugin": "Fundamental",
      "version": "1.2.0",
      "model": "Merge",
      "params": [],
      "leftModuleId": 120,
      "rightModuleId": 122,
      "data": {
        "channels": -1
      },
      "pos": [
        24,
        2
      ]
    },
    {
      "id": 122,
      "plugin": "Geodesics",
      "version": "1.0.0",
      "model": "Entropia",
      "params": [
        {
          "id": 0,
          "value": 0.0
        },
        {
          "id": 1,
          "value": 0.0
        },
        {
          "id": 2,
          "value": 0.0
        },
        {
          "id": 3,
          "value": 0.0
        },
        {
          "id": 4,
          "value": 0.0
        },
        {
          "id": 5,
          "value": 0.305085957
        },
        {
          "id": 6,
          "value": 0.0604239702
        },
        {
          "id": 7,
          "value": 0.844028056
        },
        {
          "id": 8,
          "value": 0.815359056
        },
        {
          "id": 9,
          "value": 0.271887004
        },
        {
          "id": 10,
          "value": 0.59994179
        },
        {
          "id": 11,
          "value": 0.660719037
        },
        {
          "id": 12,
          "value": 0.825452268
        },
        {
          "id": 13,
          "value": 0.266068459
        },
        {
          "id": 14,
          "value": 0.174319088
        },
        {
          "id": 15,
          "value": 0.807163298
        },
        {
          "id": 16,
          "value": 0.215567827
        },
        {
          "id": 17,
          "value": 0.0113242269
        },
        {
          "id": 18,
          "value": 0.483626187
        },
        {
          "id": 19,
          "value": 0.609316945
        },
        {
          "id": 20,
          "value": 0.974930465
        },
        {
          "id": 21,
          "value": 0.332706392
        },
        {
          "id": 22,
          "value": 0.0345041156
        },
        {
          "id": 23,
          "value": 0.320597529
        },
        {
          "id": 24,
          "value": 0.358720303
        },
        {
          "id": 25,
          "value": 0.84880662
        },
        {
          "id": 26,
          "value": 0.538655221
        },
        {
          "id": 27,
          "value": 0.192608833
        },
        {
          "id": 28,
          "value": 0.705046952
        },
        {
          "id": 29,
          "value": 0.0
        },
        {
          "id": 30,
          "value": 0.0
        },
        {
          "id": 31,
          "value": 0.0
        },
        {
          "id": 32,
          "value": 0.0
        },
        {
          "id": 33,
          "value": 0.0
        },
        {
          "id": 34,
          "value": 0.0
        },
        {
          "id": 35,
          "value": 0.0
        },
        {
          "id": 36,
          "value": 0.0
        },
        {
          "id": 37,
          "value": 0.0
        },
        {
          "id": 38,
          "value": 0.0
        },
        {
          "id": 39,
          "value": 0.0
        },
        {
          "id": 40,
          "value": 0.0
        },
        {
          "id": 41,
          "value": -0.308243036
        },
        {
          "id": 42,
          "value": 0.0
        },
        {
          "id": 43,
          "value": 0.0
        },
        {
          "id": 44,
          "value": 0.0
        }
      ],
      "leftModuleId": 121,
      "rightModuleId": 127,
      "data": {
        "panelTheme": 0,
        "running": true,
        "resetOnRun": false,
        "length": 8,
        "quantize": 3,
        "audio": 0,
        "ranges0": 1,
        "ranges1": 1,
        "addMode": true,
        "sources0": 0,
        "sources1": 2,
        "stepIndex": 5,
        "pipeBlue": true,
        "randomCVs0": 0.485787451,
        "randomCVs1": 0.851950526,
        "clkSource": 0
      },
      "pos": [
        29,
        2
      ]
    },
    {
      "id": 123,
      "plugin": "Bogaudio",
      "version": "1.1.22",
      "model": "Bogaudio-LLFO",
      "params": [
        {
          "id": 0,
          "value": 1.56501377
        },
        {
          "id": 1,
          "value": 0.0
        },
        {
          "id": 2,
          "value": 1.0
        },
        {
          "id": 3,
          "value": 0.0
        },
        {
          "id": 4,
          "value": 1.0
        }
      ],
      "leftModuleId": 117,
      "rightModuleId": 124,
      "pos": [
        58,
        1
      ]
    },
    {
      "id": 124,
      "plugin": "AudibleInstruments",
      "version": "1.0.0",
      "model": "Kinks",
      "params": [],
      "leftModuleId": 123,
      "rightModuleId": 125,
      "pos": [
        61,
        1
      ]
    },
    {
      "id": 125,
      "plugin": "Fundamental",
      "version": "1.2.0",
      "model": "Merge",
      "params": [],
      "leftModuleId": 124,
      "rightModuleId": 126,
      "data": {
        "channels": -1
      },
      "pos": [
        65,
        1
      ]
    },
    {
      "id": 126,
      "plugin": "Fundamental",
      "version": "1.2.0",
      "model": "Scope",
      "params": [
        {
          "id": 0,
          "value": -1.0
        },
        {
          "id": 1,
          "value": 4.43999815
        },
        {
          "id": 2,
          "value": 0.0
        },
        {
          "id": 3,
          "value": -4.70999908
        },
        {
          "id": 4,
          "value": 10.4999857
        },
        {
          "id": 5,
          "value": 0.0
        },
        {
          "id": 6,
          "value": 0.0
        },
        {
          "id": 7,
          "value": 0.0
        }
      ],
      "leftModuleId": 125,
      "rightModuleId": 130,
      "data": {
        "lissajous": 0,
        "external": 0
      },
      "pos": [
        70,
        1
      ]
    },
    {
      "id": 127,
      "plugin": "Geodesics",
      "version": "1.0.0",
      "model": "Branes",
      "params": [
        {
          "id": 0,
          "value": 0.0
        },
        {
          "id": 1,
          "value": 0.0
        },
        {
          "id": 2,
          "value": 0.0
        },
        {
          "id": 3,
          "value": 0.0
        }
      ],
      "leftModuleId": 122,
      "data": {
        "panelTheme": 0,
        "vibrations0": 0,
        "vibrations1": 0,
        "noiseRange0": 0.0,
        "noiseRange1": 1.0
      },
      "pos": [
        50,
        2
      ]
    },
    {
      "id": 128,
      "plugin": "Bogaudio",
      "version": "1.1.22",
      "model": "Bogaudio-Mix4",
      "params": [
        {
          "id": 0,
          "value": 0.909090936
        },
        {
          "id": 1,
          "value": -0.984000266
        },
        {
          "id": 2,
          "value": 0.0
        },
        {
          "id": 3,
          "value": 0.909090936
        },
        {
          "id": 4,
          "value": 1.0
        },
        {
          "id": 5,
          "value": 0.0
        },
        {
          "id": 6,
          "value": 0.909090936
        },
        {
          "id": 7,
          "value": 0.0
        },
        {
          "id": 8,
          "value": 0.0
        },
        {
          "id": 9,
          "value": 0.909090936
        },
        {
          "id": 10,
          "value": 0.0
        },
        {
          "id": 11,
          "value": 0.0
        },
        {
          "id": 12,
          "value": 0.909090936
        },
        {
          "id": 13,
          "value": 0.0
        }
      ],
      "rightModuleId": 107,
      "pos": [
        39,
        0
      ]
    },
    {
      "id": 129,
      "plugin": "AlrightDevices",
      "version": "1.0.0",
      "model": "Chronoblob2",
      "params": [
        {
          "id": 0,
          "value": 0.5
        },
        {
          "id": 1,
          "value": 0.5
        },
        {
          "id": 2,
          "value": 0.5
        },
        {
          "id": 3,
          "value": 0.0
        },
        {
          "id": 4,
          "value": 0.0
        },
        {
          "id": 5,
          "value": 0.0
        },
        {
          "id": 6,
          "value": 0.0
        },
        {
          "id": 7,
          "value": 0.0
        },
        {
          "id": 8,
          "value": 0.0
        },
        {
          "id": 9,
          "value": 0.0
        }
      ],
      "data": {
        "delay_mode": 1,
        "hold_behavior": 0,
        "sync_prescaler": 6
      },
      "pos": [
        25,
        0
      ]
    },
    {
      "id": 130,
      "plugin": "Befaco",
      "version": "1.0.0",
      "model": "DualAtenuverter",
      "params": [
        {
          "id": 0,
          "value": 0.0
        },
        {
          "id": 1,
          "value": 3.11999917
        },
        {
          "id": 2,
          "value": 0.0
        },
        {
          "id": 3,
          "value": 0.0
        }
      ],
      "leftModuleId": 126,
      "rightModuleId": 131,
      "pos": [
        83,
        1
      ]
    },
    {
      "id": 131,
      "plugin": "Fundamental",
      "version": "1.2.0",
      "model": "Merge",
      "params": [],
      "leftModuleId": 130,
      "data": {
        "channels": -1
      },
      "pos": [
        88,
        1
      ]
    },
    {
      "id": 132,
      "plugin": "EricaCopies",
      "version": "1.0.2",
      "model": "BlackWaveTableVCO",
      "params": [
        {
          "id": 0,
          "value": 0.0
        },
        {
          "id": 1,
          "value": 1.0
        },
        {
          "id": 2,
          "value": 0.0
        },
        {
          "id": 3,
          "value": 0.0884999111
        },
        {
          "id": 4,
          "value": 0.245999977
        },
        {
          "id": 5,
          "value": 1.68749726
        },
        {
          "id": 6,
          "value": 4.0
        },
        {
          "id": 7,
          "value": 1.0
        }
      ],
      "data": {
        "CV_mode": 0,
        "sub_mode": 1,
        "bank_number": 6,
        "coarse_value": 48.0,
        "fine_value": 0.0,
        "knob_mode": 1,
        "phase_lock": false
      },
      "pos": [
        70,
        2
      ]
    }
  ],
  "cables": [
    {
      "id": 130,
      "outputModuleId": 110,
      "outputId": 2,
      "inputModuleId": 111,
      "inputId": 1,
      "color": "#0c8e15"
    },
    {
      "id": 131,
      "outputModuleId": 110,
      "outputId": 3,
      "inputModuleId": 111,
      "inputId": 2,
      "color": "#c91847"
    },
    {
      "id": 135,
      "outputModuleId": 113,
      "outputId": 1,
      "inputModuleId": 107,
      "inputId": 5,
      "color": "#c91847"
    },
    {
      "id": 136,
      "outputModuleId": 113,
      "outputId": 2,
      "inputModuleId": 107,
      "inputId": 8,
      "color": "#0986ad"
    },
    {
      "id": 133,
      "outputModuleId": 112,
      "outputId": 0,
      "inputModuleId": 114,
      "inputId": 0,
      "color": "#c9b70e"
    },
    {
      "id": 141,
      "outputModuleId": 111,
      "outputId": 0,
      "inputModuleId": 112,
      "inputId": 2,
      "color": "#0c8e15"
    },
    {
      "id": 149,
      "outputModuleId": 120,
      "outputId": 1,
      "inputModuleId": 121,
      "inputId": 1,
      "color": "#0c8e15"
    },
    {
      "id": 150,
      "outputModuleId": 120,
      "outputId": 2,
      "inputModuleId": 121,
      "inputId": 2,
      "color": "#c91847"
    },
    {
      "id": 153,
      "outputModuleId": 119,
      "outputId": 0,
      "inputModuleId": 115,
      "inputId": 0,
      "color": "#0c8e15"
    },
    {
      "id": 155,
      "outputModuleId": 109,
      "outputId": 1,
      "inputModuleId": 120,
      "inputId": 0,
      "color": "#c91847"
    },
    {
      "id": 156,
      "outputModuleId": 109,
      "outputId": 1,
      "inputModuleId": 110,
      "inputId": 1,
      "color": "#0986ad"
    },
    {
      "id": 158,
      "outputModuleId": 109,
      "outputId": 2,
      "inputModuleId": 122,
      "inputId": 0,
      "color": "#c91847"
    },
    {
      "id": 159,
      "outputModuleId": 109,
      "outputId": 4,
      "inputModuleId": 122,
      "inputId": 4,
      "color": "#0c8e15"
    },
    {
      "id": 160,
      "outputModuleId": 122,
      "outputId": 0,
      "inputModuleId": 111,
      "inputId": 3,
      "color": "#c91847"
    },
    {
      "id": 162,
      "outputModuleId": 113,
      "outputId": 3,
      "inputModuleId": 107,
      "inputId": 11,
      "color": "#c9b70e"
    },
    {
      "id": 134,
      "outputModuleId": 113,
      "outputId": 0,
      "inputModuleId": 107,
      "inputId": 2,
      "color": "#0c8e15"
    },
    {
      "id": 167,
      "outputModuleId": 125,
      "outputId": 0,
      "inputModuleId": 114,
      "inputId": 1,
      "color": "#0986ad"
    },
    {
      "id": 137,
      "outputModuleId": 114,
      "outputId": 0,
      "inputModuleId": 115,
      "inputId": 1,
      "color": "#c9b70e"
    },
    {
      "id": 168,
      "outputModuleId": 110,
      "outputId": 1,
      "inputModuleId": 111,
      "inputId": 0,
      "color": "#c9b70e"
    },
    {
      "id": 169,
      "outputModuleId": 109,
      "outputId": 2,
      "inputModuleId": 121,
      "inputId": 3,
      "color": "#0c8e15"
    },
    {
      "id": 143,
      "outputModuleId": 115,
      "outputId": 0,
      "inputModuleId": 113,
      "inputId": 0,
      "color": "#c91847"
    },
    {
      "id": 152,
      "outputModuleId": 121,
      "outputId": 0,
      "inputModuleId": 119,
      "inputId": 4,
      "color": "#c9b70e"
    },
    {
      "id": 173,
      "outputModuleId": 120,
      "outputId": 0,
      "inputModuleId": 121,
      "inputId": 0,
      "color": "#c91847"
    },
    {
      "id": 174,
      "outputModuleId": 120,
      "outputId": 0,
      "inputModuleId": 124,
      "inputId": 4,
      "color": "#0986ad"
    },
    {
      "id": 165,
      "outputModuleId": 123,
      "outputId": 0,
      "inputModuleId": 125,
      "inputId": 1,
      "color": "#c9b70e"
    },
    {
      "id": 175,
      "outputModuleId": 124,
      "outputId": 6,
      "inputModuleId": 125,
      "inputId": 0,
      "color": "#c9b70e"
    },
    {
      "id": 178,
      "outputModuleId": 117,
      "outputId": 0,
      "inputModuleId": 125,
      "inputId": 2,
      "color": "#c9b70e"
    },
    {
      "id": 181,
      "outputModuleId": 123,
      "outputId": 0,
      "inputModuleId": 126,
      "inputId": 0,
      "color": "#0986ad"
    },
    {
      "id": 182,
      "outputModuleId": 124,
      "outputId": 6,
      "inputModuleId": 126,
      "inputId": 1,
      "color": "#c9b70e"
    },
    {
      "id": 183,
      "outputModuleId": 122,
      "outputId": 0,
      "inputModuleId": 125,
      "inputId": 3,
      "color": "#c9b70e"
    },
    {
      "id": 185,
      "outputModuleId": 109,
      "outputId": 3,
      "inputModuleId": 127,
      "inputId": 15,
      "color": "#c91847"
    },
    {
      "id": 189,
      "outputModuleId": 109,
      "outputId": 3,
      "inputModuleId": 121,
      "inputId": 4,
      "color": "#0986ad"
    },
    {
      "id": 190,
      "outputModuleId": 109,
      "outputId": 3,
      "inputModuleId": 121,
      "inputId": 5,
      "color": "#c9b70e"
    },
    {
      "id": 186,
      "outputModuleId": 127,
      "outputId": 7,
      "inputModuleId": 111,
      "inputId": 4,
      "color": "#0986ad"
    },
    {
      "id": 187,
      "outputModuleId": 127,
      "outputId": 8,
      "inputModuleId": 111,
      "inputId": 5,
      "color": "#c9b70e"
    },
    {
      "id": 188,
      "outputModuleId": 127,
      "outputId": 9,
      "inputModuleId": 111,
      "inputId": 6,
      "color": "#c91847"
    },
    {
      "id": 195,
      "outputModuleId": 107,
      "outputId": 0,
      "inputModuleId": 108,
      "inputId": 0,
      "color": "#c9b70e"
    },
    {
      "id": 196,
      "outputModuleId": 107,
      "outputId": 1,
      "inputModuleId": 108,
      "inputId": 1,
      "color": "#0c8e15"
    },
    {
      "id": 197,
      "outputModuleId": 108,
      "outputId": 0,
      "inputModuleId": 20,
      "inputId": 0,
      "color": "#c91847"
    },
    {
      "id": 198,
      "outputModuleId": 108,
      "outputId": 1,
      "inputModuleId": 20,
      "inputId": 1,
      "color": "#0986ad"
    },
    {
      "id": 192,
      "outputModuleId": 113,
      "outputId": 4,
      "inputModuleId": 128,
      "inputId": 2,
      "color": "#c91847"
    },
    {
      "id": 193,
      "outputModuleId": 113,
      "outputId": 5,
      "inputModuleId": 128,
      "inputId": 5,
      "color": "#0986ad"
    },
    {
      "id": 194,
      "outputModuleId": 113,
      "outputId": 6,
      "inputModuleId": 128,
      "inputId": 8,
      "color": "#c9b70e"
    },
    {
      "id": 199,
      "outputModuleId": 128,
      "outputId": 0,
      "inputModuleId": 129,
      "inputId": 5,
      "color": "#0c8e15"
    },
    {
      "id": 200,
      "outputModuleId": 128,
      "outputId": 1,
      "inputModuleId": 129,
      "inputId": 6,
      "color": "#c91847"
    },
    {
      "id": 201,
      "outputModuleId": 109,
      "outputId": 0,
      "inputModuleId": 129,
      "inputId": 7,
      "color": "#c91847"
    },
    {
      "id": 202,
      "outputModuleId": 129,
      "outputId": 0,
      "inputModuleId": 107,
      "inputId": 14,
      "color": "#0986ad"
    },
    {
      "id": 203,
      "outputModuleId": 129,
      "outputId": 1,
      "inputModuleId": 107,
      "inputId": 17,
      "color": "#c9b70e"
    },
    {
      "id": 191,
      "outputModuleId": 109,
      "outputId": 3,
      "inputModuleId": 121,
      "inputId": 6,
      "color": "#0c8e15"
    },
    {
      "id": 204,
      "outputModuleId": 109,
      "outputId": 3,
      "inputModuleId": 127,
      "inputId": 14,
      "color": "#c91847"
    },
    {
      "id": 206,
      "outputModuleId": 127,
      "outputId": 2,
      "inputModuleId": 125,
      "inputId": 5,
      "color": "#c9b70e"
    },
    {
      "id": 207,
      "outputModuleId": 127,
      "outputId": 4,
      "inputModuleId": 125,
      "inputId": 6,
      "color": "#0c8e15"
    },
    {
      "id": 208,
      "outputModuleId": 130,
      "outputId": 0,
      "inputModuleId": 131,
      "inputId": 4,
      "color": "#c91847"
    },
    {
      "id": 209,
      "outputModuleId": 130,
      "outputId": 0,
      "inputModuleId": 131,
      "inputId": 5,
      "color": "#0986ad"
    },
    {
      "id": 210,
      "outputModuleId": 130,
      "outputId": 0,
      "inputModuleId": 131,
      "inputId": 6,
      "color": "#c9b70e"
    },
    {
      "id": 211,
      "outputModuleId": 131,
      "outputId": 0,
      "inputModuleId": 119,
      "inputId": 1,
      "color": "#0c8e15"
    },
    {
      "id": 205,
      "outputModuleId": 127,
      "outputId": 3,
      "inputModuleId": 125,
      "inputId": 4,
      "color": "#0986ad"
    },
    {
      "id": 212,
      "outputModuleId": 131,
      "outputId": 0,
      "inputModuleId": 119,
      "inputId": 0,
      "color": "#0c8e15"
    },
    {
      "id": 213,
      "outputModuleId": 132,
      "outputId": 1,
      "inputModuleId": 107,
      "inputId": 20,
      "color": "#c91847"
    },
    {
      "id": 214,
      "outputModuleId": 132,
      "outputId": 0,
      "inputModuleId": 107,
      "inputId": 23,
      "color": "#0986ad"
    }
  ]
}