{
  "version": "1.1.3",
  "modules": [
    {
      "id": 20,
      "plugin": "Core",
      "version": "1.1.3",
      "model": "AudioInterface",
      "params": [],
      "leftModuleId": 21,
      "data": {
        "audio": {
          "driver": 1,
          "deviceName": "hw:Scarlett 2i2 USB,0",
          "offset": 0,
          "maxChannels": 8,
          "sampleRate": 48000,
          "blockSize": 128
        }
      },
      "pos": [
        94,
        0
      ]
    },
    {
      "id": 21,
      "plugin": "Fundamental",
      "version": "1.2.0",
      "model": "VCMixer",
      "params": [
        {
          "id": 0,
          "value": 1.0
        },
        {
          "id": 1,
          "value": 0.661852479
        },
        {
          "id": 2,
          "value": 0.657609344
        },
        {
          "id": 3,
          "value": 0.657609224
        },
        {
          "id": 4,
          "value": 0.28723675
        }
      ],
      "rightModuleId": 20,
      "pos": [
        84,
        0
      ]
    },
    {
      "id": 22,
      "plugin": "SynthKit",
      "version": "1.0.1",
      "model": "ClockDivider",
      "params": [],
      "leftModuleId": 40,
      "pos": [
        10,
        1
      ]
    },
    {
      "id": 31,
      "plugin": "Fundamental",
      "version": "1.2.0",
      "model": "VCA-1",
      "params": [
        {
          "id": 0,
          "value": 1.0
        },
        {
          "id": 1,
          "value": 1.0
        }
      ],
      "leftModuleId": 36,
      "pos": [
        80,
        0
      ]
    },
    {
      "id": 35,
      "plugin": "Autodafe",
      "version": "1.0.1",
      "model": "SEQ8",
      "params": [
        {
          "id": 0,
          "value": 2.0
        },
        {
          "id": 1,
          "value": 0.0
        },
        {
          "id": 2,
          "value": 0.0
        },
        {
          "id": 3,
          "value": 8.0
        },
        {
          "id": 4,
          "value": 2.16000009
        },
        {
          "id": 5,
          "value": 0.555000007
        },
        {
          "id": 6,
          "value": 1.13999999
        },
        {
          "id": 7,
          "value": 1.98000014
        },
        {
          "id": 8,
          "value": 0.0
        },
        {
          "id": 9,
          "value": 0.0
        },
        {
          "id": 10,
          "value": 0.0
        },
        {
          "id": 11,
          "value": 0.0
        },
        {
          "id": 12,
          "value": 0.0
        },
        {
          "id": 13,
          "value": 0.0
        },
        {
          "id": 14,
          "value": 0.0
        },
        {
          "id": 15,
          "value": 0.0
        },
        {
          "id": 16,
          "value": 0.0
        },
        {
          "id": 17,
          "value": 0.0
        },
        {
          "id": 18,
          "value": 0.0
        },
        {
          "id": 19,
          "value": 0.0
        },
        {
          "id": 20,
          "value": 0.0
        },
        {
          "id": 21,
          "value": 0.0
        },
        {
          "id": 22,
          "value": 0.0
        },
        {
          "id": 23,
          "value": 0.0
        },
        {
          "id": 24,
          "value": 0.0
        },
        {
          "id": 25,
          "value": 0.0
        },
        {
          "id": 26,
          "value": 0.0
        },
        {
          "id": 27,
          "value": 0.0
        },
        {
          "id": 28,
          "value": 0.0
        },
        {
          "id": 29,
          "value": 0.0
        },
        {
          "id": 30,
          "value": 0.0
        },
        {
          "id": 31,
          "value": 0.0
        },
        {
          "id": 32,
          "value": 0.0
        },
        {
          "id": 33,
          "value": 0.0
        },
        {
          "id": 34,
          "value": 0.0
        },
        {
          "id": 35,
          "value": 0.0
        }
      ],
      "rightModuleId": 39,
      "data": {
        "running": false,
        "gates": [
          1,
          1,
          1,
          1,
          0,
          0,
          0,
          0
        ],
        "gateMode": 0
      },
      "pos": [
        0,
        0
      ]
    },
    {
      "id": 36,
      "plugin": "Bogaudio",
      "version": "1.1.21",
      "model": "Bogaudio-ADSR",
      "params": [
        {
          "id": 0,
          "value": 0.0180000011
        },
        {
          "id": 1,
          "value": 0.316229999
        },
        {
          "id": 2,
          "value": 1.0
        },
        {
          "id": 3,
          "value": 0.188729957
        },
        {
          "id": 4,
          "value": 0.0
        }
      ],
      "rightModuleId": 31,
      "pos": [
        77,
        0
      ]
    },
    {
      "id": 39,
      "plugin": "AudibleInstruments",
      "version": "1.0.0",
      "model": "Plaits",
      "params": [
        {
          "id": 0,
          "value": 0.0
        },
        {
          "id": 1,
          "value": 0.0
        },
        {
          "id": 2,
          "value": -1.23599982
        },
        {
          "id": 3,
          "value": 0.595999956
        },
        {
          "id": 4,
          "value": 0.5
        },
        {
          "id": 5,
          "value": 0.5
        },
        {
          "id": 6,
          "value": 0.0
        },
        {
          "id": 7,
          "value": 0.0
        },
        {
          "id": 8,
          "value": 0.0
        }
      ],
      "leftModuleId": 35,
      "data": {
        "lowCpu": false,
        "model": 0,
        "lpgColor": 0.5,
        "decay": 0.5
      },
      "pos": [
        27,
        0
      ]
    },
    {
      "id": 40,
      "plugin": "Autodafe",
      "version": "1.0.1",
      "model": "BPMClock",
      "params": [
        {
          "id": 0,
          "value": 120.0
        },
        {
          "id": 1,
          "value": 0.0
        },
        {
          "id": 2,
          "value": 0.0
        },
        {
          "id": 3,
          "value": 0.0
        },
        {
          "id": 4,
          "value": 0.0
        }
      ],
      "rightModuleId": 22,
      "data": {
        "bpmint": 120,
        "bpmdec": 0
      },
      "pos": [
        0,
        1
      ]
    },
    {
      "id": 45,
      "plugin": "Autodafe-DrumKit",
      "version": "1.0.0",
      "model": "DrumsKick",
      "params": [
        {
          "id": 0,
          "value": 0.0
        }
      ],
      "data": {
        "sampletype": 2
      },
      "pos": [
        23,
        1
      ]
    },
    {
      "id": 46,
      "plugin": "Autodafe-DrumKit",
      "version": "1.0.0",
      "model": "DrumsSnare",
      "params": [
        {
          "id": 0,
          "value": 0.0
        }
      ],
      "data": {
        "sampletype": 5
      },
      "pos": [
        28,
        1
      ]
    },
    {
      "id": 47,
      "plugin": "Autodafe-DrumKit",
      "version": "1.0.0",
      "model": "DrumsHiHatClosed",
      "params": [
        {
          "id": 0,
          "value": 0.0
        }
      ],
      "data": {
        "sampletype": 6
      },
      "pos": [
        33,
        1
      ]
    },
    {
      "id": 48,
      "plugin": "Autodafe-DrumKit",
      "version": "1.0.0",
      "model": "DrumsCymbals",
      "params": [
        {
          "id": 0,
          "value": 0.0
        }
      ],
      "data": {
        "sampletype": 3
      },
      "pos": [
        38,
        1
      ]
    },
    {
      "id": 49,
      "plugin": "Autodafe-DrumKit",
      "version": "1.0.0",
      "model": "DrumsMixer",
      "params": [
        {
          "id": 0,
          "value": 0.0944999978
        },
        {
          "id": 1,
          "value": 0.466500103
        },
        {
          "id": 2,
          "value": 0.494999975
        },
        {
          "id": 3,
          "value": 0.472499967
        },
        {
          "id": 4,
          "value": 0.605500162
        },
        {
          "id": 5,
          "value": 0.0
        },
        {
          "id": 6,
          "value": 0.0
        },
        {
          "id": 7,
          "value": 0.0
        },
        {
          "id": 8,
          "value": 0.0
        },
        {
          "id": 9,
          "value": 0.0
        },
        {
          "id": 10,
          "value": 0.0
        },
        {
          "id": 11,
          "value": 0.0
        },
        {
          "id": 12,
          "value": 0.0
        },
        {
          "id": 13,
          "value": 0.0
        },
        {
          "id": 14,
          "value": 0.0
        },
        {
          "id": 15,
          "value": 0.0
        },
        {
          "id": 16,
          "value": 0.0
        },
        {
          "id": 17,
          "value": 0.0
        },
        {
          "id": 18,
          "value": 0.0
        },
        {
          "id": 19,
          "value": 0.0
        },
        {
          "id": 20,
          "value": 0.0
        },
        {
          "id": 21,
          "value": 0.0
        },
        {
          "id": 22,
          "value": 0.0
        },
        {
          "id": 23,
          "value": 0.0
        },
        {
          "id": 24,
          "value": 0.0
        }
      ],
      "data": {
        "autodafeDrumMixerMutes": [
          0,
          0,
          0,
          0,
          0,
          0,
          0,
          0
        ]
      },
      "pos": [
        58,
        1
      ]
    }
  ],
  "cables": [
    {
      "id": 67,
      "outputModuleId": 21,
      "outputId": 0,
      "inputModuleId": 20,
      "inputId": 0,
      "color": "#c91847"
    },
    {
      "id": 92,
      "outputModuleId": 35,
      "outputId": 3,
      "inputModuleId": 39,
      "inputId": 7,
      "color": "#c9b70e"
    },
    {
      "id": 93,
      "outputModuleId": 39,
      "outputId": 0,
      "inputModuleId": 31,
      "inputId": 1,
      "color": "#0c8e15"
    },
    {
      "id": 86,
      "outputModuleId": 35,
      "outputId": 2,
      "inputModuleId": 36,
      "inputId": 0,
      "color": "#c91847"
    },
    {
      "id": 95,
      "outputModuleId": 35,
      "outputId": 1,
      "inputModuleId": 39,
      "inputId": 5,
      "color": "#0986ad"
    },
    {
      "id": 88,
      "outputModuleId": 36,
      "outputId": 0,
      "inputModuleId": 31,
      "inputId": 0,
      "color": "#0c8e15"
    },
    {
      "id": 113,
      "outputModuleId": 22,
      "outputId": 0,
      "inputModuleId": 47,
      "inputId": 0,
      "color": "#0c8e15"
    },
    {
      "id": 115,
      "outputModuleId": 22,
      "outputId": 1,
      "inputModuleId": 45,
      "inputId": 0,
      "color": "#c9b70e"
    },
    {
      "id": 116,
      "outputModuleId": 31,
      "outputId": 0,
      "inputModuleId": 21,
      "inputId": 1,
      "color": "#0c8e15"
    },
    {
      "id": 110,
      "outputModuleId": 40,
      "outputId": 8,
      "inputModuleId": 35,
      "inputId": 1,
      "color": "#c91847"
    },
    {
      "id": 111,
      "outputModuleId": 22,
      "outputId": 3,
      "inputModuleId": 46,
      "inputId": 0,
      "color": "#0986ad"
    },
    {
      "id": 112,
      "outputModuleId": 46,
      "outputId": 0,
      "inputModuleId": 49,
      "inputId": 4,
      "color": "#c9b70e"
    },
    {
      "id": 114,
      "outputModuleId": 47,
      "outputId": 0,
      "inputModuleId": 49,
      "inputId": 7,
      "color": "#0986ad"
    },
    {
      "id": 117,
      "outputModuleId": 49,
      "outputId": 0,
      "inputModuleId": 21,
      "inputId": 2,
      "color": "#0986ad"
    },
    {
      "id": 118,
      "outputModuleId": 49,
      "outputId": 1,
      "inputModuleId": 21,
      "inputId": 3,
      "color": "#c9b70e"
    },
    {
      "id": 121,
      "outputModuleId": 40,
      "outputId": 9,
      "inputModuleId": 22,
      "inputId": 0,
      "color": "#0986ad"
    },
    {
      "id": 122,
      "outputModuleId": 48,
      "outputId": 0,
      "inputModuleId": 49,
      "inputId": 10,
      "color": "#c9b70e"
    },
    {
      "id": 109,
      "outputModuleId": 45,
      "outputId": 0,
      "inputModuleId": 49,
      "inputId": 1,
      "color": "#c9b70e"
    },
    {
      "id": 123,
      "outputModuleId": 22,
      "outputId": 6,
      "inputModuleId": 48,
      "inputId": 0,
      "color": "#0c8e15"
    }
  ]
}