{
  "version": "1.1.5",
  "modules": [
    {
      "id": 121,
      "plugin": "AS",
      "version": "1.0.3",
      "model": "BPMCalc",
      "params": [
        {
          "id": 0,
          "value": 120.0
        }
      ],
      "leftModuleId": 128,
      "rightModuleId": 124,
      "pos": [
        6,
        0
      ]
    },
    {
      "id": 124,
      "plugin": "NYSTHI",
      "version": "1.0.5",
      "model": "mix16",
      "params": [
        {
          "id": 0,
          "value": 0.0
        },
        {
          "id": 1,
          "value": 0.0
        },
        {
          "id": 2,
          "value": 0.0
        },
        {
          "id": 3,
          "value": 0.0
        },
        {
          "id": 4,
          "value": 0.0
        },
        {
          "id": 5,
          "value": 0.0
        },
        {
          "id": 6,
          "value": 0.0
        },
        {
          "id": 7,
          "value": 0.0
        },
        {
          "id": 8,
          "value": 0.0
        },
        {
          "id": 9,
          "value": 0.0
        },
        {
          "id": 10,
          "value": 0.0
        },
        {
          "id": 11,
          "value": 0.0
        },
        {
          "id": 12,
          "value": 0.0
        },
        {
          "id": 13,
          "value": 0.0
        },
        {
          "id": 14,
          "value": 0.0
        },
        {
          "id": 15,
          "value": 0.0
        },
        {
          "id": 16,
          "value": 0.0
        },
        {
          "id": 17,
          "value": 0.0
        },
        {
          "id": 18,
          "value": 0.0
        },
        {
          "id": 19,
          "value": 0.0
        },
        {
          "id": 20,
          "value": 0.0
        },
        {
          "id": 21,
          "value": 0.0
        },
        {
          "id": 22,
          "value": 0.0
        },
        {
          "id": 23,
          "value": 0.0
        },
        {
          "id": 24,
          "value": 0.0
        },
        {
          "id": 25,
          "value": 0.0
        },
        {
          "id": 26,
          "value": 0.0
        },
        {
          "id": 27,
          "value": 0.0
        },
        {
          "id": 28,
          "value": 0.0
        },
        {
          "id": 29,
          "value": 0.0
        },
        {
          "id": 30,
          "value": 0.0
        },
        {
          "id": 31,
          "value": 0.0
        },
        {
          "id": 32,
          "value": 0.0
        },
        {
          "id": 33,
          "value": 0.0
        },
        {
          "id": 34,
          "value": 0.0
        },
        {
          "id": 35,
          "value": 0.0
        },
        {
          "id": 36,
          "value": 0.0
        },
        {
          "id": 37,
          "value": 0.0
        },
        {
          "id": 38,
          "value": 0.0
        },
        {
          "id": 39,
          "value": 0.0
        },
        {
          "id": 40,
          "value": 0.0
        },
        {
          "id": 41,
          "value": 0.0
        },
        {
          "id": 42,
          "value": 0.0
        },
        {
          "id": 43,
          "value": 0.0
        },
        {
          "id": 44,
          "value": 0.0
        },
        {
          "id": 45,
          "value": 0.0
        },
        {
          "id": 46,
          "value": 0.0
        },
        {
          "id": 47,
          "value": 0.0
        },
        {
          "id": 48,
          "value": 0.0
        },
        {
          "id": 49,
          "value": 0.0
        },
        {
          "id": 50,
          "value": 0.0
        },
        {
          "id": 51,
          "value": 0.0
        },
        {
          "id": 52,
          "value": 0.0
        },
        {
          "id": 53,
          "value": 0.0
        },
        {
          "id": 54,
          "value": 0.0
        },
        {
          "id": 55,
          "value": 0.0
        },
        {
          "id": 56,
          "value": 0.0
        },
        {
          "id": 57,
          "value": 0.0
        },
        {
          "id": 58,
          "value": 0.0
        },
        {
          "id": 59,
          "value": 0.0
        },
        {
          "id": 60,
          "value": 0.0
        },
        {
          "id": 61,
          "value": 0.0
        },
        {
          "id": 62,
          "value": 0.0
        },
        {
          "id": 63,
          "value": 0.0
        },
        {
          "id": 64,
          "value": 0.0
        },
        {
          "id": 65,
          "value": 0.0
        },
        {
          "id": 66,
          "value": 0.0
        },
        {
          "id": 67,
          "value": 0.0
        },
        {
          "id": 68,
          "value": 0.0
        },
        {
          "id": 69,
          "value": 0.0
        },
        {
          "id": 70,
          "value": 0.0
        },
        {
          "id": 71,
          "value": 0.0
        }
      ],
      "leftModuleId": 121,
      "rightModuleId": 125,
      "data": {
        "m_channels": [
          0.587968767,
          0.5,
          false,
          false,
          0.545976579,
          0.5,
          false,
          false,
          0.545937479,
          0.5,
          false,
          false,
          0.537460923,
          0.5,
          false,
          false,
          0.604726553,
          0.323437512,
          false,
          false,
          0.411406249,
          0.5,
          false,
          false,
          0.419804692,
          0.5,
          false,
          false,
          1.0,
          0.5,
          false,
          false,
          1.0,
          0.5,
          false,
          false,
          1.0,
          0.5,
          false,
          false,
          1.0,
          0.5,
          false,
          false,
          1.0,
          0.5,
          false,
          false,
          1.0,
          0.5,
          false,
          false,
          1.0,
          0.5,
          false,
          false,
          1.0,
          0.5,
          false,
          false,
          1.0,
          0.5,
          false,
          false
        ],
        "m_master_volume": 1.0,
        "m_master_mute_trig": false,
        "m_low_power": false,
        "m_cvcompatible": false,
        "m_show_post_out": false,
        "m_post_outputs_unaffected_by_solo_mode": false,
        "m_attenuation": 1.0,
        "m_limiting_mode": 0,
        "m_poly_out": 16
      },
      "pos": [
        26,
        0
      ]
    },
    {
      "id": 125,
      "plugin": "Core",
      "version": "1.1.5",
      "model": "AudioInterface",
      "params": [],
      "leftModuleId": 124,
      "data": {
        "audio": {
          "driver": 4,
          "deviceName": "system",
          "offset": 0,
          "maxChannels": 8,
          "sampleRate": 48000,
          "blockSize": 1024
        }
      },
      "pos": [
        50,
        0
      ]
    },
    {
      "id": 128,
      "plugin": "AS",
      "version": "1.0.3",
      "model": "BPMClock",
      "params": [
        {
          "id": 0,
          "value": 120.0
        },
        {
          "id": 1,
          "value": 1.0
        },
        {
          "id": 2,
          "value": 2.0
        },
        {
          "id": 3,
          "value": 1.0
        },
        {
          "id": 4,
          "value": 0.0
        },
        {
          "id": 5,
          "value": 0.0
        }
      ],
      "rightModuleId": 121,
      "data": {
        "run": [
          1
        ]
      },
      "pos": [
        0,
        0
      ]
    },
    {
      "id": 130,
      "plugin": "Bogaudio",
      "version": "1.1.22",
      "model": "Bogaudio-FMOp",
      "params": [
        {
          "id": 0,
          "value": -0.341999888
        },
        {
          "id": 1,
          "value": 0.0
        },
        {
          "id": 2,
          "value": 0.0839999616
        },
        {
          "id": 3,
          "value": 1.0
        },
        {
          "id": 4,
          "value": 0.0
        },
        {
          "id": 5,
          "value": 0.073499918
        },
        {
          "id": 6,
          "value": 0.0
        },
        {
          "id": 7,
          "value": 0.132000029
        },
        {
          "id": 8,
          "value": 1.0
        },
        {
          "id": 9,
          "value": 1.0
        },
        {
          "id": 10,
          "value": 0.0
        },
        {
          "id": 11,
          "value": 0.0
        }
      ],
      "leftModuleId": 140,
      "rightModuleId": 136,
      "data": {
        "linearLevel": false
      },
      "pos": [
        28,
        1
      ]
    },
    {
      "id": 136,
      "plugin": "AlrightDevices",
      "version": "1.0.1",
      "model": "Chronoblob2",
      "params": [
        {
          "id": 0,
          "value": 0.636499703
        },
        {
          "id": 1,
          "value": 0.362000346
        },
        {
          "id": 2,
          "value": 0.5
        },
        {
          "id": 3,
          "value": 0.0
        },
        {
          "id": 4,
          "value": 1.0
        },
        {
          "id": 5,
          "value": 1.0
        },
        {
          "id": 6,
          "value": 0.0
        },
        {
          "id": 7,
          "value": 0.0
        },
        {
          "id": 8,
          "value": 1.0
        },
        {
          "id": 9,
          "value": 0.0
        }
      ],
      "leftModuleId": 130,
      "rightModuleId": 144,
      "data": {
        "delay_mode": 0,
        "hold_behavior": 0,
        "sync_prescaler": 6
      },
      "pos": [
        38,
        1
      ]
    },
    {
      "id": 137,
      "plugin": "Fundamental",
      "version": "1.2.1",
      "model": "SEQ3",
      "params": [
        {
          "id": 0,
          "value": 2.0
        },
        {
          "id": 1,
          "value": 0.0
        },
        {
          "id": 2,
          "value": 0.0
        },
        {
          "id": 3,
          "value": 8.0
        },
        {
          "id": 4,
          "value": 0.705000043
        },
        {
          "id": 5,
          "value": 0.75
        },
        {
          "id": 6,
          "value": 0.960000396
        },
        {
          "id": 7,
          "value": 0.0
        },
        {
          "id": 8,
          "value": 0.929999948
        },
        {
          "id": 9,
          "value": 0.0
        },
        {
          "id": 10,
          "value": 2.8050015
        },
        {
          "id": 11,
          "value": 0.0
        },
        {
          "id": 12,
          "value": 0.840000272
        },
        {
          "id": 13,
          "value": 0.0
        },
        {
          "id": 14,
          "value": 0.0
        },
        {
          "id": 15,
          "value": 0.0
        },
        {
          "id": 16,
          "value": 0.0
        },
        {
          "id": 17,
          "value": 0.0
        },
        {
          "id": 18,
          "value": 0.0
        },
        {
          "id": 19,
          "value": 0.0
        },
        {
          "id": 20,
          "value": 1.57499993
        },
        {
          "id": 21,
          "value": 2.6099999
        },
        {
          "id": 22,
          "value": 0.0
        },
        {
          "id": 23,
          "value": 0.0
        },
        {
          "id": 24,
          "value": 0.0
        },
        {
          "id": 25,
          "value": 0.0
        },
        {
          "id": 26,
          "value": 0.899999797
        },
        {
          "id": 27,
          "value": 2.99999952
        },
        {
          "id": 28,
          "value": 0.0
        },
        {
          "id": 29,
          "value": 0.0
        },
        {
          "id": 30,
          "value": 0.0
        },
        {
          "id": 31,
          "value": 0.0
        },
        {
          "id": 32,
          "value": 0.0
        },
        {
          "id": 33,
          "value": 0.0
        },
        {
          "id": 34,
          "value": 0.0
        },
        {
          "id": 35,
          "value": 0.0
        }
      ],
      "rightModuleId": 143,
      "data": {
        "running": true,
        "gates": [
          0,
          1,
          1,
          1,
          1,
          0,
          1,
          1
        ]
      },
      "pos": [
        0,
        1
      ]
    },
    {
      "id": 140,
      "plugin": "Bogaudio",
      "version": "1.1.22",
      "model": "Bogaudio-UMix",
      "params": [
        {
          "id": 0,
          "value": 0.586000621
        }
      ],
      "leftModuleId": 143,
      "rightModuleId": 130,
      "data": {
        "sum": true,
        "cv_mode": false
      },
      "pos": [
        25,
        1
      ]
    },
    {
      "id": 143,
      "plugin": "Bogaudio",
      "version": "1.1.22",
      "model": "Bogaudio-LLFO",
      "params": [
        {
          "id": 0,
          "value": -2.54299951
        },
        {
          "id": 1,
          "value": 1.0
        },
        {
          "id": 2,
          "value": 0.0
        },
        {
          "id": 3,
          "value": -0.480999798
        },
        {
          "id": 4,
          "value": 0.760000229
        }
      ],
      "leftModuleId": 137,
      "rightModuleId": 140,
      "pos": [
        22,
        1
      ]
    },
    {
      "id": 144,
      "plugin": "AS",
      "version": "1.0.3",
      "model": "SignalDelay",
      "params": [
        {
          "id": 0,
          "value": 0.0
        },
        {
          "id": 1,
          "value": 0.0300000012
        },
        {
          "id": 2,
          "value": 1.0
        },
        {
          "id": 3,
          "value": 1.0
        }
      ],
      "leftModuleId": 136,
      "pos": [
        50,
        1
      ]
    }
  ],
  "cables": [
    {
      "id": 176,
      "outputModuleId": 124,
      "outputId": 0,
      "inputModuleId": 125,
      "inputId": 0,
      "color": "#c91847"
    },
    {
      "id": 177,
      "outputModuleId": 124,
      "outputId": 1,
      "inputModuleId": 125,
      "inputId": 1,
      "color": "#0986ad"
    },
    {
      "id": 212,
      "outputModuleId": 136,
      "outputId": 0,
      "inputModuleId": 124,
      "inputId": 0,
      "color": "#0986ad"
    },
    {
      "id": 214,
      "outputModuleId": 137,
      "outputId": 0,
      "inputModuleId": 130,
      "inputId": 5,
      "color": "#0c8e15"
    },
    {
      "id": 211,
      "outputModuleId": 130,
      "outputId": 0,
      "inputModuleId": 136,
      "inputId": 5,
      "color": "#c91847"
    },
    {
      "id": 213,
      "outputModuleId": 128,
      "outputId": 1,
      "inputModuleId": 137,
      "inputId": 1,
      "color": "#c9b70e"
    },
    {
      "id": 221,
      "outputModuleId": 128,
      "outputId": 1,
      "inputModuleId": 121,
      "inputId": 0,
      "color": "#c91847"
    },
    {
      "id": 224,
      "outputModuleId": 136,
      "outputId": 1,
      "inputModuleId": 124,
      "inputId": 1,
      "color": "#c91847"
    },
    {
      "id": 223,
      "outputModuleId": 128,
      "outputId": 1,
      "inputModuleId": 136,
      "inputId": 7,
      "color": "#0c8e15"
    },
    {
      "id": 230,
      "outputModuleId": 121,
      "outputId": 15,
      "inputModuleId": 136,
      "inputId": 1,
      "color": "#c9b70e"
    },
    {
      "id": 217,
      "outputModuleId": 137,
      "outputId": 1,
      "inputModuleId": 140,
      "inputId": 1,
      "color": "#c91847"
    },
    {
      "id": 236,
      "outputModuleId": 140,
      "outputId": 0,
      "inputModuleId": 130,
      "inputId": 4,
      "color": "#c91847"
    },
    {
      "id": 242,
      "outputModuleId": 144,
      "outputId": 2,
      "inputModuleId": 124,
      "inputId": 2,
      "color": "#c9b70e"
    },
    {
      "id": 243,
      "outputModuleId": 130,
      "outputId": 0,
      "inputModuleId": 144,
      "inputId": 2,
      "color": "#0c8e15"
    },
    {
      "id": 241,
      "outputModuleId": 121,
      "outputId": 9,
      "inputModuleId": 144,
      "inputId": 1,
      "color": "#0986ad"
    },
    {
      "id": 225,
      "outputModuleId": 121,
      "outputId": 8,
      "inputModuleId": 136,
      "inputId": 3,
      "color": "#0986ad"
    },
    {
      "id": 235,
      "outputModuleId": 143,
      "outputId": 0,
      "inputModuleId": 140,
      "inputId": 0,
      "color": "#0c8e15"
    },
    {
      "id": 238,
      "outputModuleId": 121,
      "outputId": 6,
      "inputModuleId": 144,
      "inputId": 0,
      "color": "#c9b70e"
    },
    {
      "id": 245,
      "outputModuleId": 144,
      "outputId": 3,
      "inputModuleId": 124,
      "inputId": 3,
      "color": "#0986ad"
    },
    {
      "id": 244,
      "outputModuleId": 130,
      "outputId": 0,
      "inputModuleId": 144,
      "inputId": 3,
      "color": "#c91847"
    }
  ]
}