{
  "version": "1.1.3",
  "modules": [
    {
      "id": 20,
      "plugin": "Core",
      "version": "1.1.3",
      "model": "AudioInterface",
      "params": [],
      "leftModuleId": 21,
      "data": {
        "audio": {
          "driver": 1,
          "deviceName": "hw:Scarlett 2i2 USB,0",
          "offset": 0,
          "maxChannels": 8,
          "sampleRate": 48000,
          "blockSize": 256
        }
      },
      "pos": [
        56,
        0
      ]
    },
    {
      "id": 21,
      "plugin": "Fundamental",
      "version": "1.2.0",
      "model": "VCMixer",
      "params": [
        {
          "id": 0,
          "value": 1.0
        },
        {
          "id": 1,
          "value": 1.0
        },
        {
          "id": 2,
          "value": 1.0
        },
        {
          "id": 3,
          "value": 1.0
        },
        {
          "id": 4,
          "value": 1.0
        }
      ],
      "leftModuleId": 49,
      "rightModuleId": 20,
      "pos": [
        46,
        0
      ]
    },
    {
      "id": 36,
      "plugin": "Bogaudio",
      "version": "1.1.21",
      "model": "Bogaudio-VCA",
      "params": [
        {
          "id": 0,
          "value": 0.687000155
        },
        {
          "id": 1,
          "value": 1.0
        },
        {
          "id": 2,
          "value": 1.0
        }
      ],
      "leftModuleId": 48,
      "rightModuleId": 49,
      "pos": [
        33,
        0
      ]
    },
    {
      "id": 37,
      "plugin": "Bogaudio",
      "version": "1.1.21",
      "model": "Bogaudio-VCO",
      "params": [
        {
          "id": 0,
          "value": -0.864001215
        },
        {
          "id": 1,
          "value": 0.0
        },
        {
          "id": 2,
          "value": 1.0
        },
        {
          "id": 3,
          "value": 0.0
        },
        {
          "id": 4,
          "value": 0.0
        },
        {
          "id": 5,
          "value": 1.0
        }
      ],
      "leftModuleId": 46,
      "rightModuleId": 45,
      "pos": [
        3,
        0
      ]
    },
    {
      "id": 45,
      "plugin": "Bogaudio",
      "version": "1.1.21",
      "model": "Bogaudio-VCO",
      "params": [
        {
          "id": 0,
          "value": 2.40299916
        },
        {
          "id": 1,
          "value": 0.0
        },
        {
          "id": 2,
          "value": 0.0
        },
        {
          "id": 3,
          "value": 0.0
        },
        {
          "id": 4,
          "value": 0.0
        },
        {
          "id": 5,
          "value": 1.0
        }
      ],
      "leftModuleId": 37,
      "rightModuleId": 48,
      "pos": [
        13,
        0
      ]
    },
    {
      "id": 46,
      "plugin": "Bogaudio",
      "version": "1.1.21",
      "model": "Bogaudio-LLFO",
      "params": [
        {
          "id": 0,
          "value": 4.66049671
        },
        {
          "id": 1,
          "value": 0.0
        },
        {
          "id": 2,
          "value": 0.0
        },
        {
          "id": 3,
          "value": 3.02679837e-8
        },
        {
          "id": 4,
          "value": 0.500500441
        }
      ],
      "rightModuleId": 37,
      "pos": [
        0,
        0
      ]
    },
    {
      "id": 48,
      "plugin": "LindenbergResearch",
      "version": "1.0.0",
      "model": "LPFilter24dB",
      "params": [
        {
          "id": 0,
          "value": 0.575501859
        },
        {
          "id": 1,
          "value": 0.0
        },
        {
          "id": 2,
          "value": 0.0
        },
        {
          "id": 3,
          "value": 0.0
        }
      ],
      "leftModuleId": 45,
      "rightModuleId": 36,
      "gestaltID": 1,
      "gradient": true,
      "patina": false,
      "patina_a_x": -1108.91235,
      "patina_a_y": -236.696228,
      "patina_b_x": -615.535889,
      "patina_b_y": -268.264984,
      "pos": [
        23,
        0
      ]
    },
    {
      "id": 49,
      "plugin": "Bogaudio",
      "version": "1.1.21",
      "model": "Bogaudio-Mute8",
      "params": [
        {
          "id": 0,
          "value": 1.0
        },
        {
          "id": 1,
          "value": 0.0
        },
        {
          "id": 2,
          "value": 0.0
        },
        {
          "id": 3,
          "value": 0.0
        },
        {
          "id": 4,
          "value": 0.0
        },
        {
          "id": 5,
          "value": 0.0
        },
        {
          "id": 6,
          "value": 0.0
        },
        {
          "id": 7,
          "value": 0.0
        }
      ],
      "leftModuleId": 36,
      "rightModuleId": 21,
      "pos": [
        36,
        0
      ]
    }
  ],
  "cables": [
    {
      "id": 67,
      "outputModuleId": 21,
      "outputId": 0,
      "inputModuleId": 20,
      "inputId": 0,
      "color": "#c91847"
    },
    {
      "id": 180,
      "outputModuleId": 46,
      "outputId": 0,
      "inputModuleId": 37,
      "inputId": 0,
      "color": "#c9b70e"
    },
    {
      "id": 182,
      "outputModuleId": 37,
      "outputId": 3,
      "inputModuleId": 45,
      "inputId": 0,
      "color": "#c91847"
    },
    {
      "id": 186,
      "outputModuleId": 45,
      "outputId": 3,
      "inputModuleId": 48,
      "inputId": 0,
      "color": "#c91847"
    },
    {
      "id": 187,
      "outputModuleId": 48,
      "outputId": 0,
      "inputModuleId": 36,
      "inputId": 1,
      "color": "#0986ad"
    },
    {
      "id": 188,
      "outputModuleId": 36,
      "outputId": 0,
      "inputModuleId": 49,
      "inputId": 0,
      "color": "#c9b70e"
    },
    {
      "id": 189,
      "outputModuleId": 49,
      "outputId": 0,
      "inputModuleId": 21,
      "inputId": 2,
      "color": "#0c8e15"
    }
  ]
}