{
  "version": "1.1.4",
  "modules": [
    {
      "id": 0,
      "plugin": "Core",
      "version": "1.1.4",
      "model": "AudioInterface",
      "params": [],
      "leftModuleId": 1,
      "data": {
        "audio": {
          "driver": 1,
          "deviceName": "hw:Scarlett 2i2 USB,0",
          "offset": 0,
          "maxChannels": 8,
          "sampleRate": 44100,
          "blockSize": 256
        }
      },
      "pos": [
        38,
        1
      ]
    },
    {
      "id": 1,
      "plugin": "Fundamental",
      "version": "1.2.1",
      "model": "VCMixer",
      "params": [
        {
          "id": 0,
          "value": 1.0
        },
        {
          "id": 1,
          "value": 1.0
        },
        {
          "id": 2,
          "value": 1.0
        },
        {
          "id": 3,
          "value": 1.0
        },
        {
          "id": 4,
          "value": 1.0
        }
      ],
      "rightModuleId": 0,
      "pos": [
        28,
        1
      ]
    },
    {
      "id": 2,
      "plugin": "Fundamental",
      "version": "1.2.1",
      "model": "VCO",
      "params": [
        {
          "id": 0,
          "value": 1.0
        },
        {
          "id": 1,
          "value": 1.0
        },
        {
          "id": 2,
          "value": -43.955986
        },
        {
          "id": 3,
          "value": 0.0
        },
        {
          "id": 4,
          "value": 0.0
        },
        {
          "id": 5,
          "value": 0.554389775
        },
        {
          "id": 6,
          "value": 0.0
        }
      ],
      "rightModuleId": 5,
      "pos": [
        0,
        0
      ]
    },
    {
      "id": 4,
      "plugin": "Fundamental",
      "version": "1.2.1",
      "model": "ADSR",
      "params": [
        {
          "id": 0,
          "value": 0.0914999992
        },
        {
          "id": 1,
          "value": 0.664999902
        },
        {
          "id": 2,
          "value": 0.655999959
        },
        {
          "id": 3,
          "value": 0.659000158
        }
      ],
      "leftModuleId": 5,
      "rightModuleId": 6,
      "pos": [
        13,
        0
      ]
    },
    {
      "id": 5,
      "plugin": "Fundamental",
      "version": "1.2.1",
      "model": "VCA-1",
      "params": [
        {
          "id": 0,
          "value": 0.661000133
        },
        {
          "id": 1,
          "value": 1.0
        }
      ],
      "leftModuleId": 2,
      "rightModuleId": 4,
      "pos": [
        10,
        0
      ]
    },
    {
      "id": 6,
      "plugin": "Fundamental",
      "version": "1.2.1",
      "model": "SEQ3",
      "params": [
        {
          "id": 0,
          "value": 2.0
        },
        {
          "id": 1,
          "value": 0.0
        },
        {
          "id": 2,
          "value": 0.0
        },
        {
          "id": 3,
          "value": 8.0
        },
        {
          "id": 4,
          "value": 2.58000374
        },
        {
          "id": 5,
          "value": 2.88000059
        },
        {
          "id": 6,
          "value": 3.03000069
        },
        {
          "id": 7,
          "value": 3.3599999
        },
        {
          "id": 8,
          "value": 3.19499898
        },
        {
          "id": 9,
          "value": 3.34499979
        },
        {
          "id": 10,
          "value": 3.10500026
        },
        {
          "id": 11,
          "value": 3.08999872
        },
        {
          "id": 12,
          "value": 0.0
        },
        {
          "id": 13,
          "value": 0.0
        },
        {
          "id": 14,
          "value": 0.0
        },
        {
          "id": 15,
          "value": 0.0
        },
        {
          "id": 16,
          "value": 0.0
        },
        {
          "id": 17,
          "value": 0.0
        },
        {
          "id": 18,
          "value": 0.0
        },
        {
          "id": 19,
          "value": 0.0
        },
        {
          "id": 20,
          "value": 0.0
        },
        {
          "id": 21,
          "value": 0.0
        },
        {
          "id": 22,
          "value": 0.0
        },
        {
          "id": 23,
          "value": 0.0
        },
        {
          "id": 24,
          "value": 0.0
        },
        {
          "id": 25,
          "value": 0.0
        },
        {
          "id": 26,
          "value": 0.0
        },
        {
          "id": 27,
          "value": 0.0
        },
        {
          "id": 28,
          "value": 0.0
        },
        {
          "id": 29,
          "value": 0.0
        },
        {
          "id": 30,
          "value": 0.0
        },
        {
          "id": 31,
          "value": 0.0
        },
        {
          "id": 32,
          "value": 0.0
        },
        {
          "id": 33,
          "value": 0.0
        },
        {
          "id": 34,
          "value": 0.0
        },
        {
          "id": 35,
          "value": 0.0
        }
      ],
      "leftModuleId": 4,
      "data": {
        "running": true,
        "gates": [
          1,
          1,
          1,
          1,
          1,
          1,
          1,
          1
        ]
      },
      "pos": [
        21,
        0
      ]
    }
  ],
  "cables": [
    {
      "id": 0,
      "outputModuleId": 1,
      "outputId": 1,
      "inputModuleId": 0,
      "inputId": 0,
      "color": "#c91847"
    },
    {
      "id": 10,
      "outputModuleId": 6,
      "outputId": 0,
      "inputModuleId": 4,
      "inputId": 4,
      "color": "#c91847"
    },
    {
      "id": 11,
      "outputModuleId": 4,
      "outputId": 0,
      "inputModuleId": 5,
      "inputId": 0,
      "color": "#0986ad"
    },
    {
      "id": 14,
      "outputModuleId": 6,
      "outputId": 1,
      "inputModuleId": 2,
      "inputId": 0,
      "color": "#0986ad"
    },
    {
      "id": 15,
      "outputModuleId": 2,
      "outputId": 0,
      "inputModuleId": 5,
      "inputId": 1,
      "color": "#c9b70e"
    },
    {
      "id": 47,
      "outputModuleId": 5,
      "outputId": 0,
      "inputModuleId": 1,
      "inputId": 1,
      "color": "#0986ad"
    },
    {
      "id": 48,
      "outputModuleId": 5,
      "outputId": 0,
      "inputModuleId": 1,
      "inputId": 2,
      "color": "#c9b70e"
    }
  ]
}