{
  "version": "1.1.3",
  "modules": [
    {
      "id": 72,
      "plugin": "VultModulesFree",
      "version": "1.2.0",
      "model": "Basal",
      "params": [
        {
          "id": 0,
          "value": 0.0
        },
        {
          "id": 1,
          "value": 0.234000072
        },
        {
          "id": 2,
          "value": 0.448500246
        },
        {
          "id": 3,
          "value": 0.0
        },
        {
          "id": 4,
          "value": 0.0
        },
        {
          "id": 5,
          "value": 0.0
        }
      ],
      "leftModuleId": 93,
      "rightModuleId": 79,
      "pos": [
        11,
        0
      ]
    },
    {
      "id": 74,
      "plugin": "VultModulesFree",
      "version": "1.2.0",
      "model": "Slap",
      "params": [
        {
          "id": 0,
          "value": 0.151500046
        },
        {
          "id": 1,
          "value": 0.241999894
        },
        {
          "id": 2,
          "value": 0.840499878
        },
        {
          "id": 3,
          "value": 0.370999664
        },
        {
          "id": 4,
          "value": 0.0
        },
        {
          "id": 5,
          "value": 0.0
        },
        {
          "id": 6,
          "value": 0.0
        },
        {
          "id": 7,
          "value": 0.0
        },
        {
          "id": 8,
          "value": 0.0
        }
      ],
      "leftModuleId": 79,
      "rightModuleId": 21,
      "pos": [
        27,
        0
      ]
    },
    {
      "id": 75,
      "plugin": "Fundamental",
      "version": "1.2.0",
      "model": "Sum",
      "params": [
        {
          "id": 0,
          "value": 0.503500283
        }
      ],
      "leftModuleId": 21,
      "rightModuleId": 76,
      "pos": [
        47,
        0
      ]
    },
    {
      "id": 76,
      "plugin": "Valley",
      "version": "1.0.1",
      "model": "Plateau",
      "params": [
        {
          "id": 0,
          "value": 1.0
        },
        {
          "id": 1,
          "value": 0.5
        },
        {
          "id": 2,
          "value": 0.0
        },
        {
          "id": 3,
          "value": 10.0
        },
        {
          "id": 4,
          "value": 10.0
        },
        {
          "id": 5,
          "value": 0.5
        },
        {
          "id": 6,
          "value": 10.0
        },
        {
          "id": 7,
          "value": 0.549950004
        },
        {
          "id": 8,
          "value": 10.0
        },
        {
          "id": 9,
          "value": 10.0
        },
        {
          "id": 10,
          "value": 0.0
        },
        {
          "id": 11,
          "value": 0.5
        },
        {
          "id": 12,
          "value": 0.5
        },
        {
          "id": 13,
          "value": 0.0
        },
        {
          "id": 14,
          "value": 0.0
        },
        {
          "id": 15,
          "value": 0.0
        },
        {
          "id": 16,
          "value": 0.0
        },
        {
          "id": 17,
          "value": 0.0
        },
        {
          "id": 18,
          "value": 0.0
        },
        {
          "id": 19,
          "value": 0.0
        },
        {
          "id": 20,
          "value": 0.0
        },
        {
          "id": 21,
          "value": 0.0
        },
        {
          "id": 22,
          "value": 0.0
        },
        {
          "id": 23,
          "value": 0.0
        },
        {
          "id": 24,
          "value": 0.0
        },
        {
          "id": 25,
          "value": 0.0
        },
        {
          "id": 26,
          "value": 0.0
        },
        {
          "id": 27,
          "value": 0.0
        },
        {
          "id": 28,
          "value": 0.0
        },
        {
          "id": 29,
          "value": 0.0
        },
        {
          "id": 30,
          "value": 1.0
        }
      ],
      "leftModuleId": 75,
      "rightModuleId": 81,
      "data": {
        "frozen": false,
        "freezeToggle": false,
        "panelStyle": 0,
        "tuned": 0,
        "diffuseInput": 1,
        "preDelayCVSens": 0,
        "inputSensitivity": 0,
        "outputSaturation": 0
      },
      "pos": [
        50,
        0
      ]
    },
    {
      "id": 79,
      "plugin": "VultModulesFree",
      "version": "1.2.0",
      "model": "Stabile",
      "params": [
        {
          "id": 0,
          "value": 0.0989999548
        },
        {
          "id": 1,
          "value": 0.942000091
        },
        {
          "id": 2,
          "value": 0.507999897
        },
        {
          "id": 3,
          "value": 0.0
        },
        {
          "id": 4,
          "value": 0.5
        },
        {
          "id": 5,
          "value": 0.0
        }
      ],
      "leftModuleId": 72,
      "rightModuleId": 74,
      "pos": [
        17,
        0
      ]
    },
    {
      "id": 81,
      "plugin": "Core",
      "version": "1.1.3",
      "model": "Notes",
      "params": [],
      "leftModuleId": 76,
      "text": "Omri Cohen\n\nPolyphony in VCV Rack 1.0\n\nhttps://www.youtube.com/watch?v=WXUJWA8RzZI\n\npart 1 until minute 7:00\n\n4 polyphonic voices summed into a mono channel into Plateau\n",
      "pos": [
        62,
        0
      ]
    },
    {
      "id": 21,
      "plugin": "Fundamental",
      "version": "1.2.0",
      "model": "VCMixer",
      "params": [
        {
          "id": 0,
          "value": 0.387999862
        },
        {
          "id": 1,
          "value": 1.0
        },
        {
          "id": 2,
          "value": 1.0
        },
        {
          "id": 3,
          "value": 1.0
        },
        {
          "id": 4,
          "value": 1.0
        }
      ],
      "leftModuleId": 74,
      "rightModuleId": 75,
      "pos": [
        37,
        0
      ]
    },
    {
      "id": 92,
      "plugin": "Fundamental",
      "version": "1.2.0",
      "model": "Viz",
      "params": [],
      "rightModuleId": 93,
      "pos": [
        0,
        0
      ]
    },
    {
      "id": 93,
      "plugin": "Core",
      "version": "1.1.3",
      "model": "MIDIToCVInterface",
      "params": [],
      "leftModuleId": 92,
      "rightModuleId": 72,
      "data": {
        "channels": 4,
        "polyMode": 0,
        "clockDivision": 24,
        "lastPitch": 8192,
        "lastMod": 0,
        "midi": {
          "driver": 2,
          "channel": -1
        }
      },
      "pos": [
        3,
        0
      ]
    }
  ],
  "cables": [
    {
      "id": 12,
      "outputModuleId": 72,
      "outputId": 0,
      "inputModuleId": 79,
      "inputId": 0,
      "color": "#0c8e15"
    },
    {
      "id": 4,
      "outputModuleId": 74,
      "outputId": 1,
      "inputModuleId": 79,
      "inputId": 1,
      "color": "#0986ad"
    },
    {
      "id": 13,
      "outputModuleId": 79,
      "outputId": 0,
      "inputModuleId": 74,
      "inputId": 5,
      "color": "#0986ad"
    },
    {
      "id": 20,
      "outputModuleId": 75,
      "outputId": 0,
      "inputModuleId": 76,
      "inputId": 0,
      "color": "#0986ad"
    },
    {
      "id": 24,
      "outputModuleId": 21,
      "outputId": 0,
      "inputModuleId": 75,
      "inputId": 0,
      "color": "#0986ad"
    },
    {
      "id": 22,
      "outputModuleId": 74,
      "outputId": 0,
      "inputModuleId": 21,
      "inputId": 1,
      "color": "#0986ad"
    },
    {
      "id": 37,
      "outputModuleId": 93,
      "outputId": 0,
      "inputModuleId": 72,
      "inputId": 0,
      "color": "#c9b70e"
    },
    {
      "id": 39,
      "outputModuleId": 93,
      "outputId": 1,
      "inputModuleId": 92,
      "inputId": 0,
      "color": "#c91847"
    },
    {
      "id": 40,
      "outputModuleId": 93,
      "outputId": 1,
      "inputModuleId": 74,
      "inputId": 0,
      "color": "#0986ad"
    }
  ]
}