{
  "version": "1.1.3",
  "modules": [
    {
      "id": 0,
      "plugin": "Core",
      "version": "1.1.3",
      "model": "MIDIToCVInterface",
      "params": [],
      "rightModuleId": 6,
      "data": {
        "channels": 1,
        "polyMode": 0,
        "clockDivision": 24,
        "lastPitch": 8192,
        "lastMod": 0,
        "midi": {
          "driver": -11,
          "deviceName": "QWERTY keyboard (US)",
          "channel": -1
        }
      },
      "pos": [
        0,
        0
      ]
    },
    {
      "id": 1,
      "plugin": "Core",
      "version": "1.1.3",
      "model": "AudioInterface",
      "params": [],
      "leftModuleId": 3,
      "data": {
        "audio": {
          "driver": 1,
          "deviceName": "hw:Scarlett 2i2 USB,0",
          "offset": 0,
          "maxChannels": 8,
          "sampleRate": 48000,
          "blockSize": 256
        }
      },
      "pos": [
        108,
        0
      ]
    },
    {
      "id": 3,
      "plugin": "Fundamental",
      "version": "1.2.0",
      "model": "VCMixer",
      "params": [
        {
          "id": 0,
          "value": 1.0
        },
        {
          "id": 1,
          "value": 1.0
        },
        {
          "id": 2,
          "value": 1.0
        },
        {
          "id": 3,
          "value": 1.0
        },
        {
          "id": 4,
          "value": 1.0
        }
      ],
      "leftModuleId": 8,
      "rightModuleId": 1,
      "pos": [
        98,
        0
      ]
    },
    {
      "id": 5,
      "plugin": "Fundamental",
      "version": "1.2.0",
      "model": "VCA-1",
      "params": [
        {
          "id": 0,
          "value": 0.938499629
        },
        {
          "id": 1,
          "value": 1.0
        }
      ],
      "pos": [
        61,
        0
      ]
    },
    {
      "id": 6,
      "plugin": "Fundamental",
      "version": "1.2.0",
      "model": "VCO",
      "params": [
        {
          "id": 0,
          "value": 1.0
        },
        {
          "id": 1,
          "value": 1.0
        },
        {
          "id": 2,
          "value": -20.0880051
        },
        {
          "id": 3,
          "value": 0.0
        },
        {
          "id": 4,
          "value": 0.0
        },
        {
          "id": 5,
          "value": 0.5
        },
        {
          "id": 6,
          "value": 0.0
        }
      ],
      "leftModuleId": 0,
      "pos": [
        8,
        0
      ]
    },
    {
      "id": 7,
      "plugin": "Fundamental",
      "version": "1.2.0",
      "model": "ADSR",
      "params": [
        {
          "id": 0,
          "value": 0.5
        },
        {
          "id": 1,
          "value": 0.5
        },
        {
          "id": 2,
          "value": 0.5
        },
        {
          "id": 3,
          "value": 0.670999646
        }
      ],
      "pos": [
        50,
        0
      ]
    },
    {
      "id": 8,
      "plugin": "Fundamental",
      "version": "1.2.0",
      "model": "Scope",
      "params": [
        {
          "id": 0,
          "value": 0.0
        },
        {
          "id": 1,
          "value": 0.0
        },
        {
          "id": 2,
          "value": 0.0
        },
        {
          "id": 3,
          "value": 0.0
        },
        {
          "id": 4,
          "value": 16.0
        },
        {
          "id": 5,
          "value": 0.0
        },
        {
          "id": 6,
          "value": -0.120002925
        },
        {
          "id": 7,
          "value": 0.0
        }
      ],
      "rightModuleId": 3,
      "data": {
        "lissajous": 0,
        "external": 0
      },
      "pos": [
        85,
        0
      ]
    },
    {
      "id": 9,
      "plugin": "Fundamental",
      "version": "1.2.0",
      "model": "VCF",
      "params": [
        {
          "id": 0,
          "value": 0.622999668
        },
        {
          "id": 1,
          "value": 0.5
        },
        {
          "id": 2,
          "value": 0.13499999
        },
        {
          "id": 3,
          "value": 0.287999928
        },
        {
          "id": 4,
          "value": 0.0
        }
      ],
      "pos": [
        25,
        0
      ]
    },
    {
      "id": 11,
      "plugin": "Fundamental",
      "version": "1.2.0",
      "model": "LFO",
      "params": [
        {
          "id": 0,
          "value": 1.0
        },
        {
          "id": 1,
          "value": 1.0
        },
        {
          "id": 2,
          "value": 1.56699562
        },
        {
          "id": 3,
          "value": 0.0
        },
        {
          "id": 4,
          "value": 0.0
        },
        {
          "id": 5,
          "value": 0.586730719
        },
        {
          "id": 6,
          "value": 0.0
        }
      ],
      "pos": [
        37,
        0
      ]
    },
    {
      "id": 13,
      "plugin": "Fundamental",
      "version": "1.2.0",
      "model": "Delay",
      "params": [
        {
          "id": 0,
          "value": 0.5
        },
        {
          "id": 1,
          "value": 0.5
        },
        {
          "id": 2,
          "value": 0.5
        },
        {
          "id": 3,
          "value": 0.5
        }
      ],
      "pos": [
        69,
        0
      ]
    }
  ],
  "cables": [
    {
      "id": 0,
      "outputModuleId": 3,
      "outputId": 0,
      "inputModuleId": 1,
      "inputId": 0,
      "color": "#c9b70e"
    },
    {
      "id": 1,
      "outputModuleId": 0,
      "outputId": 0,
      "inputModuleId": 6,
      "inputId": 0,
      "color": "#c91847"
    },
    {
      "id": 3,
      "outputModuleId": 0,
      "outputId": 1,
      "inputModuleId": 7,
      "inputId": 4,
      "color": "#c9b70e"
    },
    {
      "id": 8,
      "outputModuleId": 7,
      "outputId": 0,
      "inputModuleId": 5,
      "inputId": 0,
      "color": "#c91847"
    },
    {
      "id": 9,
      "outputModuleId": 0,
      "outputId": 6,
      "inputModuleId": 7,
      "inputId": 5,
      "color": "#0986ad"
    },
    {
      "id": 25,
      "outputModuleId": 9,
      "outputId": 0,
      "inputModuleId": 5,
      "inputId": 1,
      "color": "#0986ad"
    },
    {
      "id": 5,
      "outputModuleId": 6,
      "outputId": 2,
      "inputModuleId": 9,
      "inputId": 3,
      "color": "#0986ad"
    },
    {
      "id": 27,
      "outputModuleId": 11,
      "outputId": 0,
      "inputModuleId": 9,
      "inputId": 0,
      "color": "#0c8e15"
    },
    {
      "id": 7,
      "outputModuleId": 5,
      "outputId": 0,
      "inputModuleId": 13,
      "inputId": 4,
      "color": "#0c8e15"
    },
    {
      "id": 29,
      "outputModuleId": 13,
      "outputId": 0,
      "inputModuleId": 3,
      "inputId": 1,
      "color": "#0c8e15"
    },
    {
      "id": 31,
      "outputModuleId": 5,
      "outputId": 0,
      "inputModuleId": 8,
      "inputId": 0,
      "color": "#0986ad"
    }
  ]
}