{
  "version": "1.1.6",
  "modules": [
    {
      "id": 20,
      "plugin": "Core",
      "version": "1.1.6",
      "model": "AudioInterface",
      "params": [],
      "leftModuleId": 21,
      "data": {
        "audio": {
          "driver": 4,
          "deviceName": "system",
          "offset": 0,
          "maxChannels": 8,
          "sampleRate": 44100,
          "blockSize": 2048
        }
      },
      "pos": [
        85,
        0
      ]
    },
    {
      "id": 21,
      "plugin": "Fundamental",
      "version": "1.4.0",
      "model": "VCMixer",
      "params": [
        {
          "id": 0,
          "value": 1.0
        },
        {
          "id": 1,
          "value": 1.0
        },
        {
          "id": 2,
          "value": 1.0
        },
        {
          "id": 3,
          "value": 1.0
        },
        {
          "id": 4,
          "value": 1.0
        }
      ],
      "leftModuleId": 92,
      "rightModuleId": 20,
      "pos": [
        75,
        0
      ]
    },
    {
      "id": 74,
      "plugin": "AnimatedCircuitsPreview",
      "version": "1.2.0",
      "model": "ACCosmic",
      "params": [
        {
          "id": 0,
          "value": 1.0
        },
        {
          "id": 1,
          "value": 1.0
        },
        {
          "id": 2,
          "value": 1.0
        },
        {
          "id": 3,
          "value": 1.0
        },
        {
          "id": 4,
          "value": 0.0245624594
        },
        {
          "id": 5,
          "value": 0.0
        },
        {
          "id": 6,
          "value": -2.0
        },
        {
          "id": 7,
          "value": -1.0
        },
        {
          "id": 8,
          "value": 0.0
        },
        {
          "id": 9,
          "value": 0.0
        },
        {
          "id": 10,
          "value": 2.82149959
        },
        {
          "id": 11,
          "value": -4.30649948
        },
        {
          "id": 12,
          "value": 0.386499941
        },
        {
          "id": 13,
          "value": 0.820999682
        },
        {
          "id": 14,
          "value": 0.702500105
        },
        {
          "id": 15,
          "value": 0.402500063
        },
        {
          "id": 16,
          "value": 0.367000103
        },
        {
          "id": 17,
          "value": 0.546000004
        },
        {
          "id": 18,
          "value": 0.390999913
        },
        {
          "id": 19,
          "value": 0.276000082
        },
        {
          "id": 20,
          "value": 0.0
        },
        {
          "id": 21,
          "value": 0.0
        },
        {
          "id": 22,
          "value": 0.0
        },
        {
          "id": 23,
          "value": 2.0
        },
        {
          "id": 24,
          "value": 1.0
        },
        {
          "id": 25,
          "value": 3.0
        },
        {
          "id": 26,
          "value": 0.0
        },
        {
          "id": 27,
          "value": 0.0
        }
      ],
      "rightModuleId": 77,
      "pos": [
        13,
        1
      ]
    },
    {
      "id": 77,
      "plugin": "Starling_Via",
      "version": "1.0.1",
      "model": "GATESEQ",
      "params": [
        {
          "id": 0,
          "value": 1470.60413
        },
        {
          "id": 1,
          "value": 2115.56982
        },
        {
          "id": 2,
          "value": 2803.52734
        },
        {
          "id": 3,
          "value": 5.0
        },
        {
          "id": 4,
          "value": -1.0
        },
        {
          "id": 5,
          "value": 1.0
        },
        {
          "id": 6,
          "value": 1.0
        },
        {
          "id": 7,
          "value": 0.0
        },
        {
          "id": 8,
          "value": 0.0
        },
        {
          "id": 9,
          "value": 0.0
        },
        {
          "id": 10,
          "value": 0.0
        },
        {
          "id": 11,
          "value": 0.0
        },
        {
          "id": 12,
          "value": 0.0
        },
        {
          "id": 13,
          "value": 0.0
        }
      ],
      "leftModuleId": 74,
      "rightModuleId": 82,
      "data": {
        "gateseq_modes": 8208,
        "logic_mode": 0
      },
      "pos": [
        25,
        1
      ]
    },
    {
      "id": 78,
      "plugin": "Bogaudio",
      "version": "1.1.31",
      "model": "Bogaudio-LFO",
      "params": [
        {
          "id": 0,
          "value": 2.04140735
        },
        {
          "id": 1,
          "value": 0.0
        },
        {
          "id": 2,
          "value": 0.0
        },
        {
          "id": 3,
          "value": 0.0
        },
        {
          "id": 4,
          "value": 0.0
        },
        {
          "id": 5,
          "value": 1.0
        }
      ],
      "pos": [
        0,
        1
      ]
    },
    {
      "id": 79,
      "plugin": "AS",
      "version": "1.0.4",
      "model": "Mixer8ch",
      "params": [
        {
          "id": 0,
          "value": 1.0
        },
        {
          "id": 1,
          "value": 0.627000153
        },
        {
          "id": 2,
          "value": 0.626000941
        },
        {
          "id": 3,
          "value": 0.61400032
        },
        {
          "id": 4,
          "value": 0.61400038
        },
        {
          "id": 5,
          "value": 0.623000085
        },
        {
          "id": 6,
          "value": 0.632000387
        },
        {
          "id": 7,
          "value": 0.650000393
        },
        {
          "id": 8,
          "value": 0.800000012
        },
        {
          "id": 9,
          "value": 0.0
        },
        {
          "id": 10,
          "value": 0.0
        },
        {
          "id": 11,
          "value": 0.0
        },
        {
          "id": 12,
          "value": 0.0
        },
        {
          "id": 13,
          "value": 0.0
        },
        {
          "id": 14,
          "value": 0.0
        },
        {
          "id": 15,
          "value": 0.0
        },
        {
          "id": 16,
          "value": 0.0
        },
        {
          "id": 17,
          "value": 0.0
        },
        {
          "id": 18,
          "value": 0.0
        },
        {
          "id": 19,
          "value": 0.0
        },
        {
          "id": 20,
          "value": 0.0
        },
        {
          "id": 21,
          "value": 0.0
        },
        {
          "id": 22,
          "value": 0.0
        },
        {
          "id": 23,
          "value": 0.0
        },
        {
          "id": 24,
          "value": 0.0
        },
        {
          "id": 25,
          "value": 0.0
        }
      ],
      "leftModuleId": 87,
      "rightModuleId": 92,
      "data": {
        "as_MixerMutes": [
          0,
          0,
          0,
          0,
          0,
          0,
          0,
          0,
          0
        ]
      },
      "pos": [
        43,
        0
      ]
    },
    {
      "id": 81,
      "plugin": "Fundamental",
      "version": "1.4.0",
      "model": "Scope",
      "params": [
        {
          "id": 0,
          "value": 0.0
        },
        {
          "id": 1,
          "value": 0.0
        },
        {
          "id": 2,
          "value": 0.0
        },
        {
          "id": 3,
          "value": 0.0
        },
        {
          "id": 4,
          "value": 8.32499409
        },
        {
          "id": 5,
          "value": 0.0
        },
        {
          "id": 6,
          "value": 0.0
        },
        {
          "id": 7,
          "value": 0.0
        }
      ],
      "leftModuleId": 82,
      "data": {
        "lissajous": 0,
        "external": 0
      },
      "pos": [
        49,
        1
      ]
    },
    {
      "id": 82,
      "plugin": "Starling_Via",
      "version": "1.0.1",
      "model": "GATESEQ",
      "params": [
        {
          "id": 0,
          "value": 2502.54297
        },
        {
          "id": 1,
          "value": 2048.0
        },
        {
          "id": 2,
          "value": 3020.06104
        },
        {
          "id": 3,
          "value": 0.00874947011
        },
        {
          "id": 4,
          "value": 1.0
        },
        {
          "id": 5,
          "value": 1.0
        },
        {
          "id": 6,
          "value": 1.0
        },
        {
          "id": 7,
          "value": 0.0
        },
        {
          "id": 8,
          "value": 0.0
        },
        {
          "id": 9,
          "value": 0.0
        },
        {
          "id": 10,
          "value": 0.0
        },
        {
          "id": 11,
          "value": 0.0
        },
        {
          "id": 12,
          "value": 0.0
        },
        {
          "id": 13,
          "value": 0.0
        }
      ],
      "leftModuleId": 77,
      "rightModuleId": 81,
      "data": {
        "gateseq_modes": 8208,
        "logic_mode": 0
      },
      "pos": [
        37,
        1
      ]
    },
    {
      "id": 83,
      "plugin": "AudibleInstruments",
      "version": "1.3.1",
      "model": "Stages",
      "params": [
        {
          "id": 0,
          "value": 0.5
        },
        {
          "id": 1,
          "value": 0.5
        },
        {
          "id": 2,
          "value": 0.5
        },
        {
          "id": 3,
          "value": 0.5
        },
        {
          "id": 4,
          "value": 0.5
        },
        {
          "id": 5,
          "value": 0.5
        },
        {
          "id": 6,
          "value": 0.0
        },
        {
          "id": 7,
          "value": 0.0
        },
        {
          "id": 8,
          "value": 0.0
        },
        {
          "id": 9,
          "value": 0.0
        },
        {
          "id": 10,
          "value": 0.0
        },
        {
          "id": 11,
          "value": 0.0
        },
        {
          "id": 12,
          "value": 0.104999863
        },
        {
          "id": 13,
          "value": 0.0389998928
        },
        {
          "id": 14,
          "value": 0.0500000641
        },
        {
          "id": 15,
          "value": 0.0650000572
        },
        {
          "id": 16,
          "value": 0.0799999833
        },
        {
          "id": 17,
          "value": 0.083000198
        }
      ],
      "data": {
        "configurations": [
          {
            "type": 0,
            "loop": true
          },
          {
            "type": 0,
            "loop": true
          },
          {
            "type": 0,
            "loop": true
          },
          {
            "type": 0,
            "loop": true
          },
          {
            "type": 0,
            "loop": true
          },
          {
            "type": 0,
            "loop": true
          }
        ]
      },
      "pos": [
        6,
        0
      ]
    },
    {
      "id": 84,
      "plugin": "Bogaudio",
      "version": "1.1.31",
      "model": "Bogaudio-FMOp",
      "params": [
        {
          "id": 0,
          "value": 0.0
        },
        {
          "id": 1,
          "value": 0.0
        },
        {
          "id": 2,
          "value": 0.0539999902
        },
        {
          "id": 3,
          "value": 0.316229999
        },
        {
          "id": 4,
          "value": 0.00899998378
        },
        {
          "id": 5,
          "value": 0.316229999
        },
        {
          "id": 6,
          "value": 0.0
        },
        {
          "id": 7,
          "value": 0.37950024
        },
        {
          "id": 8,
          "value": 1.0
        },
        {
          "id": 9,
          "value": 1.0
        },
        {
          "id": 10,
          "value": 0.0
        },
        {
          "id": 11,
          "value": 0.0
        }
      ],
      "rightModuleId": 85,
      "data": {
        "linearLevel": false
      },
      "pos": [
        63,
        1
      ]
    },
    {
      "id": 85,
      "plugin": "Bogaudio",
      "version": "1.1.31",
      "model": "Bogaudio-FMOp",
      "params": [
        {
          "id": 0,
          "value": 0.0279375035
        },
        {
          "id": 1,
          "value": 0.0
        },
        {
          "id": 2,
          "value": 0.0434999838
        },
        {
          "id": 3,
          "value": 0.316229999
        },
        {
          "id": 4,
          "value": 0.0
        },
        {
          "id": 5,
          "value": 0.316229999
        },
        {
          "id": 6,
          "value": 0.0
        },
        {
          "id": 7,
          "value": 0.331499964
        },
        {
          "id": 8,
          "value": 1.0
        },
        {
          "id": 9,
          "value": 1.0
        },
        {
          "id": 10,
          "value": 0.0
        },
        {
          "id": 11,
          "value": 0.0
        }
      ],
      "leftModuleId": 84,
      "rightModuleId": 86,
      "data": {
        "linearLevel": false
      },
      "pos": [
        73,
        1
      ]
    },
    {
      "id": 86,
      "plugin": "Bogaudio",
      "version": "1.1.31",
      "model": "Bogaudio-FMOp",
      "params": [
        {
          "id": 0,
          "value": 0.0543750264
        },
        {
          "id": 1,
          "value": 0.0
        },
        {
          "id": 2,
          "value": 0.0734999925
        },
        {
          "id": 3,
          "value": 0.316229999
        },
        {
          "id": 4,
          "value": 0.0
        },
        {
          "id": 5,
          "value": 0.316229999
        },
        {
          "id": 6,
          "value": 0.0
        },
        {
          "id": 7,
          "value": 0.274500012
        },
        {
          "id": 8,
          "value": 1.0
        },
        {
          "id": 9,
          "value": 1.0
        },
        {
          "id": 10,
          "value": 0.0
        },
        {
          "id": 11,
          "value": 0.0
        }
      ],
      "leftModuleId": 85,
      "data": {
        "linearLevel": false
      },
      "pos": [
        83,
        1
      ]
    },
    {
      "id": 87,
      "plugin": "Core",
      "version": "1.1.6",
      "model": "Notes",
      "params": [],
      "rightModuleId": 79,
      "text": "Omri Cohen \n\nStarling GateSeq\n\nPatch 2\n\n\nperformance hints:\n\nThis beast is played with the LFO:\n- OFF\n- SCL\n- PW and\naccelerate LFO 9 -> 10 \n",
      "pos": [
        27,
        0
      ]
    },
    {
      "id": 88,
      "plugin": "Starling_Via",
      "version": "1.0.1",
      "model": "GATESEQ",
      "params": [
        {
          "id": 0,
          "value": 2048.0
        },
        {
          "id": 1,
          "value": 2048.0
        },
        {
          "id": 2,
          "value": 2872.64355
        },
        {
          "id": 3,
          "value": -1.14999914
        },
        {
          "id": 4,
          "value": 0.174999997
        },
        {
          "id": 5,
          "value": 1.0
        },
        {
          "id": 6,
          "value": 1.0
        },
        {
          "id": 7,
          "value": 0.0
        },
        {
          "id": 8,
          "value": 0.0
        },
        {
          "id": 9,
          "value": 0.0
        },
        {
          "id": 10,
          "value": 0.0
        },
        {
          "id": 11,
          "value": 0.0
        },
        {
          "id": 12,
          "value": 0.0
        },
        {
          "id": 13,
          "value": 0.0
        }
      ],
      "rightModuleId": 89,
      "data": {
        "gateseq_modes": 1024,
        "logic_mode": 0
      },
      "pos": [
        25,
        2
      ]
    },
    {
      "id": 89,
      "plugin": "Fundamental",
      "version": "1.4.0",
      "model": "Scope",
      "params": [
        {
          "id": 0,
          "value": 0.0
        },
        {
          "id": 1,
          "value": 0.0
        },
        {
          "id": 2,
          "value": 0.0
        },
        {
          "id": 3,
          "value": 0.0
        },
        {
          "id": 4,
          "value": 6.0
        },
        {
          "id": 5,
          "value": 0.0
        },
        {
          "id": 6,
          "value": 0.0
        },
        {
          "id": 7,
          "value": 0.0
        }
      ],
      "leftModuleId": 88,
      "data": {
        "lissajous": 0,
        "external": 0
      },
      "pos": [
        37,
        2
      ]
    },
    {
      "id": 90,
      "plugin": "Blamsoft-XFXWave",
      "version": "1.0.1",
      "model": "Blamsoft-XFXWave",
      "params": [
        {
          "id": 0,
          "value": 0.612000346
        },
        {
          "id": 1,
          "value": 0.168000013
        },
        {
          "id": 2,
          "value": 3.0
        },
        {
          "id": 3,
          "value": 0.321499765
        },
        {
          "id": 4,
          "value": 1.0
        },
        {
          "id": 5,
          "value": 0.0
        },
        {
          "id": 6,
          "value": 0.0
        },
        {
          "id": 7,
          "value": 0.5
        },
        {
          "id": 8,
          "value": 0.699999988
        },
        {
          "id": 9,
          "value": 0.0
        },
        {
          "id": 10,
          "value": 0.0
        },
        {
          "id": 11,
          "value": 0.0
        },
        {
          "id": 12,
          "value": 0.291000068
        },
        {
          "id": 13,
          "value": 0.0
        },
        {
          "id": 14,
          "value": 0.0
        },
        {
          "id": 15,
          "value": 0.0
        },
        {
          "id": 16,
          "value": 0.0
        },
        {
          "id": 17,
          "value": 0.0
        },
        {
          "id": 18,
          "value": 0.0
        },
        {
          "id": 19,
          "value": 0.7099998
        },
        {
          "id": 20,
          "value": 0.5
        },
        {
          "id": 21,
          "value": 0.5
        },
        {
          "id": 22,
          "value": 0.5
        }
      ],
      "leftModuleId": 91,
      "data": {
        "wavetable": 0,
        "mod1_mode": 2,
        "mod2_mode": 0,
        "mod3_mode": 0,
        "magnitude_0": 1.0,
        "phase_0": 0.0,
        "magnitude_1": 0.0,
        "phase_1": 0.0,
        "magnitude_2": 0.0,
        "phase_2": 0.0,
        "magnitude_3": 0.0,
        "phase_3": 0.0,
        "magnitude_4": 0.0,
        "phase_4": 0.0,
        "magnitude_5": 0.179197773,
        "phase_5": 0.0,
        "magnitude_6": 0.0,
        "phase_6": 0.0,
        "magnitude_7": 0.0,
        "phase_7": 0.0,
        "magnitude_8": 0.0,
        "phase_8": 0.0,
        "magnitude_9": 0.0,
        "phase_9": 0.0,
        "magnitude_10": 0.0,
        "phase_10": 0.0,
        "magnitude_11": 0.0,
        "phase_11": 0.0,
        "magnitude_12": 0.0,
        "phase_12": 0.0,
        "magnitude_13": 0.0,
        "phase_13": 0.0,
        "magnitude_14": 0.0,
        "phase_14": 0.0,
        "magnitude_15": 0.0,
        "phase_15": 0.0,
        "magnitude_16": 0.0,
        "phase_16": 0.0,
        "magnitude_17": 0.0,
        "phase_17": 0.0,
        "magnitude_18": 0.0,
        "phase_18": 0.0,
        "magnitude_19": 0.0,
        "phase_19": 0.0,
        "magnitude_20": 0.0,
        "phase_20": 0.0,
        "magnitude_21": 0.0,
        "phase_21": 0.0,
        "magnitude_22": 0.010562947,
        "phase_22": 0.0,
        "magnitude_23": 0.0,
        "phase_23": 0.0,
        "magnitude_24": 0.0,
        "phase_24": 0.0,
        "magnitude_25": 0.0,
        "phase_25": 0.0
      },
      "pos": [
        61,
        2
      ]
    },
    {
      "id": 91,
      "plugin": "JW-Modules",
      "version": "1.0.11",
      "model": "Quantizer",
      "params": [
        {
          "id": 0,
          "value": 0.0
        },
        {
          "id": 1,
          "value": 11.0
        }
      ],
      "rightModuleId": 90,
      "data": {},
      "pos": [
        57,
        2
      ]
    },
    {
      "id": 92,
      "plugin": "cf",
      "version": "1.1.1",
      "model": "MONO",
      "params": [
        {
          "id": 0,
          "value": 0.0
        },
        {
          "id": 1,
          "value": 5.0
        },
        {
          "id": 2,
          "value": 0.0
        },
        {
          "id": 3,
          "value": 0.0
        }
      ],
      "leftModuleId": 79,
      "rightModuleId": 21,
      "data": {
        "solostate": 0,
        "onstate": 1
      },
      "pos": [
        69,
        0
      ]
    },
    {
      "id": 93,
      "plugin": "Fundamental",
      "version": "1.4.0",
      "model": "VCA-1",
      "params": [
        {
          "id": 0,
          "value": 0.352499932
        },
        {
          "id": 1,
          "value": 1.0
        }
      ],
      "pos": [
        20,
        2
      ]
    },
    {
      "id": 94,
      "plugin": "Bogaudio",
      "version": "1.1.31",
      "model": "Bogaudio-Manual",
      "params": [
        {
          "id": 0,
          "value": 0.0
        }
      ],
      "data": {
        "triggerOnLoad": false,
        "shouldTriggerOnLoad": true
      },
      "pos": [
        0,
        2
      ]
    },
    {
      "id": 95,
      "plugin": "Hora-treasureFree",
      "version": "1.0.2",
      "model": "HiHat",
      "params": [
        {
          "id": 0,
          "value": 0.5
        },
        {
          "id": 1,
          "value": 0.600000024
        },
        {
          "id": 2,
          "value": 0.730440021
        },
        {
          "id": 3,
          "value": 0.0
        },
        {
          "id": 4,
          "value": 0.0
        },
        {
          "id": 5,
          "value": 0.0
        },
        {
          "id": 6,
          "value": 1.25049996
        },
        {
          "id": 7,
          "value": 0.924500048
        },
        {
          "id": 8,
          "value": 0.800000012
        },
        {
          "id": 9,
          "value": 0.600000024
        },
        {
          "id": 10,
          "value": 0.100000001
        },
        {
          "id": 11,
          "value": 0.421000004
        }
      ],
      "pos": [
        88,
        2
      ]
    }
  ],
  "cables": [
    {
      "id": 67,
      "outputModuleId": 21,
      "outputId": 0,
      "inputModuleId": 20,
      "inputId": 0,
      "color": "#c91847"
    },
    {
      "id": 225,
      "outputModuleId": 78,
      "outputId": 2,
      "inputModuleId": 77,
      "inputId": 5,
      "color": "#0c8e15"
    },
    {
      "id": 226,
      "outputModuleId": 79,
      "outputId": 0,
      "inputModuleId": 21,
      "inputId": 1,
      "color": "#c91847"
    },
    {
      "id": 227,
      "outputModuleId": 79,
      "outputId": 1,
      "inputModuleId": 21,
      "inputId": 2,
      "color": "#0986ad"
    },
    {
      "id": 228,
      "outputModuleId": 77,
      "outputId": 0,
      "inputModuleId": 79,
      "inputId": 1,
      "color": "#c9b70e"
    },
    {
      "id": 229,
      "outputModuleId": 74,
      "outputId": 2,
      "inputModuleId": 77,
      "inputId": 1,
      "color": "#0c8e15"
    },
    {
      "id": 230,
      "outputModuleId": 74,
      "outputId": 1,
      "inputModuleId": 77,
      "inputId": 0,
      "color": "#c91847"
    },
    {
      "id": 234,
      "outputModuleId": 78,
      "outputId": 2,
      "inputModuleId": 82,
      "inputId": 5,
      "color": "#c91847"
    },
    {
      "id": 236,
      "outputModuleId": 82,
      "outputId": 0,
      "inputModuleId": 81,
      "inputId": 0,
      "color": "#c9b70e"
    },
    {
      "id": 237,
      "outputModuleId": 82,
      "outputId": 0,
      "inputModuleId": 74,
      "inputId": 1,
      "color": "#0c8e15"
    },
    {
      "id": 238,
      "outputModuleId": 83,
      "outputId": 5,
      "inputModuleId": 74,
      "inputId": 3,
      "color": "#0986ad"
    },
    {
      "id": 239,
      "outputModuleId": 83,
      "outputId": 4,
      "inputModuleId": 74,
      "inputId": 4,
      "color": "#c9b70e"
    },
    {
      "id": 240,
      "outputModuleId": 84,
      "outputId": 0,
      "inputModuleId": 79,
      "inputId": 4,
      "color": "#0c8e15"
    },
    {
      "id": 241,
      "outputModuleId": 77,
      "outputId": 1,
      "inputModuleId": 84,
      "inputId": 5,
      "color": "#c91847"
    },
    {
      "id": 246,
      "outputModuleId": 82,
      "outputId": 1,
      "inputModuleId": 85,
      "inputId": 5,
      "color": "#0986ad"
    },
    {
      "id": 242,
      "outputModuleId": 85,
      "outputId": 0,
      "inputModuleId": 79,
      "inputId": 7,
      "color": "#0986ad"
    },
    {
      "id": 247,
      "outputModuleId": 86,
      "outputId": 0,
      "inputModuleId": 79,
      "inputId": 10,
      "color": "#c9b70e"
    },
    {
      "id": 248,
      "outputModuleId": 82,
      "outputId": 3,
      "inputModuleId": 86,
      "inputId": 5,
      "color": "#0c8e15"
    },
    {
      "id": 249,
      "outputModuleId": 83,
      "outputId": 3,
      "inputModuleId": 84,
      "inputId": 2,
      "color": "#c91847"
    },
    {
      "id": 250,
      "outputModuleId": 83,
      "outputId": 2,
      "inputModuleId": 85,
      "inputId": 2,
      "color": "#0986ad"
    },
    {
      "id": 251,
      "outputModuleId": 83,
      "outputId": 1,
      "inputModuleId": 86,
      "inputId": 2,
      "color": "#c9b70e"
    },
    {
      "id": 252,
      "outputModuleId": 74,
      "outputId": 0,
      "inputModuleId": 88,
      "inputId": 1,
      "color": "#c91847"
    },
    {
      "id": 253,
      "outputModuleId": 78,
      "outputId": 2,
      "inputModuleId": 88,
      "inputId": 5,
      "color": "#0986ad"
    },
    {
      "id": 254,
      "outputModuleId": 88,
      "outputId": 0,
      "inputModuleId": 89,
      "inputId": 0,
      "color": "#c9b70e"
    },
    {
      "id": 255,
      "outputModuleId": 88,
      "outputId": 0,
      "inputModuleId": 91,
      "inputId": 2,
      "color": "#c91847"
    },
    {
      "id": 256,
      "outputModuleId": 91,
      "outputId": 0,
      "inputModuleId": 90,
      "inputId": 5,
      "color": "#0986ad"
    },
    {
      "id": 257,
      "outputModuleId": 90,
      "outputId": 0,
      "inputModuleId": 79,
      "inputId": 13,
      "color": "#c9b70e"
    },
    {
      "id": 258,
      "outputModuleId": 90,
      "outputId": 1,
      "inputModuleId": 79,
      "inputId": 16,
      "color": "#0c8e15"
    },
    {
      "id": 259,
      "outputModuleId": 83,
      "outputId": 1,
      "inputModuleId": 93,
      "inputId": 1,
      "color": "#c91847"
    },
    {
      "id": 260,
      "outputModuleId": 93,
      "outputId": 0,
      "inputModuleId": 88,
      "inputId": 0,
      "color": "#0986ad"
    },
    {
      "id": 261,
      "outputModuleId": 83,
      "outputId": 0,
      "inputModuleId": 90,
      "inputId": 0,
      "color": "#c9b70e"
    },
    {
      "id": 263,
      "outputModuleId": 83,
      "outputId": 5,
      "inputModuleId": 83,
      "inputId": 0,
      "color": "#c91847"
    },
    {
      "id": 264,
      "outputModuleId": 83,
      "outputId": 5,
      "inputModuleId": 93,
      "inputId": 0,
      "color": "#0986ad"
    },
    {
      "id": 265,
      "outputModuleId": 94,
      "outputId": 0,
      "inputModuleId": 78,
      "inputId": 5,
      "color": "#c9b70e"
    },
    {
      "id": 266,
      "outputModuleId": 77,
      "outputId": 2,
      "inputModuleId": 95,
      "inputId": 0,
      "color": "#0c8e15"
    },
    {
      "id": 267,
      "outputModuleId": 82,
      "outputId": 3,
      "inputModuleId": 95,
      "inputId": 1,
      "color": "#c91847"
    },
    {
      "id": 268,
      "outputModuleId": 95,
      "outputId": 2,
      "inputModuleId": 79,
      "inputId": 19,
      "color": "#0986ad"
    },
    {
      "id": 235,
      "outputModuleId": 78,
      "outputId": 4,
      "inputModuleId": 82,
      "inputId": 1,
      "color": "#0986ad"
    },
    {
      "id": 707,
      "outputModuleId": 83,
      "outputId": 5,
      "inputModuleId": 78,
      "inputId": 1,
      "color": "#0c8e15"
    }
  ]
}