{
  "version": "1.1.3",
  "modules": [
    {
      "id": 0,
      "plugin": "Core",
      "version": "1.1.3",
      "model": "MIDIToCVInterface",
      "params": [],
      "data": {
        "channels": 1,
        "polyMode": 0,
        "clockDivision": 24,
        "lastPitch": 8192,
        "lastMod": 0,
        "midi": {
          "driver": -11,
          "deviceName": "QWERTY keyboard (US)",
          "channel": -1
        }
      },
      "pos": [
        0,
        0
      ]
    },
    {
      "id": 1,
      "plugin": "Core",
      "version": "1.1.3",
      "model": "AudioInterface",
      "params": [],
      "leftModuleId": 3,
      "data": {
        "audio": {
          "driver": 1,
          "deviceName": "hw:Scarlett 2i2 USB,0",
          "offset": 0,
          "maxChannels": 8,
          "sampleRate": 48000,
          "blockSize": 256
        }
      },
      "pos": [
        108,
        0
      ]
    },
    {
      "id": 3,
      "plugin": "Fundamental",
      "version": "1.2.0",
      "model": "VCMixer",
      "params": [
        {
          "id": 0,
          "value": 1.0
        },
        {
          "id": 1,
          "value": 1.0
        },
        {
          "id": 2,
          "value": 1.0
        },
        {
          "id": 3,
          "value": 1.0
        },
        {
          "id": 4,
          "value": 1.0
        }
      ],
      "leftModuleId": 8,
      "rightModuleId": 1,
      "pos": [
        98,
        0
      ]
    },
    {
      "id": 5,
      "plugin": "Fundamental",
      "version": "1.2.0",
      "model": "VCA-1",
      "params": [
        {
          "id": 0,
          "value": 0.938499629
        },
        {
          "id": 1,
          "value": 1.0
        }
      ],
      "pos": [
        61,
        0
      ]
    },
    {
      "id": 6,
      "plugin": "Fundamental",
      "version": "1.2.0",
      "model": "VCO",
      "params": [
        {
          "id": 0,
          "value": 1.0
        },
        {
          "id": 1,
          "value": 1.0
        },
        {
          "id": 2,
          "value": -32.076046
        },
        {
          "id": 3,
          "value": 0.0
        },
        {
          "id": 4,
          "value": 0.0
        },
        {
          "id": 5,
          "value": 0.5
        },
        {
          "id": 6,
          "value": 0.0
        }
      ],
      "rightModuleId": 9,
      "pos": [
        22,
        0
      ]
    },
    {
      "id": 7,
      "plugin": "Fundamental",
      "version": "1.2.0",
      "model": "ADSR",
      "params": [
        {
          "id": 0,
          "value": 0.5
        },
        {
          "id": 1,
          "value": 0.5
        },
        {
          "id": 2,
          "value": 0.5
        },
        {
          "id": 3,
          "value": 0.670999646
        }
      ],
      "leftModuleId": 11,
      "pos": [
        50,
        0
      ]
    },
    {
      "id": 8,
      "plugin": "Fundamental",
      "version": "1.2.0",
      "model": "Scope",
      "params": [
        {
          "id": 0,
          "value": 0.0
        },
        {
          "id": 1,
          "value": 0.0
        },
        {
          "id": 2,
          "value": 0.0
        },
        {
          "id": 3,
          "value": 0.0
        },
        {
          "id": 4,
          "value": 16.0
        },
        {
          "id": 5,
          "value": 0.0
        },
        {
          "id": 6,
          "value": -0.120002925
        },
        {
          "id": 7,
          "value": 0.0
        }
      ],
      "rightModuleId": 3,
      "data": {
        "lissajous": 0,
        "external": 0
      },
      "pos": [
        85,
        0
      ]
    },
    {
      "id": 9,
      "plugin": "Fundamental",
      "version": "1.2.0",
      "model": "VCF",
      "params": [
        {
          "id": 0,
          "value": 0.747499943
        },
        {
          "id": 1,
          "value": 0.5
        },
        {
          "id": 2,
          "value": 0.13499999
        },
        {
          "id": 3,
          "value": 0.287999928
        },
        {
          "id": 4,
          "value": 0.0
        }
      ],
      "leftModuleId": 6,
      "rightModuleId": 11,
      "pos": [
        32,
        0
      ]
    },
    {
      "id": 11,
      "plugin": "Fundamental",
      "version": "1.2.0",
      "model": "LFO",
      "params": [
        {
          "id": 0,
          "value": 1.0
        },
        {
          "id": 1,
          "value": 1.0
        },
        {
          "id": 2,
          "value": 1.56699562
        },
        {
          "id": 3,
          "value": 0.0
        },
        {
          "id": 4,
          "value": 0.0
        },
        {
          "id": 5,
          "value": 0.586730719
        },
        {
          "id": 6,
          "value": 0.0
        }
      ],
      "leftModuleId": 9,
      "rightModuleId": 7,
      "pos": [
        40,
        0
      ]
    },
    {
      "id": 13,
      "plugin": "Fundamental",
      "version": "1.2.0",
      "model": "Delay",
      "params": [
        {
          "id": 0,
          "value": 0.5
        },
        {
          "id": 1,
          "value": 0.5
        },
        {
          "id": 2,
          "value": 0.5
        },
        {
          "id": 3,
          "value": 0.5
        }
      ],
      "pos": [
        69,
        0
      ]
    },
    {
      "id": 14,
      "plugin": "Fundamental",
      "version": "1.2.0",
      "model": "Quantizer",
      "params": [],
      "leftModuleId": 16,
      "data": {
        "enabledNotes": [
          true,
          true,
          false,
          false,
          true,
          false,
          false,
          false,
          false,
          true,
          false,
          false
        ]
      },
      "pos": [
        32,
        1
      ]
    },
    {
      "id": 15,
      "plugin": "Fundamental",
      "version": "1.2.0",
      "model": "SEQ3",
      "params": [
        {
          "id": 0,
          "value": 2.0
        },
        {
          "id": 1,
          "value": 0.0
        },
        {
          "id": 2,
          "value": 0.0
        },
        {
          "id": 3,
          "value": 8.0
        },
        {
          "id": 4,
          "value": 1.72499979
        },
        {
          "id": 5,
          "value": 1.6949985
        },
        {
          "id": 6,
          "value": 1.09500003
        },
        {
          "id": 7,
          "value": 2.08500195
        },
        {
          "id": 8,
          "value": 0.61500001
        },
        {
          "id": 9,
          "value": 1.90500093
        },
        {
          "id": 10,
          "value": 1.38
        },
        {
          "id": 11,
          "value": 0.525000095
        },
        {
          "id": 12,
          "value": 0.0
        },
        {
          "id": 13,
          "value": 0.0
        },
        {
          "id": 14,
          "value": 0.0
        },
        {
          "id": 15,
          "value": 0.0
        },
        {
          "id": 16,
          "value": 0.0
        },
        {
          "id": 17,
          "value": 0.0
        },
        {
          "id": 18,
          "value": 0.0
        },
        {
          "id": 19,
          "value": 0.0
        },
        {
          "id": 20,
          "value": 0.0
        },
        {
          "id": 21,
          "value": 0.0
        },
        {
          "id": 22,
          "value": 0.0
        },
        {
          "id": 23,
          "value": 0.0
        },
        {
          "id": 24,
          "value": 0.0
        },
        {
          "id": 25,
          "value": 0.0
        },
        {
          "id": 26,
          "value": 0.0
        },
        {
          "id": 27,
          "value": 0.0
        },
        {
          "id": 28,
          "value": 0.0
        },
        {
          "id": 29,
          "value": 0.0
        },
        {
          "id": 30,
          "value": 0.0
        },
        {
          "id": 31,
          "value": 0.0
        },
        {
          "id": 32,
          "value": 0.0
        },
        {
          "id": 33,
          "value": 0.0
        },
        {
          "id": 34,
          "value": 0.0
        },
        {
          "id": 35,
          "value": 0.0
        }
      ],
      "rightModuleId": 16,
      "data": {
        "running": false,
        "gates": [
          1,
          1,
          1,
          1,
          1,
          1,
          1,
          1
        ]
      },
      "pos": [
        0,
        1
      ]
    },
    {
      "id": 16,
      "plugin": "Fundamental",
      "version": "1.2.0",
      "model": "VCO",
      "params": [
        {
          "id": 0,
          "value": 1.0
        },
        {
          "id": 1,
          "value": 1.0
        },
        {
          "id": 2,
          "value": -20.0880146
        },
        {
          "id": 3,
          "value": 0.0
        },
        {
          "id": 4,
          "value": 0.0
        },
        {
          "id": 5,
          "value": 0.5
        },
        {
          "id": 6,
          "value": 0.0
        }
      ],
      "leftModuleId": 15,
      "rightModuleId": 14,
      "pos": [
        22,
        1
      ]
    },
    {
      "id": 17,
      "plugin": "Fundamental",
      "version": "1.2.0",
      "model": "VCA-1",
      "params": [
        {
          "id": 0,
          "value": 0.647499561
        },
        {
          "id": 1,
          "value": 0.0
        }
      ],
      "pos": [
        61,
        1
      ]
    },
    {
      "id": 18,
      "plugin": "Fundamental",
      "version": "1.2.0",
      "model": "ADSR",
      "params": [
        {
          "id": 0,
          "value": 0.5
        },
        {
          "id": 1,
          "value": 0.5
        },
        {
          "id": 2,
          "value": 0.385999978
        },
        {
          "id": 3,
          "value": 0.670999646
        }
      ],
      "pos": [
        50,
        1
      ]
    }
  ],
  "cables": [
    {
      "id": 0,
      "outputModuleId": 3,
      "outputId": 0,
      "inputModuleId": 1,
      "inputId": 0,
      "color": "#c9b70e"
    },
    {
      "id": 8,
      "outputModuleId": 7,
      "outputId": 0,
      "inputModuleId": 5,
      "inputId": 0,
      "color": "#c91847"
    },
    {
      "id": 25,
      "outputModuleId": 9,
      "outputId": 0,
      "inputModuleId": 5,
      "inputId": 1,
      "color": "#0986ad"
    },
    {
      "id": 27,
      "outputModuleId": 11,
      "outputId": 0,
      "inputModuleId": 9,
      "inputId": 0,
      "color": "#0c8e15"
    },
    {
      "id": 7,
      "outputModuleId": 5,
      "outputId": 0,
      "inputModuleId": 13,
      "inputId": 4,
      "color": "#0c8e15"
    },
    {
      "id": 29,
      "outputModuleId": 13,
      "outputId": 0,
      "inputModuleId": 3,
      "inputId": 1,
      "color": "#0c8e15"
    },
    {
      "id": 31,
      "outputModuleId": 5,
      "outputId": 0,
      "inputModuleId": 8,
      "inputId": 0,
      "color": "#0986ad"
    },
    {
      "id": 33,
      "outputModuleId": 6,
      "outputId": 2,
      "inputModuleId": 9,
      "inputId": 3,
      "color": "#c9b70e"
    },
    {
      "id": 38,
      "outputModuleId": 0,
      "outputId": 0,
      "inputModuleId": 6,
      "inputId": 0,
      "color": "#0986ad"
    },
    {
      "id": 39,
      "outputModuleId": 0,
      "outputId": 1,
      "inputModuleId": 7,
      "inputId": 4,
      "color": "#c9b70e"
    },
    {
      "id": 40,
      "outputModuleId": 14,
      "outputId": 0,
      "inputModuleId": 16,
      "inputId": 0,
      "color": "#c91847"
    },
    {
      "id": 42,
      "outputModuleId": 15,
      "outputId": 0,
      "inputModuleId": 18,
      "inputId": 4,
      "color": "#c9b70e"
    },
    {
      "id": 36,
      "outputModuleId": 15,
      "outputId": 1,
      "inputModuleId": 14,
      "inputId": 0,
      "color": "#c9b70e"
    },
    {
      "id": 43,
      "outputModuleId": 18,
      "outputId": 0,
      "inputModuleId": 17,
      "inputId": 0,
      "color": "#0c8e15"
    },
    {
      "id": 44,
      "outputModuleId": 16,
      "outputId": 0,
      "inputModuleId": 17,
      "inputId": 1,
      "color": "#c91847"
    },
    {
      "id": 45,
      "outputModuleId": 17,
      "outputId": 0,
      "inputModuleId": 3,
      "inputId": 2,
      "color": "#0986ad"
    },
    {
      "id": 46,
      "outputModuleId": 0,
      "outputId": 6,
      "inputModuleId": 7,
      "inputId": 5,
      "color": "#c9b70e"
    }
  ]
}