{
  "version": "1.1.3",
  "modules": [
    {
      "id": 20,
      "plugin": "Core",
      "version": "1.1.3",
      "model": "AudioInterface",
      "params": [],
      "leftModuleId": 21,
      "data": {
        "audio": {
          "driver": 1,
          "deviceName": "hw:Scarlett 2i2 USB,0",
          "offset": 0,
          "maxChannels": 8,
          "sampleRate": 48000,
          "blockSize": 256
        }
      },
      "pos": [
        60,
        0
      ]
    },
    {
      "id": 21,
      "plugin": "Fundamental",
      "version": "1.2.0",
      "model": "VCMixer",
      "params": [
        {
          "id": 0,
          "value": 1.0
        },
        {
          "id": 1,
          "value": 0.503611207
        },
        {
          "id": 2,
          "value": 1.0
        },
        {
          "id": 3,
          "value": 1.0
        },
        {
          "id": 4,
          "value": 1.0
        }
      ],
      "rightModuleId": 20,
      "pos": [
        50,
        0
      ]
    },
    {
      "id": 51,
      "plugin": "LindenbergResearch",
      "version": "1.0.0",
      "model": "Westcoast_VCS",
      "params": [
        {
          "id": 0,
          "value": 2.62000465
        },
        {
          "id": 1,
          "value": 0.42659986
        },
        {
          "id": 2,
          "value": 0.453599989
        },
        {
          "id": 3,
          "value": -2.61600065
        },
        {
          "id": 4,
          "value": 1.0
        }
      ],
      "leftModuleId": 52,
      "gestaltID": 1,
      "gradient": true,
      "patina": false,
      "patina_a_x": -294.324158,
      "patina_a_y": -405.512238,
      "patina_b_x": -328.050262,
      "patina_b_y": -168.600784,
      "pos": [
        27,
        0
      ]
    },
    {
      "id": 52,
      "plugin": "DrumKit",
      "version": "1.1.0",
      "model": "MarionetteBass",
      "params": [
        {
          "id": 0,
          "value": 0.277150333
        },
        {
          "id": 1,
          "value": 0.200000003
        },
        {
          "id": 2,
          "value": 0.300000012
        },
        {
          "id": 3,
          "value": 0.0
        },
        {
          "id": 4,
          "value": 0.166899219
        },
        {
          "id": 5,
          "value": 0.540800095
        },
        {
          "id": 6,
          "value": 0.576399922
        },
        {
          "id": 7,
          "value": 0.0
        },
        {
          "id": 8,
          "value": 5.0
        },
        {
          "id": 9,
          "value": 1.0
        },
        {
          "id": 10,
          "value": 2.5
        },
        {
          "id": 11,
          "value": 4.98500013
        },
        {
          "id": 12,
          "value": 1.0
        },
        {
          "id": 13,
          "value": 1.0
        }
      ],
      "leftModuleId": 53,
      "rightModuleId": 51,
      "pos": [
        12,
        0
      ]
    },
    {
      "id": 53,
      "plugin": "Fundamental",
      "version": "1.2.0",
      "model": "ADSR",
      "params": [
        {
          "id": 0,
          "value": 0.0254999995
        },
        {
          "id": 1,
          "value": 0.362499535
        },
        {
          "id": 2,
          "value": 0.35650003
        },
        {
          "id": 3,
          "value": 0.0659999922
        }
      ],
      "leftModuleId": 54,
      "rightModuleId": 52,
      "pos": [
        4,
        0
      ]
    },
    {
      "id": 54,
      "plugin": "JW-Modules",
      "version": "1.0.7",
      "model": "SimpleClock",
      "params": [
        {
          "id": 0,
          "value": 2.99199963
        },
        {
          "id": 1,
          "value": 0.0
        },
        {
          "id": 2,
          "value": 4.44000006
        },
        {
          "id": 3,
          "value": 0.0
        }
      ],
      "rightModuleId": 53,
      "data": {
        "running": true
      },
      "pos": [
        0,
        0
      ]
    }
  ],
  "cables": [
    {
      "id": 67,
      "outputModuleId": 21,
      "outputId": 0,
      "inputModuleId": 20,
      "inputId": 0,
      "color": "#c91847"
    },
    {
      "id": 194,
      "outputModuleId": 52,
      "outputId": 0,
      "inputModuleId": 51,
      "inputId": 0,
      "color": "#0986ad"
    },
    {
      "id": 195,
      "outputModuleId": 51,
      "outputId": 0,
      "inputModuleId": 21,
      "inputId": 1,
      "color": "#c9b70e"
    },
    {
      "id": 207,
      "outputModuleId": 53,
      "outputId": 0,
      "inputModuleId": 52,
      "inputId": 0,
      "color": "#0c8e15"
    },
    {
      "id": 209,
      "outputModuleId": 54,
      "outputId": 2,
      "inputModuleId": 53,
      "inputId": 4,
      "color": "#0986ad"
    }
  ]
}