{
  "version": "1.1.6",
  "modules": [
    {
      "id": 9,
      "plugin": "squinkylabs-plug1",
      "version": "1.0.15",
      "model": "squinkylabs-mixm",
      "params": [
        {
          "id": 0,
          "value": 0.657999158
        },
        {
          "id": 1,
          "value": 0.0
        },
        {
          "id": 2,
          "value": 0.0
        },
        {
          "id": 3,
          "value": 0.385500073
        },
        {
          "id": 4,
          "value": 0.356999964
        },
        {
          "id": 5,
          "value": 0.0
        },
        {
          "id": 6,
          "value": 0.0
        },
        {
          "id": 7,
          "value": 0.0
        },
        {
          "id": 8,
          "value": 0.0
        },
        {
          "id": 9,
          "value": 0.0
        },
        {
          "id": 10,
          "value": 0.0
        },
        {
          "id": 11,
          "value": 0.0
        },
        {
          "id": 12,
          "value": 0.0
        },
        {
          "id": 13,
          "value": 0.0
        },
        {
          "id": 14,
          "value": 0.0
        },
        {
          "id": 15,
          "value": 0.0
        },
        {
          "id": 16,
          "value": 0.0
        },
        {
          "id": 17,
          "value": 0.0
        },
        {
          "id": 18,
          "value": 0.0
        },
        {
          "id": 19,
          "value": 0.386999965
        },
        {
          "id": 20,
          "value": 0.0
        },
        {
          "id": 21,
          "value": 0.640500128
        },
        {
          "id": 22,
          "value": 0.0
        },
        {
          "id": 23,
          "value": 0.0
        },
        {
          "id": 24,
          "value": 0.0
        },
        {
          "id": 25,
          "value": 0.0
        },
        {
          "id": 26,
          "value": 0.0
        },
        {
          "id": 27,
          "value": 0.0
        },
        {
          "id": 28,
          "value": 0.0
        },
        {
          "id": 29,
          "value": 0.486000091
        },
        {
          "id": 30,
          "value": 0.0
        },
        {
          "id": 31,
          "value": 0.0
        },
        {
          "id": 32,
          "value": 0.0
        },
        {
          "id": 33,
          "value": 0.0
        },
        {
          "id": 34,
          "value": 0.0
        },
        {
          "id": 35,
          "value": 0.0
        },
        {
          "id": 36,
          "value": 1.0
        }
      ],
      "leftModuleId": 10,
      "pos": [
        51,
        0
      ]
    },
    {
      "id": 10,
      "plugin": "squinkylabs-plug1",
      "version": "1.0.15",
      "model": "squinkylabs-mix4",
      "params": [
        {
          "id": 0,
          "value": 0.611999929
        },
        {
          "id": 1,
          "value": 0.551999807
        },
        {
          "id": 2,
          "value": 0.481500089
        },
        {
          "id": 3,
          "value": 0.647500098
        },
        {
          "id": 4,
          "value": 0.0
        },
        {
          "id": 5,
          "value": 0.0
        },
        {
          "id": 6,
          "value": 0.0
        },
        {
          "id": 7,
          "value": 0.0
        },
        {
          "id": 8,
          "value": 0.0
        },
        {
          "id": 9,
          "value": 0.0
        },
        {
          "id": 10,
          "value": 0.0
        },
        {
          "id": 11,
          "value": 0.0
        },
        {
          "id": 12,
          "value": 0.0
        },
        {
          "id": 13,
          "value": 0.0
        },
        {
          "id": 14,
          "value": 0.0
        },
        {
          "id": 15,
          "value": 0.0
        },
        {
          "id": 16,
          "value": 0.0
        },
        {
          "id": 17,
          "value": 0.00150000001
        },
        {
          "id": 18,
          "value": 0.0
        },
        {
          "id": 19,
          "value": 0.359999955
        },
        {
          "id": 20,
          "value": 0.400500059
        },
        {
          "id": 21,
          "value": 0.0
        },
        {
          "id": 22,
          "value": 0.0
        },
        {
          "id": 23,
          "value": 0.0
        },
        {
          "id": 24,
          "value": 0.0
        },
        {
          "id": 25,
          "value": 0.0
        },
        {
          "id": 26,
          "value": 0.0
        },
        {
          "id": 27,
          "value": 0.0
        },
        {
          "id": 28,
          "value": 0.0
        },
        {
          "id": 29,
          "value": 0.0
        },
        {
          "id": 30,
          "value": 0.0
        },
        {
          "id": 31,
          "value": 0.0
        }
      ],
      "leftModuleId": 357,
      "rightModuleId": 9,
      "pos": [
        41,
        0
      ]
    },
    {
      "id": 11,
      "plugin": "Core",
      "version": "1.1.6",
      "model": "AudioInterface",
      "params": [],
      "leftModuleId": 12,
      "data": {
        "audio": {
          "driver": 4,
          "deviceName": "system",
          "offset": 0,
          "maxChannels": 8,
          "sampleRate": 44100,
          "blockSize": 2048
        }
      },
      "pos": [
        82,
        0
      ]
    },
    {
      "id": 12,
      "plugin": "Valley",
      "version": "1.1.7",
      "model": "Plateau",
      "params": [
        {
          "id": 0,
          "value": 1.0
        },
        {
          "id": 1,
          "value": 0.5
        },
        {
          "id": 2,
          "value": 0.0
        },
        {
          "id": 3,
          "value": 8.48499966
        },
        {
          "id": 4,
          "value": 8.51499653
        },
        {
          "id": 5,
          "value": 0.351499856
        },
        {
          "id": 6,
          "value": 8.33499908
        },
        {
          "id": 7,
          "value": 0.401466727
        },
        {
          "id": 8,
          "value": 8.55999947
        },
        {
          "id": 9,
          "value": 8.15499783
        },
        {
          "id": 10,
          "value": 0.232500002
        },
        {
          "id": 11,
          "value": 0.700999916
        },
        {
          "id": 12,
          "value": 2.94799972
        },
        {
          "id": 13,
          "value": 0.0
        },
        {
          "id": 14,
          "value": 0.0
        },
        {
          "id": 15,
          "value": 0.0
        },
        {
          "id": 16,
          "value": 0.0
        },
        {
          "id": 17,
          "value": 0.0
        },
        {
          "id": 18,
          "value": 0.0
        },
        {
          "id": 19,
          "value": 0.0
        },
        {
          "id": 20,
          "value": 0.0
        },
        {
          "id": 21,
          "value": 0.0
        },
        {
          "id": 22,
          "value": 0.0
        },
        {
          "id": 23,
          "value": 0.0
        },
        {
          "id": 24,
          "value": 0.0
        },
        {
          "id": 25,
          "value": 0.0
        },
        {
          "id": 26,
          "value": 0.0
        },
        {
          "id": 27,
          "value": 0.0
        },
        {
          "id": 28,
          "value": 0.0
        },
        {
          "id": 29,
          "value": 0.0
        },
        {
          "id": 30,
          "value": 1.0
        }
      ],
      "rightModuleId": 11,
      "data": {
        "frozen": false,
        "freezeToggle": false,
        "panelStyle": 0,
        "tuned": 0,
        "diffuseInput": 1,
        "preDelayCVSens": 0,
        "inputSensitivity": 0,
        "outputSaturation": 0
      },
      "pos": [
        70,
        0
      ]
    },
    {
      "id": 13,
      "plugin": "TinyTricks",
      "version": "1.5.0",
      "model": "SH16",
      "params": [],
      "leftModuleId": 366,
      "rightModuleId": 14,
      "data": {
        "skin": 0,
        "forcebright": false
      },
      "pos": [
        9,
        1
      ]
    },
    {
      "id": 14,
      "plugin": "TinyTricks",
      "version": "1.5.0",
      "model": "A8",
      "params": [
        {
          "id": 0,
          "value": 0.206499994
        }
      ],
      "leftModuleId": 13,
      "rightModuleId": 24,
      "data": {
        "skin": 0,
        "forcebright": false
      },
      "pos": [
        14,
        1
      ]
    },
    {
      "id": 19,
      "plugin": "TinyTricks",
      "version": "1.5.0",
      "model": "SNOSC",
      "params": [
        {
          "id": 0,
          "value": 3.99250007
        },
        {
          "id": 1,
          "value": 2.65899968
        },
        {
          "id": 2,
          "value": -1.0
        },
        {
          "id": 3,
          "value": 0.0
        },
        {
          "id": 4,
          "value": 3.2650001
        },
        {
          "id": 5,
          "value": 2.5
        },
        {
          "id": 6,
          "value": 0.0
        }
      ],
      "leftModuleId": 43,
      "rightModuleId": 44,
      "data": {
        "mirror": false,
        "skin": 0,
        "forcebright": false
      },
      "pos": [
        65,
        1
      ]
    },
    {
      "id": 21,
      "plugin": "ImpromptuModular",
      "version": "1.1.9",
      "model": "Clocked",
      "params": [
        {
          "id": 0,
          "value": 80.0
        },
        {
          "id": 1,
          "value": 0.0
        },
        {
          "id": 2,
          "value": -5.0
        },
        {
          "id": 3,
          "value": 5.0
        },
        {
          "id": 4,
          "value": 0.0
        },
        {
          "id": 5,
          "value": 0.0
        },
        {
          "id": 6,
          "value": 0.0
        },
        {
          "id": 7,
          "value": 0.0
        },
        {
          "id": 8,
          "value": 0.5
        },
        {
          "id": 9,
          "value": 0.5
        },
        {
          "id": 10,
          "value": 0.5
        },
        {
          "id": 11,
          "value": 0.5
        },
        {
          "id": 12,
          "value": 0.0
        },
        {
          "id": 13,
          "value": 0.0
        },
        {
          "id": 14,
          "value": 0.0
        },
        {
          "id": 15,
          "value": 0.0
        },
        {
          "id": 16,
          "value": 0.0
        },
        {
          "id": 17,
          "value": 0.0
        },
        {
          "id": 18,
          "value": 0.0
        },
        {
          "id": 19,
          "value": 0.0
        }
      ],
      "data": {
        "panelTheme": 1,
        "running": true,
        "displayDelayNoteMode": true,
        "bpmDetectionMode": false,
        "resetOnStartStop": 0,
        "ppqn": 4,
        "resetClockOutputsHigh": true,
        "momentaryRunInput": true,
        "clockMaster": false
      },
      "pos": [
        0,
        0
      ]
    },
    {
      "id": 24,
      "plugin": "ML_modules",
      "version": "1.1.3",
      "model": "Quantum",
      "params": [
        {
          "id": 0,
          "value": 0.0
        },
        {
          "id": 1,
          "value": 0.0
        },
        {
          "id": 2,
          "value": 0.0
        },
        {
          "id": 3,
          "value": 0.0
        },
        {
          "id": 4,
          "value": 0.0
        },
        {
          "id": 5,
          "value": 0.0
        },
        {
          "id": 6,
          "value": 0.0
        },
        {
          "id": 7,
          "value": 0.0
        },
        {
          "id": 8,
          "value": 0.0
        },
        {
          "id": 9,
          "value": 0.0
        },
        {
          "id": 10,
          "value": 0.0
        },
        {
          "id": 11,
          "value": 0.0
        }
      ],
      "leftModuleId": 14,
      "rightModuleId": 28,
      "data": {
        "scale": [
          1,
          0,
          0,
          0,
          1,
          1,
          0,
          0,
          0,
          0,
          1,
          0
        ],
        "mode": 1,
        "transpose_select": 1,
        "toggle_mode": 0
      },
      "pos": [
        19,
        1
      ]
    },
    {
      "id": 28,
      "plugin": "AS",
      "version": "1.0.4",
      "model": "ADSR",
      "params": [
        {
          "id": 0,
          "value": 0.0809999928
        },
        {
          "id": 1,
          "value": 0.366000026
        },
        {
          "id": 2,
          "value": 0.353999943
        },
        {
          "id": 3,
          "value": 0.19799991
        }
      ],
      "leftModuleId": 24,
      "rightModuleId": 29,
      "pos": [
        27,
        1
      ]
    },
    {
      "id": 29,
      "plugin": "AS",
      "version": "1.0.4",
      "model": "QuadVCA",
      "params": [
        {
          "id": 0,
          "value": 1.0
        },
        {
          "id": 1,
          "value": 0.607000113
        },
        {
          "id": 2,
          "value": 1.0
        },
        {
          "id": 3,
          "value": 1.0
        },
        {
          "id": 4,
          "value": 1.0
        },
        {
          "id": 5,
          "value": 1.0
        },
        {
          "id": 6,
          "value": 1.0
        },
        {
          "id": 7,
          "value": 1.0
        }
      ],
      "leftModuleId": 28,
      "rightModuleId": 31,
      "pos": [
        35,
        1
      ]
    },
    {
      "id": 31,
      "plugin": "AlrightDevices",
      "version": "1.0.3",
      "model": "Chronoblob2",
      "params": [
        {
          "id": 0,
          "value": 0.498500139
        },
        {
          "id": 1,
          "value": 0.0569999963
        },
        {
          "id": 2,
          "value": 0.64899987
        },
        {
          "id": 3,
          "value": 0.0
        },
        {
          "id": 4,
          "value": 1.0
        },
        {
          "id": 5,
          "value": 0.0
        },
        {
          "id": 6,
          "value": 0.0
        },
        {
          "id": 7,
          "value": 0.0
        },
        {
          "id": 8,
          "value": 1.0
        },
        {
          "id": 9,
          "value": 0.0
        }
      ],
      "leftModuleId": 29,
      "rightModuleId": 365,
      "data": {
        "delay_mode": 3,
        "hold_behavior": 0,
        "sync_prescaler": 6
      },
      "pos": [
        43,
        1
      ]
    },
    {
      "id": 32,
      "plugin": "Bogaudio",
      "version": "1.1.35",
      "model": "Bogaudio-Slew",
      "params": [
        {
          "id": 0,
          "value": 0.344730437
        },
        {
          "id": 1,
          "value": 0.0
        },
        {
          "id": 2,
          "value": 0.34623
        },
        {
          "id": 3,
          "value": 0.0
        }
      ],
      "leftModuleId": 40,
      "rightModuleId": 33,
      "data": {},
      "pos": [
        46,
        2
      ]
    },
    {
      "id": 33,
      "plugin": "TinyTricks",
      "version": "1.5.0",
      "model": "TTSAW",
      "params": [
        {
          "id": 0,
          "value": 0.0
        },
        {
          "id": 1,
          "value": 0.0
        },
        {
          "id": 2,
          "value": 0.00999999978
        }
      ],
      "leftModuleId": 32,
      "rightModuleId": 34,
      "data": {
        "skin": 0,
        "forcebright": false
      },
      "pos": [
        49,
        2
      ]
    },
    {
      "id": 34,
      "plugin": "VultModulesFree",
      "version": "1.14",
      "model": "Lateralus",
      "params": [
        {
          "id": 0,
          "value": 0.283500016
        },
        {
          "id": 1,
          "value": 0.683499873
        },
        {
          "id": 2,
          "value": 0.312000304
        },
        {
          "id": 3,
          "value": -0.120000064
        },
        {
          "id": 4,
          "value": 0.275999814
        },
        {
          "id": 5,
          "value": 0.0
        },
        {
          "id": 6,
          "value": 0.0
        }
      ],
      "leftModuleId": 33,
      "rightModuleId": 41,
      "pos": [
        52,
        2
      ]
    },
    {
      "id": 35,
      "plugin": "Befaco",
      "version": "1.0.1",
      "model": "SlewLimiter",
      "params": [
        {
          "id": 0,
          "value": 0.0
        },
        {
          "id": 1,
          "value": 0.512999892
        },
        {
          "id": 2,
          "value": 0.524999559
        }
      ],
      "leftModuleId": 37,
      "rightModuleId": 36,
      "pos": [
        27,
        2
      ]
    },
    {
      "id": 36,
      "plugin": "TinyTricks",
      "version": "1.5.0",
      "model": "TTTRI",
      "params": [
        {
          "id": 0,
          "value": -1.0
        },
        {
          "id": 1,
          "value": 0.0
        },
        {
          "id": 2,
          "value": 0.0308291502
        }
      ],
      "leftModuleId": 35,
      "rightModuleId": 40,
      "data": {
        "skin": 0,
        "forcebright": false
      },
      "pos": [
        33,
        2
      ]
    },
    {
      "id": 37,
      "plugin": "ML_modules",
      "version": "1.1.3",
      "model": "Quantum",
      "params": [
        {
          "id": 0,
          "value": 0.0
        },
        {
          "id": 1,
          "value": 0.0
        },
        {
          "id": 2,
          "value": 0.0
        },
        {
          "id": 3,
          "value": 0.0
        },
        {
          "id": 4,
          "value": 0.0
        },
        {
          "id": 5,
          "value": 0.0
        },
        {
          "id": 6,
          "value": 0.0
        },
        {
          "id": 7,
          "value": 0.0
        },
        {
          "id": 8,
          "value": 0.0
        },
        {
          "id": 9,
          "value": 0.0
        },
        {
          "id": 10,
          "value": 0.0
        },
        {
          "id": 11,
          "value": 0.0
        }
      ],
      "leftModuleId": 39,
      "rightModuleId": 35,
      "data": {
        "scale": [
          1,
          0,
          0,
          0,
          1,
          1,
          0,
          0,
          0,
          0,
          1,
          0
        ],
        "mode": 1,
        "transpose_select": 1,
        "toggle_mode": 0
      },
      "pos": [
        19,
        2
      ]
    },
    {
      "id": 39,
      "plugin": "AudibleInstruments",
      "version": "1.5.0",
      "model": "Kinks",
      "params": [],
      "rightModuleId": 37,
      "pos": [
        15,
        2
      ]
    },
    {
      "id": 40,
      "plugin": "VultModulesFree",
      "version": "1.14",
      "model": "Tangents",
      "params": [
        {
          "id": 0,
          "value": 0.341000021
        },
        {
          "id": 1,
          "value": 0.590999961
        },
        {
          "id": 2,
          "value": 0.134999871
        },
        {
          "id": 3,
          "value": 0.0
        },
        {
          "id": 4,
          "value": 0.326999635
        },
        {
          "id": 5,
          "value": 0.0
        },
        {
          "id": 6,
          "value": 0.0
        }
      ],
      "leftModuleId": 36,
      "rightModuleId": 32,
      "pos": [
        36,
        2
      ]
    },
    {
      "id": 41,
      "plugin": "Hora-treasureFree",
      "version": "1.0.3",
      "model": "SnareDrum-VCV",
      "params": [
        {
          "id": 0,
          "value": 0.5
        },
        {
          "id": 1,
          "value": 1500.0
        },
        {
          "id": 2,
          "value": 0.0
        },
        {
          "id": 3,
          "value": 0.0
        },
        {
          "id": 4,
          "value": 0.0961299017
        },
        {
          "id": 5,
          "value": 0.805000007
        },
        {
          "id": 6,
          "value": 0.800000012
        },
        {
          "id": 7,
          "value": 0.086999841
        },
        {
          "id": 8,
          "value": 0.217000082
        },
        {
          "id": 9,
          "value": 0.715400338
        },
        {
          "id": 10,
          "value": 0.800000012
        },
        {
          "id": 11,
          "value": 0.600535154
        },
        {
          "id": 12,
          "value": 0.0
        },
        {
          "id": 13,
          "value": 0.583000004
        }
      ],
      "leftModuleId": 34,
      "rightModuleId": 358,
      "pos": [
        62,
        2
      ]
    },
    {
      "id": 43,
      "plugin": "Autodafe-DrumKit",
      "version": "1.0.0",
      "model": "DrumsKick",
      "params": [
        {
          "id": 0,
          "value": 0.0
        }
      ],
      "leftModuleId": 365,
      "rightModuleId": 19,
      "data": {
        "sampletype": 5
      },
      "pos": [
        61,
        1
      ]
    },
    {
      "id": 44,
      "plugin": "VultModulesFree",
      "version": "1.14",
      "model": "Rescomb",
      "params": [
        {
          "id": 0,
          "value": -0.123200029
        },
        {
          "id": 1,
          "value": 0.274999917
        },
        {
          "id": 2,
          "value": 0.188100308
        },
        {
          "id": 3,
          "value": 0.0
        },
        {
          "id": 4,
          "value": 0.558000088
        }
      ],
      "leftModuleId": 19,
      "rightModuleId": 45,
      "pos": [
        71,
        1
      ]
    },
    {
      "id": 45,
      "plugin": "TinyTricks",
      "version": "1.5.0",
      "model": "SN1",
      "params": [
        {
          "id": 0,
          "value": 1.68381405
        },
        {
          "id": 1,
          "value": 1.0
        },
        {
          "id": 2,
          "value": 0.0
        },
        {
          "id": 3,
          "value": 1.5
        }
      ],
      "leftModuleId": 44,
      "data": {
        "skin": 0,
        "forcebright": false
      },
      "pos": [
        81,
        1
      ]
    },
    {
      "id": 357,
      "plugin": "squinkylabs-plug1",
      "version": "1.0.15",
      "model": "squinkylabs-mix4",
      "params": [
        {
          "id": 0,
          "value": 0.0
        },
        {
          "id": 1,
          "value": 0.0
        },
        {
          "id": 2,
          "value": 0.0
        },
        {
          "id": 3,
          "value": 0.0
        },
        {
          "id": 4,
          "value": 0.0
        },
        {
          "id": 5,
          "value": 0.0
        },
        {
          "id": 6,
          "value": 0.0
        },
        {
          "id": 7,
          "value": 0.0
        },
        {
          "id": 8,
          "value": 0.0
        },
        {
          "id": 9,
          "value": 0.0
        },
        {
          "id": 10,
          "value": 0.0
        },
        {
          "id": 11,
          "value": 0.0
        },
        {
          "id": 12,
          "value": 0.0
        },
        {
          "id": 13,
          "value": 0.0
        },
        {
          "id": 14,
          "value": 0.0
        },
        {
          "id": 15,
          "value": 0.0
        },
        {
          "id": 16,
          "value": 0.0
        },
        {
          "id": 17,
          "value": 0.346500099
        },
        {
          "id": 18,
          "value": 0.0
        },
        {
          "id": 19,
          "value": 0.359999955
        },
        {
          "id": 20,
          "value": 0.400500059
        },
        {
          "id": 21,
          "value": 0.0
        },
        {
          "id": 22,
          "value": 0.0
        },
        {
          "id": 23,
          "value": 0.0
        },
        {
          "id": 24,
          "value": 0.0
        },
        {
          "id": 25,
          "value": 0.0
        },
        {
          "id": 26,
          "value": 0.0
        },
        {
          "id": 27,
          "value": 0.0
        },
        {
          "id": 28,
          "value": 0.0
        },
        {
          "id": 29,
          "value": 0.0
        },
        {
          "id": 30,
          "value": 0.0
        },
        {
          "id": 31,
          "value": 0.0
        }
      ],
      "rightModuleId": 10,
      "pos": [
        31,
        0
      ]
    },
    {
      "id": 358,
      "plugin": "Fundamental",
      "version": "1.4.0",
      "model": "Scope",
      "params": [
        {
          "id": 0,
          "value": 0.0
        },
        {
          "id": 1,
          "value": 0.0
        },
        {
          "id": 2,
          "value": 0.0
        },
        {
          "id": 3,
          "value": 0.0
        },
        {
          "id": 4,
          "value": 14.0
        },
        {
          "id": 5,
          "value": 0.0
        },
        {
          "id": 6,
          "value": 0.0
        },
        {
          "id": 7,
          "value": 0.0
        }
      ],
      "leftModuleId": 41,
      "rightModuleId": 359,
      "data": {
        "lissajous": 0,
        "external": 0
      },
      "pos": [
        70,
        2
      ]
    },
    {
      "id": 359,
      "plugin": "NYSTHI",
      "version": "1.0.17",
      "model": "complexSimpler",
      "params": [
        {
          "id": 0,
          "value": -1.0
        },
        {
          "id": 1,
          "value": 0.0
        },
        {
          "id": 2,
          "value": 0.0
        },
        {
          "id": 3,
          "value": 1.25400019
        },
        {
          "id": 4,
          "value": 1.71994948
        },
        {
          "id": 5,
          "value": 0.0495000444
        },
        {
          "id": 6,
          "value": 0.0
        },
        {
          "id": 7,
          "value": 1.0
        },
        {
          "id": 8,
          "value": 0.0
        },
        {
          "id": 9,
          "value": 0.0
        },
        {
          "id": 10,
          "value": 0.0
        },
        {
          "id": 11,
          "value": 1.0
        },
        {
          "id": 12,
          "value": 2.0
        },
        {
          "id": 13,
          "value": 1.0
        },
        {
          "id": 14,
          "value": 0.0
        },
        {
          "id": 15,
          "value": 0.0
        }
      ],
      "leftModuleId": 358,
      "data": {
        "PARAM_ONESHOT_value": 1.0,
        "m_busy_mode": false,
        "m_autoplay_on_load": true,
        "m_original_file_name": "",
        "m_gated": false,
        "m_cv_can_be_negative": false
      },
      "pos": [
        83,
        2
      ]
    },
    {
      "id": 363,
      "plugin": "Bogaudio",
      "version": "1.1.35",
      "model": "Bogaudio-AddrSeq",
      "params": [
        {
          "id": 0,
          "value": 8.0
        },
        {
          "id": 1,
          "value": 1.0
        },
        {
          "id": 2,
          "value": 4.04884624
        },
        {
          "id": 3,
          "value": 0.283077836
        },
        {
          "id": 4,
          "value": 0.145313621
        },
        {
          "id": 5,
          "value": -0.300381541
        },
        {
          "id": 6,
          "value": 0.869170189
        },
        {
          "id": 7,
          "value": -0.324514747
        },
        {
          "id": 8,
          "value": 0.311023831
        },
        {
          "id": 9,
          "value": -0.484354019
        },
        {
          "id": 10,
          "value": 0.572829247
        }
      ],
      "rightModuleId": 366,
      "data": {
        "poly_input": 0,
        "select_on_clock": false,
        "triggered_select": false,
        "reverse_on_negative_clock": false,
        "range_offset": 0.0,
        "range_scale": 10.0
      },
      "pos": [
        0,
        1
      ]
    },
    {
      "id": 365,
      "plugin": "NANOModules",
      "version": "1.6.0.2",
      "model": "FONT",
      "params": [
        {
          "id": 0,
          "value": 0.271499813
        },
        {
          "id": 1,
          "value": 8.60999203
        },
        {
          "id": 2,
          "value": 0.0
        },
        {
          "id": 3,
          "value": 0.0
        }
      ],
      "leftModuleId": 31,
      "rightModuleId": 43,
      "pos": [
        55,
        1
      ]
    },
    {
      "id": 366,
      "plugin": "Bogaudio",
      "version": "1.1.35",
      "model": "Bogaudio-AddrSeqX",
      "params": [
        {
          "id": 0,
          "value": -0.0542486906
        },
        {
          "id": 1,
          "value": -0.634058833
        },
        {
          "id": 2,
          "value": -0.583476543
        },
        {
          "id": 3,
          "value": -0.247597814
        },
        {
          "id": 4,
          "value": 0.166202426
        },
        {
          "id": 5,
          "value": -0.376737595
        },
        {
          "id": 6,
          "value": 0.873460174
        },
        {
          "id": 7,
          "value": -0.417673469
        }
      ],
      "leftModuleId": 363,
      "rightModuleId": 13,
      "data": {},
      "pos": [
        6,
        1
      ]
    },
    {
      "id": 367,
      "plugin": "VultModulesFree",
      "version": "1.14",
      "model": "Tangents",
      "params": [
        {
          "id": 0,
          "value": 0.397999197
        },
        {
          "id": 1,
          "value": 0.416999996
        },
        {
          "id": 2,
          "value": -0.675000191
        },
        {
          "id": 3,
          "value": 0.0
        },
        {
          "id": 4,
          "value": 0.284999549
        },
        {
          "id": 5,
          "value": 0.0
        },
        {
          "id": 6,
          "value": 0.0
        }
      ],
      "pos": [
        100,
        2
      ]
    }
  ],
  "cables": [
    {
      "id": 10,
      "outputModuleId": 9,
      "outputId": 0,
      "inputModuleId": 11,
      "inputId": 0,
      "color": "#c91847"
    },
    {
      "id": 11,
      "outputModuleId": 9,
      "outputId": 1,
      "inputModuleId": 11,
      "inputId": 1,
      "color": "#0986ad"
    },
    {
      "id": 12,
      "outputModuleId": 9,
      "outputId": 6,
      "inputModuleId": 12,
      "inputId": 0,
      "color": "#c9b70e"
    },
    {
      "id": 13,
      "outputModuleId": 9,
      "outputId": 7,
      "inputModuleId": 12,
      "inputId": 1,
      "color": "#0c8e15"
    },
    {
      "id": 14,
      "outputModuleId": 12,
      "outputId": 0,
      "inputModuleId": 9,
      "inputId": 16,
      "color": "#c91847"
    },
    {
      "id": 15,
      "outputModuleId": 12,
      "outputId": 1,
      "inputModuleId": 9,
      "inputId": 17,
      "color": "#0986ad"
    },
    {
      "id": 62,
      "outputModuleId": 14,
      "outputId": 0,
      "inputModuleId": 24,
      "inputId": 0,
      "color": "#c91847"
    },
    {
      "id": 68,
      "outputModuleId": 28,
      "outputId": 0,
      "inputModuleId": 29,
      "inputId": 0,
      "color": "#0c8e15"
    },
    {
      "id": 79,
      "outputModuleId": 24,
      "outputId": 0,
      "inputModuleId": 32,
      "inputId": 2,
      "color": "#c9b70e"
    },
    {
      "id": 80,
      "outputModuleId": 32,
      "outputId": 0,
      "inputModuleId": 33,
      "inputId": 0,
      "color": "#0c8e15"
    },
    {
      "id": 81,
      "outputModuleId": 33,
      "outputId": 0,
      "inputModuleId": 34,
      "inputId": 0,
      "color": "#c91847"
    },
    {
      "id": 84,
      "outputModuleId": 13,
      "outputId": 9,
      "inputModuleId": 34,
      "inputId": 1,
      "color": "#0c8e15"
    },
    {
      "id": 85,
      "outputModuleId": 13,
      "outputId": 10,
      "inputModuleId": 34,
      "inputId": 2,
      "color": "#c91847"
    },
    {
      "id": 87,
      "outputModuleId": 28,
      "outputId": 0,
      "inputModuleId": 29,
      "inputId": 2,
      "color": "#c9b70e"
    },
    {
      "id": 91,
      "outputModuleId": 35,
      "outputId": 0,
      "inputModuleId": 36,
      "inputId": 0,
      "color": "#c91847"
    },
    {
      "id": 90,
      "outputModuleId": 37,
      "outputId": 0,
      "inputModuleId": 35,
      "inputId": 2,
      "color": "#0c8e15"
    },
    {
      "id": 95,
      "outputModuleId": 21,
      "outputId": 2,
      "inputModuleId": 39,
      "inputId": 4,
      "color": "#c91847"
    },
    {
      "id": 96,
      "outputModuleId": 39,
      "outputId": 6,
      "inputModuleId": 37,
      "inputId": 0,
      "color": "#0986ad"
    },
    {
      "id": 92,
      "outputModuleId": 36,
      "outputId": 0,
      "inputModuleId": 40,
      "inputId": 0,
      "color": "#0986ad"
    },
    {
      "id": 98,
      "outputModuleId": 13,
      "outputId": 7,
      "inputModuleId": 40,
      "inputId": 3,
      "color": "#0c8e15"
    },
    {
      "id": 101,
      "outputModuleId": 13,
      "outputId": 2,
      "inputModuleId": 41,
      "inputId": 5,
      "color": "#0c8e15"
    },
    {
      "id": 99,
      "outputModuleId": 21,
      "outputId": 3,
      "inputModuleId": 41,
      "inputId": 0,
      "color": "#c91847"
    },
    {
      "id": 102,
      "outputModuleId": 21,
      "outputId": 0,
      "inputModuleId": 43,
      "inputId": 0,
      "color": "#c91847"
    },
    {
      "id": 104,
      "outputModuleId": 37,
      "outputId": 0,
      "inputModuleId": 19,
      "inputId": 0,
      "color": "#c9b70e"
    },
    {
      "id": 106,
      "outputModuleId": 13,
      "outputId": 11,
      "inputModuleId": 19,
      "inputId": 3,
      "color": "#c91847"
    },
    {
      "id": 107,
      "outputModuleId": 21,
      "outputId": 0,
      "inputModuleId": 19,
      "inputId": 2,
      "color": "#0986ad"
    },
    {
      "id": 108,
      "outputModuleId": 19,
      "outputId": 0,
      "inputModuleId": 44,
      "inputId": 1,
      "color": "#c9b70e"
    },
    {
      "id": 109,
      "outputModuleId": 13,
      "outputId": 3,
      "inputModuleId": 44,
      "inputId": 3,
      "color": "#0c8e15"
    },
    {
      "id": 110,
      "outputModuleId": 45,
      "outputId": 0,
      "inputModuleId": 44,
      "inputId": 0,
      "color": "#c91847"
    },
    {
      "id": 111,
      "outputModuleId": 45,
      "outputId": 0,
      "inputModuleId": 19,
      "inputId": 6,
      "color": "#0986ad"
    },
    {
      "id": 77,
      "outputModuleId": 13,
      "outputId": 1,
      "inputModuleId": 31,
      "inputId": 0,
      "color": "#c91847"
    },
    {
      "id": 911,
      "outputModuleId": 359,
      "outputId": 0,
      "inputModuleId": 358,
      "inputId": 0,
      "color": "#0c8e15"
    },
    {
      "id": 912,
      "outputModuleId": 359,
      "outputId": 1,
      "inputModuleId": 358,
      "inputId": 1,
      "color": "#c91847"
    },
    {
      "id": 94,
      "outputModuleId": 24,
      "outputId": 0,
      "inputModuleId": 39,
      "inputId": 3,
      "color": "#0c8e15"
    },
    {
      "id": 935,
      "outputModuleId": 21,
      "outputId": 2,
      "inputModuleId": 13,
      "inputId": 0,
      "color": "#0c8e15"
    },
    {
      "id": 70,
      "outputModuleId": 29,
      "outputId": 0,
      "inputModuleId": 31,
      "inputId": 5,
      "color": "#0986ad"
    },
    {
      "id": 940,
      "outputModuleId": 31,
      "outputId": 0,
      "inputModuleId": 365,
      "inputId": 3,
      "color": "#0986ad"
    },
    {
      "id": 943,
      "outputModuleId": 21,
      "outputId": 4,
      "inputModuleId": 363,
      "inputId": 1,
      "color": "#0986ad"
    },
    {
      "id": 946,
      "outputModuleId": 21,
      "outputId": 1,
      "inputModuleId": 363,
      "inputId": 0,
      "color": "#c91847"
    },
    {
      "id": 922,
      "outputModuleId": 367,
      "outputId": 0,
      "inputModuleId": 9,
      "inputId": 2,
      "color": "#c91847"
    },
    {
      "id": 947,
      "outputModuleId": 359,
      "outputId": 0,
      "inputModuleId": 367,
      "inputId": 2,
      "color": "#0986ad"
    },
    {
      "id": 920,
      "outputModuleId": 34,
      "outputId": 2,
      "inputModuleId": 359,
      "inputId": 0,
      "color": "#c9b70e"
    },
    {
      "id": 921,
      "outputModuleId": 40,
      "outputId": 0,
      "inputModuleId": 359,
      "inputId": 1,
      "color": "#c9b70e"
    },
    {
      "id": 948,
      "outputModuleId": 37,
      "outputId": 1,
      "inputModuleId": 359,
      "inputId": 2,
      "color": "#c9b70e"
    },
    {
      "id": 949,
      "outputModuleId": 28,
      "outputId": 0,
      "inputModuleId": 367,
      "inputId": 3,
      "color": "#0c8e15"
    },
    {
      "id": 923,
      "outputModuleId": 359,
      "outputId": 1,
      "inputModuleId": 367,
      "inputId": 0,
      "color": "#0986ad"
    },
    {
      "id": 105,
      "outputModuleId": 44,
      "outputId": 1,
      "inputModuleId": 9,
      "inputId": 1,
      "color": "#0c8e15"
    },
    {
      "id": 103,
      "outputModuleId": 43,
      "outputId": 0,
      "inputModuleId": 10,
      "inputId": 3,
      "color": "#0986ad"
    },
    {
      "id": 100,
      "outputModuleId": 41,
      "outputId": 2,
      "inputModuleId": 10,
      "inputId": 2,
      "color": "#0986ad"
    },
    {
      "id": 97,
      "outputModuleId": 40,
      "outputId": 0,
      "inputModuleId": 10,
      "inputId": 1,
      "color": "#c9b70e"
    },
    {
      "id": 942,
      "outputModuleId": 31,
      "outputId": 1,
      "inputModuleId": 10,
      "inputId": 0,
      "color": "#c91847"
    },
    {
      "id": 950,
      "outputModuleId": 44,
      "outputId": 0,
      "inputModuleId": 29,
      "inputId": 1,
      "color": "#c9b70e"
    },
    {
      "id": 951,
      "outputModuleId": 34,
      "outputId": 0,
      "inputModuleId": 29,
      "inputId": 3,
      "color": "#0c8e15"
    },
    {
      "id": 955,
      "outputModuleId": 21,
      "outputId": 3,
      "inputModuleId": 28,
      "inputId": 4,
      "color": "#0c8e15"
    },
    {
      "id": 956,
      "outputModuleId": 21,
      "outputId": 3,
      "inputModuleId": 31,
      "inputId": 7,
      "color": "#c9b70e"
    },
    {
      "id": 941,
      "outputModuleId": 365,
      "outputId": 0,
      "inputModuleId": 31,
      "inputId": 6,
      "color": "#0c8e15"
    },
    {
      "id": 71,
      "outputModuleId": 13,
      "outputId": 0,
      "inputModuleId": 28,
      "inputId": 3,
      "color": "#c9b70e"
    },
    {
      "id": 957,
      "outputModuleId": 14,
      "outputId": 6,
      "inputModuleId": 28,
      "inputId": 0,
      "color": "#0c8e15"
    },
    {
      "id": 928,
      "outputModuleId": 363,
      "outputId": 0,
      "inputModuleId": 14,
      "inputId": 0,
      "color": "#c91847"
    }
  ]
}