{
  "version": "1.1.6",
  "modules": [
    {
      "id": 9,
      "plugin": "squinkylabs-plug1",
      "version": "1.0.5",
      "model": "squinkylabs-mixm",
      "params": [
        {
          "id": 0,
          "value": 0.647999942
        },
        {
          "id": 1,
          "value": 0.0
        },
        {
          "id": 2,
          "value": 0.294000149
        },
        {
          "id": 3,
          "value": 0.0
        },
        {
          "id": 4,
          "value": 0.0
        },
        {
          "id": 5,
          "value": 0.0
        },
        {
          "id": 6,
          "value": 0.0
        },
        {
          "id": 7,
          "value": 0.0
        },
        {
          "id": 8,
          "value": 0.0
        },
        {
          "id": 9,
          "value": 0.0
        },
        {
          "id": 10,
          "value": 0.0
        },
        {
          "id": 11,
          "value": 0.0
        },
        {
          "id": 12,
          "value": 0.0
        },
        {
          "id": 13,
          "value": 0.0
        },
        {
          "id": 14,
          "value": 0.0
        },
        {
          "id": 15,
          "value": 0.0
        },
        {
          "id": 16,
          "value": 0.0
        },
        {
          "id": 17,
          "value": 0.0
        },
        {
          "id": 18,
          "value": 0.0
        },
        {
          "id": 19,
          "value": 0.358500034
        },
        {
          "id": 20,
          "value": 0.0
        },
        {
          "id": 21,
          "value": 0.0
        },
        {
          "id": 22,
          "value": 0.0
        },
        {
          "id": 23,
          "value": 0.0
        },
        {
          "id": 24,
          "value": 0.0
        },
        {
          "id": 25,
          "value": 0.0
        },
        {
          "id": 26,
          "value": 0.0
        },
        {
          "id": 27,
          "value": 0.0
        },
        {
          "id": 28,
          "value": 0.0
        },
        {
          "id": 29,
          "value": 0.486000091
        },
        {
          "id": 30,
          "value": 0.0
        },
        {
          "id": 31,
          "value": 0.0
        },
        {
          "id": 32,
          "value": 0.0
        },
        {
          "id": 33,
          "value": 0.0
        },
        {
          "id": 34,
          "value": 0.0
        },
        {
          "id": 35,
          "value": 0.0
        },
        {
          "id": 36,
          "value": 0.0
        }
      ],
      "leftModuleId": 10,
      "rightModuleId": 12,
      "pos": [
        68,
        0
      ]
    },
    {
      "id": 10,
      "plugin": "squinkylabs-plug1",
      "version": "1.0.5",
      "model": "squinkylabs-mix4",
      "params": [
        {
          "id": 0,
          "value": 0.0899999514
        },
        {
          "id": 1,
          "value": 0.126000017
        },
        {
          "id": 2,
          "value": 0.364499927
        },
        {
          "id": 3,
          "value": 0.358500093
        },
        {
          "id": 4,
          "value": 0.0
        },
        {
          "id": 5,
          "value": 0.0
        },
        {
          "id": 6,
          "value": 0.0
        },
        {
          "id": 7,
          "value": 0.0
        },
        {
          "id": 8,
          "value": 0.0
        },
        {
          "id": 9,
          "value": 0.0
        },
        {
          "id": 10,
          "value": 0.0
        },
        {
          "id": 11,
          "value": 0.0
        },
        {
          "id": 12,
          "value": 0.0
        },
        {
          "id": 13,
          "value": 0.0
        },
        {
          "id": 14,
          "value": 0.0
        },
        {
          "id": 15,
          "value": 0.0
        },
        {
          "id": 16,
          "value": 0.0
        },
        {
          "id": 17,
          "value": 0.311999947
        },
        {
          "id": 18,
          "value": 0.315000057
        },
        {
          "id": 19,
          "value": 0.0
        },
        {
          "id": 20,
          "value": 0.0
        },
        {
          "id": 21,
          "value": 0.0
        },
        {
          "id": 22,
          "value": 0.0
        },
        {
          "id": 23,
          "value": 0.0
        },
        {
          "id": 24,
          "value": 0.0
        },
        {
          "id": 25,
          "value": 0.0
        },
        {
          "id": 26,
          "value": 0.0
        },
        {
          "id": 27,
          "value": 0.0
        },
        {
          "id": 28,
          "value": 0.0
        },
        {
          "id": 29,
          "value": 0.0
        },
        {
          "id": 30,
          "value": 0.0
        },
        {
          "id": 31,
          "value": 0.0
        }
      ],
      "rightModuleId": 9,
      "pos": [
        58,
        0
      ]
    },
    {
      "id": 11,
      "plugin": "Core",
      "version": "1.1.6",
      "model": "AudioInterface",
      "params": [],
      "leftModuleId": 12,
      "data": {
        "audio": {
          "driver": 4,
          "deviceName": "system",
          "offset": 0,
          "maxChannels": 8,
          "sampleRate": 48000,
          "blockSize": 1024
        }
      },
      "pos": [
        97,
        0
      ]
    },
    {
      "id": 12,
      "plugin": "Valley",
      "version": "1.0.1",
      "model": "Plateau",
      "params": [
        {
          "id": 0,
          "value": 1.0
        },
        {
          "id": 1,
          "value": 0.5
        },
        {
          "id": 2,
          "value": 0.0
        },
        {
          "id": 3,
          "value": 10.0
        },
        {
          "id": 4,
          "value": 10.0
        },
        {
          "id": 5,
          "value": 0.5
        },
        {
          "id": 6,
          "value": 10.0
        },
        {
          "id": 7,
          "value": 0.549950004
        },
        {
          "id": 8,
          "value": 10.0
        },
        {
          "id": 9,
          "value": 10.0
        },
        {
          "id": 10,
          "value": 0.0
        },
        {
          "id": 11,
          "value": 0.5
        },
        {
          "id": 12,
          "value": 0.5
        },
        {
          "id": 13,
          "value": 0.0
        },
        {
          "id": 14,
          "value": 0.0
        },
        {
          "id": 15,
          "value": 0.0
        },
        {
          "id": 16,
          "value": 0.0
        },
        {
          "id": 17,
          "value": 0.0
        },
        {
          "id": 18,
          "value": 0.0
        },
        {
          "id": 19,
          "value": 0.0
        },
        {
          "id": 20,
          "value": 0.0
        },
        {
          "id": 21,
          "value": 0.0
        },
        {
          "id": 22,
          "value": 0.0
        },
        {
          "id": 23,
          "value": 0.0
        },
        {
          "id": 24,
          "value": 0.0
        },
        {
          "id": 25,
          "value": 0.0
        },
        {
          "id": 26,
          "value": 0.0
        },
        {
          "id": 27,
          "value": 0.0
        },
        {
          "id": 28,
          "value": 0.0
        },
        {
          "id": 29,
          "value": 0.0
        },
        {
          "id": 30,
          "value": 1.0
        }
      ],
      "leftModuleId": 9,
      "rightModuleId": 11,
      "data": {
        "frozen": false,
        "freezeToggle": false,
        "panelStyle": 0,
        "tuned": 0,
        "diffuseInput": 1,
        "preDelayCVSens": 0,
        "inputSensitivity": 0,
        "outputSaturation": 0
      },
      "pos": [
        85,
        0
      ]
    },
    {
      "id": 48,
      "plugin": "ImpromptuModular",
      "version": "1.1.2",
      "model": "Clocked",
      "params": [
        {
          "id": 0,
          "value": 120.0
        },
        {
          "id": 1,
          "value": 5.0
        },
        {
          "id": 2,
          "value": 0.0
        },
        {
          "id": 3,
          "value": -5.0
        },
        {
          "id": 4,
          "value": 0.0
        },
        {
          "id": 5,
          "value": 0.0
        },
        {
          "id": 6,
          "value": 0.0
        },
        {
          "id": 7,
          "value": 0.0
        },
        {
          "id": 8,
          "value": 0.5
        },
        {
          "id": 9,
          "value": 0.5
        },
        {
          "id": 10,
          "value": 0.5
        },
        {
          "id": 11,
          "value": 0.5
        },
        {
          "id": 12,
          "value": 0.0
        },
        {
          "id": 13,
          "value": 0.0
        },
        {
          "id": 14,
          "value": 0.0
        },
        {
          "id": 15,
          "value": 0.0
        },
        {
          "id": 16,
          "value": 0.0
        },
        {
          "id": 17,
          "value": 0.0
        },
        {
          "id": 18,
          "value": 0.0
        },
        {
          "id": 19,
          "value": 0.0
        }
      ],
      "data": {
        "panelTheme": 1,
        "running": true,
        "displayDelayNoteMode": true,
        "bpmDetectionMode": false,
        "restartOnStopStartRun": 0,
        "sendResetOnRestart": false,
        "ppqn": 4,
        "resetClockOutputsHigh": true
      },
      "pos": [
        24,
        0
      ]
    },
    {
      "id": 49,
      "plugin": "ML_modules",
      "version": "1.0.3",
      "model": "Quantum",
      "params": [
        {
          "id": 0,
          "value": 0.0
        },
        {
          "id": 1,
          "value": 0.0
        },
        {
          "id": 2,
          "value": 0.0
        },
        {
          "id": 3,
          "value": 0.0
        },
        {
          "id": 4,
          "value": 0.0
        },
        {
          "id": 5,
          "value": 0.0
        },
        {
          "id": 6,
          "value": 0.0
        },
        {
          "id": 7,
          "value": 0.0
        },
        {
          "id": 8,
          "value": 0.0
        },
        {
          "id": 9,
          "value": 0.0
        },
        {
          "id": 10,
          "value": 0.0
        },
        {
          "id": 11,
          "value": 0.0
        }
      ],
      "leftModuleId": 56,
      "rightModuleId": 54,
      "data": {
        "scale": [
          1,
          0,
          1,
          0,
          1,
          0,
          0,
          1,
          0,
          0,
          0,
          1
        ],
        "mode": 1,
        "transpose_select": 1,
        "toggle_mode": 0
      },
      "pos": [
        23,
        1
      ]
    },
    {
      "id": 50,
      "plugin": "ML_modules",
      "version": "1.0.3",
      "model": "Constants",
      "params": [],
      "leftModuleId": 54,
      "rightModuleId": 51,
      "pos": [
        39,
        1
      ]
    },
    {
      "id": 51,
      "plugin": "ML_modules",
      "version": "1.0.3",
      "model": "SeqSwitch",
      "params": [
        {
          "id": 0,
          "value": 8.0
        },
        {
          "id": 1,
          "value": 0.0
        },
        {
          "id": 2,
          "value": 0.0
        },
        {
          "id": 3,
          "value": 0.0
        },
        {
          "id": 4,
          "value": 0.0
        },
        {
          "id": 5,
          "value": 0.0
        },
        {
          "id": 6,
          "value": 0.0
        },
        {
          "id": 7,
          "value": 0.0
        },
        {
          "id": 8,
          "value": 0.0
        }
      ],
      "leftModuleId": 50,
      "rightModuleId": 57,
      "data": {
        "inputRange": 0
      },
      "pos": [
        45,
        1
      ]
    },
    {
      "id": 53,
      "plugin": "Bogaudio",
      "version": "1.1.23",
      "model": "Bogaudio-FMOp",
      "params": [
        {
          "id": 0,
          "value": 0.0
        },
        {
          "id": 1,
          "value": 0.0
        },
        {
          "id": 2,
          "value": 0.0539999865
        },
        {
          "id": 3,
          "value": 0.836500049
        },
        {
          "id": 4,
          "value": 0.171000004
        },
        {
          "id": 5,
          "value": 0.689730048
        },
        {
          "id": 6,
          "value": 0.0
        },
        {
          "id": 7,
          "value": 0.012000001
        },
        {
          "id": 8,
          "value": 1.0
        },
        {
          "id": 9,
          "value": 0.0
        },
        {
          "id": 10,
          "value": 0.0
        },
        {
          "id": 11,
          "value": 0.0
        }
      ],
      "leftModuleId": 59,
      "rightModuleId": 58,
      "data": {
        "linearLevel": false
      },
      "pos": [
        61,
        1
      ]
    },
    {
      "id": 54,
      "plugin": "ML_modules",
      "version": "1.0.3",
      "model": "Quantum",
      "params": [
        {
          "id": 0,
          "value": 0.0
        },
        {
          "id": 1,
          "value": 0.0
        },
        {
          "id": 2,
          "value": 0.0
        },
        {
          "id": 3,
          "value": 0.0
        },
        {
          "id": 4,
          "value": 0.0
        },
        {
          "id": 5,
          "value": 0.0
        },
        {
          "id": 6,
          "value": 0.0
        },
        {
          "id": 7,
          "value": 0.0
        },
        {
          "id": 8,
          "value": 0.0
        },
        {
          "id": 9,
          "value": 0.0
        },
        {
          "id": 10,
          "value": 0.0
        },
        {
          "id": 11,
          "value": 0.0
        }
      ],
      "leftModuleId": 49,
      "rightModuleId": 50,
      "data": {
        "scale": [
          0,
          0,
          0,
          0,
          0,
          0,
          0,
          0,
          0,
          0,
          0,
          0
        ],
        "mode": 1,
        "transpose_select": 1,
        "toggle_mode": 0
      },
      "pos": [
        31,
        1
      ]
    },
    {
      "id": 55,
      "plugin": "StellareModular",
      "version": "1.0.0",
      "model": "TuringMachine",
      "params": [
        {
          "id": 0,
          "value": 0.613999784
        },
        {
          "id": 1,
          "value": 0.388999969
        },
        {
          "id": 2,
          "value": 0.682999969
        },
        {
          "id": 3,
          "value": 0.6844998
        },
        {
          "id": 4,
          "value": 0.376999885
        },
        {
          "id": 5,
          "value": 0.894999743
        },
        {
          "id": 6,
          "value": 7.0
        },
        {
          "id": 7,
          "value": 0.171499923
        },
        {
          "id": 8,
          "value": 0.0
        },
        {
          "id": 9,
          "value": 0.0
        },
        {
          "id": 10,
          "value": 0.0
        },
        {
          "id": 11,
          "value": 0.0
        },
        {
          "id": 12,
          "value": 0.0
        }
      ],
      "rightModuleId": 56,
      "data": {
        "pulses_mode": 0
      },
      "pos": [
        0,
        1
      ]
    },
    {
      "id": 56,
      "plugin": "Fundamental",
      "version": "1.4.0",
      "model": "Merge",
      "params": [],
      "leftModuleId": 55,
      "rightModuleId": 49,
      "data": {
        "channels": -1
      },
      "pos": [
        18,
        1
      ]
    },
    {
      "id": 57,
      "plugin": "Fundamental",
      "version": "1.4.0",
      "model": "Split",
      "params": [],
      "leftModuleId": 51,
      "rightModuleId": 59,
      "pos": [
        53,
        1
      ]
    },
    {
      "id": 58,
      "plugin": "Bogaudio",
      "version": "1.1.23",
      "model": "Bogaudio-FMOp",
      "params": [
        {
          "id": 0,
          "value": 0.0
        },
        {
          "id": 1,
          "value": 0.0
        },
        {
          "id": 2,
          "value": 0.0539999865
        },
        {
          "id": 3,
          "value": 0.836500049
        },
        {
          "id": 4,
          "value": 0.171000004
        },
        {
          "id": 5,
          "value": 0.689730048
        },
        {
          "id": 6,
          "value": 0.0
        },
        {
          "id": 7,
          "value": 0.289500058
        },
        {
          "id": 8,
          "value": 1.0
        },
        {
          "id": 9,
          "value": 0.0
        },
        {
          "id": 10,
          "value": 0.0
        },
        {
          "id": 11,
          "value": 0.0
        }
      ],
      "leftModuleId": 53,
      "data": {
        "linearLevel": false
      },
      "pos": [
        71,
        1
      ]
    },
    {
      "id": 59,
      "plugin": "Bogaudio",
      "version": "1.1.23",
      "model": "Bogaudio-Stack",
      "params": [
        {
          "id": 0,
          "value": 0.0
        },
        {
          "id": 1,
          "value": -1.0
        },
        {
          "id": 2,
          "value": 0.0
        },
        {
          "id": 3,
          "value": 1.0
        }
      ],
      "leftModuleId": 57,
      "rightModuleId": 53,
      "pos": [
        58,
        1
      ]
    },
    {
      "id": 60,
      "plugin": "AudibleInstruments",
      "version": "1.0.0",
      "model": "Kinks",
      "params": [],
      "leftModuleId": 65,
      "rightModuleId": 63,
      "pos": [
        89,
        1
      ]
    },
    {
      "id": 61,
      "plugin": "Bogaudio",
      "version": "1.1.23",
      "model": "Bogaudio-FMOp",
      "params": [
        {
          "id": 0,
          "value": 0.0
        },
        {
          "id": 1,
          "value": 0.0
        },
        {
          "id": 2,
          "value": 0.0539999865
        },
        {
          "id": 3,
          "value": 0.836500049
        },
        {
          "id": 4,
          "value": 0.171000004
        },
        {
          "id": 5,
          "value": 0.689730048
        },
        {
          "id": 6,
          "value": 0.0
        },
        {
          "id": 7,
          "value": 0.337499946
        },
        {
          "id": 8,
          "value": 1.0
        },
        {
          "id": 9,
          "value": 1.0
        },
        {
          "id": 10,
          "value": 0.0
        },
        {
          "id": 11,
          "value": 0.0
        }
      ],
      "leftModuleId": 62,
      "data": {
        "linearLevel": false
      },
      "pos": [
        99,
        1
      ]
    },
    {
      "id": 62,
      "plugin": "Bogaudio",
      "version": "1.1.23",
      "model": "Bogaudio-Slew",
      "params": [
        {
          "id": 0,
          "value": 0.707730174
        },
        {
          "id": 1,
          "value": 0.0
        },
        {
          "id": 2,
          "value": 0.752729893
        },
        {
          "id": 3,
          "value": 0.0
        }
      ],
      "leftModuleId": 63,
      "rightModuleId": 61,
      "pos": [
        96,
        1
      ]
    },
    {
      "id": 63,
      "plugin": "Bogaudio",
      "version": "1.1.23",
      "model": "Bogaudio-Stack",
      "params": [
        {
          "id": 0,
          "value": 7.0
        },
        {
          "id": 1,
          "value": -3.0
        },
        {
          "id": 2,
          "value": 0.0
        },
        {
          "id": 3,
          "value": 1.0
        }
      ],
      "leftModuleId": 60,
      "rightModuleId": 62,
      "pos": [
        93,
        1
      ]
    },
    {
      "id": 64,
      "plugin": "TinyTricks",
      "version": "1.4.0",
      "model": "MG1",
      "params": [
        {
          "id": 0,
          "value": 1.0
        },
        {
          "id": 1,
          "value": 0.673000097
        },
        {
          "id": 2,
          "value": 0.0
        },
        {
          "id": 3,
          "value": 1.0
        }
      ],
      "rightModuleId": 65,
      "pos": [
        83,
        1
      ]
    },
    {
      "id": 65,
      "plugin": "Fundamental",
      "version": "1.4.0",
      "model": "VCA-1",
      "params": [
        {
          "id": 0,
          "value": 0.584500194
        },
        {
          "id": 1,
          "value": 1.0
        }
      ],
      "leftModuleId": 64,
      "rightModuleId": 60,
      "pos": [
        86,
        1
      ]
    },
    {
      "id": 66,
      "plugin": "VultModulesFree",
      "version": "1.6.0",
      "model": "Basal",
      "params": [
        {
          "id": 0,
          "value": 0.0
        },
        {
          "id": 1,
          "value": -0.492999732
        },
        {
          "id": 2,
          "value": 0.133500099
        },
        {
          "id": 3,
          "value": 0.0
        },
        {
          "id": 4,
          "value": 0.0
        },
        {
          "id": 5,
          "value": 0.0
        }
      ],
      "rightModuleId": 67,
      "pos": [
        24,
        2
      ]
    },
    {
      "id": 67,
      "plugin": "VultModulesFree",
      "version": "1.6.0",
      "model": "Lateralus",
      "params": [
        {
          "id": 0,
          "value": 0.411500007
        },
        {
          "id": 1,
          "value": 0.655500054
        },
        {
          "id": 2,
          "value": 0.294
        },
        {
          "id": 3,
          "value": 0.0
        },
        {
          "id": 4,
          "value": 1.41900003
        },
        {
          "id": 5,
          "value": 0.0
        },
        {
          "id": 6,
          "value": 0.0
        }
      ],
      "leftModuleId": 66,
      "pos": [
        30,
        2
      ]
    },
    {
      "id": 68,
      "plugin": "Bogaudio",
      "version": "1.1.23",
      "model": "Bogaudio-LLFO",
      "params": [
        {
          "id": 0,
          "value": 0.0
        },
        {
          "id": 1,
          "value": 1.0
        },
        {
          "id": 2,
          "value": 0.0
        },
        {
          "id": 3,
          "value": 0.0
        },
        {
          "id": 4,
          "value": 1.0
        }
      ],
      "pos": [
        42,
        2
      ]
    },
    {
      "id": 70,
      "plugin": "Fundamental",
      "version": "1.4.0",
      "model": "Delay",
      "params": [
        {
          "id": 0,
          "value": 0.126000032
        },
        {
          "id": 1,
          "value": 1.0
        },
        {
          "id": 2,
          "value": 0.650500357
        },
        {
          "id": 3,
          "value": 1.0
        }
      ],
      "leftModuleId": 74,
      "rightModuleId": 73,
      "pos": [
        88,
        2
      ]
    },
    {
      "id": 73,
      "plugin": "Fundamental",
      "version": "1.4.0",
      "model": "Scope",
      "params": [
        {
          "id": 0,
          "value": -2.0
        },
        {
          "id": 1,
          "value": 0.0
        },
        {
          "id": 2,
          "value": 0.0
        },
        {
          "id": 3,
          "value": 0.0
        },
        {
          "id": 4,
          "value": 11.8650055
        },
        {
          "id": 5,
          "value": 0.0
        },
        {
          "id": 6,
          "value": 0.0
        },
        {
          "id": 7,
          "value": 0.0
        }
      ],
      "leftModuleId": 70,
      "data": {
        "lissajous": 0,
        "external": 0
      },
      "pos": [
        96,
        2
      ]
    },
    {
      "id": 74,
      "plugin": "Bogaudio",
      "version": "1.1.23",
      "model": "Bogaudio-AddrSeq",
      "params": [
        {
          "id": 0,
          "value": 2.0
        },
        {
          "id": 1,
          "value": 1.0
        },
        {
          "id": 2,
          "value": 0.0
        },
        {
          "id": 3,
          "value": 0.930999696
        },
        {
          "id": 4,
          "value": -0.162000477
        },
        {
          "id": 5,
          "value": 0.0
        },
        {
          "id": 6,
          "value": 0.0
        },
        {
          "id": 7,
          "value": 0.0
        },
        {
          "id": 8,
          "value": 0.0
        },
        {
          "id": 9,
          "value": 0.0
        },
        {
          "id": 10,
          "value": 0.0
        }
      ],
      "rightModuleId": 70,
      "data": {
        "select_on_clock": false,
        "range_offset": 1.0,
        "range_scale": 0.5
      },
      "pos": [
        82,
        2
      ]
    }
  ],
  "cables": [
    {
      "id": 10,
      "outputModuleId": 9,
      "outputId": 0,
      "inputModuleId": 11,
      "inputId": 0,
      "color": "#c91847"
    },
    {
      "id": 11,
      "outputModuleId": 9,
      "outputId": 1,
      "inputModuleId": 11,
      "inputId": 1,
      "color": "#0986ad"
    },
    {
      "id": 12,
      "outputModuleId": 9,
      "outputId": 6,
      "inputModuleId": 12,
      "inputId": 0,
      "color": "#c9b70e"
    },
    {
      "id": 13,
      "outputModuleId": 9,
      "outputId": 7,
      "inputModuleId": 12,
      "inputId": 1,
      "color": "#0c8e15"
    },
    {
      "id": 14,
      "outputModuleId": 12,
      "outputId": 0,
      "inputModuleId": 9,
      "inputId": 16,
      "color": "#c91847"
    },
    {
      "id": 15,
      "outputModuleId": 12,
      "outputId": 1,
      "inputModuleId": 9,
      "inputId": 17,
      "color": "#0986ad"
    },
    {
      "id": 116,
      "outputModuleId": 49,
      "outputId": 1,
      "inputModuleId": 53,
      "inputId": 5,
      "color": "#c91847"
    },
    {
      "id": 119,
      "outputModuleId": 50,
      "outputId": 12,
      "inputModuleId": 51,
      "inputId": 2,
      "color": "#0c8e15"
    },
    {
      "id": 121,
      "outputModuleId": 48,
      "outputId": 3,
      "inputModuleId": 51,
      "inputId": 9,
      "color": "#0986ad"
    },
    {
      "id": 118,
      "outputModuleId": 50,
      "outputId": 9,
      "inputModuleId": 51,
      "inputId": 0,
      "color": "#c9b70e"
    },
    {
      "id": 120,
      "outputModuleId": 51,
      "outputId": 0,
      "inputModuleId": 54,
      "inputId": 0,
      "color": "#c91847"
    },
    {
      "id": 122,
      "outputModuleId": 54,
      "outputId": 0,
      "inputModuleId": 49,
      "inputId": 1,
      "color": "#c9b70e"
    },
    {
      "id": 123,
      "outputModuleId": 48,
      "outputId": 1,
      "inputModuleId": 55,
      "inputId": 0,
      "color": "#0c8e15"
    },
    {
      "id": 124,
      "outputModuleId": 55,
      "outputId": 12,
      "inputModuleId": 56,
      "inputId": 0,
      "color": "#c91847"
    },
    {
      "id": 125,
      "outputModuleId": 56,
      "outputId": 0,
      "inputModuleId": 49,
      "inputId": 0,
      "color": "#0986ad"
    },
    {
      "id": 126,
      "outputModuleId": 55,
      "outputId": 14,
      "inputModuleId": 56,
      "inputId": 1,
      "color": "#c9b70e"
    },
    {
      "id": 112,
      "outputModuleId": 49,
      "outputId": 0,
      "inputModuleId": 57,
      "inputId": 0,
      "color": "#c91847"
    },
    {
      "id": 129,
      "outputModuleId": 58,
      "outputId": 0,
      "inputModuleId": 10,
      "inputId": 1,
      "color": "#0986ad"
    },
    {
      "id": 128,
      "outputModuleId": 57,
      "outputId": 1,
      "inputModuleId": 58,
      "inputId": 4,
      "color": "#c91847"
    },
    {
      "id": 115,
      "outputModuleId": 53,
      "outputId": 0,
      "inputModuleId": 10,
      "inputId": 0,
      "color": "#0c8e15"
    },
    {
      "id": 127,
      "outputModuleId": 57,
      "outputId": 0,
      "inputModuleId": 59,
      "inputId": 1,
      "color": "#0c8e15"
    },
    {
      "id": 130,
      "outputModuleId": 59,
      "outputId": 1,
      "inputModuleId": 53,
      "inputId": 4,
      "color": "#c9b70e"
    },
    {
      "id": 131,
      "outputModuleId": 48,
      "outputId": 3,
      "inputModuleId": 60,
      "inputId": 4,
      "color": "#0c8e15"
    },
    {
      "id": 133,
      "outputModuleId": 61,
      "outputId": 0,
      "inputModuleId": 10,
      "inputId": 2,
      "color": "#0986ad"
    },
    {
      "id": 134,
      "outputModuleId": 48,
      "outputId": 3,
      "inputModuleId": 61,
      "inputId": 5,
      "color": "#c9b70e"
    },
    {
      "id": 136,
      "outputModuleId": 60,
      "outputId": 2,
      "inputModuleId": 60,
      "inputId": 3,
      "color": "#c91847"
    },
    {
      "id": 135,
      "outputModuleId": 49,
      "outputId": 0,
      "inputModuleId": 60,
      "inputId": 0,
      "color": "#0c8e15"
    },
    {
      "id": 132,
      "outputModuleId": 60,
      "outputId": 6,
      "inputModuleId": 63,
      "inputId": 1,
      "color": "#c91847"
    },
    {
      "id": 137,
      "outputModuleId": 63,
      "outputId": 1,
      "inputModuleId": 62,
      "inputId": 2,
      "color": "#0986ad"
    },
    {
      "id": 138,
      "outputModuleId": 62,
      "outputId": 0,
      "inputModuleId": 61,
      "inputId": 4,
      "color": "#c9b70e"
    },
    {
      "id": 140,
      "outputModuleId": 48,
      "outputId": 3,
      "inputModuleId": 64,
      "inputId": 0,
      "color": "#c91847"
    },
    {
      "id": 139,
      "outputModuleId": 64,
      "outputId": 0,
      "inputModuleId": 65,
      "inputId": 1,
      "color": "#0c8e15"
    },
    {
      "id": 141,
      "outputModuleId": 65,
      "outputId": 0,
      "inputModuleId": 61,
      "inputId": 2,
      "color": "#0986ad"
    },
    {
      "id": 142,
      "outputModuleId": 65,
      "outputId": 0,
      "inputModuleId": 58,
      "inputId": 6,
      "color": "#c9b70e"
    },
    {
      "id": 144,
      "outputModuleId": 50,
      "outputId": 10,
      "inputModuleId": 51,
      "inputId": 4,
      "color": "#c91847"
    },
    {
      "id": 145,
      "outputModuleId": 50,
      "outputId": 4,
      "inputModuleId": 51,
      "inputId": 5,
      "color": "#0986ad"
    },
    {
      "id": 146,
      "outputModuleId": 50,
      "outputId": 5,
      "inputModuleId": 51,
      "inputId": 6,
      "color": "#c9b70e"
    },
    {
      "id": 147,
      "outputModuleId": 50,
      "outputId": 6,
      "inputModuleId": 51,
      "inputId": 7,
      "color": "#0c8e15"
    },
    {
      "id": 149,
      "outputModuleId": 66,
      "outputId": 0,
      "inputModuleId": 67,
      "inputId": 0,
      "color": "#0986ad"
    },
    {
      "id": 150,
      "outputModuleId": 67,
      "outputId": 0,
      "inputModuleId": 10,
      "inputId": 3,
      "color": "#c9b70e"
    },
    {
      "id": 148,
      "outputModuleId": 54,
      "outputId": 0,
      "inputModuleId": 66,
      "inputId": 0,
      "color": "#c91847"
    },
    {
      "id": 151,
      "outputModuleId": 68,
      "outputId": 0,
      "inputModuleId": 67,
      "inputId": 1,
      "color": "#0c8e15"
    },
    {
      "id": 157,
      "outputModuleId": 70,
      "outputId": 0,
      "inputModuleId": 9,
      "inputId": 0,
      "color": "#c9b70e"
    },
    {
      "id": 156,
      "outputModuleId": 48,
      "outputId": 3,
      "inputModuleId": 70,
      "inputId": 4,
      "color": "#0986ad"
    },
    {
      "id": 158,
      "outputModuleId": 70,
      "outputId": 0,
      "inputModuleId": 73,
      "inputId": 0,
      "color": "#0c8e15"
    },
    {
      "id": 164,
      "outputModuleId": 68,
      "outputId": 0,
      "inputModuleId": 70,
      "inputId": 2,
      "color": "#0986ad"
    },
    {
      "id": 159,
      "outputModuleId": 74,
      "outputId": 0,
      "inputModuleId": 70,
      "inputId": 0,
      "color": "#0c8e15"
    },
    {
      "id": 165,
      "outputModuleId": 48,
      "outputId": 3,
      "inputModuleId": 74,
      "inputId": 0,
      "color": "#0c8e15"
    },
    {
      "id": 168,
      "outputModuleId": 48,
      "outputId": 4,
      "inputModuleId": 74,
      "inputId": 1,
      "color": "#c9b70e"
    },
    {
      "id": 169,
      "outputModuleId": 48,
      "outputId": 4,
      "inputModuleId": 68,
      "inputId": 1,
      "color": "#0c8e15"
    },
    {
      "id": 170,
      "outputModuleId": 48,
      "outputId": 4,
      "inputModuleId": 55,
      "inputId": 1,
      "color": "#c91847"
    },
    {
      "id": 171,
      "outputModuleId": 48,
      "outputId": 4,
      "inputModuleId": 54,
      "inputId": 4,
      "color": "#0986ad"
    },
    {
      "id": 172,
      "outputModuleId": 48,
      "outputId": 4,
      "inputModuleId": 51,
      "inputId": 11,
      "color": "#c9b70e"
    }
  ]
}