{
  "version": "1.1.4",
  "modules": [
    {
      "id": 5,
      "plugin": "SubmarineFree",
      "version": "1.0.4",
      "model": "FF-212",
      "params": [],
      "leftModuleId": 24,
      "rightModuleId": 16,
      "data": {
        "voltage0": 0.0,
        "voltage1": 10.0
      },
      "pos": [
        78,
        1
      ]
    },
    {
      "id": 6,
      "plugin": "CharredDesert",
      "version": "1.1.0",
      "model": "Oscar2",
      "params": [
        {
          "id": 0,
          "value": 1.0
        },
        {
          "id": 1,
          "value": 1.0
        },
        {
          "id": 2,
          "value": 0.0
        },
        {
          "id": 3,
          "value": 6.93000126
        },
        {
          "id": 4,
          "value": -2.0
        },
        {
          "id": 5,
          "value": 2.0
        },
        {
          "id": 6,
          "value": 0.0
        },
        {
          "id": 7,
          "value": 0.0
        },
        {
          "id": 8,
          "value": 1.25000095
        },
        {
          "id": 9,
          "value": 3.2549994
        },
        {
          "id": 10,
          "value": 2.53499985
        },
        {
          "id": 11,
          "value": 1.0
        },
        {
          "id": 12,
          "value": 1.0
        }
      ],
      "leftModuleId": 10,
      "rightModuleId": 9,
      "pos": [
        16,
        0
      ]
    },
    {
      "id": 7,
      "plugin": "CharredDesert",
      "version": "1.1.0",
      "model": "Mixer",
      "params": [
        {
          "id": 0,
          "value": 0.197199762
        },
        {
          "id": 1,
          "value": 0.182799697
        },
        {
          "id": 2,
          "value": 0.144000009
        },
        {
          "id": 3,
          "value": 0.107999995
        },
        {
          "id": 4,
          "value": 0.474399805
        },
        {
          "id": 5,
          "value": 1.0
        },
        {
          "id": 6,
          "value": 0.994799972
        },
        {
          "id": 7,
          "value": 0.351999909
        },
        {
          "id": 8,
          "value": 0.5
        },
        {
          "id": 9,
          "value": 0.5
        },
        {
          "id": 10,
          "value": 0.5
        },
        {
          "id": 11,
          "value": 0.5
        },
        {
          "id": 12,
          "value": 0.5
        },
        {
          "id": 13,
          "value": 0.5
        },
        {
          "id": 14,
          "value": 0.5
        },
        {
          "id": 15,
          "value": 0.5
        },
        {
          "id": 16,
          "value": 0.0
        },
        {
          "id": 17,
          "value": 0.0
        },
        {
          "id": 18,
          "value": 0.0
        },
        {
          "id": 19,
          "value": 0.0
        },
        {
          "id": 20,
          "value": 0.0
        },
        {
          "id": 21,
          "value": 0.0
        },
        {
          "id": 22,
          "value": 0.0
        },
        {
          "id": 23,
          "value": 0.0
        },
        {
          "id": 24,
          "value": 0.0
        },
        {
          "id": 25,
          "value": 0.0
        },
        {
          "id": 26,
          "value": 0.0
        },
        {
          "id": 27,
          "value": 0.0
        },
        {
          "id": 28,
          "value": 0.0
        },
        {
          "id": 29,
          "value": 0.0
        },
        {
          "id": 30,
          "value": 0.0
        },
        {
          "id": 31,
          "value": 0.0
        },
        {
          "id": 32,
          "value": 1.0
        },
        {
          "id": 33,
          "value": 1.0
        },
        {
          "id": 34,
          "value": 0.0
        },
        {
          "id": 35,
          "value": 0.0
        }
      ],
      "leftModuleId": 29,
      "rightModuleId": 8,
      "data": {
        "mute": [
          false,
          false,
          false,
          false,
          false,
          false,
          false,
          false
        ],
        "solo": [
          false,
          false,
          false,
          false,
          false,
          false,
          false,
          false
        ],
        "mute_l": false,
        "mute_r": false
      },
      "pos": [
        56,
        0
      ]
    },
    {
      "id": 8,
      "plugin": "Core",
      "version": "1.1.4",
      "model": "AudioInterface",
      "params": [],
      "leftModuleId": 7,
      "data": {
        "audio": {
          "driver": 4,
          "deviceName": "system",
          "offset": 0,
          "maxChannels": 8,
          "sampleRate": 48000,
          "blockSize": 1024
        }
      },
      "pos": [
        84,
        0
      ]
    },
    {
      "id": 9,
      "plugin": "CharredDesert",
      "version": "1.1.0",
      "model": "Oscar2",
      "params": [
        {
          "id": 0,
          "value": 1.0
        },
        {
          "id": 1,
          "value": 0.0
        },
        {
          "id": 2,
          "value": 0.0
        },
        {
          "id": 3,
          "value": 0.0
        },
        {
          "id": 4,
          "value": 0.0
        },
        {
          "id": 5,
          "value": 0.0
        },
        {
          "id": 6,
          "value": 0.0
        },
        {
          "id": 7,
          "value": 0.0
        },
        {
          "id": 8,
          "value": 0.0
        },
        {
          "id": 9,
          "value": 0.0
        },
        {
          "id": 10,
          "value": 10.0
        },
        {
          "id": 11,
          "value": 1.0
        },
        {
          "id": 12,
          "value": 1.0
        }
      ],
      "leftModuleId": 6,
      "rightModuleId": 26,
      "pos": [
        26,
        0
      ]
    },
    {
      "id": 10,
      "plugin": "CharredDesert",
      "version": "1.1.0",
      "model": "CVSequencer",
      "params": [
        {
          "id": 0,
          "value": 2.0
        },
        {
          "id": 1,
          "value": 1.0
        },
        {
          "id": 2,
          "value": 2.0
        },
        {
          "id": 3,
          "value": 3.0
        }
      ],
      "leftModuleId": 11,
      "rightModuleId": 6,
      "pos": [
        12,
        0
      ]
    },
    {
      "id": 11,
      "plugin": "CountModula",
      "version": "1.4.2",
      "model": "BinarySequencer",
      "params": [
        {
          "id": 0,
          "value": -3.26999831
        },
        {
          "id": 1,
          "value": 2.1899991
        },
        {
          "id": 2,
          "value": 5.19000006
        },
        {
          "id": 3,
          "value": 4.44000053
        },
        {
          "id": 4,
          "value": 3.62999916
        },
        {
          "id": 5,
          "value": -4.68000031
        },
        {
          "id": 6,
          "value": 0.0
        },
        {
          "id": 7,
          "value": 2.36499977
        },
        {
          "id": 8,
          "value": 0.0
        },
        {
          "id": 9,
          "value": 0.675000012
        }
      ],
      "rightModuleId": 10,
      "data": {
        "moduleVersion": "1.4",
        "theme": 0
      },
      "pos": [
        0,
        0
      ]
    },
    {
      "id": 14,
      "plugin": "SubmarineFree",
      "version": "1.0.4",
      "model": "BB-120",
      "params": [],
      "rightModuleId": 19,
      "data": {
        "voltage0": 0.0,
        "voltage1": 10.0
      },
      "pos": [
        0,
        1
      ]
    },
    {
      "id": 16,
      "plugin": "Bogaudio",
      "version": "1.1.22",
      "model": "Bogaudio-LFO",
      "params": [
        {
          "id": 0,
          "value": 4.98400116
        },
        {
          "id": 1,
          "value": 1.0
        },
        {
          "id": 2,
          "value": 0.0
        },
        {
          "id": 3,
          "value": 0.0
        },
        {
          "id": 4,
          "value": 0.243000001
        },
        {
          "id": 5,
          "value": 1.0
        }
      ],
      "leftModuleId": 5,
      "pos": [
        84,
        1
      ]
    },
    {
      "id": 19,
      "plugin": "SubmarineFree",
      "version": "1.0.4",
      "model": "FF-110",
      "params": [],
      "leftModuleId": 14,
      "rightModuleId": 21,
      "data": {
        "voltage0": 0.0,
        "voltage1": 10.0
      },
      "pos": [
        4,
        1
      ]
    },
    {
      "id": 21,
      "plugin": "Bogaudio",
      "version": "1.1.22",
      "model": "Bogaudio-FMOp",
      "params": [
        {
          "id": 0,
          "value": 0.0
        },
        {
          "id": 1,
          "value": 0.0
        },
        {
          "id": 2,
          "value": 0.141421005
        },
        {
          "id": 3,
          "value": 0.316229999
        },
        {
          "id": 4,
          "value": 1.0
        },
        {
          "id": 5,
          "value": 0.316229999
        },
        {
          "id": 6,
          "value": 0.601500094
        },
        {
          "id": 7,
          "value": 0.475500107
        },
        {
          "id": 8,
          "value": 1.0
        },
        {
          "id": 9,
          "value": 1.0
        },
        {
          "id": 10,
          "value": 0.0
        },
        {
          "id": 11,
          "value": 0.0
        }
      ],
      "leftModuleId": 19,
      "rightModuleId": 22,
      "data": {
        "linearLevel": false
      },
      "pos": [
        6,
        1
      ]
    },
    {
      "id": 22,
      "plugin": "Bogaudio",
      "version": "1.1.22",
      "model": "Bogaudio-FMOp",
      "params": [
        {
          "id": 0,
          "value": 0.0
        },
        {
          "id": 1,
          "value": 0.0
        },
        {
          "id": 2,
          "value": 0.141421005
        },
        {
          "id": 3,
          "value": 0.316229999
        },
        {
          "id": 4,
          "value": 1.0
        },
        {
          "id": 5,
          "value": 0.316229999
        },
        {
          "id": 6,
          "value": 0.0
        },
        {
          "id": 7,
          "value": 0.228000015
        },
        {
          "id": 8,
          "value": 1.0
        },
        {
          "id": 9,
          "value": 0.0
        },
        {
          "id": 10,
          "value": 0.0
        },
        {
          "id": 11,
          "value": 0.0
        }
      ],
      "leftModuleId": 21,
      "rightModuleId": 25,
      "data": {
        "linearLevel": false
      },
      "pos": [
        16,
        1
      ]
    },
    {
      "id": 23,
      "plugin": "VultModulesFree",
      "version": "1.3.0",
      "model": "Trummor2",
      "params": [
        {
          "id": 0,
          "value": 0.0464000031
        },
        {
          "id": 1,
          "value": 0.5
        },
        {
          "id": 2,
          "value": 0.26549989
        },
        {
          "id": 3,
          "value": 0.0
        },
        {
          "id": 4,
          "value": 0.0
        },
        {
          "id": 5,
          "value": 0.0
        },
        {
          "id": 6,
          "value": 0.0
        },
        {
          "id": 7,
          "value": 0.200000003
        },
        {
          "id": 8,
          "value": 0.400000006
        },
        {
          "id": 9,
          "value": 0.0
        },
        {
          "id": 10,
          "value": 0.0
        },
        {
          "id": 11,
          "value": 0.699999988
        },
        {
          "id": 12,
          "value": 0.100000001
        },
        {
          "id": 13,
          "value": 0.0780000016
        },
        {
          "id": 14,
          "value": 0.0
        },
        {
          "id": 15,
          "value": 0.949999988
        },
        {
          "id": 16,
          "value": 0.0
        },
        {
          "id": 17,
          "value": 0.0
        },
        {
          "id": 18,
          "value": 0.0
        },
        {
          "id": 19,
          "value": 0.0500000007
        },
        {
          "id": 20,
          "value": 0.157999933
        },
        {
          "id": 21,
          "value": 0.0
        },
        {
          "id": 22,
          "value": 0.0
        },
        {
          "id": 23,
          "value": 0.289000094
        },
        {
          "id": 24,
          "value": 0.0
        },
        {
          "id": 25,
          "value": 0.0449999385
        },
        {
          "id": 26,
          "value": 0.128999978
        },
        {
          "id": 27,
          "value": 0.336000055
        },
        {
          "id": 28,
          "value": 0.420000046
        },
        {
          "id": 29,
          "value": 0.0
        },
        {
          "id": 30,
          "value": 0.0
        },
        {
          "id": 31,
          "value": 0.0
        },
        {
          "id": 32,
          "value": 0.0
        }
      ],
      "leftModuleId": 48,
      "rightModuleId": 24,
      "data": {
        "mod_a": 0,
        "mod_b": 20,
        "mod_c": 2,
        "mod_d": 13,
        "mk2": true
      },
      "pos": [
        50,
        1
      ]
    },
    {
      "id": 24,
      "plugin": "Hora-treasureFree",
      "version": "1.0.2",
      "model": "SnareDrum-VCV",
      "params": [
        {
          "id": 0,
          "value": 0.5
        },
        {
          "id": 1,
          "value": 2447.28931
        },
        {
          "id": 2,
          "value": 0.0
        },
        {
          "id": 3,
          "value": 0.0
        },
        {
          "id": 4,
          "value": 0.00999999978
        },
        {
          "id": 5,
          "value": 0.805000007
        },
        {
          "id": 6,
          "value": 0.731150031
        },
        {
          "id": 7,
          "value": 0.0
        },
        {
          "id": 8,
          "value": 0.50999999
        },
        {
          "id": 9,
          "value": 0.677399993
        },
        {
          "id": 10,
          "value": 0.800000012
        },
        {
          "id": 11,
          "value": 0.800000012
        },
        {
          "id": 12,
          "value": 0.0
        },
        {
          "id": 13,
          "value": 0.583000004
        }
      ],
      "leftModuleId": 23,
      "rightModuleId": 5,
      "pos": [
        70,
        1
      ]
    },
    {
      "id": 25,
      "plugin": "Bogaudio",
      "version": "1.1.22",
      "model": "Bogaudio-FMOp",
      "params": [
        {
          "id": 0,
          "value": 0.0
        },
        {
          "id": 1,
          "value": 0.0
        },
        {
          "id": 2,
          "value": 0.105420992
        },
        {
          "id": 3,
          "value": 0.316229999
        },
        {
          "id": 4,
          "value": 1.0
        },
        {
          "id": 5,
          "value": 0.316229999
        },
        {
          "id": 6,
          "value": 0.0
        },
        {
          "id": 7,
          "value": 0.428999871
        },
        {
          "id": 8,
          "value": 1.0
        },
        {
          "id": 9,
          "value": 1.0
        },
        {
          "id": 10,
          "value": 0.0
        },
        {
          "id": 11,
          "value": 0.0
        }
      ],
      "leftModuleId": 22,
      "rightModuleId": 47,
      "data": {
        "linearLevel": false
      },
      "pos": [
        26,
        1
      ]
    },
    {
      "id": 26,
      "plugin": "SubmarineFree",
      "version": "1.0.4",
      "model": "WK-101",
      "params": [
        {
          "id": 0,
          "value": 9.14999962
        },
        {
          "id": 1,
          "value": 6.9000001
        },
        {
          "id": 2,
          "value": 0.0
        },
        {
          "id": 3,
          "value": 0.0
        },
        {
          "id": 4,
          "value": 0.0
        },
        {
          "id": 5,
          "value": 0.0
        },
        {
          "id": 6,
          "value": 0.0
        },
        {
          "id": 7,
          "value": 0.0
        },
        {
          "id": 8,
          "value": 0.0
        },
        {
          "id": 9,
          "value": 0.0
        },
        {
          "id": 10,
          "value": 0.0
        },
        {
          "id": 11,
          "value": 0.0
        }
      ],
      "leftModuleId": 9,
      "rightModuleId": 29,
      "pos": [
        36,
        0
      ]
    },
    {
      "id": 29,
      "plugin": "SubmarineFree",
      "version": "1.0.4",
      "model": "WK-101",
      "params": [
        {
          "id": 0,
          "value": 0.0
        },
        {
          "id": 1,
          "value": 0.0
        },
        {
          "id": 2,
          "value": 0.0
        },
        {
          "id": 3,
          "value": 0.0
        },
        {
          "id": 4,
          "value": 0.0
        },
        {
          "id": 5,
          "value": 0.0
        },
        {
          "id": 6,
          "value": 0.0
        },
        {
          "id": 7,
          "value": 0.0
        },
        {
          "id": 8,
          "value": 0.0
        },
        {
          "id": 9,
          "value": 0.0
        },
        {
          "id": 10,
          "value": 0.0
        },
        {
          "id": 11,
          "value": 0.0
        }
      ],
      "leftModuleId": 26,
      "rightModuleId": 7,
      "pos": [
        46,
        0
      ]
    },
    {
      "id": 41,
      "plugin": "SubmarineFree",
      "version": "1.0.4",
      "model": "BP-102",
      "params": [],
      "leftModuleId": 44,
      "rightModuleId": 42,
      "pos": [
        43,
        1
      ]
    },
    {
      "id": 42,
      "plugin": "SubmarineFree",
      "version": "1.0.4",
      "model": "BP-102",
      "params": [],
      "leftModuleId": 41,
      "rightModuleId": 43,
      "pos": [
        45,
        1
      ]
    },
    {
      "id": 43,
      "plugin": "SubmarineFree",
      "version": "1.0.4",
      "model": "BP-102",
      "params": [],
      "leftModuleId": 42,
      "rightModuleId": 48,
      "pos": [
        47,
        1
      ]
    },
    {
      "id": 44,
      "plugin": "SubmarineFree",
      "version": "1.0.4",
      "model": "BP-102",
      "params": [],
      "leftModuleId": 45,
      "rightModuleId": 41,
      "pos": [
        41,
        1
      ]
    },
    {
      "id": 45,
      "plugin": "SubmarineFree",
      "version": "1.0.4",
      "model": "BP-102",
      "params": [],
      "leftModuleId": 46,
      "rightModuleId": 44,
      "pos": [
        39,
        1
      ]
    },
    {
      "id": 46,
      "plugin": "SubmarineFree",
      "version": "1.0.4",
      "model": "BP-102",
      "params": [],
      "leftModuleId": 47,
      "rightModuleId": 45,
      "pos": [
        37,
        1
      ]
    },
    {
      "id": 47,
      "plugin": "SubmarineFree",
      "version": "1.0.4",
      "model": "BP-101",
      "params": [],
      "leftModuleId": 25,
      "rightModuleId": 46,
      "pos": [
        36,
        1
      ]
    },
    {
      "id": 48,
      "plugin": "SubmarineFree",
      "version": "1.0.4",
      "model": "BP-101",
      "params": [],
      "leftModuleId": 43,
      "rightModuleId": 23,
      "pos": [
        49,
        1
      ]
    }
  ],
  "cables": [
    {
      "id": 1,
      "outputModuleId": 7,
      "outputId": 0,
      "inputModuleId": 8,
      "inputId": 0,
      "color": "#c91847"
    },
    {
      "id": 2,
      "outputModuleId": 7,
      "outputId": 1,
      "inputModuleId": 8,
      "inputId": 1,
      "color": "#0986ad"
    },
    {
      "id": 5,
      "outputModuleId": 11,
      "outputId": 3,
      "inputModuleId": 10,
      "inputId": 4,
      "color": "#c91847"
    },
    {
      "id": 10,
      "outputModuleId": 11,
      "outputId": 3,
      "inputModuleId": 5,
      "inputId": 0,
      "color": "#c9b70e"
    },
    {
      "id": 12,
      "outputModuleId": 5,
      "outputId": 0,
      "inputModuleId": 5,
      "inputId": 1,
      "color": "#c91847"
    },
    {
      "id": 14,
      "outputModuleId": 11,
      "outputId": 1,
      "inputModuleId": 10,
      "inputId": 3,
      "color": "#c9b70e"
    },
    {
      "id": 29,
      "outputModuleId": 11,
      "outputId": 2,
      "inputModuleId": 19,
      "inputId": 0,
      "color": "#0986ad"
    },
    {
      "id": 48,
      "outputModuleId": 14,
      "outputId": 0,
      "inputModuleId": 21,
      "inputId": 4,
      "color": "#c9b70e"
    },
    {
      "id": 49,
      "outputModuleId": 21,
      "outputId": 0,
      "inputModuleId": 7,
      "inputId": 0,
      "color": "#0c8e15"
    },
    {
      "id": 51,
      "outputModuleId": 22,
      "outputId": 0,
      "inputModuleId": 7,
      "inputId": 1,
      "color": "#0986ad"
    },
    {
      "id": 50,
      "outputModuleId": 14,
      "outputId": 5,
      "inputModuleId": 22,
      "inputId": 4,
      "color": "#c91847"
    },
    {
      "id": 45,
      "outputModuleId": 11,
      "outputId": 0,
      "inputModuleId": 14,
      "inputId": 1,
      "color": "#0c8e15"
    },
    {
      "id": 52,
      "outputModuleId": 14,
      "outputId": 3,
      "inputModuleId": 21,
      "inputId": 2,
      "color": "#c9b70e"
    },
    {
      "id": 53,
      "outputModuleId": 14,
      "outputId": 1,
      "inputModuleId": 22,
      "inputId": 2,
      "color": "#0c8e15"
    },
    {
      "id": 54,
      "outputModuleId": 11,
      "outputId": 2,
      "inputModuleId": 21,
      "inputId": 5,
      "color": "#c91847"
    },
    {
      "id": 55,
      "outputModuleId": 14,
      "outputId": 4,
      "inputModuleId": 16,
      "inputId": 4,
      "color": "#0986ad"
    },
    {
      "id": 22,
      "outputModuleId": 16,
      "outputId": 4,
      "inputModuleId": 21,
      "inputId": 6,
      "color": "#c9b70e"
    },
    {
      "id": 58,
      "outputModuleId": 19,
      "outputId": 3,
      "inputModuleId": 14,
      "inputId": 0,
      "color": "#0986ad"
    },
    {
      "id": 59,
      "outputModuleId": 19,
      "outputId": 0,
      "inputModuleId": 23,
      "inputId": 0,
      "color": "#c9b70e"
    },
    {
      "id": 61,
      "outputModuleId": 19,
      "outputId": 1,
      "inputModuleId": 23,
      "inputId": 8,
      "color": "#c91847"
    },
    {
      "id": 64,
      "outputModuleId": 19,
      "outputId": 2,
      "inputModuleId": 23,
      "inputId": 4,
      "color": "#c91847"
    },
    {
      "id": 65,
      "outputModuleId": 19,
      "outputId": 5,
      "inputModuleId": 23,
      "inputId": 6,
      "color": "#c9b70e"
    },
    {
      "id": 62,
      "outputModuleId": 24,
      "outputId": 2,
      "inputModuleId": 7,
      "inputId": 5,
      "color": "#0986ad"
    },
    {
      "id": 67,
      "outputModuleId": 25,
      "outputId": 0,
      "inputModuleId": 7,
      "inputId": 2,
      "color": "#c91847"
    },
    {
      "id": 68,
      "outputModuleId": 11,
      "outputId": 2,
      "inputModuleId": 25,
      "inputId": 5,
      "color": "#0986ad"
    },
    {
      "id": 66,
      "outputModuleId": 14,
      "outputId": 19,
      "inputModuleId": 25,
      "inputId": 4,
      "color": "#0c8e15"
    },
    {
      "id": 69,
      "outputModuleId": 16,
      "outputId": 3,
      "inputModuleId": 25,
      "inputId": 2,
      "color": "#c9b70e"
    },
    {
      "id": 70,
      "outputModuleId": 14,
      "outputId": 8,
      "inputModuleId": 10,
      "inputId": 0,
      "color": "#0c8e15"
    },
    {
      "id": 71,
      "outputModuleId": 14,
      "outputId": 10,
      "inputModuleId": 10,
      "inputId": 1,
      "color": "#c91847"
    },
    {
      "id": 72,
      "outputModuleId": 14,
      "outputId": 12,
      "inputModuleId": 10,
      "inputId": 2,
      "color": "#0986ad"
    },
    {
      "id": 73,
      "outputModuleId": 5,
      "outputId": 1,
      "inputModuleId": 16,
      "inputId": 2,
      "color": "#c9b70e"
    },
    {
      "id": 74,
      "outputModuleId": 5,
      "outputId": 1,
      "inputModuleId": 5,
      "inputId": 2,
      "color": "#0c8e15"
    },
    {
      "id": 75,
      "outputModuleId": 5,
      "outputId": 2,
      "inputModuleId": 24,
      "inputId": 0,
      "color": "#c91847"
    },
    {
      "id": 8,
      "outputModuleId": 11,
      "outputId": 0,
      "inputModuleId": 26,
      "inputId": 0,
      "color": "#c91847"
    },
    {
      "id": 78,
      "outputModuleId": 26,
      "outputId": 0,
      "inputModuleId": 9,
      "inputId": 11,
      "color": "#0c8e15"
    },
    {
      "id": 77,
      "outputModuleId": 9,
      "outputId": 0,
      "inputModuleId": 7,
      "inputId": 7,
      "color": "#c9b70e"
    },
    {
      "id": 79,
      "outputModuleId": 29,
      "outputId": 0,
      "inputModuleId": 6,
      "inputId": 11,
      "color": "#0986ad"
    },
    {
      "id": 82,
      "outputModuleId": 10,
      "outputId": 0,
      "inputModuleId": 29,
      "inputId": 0,
      "color": "#c91847"
    },
    {
      "id": 60,
      "outputModuleId": 23,
      "outputId": 0,
      "inputModuleId": 7,
      "inputId": 4,
      "color": "#0c8e15"
    },
    {
      "id": 76,
      "outputModuleId": 6,
      "outputId": 0,
      "inputModuleId": 7,
      "inputId": 3,
      "color": "#0986ad"
    },
    {
      "id": 63,
      "outputModuleId": 23,
      "outputId": 5,
      "inputModuleId": 7,
      "inputId": 6,
      "color": "#c9b70e"
    },
    {
      "id": 84,
      "outputModuleId": 5,
      "outputId": 2,
      "inputModuleId": 5,
      "inputId": 3,
      "color": "#c91847"
    },
    {
      "id": 83,
      "outputModuleId": 5,
      "outputId": 11,
      "inputModuleId": 11,
      "inputId": 1,
      "color": "#0c8e15"
    },
    {
      "id": 86,
      "outputModuleId": 5,
      "outputId": 3,
      "inputModuleId": 5,
      "inputId": 4,
      "color": "#c9b70e"
    },
    {
      "id": 85,
      "outputModuleId": 5,
      "outputId": 4,
      "inputModuleId": 23,
      "inputId": 3,
      "color": "#0986ad"
    },
    {
      "id": 87,
      "outputModuleId": 5,
      "outputId": 7,
      "inputModuleId": 23,
      "inputId": 5,
      "color": "#0c8e15"
    },
    {
      "id": 88,
      "outputModuleId": 5,
      "outputId": 4,
      "inputModuleId": 5,
      "inputId": 5,
      "color": "#0986ad"
    },
    {
      "id": 89,
      "outputModuleId": 5,
      "outputId": 5,
      "inputModuleId": 5,
      "inputId": 6,
      "color": "#c9b70e"
    },
    {
      "id": 90,
      "outputModuleId": 5,
      "outputId": 6,
      "inputModuleId": 5,
      "inputId": 7,
      "color": "#0c8e15"
    }
  ]
}