{
  "version": "1.1.4",
  "modules": [
    {
      "id": 1,
      "plugin": "mscHack",
      "version": "1.0.2",
      "model": "Mix_24_4_4",
      "params": [
        {
          "id": 0,
          "value": 0.0
        },
        {
          "id": 1,
          "value": 0.606000066
        },
        {
          "id": 2,
          "value": 0.576000392
        },
        {
          "id": 3,
          "value": 0.540000141
        },
        {
          "id": 4,
          "value": 0.513000071
        },
        {
          "id": 5,
          "value": 0.183000028
        },
        {
          "id": 6,
          "value": 0.186000019
        },
        {
          "id": 7,
          "value": 0.210000098
        },
        {
          "id": 8,
          "value": 0.21900019
        },
        {
          "id": 9,
          "value": 0.183000058
        },
        {
          "id": 10,
          "value": 0.177000046
        },
        {
          "id": 11,
          "value": 0.0
        },
        {
          "id": 12,
          "value": 0.0
        },
        {
          "id": 13,
          "value": 0.0
        },
        {
          "id": 14,
          "value": 0.0
        },
        {
          "id": 15,
          "value": 0.0
        },
        {
          "id": 16,
          "value": 0.0
        },
        {
          "id": 17,
          "value": 0.0
        },
        {
          "id": 18,
          "value": 0.0
        },
        {
          "id": 19,
          "value": 0.0
        },
        {
          "id": 20,
          "value": 0.0
        },
        {
          "id": 21,
          "value": 0.0
        },
        {
          "id": 22,
          "value": 0.0
        },
        {
          "id": 23,
          "value": 0.0
        },
        {
          "id": 24,
          "value": 0.0
        },
        {
          "id": 25,
          "value": 0.0
        },
        {
          "id": 26,
          "value": 0.0
        },
        {
          "id": 27,
          "value": 0.0
        },
        {
          "id": 28,
          "value": 0.0
        },
        {
          "id": 29,
          "value": 0.588999987
        },
        {
          "id": 30,
          "value": 0.0
        },
        {
          "id": 31,
          "value": 0.0
        },
        {
          "id": 32,
          "value": 0.0
        },
        {
          "id": 33,
          "value": 0.0
        },
        {
          "id": 34,
          "value": 0.0
        },
        {
          "id": 35,
          "value": 0.0
        },
        {
          "id": 36,
          "value": 0.0
        },
        {
          "id": 37,
          "value": 0.0
        },
        {
          "id": 38,
          "value": 0.0
        },
        {
          "id": 39,
          "value": 0.0
        },
        {
          "id": 40,
          "value": 0.0
        },
        {
          "id": 41,
          "value": 0.0
        },
        {
          "id": 42,
          "value": 0.0
        },
        {
          "id": 43,
          "value": 0.0
        },
        {
          "id": 44,
          "value": 0.0
        },
        {
          "id": 45,
          "value": 0.0
        },
        {
          "id": 46,
          "value": 0.0
        },
        {
          "id": 47,
          "value": 0.0
        },
        {
          "id": 48,
          "value": 0.0
        },
        {
          "id": 49,
          "value": 0.0
        },
        {
          "id": 50,
          "value": 0.0
        },
        {
          "id": 51,
          "value": 0.0
        },
        {
          "id": 52,
          "value": 0.0
        },
        {
          "id": 53,
          "value": 0.0
        },
        {
          "id": 54,
          "value": 0.0
        },
        {
          "id": 55,
          "value": 0.0
        },
        {
          "id": 56,
          "value": 0.0
        },
        {
          "id": 57,
          "value": 0.0
        },
        {
          "id": 58,
          "value": 0.0
        },
        {
          "id": 59,
          "value": 0.0
        },
        {
          "id": 60,
          "value": 0.0
        },
        {
          "id": 61,
          "value": 0.0
        },
        {
          "id": 62,
          "value": 0.0
        },
        {
          "id": 63,
          "value": 0.0
        },
        {
          "id": 64,
          "value": 0.0
        },
        {
          "id": 65,
          "value": 0.5
        },
        {
          "id": 66,
          "value": 0.5
        },
        {
          "id": 67,
          "value": 0.5
        },
        {
          "id": 68,
          "value": 0.5
        },
        {
          "id": 69,
          "value": 0.5
        },
        {
          "id": 70,
          "value": 0.5
        },
        {
          "id": 71,
          "value": 0.5
        },
        {
          "id": 72,
          "value": 0.5
        },
        {
          "id": 73,
          "value": 0.5
        },
        {
          "id": 74,
          "value": 0.5
        },
        {
          "id": 75,
          "value": 0.5
        },
        {
          "id": 76,
          "value": 0.5
        },
        {
          "id": 77,
          "value": 0.5
        },
        {
          "id": 78,
          "value": 0.5
        },
        {
          "id": 79,
          "value": 0.5
        },
        {
          "id": 80,
          "value": 0.5
        },
        {
          "id": 81,
          "value": 0.5
        },
        {
          "id": 82,
          "value": 0.5
        },
        {
          "id": 83,
          "value": 0.5
        },
        {
          "id": 84,
          "value": 0.5
        },
        {
          "id": 85,
          "value": 0.5
        },
        {
          "id": 86,
          "value": 0.5
        },
        {
          "id": 87,
          "value": 0.5
        },
        {
          "id": 88,
          "value": 0.5
        },
        {
          "id": 89,
          "value": 0.5
        },
        {
          "id": 90,
          "value": 0.5
        },
        {
          "id": 91,
          "value": 0.5
        },
        {
          "id": 92,
          "value": 0.5
        },
        {
          "id": 93,
          "value": 0.5
        },
        {
          "id": 94,
          "value": 0.5
        },
        {
          "id": 95,
          "value": 0.5
        },
        {
          "id": 96,
          "value": 0.5
        },
        {
          "id": 97,
          "value": 0.5
        },
        {
          "id": 98,
          "value": 0.5
        },
        {
          "id": 99,
          "value": 0.5
        },
        {
          "id": 100,
          "value": 0.5
        },
        {
          "id": 101,
          "value": 0.5
        },
        {
          "id": 102,
          "value": 0.5
        },
        {
          "id": 103,
          "value": 0.5
        },
        {
          "id": 104,
          "value": 0.5
        },
        {
          "id": 105,
          "value": 0.5
        },
        {
          "id": 106,
          "value": 0.5
        },
        {
          "id": 107,
          "value": 0.5
        },
        {
          "id": 108,
          "value": 0.5
        },
        {
          "id": 109,
          "value": 0.5
        },
        {
          "id": 110,
          "value": 0.5
        },
        {
          "id": 111,
          "value": 0.5
        },
        {
          "id": 112,
          "value": 0.5
        },
        {
          "id": 113,
          "value": 0.5
        },
        {
          "id": 114,
          "value": 0.5
        },
        {
          "id": 115,
          "value": 0.5
        },
        {
          "id": 116,
          "value": 0.5
        },
        {
          "id": 117,
          "value": 0.5
        },
        {
          "id": 118,
          "value": 0.5
        },
        {
          "id": 119,
          "value": 0.5
        },
        {
          "id": 120,
          "value": 0.5
        },
        {
          "id": 121,
          "value": 0.5
        },
        {
          "id": 122,
          "value": 0.5
        },
        {
          "id": 123,
          "value": 0.5
        },
        {
          "id": 124,
          "value": 0.5
        },
        {
          "id": 125,
          "value": 0.5
        },
        {
          "id": 126,
          "value": 0.5
        },
        {
          "id": 127,
          "value": 0.5
        },
        {
          "id": 128,
          "value": 0.5
        },
        {
          "id": 129,
          "value": 0.5
        },
        {
          "id": 130,
          "value": 0.5
        },
        {
          "id": 131,
          "value": 0.5
        },
        {
          "id": 132,
          "value": 0.5
        },
        {
          "id": 133,
          "value": 0.5
        },
        {
          "id": 134,
          "value": 0.5
        },
        {
          "id": 135,
          "value": 0.5
        },
        {
          "id": 136,
          "value": 0.5
        },
        {
          "id": 137,
          "value": 0.5
        },
        {
          "id": 138,
          "value": 0.5
        },
        {
          "id": 139,
          "value": 0.5
        },
        {
          "id": 140,
          "value": 0.5
        },
        {
          "id": 141,
          "value": 0.5
        },
        {
          "id": 142,
          "value": 0.5
        },
        {
          "id": 143,
          "value": 0.5
        },
        {
          "id": 144,
          "value": 0.5
        },
        {
          "id": 145,
          "value": 0.5
        },
        {
          "id": 146,
          "value": 0.5
        },
        {
          "id": 147,
          "value": 0.5
        },
        {
          "id": 148,
          "value": 0.5
        },
        {
          "id": 149,
          "value": 0.5
        },
        {
          "id": 150,
          "value": 0.5
        },
        {
          "id": 151,
          "value": 0.5
        },
        {
          "id": 152,
          "value": 0.5
        },
        {
          "id": 153,
          "value": 0.5
        },
        {
          "id": 154,
          "value": 0.5
        },
        {
          "id": 155,
          "value": 0.5
        },
        {
          "id": 156,
          "value": 0.5
        },
        {
          "id": 157,
          "value": 0.5
        },
        {
          "id": 158,
          "value": 0.5
        },
        {
          "id": 159,
          "value": 0.5
        },
        {
          "id": 160,
          "value": 0.5
        },
        {
          "id": 161,
          "value": 0.0
        },
        {
          "id": 162,
          "value": 0.0
        },
        {
          "id": 163,
          "value": 0.0
        },
        {
          "id": 164,
          "value": 0.0
        },
        {
          "id": 165,
          "value": 0.106499948
        },
        {
          "id": 166,
          "value": 0.0
        },
        {
          "id": 167,
          "value": 0.0
        },
        {
          "id": 168,
          "value": 0.0
        },
        {
          "id": 169,
          "value": 0.198000014
        },
        {
          "id": 170,
          "value": 0.0
        },
        {
          "id": 171,
          "value": 0.0
        },
        {
          "id": 172,
          "value": 0.0
        },
        {
          "id": 173,
          "value": 0.0
        },
        {
          "id": 174,
          "value": 0.0
        },
        {
          "id": 175,
          "value": 0.0
        },
        {
          "id": 176,
          "value": 0.0
        },
        {
          "id": 177,
          "value": 0.0
        },
        {
          "id": 178,
          "value": 0.0
        },
        {
          "id": 179,
          "value": 0.0
        },
        {
          "id": 180,
          "value": 0.0
        },
        {
          "id": 181,
          "value": 0.0
        },
        {
          "id": 182,
          "value": 0.0
        },
        {
          "id": 183,
          "value": 0.0
        },
        {
          "id": 184,
          "value": 0.0
        },
        {
          "id": 185,
          "value": 0.172500029
        },
        {
          "id": 186,
          "value": 0.0
        },
        {
          "id": 187,
          "value": 0.0
        },
        {
          "id": 188,
          "value": 0.0
        },
        {
          "id": 189,
          "value": 0.223500043
        },
        {
          "id": 190,
          "value": 0.0
        },
        {
          "id": 191,
          "value": 0.0
        },
        {
          "id": 192,
          "value": 0.0
        },
        {
          "id": 193,
          "value": 0.0
        },
        {
          "id": 194,
          "value": 0.0
        },
        {
          "id": 195,
          "value": 0.0
        },
        {
          "id": 196,
          "value": 0.0
        },
        {
          "id": 197,
          "value": 0.0
        },
        {
          "id": 198,
          "value": 0.0
        },
        {
          "id": 199,
          "value": 0.0
        },
        {
          "id": 200,
          "value": 0.0
        },
        {
          "id": 201,
          "value": 0.0
        },
        {
          "id": 202,
          "value": 0.0
        },
        {
          "id": 203,
          "value": 0.0
        },
        {
          "id": 204,
          "value": 0.0
        },
        {
          "id": 205,
          "value": 0.0
        },
        {
          "id": 206,
          "value": 0.0
        },
        {
          "id": 207,
          "value": 0.0
        },
        {
          "id": 208,
          "value": 0.0
        },
        {
          "id": 209,
          "value": 0.0
        },
        {
          "id": 210,
          "value": 0.0
        },
        {
          "id": 211,
          "value": 0.0
        },
        {
          "id": 212,
          "value": 0.0
        },
        {
          "id": 213,
          "value": 0.0
        },
        {
          "id": 214,
          "value": 0.0
        },
        {
          "id": 215,
          "value": 0.0
        },
        {
          "id": 216,
          "value": 0.0
        },
        {
          "id": 217,
          "value": 0.0
        },
        {
          "id": 218,
          "value": 0.0
        },
        {
          "id": 219,
          "value": 0.0
        },
        {
          "id": 220,
          "value": 0.0
        },
        {
          "id": 221,
          "value": 0.0
        },
        {
          "id": 222,
          "value": 0.0
        },
        {
          "id": 223,
          "value": 0.0
        },
        {
          "id": 224,
          "value": 0.0
        },
        {
          "id": 225,
          "value": 0.0
        },
        {
          "id": 226,
          "value": 0.0
        },
        {
          "id": 227,
          "value": 0.0
        },
        {
          "id": 228,
          "value": 0.0
        },
        {
          "id": 229,
          "value": 0.0
        },
        {
          "id": 230,
          "value": 0.0
        },
        {
          "id": 231,
          "value": 0.0
        },
        {
          "id": 232,
          "value": 0.0
        },
        {
          "id": 233,
          "value": 0.0
        },
        {
          "id": 234,
          "value": 0.0
        },
        {
          "id": 235,
          "value": 0.0
        },
        {
          "id": 236,
          "value": 0.0
        },
        {
          "id": 237,
          "value": 0.0
        },
        {
          "id": 238,
          "value": 0.0
        },
        {
          "id": 239,
          "value": 0.0
        },
        {
          "id": 240,
          "value": 0.0
        },
        {
          "id": 241,
          "value": 0.0
        },
        {
          "id": 242,
          "value": 0.0
        },
        {
          "id": 243,
          "value": 0.0
        },
        {
          "id": 244,
          "value": 0.0
        },
        {
          "id": 245,
          "value": 0.0
        },
        {
          "id": 246,
          "value": 0.0
        },
        {
          "id": 247,
          "value": 0.0
        },
        {
          "id": 248,
          "value": 0.0
        },
        {
          "id": 249,
          "value": 0.0
        },
        {
          "id": 250,
          "value": 0.0
        },
        {
          "id": 251,
          "value": 0.0
        },
        {
          "id": 252,
          "value": 0.0
        },
        {
          "id": 253,
          "value": 0.0
        },
        {
          "id": 254,
          "value": 0.0
        },
        {
          "id": 255,
          "value": 0.0
        },
        {
          "id": 256,
          "value": 0.0
        },
        {
          "id": 257,
          "value": 0.0
        },
        {
          "id": 258,
          "value": 0.0
        },
        {
          "id": 259,
          "value": 0.0
        },
        {
          "id": 260,
          "value": 0.0
        },
        {
          "id": 261,
          "value": 0.0
        },
        {
          "id": 262,
          "value": 0.0
        },
        {
          "id": 263,
          "value": 0.0
        },
        {
          "id": 264,
          "value": 0.0
        },
        {
          "id": 265,
          "value": 0.0
        },
        {
          "id": 266,
          "value": 0.0
        },
        {
          "id": 267,
          "value": 0.0
        },
        {
          "id": 268,
          "value": 0.0
        },
        {
          "id": 269,
          "value": 0.0
        },
        {
          "id": 270,
          "value": 0.0
        },
        {
          "id": 271,
          "value": 0.0
        },
        {
          "id": 272,
          "value": 0.0
        },
        {
          "id": 273,
          "value": 1.0
        },
        {
          "id": 274,
          "value": 0.0
        },
        {
          "id": 275,
          "value": 0.0
        },
        {
          "id": 276,
          "value": 0.0
        }
      ],
      "leftModuleId": 82,
      "rightModuleId": 100,
      "data": {
        "m_bMuteStates": [
          true,
          true,
          true,
          false,
          false,
          false,
          false,
          false,
          false,
          false,
          false,
          false,
          false,
          false,
          false,
          false,
          false,
          false,
          false,
          false,
          false,
          false,
          false,
          false,
          false,
          false,
          false,
          false,
          false,
          false,
          false,
          false
        ],
        "m_bSoloStates": [
          false,
          false,
          false,
          false,
          false,
          false,
          false,
          false,
          false,
          false,
          false,
          false,
          false,
          false,
          false,
          false,
          false,
          false,
          false,
          false,
          false,
          false,
          false,
          false,
          false,
          false,
          false,
          false,
          false,
          false,
          false,
          false
        ],
        "m_iRouteGroup": [
          4,
          4,
          4,
          4,
          4,
          4,
          4,
          4,
          4,
          4,
          4,
          4,
          4,
          4,
          4,
          4,
          4,
          4,
          4,
          4,
          4,
          4,
          4,
          4
        ],
        "m_bGroupPreMute": [
          true
        ],
        "m_bGainLevelx2": [
          false
        ],
        "m_bPreFader": [
          false,
          false,
          false,
          false,
          false,
          false,
          false,
          false,
          false,
          false,
          false,
          false,
          false,
          false,
          false,
          false,
          false,
          false,
          false,
          false,
          false,
          false,
          false,
          false,
          false,
          false,
          false,
          false
        ],
        "m_bAuxIgnoreSolo": [
          false
        ]
      },
      "pos": [
        20,
        0
      ]
    },
    {
      "id": 3,
      "plugin": "Core",
      "version": "1.1.4",
      "model": "AudioInterface",
      "params": [],
      "leftModuleId": 100,
      "rightModuleId": 52,
      "data": {
        "audio": {
          "driver": 4,
          "deviceName": "system",
          "offset": 0,
          "maxChannels": 8,
          "sampleRate": 48000,
          "blockSize": 1024
        }
      },
      "pos": [
        89,
        0
      ]
    },
    {
      "id": 52,
      "plugin": "Core",
      "version": "1.1.4",
      "model": "Notes",
      "params": [],
      "leftModuleId": 3,
      "text": "\nOmri Cohen \nCount Modula VCV Rack Live Stream\n\nPatch 2 from ~ 1:00 hours\n\n\n\n@ 1:37\n\nCozmic is Beta from \nhttps://github.com/AnimatedCircuits/ACRackModulesPreview/releases\n\n ",
      "pos": [
        99,
        0
      ]
    },
    {
      "id": 82,
      "plugin": "ImpromptuModular",
      "version": "1.1.1",
      "model": "Clocked",
      "params": [
        {
          "id": 0,
          "value": 73.0
        },
        {
          "id": 1,
          "value": 5.0
        },
        {
          "id": 2,
          "value": -5.0
        },
        {
          "id": 3,
          "value": 0.0
        },
        {
          "id": 4,
          "value": 0.0
        },
        {
          "id": 5,
          "value": 0.0
        },
        {
          "id": 6,
          "value": 0.0
        },
        {
          "id": 7,
          "value": 0.0
        },
        {
          "id": 8,
          "value": 0.5
        },
        {
          "id": 9,
          "value": 0.5
        },
        {
          "id": 10,
          "value": 0.5
        },
        {
          "id": 11,
          "value": 0.5
        },
        {
          "id": 12,
          "value": 0.0
        },
        {
          "id": 13,
          "value": 0.0
        },
        {
          "id": 14,
          "value": 0.0
        },
        {
          "id": 15,
          "value": 0.0
        },
        {
          "id": 16,
          "value": 0.0
        },
        {
          "id": 17,
          "value": 0.0
        },
        {
          "id": 18,
          "value": 0.0
        },
        {
          "id": 19,
          "value": 0.0
        }
      ],
      "rightModuleId": 1,
      "data": {
        "panelTheme": 1,
        "running": true,
        "displayDelayNoteMode": true,
        "bpmDetectionMode": false,
        "emitResetOnStopRun": false,
        "ppqn": 4,
        "resetClockOutputsHigh": true
      },
      "pos": [
        0,
        0
      ]
    },
    {
      "id": 83,
      "plugin": "CountModula",
      "version": "1.3.0",
      "model": "PolyrhythmicGeneratorMkII",
      "params": [
        {
          "id": 0,
          "value": 0.0
        },
        {
          "id": 1,
          "value": 0.0
        },
        {
          "id": 2,
          "value": 0.0
        },
        {
          "id": 3,
          "value": 0.0
        },
        {
          "id": 4,
          "value": 0.0
        },
        {
          "id": 5,
          "value": 0.0
        },
        {
          "id": 6,
          "value": 0.0
        },
        {
          "id": 7,
          "value": 0.0
        },
        {
          "id": 8,
          "value": 3.0
        },
        {
          "id": 9,
          "value": 5.0
        },
        {
          "id": 10,
          "value": 1.0
        },
        {
          "id": 11,
          "value": 1.0
        },
        {
          "id": 12,
          "value": 1.0
        },
        {
          "id": 13,
          "value": 1.0
        },
        {
          "id": 14,
          "value": 1.0
        },
        {
          "id": 15,
          "value": 1.0
        },
        {
          "id": 16,
          "value": 0.0
        },
        {
          "id": 17,
          "value": 0.0
        },
        {
          "id": 18,
          "value": 0.0
        },
        {
          "id": 19,
          "value": 0.0
        },
        {
          "id": 20,
          "value": 0.0
        },
        {
          "id": 21,
          "value": 0.0
        },
        {
          "id": 22,
          "value": 0.0
        },
        {
          "id": 23,
          "value": 0.0
        },
        {
          "id": 24,
          "value": 0.0
        },
        {
          "id": 25,
          "value": 1.0
        },
        {
          "id": 26,
          "value": 0.0
        }
      ],
      "rightModuleId": 85,
      "data": {
        "moduleVersion": "2.0",
        "legacyMode": false,
        "divCountMode": [
          2,
          2,
          2,
          2,
          2,
          2,
          2,
          2
        ],
        "divN": [
          3,
          5,
          1,
          1,
          1,
          1,
          1,
          1
        ]
      },
      "pos": [
        0,
        1
      ]
    },
    {
      "id": 85,
      "plugin": "CountModula",
      "version": "1.3.0",
      "model": "StepSequencer8",
      "params": [
        {
          "id": 0,
          "value": 2.0
        },
        {
          "id": 1,
          "value": 1.0
        },
        {
          "id": 2,
          "value": 0.0
        },
        {
          "id": 3,
          "value": 1.0
        },
        {
          "id": 4,
          "value": 0.0
        },
        {
          "id": 5,
          "value": 1.0
        },
        {
          "id": 6,
          "value": 2.0
        },
        {
          "id": 7,
          "value": 1.0
        },
        {
          "id": 8,
          "value": 0.0
        },
        {
          "id": 9,
          "value": 1.0
        },
        {
          "id": 10,
          "value": 2.0
        },
        {
          "id": 11,
          "value": 1.0
        },
        {
          "id": 12,
          "value": 2.0
        },
        {
          "id": 13,
          "value": 1.0
        },
        {
          "id": 14,
          "value": 0.0
        },
        {
          "id": 15,
          "value": 1.0
        },
        {
          "id": 16,
          "value": 2.0
        },
        {
          "id": 17,
          "value": 2.0
        },
        {
          "id": 18,
          "value": 2.0
        },
        {
          "id": 19,
          "value": 1.0
        },
        {
          "id": 20,
          "value": 1.0
        },
        {
          "id": 21,
          "value": 2.0
        },
        {
          "id": 22,
          "value": 2.0
        },
        {
          "id": 23,
          "value": 1.0
        },
        {
          "id": 24,
          "value": 1.0
        },
        {
          "id": 25,
          "value": 2.0
        },
        {
          "id": 26,
          "value": 2.0
        },
        {
          "id": 27,
          "value": 2.0
        },
        {
          "id": 28,
          "value": 2.0
        },
        {
          "id": 29,
          "value": 1.0
        },
        {
          "id": 30,
          "value": 1.0
        },
        {
          "id": 31,
          "value": 2.0
        },
        {
          "id": 32,
          "value": 0.0
        },
        {
          "id": 33,
          "value": 2.02800012
        },
        {
          "id": 34,
          "value": 0.56400001
        },
        {
          "id": 35,
          "value": 2.47200084
        },
        {
          "id": 36,
          "value": 0.635999978
        },
        {
          "id": 37,
          "value": 2.55599999
        },
        {
          "id": 38,
          "value": 3.9240005
        },
        {
          "id": 39,
          "value": 1.51199996
        },
        {
          "id": 40,
          "value": 0.0
        },
        {
          "id": 41,
          "value": 1.47599995
        },
        {
          "id": 42,
          "value": 0.0
        },
        {
          "id": 43,
          "value": 0.0
        },
        {
          "id": 44,
          "value": 0.0
        },
        {
          "id": 45,
          "value": 2.55600071
        },
        {
          "id": 46,
          "value": 0.0
        },
        {
          "id": 47,
          "value": 0.0
        },
        {
          "id": 48,
          "value": 0.0
        },
        {
          "id": 49,
          "value": 0.0
        },
        {
          "id": 50,
          "value": 2.68800044
        },
        {
          "id": 51,
          "value": 0.0
        },
        {
          "id": 52,
          "value": 0.0
        },
        {
          "id": 53,
          "value": 3.6120007
        },
        {
          "id": 54,
          "value": 0.0
        },
        {
          "id": 55,
          "value": 0.0
        },
        {
          "id": 56,
          "value": 0.0
        },
        {
          "id": 57,
          "value": 0.0
        },
        {
          "id": 58,
          "value": 0.0
        },
        {
          "id": 59,
          "value": 0.0
        },
        {
          "id": 60,
          "value": 0.0
        },
        {
          "id": 61,
          "value": 0.0
        },
        {
          "id": 62,
          "value": 0.0
        },
        {
          "id": 63,
          "value": 0.0
        },
        {
          "id": 64,
          "value": 8.0
        },
        {
          "id": 65,
          "value": 8.0
        },
        {
          "id": 66,
          "value": 0.0
        },
        {
          "id": 67,
          "value": 0.0
        },
        {
          "id": 68,
          "value": 0.0
        },
        {
          "id": 69,
          "value": 0.0
        },
        {
          "id": 70,
          "value": 0.0
        },
        {
          "id": 71,
          "value": 0.0
        },
        {
          "id": 72,
          "value": 0.30249995
        },
        {
          "id": 73,
          "value": 0.0
        },
        {
          "id": 74,
          "value": 0.0
        },
        {
          "id": 75,
          "value": 0.0
        },
        {
          "id": 76,
          "value": 0.0
        },
        {
          "id": 77,
          "value": 0.0
        },
        {
          "id": 78,
          "value": 2.0
        },
        {
          "id": 79,
          "value": 2.0
        },
        {
          "id": 80,
          "value": 0.0
        },
        {
          "id": 81,
          "value": 0.0
        }
      ],
      "leftModuleId": 83,
      "rightModuleId": 91,
      "data": {
        "moduleVersion": "1.2",
        "currentStep": [
          8,
          3
        ],
        "direction": [
          0,
          0
        ]
      },
      "pos": [
        32,
        1
      ]
    },
    {
      "id": 91,
      "plugin": "Fundamental",
      "version": "1.2.1",
      "model": "Merge",
      "params": [],
      "leftModuleId": 85,
      "rightModuleId": 92,
      "data": {
        "channels": -1
      },
      "pos": [
        82,
        1
      ]
    },
    {
      "id": 92,
      "plugin": "ML_modules",
      "version": "1.0.2",
      "model": "Quantum",
      "params": [
        {
          "id": 0,
          "value": 0.0
        },
        {
          "id": 1,
          "value": 0.0
        },
        {
          "id": 2,
          "value": 0.0
        },
        {
          "id": 3,
          "value": 0.0
        },
        {
          "id": 4,
          "value": 0.0
        },
        {
          "id": 5,
          "value": 0.0
        },
        {
          "id": 6,
          "value": 0.0
        },
        {
          "id": 7,
          "value": 0.0
        },
        {
          "id": 8,
          "value": 0.0
        },
        {
          "id": 9,
          "value": 0.0
        },
        {
          "id": 10,
          "value": 0.0
        },
        {
          "id": 11,
          "value": 0.0
        }
      ],
      "leftModuleId": 91,
      "rightModuleId": 93,
      "data": {
        "scale": [
          1,
          0,
          0,
          0,
          1,
          0,
          0,
          1,
          0,
          1,
          0,
          0
        ],
        "mode": 1,
        "transpose_select": 1,
        "toggle_mode": 0
      },
      "pos": [
        87,
        1
      ]
    },
    {
      "id": 93,
      "plugin": "Fundamental",
      "version": "1.2.1",
      "model": "Split",
      "params": [],
      "leftModuleId": 92,
      "rightModuleId": 96,
      "pos": [
        95,
        1
      ]
    },
    {
      "id": 94,
      "plugin": "Geodesics",
      "version": "1.0.0",
      "model": "Energy",
      "params": [
        {
          "id": 0,
          "value": 0.0
        },
        {
          "id": 1,
          "value": 0.0
        },
        {
          "id": 2,
          "value": 0.0
        },
        {
          "id": 3,
          "value": 0.0
        },
        {
          "id": 4,
          "value": 0.0
        },
        {
          "id": 5,
          "value": -1.25999975
        },
        {
          "id": 6,
          "value": 0.828000188
        },
        {
          "id": 7,
          "value": 0.0
        },
        {
          "id": 8,
          "value": 0.0
        },
        {
          "id": 9,
          "value": 0.0
        }
      ],
      "leftModuleId": 96,
      "rightModuleId": 97,
      "data": {
        "panelTheme": 1,
        "oscM_phase": 1966476160,
        "oscC_phase": 3062711968,
        "routing": 0,
        "planck0": 2,
        "planck1": 2,
        "modtype0": 1,
        "modtype1": 1,
        "cross": 0
      },
      "pos": [
        103,
        1
      ]
    },
    {
      "id": 96,
      "plugin": "Bogaudio",
      "version": "1.1.22",
      "model": "Bogaudio-DGate",
      "params": [
        {
          "id": 0,
          "value": 0.0
        },
        {
          "id": 1,
          "value": 0.316229999
        },
        {
          "id": 2,
          "value": 1.0
        },
        {
          "id": 3,
          "value": 0.0
        }
      ],
      "leftModuleId": 93,
      "rightModuleId": 94,
      "data": {
        "triggerOnLoad": true,
        "shouldTriggerOnLoad": true
      },
      "pos": [
        100,
        1
      ]
    },
    {
      "id": 97,
      "plugin": "Bogaudio",
      "version": "1.1.22",
      "model": "Bogaudio-DGate",
      "params": [
        {
          "id": 0,
          "value": 0.0
        },
        {
          "id": 1,
          "value": 0.316229999
        },
        {
          "id": 2,
          "value": 1.0
        },
        {
          "id": 3,
          "value": 0.0
        }
      ],
      "leftModuleId": 94,
      "rightModuleId": 98,
      "data": {
        "triggerOnLoad": true,
        "shouldTriggerOnLoad": true
      },
      "pos": [
        110,
        1
      ]
    },
    {
      "id": 98,
      "plugin": "Geodesics",
      "version": "1.0.0",
      "model": "Energy",
      "params": [
        {
          "id": 0,
          "value": 0.0
        },
        {
          "id": 1,
          "value": 0.0
        },
        {
          "id": 2,
          "value": 0.0
        },
        {
          "id": 3,
          "value": 0.0
        },
        {
          "id": 4,
          "value": 0.0
        },
        {
          "id": 5,
          "value": -1.25999975
        },
        {
          "id": 6,
          "value": 0.828000188
        },
        {
          "id": 7,
          "value": 0.0
        },
        {
          "id": 8,
          "value": 0.0
        },
        {
          "id": 9,
          "value": 0.0
        }
      ],
      "leftModuleId": 97,
      "rightModuleId": 99,
      "data": {
        "panelTheme": 1,
        "oscM_phase": 2673420928,
        "oscC_phase": 1941311904,
        "routing": 0,
        "planck0": 2,
        "planck1": 2,
        "modtype0": 1,
        "modtype1": 1,
        "cross": 0
      },
      "pos": [
        113,
        1
      ]
    },
    {
      "id": 99,
      "plugin": "AlrightDevices",
      "version": "1.0.1",
      "model": "Chronoblob2",
      "params": [
        {
          "id": 0,
          "value": 0.5
        },
        {
          "id": 1,
          "value": 0.5
        },
        {
          "id": 2,
          "value": 0.322999775
        },
        {
          "id": 3,
          "value": 0.0
        },
        {
          "id": 4,
          "value": 0.257999986
        },
        {
          "id": 5,
          "value": 0.0
        },
        {
          "id": 6,
          "value": 0.0
        },
        {
          "id": 7,
          "value": 0.0
        },
        {
          "id": 8,
          "value": 0.0
        },
        {
          "id": 9,
          "value": 0.0
        }
      ],
      "leftModuleId": 98,
      "data": {
        "delay_mode": 1,
        "hold_behavior": 0,
        "sync_prescaler": 6
      },
      "pos": [
        120,
        1
      ]
    },
    {
      "id": 100,
      "plugin": "Valley",
      "version": "1.0.1",
      "model": "Plateau",
      "params": [
        {
          "id": 0,
          "value": 0.0
        },
        {
          "id": 1,
          "value": 1.0
        },
        {
          "id": 2,
          "value": 0.0
        },
        {
          "id": 3,
          "value": 8.60500526
        },
        {
          "id": 4,
          "value": 10.0
        },
        {
          "id": 5,
          "value": 0.5
        },
        {
          "id": 6,
          "value": 10.0
        },
        {
          "id": 7,
          "value": 0.417664677
        },
        {
          "id": 8,
          "value": 10.0
        },
        {
          "id": 9,
          "value": 8.61999893
        },
        {
          "id": 10,
          "value": 0.0
        },
        {
          "id": 11,
          "value": 0.5
        },
        {
          "id": 12,
          "value": 5.58800125
        },
        {
          "id": 13,
          "value": 0.0
        },
        {
          "id": 14,
          "value": 0.0
        },
        {
          "id": 15,
          "value": 0.0
        },
        {
          "id": 16,
          "value": 0.0
        },
        {
          "id": 17,
          "value": 0.0
        },
        {
          "id": 18,
          "value": 0.0
        },
        {
          "id": 19,
          "value": 0.0
        },
        {
          "id": 20,
          "value": 0.0
        },
        {
          "id": 21,
          "value": 0.0
        },
        {
          "id": 22,
          "value": 0.0
        },
        {
          "id": 23,
          "value": 0.0
        },
        {
          "id": 24,
          "value": 0.0
        },
        {
          "id": 25,
          "value": 0.0
        },
        {
          "id": 26,
          "value": 0.0
        },
        {
          "id": 27,
          "value": 0.0
        },
        {
          "id": 28,
          "value": 0.0
        },
        {
          "id": 29,
          "value": 0.0
        },
        {
          "id": 30,
          "value": 1.0
        }
      ],
      "leftModuleId": 1,
      "rightModuleId": 3,
      "data": {
        "frozen": false,
        "freezeToggle": false,
        "panelStyle": 0,
        "tuned": 0,
        "diffuseInput": 1,
        "preDelayCVSens": 0,
        "inputSensitivity": 0,
        "outputSaturation": 0
      },
      "pos": [
        77,
        0
      ]
    },
    {
      "id": 101,
      "plugin": "VultModulesFree",
      "version": "1.2.0",
      "model": "Basal",
      "params": [
        {
          "id": 0,
          "value": 0.0
        },
        {
          "id": 1,
          "value": 0.413999885
        },
        {
          "id": 2,
          "value": 0.0
        },
        {
          "id": 3,
          "value": 0.0
        },
        {
          "id": 4,
          "value": 0.0
        },
        {
          "id": 5,
          "value": 0.0
        }
      ],
      "leftModuleId": 117,
      "rightModuleId": 102,
      "pos": [
        112,
        2
      ]
    },
    {
      "id": 102,
      "plugin": "VultModulesFree",
      "version": "1.2.0",
      "model": "Basal",
      "params": [
        {
          "id": 0,
          "value": 0.0
        },
        {
          "id": 1,
          "value": 0.447000027
        },
        {
          "id": 2,
          "value": 0.0
        },
        {
          "id": 3,
          "value": 0.0
        },
        {
          "id": 4,
          "value": 0.0
        },
        {
          "id": 5,
          "value": 0.0
        }
      ],
      "leftModuleId": 101,
      "rightModuleId": 103,
      "pos": [
        118,
        2
      ]
    },
    {
      "id": 103,
      "plugin": "AS",
      "version": "1.0.3",
      "model": "VCA",
      "params": [
        {
          "id": 0,
          "value": 0.748000264
        },
        {
          "id": 1,
          "value": 0.735999763
        },
        {
          "id": 2,
          "value": 1.0
        },
        {
          "id": 3,
          "value": 0.0
        }
      ],
      "leftModuleId": 102,
      "rightModuleId": 104,
      "pos": [
        124,
        2
      ]
    },
    {
      "id": 104,
      "plugin": "AS",
      "version": "1.0.3",
      "model": "ADSR",
      "params": [
        {
          "id": 0,
          "value": 0.0239999965
        },
        {
          "id": 1,
          "value": 0.70999974
        },
        {
          "id": 2,
          "value": 0.0
        },
        {
          "id": 3,
          "value": 0.686000168
        }
      ],
      "leftModuleId": 103,
      "rightModuleId": 105,
      "pos": [
        130,
        2
      ]
    },
    {
      "id": 105,
      "plugin": "AS",
      "version": "1.0.3",
      "model": "ADSR",
      "params": [
        {
          "id": 0,
          "value": 0.053999994
        },
        {
          "id": 1,
          "value": 0.71600014
        },
        {
          "id": 2,
          "value": 0.0
        },
        {
          "id": 3,
          "value": 0.658999979
        }
      ],
      "leftModuleId": 104,
      "pos": [
        138,
        2
      ]
    },
    {
      "id": 106,
      "plugin": "CountModula",
      "version": "1.3.0",
      "model": "SubHarmonicGenerator",
      "params": [
        {
          "id": 0,
          "value": 0.315000027
        },
        {
          "id": 1,
          "value": 0.123000003
        },
        {
          "id": 2,
          "value": 0.262500018
        },
        {
          "id": 3,
          "value": 0.0
        },
        {
          "id": 4,
          "value": 0.0
        },
        {
          "id": 5,
          "value": 2.0
        },
        {
          "id": 6,
          "value": 4.0
        },
        {
          "id": 7,
          "value": 8.0
        },
        {
          "id": 8,
          "value": 16.0
        },
        {
          "id": 9,
          "value": 1.0
        }
      ],
      "leftModuleId": 107,
      "rightModuleId": 109,
      "data": {
        "moduleVersion": "1.0",
        "antiAlias": false
      },
      "pos": [
        35,
        2
      ]
    },
    {
      "id": 107,
      "plugin": "VultModulesFree",
      "version": "1.2.0",
      "model": "Bleak",
      "params": [
        {
          "id": 0,
          "value": 0.0
        },
        {
          "id": 1,
          "value": 0.435999751
        },
        {
          "id": 2,
          "value": 0.5
        },
        {
          "id": 3,
          "value": 0.0
        },
        {
          "id": 4,
          "value": 0.247000188
        },
        {
          "id": 5,
          "value": 0.0
        }
      ],
      "leftModuleId": 113,
      "rightModuleId": 106,
      "pos": [
        29,
        2
      ]
    },
    {
      "id": 109,
      "plugin": "VultModulesFree",
      "version": "1.2.0",
      "model": "Tangents",
      "params": [
        {
          "id": 0,
          "value": 0.357000083
        },
        {
          "id": 1,
          "value": 0.384000093
        },
        {
          "id": 2,
          "value": 0.296999931
        },
        {
          "id": 3,
          "value": 0.0
        },
        {
          "id": 4,
          "value": 0.678000152
        },
        {
          "id": 5,
          "value": 0.0
        },
        {
          "id": 6,
          "value": 0.0
        }
      ],
      "leftModuleId": 106,
      "rightModuleId": 114,
      "pos": [
        43,
        2
      ]
    },
    {
      "id": 110,
      "plugin": "CountModula",
      "version": "1.3.0",
      "model": "Multiplexer",
      "params": [
        {
          "id": 0,
          "value": 7.0
        },
        {
          "id": 1,
          "value": 8.0
        },
        {
          "id": 2,
          "value": 0.0
        },
        {
          "id": 3,
          "value": 1.0
        }
      ],
      "leftModuleId": 112,
      "rightModuleId": 113,
      "data": {
        "moduleVersion": "1.0"
      },
      "pos": [
        6,
        2
      ]
    },
    {
      "id": 112,
      "plugin": "ML_modules",
      "version": "1.0.2",
      "model": "Constants",
      "params": [],
      "rightModuleId": 110,
      "pos": [
        0,
        2
      ]
    },
    {
      "id": 113,
      "plugin": "Bogaudio",
      "version": "1.1.22",
      "model": "Bogaudio-Slew",
      "params": [
        {
          "id": 0,
          "value": 0.998730481
        },
        {
          "id": 1,
          "value": 0.147999585
        },
        {
          "id": 2,
          "value": 0.964229822
        },
        {
          "id": 3,
          "value": -0.215999976
        }
      ],
      "leftModuleId": 110,
      "rightModuleId": 107,
      "pos": [
        26,
        2
      ]
    },
    {
      "id": 114,
      "plugin": "Bogaudio",
      "version": "1.1.22",
      "model": "Bogaudio-LLFO",
      "params": [
        {
          "id": 0,
          "value": 0.0
        },
        {
          "id": 1,
          "value": 1.0
        },
        {
          "id": 2,
          "value": 1.0
        },
        {
          "id": 3,
          "value": 1.0
        },
        {
          "id": 4,
          "value": 1.0
        }
      ],
      "leftModuleId": 109,
      "pos": [
        53,
        2
      ]
    },
    {
      "id": 115,
      "plugin": "CountModula",
      "version": "1.3.0",
      "model": "BinarySequencer",
      "params": [
        {
          "id": 0,
          "value": 3.68999863
        },
        {
          "id": 1,
          "value": 0.0
        },
        {
          "id": 2,
          "value": 5.91999245
        },
        {
          "id": 3,
          "value": 0.0
        },
        {
          "id": 4,
          "value": 0.0
        },
        {
          "id": 5,
          "value": 0.0
        },
        {
          "id": 6,
          "value": 0.0
        },
        {
          "id": 7,
          "value": 0.640001416
        },
        {
          "id": 8,
          "value": 0.00150000001
        },
        {
          "id": 9,
          "value": 0.0
        }
      ],
      "data": {
        "moduleVersion": "1.3"
      },
      "pos": [
        57,
        2
      ]
    },
    {
      "id": 117,
      "plugin": "CountModula",
      "version": "1.3.0",
      "model": "MinimusMaximus",
      "params": [
        {
          "id": 0,
          "value": 0.0
        },
        {
          "id": 1,
          "value": 0.0
        },
        {
          "id": 2,
          "value": 0.0
        }
      ],
      "rightModuleId": 101,
      "data": {
        "moduleVersion": "1.0"
      },
      "pos": [
        100,
        2
      ]
    },
    {
      "id": 120,
      "plugin": "AnimatedCircuitsPreview",
      "version": "1.2.0",
      "model": "ACCosmic",
      "params": [
        {
          "id": 0,
          "value": 1.0
        },
        {
          "id": 1,
          "value": 1.0
        },
        {
          "id": 2,
          "value": 1.0
        },
        {
          "id": 3,
          "value": 1.0
        },
        {
          "id": 4,
          "value": 0.0
        },
        {
          "id": 5,
          "value": 0.0
        },
        {
          "id": 6,
          "value": -2.0
        },
        {
          "id": 7,
          "value": -2.0
        },
        {
          "id": 8,
          "value": 0.0
        },
        {
          "id": 9,
          "value": 0.0
        },
        {
          "id": 10,
          "value": 0.0
        },
        {
          "id": 11,
          "value": 0.0
        },
        {
          "id": 12,
          "value": 0.5
        },
        {
          "id": 13,
          "value": 0.5
        },
        {
          "id": 14,
          "value": 0.5
        },
        {
          "id": 15,
          "value": 0.5
        },
        {
          "id": 16,
          "value": 0.0
        },
        {
          "id": 17,
          "value": 0.0
        },
        {
          "id": 18,
          "value": 0.0
        },
        {
          "id": 19,
          "value": 0.0
        },
        {
          "id": 20,
          "value": 1.0
        },
        {
          "id": 21,
          "value": 1.0
        },
        {
          "id": 22,
          "value": 0.0
        },
        {
          "id": 23,
          "value": 0.0
        },
        {
          "id": 24,
          "value": 0.0
        },
        {
          "id": 25,
          "value": 0.0
        },
        {
          "id": 26,
          "value": 1.0
        },
        {
          "id": 27,
          "value": 1.0
        }
      ],
      "pos": [
        74,
        2
      ]
    }
  ],
  "cables": [
    {
      "id": 9,
      "outputModuleId": 1,
      "outputId": 0,
      "inputModuleId": 3,
      "inputId": 0,
      "color": "#0986ad"
    },
    {
      "id": 10,
      "outputModuleId": 1,
      "outputId": 1,
      "inputModuleId": 3,
      "inputId": 1,
      "color": "#c9b70e"
    },
    {
      "id": 108,
      "outputModuleId": 83,
      "outputId": 0,
      "inputModuleId": 85,
      "inputId": 2,
      "color": "#0986ad"
    },
    {
      "id": 109,
      "outputModuleId": 83,
      "outputId": 1,
      "inputModuleId": 85,
      "inputId": 3,
      "color": "#c9b70e"
    },
    {
      "id": 116,
      "outputModuleId": 85,
      "outputId": 8,
      "inputModuleId": 91,
      "inputId": 0,
      "color": "#0986ad"
    },
    {
      "id": 117,
      "outputModuleId": 91,
      "outputId": 0,
      "inputModuleId": 92,
      "inputId": 0,
      "color": "#c9b70e"
    },
    {
      "id": 118,
      "outputModuleId": 92,
      "outputId": 0,
      "inputModuleId": 93,
      "inputId": 0,
      "color": "#0c8e15"
    },
    {
      "id": 119,
      "outputModuleId": 93,
      "outputId": 0,
      "inputModuleId": 94,
      "inputId": 2,
      "color": "#c91847"
    },
    {
      "id": 123,
      "outputModuleId": 96,
      "outputId": 0,
      "inputModuleId": 94,
      "inputId": 3,
      "color": "#0986ad"
    },
    {
      "id": 124,
      "outputModuleId": 85,
      "outputId": 0,
      "inputModuleId": 96,
      "inputId": 0,
      "color": "#c91847"
    },
    {
      "id": 125,
      "outputModuleId": 85,
      "outputId": 1,
      "inputModuleId": 97,
      "inputId": 0,
      "color": "#0986ad"
    },
    {
      "id": 126,
      "outputModuleId": 97,
      "outputId": 0,
      "inputModuleId": 98,
      "inputId": 3,
      "color": "#c9b70e"
    },
    {
      "id": 128,
      "outputModuleId": 93,
      "outputId": 0,
      "inputModuleId": 98,
      "inputId": 2,
      "color": "#c91847"
    },
    {
      "id": 122,
      "outputModuleId": 99,
      "outputId": 0,
      "inputModuleId": 1,
      "inputId": 0,
      "color": "#0c8e15"
    },
    {
      "id": 129,
      "outputModuleId": 94,
      "outputId": 0,
      "inputModuleId": 99,
      "inputId": 5,
      "color": "#0986ad"
    },
    {
      "id": 130,
      "outputModuleId": 98,
      "outputId": 0,
      "inputModuleId": 99,
      "inputId": 6,
      "color": "#c9b70e"
    },
    {
      "id": 131,
      "outputModuleId": 82,
      "outputId": 0,
      "inputModuleId": 99,
      "inputId": 7,
      "color": "#0c8e15"
    },
    {
      "id": 127,
      "outputModuleId": 99,
      "outputId": 1,
      "inputModuleId": 1,
      "inputId": 32,
      "color": "#0c8e15"
    },
    {
      "id": 134,
      "outputModuleId": 100,
      "outputId": 0,
      "inputModuleId": 1,
      "inputId": 28,
      "color": "#c9b70e"
    },
    {
      "id": 135,
      "outputModuleId": 100,
      "outputId": 1,
      "inputModuleId": 1,
      "inputId": 60,
      "color": "#0c8e15"
    },
    {
      "id": 136,
      "outputModuleId": 1,
      "outputId": 10,
      "inputModuleId": 100,
      "inputId": 0,
      "color": "#c91847"
    },
    {
      "id": 137,
      "outputModuleId": 1,
      "outputId": 14,
      "inputModuleId": 100,
      "inputId": 1,
      "color": "#0c8e15"
    },
    {
      "id": 138,
      "outputModuleId": 104,
      "outputId": 0,
      "inputModuleId": 103,
      "inputId": 0,
      "color": "#c91847"
    },
    {
      "id": 140,
      "outputModuleId": 85,
      "outputId": 10,
      "inputModuleId": 91,
      "inputId": 1,
      "color": "#c9b70e"
    },
    {
      "id": 141,
      "outputModuleId": 85,
      "outputId": 11,
      "inputModuleId": 91,
      "inputId": 2,
      "color": "#c91847"
    },
    {
      "id": 142,
      "outputModuleId": 93,
      "outputId": 1,
      "inputModuleId": 101,
      "inputId": 0,
      "color": "#0986ad"
    },
    {
      "id": 143,
      "outputModuleId": 93,
      "outputId": 2,
      "inputModuleId": 102,
      "inputId": 0,
      "color": "#c9b70e"
    },
    {
      "id": 144,
      "outputModuleId": 101,
      "outputId": 0,
      "inputModuleId": 103,
      "inputId": 1,
      "color": "#0c8e15"
    },
    {
      "id": 145,
      "outputModuleId": 102,
      "outputId": 0,
      "inputModuleId": 103,
      "inputId": 3,
      "color": "#c91847"
    },
    {
      "id": 146,
      "outputModuleId": 85,
      "outputId": 2,
      "inputModuleId": 104,
      "inputId": 4,
      "color": "#0986ad"
    },
    {
      "id": 147,
      "outputModuleId": 85,
      "outputId": 6,
      "inputModuleId": 105,
      "inputId": 4,
      "color": "#c9b70e"
    },
    {
      "id": 148,
      "outputModuleId": 105,
      "outputId": 0,
      "inputModuleId": 103,
      "inputId": 2,
      "color": "#0c8e15"
    },
    {
      "id": 149,
      "outputModuleId": 103,
      "outputId": 0,
      "inputModuleId": 1,
      "inputId": 1,
      "color": "#c91847"
    },
    {
      "id": 150,
      "outputModuleId": 103,
      "outputId": 1,
      "inputModuleId": 1,
      "inputId": 33,
      "color": "#0986ad"
    },
    {
      "id": 151,
      "outputModuleId": 107,
      "outputId": 0,
      "inputModuleId": 106,
      "inputId": 0,
      "color": "#c9b70e"
    },
    {
      "id": 154,
      "outputModuleId": 109,
      "outputId": 0,
      "inputModuleId": 1,
      "inputId": 34,
      "color": "#0986ad"
    },
    {
      "id": 153,
      "outputModuleId": 109,
      "outputId": 0,
      "inputModuleId": 1,
      "inputId": 2,
      "color": "#c91847"
    },
    {
      "id": 155,
      "outputModuleId": 106,
      "outputId": 0,
      "inputModuleId": 109,
      "inputId": 0,
      "color": "#c9b70e"
    },
    {
      "id": 156,
      "outputModuleId": 112,
      "outputId": 5,
      "inputModuleId": 110,
      "inputId": 9,
      "color": "#0c8e15"
    },
    {
      "id": 157,
      "outputModuleId": 112,
      "outputId": 5,
      "inputModuleId": 110,
      "inputId": 10,
      "color": "#c91847"
    },
    {
      "id": 158,
      "outputModuleId": 112,
      "outputId": 4,
      "inputModuleId": 110,
      "inputId": 11,
      "color": "#0986ad"
    },
    {
      "id": 159,
      "outputModuleId": 112,
      "outputId": 4,
      "inputModuleId": 110,
      "inputId": 12,
      "color": "#c9b70e"
    },
    {
      "id": 161,
      "outputModuleId": 110,
      "outputId": 0,
      "inputModuleId": 113,
      "inputId": 2,
      "color": "#0986ad"
    },
    {
      "id": 162,
      "outputModuleId": 113,
      "outputId": 0,
      "inputModuleId": 107,
      "inputId": 0,
      "color": "#c9b70e"
    },
    {
      "id": 105,
      "outputModuleId": 82,
      "outputId": 1,
      "inputModuleId": 83,
      "inputId": 0,
      "color": "#c9b70e"
    },
    {
      "id": 160,
      "outputModuleId": 82,
      "outputId": 2,
      "inputModuleId": 110,
      "inputId": 0,
      "color": "#c91847"
    },
    {
      "id": 163,
      "outputModuleId": 82,
      "outputId": 4,
      "inputModuleId": 83,
      "inputId": 8,
      "color": "#0c8e15"
    },
    {
      "id": 164,
      "outputModuleId": 82,
      "outputId": 4,
      "inputModuleId": 85,
      "inputId": 4,
      "color": "#c91847"
    },
    {
      "id": 165,
      "outputModuleId": 82,
      "outputId": 4,
      "inputModuleId": 110,
      "inputId": 2,
      "color": "#0986ad"
    },
    {
      "id": 166,
      "outputModuleId": 82,
      "outputId": 4,
      "inputModuleId": 110,
      "inputId": 3,
      "color": "#c9b70e"
    },
    {
      "id": 167,
      "outputModuleId": 82,
      "outputId": 4,
      "inputModuleId": 85,
      "inputId": 5,
      "color": "#0c8e15"
    },
    {
      "id": 168,
      "outputModuleId": 114,
      "outputId": 0,
      "inputModuleId": 109,
      "inputId": 3,
      "color": "#c91847"
    },
    {
      "id": 170,
      "outputModuleId": 82,
      "outputId": 1,
      "inputModuleId": 115,
      "inputId": 0,
      "color": "#c9b70e"
    },
    {
      "id": 172,
      "outputModuleId": 82,
      "outputId": 4,
      "inputModuleId": 115,
      "inputId": 1,
      "color": "#c91847"
    },
    {
      "id": 169,
      "outputModuleId": 115,
      "outputId": 0,
      "inputModuleId": 91,
      "inputId": 3,
      "color": "#0986ad"
    },
    {
      "id": 175,
      "outputModuleId": 120,
      "outputId": 0,
      "inputModuleId": 1,
      "inputId": 35,
      "color": "#0c8e15"
    },
    {
      "id": 174,
      "outputModuleId": 120,
      "outputId": 0,
      "inputModuleId": 1,
      "inputId": 3,
      "color": "#c9b70e"
    },
    {
      "id": 173,
      "outputModuleId": 93,
      "outputId": 3,
      "inputModuleId": 120,
      "inputId": 0,
      "color": "#0986ad"
    }
  ]
}