{
  "version": "1.1.6",
  "modules": [
    {
      "id": 9,
      "plugin": "squinkylabs-plug1",
      "version": "1.0.5",
      "model": "squinkylabs-mixm",
      "params": [
        {
          "id": 0,
          "value": 0.823000014
        },
        {
          "id": 1,
          "value": 0.0
        },
        {
          "id": 2,
          "value": 0.32100004
        },
        {
          "id": 3,
          "value": 0.0
        },
        {
          "id": 4,
          "value": 0.0
        },
        {
          "id": 5,
          "value": 0.0
        },
        {
          "id": 6,
          "value": 0.0
        },
        {
          "id": 7,
          "value": 0.0
        },
        {
          "id": 8,
          "value": 0.0
        },
        {
          "id": 9,
          "value": 0.0
        },
        {
          "id": 10,
          "value": 0.0
        },
        {
          "id": 11,
          "value": 0.0
        },
        {
          "id": 12,
          "value": 0.0
        },
        {
          "id": 13,
          "value": 0.0
        },
        {
          "id": 14,
          "value": 0.0
        },
        {
          "id": 15,
          "value": 0.0
        },
        {
          "id": 16,
          "value": 0.0
        },
        {
          "id": 17,
          "value": 0.0
        },
        {
          "id": 18,
          "value": 0.0
        },
        {
          "id": 19,
          "value": 0.0
        },
        {
          "id": 20,
          "value": 0.0
        },
        {
          "id": 21,
          "value": 0.0
        },
        {
          "id": 22,
          "value": 0.0
        },
        {
          "id": 23,
          "value": 0.0
        },
        {
          "id": 24,
          "value": 0.0
        },
        {
          "id": 25,
          "value": 0.0
        },
        {
          "id": 26,
          "value": 0.0
        },
        {
          "id": 27,
          "value": 0.0
        },
        {
          "id": 28,
          "value": 0.0
        },
        {
          "id": 29,
          "value": 0.486000091
        },
        {
          "id": 30,
          "value": 0.0
        },
        {
          "id": 31,
          "value": 0.0
        },
        {
          "id": 32,
          "value": 0.0
        },
        {
          "id": 33,
          "value": 0.0
        },
        {
          "id": 34,
          "value": 0.0
        },
        {
          "id": 35,
          "value": 0.0
        },
        {
          "id": 36,
          "value": 1.0
        }
      ],
      "leftModuleId": 10,
      "rightModuleId": 12,
      "pos": [
        38,
        0
      ]
    },
    {
      "id": 10,
      "plugin": "squinkylabs-plug1",
      "version": "1.0.5",
      "model": "squinkylabs-mix4",
      "params": [
        {
          "id": 0,
          "value": 0.423000097
        },
        {
          "id": 1,
          "value": 0.424500257
        },
        {
          "id": 2,
          "value": 0.366000086
        },
        {
          "id": 3,
          "value": 0.378000081
        },
        {
          "id": 4,
          "value": 0.0
        },
        {
          "id": 5,
          "value": 0.0
        },
        {
          "id": 6,
          "value": 0.0
        },
        {
          "id": 7,
          "value": 0.0
        },
        {
          "id": 8,
          "value": 0.0
        },
        {
          "id": 9,
          "value": 0.0
        },
        {
          "id": 10,
          "value": 0.0
        },
        {
          "id": 11,
          "value": 0.0
        },
        {
          "id": 12,
          "value": 0.0
        },
        {
          "id": 13,
          "value": 0.0
        },
        {
          "id": 14,
          "value": 0.0
        },
        {
          "id": 15,
          "value": 0.0
        },
        {
          "id": 16,
          "value": 0.0
        },
        {
          "id": 17,
          "value": 0.228000015
        },
        {
          "id": 18,
          "value": 0.203999951
        },
        {
          "id": 19,
          "value": 0.0
        },
        {
          "id": 20,
          "value": 0.0
        },
        {
          "id": 21,
          "value": 0.0
        },
        {
          "id": 22,
          "value": 0.0
        },
        {
          "id": 23,
          "value": 0.0
        },
        {
          "id": 24,
          "value": 0.0
        },
        {
          "id": 25,
          "value": 0.0
        },
        {
          "id": 26,
          "value": 0.0
        },
        {
          "id": 27,
          "value": 0.0
        },
        {
          "id": 28,
          "value": 0.0
        },
        {
          "id": 29,
          "value": 0.0
        },
        {
          "id": 30,
          "value": 0.0
        },
        {
          "id": 31,
          "value": 0.0
        }
      ],
      "leftModuleId": 115,
      "rightModuleId": 9,
      "pos": [
        28,
        0
      ]
    },
    {
      "id": 11,
      "plugin": "Core",
      "version": "1.1.6",
      "model": "AudioInterface",
      "params": [],
      "leftModuleId": 163,
      "data": {
        "audio": {
          "driver": 4,
          "deviceName": "system",
          "offset": 0,
          "maxChannels": 8,
          "sampleRate": 48000,
          "blockSize": 1024
        }
      },
      "pos": [
        79,
        0
      ]
    },
    {
      "id": 12,
      "plugin": "Valley",
      "version": "1.0.1",
      "model": "Plateau",
      "params": [
        {
          "id": 0,
          "value": 1.0
        },
        {
          "id": 1,
          "value": 0.5
        },
        {
          "id": 2,
          "value": 0.0
        },
        {
          "id": 3,
          "value": 9.08499718
        },
        {
          "id": 4,
          "value": 10.0
        },
        {
          "id": 5,
          "value": 0.5
        },
        {
          "id": 6,
          "value": 10.0
        },
        {
          "id": 7,
          "value": 0.549950004
        },
        {
          "id": 8,
          "value": 10.0
        },
        {
          "id": 9,
          "value": 10.0
        },
        {
          "id": 10,
          "value": 0.0
        },
        {
          "id": 11,
          "value": 0.5
        },
        {
          "id": 12,
          "value": 0.5
        },
        {
          "id": 13,
          "value": 0.0
        },
        {
          "id": 14,
          "value": 0.0
        },
        {
          "id": 15,
          "value": 0.0
        },
        {
          "id": 16,
          "value": 0.0
        },
        {
          "id": 17,
          "value": 0.0
        },
        {
          "id": 18,
          "value": 0.0
        },
        {
          "id": 19,
          "value": 0.0
        },
        {
          "id": 20,
          "value": 0.0
        },
        {
          "id": 21,
          "value": 0.0
        },
        {
          "id": 22,
          "value": 0.0
        },
        {
          "id": 23,
          "value": 0.0
        },
        {
          "id": 24,
          "value": 0.0
        },
        {
          "id": 25,
          "value": 0.0
        },
        {
          "id": 26,
          "value": 0.0
        },
        {
          "id": 27,
          "value": 0.0
        },
        {
          "id": 28,
          "value": 0.0
        },
        {
          "id": 29,
          "value": 0.0
        },
        {
          "id": 30,
          "value": 1.0
        }
      ],
      "leftModuleId": 9,
      "rightModuleId": 163,
      "data": {
        "frozen": false,
        "freezeToggle": false,
        "panelStyle": 1,
        "tuned": 0,
        "diffuseInput": 1,
        "preDelayCVSens": 0,
        "inputSensitivity": 0,
        "outputSaturation": 0
      },
      "pos": [
        55,
        0
      ]
    },
    {
      "id": 115,
      "plugin": "HolonicSystems-Free",
      "version": "1.0.2",
      "model": "HolonicSystems-Pantry",
      "params": [
        {
          "id": 0,
          "value": 0.0
        },
        {
          "id": 1,
          "value": 0.0
        },
        {
          "id": 2,
          "value": 0.0
        },
        {
          "id": 3,
          "value": 0.0
        },
        {
          "id": 4,
          "value": 0.0
        },
        {
          "id": 5,
          "value": 0.0
        },
        {
          "id": 6,
          "value": 1.0
        },
        {
          "id": 7,
          "value": 31.0
        },
        {
          "id": 8,
          "value": 0.0
        },
        {
          "id": 9,
          "value": 0.0
        }
      ],
      "leftModuleId": 116,
      "rightModuleId": 10,
      "pos": [
        20,
        0
      ]
    },
    {
      "id": 116,
      "plugin": "ImpromptuModular",
      "version": "1.1.2",
      "model": "Clocked",
      "params": [
        {
          "id": 0,
          "value": 44.0
        },
        {
          "id": 1,
          "value": 9.0
        },
        {
          "id": 2,
          "value": 2.0
        },
        {
          "id": 3,
          "value": 0.0
        },
        {
          "id": 4,
          "value": 0.0
        },
        {
          "id": 5,
          "value": 0.0
        },
        {
          "id": 6,
          "value": 0.285000026
        },
        {
          "id": 7,
          "value": 0.0
        },
        {
          "id": 8,
          "value": 0.5
        },
        {
          "id": 9,
          "value": 0.5
        },
        {
          "id": 10,
          "value": 0.5
        },
        {
          "id": 11,
          "value": 0.0439999811
        },
        {
          "id": 12,
          "value": 0.0
        },
        {
          "id": 13,
          "value": 0.0
        },
        {
          "id": 14,
          "value": 0.0
        },
        {
          "id": 15,
          "value": 0.0
        },
        {
          "id": 16,
          "value": 0.0
        },
        {
          "id": 17,
          "value": 1.0
        },
        {
          "id": 18,
          "value": 0.0
        },
        {
          "id": 19,
          "value": 0.0
        }
      ],
      "rightModuleId": 115,
      "data": {
        "panelTheme": 1,
        "running": true,
        "displayDelayNoteMode": true,
        "bpmDetectionMode": false,
        "restartOnStopStartRun": 0,
        "sendResetOnRestart": false,
        "ppqn": 4,
        "resetClockOutputsHigh": true
      },
      "pos": [
        0,
        0
      ]
    },
    {
      "id": 118,
      "plugin": "Bogaudio",
      "version": "1.1.25",
      "model": "Bogaudio-FMOp",
      "params": [
        {
          "id": 0,
          "value": 0.0
        },
        {
          "id": 1,
          "value": 0.0
        },
        {
          "id": 2,
          "value": 0.0269999988
        },
        {
          "id": 3,
          "value": 0.933999956
        },
        {
          "id": 4,
          "value": 0.757000148
        },
        {
          "id": 5,
          "value": 0.148500144
        },
        {
          "id": 6,
          "value": 0.0
        },
        {
          "id": 7,
          "value": 0.108000025
        },
        {
          "id": 8,
          "value": 1.0
        },
        {
          "id": 9,
          "value": 1.0
        },
        {
          "id": 10,
          "value": 0.0
        },
        {
          "id": 11,
          "value": 0.0
        }
      ],
      "leftModuleId": 122,
      "rightModuleId": 127,
      "data": {
        "linearLevel": false
      },
      "pos": [
        67,
        1
      ]
    },
    {
      "id": 119,
      "plugin": "Bogaudio",
      "version": "1.1.25",
      "model": "Bogaudio-FMOp",
      "params": [
        {
          "id": 0,
          "value": 0.0
        },
        {
          "id": 1,
          "value": 0.0
        },
        {
          "id": 2,
          "value": 0.0435000025
        },
        {
          "id": 3,
          "value": 0.863500059
        },
        {
          "id": 4,
          "value": 0.938499868
        },
        {
          "id": 5,
          "value": 0.0389999971
        },
        {
          "id": 6,
          "value": 0.0
        },
        {
          "id": 7,
          "value": 0.0945000052
        },
        {
          "id": 8,
          "value": 1.0
        },
        {
          "id": 9,
          "value": 1.0
        },
        {
          "id": 10,
          "value": 0.0
        },
        {
          "id": 11,
          "value": 0.0
        }
      ],
      "leftModuleId": 127,
      "data": {
        "linearLevel": false
      },
      "pos": [
        80,
        1
      ]
    },
    {
      "id": 122,
      "plugin": "ML_modules",
      "version": "1.0.3",
      "model": "Quantum",
      "params": [
        {
          "id": 0,
          "value": 0.0
        },
        {
          "id": 1,
          "value": 0.0
        },
        {
          "id": 2,
          "value": 0.0
        },
        {
          "id": 3,
          "value": 0.0
        },
        {
          "id": 4,
          "value": 0.0
        },
        {
          "id": 5,
          "value": 0.0
        },
        {
          "id": 6,
          "value": 0.0
        },
        {
          "id": 7,
          "value": 0.0
        },
        {
          "id": 8,
          "value": 0.0
        },
        {
          "id": 9,
          "value": 0.0
        },
        {
          "id": 10,
          "value": 0.0
        },
        {
          "id": 11,
          "value": 0.0
        }
      ],
      "leftModuleId": 133,
      "rightModuleId": 118,
      "data": {
        "scale": [
          1,
          0,
          1,
          0,
          0,
          0,
          0,
          1,
          0,
          1,
          0,
          0
        ],
        "mode": 1,
        "transpose_select": 1,
        "toggle_mode": 0
      },
      "pos": [
        59,
        1
      ]
    },
    {
      "id": 127,
      "plugin": "Bogaudio",
      "version": "1.1.25",
      "model": "Bogaudio-Stack",
      "params": [
        {
          "id": 0,
          "value": 0.0
        },
        {
          "id": 1,
          "value": -1.0
        },
        {
          "id": 2,
          "value": 0.0
        },
        {
          "id": 3,
          "value": 1.0
        }
      ],
      "leftModuleId": 118,
      "rightModuleId": 119,
      "pos": [
        77,
        1
      ]
    },
    {
      "id": 133,
      "plugin": "stocaudio",
      "version": "1.0.1",
      "model": "Polyturing",
      "params": [
        {
          "id": 0,
          "value": 0.59649992
        },
        {
          "id": 1,
          "value": 0.0
        },
        {
          "id": 2,
          "value": 0.387499899
        },
        {
          "id": 3,
          "value": 0.0
        },
        {
          "id": 4,
          "value": 16.0
        },
        {
          "id": 5,
          "value": 0.0
        },
        {
          "id": 6,
          "value": -0.468000025
        },
        {
          "id": 7,
          "value": 0.0
        },
        {
          "id": 8,
          "value": 0.0
        },
        {
          "id": 9,
          "value": 0.0
        },
        {
          "id": 10,
          "value": 0.0
        }
      ],
      "leftModuleId": 145,
      "rightModuleId": 122,
      "data": {
        "celles": [
          2.24754548,
          1.49331725,
          -2.18644428,
          -4.86447239,
          2.06356192,
          0.0996249914,
          0.104892612,
          1.11834586,
          1.92715847,
          3.61140132,
          1.58394778,
          0.0979361534,
          1.30495572,
          0.999150515,
          -2.71198535,
          1.96822107,
          1.6277777,
          0.985254884,
          1.83630562,
          0.41436851,
          1.35857117,
          1.67541885,
          0.944325089,
          1.71560621,
          0.376260996,
          0.172972798,
          1.43084133,
          0.662332058,
          0.204644918,
          0.327880144,
          1.59022844,
          1.52343333,
          0.500799596,
          1.18755329,
          -3.08935881,
          0.40377605,
          0.0303339958,
          1.43495369,
          1.36490893,
          0.0418890715,
          0.684173465,
          1.28552902,
          0.0215092897,
          1.52269816,
          1.73684728,
          1.39857137,
          1.39157796,
          1.81465077,
          0.718218327,
          1.24373686,
          1.52320623,
          0.532576084,
          0.609763622,
          0.923006058,
          0.300088167,
          1.99456716,
          0.240627527,
          1.8638798,
          0.451765418,
          1.2929455,
          0.480324149,
          1.25208509,
          0.48089242,
          0.485729218,
          2.52600288,
          1.98188972,
          -0.0639763623,
          1.3938185,
          0.0712872744,
          0.583333373,
          0.78802669,
          0.340394378,
          1.14258993,
          1.16666663,
          0.166666672,
          1.0836302,
          -1.41666663,
          0.814642191,
          0.346257329,
          1.3761903,
          1.88202679,
          1.35661614,
          0.527985096,
          1.47182727,
          1.20855677,
          1.17845654,
          0.638604403,
          0.415068626,
          0.41194129,
          0.0423978567,
          1.78810036,
          1.18203032,
          0.222930789,
          1.15505731,
          0.485089779,
          1.91482556,
          -1.55022526,
          0.516005158,
          0.465838075,
          -2.06078339,
          -2.34019756,
          -0.237918854,
          0.226319075,
          0.901779294,
          -0.10289669,
          1.61035144,
          -1.69356251,
          0.206113935,
          0.764432549,
          0.235304832,
          -0.81076622,
          -0.725570679,
          -1.31018829,
          0.231972337,
          0.369588137,
          1.17164469,
          0.391780496,
          0.142365098,
          1.9281776,
          0.80264771,
          0.746373415,
          1.25145757,
          0.463219643,
          1.19044816,
          1.54949725,
          1.24798429,
          0.628369927,
          0.651976466,
          0.0,
          1.33318365,
          1.46007454,
          0.715686321,
          0.0,
          0.0,
          0.237226725,
          0.743646979,
          0.0,
          0.0,
          0.516730309,
          -0.0,
          0.795473218,
          0.0168654919,
          1.51179111,
          1.65019238,
          1.36288249,
          0.79913342,
          0.0346734524,
          1.88487005,
          1.60510719,
          1.52594161,
          1.08884466,
          0.547218323,
          0.424206257,
          0.70856452,
          1.75647068,
          0.307552099,
          0.781562448,
          1.61792111,
          1.88418829,
          1.76376033,
          -4.99984741,
          -4.99984741,
          0.260002494,
          1.42895401,
          -4.99992132,
          1.7956295,
          1.32939005,
          0.154710054,
          0.755885959,
          0.799700022,
          0.632627845,
          1.8480556,
          0.719368577,
          0.756909847,
          0.802796602,
          0.768179893,
          1.73637533,
          1.77471447,
          0.430092931,
          1.84226894,
          0.222117543,
          0.0711575747,
          0.169721723,
          1.92132342,
          0.547347784,
          1.46932387,
          1.5161593,
          0.317397952,
          0.841235638,
          1.1501379,
          0.791582465,
          1.83716595,
          4.00218391,
          0.839796662,
          4.01089859,
          4.01524544,
          1.72926629,
          1.45917952,
          0.235622883,
          4.01524544,
          1.95047128,
          1.65064275,
          0.136898041,
          4.01524544,
          -96.7424545,
          0.860978246,
          0.392759562,
          1.91045129,
          0.693472147,
          1.61855853,
          0.118170142,
          1.75858402,
          0.347325802,
          1.25664377,
          0.654642105,
          1.98685026,
          1.80259454,
          0.121041417,
          1.32265007,
          0.101386189,
          1.3345542,
          0.52598393,
          1.90772212,
          1.54734445,
          0.0,
          0.667431474,
          0.0,
          0.0857077837,
          1.12614477,
          0.0,
          0.422896981,
          0.886493444,
          1.1023581,
          0.960503221,
          0.684893131,
          0.364307761,
          1.3238672,
          1.17117083,
          1.16012895,
          0.226062298,
          0.971990705,
          0.555459023,
          0.246530771,
          0.738879919,
          1.75041568,
          1.46823311,
          1.62040567,
          1.31699669,
          1.95577967,
          1.00899661,
          1.19204557,
          1.80259037,
          0.33844924,
          1.81153047,
          1.29311669,
          1.85845447,
          2.42846055e-36,
          0.0,
          0.0,
          0.0,
          -1.87566992e-17,
          4.5879913e-41,
          4.23831146e-36,
          0.0,
          4.23830572e-36,
          0.0,
          1.35631151e-19,
          1.35631564e-19,
          9.10844002e-44,
          0.0,
          2.4265234e-36,
          0.0,
          2.4282654e-36,
          0.0,
          2.4285323e-36,
          0.0,
          4.62428493e-44,
          0.0,
          2.42836585e-36,
          0.0,
          2.42809321e-36,
          0.0,
          1.68155816e-42,
          0.0,
          1.79366203e-43,
          0.0,
          2.42824244e-36,
          0.0,
          54.0,
          330.0,
          18.0,
          18.0,
          0.0,
          0.0,
          2.42848925e-36,
          0.0,
          2.42848925e-36,
          0.0,
          0.0,
          0.0,
          5.00975548e33,
          1.8041545e28,
          0.0,
          0.0,
          1.40129846e-44,
          4.14874029e-39,
          1.40129846e-45,
          1.08762541e-19,
          2.42850647e-36,
          0.0,
          2.4285323e-36,
          0.0,
          2.42855813e-36,
          0.0,
          2.42857822e-36,
          0.0,
          1.21212317e-42,
          0.0,
          1.06128256e-36,
          0.0,
          2.42814487e-36,
          0.0,
          8.0,
          8.0,
          0.0,
          0.0,
          2.42851221e-36,
          0.0,
          2.42851221e-36,
          0.0,
          0.0,
          0.0,
          0.000926971494,
          0.0,
          0.0,
          0.0,
          0.0,
          0.0,
          0.0,
          0.0,
          0.0,
          0.0,
          0.0,
          0.0,
          0.0,
          1.35558359e-19,
          7.34424534e-36,
          0.0,
          7.34427978e-36,
          0.0,
          2.01786979e-43,
          0.0,
          2.01786979e-43,
          0.0,
          1.22592876e-38,
          0.0,
          0.0,
          0.0,
          18.0,
          18.0,
          0.0,
          0.0,
          2.42853804e-36,
          0.0,
          2.42853804e-36,
          0.0,
          0.0,
          0.0,
          9.18368975e-41,
          1.0,
          0.0,
          0.0,
          0.0,
          0.0,
          0.0,
          0.0,
          0.0,
          0.0,
          0.0,
          0.0,
          0.0,
          0.0,
          0.0,
          0.0,
          0.0,
          0.0,
          4.03573958e-43,
          0.0,
          1.12103877e-43,
          0.0,
          7.34423386e-36,
          0.0,
          0.0,
          1.79999995,
          18.0,
          18.0,
          0.0,
          0.0,
          2.42856387e-36,
          0.0,
          2.42856387e-36,
          0.0,
          0.0,
          0.0,
          7.35237396e31,
          0.0,
          0.150000006,
          6.89056508e22,
          4.62428493e-44,
          0.0,
          2.42846916e-36,
          0.0,
          2.42834002e-36,
          0.0,
          5.60519386e-43,
          0.0,
          1.34524653e-43,
          0.0,
          2.42845194e-36,
          0.0,
          0.0,
          0.0,
          18.0,
          18.0,
          0.0,
          0.0,
          2.42858396e-36,
          0.0,
          2.42858396e-36,
          0.0,
          0.0,
          0.0,
          2.5611373e-9,
          4.20037795e-5,
          3.3269934e-35,
          0.0,
          3.3269888e-35,
          0.0,
          4.41599392e21,
          7.00623823e22,
          5.17079133e-43,
          0.0,
          2.96033444e-36,
          0.0,
          2.42834002e-36,
          0.0,
          2.42857822e-36,
          0.0,
          4.62428493e-44,
          0.0,
          2.42883937e-36,
          0.0,
          2.42861839e-36,
          0.0,
          8.96831017e-44,
          0.0,
          1.12103877e-43,
          0.0,
          2.42855526e-36,
          0.0,
          0.0,
          1.60000002,
          16.0,
          16.0,
          0.0,
          0.0,
          2.42861265e-36,
          0.0,
          2.42861265e-36,
          0.0,
          0.0,
          0.0,
          1.42936522e13,
          0.0,
          0.150000006,
          1.35631564e-19,
          3.15292154e-43,
          0.0,
          2.42886233e-36,
          0.0,
          2.42846916e-36,
          0.0,
          2.42875328e-36,
          0.0,
          2.25609053e-43,
          0.0,
          2.42867866e-36,
          0.0,
          2.42877337e-36,
          0.0,
          16.0,
          16.0,
          0.0,
          0.0,
          2.42863274e-36,
          0.0,
          2.42863274e-36,
          0.0,
          0.0,
          0.0,
          1.40129846e-45,
          0.0,
          0.0,
          0.0,
          0.0,
          0.0,
          0.0,
          -1.70141204e38,
          0.0,
          2.42868153e-36,
          3.93846865e-11,
          1.03006909e-11
        ]
      },
      "pos": [
        51,
        1
      ]
    },
    {
      "id": 135,
      "plugin": "Fundamental",
      "version": "1.4.0",
      "model": "Merge",
      "params": [],
      "leftModuleId": 137,
      "rightModuleId": 145,
      "data": {
        "channels": -1
      },
      "pos": [
        41,
        1
      ]
    },
    {
      "id": 137,
      "plugin": "AudibleInstruments",
      "version": "1.0.0",
      "model": "Tides2",
      "params": [
        {
          "id": 0,
          "value": 0.0
        },
        {
          "id": 1,
          "value": 0.0
        },
        {
          "id": 2,
          "value": 0.0
        },
        {
          "id": 3,
          "value": -19.1040039
        },
        {
          "id": 4,
          "value": 0.5
        },
        {
          "id": 5,
          "value": 0.5
        },
        {
          "id": 6,
          "value": 0.5
        },
        {
          "id": 7,
          "value": 0.5
        },
        {
          "id": 8,
          "value": 0.0
        },
        {
          "id": 9,
          "value": 0.0
        },
        {
          "id": 10,
          "value": 0.0
        },
        {
          "id": 11,
          "value": 0.0
        },
        {
          "id": 12,
          "value": 0.0
        }
      ],
      "leftModuleId": 149,
      "rightModuleId": 135,
      "data": {
        "range": 1,
        "output": 0,
        "ramp": 1
      },
      "pos": [
        27,
        1
      ]
    },
    {
      "id": 145,
      "plugin": "Fundamental",
      "version": "1.4.0",
      "model": "Merge",
      "params": [],
      "leftModuleId": 135,
      "rightModuleId": 133,
      "data": {
        "channels": -1
      },
      "pos": [
        46,
        1
      ]
    },
    {
      "id": 146,
      "plugin": "TinyTricks",
      "version": "1.4.2",
      "model": "SNOSC",
      "params": [
        {
          "id": 0,
          "value": 1.9700011
        },
        {
          "id": 1,
          "value": 1.0
        },
        {
          "id": 2,
          "value": 0.0
        },
        {
          "id": 3,
          "value": 0.0
        },
        {
          "id": 4,
          "value": 2.5
        },
        {
          "id": 5,
          "value": 2.5
        },
        {
          "id": 6,
          "value": 0.0
        }
      ],
      "rightModuleId": 147,
      "data": {
        "mirror": true,
        "skin": 0,
        "forcebright": false
      },
      "pos": [
        0,
        1
      ]
    },
    {
      "id": 147,
      "plugin": "Bogaudio",
      "version": "1.1.25",
      "model": "Bogaudio-DADSRH",
      "params": [
        {
          "id": 0,
          "value": 0.0
        },
        {
          "id": 1,
          "value": 0.020999901
        },
        {
          "id": 2,
          "value": 0.189999804
        },
        {
          "id": 3,
          "value": 0.249999449
        },
        {
          "id": 4,
          "value": 0.855999589
        },
        {
          "id": 5,
          "value": 0.114000045
        },
        {
          "id": 6,
          "value": 1.0
        },
        {
          "id": 7,
          "value": 1.0
        },
        {
          "id": 8,
          "value": 1.0
        },
        {
          "id": 9,
          "value": 0.0
        },
        {
          "id": 10,
          "value": 1.0
        },
        {
          "id": 11,
          "value": 1.0
        },
        {
          "id": 12,
          "value": 1.0
        },
        {
          "id": 13,
          "value": 1.0
        }
      ],
      "leftModuleId": 146,
      "rightModuleId": 161,
      "data": {
        "triggerOnLoad": true,
        "shouldTriggerOnLoad": true
      },
      "pos": [
        6,
        1
      ]
    },
    {
      "id": 149,
      "plugin": "Fundamental",
      "version": "1.4.0",
      "model": "VCA-1",
      "params": [
        {
          "id": 0,
          "value": 0.880500436
        },
        {
          "id": 1,
          "value": 1.0
        }
      ],
      "leftModuleId": 161,
      "rightModuleId": 137,
      "pos": [
        24,
        1
      ]
    },
    {
      "id": 161,
      "plugin": "VultModulesFree",
      "version": "1.6.0",
      "model": "Boomstick",
      "params": [
        {
          "id": 0,
          "value": 0.515499353
        },
        {
          "id": 1,
          "value": 0.486000091
        },
        {
          "id": 2,
          "value": 0.67849952
        },
        {
          "id": 3,
          "value": 0.0340000577
        },
        {
          "id": 4,
          "value": 0.0509998798
        }
      ],
      "leftModuleId": 147,
      "rightModuleId": 149,
      "pos": [
        16,
        1
      ]
    },
    {
      "id": 163,
      "plugin": "Starling_Via",
      "version": "1.0.0",
      "model": "META",
      "params": [
        {
          "id": 0,
          "value": 2404.26514
        },
        {
          "id": 1,
          "value": 2048.0
        },
        {
          "id": 2,
          "value": 2048.0
        },
        {
          "id": 3,
          "value": -5.0
        },
        {
          "id": 4,
          "value": 1.0
        },
        {
          "id": 5,
          "value": 1.0
        },
        {
          "id": 6,
          "value": 1.0
        },
        {
          "id": 7,
          "value": 0.0
        },
        {
          "id": 8,
          "value": 0.0
        },
        {
          "id": 9,
          "value": 0.0
        },
        {
          "id": 10,
          "value": 0.0
        },
        {
          "id": 11,
          "value": 0.0
        },
        {
          "id": 12,
          "value": 0.0
        },
        {
          "id": 13,
          "value": 0.0
        }
      ],
      "leftModuleId": 12,
      "rightModuleId": 11,
      "data": {
        "meta_modes": 524288
      },
      "pos": [
        67,
        0
      ]
    }
  ],
  "cables": [
    {
      "id": 10,
      "outputModuleId": 9,
      "outputId": 0,
      "inputModuleId": 11,
      "inputId": 0,
      "color": "#c91847"
    },
    {
      "id": 11,
      "outputModuleId": 9,
      "outputId": 1,
      "inputModuleId": 11,
      "inputId": 1,
      "color": "#0986ad"
    },
    {
      "id": 12,
      "outputModuleId": 9,
      "outputId": 6,
      "inputModuleId": 12,
      "inputId": 0,
      "color": "#c9b70e"
    },
    {
      "id": 13,
      "outputModuleId": 9,
      "outputId": 7,
      "inputModuleId": 12,
      "inputId": 1,
      "color": "#0c8e15"
    },
    {
      "id": 14,
      "outputModuleId": 12,
      "outputId": 0,
      "inputModuleId": 9,
      "inputId": 16,
      "color": "#c91847"
    },
    {
      "id": 15,
      "outputModuleId": 12,
      "outputId": 1,
      "inputModuleId": 9,
      "inputId": 17,
      "color": "#0986ad"
    },
    {
      "id": 319,
      "outputModuleId": 118,
      "outputId": 0,
      "inputModuleId": 10,
      "inputId": 0,
      "color": "#c9b70e"
    },
    {
      "id": 350,
      "outputModuleId": 116,
      "outputId": 2,
      "inputModuleId": 115,
      "inputId": 5,
      "color": "#c9b70e"
    },
    {
      "id": 334,
      "outputModuleId": 116,
      "outputId": 1,
      "inputModuleId": 115,
      "inputId": 0,
      "color": "#c91847"
    },
    {
      "id": 348,
      "outputModuleId": 116,
      "outputId": 1,
      "inputModuleId": 115,
      "inputId": 15,
      "color": "#c91847"
    },
    {
      "id": 373,
      "outputModuleId": 116,
      "outputId": 1,
      "inputModuleId": 135,
      "inputId": 0,
      "color": "#0c8e15"
    },
    {
      "id": 377,
      "outputModuleId": 135,
      "outputId": 0,
      "inputModuleId": 133,
      "inputId": 1,
      "color": "#0c8e15"
    },
    {
      "id": 376,
      "outputModuleId": 116,
      "outputId": 0,
      "inputModuleId": 135,
      "inputId": 1,
      "color": "#c9b70e"
    },
    {
      "id": 379,
      "outputModuleId": 133,
      "outputId": 0,
      "inputModuleId": 122,
      "inputId": 0,
      "color": "#c9b70e"
    },
    {
      "id": 382,
      "outputModuleId": 122,
      "outputId": 2,
      "inputModuleId": 118,
      "inputId": 5,
      "color": "#0986ad"
    },
    {
      "id": 383,
      "outputModuleId": 122,
      "outputId": 0,
      "inputModuleId": 115,
      "inputId": 12,
      "color": "#0986ad"
    },
    {
      "id": 384,
      "outputModuleId": 116,
      "outputId": 1,
      "inputModuleId": 115,
      "inputId": 14,
      "color": "#c9b70e"
    },
    {
      "id": 387,
      "outputModuleId": 115,
      "outputId": 2,
      "inputModuleId": 119,
      "inputId": 5,
      "color": "#0986ad"
    },
    {
      "id": 388,
      "outputModuleId": 119,
      "outputId": 0,
      "inputModuleId": 10,
      "inputId": 1,
      "color": "#c9b70e"
    },
    {
      "id": 385,
      "outputModuleId": 116,
      "outputId": 0,
      "inputModuleId": 115,
      "inputId": 4,
      "color": "#0c8e15"
    },
    {
      "id": 386,
      "outputModuleId": 115,
      "outputId": 0,
      "inputModuleId": 127,
      "inputId": 1,
      "color": "#c91847"
    },
    {
      "id": 389,
      "outputModuleId": 127,
      "outputId": 1,
      "inputModuleId": 119,
      "inputId": 4,
      "color": "#0c8e15"
    },
    {
      "id": 390,
      "outputModuleId": 122,
      "outputId": 0,
      "inputModuleId": 115,
      "inputId": 8,
      "color": "#c91847"
    },
    {
      "id": 391,
      "outputModuleId": 137,
      "outputId": 0,
      "inputModuleId": 135,
      "inputId": 2,
      "color": "#0986ad"
    },
    {
      "id": 393,
      "outputModuleId": 137,
      "outputId": 2,
      "inputModuleId": 135,
      "inputId": 4,
      "color": "#0c8e15"
    },
    {
      "id": 394,
      "outputModuleId": 137,
      "outputId": 3,
      "inputModuleId": 135,
      "inputId": 5,
      "color": "#c91847"
    },
    {
      "id": 396,
      "outputModuleId": 116,
      "outputId": 0,
      "inputModuleId": 137,
      "inputId": 7,
      "color": "#c9b70e"
    },
    {
      "id": 422,
      "outputModuleId": 122,
      "outputId": 0,
      "inputModuleId": 118,
      "inputId": 4,
      "color": "#c91847"
    },
    {
      "id": 423,
      "outputModuleId": 137,
      "outputId": 3,
      "inputModuleId": 133,
      "inputId": 4,
      "color": "#0986ad"
    },
    {
      "id": 425,
      "outputModuleId": 137,
      "outputId": 3,
      "inputModuleId": 135,
      "inputId": 6,
      "color": "#c91847"
    },
    {
      "id": 426,
      "outputModuleId": 137,
      "outputId": 2,
      "inputModuleId": 135,
      "inputId": 7,
      "color": "#0986ad"
    },
    {
      "id": 440,
      "outputModuleId": 118,
      "outputId": 0,
      "inputModuleId": 145,
      "inputId": 0,
      "color": "#c91847"
    },
    {
      "id": 441,
      "outputModuleId": 119,
      "outputId": 0,
      "inputModuleId": 145,
      "inputId": 1,
      "color": "#0986ad"
    },
    {
      "id": 443,
      "outputModuleId": 122,
      "outputId": 0,
      "inputModuleId": 145,
      "inputId": 2,
      "color": "#0c8e15"
    },
    {
      "id": 439,
      "outputModuleId": 145,
      "outputId": 0,
      "inputModuleId": 133,
      "inputId": 0,
      "color": "#0c8e15"
    },
    {
      "id": 448,
      "outputModuleId": 147,
      "outputId": 0,
      "inputModuleId": 149,
      "inputId": 0,
      "color": "#c91847"
    },
    {
      "id": 450,
      "outputModuleId": 149,
      "outputId": 0,
      "inputModuleId": 10,
      "inputId": 2,
      "color": "#c9b70e"
    },
    {
      "id": 451,
      "outputModuleId": 122,
      "outputId": 0,
      "inputModuleId": 146,
      "inputId": 0,
      "color": "#0c8e15"
    },
    {
      "id": 483,
      "outputModuleId": 147,
      "outputId": 1,
      "inputModuleId": 145,
      "inputId": 3,
      "color": "#c91847"
    },
    {
      "id": 485,
      "outputModuleId": 137,
      "outputId": 1,
      "inputModuleId": 135,
      "inputId": 3,
      "color": "#c9b70e"
    },
    {
      "id": 484,
      "outputModuleId": 137,
      "outputId": 0,
      "inputModuleId": 145,
      "inputId": 4,
      "color": "#0986ad"
    },
    {
      "id": 487,
      "outputModuleId": 137,
      "outputId": 1,
      "inputModuleId": 145,
      "inputId": 5,
      "color": "#0986ad"
    },
    {
      "id": 488,
      "outputModuleId": 137,
      "outputId": 2,
      "inputModuleId": 145,
      "inputId": 6,
      "color": "#c9b70e"
    },
    {
      "id": 489,
      "outputModuleId": 137,
      "outputId": 3,
      "inputModuleId": 145,
      "inputId": 7,
      "color": "#0c8e15"
    },
    {
      "id": 455,
      "outputModuleId": 145,
      "outputId": 0,
      "inputModuleId": 146,
      "inputId": 5,
      "color": "#0986ad"
    },
    {
      "id": 449,
      "outputModuleId": 146,
      "outputId": 0,
      "inputModuleId": 161,
      "inputId": 2,
      "color": "#0986ad"
    },
    {
      "id": 492,
      "outputModuleId": 161,
      "outputId": 0,
      "inputModuleId": 149,
      "inputId": 1,
      "color": "#c9b70e"
    },
    {
      "id": 498,
      "outputModuleId": 146,
      "outputId": 1,
      "inputModuleId": 147,
      "inputId": 0,
      "color": "#0986ad"
    },
    {
      "id": 491,
      "outputModuleId": 122,
      "outputId": 1,
      "inputModuleId": 146,
      "inputId": 7,
      "color": "#0986ad"
    },
    {
      "id": 499,
      "outputModuleId": 147,
      "outputId": 0,
      "inputModuleId": 161,
      "inputId": 0,
      "color": "#c9b70e"
    },
    {
      "id": 500,
      "outputModuleId": 147,
      "outputId": 0,
      "inputModuleId": 161,
      "inputId": 1,
      "color": "#0c8e15"
    },
    {
      "id": 502,
      "outputModuleId": 137,
      "outputId": 3,
      "inputModuleId": 163,
      "inputId": 5,
      "color": "#0986ad"
    },
    {
      "id": 511,
      "outputModuleId": 163,
      "outputId": 0,
      "inputModuleId": 10,
      "inputId": 3,
      "color": "#c9b70e"
    }
  ]
}