{
  "version": "1.1.4",
  "modules": [
    {
      "id": 2,
      "plugin": "Fundamental",
      "version": "1.2.1",
      "model": "Scope",
      "params": [
        {
          "id": 0,
          "value": 0.0
        },
        {
          "id": 1,
          "value": 2.4599998
        },
        {
          "id": 2,
          "value": 0.0
        },
        {
          "id": 3,
          "value": -5.43000126
        },
        {
          "id": 4,
          "value": 7.54499674
        },
        {
          "id": 5,
          "value": 0.0
        },
        {
          "id": 6,
          "value": 0.0
        },
        {
          "id": 7,
          "value": 0.0
        }
      ],
      "leftModuleId": 5,
      "rightModuleId": 23,
      "data": {
        "lissajous": 0,
        "external": 0
      },
      "pos": [
        65,
        0
      ]
    },
    {
      "id": 4,
      "plugin": "Bogaudio",
      "version": "1.1.22",
      "model": "Bogaudio-LFO",
      "params": [
        {
          "id": 0,
          "value": -3.17850041
        },
        {
          "id": 1,
          "value": 0.0
        },
        {
          "id": 2,
          "value": 0.0
        },
        {
          "id": 3,
          "value": 0.0
        },
        {
          "id": 4,
          "value": 0.0
        },
        {
          "id": 5,
          "value": 1.0
        }
      ],
      "leftModuleId": 15,
      "rightModuleId": 5,
      "pos": [
        49,
        0
      ]
    },
    {
      "id": 5,
      "plugin": "ChickenPlugin",
      "version": "1.0.0",
      "model": "ChickenModule",
      "params": [
        {
          "id": 0,
          "value": 0.0284999963
        },
        {
          "id": 1,
          "value": 0.306000203
        },
        {
          "id": 2,
          "value": 0.0
        },
        {
          "id": 3,
          "value": 0.0
        }
      ],
      "leftModuleId": 4,
      "rightModuleId": 2,
      "pos": [
        59,
        0
      ]
    },
    {
      "id": 7,
      "plugin": "Core",
      "version": "1.1.4",
      "model": "AudioInterface",
      "params": [],
      "leftModuleId": 22,
      "data": {
        "audio": {
          "driver": 4,
          "deviceName": "system",
          "offset": 0,
          "maxChannels": 8,
          "sampleRate": 48000,
          "blockSize": 1024
        }
      },
      "pos": [
        105,
        0
      ]
    },
    {
      "id": 8,
      "plugin": "AudibleInstruments",
      "version": "1.0.0",
      "model": "Braids",
      "params": [
        {
          "id": 0,
          "value": 0.0
        },
        {
          "id": 1,
          "value": -0.48600027
        },
        {
          "id": 2,
          "value": 0.0
        },
        {
          "id": 3,
          "value": 0.174000025
        },
        {
          "id": 4,
          "value": -0.579999983
        },
        {
          "id": 5,
          "value": 0.803500056
        },
        {
          "id": 6,
          "value": 0.0
        }
      ],
      "leftModuleId": 21,
      "rightModuleId": 11,
      "data": {
        "settings": [
          0,
          0,
          0,
          0,
          0,
          0,
          0,
          0,
          0,
          0,
          0,
          0,
          0,
          0,
          0,
          0,
          0,
          0,
          0,
          0
        ],
        "lowCpu": true
      },
      "pos": [
        52,
        1
      ]
    },
    {
      "id": 10,
      "plugin": "Core",
      "version": "1.1.4",
      "model": "Notes",
      "params": [],
      "leftModuleId": 26,
      "rightModuleId": 15,
      "text": "\nmacro oscillator is a \nBraids clone\n\nFrom the manual: \n\nhttps://mutable-instruments.net/modules/braids/manual/\n\nCSAW\n\nThis model is inspired by a quirk/defect of the Yamaha CS80 sawtooth wave shape, consisting of a fixed-width “notch” after the raising edge. The width of the notch can be controlled by TIMBRE; and its depth and polarity can be controlled by COLOR - producing phasing effects.",
      "pos": [
        13,
        0
      ]
    },
    {
      "id": 11,
      "plugin": "AudibleInstruments",
      "version": "1.0.0",
      "model": "Braids",
      "params": [
        {
          "id": 0,
          "value": 0.0
        },
        {
          "id": 1,
          "value": -0.611999989
        },
        {
          "id": 2,
          "value": 0.0
        },
        {
          "id": 3,
          "value": 0.174000025
        },
        {
          "id": 4,
          "value": 0.164000005
        },
        {
          "id": 5,
          "value": 0.815499961
        },
        {
          "id": 6,
          "value": 0.0
        }
      ],
      "leftModuleId": 8,
      "rightModuleId": 13,
      "data": {
        "settings": [
          0,
          0,
          0,
          0,
          0,
          0,
          0,
          0,
          0,
          0,
          0,
          0,
          0,
          0,
          0,
          0,
          0,
          0,
          0,
          0
        ],
        "lowCpu": true
      },
      "pos": [
        68,
        1
      ]
    },
    {
      "id": 12,
      "plugin": "Hora-VCO_VCF_VCA_Free",
      "version": "1.0.2",
      "model": "Amplitude-VCMixer",
      "params": [
        {
          "id": 0,
          "value": 0.840999901
        },
        {
          "id": 1,
          "value": 0.381000131
        },
        {
          "id": 2,
          "value": 0.358500093
        },
        {
          "id": 3,
          "value": 0.731999874
        },
        {
          "id": 4,
          "value": 0.807200015
        }
      ],
      "leftModuleId": 14,
      "rightModuleId": 29,
      "pos": [
        106,
        1
      ]
    },
    {
      "id": 13,
      "plugin": "AudibleInstruments",
      "version": "1.0.0",
      "model": "Braids",
      "params": [
        {
          "id": 0,
          "value": 0.0
        },
        {
          "id": 1,
          "value": -0.528000236
        },
        {
          "id": 2,
          "value": 0.0
        },
        {
          "id": 3,
          "value": 0.5
        },
        {
          "id": 4,
          "value": 0.326999992
        },
        {
          "id": 5,
          "value": 0.5
        },
        {
          "id": 6,
          "value": 0.0
        }
      ],
      "leftModuleId": 11,
      "rightModuleId": 14,
      "data": {
        "settings": [
          0,
          0,
          0,
          0,
          0,
          0,
          0,
          0,
          0,
          0,
          0,
          0,
          0,
          0,
          0,
          0,
          0,
          0,
          0,
          0
        ],
        "lowCpu": true
      },
      "pos": [
        84,
        1
      ]
    },
    {
      "id": 14,
      "plugin": "Hora-ProcessorsFree",
      "version": "1.0.3",
      "model": "Brigade",
      "params": [
        {
          "id": 0,
          "value": 16797.8848
        },
        {
          "id": 1,
          "value": 0.830500007
        },
        {
          "id": 2,
          "value": 1.78799987
        },
        {
          "id": 3,
          "value": 0.775000155
        },
        {
          "id": 4,
          "value": 0.0
        },
        {
          "id": 5,
          "value": 0.719999909
        },
        {
          "id": 6,
          "value": 0.0500000007
        }
      ],
      "leftModuleId": 13,
      "rightModuleId": 12,
      "pos": [
        100,
        1
      ]
    },
    {
      "id": 15,
      "plugin": "ImpromptuModular",
      "version": "1.1.1",
      "model": "Clocked",
      "params": [
        {
          "id": 0,
          "value": 111.0
        },
        {
          "id": 1,
          "value": 3.0
        },
        {
          "id": 2,
          "value": -2.0
        },
        {
          "id": 3,
          "value": 3.0
        },
        {
          "id": 4,
          "value": 0.0
        },
        {
          "id": 5,
          "value": 0.0
        },
        {
          "id": 6,
          "value": 0.0
        },
        {
          "id": 7,
          "value": 0.0
        },
        {
          "id": 8,
          "value": 0.405499965
        },
        {
          "id": 9,
          "value": 0.5
        },
        {
          "id": 10,
          "value": 0.5
        },
        {
          "id": 11,
          "value": 0.5
        },
        {
          "id": 12,
          "value": 0.0
        },
        {
          "id": 13,
          "value": 0.0
        },
        {
          "id": 14,
          "value": 0.0
        },
        {
          "id": 15,
          "value": 0.0
        },
        {
          "id": 16,
          "value": 0.0
        },
        {
          "id": 17,
          "value": 0.0
        },
        {
          "id": 18,
          "value": 0.0
        },
        {
          "id": 19,
          "value": 0.0
        }
      ],
      "leftModuleId": 10,
      "rightModuleId": 4,
      "data": {
        "panelTheme": 1,
        "running": true,
        "displayDelayNoteMode": true,
        "bpmDetectionMode": false,
        "emitResetOnStopRun": false,
        "ppqn": 24,
        "resetClockOutputsHigh": true
      },
      "pos": [
        29,
        0
      ]
    },
    {
      "id": 16,
      "plugin": "Hora-treasureFree",
      "version": "1.0.2",
      "model": "HiHat",
      "params": [
        {
          "id": 0,
          "value": 0.5
        },
        {
          "id": 1,
          "value": 0.600000024
        },
        {
          "id": 2,
          "value": 0.730440021
        },
        {
          "id": 3,
          "value": 0.0
        },
        {
          "id": 4,
          "value": 0.00134999992
        },
        {
          "id": 5,
          "value": 0.769499838
        },
        {
          "id": 6,
          "value": 1.25049996
        },
        {
          "id": 7,
          "value": 0.800000012
        },
        {
          "id": 8,
          "value": 0.800000012
        },
        {
          "id": 9,
          "value": 0.600000024
        },
        {
          "id": 10,
          "value": 0.772300065
        },
        {
          "id": 11,
          "value": 0.421000004
        }
      ],
      "leftModuleId": 17,
      "rightModuleId": 21,
      "pos": [
        32,
        1
      ]
    },
    {
      "id": 17,
      "plugin": "Hora-ProcessorsFree",
      "version": "1.0.3",
      "model": "Delay",
      "params": [
        {
          "id": 0,
          "value": 0.231370002
        },
        {
          "id": 1,
          "value": 0.549000144
        },
        {
          "id": 2,
          "value": 0.65049994
        },
        {
          "id": 3,
          "value": 0.0
        },
        {
          "id": 4,
          "value": 2.0
        },
        {
          "id": 5,
          "value": 0.0
        }
      ],
      "leftModuleId": 18,
      "rightModuleId": 16,
      "pos": [
        24,
        1
      ]
    },
    {
      "id": 18,
      "plugin": "Hora-treasureFree",
      "version": "1.0.2",
      "model": "SnareDrum-VCV",
      "params": [
        {
          "id": 0,
          "value": 0.594200253
        },
        {
          "id": 1,
          "value": 1296.15332
        },
        {
          "id": 2,
          "value": 0.0
        },
        {
          "id": 3,
          "value": 0.0
        },
        {
          "id": 4,
          "value": 0.170380086
        },
        {
          "id": 5,
          "value": 0.805000007
        },
        {
          "id": 6,
          "value": 0.723050177
        },
        {
          "id": 7,
          "value": 0.595500052
        },
        {
          "id": 8,
          "value": 0.122999936
        },
        {
          "id": 9,
          "value": 0.750299931
        },
        {
          "id": 10,
          "value": 0.800000012
        },
        {
          "id": 11,
          "value": 0.786159992
        },
        {
          "id": 12,
          "value": 0.207000032
        },
        {
          "id": 13,
          "value": 0.598000228
        }
      ],
      "leftModuleId": 24,
      "rightModuleId": 17,
      "pos": [
        16,
        1
      ]
    },
    {
      "id": 21,
      "plugin": "Starling_Via",
      "version": "1.0.0",
      "model": "META",
      "params": [
        {
          "id": 0,
          "value": 2017.2876
        },
        {
          "id": 1,
          "value": 2035.71533
        },
        {
          "id": 2,
          "value": 2048.0
        },
        {
          "id": 3,
          "value": -5.0
        },
        {
          "id": 4,
          "value": 1.0
        },
        {
          "id": 5,
          "value": 1.0
        },
        {
          "id": 6,
          "value": 1.0
        },
        {
          "id": 7,
          "value": 0.0
        },
        {
          "id": 8,
          "value": 0.0
        },
        {
          "id": 9,
          "value": 0.0
        },
        {
          "id": 10,
          "value": 0.0
        },
        {
          "id": 11,
          "value": 0.0
        },
        {
          "id": 12,
          "value": 0.0
        },
        {
          "id": 13,
          "value": 0.0
        }
      ],
      "leftModuleId": 16,
      "rightModuleId": 8,
      "data": {
        "meta_modes": 524288
      },
      "pos": [
        40,
        1
      ]
    },
    {
      "id": 22,
      "plugin": "squinkylabs-plug1",
      "version": "1.0.4",
      "model": "squinkylabs-mixm",
      "params": [
        {
          "id": 0,
          "value": 0.862499952
        },
        {
          "id": 1,
          "value": 0.0
        },
        {
          "id": 2,
          "value": 0.649500012
        },
        {
          "id": 3,
          "value": 0.627000093
        },
        {
          "id": 4,
          "value": 0.613499999
        },
        {
          "id": 5,
          "value": 0.347999871
        },
        {
          "id": 6,
          "value": 0.0
        },
        {
          "id": 7,
          "value": 0.0
        },
        {
          "id": 8,
          "value": 0.0
        },
        {
          "id": 9,
          "value": 0.0
        },
        {
          "id": 10,
          "value": 0.0
        },
        {
          "id": 11,
          "value": 0.0
        },
        {
          "id": 12,
          "value": 0.0
        },
        {
          "id": 13,
          "value": 0.0
        },
        {
          "id": 14,
          "value": 0.0
        },
        {
          "id": 15,
          "value": 0.0
        },
        {
          "id": 16,
          "value": 0.0
        },
        {
          "id": 17,
          "value": 0.0
        },
        {
          "id": 18,
          "value": 0.0
        },
        {
          "id": 19,
          "value": 0.0
        },
        {
          "id": 20,
          "value": 0.0
        },
        {
          "id": 21,
          "value": 0.0
        },
        {
          "id": 22,
          "value": 0.0
        },
        {
          "id": 23,
          "value": 0.0
        },
        {
          "id": 24,
          "value": 0.0
        },
        {
          "id": 25,
          "value": 0.0
        },
        {
          "id": 26,
          "value": 0.0
        },
        {
          "id": 27,
          "value": 0.0
        },
        {
          "id": 28,
          "value": 0.0
        },
        {
          "id": 29,
          "value": 0.0
        },
        {
          "id": 30,
          "value": 0.0
        },
        {
          "id": 31,
          "value": 0.0
        },
        {
          "id": 32,
          "value": 0.0
        },
        {
          "id": 33,
          "value": 0.0
        },
        {
          "id": 34,
          "value": 0.0
        },
        {
          "id": 35,
          "value": 0.0
        },
        {
          "id": 36,
          "value": 0.0
        }
      ],
      "leftModuleId": 23,
      "rightModuleId": 7,
      "pos": [
        88,
        0
      ]
    },
    {
      "id": 23,
      "plugin": "squinkylabs-plug1",
      "version": "1.0.4",
      "model": "squinkylabs-mix4",
      "params": [
        {
          "id": 0,
          "value": 0.0
        },
        {
          "id": 1,
          "value": 0.0
        },
        {
          "id": 2,
          "value": 0.192000151
        },
        {
          "id": 3,
          "value": 0.670000076
        },
        {
          "id": 4,
          "value": 0.0
        },
        {
          "id": 5,
          "value": 0.0
        },
        {
          "id": 6,
          "value": 0.0
        },
        {
          "id": 7,
          "value": 0.0
        },
        {
          "id": 8,
          "value": 0.0
        },
        {
          "id": 9,
          "value": 0.0
        },
        {
          "id": 10,
          "value": 0.0
        },
        {
          "id": 11,
          "value": 0.0
        },
        {
          "id": 12,
          "value": 0.0
        },
        {
          "id": 13,
          "value": 0.0
        },
        {
          "id": 14,
          "value": 0.0
        },
        {
          "id": 15,
          "value": 0.0
        },
        {
          "id": 16,
          "value": 0.0
        },
        {
          "id": 17,
          "value": 0.0
        },
        {
          "id": 18,
          "value": 0.0
        },
        {
          "id": 19,
          "value": 0.0
        },
        {
          "id": 20,
          "value": 0.0
        },
        {
          "id": 21,
          "value": 0.0
        },
        {
          "id": 22,
          "value": 0.0
        },
        {
          "id": 23,
          "value": 0.0
        },
        {
          "id": 24,
          "value": 0.0
        },
        {
          "id": 25,
          "value": 0.0
        },
        {
          "id": 26,
          "value": 0.0
        },
        {
          "id": 27,
          "value": 0.0
        },
        {
          "id": 28,
          "value": 0.0
        },
        {
          "id": 29,
          "value": 0.0
        },
        {
          "id": 30,
          "value": 0.0
        },
        {
          "id": 31,
          "value": 0.0
        }
      ],
      "leftModuleId": 2,
      "rightModuleId": 22,
      "pos": [
        78,
        0
      ]
    },
    {
      "id": 24,
      "plugin": "AudibleInstruments",
      "version": "1.0.0",
      "model": "Braids",
      "params": [
        {
          "id": 0,
          "value": -1.0
        },
        {
          "id": 1,
          "value": -2.0
        },
        {
          "id": 2,
          "value": 0.155999988
        },
        {
          "id": 3,
          "value": 0.727999926
        },
        {
          "id": 4,
          "value": -0.263999969
        },
        {
          "id": 5,
          "value": 0.0
        },
        {
          "id": 6,
          "value": 0.0
        }
      ],
      "rightModuleId": 18,
      "data": {
        "settings": [
          0,
          0,
          0,
          0,
          0,
          0,
          0,
          0,
          0,
          0,
          0,
          0,
          0,
          0,
          0,
          0,
          0,
          0,
          0,
          0
        ],
        "lowCpu": false
      },
      "pos": [
        0,
        1
      ]
    },
    {
      "id": 26,
      "plugin": "Fundamental",
      "version": "1.2.1",
      "model": "VCA-1",
      "params": [
        {
          "id": 0,
          "value": 0.944500268
        },
        {
          "id": 1,
          "value": 1.0
        }
      ],
      "leftModuleId": 27,
      "rightModuleId": 10,
      "pos": [
        10,
        0
      ]
    },
    {
      "id": 27,
      "plugin": "Bogaudio",
      "version": "1.1.22",
      "model": "Bogaudio-DADSRH",
      "params": [
        {
          "id": 0,
          "value": 0.0
        },
        {
          "id": 1,
          "value": 0.0645000041
        },
        {
          "id": 2,
          "value": 0.0
        },
        {
          "id": 3,
          "value": 0.742000043
        },
        {
          "id": 4,
          "value": 0.237000093
        },
        {
          "id": 5,
          "value": 0.447210014
        },
        {
          "id": 6,
          "value": 1.0
        },
        {
          "id": 7,
          "value": 1.0
        },
        {
          "id": 8,
          "value": 1.0
        },
        {
          "id": 9,
          "value": 0.0
        },
        {
          "id": 10,
          "value": 1.0
        },
        {
          "id": 11,
          "value": 1.0
        },
        {
          "id": 12,
          "value": 1.0
        },
        {
          "id": 13,
          "value": 1.0
        }
      ],
      "rightModuleId": 26,
      "data": {
        "triggerOnLoad": true,
        "shouldTriggerOnLoad": true
      },
      "pos": [
        0,
        0
      ]
    },
    {
      "id": 29,
      "plugin": "JW-Modules",
      "version": "1.0.7",
      "model": "FullScope",
      "params": [
        {
          "id": 0,
          "value": -0.815000236
        },
        {
          "id": 1,
          "value": 0.0
        },
        {
          "id": 2,
          "value": 0.430000484
        },
        {
          "id": 3,
          "value": 0.0
        },
        {
          "id": 4,
          "value": -12.6900015
        },
        {
          "id": 5,
          "value": 0.0
        },
        {
          "id": 6,
          "value": 0.0
        },
        {
          "id": 7,
          "value": 0.0
        },
        {
          "id": 8,
          "value": 0.0
        }
      ],
      "leftModuleId": 12,
      "data": {
        "lissajous": 1,
        "external": 0
      },
      "width": 600.0,
      "height": 380.0,
      "pos": [
        114,
        1
      ]
    }
  ],
  "cables": [
    {
      "id": 2,
      "outputModuleId": 5,
      "outputId": 0,
      "inputModuleId": 2,
      "inputId": 0,
      "color": "#c91847"
    },
    {
      "id": 5,
      "outputModuleId": 5,
      "outputId": 1,
      "inputModuleId": 2,
      "inputId": 1,
      "color": "#0986ad"
    },
    {
      "id": 13,
      "outputModuleId": 4,
      "outputId": 4,
      "inputModuleId": 5,
      "inputId": 1,
      "color": "#0c8e15"
    },
    {
      "id": 18,
      "outputModuleId": 4,
      "outputId": 2,
      "inputModuleId": 5,
      "inputId": 0,
      "color": "#0986ad"
    },
    {
      "id": 24,
      "outputModuleId": 5,
      "outputId": 0,
      "inputModuleId": 8,
      "inputId": 1,
      "color": "#c91847"
    },
    {
      "id": 25,
      "outputModuleId": 5,
      "outputId": 1,
      "inputModuleId": 8,
      "inputId": 3,
      "color": "#0986ad"
    },
    {
      "id": 28,
      "outputModuleId": 5,
      "outputId": 1,
      "inputModuleId": 11,
      "inputId": 1,
      "color": "#c91847"
    },
    {
      "id": 30,
      "outputModuleId": 4,
      "outputId": 3,
      "inputModuleId": 11,
      "inputId": 3,
      "color": "#c9b70e"
    },
    {
      "id": 31,
      "outputModuleId": 4,
      "outputId": 0,
      "inputModuleId": 11,
      "inputId": 4,
      "color": "#0c8e15"
    },
    {
      "id": 29,
      "outputModuleId": 11,
      "outputId": 0,
      "inputModuleId": 12,
      "inputId": 0,
      "color": "#0986ad"
    },
    {
      "id": 20,
      "outputModuleId": 8,
      "outputId": 0,
      "inputModuleId": 12,
      "inputId": 1,
      "color": "#c91847"
    },
    {
      "id": 36,
      "outputModuleId": 4,
      "outputId": 0,
      "inputModuleId": 12,
      "inputId": 3,
      "color": "#c91847"
    },
    {
      "id": 38,
      "outputModuleId": 13,
      "outputId": 0,
      "inputModuleId": 12,
      "inputId": 4,
      "color": "#c91847"
    },
    {
      "id": 40,
      "outputModuleId": 15,
      "outputId": 1,
      "inputModuleId": 12,
      "inputId": 2,
      "color": "#0c8e15"
    },
    {
      "id": 39,
      "outputModuleId": 12,
      "outputId": 2,
      "inputModuleId": 14,
      "inputId": 1,
      "color": "#0986ad"
    },
    {
      "id": 44,
      "outputModuleId": 12,
      "outputId": 0,
      "inputModuleId": 14,
      "inputId": 0,
      "color": "#c91847"
    },
    {
      "id": 46,
      "outputModuleId": 15,
      "outputId": 0,
      "inputModuleId": 16,
      "inputId": 1,
      "color": "#c9b70e"
    },
    {
      "id": 48,
      "outputModuleId": 5,
      "outputId": 0,
      "inputModuleId": 16,
      "inputId": 3,
      "color": "#c91847"
    },
    {
      "id": 49,
      "outputModuleId": 16,
      "outputId": 2,
      "inputModuleId": 17,
      "inputId": 2,
      "color": "#0986ad"
    },
    {
      "id": 50,
      "outputModuleId": 5,
      "outputId": 1,
      "inputModuleId": 17,
      "inputId": 0,
      "color": "#c9b70e"
    },
    {
      "id": 52,
      "outputModuleId": 15,
      "outputId": 2,
      "inputModuleId": 18,
      "inputId": 0,
      "color": "#c91847"
    },
    {
      "id": 53,
      "outputModuleId": 5,
      "outputId": 0,
      "inputModuleId": 18,
      "inputId": 3,
      "color": "#0986ad"
    },
    {
      "id": 54,
      "outputModuleId": 5,
      "outputId": 1,
      "inputModuleId": 18,
      "inputId": 4,
      "color": "#c9b70e"
    },
    {
      "id": 56,
      "outputModuleId": 21,
      "outputId": 0,
      "inputModuleId": 16,
      "inputId": 0,
      "color": "#c91847"
    },
    {
      "id": 57,
      "outputModuleId": 15,
      "outputId": 3,
      "inputModuleId": 21,
      "inputId": 5,
      "color": "#0986ad"
    },
    {
      "id": 34,
      "outputModuleId": 12,
      "outputId": 1,
      "inputModuleId": 22,
      "inputId": 1,
      "color": "#c9b70e"
    },
    {
      "id": 41,
      "outputModuleId": 14,
      "outputId": 0,
      "inputModuleId": 22,
      "inputId": 2,
      "color": "#c91847"
    },
    {
      "id": 58,
      "outputModuleId": 22,
      "outputId": 0,
      "inputModuleId": 7,
      "inputId": 0,
      "color": "#c9b70e"
    },
    {
      "id": 59,
      "outputModuleId": 22,
      "outputId": 1,
      "inputModuleId": 7,
      "inputId": 1,
      "color": "#0c8e15"
    },
    {
      "id": 60,
      "outputModuleId": 21,
      "outputId": 0,
      "inputModuleId": 23,
      "inputId": 3,
      "color": "#c91847"
    },
    {
      "id": 61,
      "outputModuleId": 5,
      "outputId": 0,
      "inputModuleId": 21,
      "inputId": 1,
      "color": "#c9b70e"
    },
    {
      "id": 63,
      "outputModuleId": 4,
      "outputId": 4,
      "inputModuleId": 21,
      "inputId": 4,
      "color": "#c91847"
    },
    {
      "id": 51,
      "outputModuleId": 18,
      "outputId": 2,
      "inputModuleId": 22,
      "inputId": 0,
      "color": "#0c8e15"
    },
    {
      "id": 65,
      "outputModuleId": 5,
      "outputId": 1,
      "inputModuleId": 18,
      "inputId": 2,
      "color": "#c9b70e"
    },
    {
      "id": 47,
      "outputModuleId": 17,
      "outputId": 0,
      "inputModuleId": 22,
      "inputId": 3,
      "color": "#0c8e15"
    },
    {
      "id": 66,
      "outputModuleId": 5,
      "outputId": 1,
      "inputModuleId": 13,
      "inputId": 3,
      "color": "#0c8e15"
    },
    {
      "id": 67,
      "outputModuleId": 5,
      "outputId": 0,
      "inputModuleId": 13,
      "inputId": 4,
      "color": "#c91847"
    },
    {
      "id": 68,
      "outputModuleId": 4,
      "outputId": 3,
      "inputModuleId": 8,
      "inputId": 4,
      "color": "#0986ad"
    },
    {
      "id": 80,
      "outputModuleId": 27,
      "outputId": 1,
      "inputModuleId": 26,
      "inputId": 0,
      "color": "#0986ad"
    },
    {
      "id": 71,
      "outputModuleId": 26,
      "outputId": 0,
      "inputModuleId": 23,
      "inputId": 2,
      "color": "#c91847"
    },
    {
      "id": 81,
      "outputModuleId": 24,
      "outputId": 0,
      "inputModuleId": 26,
      "inputId": 1,
      "color": "#c9b70e"
    },
    {
      "id": 82,
      "outputModuleId": 15,
      "outputId": 3,
      "inputModuleId": 24,
      "inputId": 2,
      "color": "#0c8e15"
    },
    {
      "id": 83,
      "outputModuleId": 4,
      "outputId": 0,
      "inputModuleId": 24,
      "inputId": 3,
      "color": "#c91847"
    },
    {
      "id": 86,
      "outputModuleId": 27,
      "outputId": 0,
      "inputModuleId": 21,
      "inputId": 0,
      "color": "#0c8e15"
    },
    {
      "id": 89,
      "outputModuleId": 15,
      "outputId": 0,
      "inputModuleId": 27,
      "inputId": 0,
      "color": "#0c8e15"
    },
    {
      "id": 90,
      "outputModuleId": 8,
      "outputId": 0,
      "inputModuleId": 29,
      "inputId": 0,
      "color": "#c9b70e"
    },
    {
      "id": 91,
      "outputModuleId": 11,
      "outputId": 0,
      "inputModuleId": 29,
      "inputId": 1,
      "color": "#0c8e15"
    },
    {
      "id": 92,
      "outputModuleId": 12,
      "outputId": 2,
      "inputModuleId": 29,
      "inputId": 3,
      "color": "#c91847"
    },
    {
      "id": 93,
      "outputModuleId": 4,
      "outputId": 4,
      "inputModuleId": 29,
      "inputId": 5,
      "color": "#0986ad"
    },
    {
      "id": 94,
      "outputModuleId": 5,
      "outputId": 0,
      "inputModuleId": 29,
      "inputId": 4,
      "color": "#c9b70e"
    }
  ]
}