{
  "version": "1.1.6",
  "modules": [
    {
      "id": 11,
      "plugin": "Core",
      "version": "1.1.6",
      "model": "AudioInterface",
      "params": [],
      "leftModuleId": 12,
      "data": {
        "audio": {
          "driver": 4,
          "deviceName": "system",
          "offset": 0,
          "maxChannels": 8,
          "sampleRate": 44100,
          "blockSize": 2048
        }
      },
      "pos": [
        78,
        0
      ]
    },
    {
      "id": 12,
      "plugin": "Valley",
      "version": "1.0.1",
      "model": "Plateau",
      "params": [
        {
          "id": 0,
          "value": 1.0
        },
        {
          "id": 1,
          "value": 0.586999834
        },
        {
          "id": 2,
          "value": 0.176249966
        },
        {
          "id": 3,
          "value": 8.80000114
        },
        {
          "id": 4,
          "value": 9.59499931
        },
        {
          "id": 5,
          "value": 0.5
        },
        {
          "id": 6,
          "value": 6.87999773
        },
        {
          "id": 7,
          "value": 0.549950004
        },
        {
          "id": 8,
          "value": 9.59499836
        },
        {
          "id": 9,
          "value": 8.65000057
        },
        {
          "id": 10,
          "value": 0.289499968
        },
        {
          "id": 11,
          "value": 0.305000067
        },
        {
          "id": 12,
          "value": 4.43600082
        },
        {
          "id": 13,
          "value": 0.0
        },
        {
          "id": 14,
          "value": 0.0
        },
        {
          "id": 15,
          "value": 0.0
        },
        {
          "id": 16,
          "value": 0.0
        },
        {
          "id": 17,
          "value": 0.0
        },
        {
          "id": 18,
          "value": 0.0
        },
        {
          "id": 19,
          "value": 0.0
        },
        {
          "id": 20,
          "value": 0.0
        },
        {
          "id": 21,
          "value": 0.0
        },
        {
          "id": 22,
          "value": 0.0
        },
        {
          "id": 23,
          "value": 0.0
        },
        {
          "id": 24,
          "value": 0.0
        },
        {
          "id": 25,
          "value": 0.0
        },
        {
          "id": 26,
          "value": 0.0
        },
        {
          "id": 27,
          "value": 0.0
        },
        {
          "id": 28,
          "value": 0.0
        },
        {
          "id": 29,
          "value": 0.0
        },
        {
          "id": 30,
          "value": 1.0
        }
      ],
      "leftModuleId": 14,
      "rightModuleId": 11,
      "data": {
        "frozen": false,
        "freezeToggle": false,
        "panelStyle": 0,
        "tuned": 0,
        "diffuseInput": 1,
        "preDelayCVSens": 0,
        "inputSensitivity": 0,
        "outputSaturation": 0
      },
      "pos": [
        66,
        0
      ]
    },
    {
      "id": 13,
      "plugin": "MindMeldModular",
      "version": "1.1.9",
      "model": "MixMasterJr",
      "params": [
        {
          "id": 0,
          "value": 0.826130748
        },
        {
          "id": 1,
          "value": 0.803452253
        },
        {
          "id": 2,
          "value": 0.59934485
        },
        {
          "id": 3,
          "value": 0.727856696
        },
        {
          "id": 4,
          "value": 0.909285545
        },
        {
          "id": 5,
          "value": 1.0
        },
        {
          "id": 6,
          "value": 1.0
        },
        {
          "id": 7,
          "value": 1.0
        },
        {
          "id": 8,
          "value": 1.0
        },
        {
          "id": 9,
          "value": 1.0
        },
        {
          "id": 10,
          "value": 0.5
        },
        {
          "id": 11,
          "value": 0.5
        },
        {
          "id": 12,
          "value": 0.5
        },
        {
          "id": 13,
          "value": 0.5
        },
        {
          "id": 14,
          "value": 0.5
        },
        {
          "id": 15,
          "value": 0.5
        },
        {
          "id": 16,
          "value": 0.5
        },
        {
          "id": 17,
          "value": 0.5
        },
        {
          "id": 18,
          "value": 0.5
        },
        {
          "id": 19,
          "value": 0.5
        },
        {
          "id": 20,
          "value": 0.0
        },
        {
          "id": 21,
          "value": 0.0
        },
        {
          "id": 22,
          "value": 0.0
        },
        {
          "id": 23,
          "value": 0.0
        },
        {
          "id": 24,
          "value": 0.0
        },
        {
          "id": 25,
          "value": 0.0
        },
        {
          "id": 26,
          "value": 0.0
        },
        {
          "id": 27,
          "value": 0.0
        },
        {
          "id": 28,
          "value": 0.0
        },
        {
          "id": 29,
          "value": 0.0
        },
        {
          "id": 30,
          "value": 0.0
        },
        {
          "id": 31,
          "value": 0.0
        },
        {
          "id": 32,
          "value": 0.0
        },
        {
          "id": 33,
          "value": 0.0
        },
        {
          "id": 34,
          "value": 0.0
        },
        {
          "id": 35,
          "value": 0.0
        },
        {
          "id": 36,
          "value": 0.0
        },
        {
          "id": 37,
          "value": 0.0
        },
        {
          "id": 38,
          "value": 0.0
        },
        {
          "id": 39,
          "value": 0.0
        },
        {
          "id": 40,
          "value": 0.0
        },
        {
          "id": 41,
          "value": 0.0
        },
        {
          "id": 42,
          "value": 0.0
        },
        {
          "id": 43,
          "value": 1.0
        },
        {
          "id": 44,
          "value": 0.0
        },
        {
          "id": 45,
          "value": 0.0
        },
        {
          "id": 46,
          "value": 0.0
        },
        {
          "id": 47,
          "value": 0.0
        },
        {
          "id": 48,
          "value": 0.0
        },
        {
          "id": 49,
          "value": 0.0
        },
        {
          "id": 50,
          "value": 0.0
        },
        {
          "id": 51,
          "value": 0.0
        },
        {
          "id": 52,
          "value": 13.0
        },
        {
          "id": 53,
          "value": 13.0
        },
        {
          "id": 54,
          "value": 13.0
        },
        {
          "id": 55,
          "value": 13.0
        },
        {
          "id": 56,
          "value": 13.0
        },
        {
          "id": 57,
          "value": 13.0
        },
        {
          "id": 58,
          "value": 13.0
        },
        {
          "id": 59,
          "value": 13.0
        },
        {
          "id": 60,
          "value": 20010.0
        },
        {
          "id": 61,
          "value": 20010.0
        },
        {
          "id": 62,
          "value": 20010.0
        },
        {
          "id": 63,
          "value": 20010.0
        },
        {
          "id": 64,
          "value": 20010.0
        },
        {
          "id": 65,
          "value": 20010.0
        },
        {
          "id": 66,
          "value": 20010.0
        },
        {
          "id": 67,
          "value": 20010.0
        },
        {
          "id": 68,
          "value": 13.0
        },
        {
          "id": 69,
          "value": 13.0
        },
        {
          "id": 70,
          "value": 20010.0
        },
        {
          "id": 71,
          "value": 20010.0
        }
      ],
      "rightModuleId": 14,
      "data": {
        "trackLabels": "-01--02--03--04--05--06--07--08-GRP1GRP2",
        "panLawMono": 1,
        "panLawStereo": 1,
        "directOutsMode": 3,
        "directOutsSkipGroupedTracks": 0,
        "auxSendsMode": 3,
        "groupsControlTrackSendLevels": 0,
        "auxReturnsMutedWhenMainSolo": 0,
        "auxReturnsSolosMuteDry": 0,
        "chainMode": 1,
        "colorAndCloak": 117440512,
        "symmetricalFade": false,
        "fadeCvOutsWithVolCv": false,
        "linkBitMask": 0,
        "filterPos": 1,
        "groupedAuxReturnFeedbackProtection": 1,
        "ecoMode": 65535,
        "faders": [
          0.826130748,
          0.803452253,
          0.59934485,
          0.727856696,
          0.909285545,
          1.0,
          1.0,
          1.0,
          1.0,
          1.0
        ],
        "momentaryCvButtons": 1,
        "masterFaderScalesSends": 0,
        "linearVolCvInputs": 0,
        "id_t0_gainAdjust": 1.0,
        "id_t0_fadeRate": 0.0,
        "id_t0_fadeProfile": 0.0,
        "id_t0_directOutsMode": 3,
        "id_t0_auxSendsMode": 3,
        "id_t0_panLawStereo": 1,
        "id_t0_vuColorThemeLocal": 0,
        "id_t0_filterPos": 1,
        "id_t0_dispColorLocal": 0,
        "id_t0_polyStereo": 0,
        "id_t0_panCvLevel": 1.0,
        "id_t0_stereoWidth": 1.0,
        "id_t0_invertInput": 0,
        "id_t1_gainAdjust": 1.0,
        "id_t1_fadeRate": 0.0,
        "id_t1_fadeProfile": 0.0,
        "id_t1_directOutsMode": 3,
        "id_t1_auxSendsMode": 3,
        "id_t1_panLawStereo": 1,
        "id_t1_vuColorThemeLocal": 0,
        "id_t1_filterPos": 1,
        "id_t1_dispColorLocal": 0,
        "id_t1_polyStereo": 0,
        "id_t1_panCvLevel": 1.0,
        "id_t1_stereoWidth": 1.0,
        "id_t1_invertInput": 0,
        "id_t2_gainAdjust": 1.0,
        "id_t2_fadeRate": 0.0,
        "id_t2_fadeProfile": 0.0,
        "id_t2_directOutsMode": 3,
        "id_t2_auxSendsMode": 3,
        "id_t2_panLawStereo": 1,
        "id_t2_vuColorThemeLocal": 0,
        "id_t2_filterPos": 1,
        "id_t2_dispColorLocal": 0,
        "id_t2_polyStereo": 0,
        "id_t2_panCvLevel": 1.0,
        "id_t2_stereoWidth": 1.0,
        "id_t2_invertInput": 0,
        "id_t3_gainAdjust": 1.0,
        "id_t3_fadeRate": 0.0,
        "id_t3_fadeProfile": 0.0,
        "id_t3_directOutsMode": 3,
        "id_t3_auxSendsMode": 3,
        "id_t3_panLawStereo": 1,
        "id_t3_vuColorThemeLocal": 0,
        "id_t3_filterPos": 1,
        "id_t3_dispColorLocal": 0,
        "id_t3_polyStereo": 0,
        "id_t3_panCvLevel": 1.0,
        "id_t3_stereoWidth": 1.0,
        "id_t3_invertInput": 0,
        "id_t4_gainAdjust": 1.0,
        "id_t4_fadeRate": 0.0,
        "id_t4_fadeProfile": 0.0,
        "id_t4_directOutsMode": 3,
        "id_t4_auxSendsMode": 3,
        "id_t4_panLawStereo": 1,
        "id_t4_vuColorThemeLocal": 0,
        "id_t4_filterPos": 1,
        "id_t4_dispColorLocal": 0,
        "id_t4_polyStereo": 0,
        "id_t4_panCvLevel": 1.0,
        "id_t4_stereoWidth": 1.0,
        "id_t4_invertInput": 0,
        "id_t5_gainAdjust": 1.0,
        "id_t5_fadeRate": 0.0,
        "id_t5_fadeProfile": 0.0,
        "id_t5_directOutsMode": 3,
        "id_t5_auxSendsMode": 3,
        "id_t5_panLawStereo": 1,
        "id_t5_vuColorThemeLocal": 0,
        "id_t5_filterPos": 1,
        "id_t5_dispColorLocal": 0,
        "id_t5_polyStereo": 0,
        "id_t5_panCvLevel": 1.0,
        "id_t5_stereoWidth": 1.0,
        "id_t5_invertInput": 0,
        "id_t6_gainAdjust": 1.0,
        "id_t6_fadeRate": 0.0,
        "id_t6_fadeProfile": 0.0,
        "id_t6_directOutsMode": 3,
        "id_t6_auxSendsMode": 3,
        "id_t6_panLawStereo": 1,
        "id_t6_vuColorThemeLocal": 0,
        "id_t6_filterPos": 1,
        "id_t6_dispColorLocal": 0,
        "id_t6_polyStereo": 0,
        "id_t6_panCvLevel": 1.0,
        "id_t6_stereoWidth": 1.0,
        "id_t6_invertInput": 0,
        "id_t7_gainAdjust": 1.0,
        "id_t7_fadeRate": 0.0,
        "id_t7_fadeProfile": 0.0,
        "id_t7_directOutsMode": 3,
        "id_t7_auxSendsMode": 3,
        "id_t7_panLawStereo": 1,
        "id_t7_vuColorThemeLocal": 0,
        "id_t7_filterPos": 1,
        "id_t7_dispColorLocal": 0,
        "id_t7_polyStereo": 0,
        "id_t7_panCvLevel": 1.0,
        "id_t7_stereoWidth": 1.0,
        "id_t7_invertInput": 0,
        "id_g0_fadeRate": 0.0,
        "id_g0_fadeProfile": 0.0,
        "id_g0_directOutsMode": 3,
        "id_g0_auxSendsMode": 3,
        "id_g0_panLawStereo": 1,
        "id_g0_vuColorThemeLocal": 0,
        "id_g0_filterPos": 1,
        "id_g0_dispColorLocal": 0,
        "id_g0_panCvLevel": 1.0,
        "id_g0_stereoWidth": 1.0,
        "id_g1_fadeRate": 0.0,
        "id_g1_fadeProfile": 0.0,
        "id_g1_directOutsMode": 3,
        "id_g1_auxSendsMode": 3,
        "id_g1_panLawStereo": 1,
        "id_g1_vuColorThemeLocal": 0,
        "id_g1_filterPos": 1,
        "id_g1_dispColorLocal": 0,
        "id_g1_panCvLevel": 1.0,
        "id_g1_stereoWidth": 1.0,
        "dcBlock": false,
        "clipping": 0,
        "fadeRate": 0.0,
        "fadeProfile": 0.0,
        "vuColorThemeLocal": 0,
        "dispColorLocal": 0,
        "dimGain": 0.251190007,
        "masterLabel": "MASTER"
      },
      "pos": [
        0,
        0
      ]
    },
    {
      "id": 14,
      "plugin": "MindMeldModular",
      "version": "1.1.9",
      "model": "AuxExpanderJr",
      "params": [
        {
          "id": 0,
          "value": 0.239999995
        },
        {
          "id": 1,
          "value": 0.0
        },
        {
          "id": 2,
          "value": 0.0
        },
        {
          "id": 3,
          "value": 0.0
        },
        {
          "id": 4,
          "value": 0.18599999
        },
        {
          "id": 5,
          "value": 0.0
        },
        {
          "id": 6,
          "value": 0.0
        },
        {
          "id": 7,
          "value": 0.0
        },
        {
          "id": 8,
          "value": 0.243000045
        },
        {
          "id": 9,
          "value": 0.0
        },
        {
          "id": 10,
          "value": 0.0
        },
        {
          "id": 11,
          "value": 0.0
        },
        {
          "id": 12,
          "value": 0.226500049
        },
        {
          "id": 13,
          "value": 0.0
        },
        {
          "id": 14,
          "value": 0.0
        },
        {
          "id": 15,
          "value": 0.0
        },
        {
          "id": 16,
          "value": 0.0
        },
        {
          "id": 17,
          "value": 0.0
        },
        {
          "id": 18,
          "value": 0.0
        },
        {
          "id": 19,
          "value": 0.0
        },
        {
          "id": 20,
          "value": 0.0
        },
        {
          "id": 21,
          "value": 0.0
        },
        {
          "id": 22,
          "value": 0.0
        },
        {
          "id": 23,
          "value": 0.0
        },
        {
          "id": 24,
          "value": 0.0
        },
        {
          "id": 25,
          "value": 0.0
        },
        {
          "id": 26,
          "value": 0.0
        },
        {
          "id": 27,
          "value": 0.0
        },
        {
          "id": 28,
          "value": 0.0
        },
        {
          "id": 29,
          "value": 0.0
        },
        {
          "id": 30,
          "value": 0.0
        },
        {
          "id": 31,
          "value": 0.0
        },
        {
          "id": 32,
          "value": 0.0
        },
        {
          "id": 33,
          "value": 0.0
        },
        {
          "id": 34,
          "value": 0.0
        },
        {
          "id": 35,
          "value": 0.0
        },
        {
          "id": 36,
          "value": 0.0
        },
        {
          "id": 37,
          "value": 0.0
        },
        {
          "id": 38,
          "value": 0.0
        },
        {
          "id": 39,
          "value": 0.0
        },
        {
          "id": 40,
          "value": 0.0
        },
        {
          "id": 41,
          "value": 0.0
        },
        {
          "id": 42,
          "value": 0.0
        },
        {
          "id": 43,
          "value": 0.0
        },
        {
          "id": 44,
          "value": 0.0
        },
        {
          "id": 45,
          "value": 0.0
        },
        {
          "id": 46,
          "value": 0.0
        },
        {
          "id": 47,
          "value": 0.0
        },
        {
          "id": 48,
          "value": 0.0
        },
        {
          "id": 49,
          "value": 0.0
        },
        {
          "id": 50,
          "value": 0.0
        },
        {
          "id": 51,
          "value": 0.0
        },
        {
          "id": 52,
          "value": 0.0
        },
        {
          "id": 53,
          "value": 0.0
        },
        {
          "id": 54,
          "value": 0.0
        },
        {
          "id": 55,
          "value": 0.0
        },
        {
          "id": 56,
          "value": 0.0
        },
        {
          "id": 57,
          "value": 0.0
        },
        {
          "id": 58,
          "value": 0.0
        },
        {
          "id": 59,
          "value": 0.0
        },
        {
          "id": 60,
          "value": 0.0
        },
        {
          "id": 61,
          "value": 0.0
        },
        {
          "id": 62,
          "value": 1.0
        },
        {
          "id": 63,
          "value": 1.0
        },
        {
          "id": 64,
          "value": 1.0
        },
        {
          "id": 65,
          "value": 1.0
        },
        {
          "id": 66,
          "value": 0.5
        },
        {
          "id": 67,
          "value": 0.5
        },
        {
          "id": 68,
          "value": 0.5
        },
        {
          "id": 69,
          "value": 0.5
        },
        {
          "id": 70,
          "value": 1.0
        },
        {
          "id": 71,
          "value": 1.0
        },
        {
          "id": 72,
          "value": 1.0
        },
        {
          "id": 73,
          "value": 1.0
        }
      ],
      "leftModuleId": 13,
      "rightModuleId": 12,
      "data": {
        "directOutsModeLocal": 50529027,
        "panLawStereoLocal": 16843009,
        "vuColorThemeLocal": 0,
        "dispColorAuxLocal": [
          0,
          0,
          0,
          0
        ],
        "auxFadeRatesAndProfiles": [
          0.0,
          0.0,
          0.0,
          0.0,
          0.0,
          0.0,
          0.0,
          0.0
        ],
        "auxLabels": "AUXAAUXBAUXCAUXD",
        "id_x0_hpfCutoffFreq": 13.0,
        "id_x0_lpfCutoffFreq": 20010.0,
        "id_x0_stereoWidth": 1.0,
        "id_x1_hpfCutoffFreq": 13.0,
        "id_x1_lpfCutoffFreq": 20010.0,
        "id_x1_stereoWidth": 1.0,
        "id_x2_hpfCutoffFreq": 13.0,
        "id_x2_lpfCutoffFreq": 20010.0,
        "id_x2_stereoWidth": 1.0,
        "id_x3_hpfCutoffFreq": 13.0,
        "id_x3_lpfCutoffFreq": 20010.0,
        "id_x3_stereoWidth": 1.0,
        "panCvLevels": [
          1.0,
          1.0,
          1.0,
          1.0
        ]
      },
      "pos": [
        36,
        0
      ]
    },
    {
      "id": 84,
      "plugin": "StudioSixPlusOne",
      "version": "1.1.1",
      "model": "KSDelay",
      "params": [
        {
          "id": 0,
          "value": -1.0
        },
        {
          "id": 1,
          "value": 0.0
        },
        {
          "id": 2,
          "value": 0.5
        },
        {
          "id": 3,
          "value": 3.0
        },
        {
          "id": 4,
          "value": 0.5
        },
        {
          "id": 5,
          "value": 1.0
        },
        {
          "id": 6,
          "value": 0.290999919
        },
        {
          "id": 7,
          "value": 1.0
        }
      ],
      "leftModuleId": 85,
      "rightModuleId": 89,
      "pos": [
        39,
        1
      ]
    },
    {
      "id": 85,
      "plugin": "StudioSixPlusOne",
      "version": "1.1.1",
      "model": "Maccomo",
      "params": [
        {
          "id": 0,
          "value": 0.5
        },
        {
          "id": 1,
          "value": 0.0
        },
        {
          "id": 2,
          "value": 0.0
        },
        {
          "id": 3,
          "value": 8.63499737
        },
        {
          "id": 4,
          "value": 0.0
        },
        {
          "id": 5,
          "value": 1.34899986
        },
        {
          "id": 6,
          "value": 0.0
        }
      ],
      "leftModuleId": 87,
      "rightModuleId": 84,
      "pos": [
        29,
        1
      ]
    },
    {
      "id": 87,
      "plugin": "Geodesics",
      "version": "1.2.0",
      "model": "Ions",
      "params": [
        {
          "id": 0,
          "value": 0.0
        },
        {
          "id": 1,
          "value": 0.0
        },
        {
          "id": 2,
          "value": 0.65899992
        },
        {
          "id": 3,
          "value": 0.358999878
        },
        {
          "id": 4,
          "value": 0.637999773
        },
        {
          "id": 5,
          "value": 0.5
        },
        {
          "id": 6,
          "value": 0.634999692
        },
        {
          "id": 7,
          "value": 0.5
        },
        {
          "id": 8,
          "value": 0.5
        },
        {
          "id": 9,
          "value": 0.451999992
        },
        {
          "id": 10,
          "value": 0.5
        },
        {
          "id": 11,
          "value": 0.640999913
        },
        {
          "id": 12,
          "value": 0.654500008
        },
        {
          "id": 13,
          "value": 0.613999903
        },
        {
          "id": 14,
          "value": 0.399499953
        },
        {
          "id": 15,
          "value": 0.684499919
        },
        {
          "id": 16,
          "value": 0.384500027
        },
        {
          "id": 17,
          "value": 0.381000012
        },
        {
          "id": 18,
          "value": 0.0
        },
        {
          "id": 19,
          "value": 0.0
        },
        {
          "id": 20,
          "value": 0.0
        },
        {
          "id": 21,
          "value": 0.0
        },
        {
          "id": 22,
          "value": 0.0
        },
        {
          "id": 23,
          "value": 0.0
        },
        {
          "id": 24,
          "value": 0.0
        },
        {
          "id": 25,
          "value": 0.0
        },
        {
          "id": 26,
          "value": 0.0
        },
        {
          "id": 27,
          "value": 0.0
        }
      ],
      "leftModuleId": 88,
      "rightModuleId": 85,
      "data": {
        "panelTheme": 1,
        "running": true,
        "resetOnRun": false,
        "quantize": 3,
        "uncertainty": false,
        "stepIndexes0": 1,
        "stepIndexes1": 9,
        "states0": 0,
        "states1": 1,
        "ranges0": 1,
        "ranges1": 1,
        "leap": false
      },
      "pos": [
        10,
        1
      ]
    },
    {
      "id": 88,
      "plugin": "Autodafe",
      "version": "1.0.1",
      "model": "BPMClock",
      "params": [
        {
          "id": 0,
          "value": 120.0
        },
        {
          "id": 1,
          "value": 0.0
        },
        {
          "id": 2,
          "value": 0.0
        },
        {
          "id": 3,
          "value": 0.0
        },
        {
          "id": 4,
          "value": 0.0
        }
      ],
      "rightModuleId": 87,
      "data": {
        "bpmint": 120,
        "bpmdec": 0
      },
      "pos": [
        0,
        1
      ]
    },
    {
      "id": 89,
      "plugin": "StudioSixPlusOne",
      "version": "1.1.1",
      "model": "PolyShiftRegister",
      "params": [
        {
          "id": 0,
          "value": 4.0
        },
        {
          "id": 1,
          "value": 0.0
        },
        {
          "id": 2,
          "value": 0.0
        },
        {
          "id": 3,
          "value": 0.0
        },
        {
          "id": 4,
          "value": 0.0
        },
        {
          "id": 5,
          "value": 0.0
        },
        {
          "id": 6,
          "value": 0.0
        },
        {
          "id": 7,
          "value": 0.0
        },
        {
          "id": 8,
          "value": 0.0
        }
      ],
      "leftModuleId": 84,
      "pos": [
        47,
        1
      ]
    },
    {
      "id": 91,
      "plugin": "VultModulesFree",
      "version": "1.11",
      "model": "Lateralus",
      "params": [
        {
          "id": 0,
          "value": 0.360874414
        },
        {
          "id": 1,
          "value": 0.704500139
        },
        {
          "id": 2,
          "value": 0.0
        },
        {
          "id": 3,
          "value": 0.201999724
        },
        {
          "id": 4,
          "value": 1.43700016
        },
        {
          "id": 5,
          "value": 0.0
        },
        {
          "id": 6,
          "value": 0.0
        }
      ],
      "rightModuleId": 95,
      "pos": [
        0,
        2
      ]
    },
    {
      "id": 92,
      "plugin": "Bogaudio",
      "version": "1.1.34",
      "model": "Bogaudio-AD",
      "params": [
        {
          "id": 0,
          "value": 0.031500522
        },
        {
          "id": 1,
          "value": 0.107999951
        },
        {
          "id": 2,
          "value": 0.0
        },
        {
          "id": 3,
          "value": 0.0
        },
        {
          "id": 4,
          "value": 1.0
        }
      ],
      "leftModuleId": 96,
      "rightModuleId": 97,
      "data": {
        "invert": 1.0
      },
      "pos": [
        26,
        2
      ]
    },
    {
      "id": 93,
      "plugin": "Bogaudio",
      "version": "1.1.34",
      "model": "Bogaudio-LLFO",
      "params": [
        {
          "id": 0,
          "value": -2.06700087
        },
        {
          "id": 1,
          "value": 1.0
        },
        {
          "id": 2,
          "value": 0.0
        },
        {
          "id": 3,
          "value": 0.996999979
        },
        {
          "id": 4,
          "value": 1.0
        }
      ],
      "leftModuleId": 95,
      "rightModuleId": 96,
      "data": {},
      "pos": [
        20,
        2
      ]
    },
    {
      "id": 95,
      "plugin": "VultModulesFree",
      "version": "1.11",
      "model": "Lateralus",
      "params": [
        {
          "id": 0,
          "value": 0.521562219
        },
        {
          "id": 1,
          "value": 0.752499521
        },
        {
          "id": 2,
          "value": 0.095999971
        },
        {
          "id": 3,
          "value": 0.201999724
        },
        {
          "id": 4,
          "value": 1.44599974
        },
        {
          "id": 5,
          "value": 0.0
        },
        {
          "id": 6,
          "value": 0.0
        }
      ],
      "leftModuleId": 91,
      "rightModuleId": 93,
      "pos": [
        10,
        2
      ]
    },
    {
      "id": 96,
      "plugin": "Bogaudio",
      "version": "1.1.34",
      "model": "Bogaudio-ADSR",
      "params": [
        {
          "id": 0,
          "value": 0.0544210114
        },
        {
          "id": 1,
          "value": 0.0
        },
        {
          "id": 2,
          "value": 0.0
        },
        {
          "id": 3,
          "value": 0.22473
        },
        {
          "id": 4,
          "value": 0.0
        }
      ],
      "leftModuleId": 93,
      "rightModuleId": 92,
      "data": {
        "invert": 1.0
      },
      "pos": [
        23,
        2
      ]
    },
    {
      "id": 97,
      "plugin": "Fundamental",
      "version": "1.4.0",
      "model": "VCA-1",
      "params": [
        {
          "id": 0,
          "value": 1.0
        },
        {
          "id": 1,
          "value": 1.0
        }
      ],
      "leftModuleId": 92,
      "rightModuleId": 98,
      "pos": [
        29,
        2
      ]
    },
    {
      "id": 98,
      "plugin": "Bogaudio",
      "version": "1.1.34",
      "model": "Bogaudio-DGate",
      "params": [
        {
          "id": 0,
          "value": 0.0
        },
        {
          "id": 1,
          "value": 0.0750000104
        },
        {
          "id": 2,
          "value": 1.0
        },
        {
          "id": 3,
          "value": 0.0
        }
      ],
      "leftModuleId": 97,
      "rightModuleId": 101,
      "data": {
        "triggerOnLoad": true,
        "shouldTriggerOnLoad": true
      },
      "pos": [
        32,
        2
      ]
    },
    {
      "id": 99,
      "plugin": "Valley",
      "version": "1.0.1",
      "model": "Topograph",
      "params": [
        {
          "id": 0,
          "value": 0.0
        },
        {
          "id": 1,
          "value": 0.0
        },
        {
          "id": 2,
          "value": 0.0
        },
        {
          "id": 3,
          "value": 0.303000212
        },
        {
          "id": 4,
          "value": 0.0104999049
        },
        {
          "id": 5,
          "value": 0.0
        },
        {
          "id": 6,
          "value": 0.567499936
        },
        {
          "id": 7,
          "value": 0.780500114
        },
        {
          "id": 8,
          "value": 0.840499938
        },
        {
          "id": 9,
          "value": 0.610199749
        }
      ],
      "leftModuleId": 101,
      "rightModuleId": 100,
      "data": {
        "sequencerMode": 0,
        "triggerOutputMode": 0,
        "accOutputMode": 0,
        "extClockResolution": 2,
        "chaosKnobMode": 0,
        "runMode": 0,
        "panelStyle": 0,
        "running": 1
      },
      "pos": [
        38,
        2
      ]
    },
    {
      "id": 100,
      "plugin": "Starling_Via",
      "version": "1.0.1",
      "model": "META",
      "params": [
        {
          "id": 0,
          "value": 1329.32776
        },
        {
          "id": 1,
          "value": 1624.16748
        },
        {
          "id": 2,
          "value": 2048.0
        },
        {
          "id": 3,
          "value": -3.63999915
        },
        {
          "id": 4,
          "value": 1.0
        },
        {
          "id": 5,
          "value": 1.0
        },
        {
          "id": 6,
          "value": 1.0
        },
        {
          "id": 7,
          "value": 0.0
        },
        {
          "id": 8,
          "value": 0.0
        },
        {
          "id": 9,
          "value": 0.0
        },
        {
          "id": 10,
          "value": 0.0
        },
        {
          "id": 11,
          "value": 0.0
        },
        {
          "id": 12,
          "value": 0.0
        },
        {
          "id": 13,
          "value": 0.0
        }
      ],
      "leftModuleId": 99,
      "rightModuleId": 102,
      "data": {
        "meta_modes": 524288
      },
      "pos": [
        54,
        2
      ]
    },
    {
      "id": 101,
      "plugin": "Bogaudio",
      "version": "1.1.34",
      "model": "Bogaudio-DGate",
      "params": [
        {
          "id": 0,
          "value": 0.0
        },
        {
          "id": 1,
          "value": 0.0792299956
        },
        {
          "id": 2,
          "value": 1.0
        },
        {
          "id": 3,
          "value": 0.0
        }
      ],
      "leftModuleId": 98,
      "rightModuleId": 99,
      "data": {
        "triggerOnLoad": true,
        "shouldTriggerOnLoad": true
      },
      "pos": [
        35,
        2
      ]
    },
    {
      "id": 102,
      "plugin": "Hora-treasureFree",
      "version": "1.0.2",
      "model": "SnareDrum-VCV",
      "params": [
        {
          "id": 0,
          "value": 0.739400148
        },
        {
          "id": 1,
          "value": 1500.0
        },
        {
          "id": 2,
          "value": 0.0
        },
        {
          "id": 3,
          "value": 0.0
        },
        {
          "id": 4,
          "value": 0.364914924
        },
        {
          "id": 5,
          "value": 0.805000007
        },
        {
          "id": 6,
          "value": 0.800000012
        },
        {
          "id": 7,
          "value": 0.100499906
        },
        {
          "id": 8,
          "value": 0.50999999
        },
        {
          "id": 9,
          "value": 0.677399993
        },
        {
          "id": 10,
          "value": 0.800000012
        },
        {
          "id": 11,
          "value": 0.800000012
        },
        {
          "id": 12,
          "value": 0.0
        },
        {
          "id": 13,
          "value": 0.583000004
        }
      ],
      "leftModuleId": 100,
      "pos": [
        66,
        2
      ]
    }
  ],
  "cables": [
    {
      "id": 16,
      "outputModuleId": 13,
      "outputId": 2,
      "inputModuleId": 11,
      "inputId": 0,
      "color": "#c91847"
    },
    {
      "id": 17,
      "outputModuleId": 13,
      "outputId": 3,
      "inputModuleId": 11,
      "inputId": 1,
      "color": "#0986ad"
    },
    {
      "id": 18,
      "outputModuleId": 14,
      "outputId": 0,
      "inputModuleId": 12,
      "inputId": 0,
      "color": "#c9b70e"
    },
    {
      "id": 19,
      "outputModuleId": 14,
      "outputId": 4,
      "inputModuleId": 12,
      "inputId": 1,
      "color": "#0c8e15"
    },
    {
      "id": 20,
      "outputModuleId": 12,
      "outputId": 0,
      "inputModuleId": 14,
      "inputId": 0,
      "color": "#c91847"
    },
    {
      "id": 21,
      "outputModuleId": 12,
      "outputId": 1,
      "inputModuleId": 14,
      "inputId": 1,
      "color": "#0986ad"
    },
    {
      "id": 208,
      "outputModuleId": 87,
      "outputId": 0,
      "inputModuleId": 85,
      "inputId": 0,
      "color": "#c91847"
    },
    {
      "id": 206,
      "outputModuleId": 84,
      "outputId": 0,
      "inputModuleId": 13,
      "inputId": 0,
      "color": "#c9b70e"
    },
    {
      "id": 210,
      "outputModuleId": 85,
      "outputId": 0,
      "inputModuleId": 84,
      "inputId": 2,
      "color": "#c9b70e"
    },
    {
      "id": 211,
      "outputModuleId": 87,
      "outputId": 1,
      "inputModuleId": 84,
      "inputId": 0,
      "color": "#0c8e15"
    },
    {
      "id": 209,
      "outputModuleId": 88,
      "outputId": 9,
      "inputModuleId": 87,
      "inputId": 0,
      "color": "#0986ad"
    },
    {
      "id": 213,
      "outputModuleId": 88,
      "outputId": 8,
      "inputModuleId": 87,
      "inputId": 2,
      "color": "#0986ad"
    },
    {
      "id": 214,
      "outputModuleId": 85,
      "outputId": 0,
      "inputModuleId": 13,
      "inputId": 2,
      "color": "#c9b70e"
    },
    {
      "id": 216,
      "outputModuleId": 84,
      "outputId": 0,
      "inputModuleId": 89,
      "inputId": 9,
      "color": "#c91847"
    },
    {
      "id": 217,
      "outputModuleId": 89,
      "outputId": 0,
      "inputModuleId": 13,
      "inputId": 4,
      "color": "#0986ad"
    },
    {
      "id": 218,
      "outputModuleId": 88,
      "outputId": 1,
      "inputModuleId": 89,
      "inputId": 11,
      "color": "#c9b70e"
    },
    {
      "id": 221,
      "outputModuleId": 88,
      "outputId": 2,
      "inputModuleId": 92,
      "inputId": 0,
      "color": "#0986ad"
    },
    {
      "id": 222,
      "outputModuleId": 92,
      "outputId": 0,
      "inputModuleId": 91,
      "inputId": 2,
      "color": "#c9b70e"
    },
    {
      "id": 223,
      "outputModuleId": 93,
      "outputId": 0,
      "inputModuleId": 92,
      "inputId": 1,
      "color": "#0c8e15"
    },
    {
      "id": 226,
      "outputModuleId": 91,
      "outputId": 0,
      "inputModuleId": 95,
      "inputId": 0,
      "color": "#0c8e15"
    },
    {
      "id": 227,
      "outputModuleId": 93,
      "outputId": 0,
      "inputModuleId": 95,
      "inputId": 1,
      "color": "#c91847"
    },
    {
      "id": 219,
      "outputModuleId": 97,
      "outputId": 0,
      "inputModuleId": 13,
      "inputId": 6,
      "color": "#0c8e15"
    },
    {
      "id": 228,
      "outputModuleId": 95,
      "outputId": 1,
      "inputModuleId": 97,
      "inputId": 1,
      "color": "#0986ad"
    },
    {
      "id": 229,
      "outputModuleId": 96,
      "outputId": 0,
      "inputModuleId": 97,
      "inputId": 0,
      "color": "#c9b70e"
    },
    {
      "id": 232,
      "outputModuleId": 98,
      "outputId": 0,
      "inputModuleId": 96,
      "inputId": 0,
      "color": "#0986ad"
    },
    {
      "id": 235,
      "outputModuleId": 99,
      "outputId": 0,
      "inputModuleId": 100,
      "inputId": 5,
      "color": "#c91847"
    },
    {
      "id": 236,
      "outputModuleId": 100,
      "outputId": 0,
      "inputModuleId": 13,
      "inputId": 8,
      "color": "#0986ad"
    },
    {
      "id": 238,
      "outputModuleId": 101,
      "outputId": 0,
      "inputModuleId": 99,
      "inputId": 0,
      "color": "#0c8e15"
    },
    {
      "id": 239,
      "outputModuleId": 88,
      "outputId": 15,
      "inputModuleId": 101,
      "inputId": 0,
      "color": "#c91847"
    },
    {
      "id": 240,
      "outputModuleId": 102,
      "outputId": 2,
      "inputModuleId": 13,
      "inputId": 10,
      "color": "#0986ad"
    },
    {
      "id": 241,
      "outputModuleId": 99,
      "outputId": 1,
      "inputModuleId": 102,
      "inputId": 0,
      "color": "#c9b70e"
    },
    {
      "id": 242,
      "outputModuleId": 99,
      "outputId": 4,
      "inputModuleId": 102,
      "inputId": 1,
      "color": "#0c8e15"
    },
    {
      "id": 244,
      "outputModuleId": 88,
      "outputId": 12,
      "inputModuleId": 98,
      "inputId": 0,
      "color": "#0986ad"
    }
  ]
}