{
  "version": "1.1.6",
  "modules": [
    {
      "id": 11,
      "plugin": "Core",
      "version": "1.1.6",
      "model": "AudioInterface",
      "params": [],
      "leftModuleId": 12,
      "data": {
        "audio": {
          "driver": 4,
          "deviceName": "system",
          "offset": 0,
          "maxChannels": 8,
          "sampleRate": 44100,
          "blockSize": 2048
        }
      },
      "pos": [
        78,
        0
      ]
    },
    {
      "id": 12,
      "plugin": "Valley",
      "version": "1.0.1",
      "model": "Plateau",
      "params": [
        {
          "id": 0,
          "value": 1.0
        },
        {
          "id": 1,
          "value": 0.5
        },
        {
          "id": 2,
          "value": 0.0
        },
        {
          "id": 3,
          "value": 8.93499851
        },
        {
          "id": 4,
          "value": 10.0
        },
        {
          "id": 5,
          "value": 0.5
        },
        {
          "id": 6,
          "value": 10.0
        },
        {
          "id": 7,
          "value": 0.549950004
        },
        {
          "id": 8,
          "value": 10.0
        },
        {
          "id": 9,
          "value": 9.14500046
        },
        {
          "id": 10,
          "value": 0.0
        },
        {
          "id": 11,
          "value": 0.630500197
        },
        {
          "id": 12,
          "value": 0.5
        },
        {
          "id": 13,
          "value": 0.0
        },
        {
          "id": 14,
          "value": 0.0
        },
        {
          "id": 15,
          "value": 0.0
        },
        {
          "id": 16,
          "value": 0.0
        },
        {
          "id": 17,
          "value": 0.0
        },
        {
          "id": 18,
          "value": 0.0
        },
        {
          "id": 19,
          "value": 0.0
        },
        {
          "id": 20,
          "value": 0.0
        },
        {
          "id": 21,
          "value": 0.0
        },
        {
          "id": 22,
          "value": 0.0
        },
        {
          "id": 23,
          "value": 0.0
        },
        {
          "id": 24,
          "value": 0.0
        },
        {
          "id": 25,
          "value": 0.0
        },
        {
          "id": 26,
          "value": 0.0
        },
        {
          "id": 27,
          "value": 0.0
        },
        {
          "id": 28,
          "value": 0.0
        },
        {
          "id": 29,
          "value": 0.0
        },
        {
          "id": 30,
          "value": 1.0
        }
      ],
      "leftModuleId": 14,
      "rightModuleId": 11,
      "data": {
        "frozen": false,
        "freezeToggle": false,
        "panelStyle": 0,
        "tuned": 0,
        "diffuseInput": 1,
        "preDelayCVSens": 0,
        "inputSensitivity": 0,
        "outputSaturation": 0
      },
      "pos": [
        66,
        0
      ]
    },
    {
      "id": 13,
      "plugin": "MindMeldModular",
      "version": "1.1.9",
      "model": "MixMasterJr",
      "params": [
        {
          "id": 0,
          "value": 0.644702017
        },
        {
          "id": 1,
          "value": 0.656041026
        },
        {
          "id": 2,
          "value": 0.693839192
        },
        {
          "id": 3,
          "value": 0.807231545
        },
        {
          "id": 4,
          "value": 0.878165126
        },
        {
          "id": 5,
          "value": 1.0
        },
        {
          "id": 6,
          "value": 1.0
        },
        {
          "id": 7,
          "value": 1.0
        },
        {
          "id": 8,
          "value": 1.0
        },
        {
          "id": 9,
          "value": 1.0
        },
        {
          "id": 10,
          "value": 0.5
        },
        {
          "id": 11,
          "value": 0.5
        },
        {
          "id": 12,
          "value": 0.5
        },
        {
          "id": 13,
          "value": 0.5
        },
        {
          "id": 14,
          "value": 0.5
        },
        {
          "id": 15,
          "value": 0.5
        },
        {
          "id": 16,
          "value": 0.5
        },
        {
          "id": 17,
          "value": 0.5
        },
        {
          "id": 18,
          "value": 0.5
        },
        {
          "id": 19,
          "value": 0.5
        },
        {
          "id": 20,
          "value": 0.0
        },
        {
          "id": 21,
          "value": 0.0
        },
        {
          "id": 22,
          "value": 0.0
        },
        {
          "id": 23,
          "value": 0.0
        },
        {
          "id": 24,
          "value": 0.0
        },
        {
          "id": 25,
          "value": 0.0
        },
        {
          "id": 26,
          "value": 0.0
        },
        {
          "id": 27,
          "value": 0.0
        },
        {
          "id": 28,
          "value": 0.0
        },
        {
          "id": 29,
          "value": 0.0
        },
        {
          "id": 30,
          "value": 0.0
        },
        {
          "id": 31,
          "value": 0.0
        },
        {
          "id": 32,
          "value": 0.0
        },
        {
          "id": 33,
          "value": 0.0
        },
        {
          "id": 34,
          "value": 0.0
        },
        {
          "id": 35,
          "value": 0.0
        },
        {
          "id": 36,
          "value": 0.0
        },
        {
          "id": 37,
          "value": 0.0
        },
        {
          "id": 38,
          "value": 0.0
        },
        {
          "id": 39,
          "value": 0.0
        },
        {
          "id": 40,
          "value": 0.0
        },
        {
          "id": 41,
          "value": 0.0
        },
        {
          "id": 42,
          "value": 0.0
        },
        {
          "id": 43,
          "value": 0.811011672
        },
        {
          "id": 44,
          "value": 0.0
        },
        {
          "id": 45,
          "value": 0.0
        },
        {
          "id": 46,
          "value": 0.0
        },
        {
          "id": 47,
          "value": 0.0
        },
        {
          "id": 48,
          "value": 0.0
        },
        {
          "id": 49,
          "value": 0.0
        },
        {
          "id": 50,
          "value": 0.0
        },
        {
          "id": 51,
          "value": 0.0
        },
        {
          "id": 52,
          "value": 13.0
        },
        {
          "id": 53,
          "value": 13.0
        },
        {
          "id": 54,
          "value": 13.0
        },
        {
          "id": 55,
          "value": 13.0
        },
        {
          "id": 56,
          "value": 13.0
        },
        {
          "id": 57,
          "value": 13.0
        },
        {
          "id": 58,
          "value": 13.0
        },
        {
          "id": 59,
          "value": 13.0
        },
        {
          "id": 60,
          "value": 20010.0
        },
        {
          "id": 61,
          "value": 20010.0
        },
        {
          "id": 62,
          "value": 20010.0
        },
        {
          "id": 63,
          "value": 20010.0
        },
        {
          "id": 64,
          "value": 20010.0
        },
        {
          "id": 65,
          "value": 20010.0
        },
        {
          "id": 66,
          "value": 20010.0
        },
        {
          "id": 67,
          "value": 20010.0
        },
        {
          "id": 68,
          "value": 13.0
        },
        {
          "id": 69,
          "value": 13.0
        },
        {
          "id": 70,
          "value": 20010.0
        },
        {
          "id": 71,
          "value": 20010.0
        }
      ],
      "rightModuleId": 14,
      "data": {
        "trackLabels": "-01--02--03--04--05--06--07--08-GRP1GRP2",
        "panLawMono": 1,
        "panLawStereo": 1,
        "directOutsMode": 3,
        "directOutsSkipGroupedTracks": 0,
        "auxSendsMode": 3,
        "groupsControlTrackSendLevels": 0,
        "auxReturnsMutedWhenMainSolo": 0,
        "auxReturnsSolosMuteDry": 0,
        "chainMode": 1,
        "colorAndCloak": 117440512,
        "symmetricalFade": false,
        "fadeCvOutsWithVolCv": false,
        "linkBitMask": 0,
        "filterPos": 1,
        "groupedAuxReturnFeedbackProtection": 1,
        "ecoMode": 65535,
        "faders": [
          0.644702017,
          0.656041026,
          0.693839192,
          0.807231545,
          0.878165126,
          1.0,
          1.0,
          1.0,
          1.0,
          1.0
        ],
        "momentaryCvButtons": 1,
        "masterFaderScalesSends": 0,
        "linearVolCvInputs": 0,
        "id_t0_gainAdjust": 1.0,
        "id_t0_fadeRate": 0.0,
        "id_t0_fadeProfile": 0.0,
        "id_t0_directOutsMode": 3,
        "id_t0_auxSendsMode": 3,
        "id_t0_panLawStereo": 1,
        "id_t0_vuColorThemeLocal": 0,
        "id_t0_filterPos": 1,
        "id_t0_dispColorLocal": 0,
        "id_t0_polyStereo": 0,
        "id_t0_panCvLevel": 1.0,
        "id_t0_stereoWidth": 1.0,
        "id_t0_invertInput": 0,
        "id_t1_gainAdjust": 1.0,
        "id_t1_fadeRate": 0.0,
        "id_t1_fadeProfile": 0.0,
        "id_t1_directOutsMode": 3,
        "id_t1_auxSendsMode": 3,
        "id_t1_panLawStereo": 1,
        "id_t1_vuColorThemeLocal": 0,
        "id_t1_filterPos": 1,
        "id_t1_dispColorLocal": 0,
        "id_t1_polyStereo": 0,
        "id_t1_panCvLevel": 1.0,
        "id_t1_stereoWidth": 1.0,
        "id_t1_invertInput": 0,
        "id_t2_gainAdjust": 1.0,
        "id_t2_fadeRate": 0.0,
        "id_t2_fadeProfile": 0.0,
        "id_t2_directOutsMode": 3,
        "id_t2_auxSendsMode": 3,
        "id_t2_panLawStereo": 1,
        "id_t2_vuColorThemeLocal": 0,
        "id_t2_filterPos": 1,
        "id_t2_dispColorLocal": 0,
        "id_t2_polyStereo": 0,
        "id_t2_panCvLevel": 1.0,
        "id_t2_stereoWidth": 1.0,
        "id_t2_invertInput": 0,
        "id_t3_gainAdjust": 1.0,
        "id_t3_fadeRate": 0.0,
        "id_t3_fadeProfile": 0.0,
        "id_t3_directOutsMode": 3,
        "id_t3_auxSendsMode": 3,
        "id_t3_panLawStereo": 1,
        "id_t3_vuColorThemeLocal": 0,
        "id_t3_filterPos": 1,
        "id_t3_dispColorLocal": 0,
        "id_t3_polyStereo": 0,
        "id_t3_panCvLevel": 1.0,
        "id_t3_stereoWidth": 1.0,
        "id_t3_invertInput": 0,
        "id_t4_gainAdjust": 1.0,
        "id_t4_fadeRate": 0.0,
        "id_t4_fadeProfile": 0.0,
        "id_t4_directOutsMode": 3,
        "id_t4_auxSendsMode": 3,
        "id_t4_panLawStereo": 1,
        "id_t4_vuColorThemeLocal": 0,
        "id_t4_filterPos": 1,
        "id_t4_dispColorLocal": 0,
        "id_t4_polyStereo": 0,
        "id_t4_panCvLevel": 1.0,
        "id_t4_stereoWidth": 1.0,
        "id_t4_invertInput": 0,
        "id_t5_gainAdjust": 1.0,
        "id_t5_fadeRate": 0.0,
        "id_t5_fadeProfile": 0.0,
        "id_t5_directOutsMode": 3,
        "id_t5_auxSendsMode": 3,
        "id_t5_panLawStereo": 1,
        "id_t5_vuColorThemeLocal": 0,
        "id_t5_filterPos": 1,
        "id_t5_dispColorLocal": 0,
        "id_t5_polyStereo": 0,
        "id_t5_panCvLevel": 1.0,
        "id_t5_stereoWidth": 1.0,
        "id_t5_invertInput": 0,
        "id_t6_gainAdjust": 1.0,
        "id_t6_fadeRate": 0.0,
        "id_t6_fadeProfile": 0.0,
        "id_t6_directOutsMode": 3,
        "id_t6_auxSendsMode": 3,
        "id_t6_panLawStereo": 1,
        "id_t6_vuColorThemeLocal": 0,
        "id_t6_filterPos": 1,
        "id_t6_dispColorLocal": 0,
        "id_t6_polyStereo": 0,
        "id_t6_panCvLevel": 1.0,
        "id_t6_stereoWidth": 1.0,
        "id_t6_invertInput": 0,
        "id_t7_gainAdjust": 1.0,
        "id_t7_fadeRate": 0.0,
        "id_t7_fadeProfile": 0.0,
        "id_t7_directOutsMode": 3,
        "id_t7_auxSendsMode": 3,
        "id_t7_panLawStereo": 1,
        "id_t7_vuColorThemeLocal": 0,
        "id_t7_filterPos": 1,
        "id_t7_dispColorLocal": 0,
        "id_t7_polyStereo": 0,
        "id_t7_panCvLevel": 1.0,
        "id_t7_stereoWidth": 1.0,
        "id_t7_invertInput": 0,
        "id_g0_fadeRate": 0.0,
        "id_g0_fadeProfile": 0.0,
        "id_g0_directOutsMode": 3,
        "id_g0_auxSendsMode": 3,
        "id_g0_panLawStereo": 1,
        "id_g0_vuColorThemeLocal": 0,
        "id_g0_filterPos": 1,
        "id_g0_dispColorLocal": 0,
        "id_g0_panCvLevel": 1.0,
        "id_g0_stereoWidth": 1.0,
        "id_g1_fadeRate": 0.0,
        "id_g1_fadeProfile": 0.0,
        "id_g1_directOutsMode": 3,
        "id_g1_auxSendsMode": 3,
        "id_g1_panLawStereo": 1,
        "id_g1_vuColorThemeLocal": 0,
        "id_g1_filterPos": 1,
        "id_g1_dispColorLocal": 0,
        "id_g1_panCvLevel": 1.0,
        "id_g1_stereoWidth": 1.0,
        "dcBlock": false,
        "clipping": 0,
        "fadeRate": 0.0,
        "fadeProfile": 0.0,
        "vuColorThemeLocal": 0,
        "dispColorLocal": 0,
        "dimGain": 0.251190007,
        "masterLabel": "MASTER"
      },
      "pos": [
        0,
        0
      ]
    },
    {
      "id": 14,
      "plugin": "MindMeldModular",
      "version": "1.1.9",
      "model": "AuxExpanderJr",
      "params": [
        {
          "id": 0,
          "value": 0.301499933
        },
        {
          "id": 1,
          "value": 0.0
        },
        {
          "id": 2,
          "value": 0.0
        },
        {
          "id": 3,
          "value": 0.0
        },
        {
          "id": 4,
          "value": 0.312000036
        },
        {
          "id": 5,
          "value": 0.0
        },
        {
          "id": 6,
          "value": 0.0
        },
        {
          "id": 7,
          "value": 0.0
        },
        {
          "id": 8,
          "value": 0.307500005
        },
        {
          "id": 9,
          "value": 0.0
        },
        {
          "id": 10,
          "value": 0.0
        },
        {
          "id": 11,
          "value": 0.0
        },
        {
          "id": 12,
          "value": 0.237000018
        },
        {
          "id": 13,
          "value": 0.0
        },
        {
          "id": 14,
          "value": 0.0
        },
        {
          "id": 15,
          "value": 0.0
        },
        {
          "id": 16,
          "value": 0.0
        },
        {
          "id": 17,
          "value": 0.0
        },
        {
          "id": 18,
          "value": 0.0
        },
        {
          "id": 19,
          "value": 0.0
        },
        {
          "id": 20,
          "value": 0.0
        },
        {
          "id": 21,
          "value": 0.0
        },
        {
          "id": 22,
          "value": 0.0
        },
        {
          "id": 23,
          "value": 0.0
        },
        {
          "id": 24,
          "value": 0.0
        },
        {
          "id": 25,
          "value": 0.0
        },
        {
          "id": 26,
          "value": 0.0
        },
        {
          "id": 27,
          "value": 0.0
        },
        {
          "id": 28,
          "value": 0.0
        },
        {
          "id": 29,
          "value": 0.0
        },
        {
          "id": 30,
          "value": 0.0
        },
        {
          "id": 31,
          "value": 0.0
        },
        {
          "id": 32,
          "value": 0.0
        },
        {
          "id": 33,
          "value": 0.0
        },
        {
          "id": 34,
          "value": 0.0
        },
        {
          "id": 35,
          "value": 0.0
        },
        {
          "id": 36,
          "value": 0.0
        },
        {
          "id": 37,
          "value": 0.0
        },
        {
          "id": 38,
          "value": 0.0
        },
        {
          "id": 39,
          "value": 0.0
        },
        {
          "id": 40,
          "value": 0.0
        },
        {
          "id": 41,
          "value": 0.0
        },
        {
          "id": 42,
          "value": 0.0
        },
        {
          "id": 43,
          "value": 0.0
        },
        {
          "id": 44,
          "value": 0.0
        },
        {
          "id": 45,
          "value": 0.0
        },
        {
          "id": 46,
          "value": 0.0
        },
        {
          "id": 47,
          "value": 0.0
        },
        {
          "id": 48,
          "value": 0.0
        },
        {
          "id": 49,
          "value": 0.0
        },
        {
          "id": 50,
          "value": 0.0
        },
        {
          "id": 51,
          "value": 0.0
        },
        {
          "id": 52,
          "value": 0.0
        },
        {
          "id": 53,
          "value": 0.0
        },
        {
          "id": 54,
          "value": 0.0
        },
        {
          "id": 55,
          "value": 0.0
        },
        {
          "id": 56,
          "value": 0.0
        },
        {
          "id": 57,
          "value": 0.0
        },
        {
          "id": 58,
          "value": 0.0
        },
        {
          "id": 59,
          "value": 0.0
        },
        {
          "id": 60,
          "value": 0.0
        },
        {
          "id": 61,
          "value": 0.0
        },
        {
          "id": 62,
          "value": 1.0
        },
        {
          "id": 63,
          "value": 1.0
        },
        {
          "id": 64,
          "value": 1.0
        },
        {
          "id": 65,
          "value": 1.0
        },
        {
          "id": 66,
          "value": 0.5
        },
        {
          "id": 67,
          "value": 0.5
        },
        {
          "id": 68,
          "value": 0.5
        },
        {
          "id": 69,
          "value": 0.5
        },
        {
          "id": 70,
          "value": 1.0
        },
        {
          "id": 71,
          "value": 1.0
        },
        {
          "id": 72,
          "value": 1.0
        },
        {
          "id": 73,
          "value": 1.0
        }
      ],
      "leftModuleId": 13,
      "rightModuleId": 12,
      "data": {
        "directOutsModeLocal": 50529027,
        "panLawStereoLocal": 16843009,
        "vuColorThemeLocal": 0,
        "dispColorAuxLocal": [
          0,
          0,
          0,
          0
        ],
        "auxFadeRatesAndProfiles": [
          0.0,
          0.0,
          0.0,
          0.0,
          0.0,
          0.0,
          0.0,
          0.0
        ],
        "auxLabels": "AUXAAUXBAUXCAUXD",
        "id_x0_hpfCutoffFreq": 13.0,
        "id_x0_lpfCutoffFreq": 20010.0,
        "id_x0_stereoWidth": 1.0,
        "id_x1_hpfCutoffFreq": 13.0,
        "id_x1_lpfCutoffFreq": 20010.0,
        "id_x1_stereoWidth": 1.0,
        "id_x2_hpfCutoffFreq": 13.0,
        "id_x2_lpfCutoffFreq": 20010.0,
        "id_x2_stereoWidth": 1.0,
        "id_x3_hpfCutoffFreq": 13.0,
        "id_x3_lpfCutoffFreq": 20010.0,
        "id_x3_stereoWidth": 1.0,
        "panCvLevels": [
          1.0,
          1.0,
          1.0,
          1.0
        ]
      },
      "pos": [
        36,
        0
      ]
    },
    {
      "id": 15,
      "plugin": "ML_modules",
      "version": "1.1.2",
      "model": "SH8",
      "params": [],
      "rightModuleId": 28,
      "pos": [
        21,
        1
      ]
    },
    {
      "id": 21,
      "plugin": "ImpromptuModular",
      "version": "1.1.8",
      "model": "Clocked",
      "params": [
        {
          "id": 0,
          "value": 110.0
        },
        {
          "id": 1,
          "value": 2.0
        },
        {
          "id": 2,
          "value": -5.0
        },
        {
          "id": 3,
          "value": 0.0
        },
        {
          "id": 4,
          "value": 0.0
        },
        {
          "id": 5,
          "value": 0.0
        },
        {
          "id": 6,
          "value": 0.0
        },
        {
          "id": 7,
          "value": 0.0
        },
        {
          "id": 8,
          "value": 0.5
        },
        {
          "id": 9,
          "value": 0.5
        },
        {
          "id": 10,
          "value": 0.5
        },
        {
          "id": 11,
          "value": 0.5
        },
        {
          "id": 12,
          "value": 0.0
        },
        {
          "id": 13,
          "value": 0.0
        },
        {
          "id": 14,
          "value": 0.0
        },
        {
          "id": 15,
          "value": 0.0
        },
        {
          "id": 16,
          "value": 0.0
        },
        {
          "id": 17,
          "value": 0.0
        },
        {
          "id": 18,
          "value": 0.0
        },
        {
          "id": 19,
          "value": 0.0
        }
      ],
      "rightModuleId": 51,
      "data": {
        "panelTheme": 1,
        "running": true,
        "displayDelayNoteMode": true,
        "bpmDetectionMode": false,
        "resetOnStartStop": 0,
        "ppqn": 4,
        "resetClockOutputsHigh": true,
        "momentaryRunInput": true,
        "clockMaster": false
      },
      "pos": [
        10,
        2
      ]
    },
    {
      "id": 22,
      "plugin": "Bogaudio",
      "version": "1.1.34",
      "model": "Bogaudio-VCO",
      "params": [
        {
          "id": 0,
          "value": 0.713471651
        },
        {
          "id": 1,
          "value": 0.0
        },
        {
          "id": 2,
          "value": 0.0
        },
        {
          "id": 3,
          "value": 0.0
        },
        {
          "id": 4,
          "value": 0.0607500002
        },
        {
          "id": 5,
          "value": 0.0
        },
        {
          "id": 6,
          "value": 0.0
        }
      ],
      "leftModuleId": 23,
      "rightModuleId": 26,
      "data": {
        "poly_input": 0
      },
      "pos": [
        50,
        1
      ]
    },
    {
      "id": 23,
      "plugin": "ML_modules",
      "version": "1.1.2",
      "model": "Quantum",
      "params": [
        {
          "id": 0,
          "value": 0.0
        },
        {
          "id": 1,
          "value": 0.0
        },
        {
          "id": 2,
          "value": 0.0
        },
        {
          "id": 3,
          "value": 0.0
        },
        {
          "id": 4,
          "value": 0.0
        },
        {
          "id": 5,
          "value": 0.0
        },
        {
          "id": 6,
          "value": 0.0
        },
        {
          "id": 7,
          "value": 0.0
        },
        {
          "id": 8,
          "value": 0.0
        },
        {
          "id": 9,
          "value": 0.0
        },
        {
          "id": 10,
          "value": 0.0
        },
        {
          "id": 11,
          "value": 0.0
        }
      ],
      "leftModuleId": 24,
      "rightModuleId": 22,
      "data": {
        "scale": [
          1,
          0,
          0,
          1,
          0,
          0,
          1,
          0,
          1,
          0,
          0,
          0
        ],
        "mode": 1,
        "transpose_select": 1,
        "toggle_mode": 0
      },
      "pos": [
        42,
        1
      ]
    },
    {
      "id": 24,
      "plugin": "Fundamental",
      "version": "1.4.0",
      "model": "VCA-1",
      "params": [
        {
          "id": 0,
          "value": 0.576999247
        },
        {
          "id": 1,
          "value": 1.0
        }
      ],
      "leftModuleId": 32,
      "rightModuleId": 23,
      "pos": [
        39,
        1
      ]
    },
    {
      "id": 26,
      "plugin": "Bogaudio",
      "version": "1.1.34",
      "model": "Bogaudio-ADSR",
      "params": [
        {
          "id": 0,
          "value": 0.0525000282
        },
        {
          "id": 1,
          "value": 0.592499793
        },
        {
          "id": 2,
          "value": 0.313000023
        },
        {
          "id": 3,
          "value": 0.262499928
        },
        {
          "id": 4,
          "value": 0.0
        }
      ],
      "leftModuleId": 22,
      "rightModuleId": 27,
      "data": {
        "invert": 1.0
      },
      "pos": [
        60,
        1
      ]
    },
    {
      "id": 27,
      "plugin": "Fundamental",
      "version": "1.4.0",
      "model": "Scope",
      "params": [
        {
          "id": 0,
          "value": 0.0
        },
        {
          "id": 1,
          "value": 0.0
        },
        {
          "id": 2,
          "value": 0.0
        },
        {
          "id": 3,
          "value": 0.0
        },
        {
          "id": 4,
          "value": 7.4149971
        },
        {
          "id": 5,
          "value": 0.0
        },
        {
          "id": 6,
          "value": 0.0
        },
        {
          "id": 7,
          "value": 0.0
        }
      ],
      "leftModuleId": 26,
      "rightModuleId": 38,
      "data": {
        "lissajous": 0,
        "external": 0
      },
      "pos": [
        63,
        1
      ]
    },
    {
      "id": 29,
      "plugin": "Fundamental",
      "version": "1.4.0",
      "model": "VCA-1",
      "params": [
        {
          "id": 0,
          "value": 0.533500314
        },
        {
          "id": 1,
          "value": 1.0
        }
      ],
      "leftModuleId": 50,
      "rightModuleId": 30,
      "pos": [
        36,
        2
      ]
    },
    {
      "id": 30,
      "plugin": "ML_modules",
      "version": "1.1.2",
      "model": "Quantum",
      "params": [
        {
          "id": 0,
          "value": 0.0
        },
        {
          "id": 1,
          "value": 0.0
        },
        {
          "id": 2,
          "value": 0.0
        },
        {
          "id": 3,
          "value": 0.0
        },
        {
          "id": 4,
          "value": 0.0
        },
        {
          "id": 5,
          "value": 0.0
        },
        {
          "id": 6,
          "value": 0.0
        },
        {
          "id": 7,
          "value": 0.0
        },
        {
          "id": 8,
          "value": 0.0
        },
        {
          "id": 9,
          "value": 0.0
        },
        {
          "id": 10,
          "value": 0.0
        },
        {
          "id": 11,
          "value": 0.0
        }
      ],
      "leftModuleId": 29,
      "rightModuleId": 31,
      "data": {
        "scale": [
          0,
          0,
          0,
          1,
          0,
          0,
          1,
          0,
          1,
          0,
          0,
          0
        ],
        "mode": 1,
        "transpose_select": 1,
        "toggle_mode": 0
      },
      "pos": [
        39,
        2
      ]
    },
    {
      "id": 31,
      "plugin": "Bogaudio",
      "version": "1.1.34",
      "model": "Bogaudio-VCO",
      "params": [
        {
          "id": 0,
          "value": 0.720181942
        },
        {
          "id": 1,
          "value": 0.0
        },
        {
          "id": 2,
          "value": 0.0
        },
        {
          "id": 3,
          "value": -0.316000015
        },
        {
          "id": 4,
          "value": 0.0329999961
        },
        {
          "id": 5,
          "value": 1.0
        },
        {
          "id": 6,
          "value": 0.0
        }
      ],
      "leftModuleId": 30,
      "rightModuleId": 34,
      "data": {
        "poly_input": 0
      },
      "pos": [
        47,
        2
      ]
    },
    {
      "id": 33,
      "plugin": "Fundamental",
      "version": "1.4.0",
      "model": "Scope",
      "params": [
        {
          "id": 0,
          "value": -1.0
        },
        {
          "id": 1,
          "value": 8.22000217
        },
        {
          "id": 2,
          "value": -1.0
        },
        {
          "id": 3,
          "value": -8.61000252
        },
        {
          "id": 4,
          "value": 16.0
        },
        {
          "id": 5,
          "value": 0.0
        },
        {
          "id": 6,
          "value": 0.0
        },
        {
          "id": 7,
          "value": 0.0
        }
      ],
      "leftModuleId": 35,
      "rightModuleId": 39,
      "data": {
        "lissajous": 0,
        "external": 0
      },
      "pos": [
        63,
        2
      ]
    },
    {
      "id": 34,
      "plugin": "Bogaudio",
      "version": "1.1.34",
      "model": "Bogaudio-ADSR",
      "params": [
        {
          "id": 0,
          "value": 0.0254999958
        },
        {
          "id": 1,
          "value": 0.187499881
        },
        {
          "id": 2,
          "value": 0.18249999
        },
        {
          "id": 3,
          "value": 0.139499873
        },
        {
          "id": 4,
          "value": 0.0
        }
      ],
      "leftModuleId": 31,
      "rightModuleId": 35,
      "data": {
        "invert": 1.0
      },
      "pos": [
        57,
        2
      ]
    },
    {
      "id": 35,
      "plugin": "Fundamental",
      "version": "1.4.0",
      "model": "VCA-1",
      "params": [
        {
          "id": 0,
          "value": 0.886000037
        },
        {
          "id": 1,
          "value": 1.0
        }
      ],
      "leftModuleId": 34,
      "rightModuleId": 33,
      "pos": [
        60,
        2
      ]
    },
    {
      "id": 38,
      "plugin": "cf",
      "version": "1.1.1",
      "model": "BUFFER",
      "params": [
        {
          "id": 0,
          "value": 0.0
        },
        {
          "id": 1,
          "value": 1.0
        },
        {
          "id": 2,
          "value": 0.203999847
        }
      ],
      "leftModuleId": 27,
      "data": {
        "modestate": 1
      },
      "pos": [
        76,
        1
      ]
    },
    {
      "id": 39,
      "plugin": "Hora-ProcessorsFree",
      "version": "1.0.3",
      "model": "Vacuum",
      "params": [
        {
          "id": 0,
          "value": 3.0
        },
        {
          "id": 1,
          "value": 25469.0
        },
        {
          "id": 2,
          "value": 0.356000364
        },
        {
          "id": 3,
          "value": 0.739500284
        }
      ],
      "leftModuleId": 33,
      "pos": [
        76,
        2
      ]
    },
    {
      "id": 45,
      "plugin": "ML_modules",
      "version": "1.1.2",
      "model": "SeqSwitch",
      "params": [
        {
          "id": 0,
          "value": 7.0
        },
        {
          "id": 1,
          "value": 0.0
        },
        {
          "id": 2,
          "value": 0.0
        },
        {
          "id": 3,
          "value": 0.0
        },
        {
          "id": 4,
          "value": 0.0
        },
        {
          "id": 5,
          "value": 0.0
        },
        {
          "id": 6,
          "value": 0.0
        },
        {
          "id": 7,
          "value": 0.0
        },
        {
          "id": 8,
          "value": 0.0
        }
      ],
      "leftModuleId": 54,
      "rightModuleId": 47,
      "data": {
        "inputRange": 0
      },
      "pos": [
        49,
        3
      ]
    },
    {
      "id": 46,
      "plugin": "VultModulesFree",
      "version": "1.11",
      "model": "Tangents",
      "params": [
        {
          "id": 0,
          "value": 0.674500942
        },
        {
          "id": 1,
          "value": 0.426000059
        },
        {
          "id": 2,
          "value": 0.564000309
        },
        {
          "id": 3,
          "value": 0.0
        },
        {
          "id": 4,
          "value": 0.512999952
        },
        {
          "id": 5,
          "value": 0.0
        },
        {
          "id": 6,
          "value": 0.0
        }
      ],
      "leftModuleId": 48,
      "rightModuleId": 49,
      "pos": [
        63,
        3
      ]
    },
    {
      "id": 47,
      "plugin": "Bogaudio",
      "version": "1.1.34",
      "model": "Bogaudio-ADSR",
      "params": [
        {
          "id": 0,
          "value": 0.012000001
        },
        {
          "id": 1,
          "value": 0.295499951
        },
        {
          "id": 2,
          "value": 0.197499588
        },
        {
          "id": 3,
          "value": 0.792000055
        },
        {
          "id": 4,
          "value": 0.0
        }
      ],
      "leftModuleId": 45,
      "rightModuleId": 48,
      "data": {
        "invert": 1.0
      },
      "pos": [
        57,
        3
      ]
    },
    {
      "id": 48,
      "plugin": "Fundamental",
      "version": "1.4.0",
      "model": "VCA-1",
      "params": [
        {
          "id": 0,
          "value": 0.886000037
        },
        {
          "id": 1,
          "value": 1.0
        }
      ],
      "leftModuleId": 47,
      "rightModuleId": 46,
      "pos": [
        60,
        3
      ]
    },
    {
      "id": 49,
      "plugin": "VultModulesFree",
      "version": "1.11",
      "model": "Tangents",
      "params": [
        {
          "id": 0,
          "value": 0.324498743
        },
        {
          "id": 1,
          "value": 0.915999591
        },
        {
          "id": 2,
          "value": 0.395999908
        },
        {
          "id": 3,
          "value": 0.0
        },
        {
          "id": 4,
          "value": 1.31700027
        },
        {
          "id": 5,
          "value": 0.0
        },
        {
          "id": 6,
          "value": 0.0
        }
      ],
      "leftModuleId": 46,
      "pos": [
        73,
        3
      ]
    },
    {
      "id": 50,
      "plugin": "Fundamental",
      "version": "1.4.0",
      "model": "VCA-1",
      "params": [
        {
          "id": 0,
          "value": 0.92699939
        },
        {
          "id": 1,
          "value": 1.0
        }
      ],
      "leftModuleId": 51,
      "rightModuleId": 29,
      "pos": [
        33,
        2
      ]
    },
    {
      "id": 51,
      "plugin": "Bogaudio",
      "version": "1.1.34",
      "model": "Bogaudio-ADSR",
      "params": [
        {
          "id": 0,
          "value": 0.012000001
        },
        {
          "id": 1,
          "value": 0.75150007
        },
        {
          "id": 2,
          "value": 0.654999495
        },
        {
          "id": 3,
          "value": 0.195000112
        },
        {
          "id": 4,
          "value": 0.0
        }
      ],
      "leftModuleId": 21,
      "rightModuleId": 50,
      "data": {
        "invert": 1.0
      },
      "pos": [
        30,
        2
      ]
    },
    {
      "id": 53,
      "plugin": "Bogaudio",
      "version": "1.1.34",
      "model": "Bogaudio-ADSR",
      "params": [
        {
          "id": 0,
          "value": 0.0329999365
        },
        {
          "id": 1,
          "value": 0.796499968
        },
        {
          "id": 2,
          "value": 0.822999477
        },
        {
          "id": 3,
          "value": 0.204000473
        },
        {
          "id": 4,
          "value": 0.0
        }
      ],
      "leftModuleId": 55,
      "rightModuleId": 54,
      "data": {
        "invert": 1.0
      },
      "pos": [
        43,
        3
      ]
    },
    {
      "id": 54,
      "plugin": "Fundamental",
      "version": "1.4.0",
      "model": "VCA-1",
      "params": [
        {
          "id": 0,
          "value": 0.886000037
        },
        {
          "id": 1,
          "value": 1.0
        }
      ],
      "leftModuleId": 53,
      "rightModuleId": 45,
      "pos": [
        46,
        3
      ]
    },
    {
      "id": 55,
      "plugin": "Hora-treasureFree",
      "version": "1.0.2",
      "model": "HiHat",
      "params": [
        {
          "id": 0,
          "value": 0.5
        },
        {
          "id": 1,
          "value": 0.600000024
        },
        {
          "id": 2,
          "value": 0.730440021
        },
        {
          "id": 3,
          "value": 0.0
        },
        {
          "id": 4,
          "value": 0.133649588
        },
        {
          "id": 5,
          "value": 0.268499762
        },
        {
          "id": 6,
          "value": 1.57449913
        },
        {
          "id": 7,
          "value": 0.939499795
        },
        {
          "id": 8,
          "value": 0.773000121
        },
        {
          "id": 9,
          "value": 0.600000024
        },
        {
          "id": 10,
          "value": 0.723699987
        },
        {
          "id": 11,
          "value": 0.411999971
        }
      ],
      "leftModuleId": 58,
      "rightModuleId": 53,
      "pos": [
        35,
        3
      ]
    },
    {
      "id": 58,
      "plugin": "Bogaudio",
      "version": "1.1.34",
      "model": "Bogaudio-Slew",
      "params": [
        {
          "id": 0,
          "value": 1.0
        },
        {
          "id": 1,
          "value": 0.0
        },
        {
          "id": 2,
          "value": 1.0
        },
        {
          "id": 3,
          "value": 0.0
        }
      ],
      "leftModuleId": 60,
      "rightModuleId": 55,
      "data": {},
      "pos": [
        32,
        3
      ]
    },
    {
      "id": 60,
      "plugin": "Autodafe-DrumKit",
      "version": "1.0.0",
      "model": "DrumsKick",
      "params": [
        {
          "id": 0,
          "value": 0.0
        }
      ],
      "rightModuleId": 58,
      "data": {
        "sampletype": 5
      },
      "pos": [
        28,
        3
      ]
    },
    {
      "id": 32,
      "plugin": "Fundamental",
      "version": "1.4.0",
      "model": "Merge",
      "params": [],
      "leftModuleId": 28,
      "rightModuleId": 24,
      "data": {
        "channels": -1
      },
      "pos": [
        34,
        1
      ]
    },
    {
      "id": 28,
      "plugin": "Fundamental",
      "version": "1.4.0",
      "model": "Merge",
      "params": [],
      "leftModuleId": 15,
      "rightModuleId": 32,
      "data": {
        "channels": -1
      },
      "pos": [
        29,
        1
      ]
    }
  ],
  "cables": [
    {
      "id": 16,
      "outputModuleId": 13,
      "outputId": 2,
      "inputModuleId": 11,
      "inputId": 0,
      "color": "#c91847"
    },
    {
      "id": 17,
      "outputModuleId": 13,
      "outputId": 3,
      "inputModuleId": 11,
      "inputId": 1,
      "color": "#0986ad"
    },
    {
      "id": 18,
      "outputModuleId": 14,
      "outputId": 0,
      "inputModuleId": 12,
      "inputId": 0,
      "color": "#c9b70e"
    },
    {
      "id": 19,
      "outputModuleId": 14,
      "outputId": 4,
      "inputModuleId": 12,
      "inputId": 1,
      "color": "#0c8e15"
    },
    {
      "id": 20,
      "outputModuleId": 12,
      "outputId": 0,
      "inputModuleId": 14,
      "inputId": 0,
      "color": "#c91847"
    },
    {
      "id": 21,
      "outputModuleId": 12,
      "outputId": 1,
      "inputModuleId": 14,
      "inputId": 1,
      "color": "#0986ad"
    },
    {
      "id": 38,
      "outputModuleId": 23,
      "outputId": 0,
      "inputModuleId": 22,
      "inputId": 0,
      "color": "#c9b70e"
    },
    {
      "id": 43,
      "outputModuleId": 24,
      "outputId": 0,
      "inputModuleId": 23,
      "inputId": 0,
      "color": "#0c8e15"
    },
    {
      "id": 49,
      "outputModuleId": 26,
      "outputId": 0,
      "inputModuleId": 22,
      "inputId": 3,
      "color": "#0c8e15"
    },
    {
      "id": 53,
      "outputModuleId": 21,
      "outputId": 0,
      "inputModuleId": 26,
      "inputId": 0,
      "color": "#0c8e15"
    },
    {
      "id": 54,
      "outputModuleId": 26,
      "outputId": 0,
      "inputModuleId": 27,
      "inputId": 0,
      "color": "#c91847"
    },
    {
      "id": 71,
      "outputModuleId": 30,
      "outputId": 0,
      "inputModuleId": 31,
      "inputId": 0,
      "color": "#0c8e15"
    },
    {
      "id": 73,
      "outputModuleId": 22,
      "outputId": 3,
      "inputModuleId": 33,
      "inputId": 0,
      "color": "#0986ad"
    },
    {
      "id": 78,
      "outputModuleId": 34,
      "outputId": 0,
      "inputModuleId": 35,
      "inputId": 0,
      "color": "#0c8e15"
    },
    {
      "id": 87,
      "outputModuleId": 31,
      "outputId": 3,
      "inputModuleId": 38,
      "inputId": 0,
      "color": "#0986ad"
    },
    {
      "id": 70,
      "outputModuleId": 29,
      "outputId": 0,
      "inputModuleId": 30,
      "inputId": 0,
      "color": "#c9b70e"
    },
    {
      "id": 127,
      "outputModuleId": 23,
      "outputId": 2,
      "inputModuleId": 45,
      "inputId": 2,
      "color": "#0986ad"
    },
    {
      "id": 128,
      "outputModuleId": 30,
      "outputId": 2,
      "inputModuleId": 45,
      "inputId": 3,
      "color": "#c9b70e"
    },
    {
      "id": 129,
      "outputModuleId": 21,
      "outputId": 2,
      "inputModuleId": 34,
      "inputId": 0,
      "color": "#0c8e15"
    },
    {
      "id": 79,
      "outputModuleId": 31,
      "outputId": 0,
      "inputModuleId": 46,
      "inputId": 0,
      "color": "#c91847"
    },
    {
      "id": 132,
      "outputModuleId": 35,
      "outputId": 0,
      "inputModuleId": 45,
      "inputId": 4,
      "color": "#c9b70e"
    },
    {
      "id": 134,
      "outputModuleId": 47,
      "outputId": 0,
      "inputModuleId": 48,
      "inputId": 0,
      "color": "#0986ad"
    },
    {
      "id": 122,
      "outputModuleId": 48,
      "outputId": 0,
      "inputModuleId": 13,
      "inputId": 2,
      "color": "#c91847"
    },
    {
      "id": 142,
      "outputModuleId": 48,
      "outputId": 0,
      "inputModuleId": 49,
      "inputId": 3,
      "color": "#c9b70e"
    },
    {
      "id": 89,
      "outputModuleId": 22,
      "outputId": 0,
      "inputModuleId": 38,
      "inputId": 1,
      "color": "#0c8e15"
    },
    {
      "id": 152,
      "outputModuleId": 24,
      "outputId": 0,
      "inputModuleId": 38,
      "inputId": 2,
      "color": "#0986ad"
    },
    {
      "id": 137,
      "outputModuleId": 35,
      "outputId": 0,
      "inputModuleId": 46,
      "inputId": 3,
      "color": "#c91847"
    },
    {
      "id": 41,
      "outputModuleId": 50,
      "outputId": 0,
      "inputModuleId": 13,
      "inputId": 0,
      "color": "#0986ad"
    },
    {
      "id": 158,
      "outputModuleId": 51,
      "outputId": 0,
      "inputModuleId": 50,
      "inputId": 0,
      "color": "#0c8e15"
    },
    {
      "id": 159,
      "outputModuleId": 21,
      "outputId": 1,
      "inputModuleId": 51,
      "inputId": 0,
      "color": "#c91847"
    },
    {
      "id": 161,
      "outputModuleId": 50,
      "outputId": 0,
      "inputModuleId": 31,
      "inputId": 2,
      "color": "#c9b70e"
    },
    {
      "id": 162,
      "outputModuleId": 21,
      "outputId": 1,
      "inputModuleId": 45,
      "inputId": 13,
      "color": "#0c8e15"
    },
    {
      "id": 166,
      "outputModuleId": 45,
      "outputId": 0,
      "inputModuleId": 47,
      "inputId": 0,
      "color": "#0c8e15"
    },
    {
      "id": 155,
      "outputModuleId": 22,
      "outputId": 2,
      "inputModuleId": 50,
      "inputId": 1,
      "color": "#c91847"
    },
    {
      "id": 140,
      "outputModuleId": 38,
      "outputId": 0,
      "inputModuleId": 39,
      "inputId": 2,
      "color": "#c91847"
    },
    {
      "id": 136,
      "outputModuleId": 46,
      "outputId": 0,
      "inputModuleId": 48,
      "inputId": 1,
      "color": "#0c8e15"
    },
    {
      "id": 173,
      "outputModuleId": 21,
      "outputId": 2,
      "inputModuleId": 53,
      "inputId": 0,
      "color": "#c9b70e"
    },
    {
      "id": 88,
      "outputModuleId": 54,
      "outputId": 0,
      "inputModuleId": 13,
      "inputId": 4,
      "color": "#c9b70e"
    },
    {
      "id": 175,
      "outputModuleId": 53,
      "outputId": 0,
      "inputModuleId": 54,
      "inputId": 0,
      "color": "#c91847"
    },
    {
      "id": 174,
      "outputModuleId": 49,
      "outputId": 0,
      "inputModuleId": 54,
      "inputId": 1,
      "color": "#0c8e15"
    },
    {
      "id": 141,
      "outputModuleId": 39,
      "outputId": 0,
      "inputModuleId": 49,
      "inputId": 0,
      "color": "#0986ad"
    },
    {
      "id": 178,
      "outputModuleId": 21,
      "outputId": 0,
      "inputModuleId": 55,
      "inputId": 0,
      "color": "#0c8e15"
    },
    {
      "id": 177,
      "outputModuleId": 55,
      "outputId": 2,
      "inputModuleId": 13,
      "inputId": 6,
      "color": "#c9b70e"
    },
    {
      "id": 180,
      "outputModuleId": 54,
      "outputId": 0,
      "inputModuleId": 55,
      "inputId": 4,
      "color": "#c9b70e"
    },
    {
      "id": 181,
      "outputModuleId": 21,
      "outputId": 1,
      "inputModuleId": 55,
      "inputId": 1,
      "color": "#0c8e15"
    },
    {
      "id": 182,
      "outputModuleId": 50,
      "outputId": 0,
      "inputModuleId": 55,
      "inputId": 2,
      "color": "#c91847"
    },
    {
      "id": 179,
      "outputModuleId": 55,
      "outputId": 1,
      "inputModuleId": 45,
      "inputId": 5,
      "color": "#0986ad"
    },
    {
      "id": 196,
      "outputModuleId": 31,
      "outputId": 1,
      "inputModuleId": 35,
      "inputId": 1,
      "color": "#c91847"
    },
    {
      "id": 197,
      "outputModuleId": 21,
      "outputId": 0,
      "inputModuleId": 60,
      "inputId": 0,
      "color": "#0986ad"
    },
    {
      "id": 198,
      "outputModuleId": 60,
      "outputId": 0,
      "inputModuleId": 13,
      "inputId": 8,
      "color": "#c9b70e"
    },
    {
      "id": 68,
      "outputModuleId": 15,
      "outputId": 7,
      "inputModuleId": 32,
      "inputId": 7,
      "color": "#c91847"
    },
    {
      "id": 67,
      "outputModuleId": 15,
      "outputId": 6,
      "inputModuleId": 32,
      "inputId": 6,
      "color": "#0c8e15"
    },
    {
      "id": 66,
      "outputModuleId": 15,
      "outputId": 5,
      "inputModuleId": 32,
      "inputId": 5,
      "color": "#c9b70e"
    },
    {
      "id": 65,
      "outputModuleId": 15,
      "outputId": 4,
      "inputModuleId": 32,
      "inputId": 4,
      "color": "#0986ad"
    },
    {
      "id": 126,
      "outputModuleId": 32,
      "outputId": 0,
      "inputModuleId": 45,
      "inputId": 1,
      "color": "#c91847"
    },
    {
      "id": 69,
      "outputModuleId": 32,
      "outputId": 0,
      "inputModuleId": 29,
      "inputId": 1,
      "color": "#0986ad"
    },
    {
      "id": 59,
      "outputModuleId": 15,
      "outputId": 3,
      "inputModuleId": 28,
      "inputId": 3,
      "color": "#0986ad"
    },
    {
      "id": 58,
      "outputModuleId": 15,
      "outputId": 2,
      "inputModuleId": 28,
      "inputId": 2,
      "color": "#c91847"
    },
    {
      "id": 57,
      "outputModuleId": 15,
      "outputId": 1,
      "inputModuleId": 28,
      "inputId": 1,
      "color": "#0c8e15"
    },
    {
      "id": 56,
      "outputModuleId": 15,
      "outputId": 0,
      "inputModuleId": 28,
      "inputId": 0,
      "color": "#c9b70e"
    },
    {
      "id": 190,
      "outputModuleId": 28,
      "outputId": 0,
      "inputModuleId": 58,
      "inputId": 2,
      "color": "#c91847"
    },
    {
      "id": 125,
      "outputModuleId": 28,
      "outputId": 0,
      "inputModuleId": 45,
      "inputId": 0,
      "color": "#0c8e15"
    },
    {
      "id": 55,
      "outputModuleId": 28,
      "outputId": 0,
      "inputModuleId": 24,
      "inputId": 1,
      "color": "#0986ad"
    },
    {
      "id": 195,
      "outputModuleId": 21,
      "outputId": 2,
      "inputModuleId": 15,
      "inputId": 8,
      "color": "#0c8e15"
    }
  ]
}