{
  "version": "1.1.6",
  "modules": [
    {
      "id": 11,
      "plugin": "Core",
      "version": "1.1.6",
      "model": "AudioInterface",
      "params": [],
      "leftModuleId": 12,
      "data": {
        "audio": {
          "driver": 4,
          "deviceName": "system",
          "offset": 0,
          "maxChannels": 8,
          "sampleRate": 44100,
          "blockSize": 2048
        }
      },
      "pos": [
        98,
        0
      ]
    },
    {
      "id": 12,
      "plugin": "Valley",
      "version": "1.1.3",
      "model": "Plateau",
      "params": [
        {
          "id": 0,
          "value": 1.0
        },
        {
          "id": 1,
          "value": 0.5
        },
        {
          "id": 2,
          "value": 0.0
        },
        {
          "id": 3,
          "value": 10.0
        },
        {
          "id": 4,
          "value": 10.0
        },
        {
          "id": 5,
          "value": 0.5
        },
        {
          "id": 6,
          "value": 10.0
        },
        {
          "id": 7,
          "value": 0.549950004
        },
        {
          "id": 8,
          "value": 10.0
        },
        {
          "id": 9,
          "value": 10.0
        },
        {
          "id": 10,
          "value": 0.0
        },
        {
          "id": 11,
          "value": 0.5
        },
        {
          "id": 12,
          "value": 0.5
        },
        {
          "id": 13,
          "value": 0.0
        },
        {
          "id": 14,
          "value": 0.0
        },
        {
          "id": 15,
          "value": 0.0
        },
        {
          "id": 16,
          "value": 0.0
        },
        {
          "id": 17,
          "value": 0.0
        },
        {
          "id": 18,
          "value": 0.0
        },
        {
          "id": 19,
          "value": 0.0
        },
        {
          "id": 20,
          "value": 0.0
        },
        {
          "id": 21,
          "value": 0.0
        },
        {
          "id": 22,
          "value": 0.0
        },
        {
          "id": 23,
          "value": 0.0
        },
        {
          "id": 24,
          "value": 0.0
        },
        {
          "id": 25,
          "value": 0.0
        },
        {
          "id": 26,
          "value": 0.0
        },
        {
          "id": 27,
          "value": 0.0
        },
        {
          "id": 28,
          "value": 0.0
        },
        {
          "id": 29,
          "value": 0.0
        },
        {
          "id": 30,
          "value": 1.0
        }
      ],
      "leftModuleId": 14,
      "rightModuleId": 11,
      "data": {
        "frozen": false,
        "freezeToggle": false,
        "panelStyle": 0,
        "tuned": 0,
        "diffuseInput": 1,
        "preDelayCVSens": 0,
        "inputSensitivity": 0,
        "outputSaturation": 0
      },
      "pos": [
        86,
        0
      ]
    },
    {
      "id": 13,
      "plugin": "MindMeldModular",
      "version": "1.1.10",
      "model": "MixMasterJr",
      "params": [
        {
          "id": 0,
          "value": 1.0
        },
        {
          "id": 1,
          "value": 1.0
        },
        {
          "id": 2,
          "value": 1.0
        },
        {
          "id": 3,
          "value": 1.0
        },
        {
          "id": 4,
          "value": 1.0
        },
        {
          "id": 5,
          "value": 1.0
        },
        {
          "id": 6,
          "value": 1.0
        },
        {
          "id": 7,
          "value": 1.0
        },
        {
          "id": 8,
          "value": 1.0
        },
        {
          "id": 9,
          "value": 1.0
        },
        {
          "id": 10,
          "value": 0.5
        },
        {
          "id": 11,
          "value": 0.5
        },
        {
          "id": 12,
          "value": 0.5
        },
        {
          "id": 13,
          "value": 0.5
        },
        {
          "id": 14,
          "value": 0.5
        },
        {
          "id": 15,
          "value": 0.5
        },
        {
          "id": 16,
          "value": 0.5
        },
        {
          "id": 17,
          "value": 0.5
        },
        {
          "id": 18,
          "value": 0.5
        },
        {
          "id": 19,
          "value": 0.5
        },
        {
          "id": 20,
          "value": 0.0
        },
        {
          "id": 21,
          "value": 0.0
        },
        {
          "id": 22,
          "value": 0.0
        },
        {
          "id": 23,
          "value": 0.0
        },
        {
          "id": 24,
          "value": 0.0
        },
        {
          "id": 25,
          "value": 0.0
        },
        {
          "id": 26,
          "value": 0.0
        },
        {
          "id": 27,
          "value": 0.0
        },
        {
          "id": 28,
          "value": 0.0
        },
        {
          "id": 29,
          "value": 0.0
        },
        {
          "id": 30,
          "value": 0.0
        },
        {
          "id": 31,
          "value": 0.0
        },
        {
          "id": 32,
          "value": 0.0
        },
        {
          "id": 33,
          "value": 0.0
        },
        {
          "id": 34,
          "value": 0.0
        },
        {
          "id": 35,
          "value": 0.0
        },
        {
          "id": 36,
          "value": 0.0
        },
        {
          "id": 37,
          "value": 0.0
        },
        {
          "id": 38,
          "value": 0.0
        },
        {
          "id": 39,
          "value": 0.0
        },
        {
          "id": 40,
          "value": 0.0
        },
        {
          "id": 41,
          "value": 0.0
        },
        {
          "id": 42,
          "value": 0.0
        },
        {
          "id": 43,
          "value": 1.0
        },
        {
          "id": 44,
          "value": 0.0
        },
        {
          "id": 45,
          "value": 0.0
        },
        {
          "id": 46,
          "value": 0.0
        },
        {
          "id": 47,
          "value": 0.0
        },
        {
          "id": 48,
          "value": 0.0
        },
        {
          "id": 49,
          "value": 0.0
        },
        {
          "id": 50,
          "value": 0.0
        },
        {
          "id": 51,
          "value": 0.0
        },
        {
          "id": 52,
          "value": 13.0
        },
        {
          "id": 53,
          "value": 13.0
        },
        {
          "id": 54,
          "value": 13.0
        },
        {
          "id": 55,
          "value": 13.0
        },
        {
          "id": 56,
          "value": 13.0
        },
        {
          "id": 57,
          "value": 13.0
        },
        {
          "id": 58,
          "value": 13.0
        },
        {
          "id": 59,
          "value": 13.0
        },
        {
          "id": 60,
          "value": 20010.0
        },
        {
          "id": 61,
          "value": 20010.0
        },
        {
          "id": 62,
          "value": 20010.0
        },
        {
          "id": 63,
          "value": 20010.0
        },
        {
          "id": 64,
          "value": 20010.0
        },
        {
          "id": 65,
          "value": 20010.0
        },
        {
          "id": 66,
          "value": 20010.0
        },
        {
          "id": 67,
          "value": 20010.0
        },
        {
          "id": 68,
          "value": 13.0
        },
        {
          "id": 69,
          "value": 13.0
        },
        {
          "id": 70,
          "value": 20010.0
        },
        {
          "id": 71,
          "value": 20010.0
        }
      ],
      "leftModuleId": 299,
      "rightModuleId": 14,
      "data": {
        "trackLabels": "ADDVPERCDRUMTERR-05--06--07--08-GRP1GRP2",
        "panLawMono": 1,
        "panLawStereo": 1,
        "directOutsMode": 3,
        "directOutsSkipGroupedTracks": 0,
        "auxSendsMode": 3,
        "groupsControlTrackSendLevels": 0,
        "auxReturnsMutedWhenMainSolo": 0,
        "auxReturnsSolosMuteDry": 0,
        "chainMode": 1,
        "colorAndCloak": 117440512,
        "symmetricalFade": false,
        "fadeCvOutsWithVolCv": false,
        "linkBitMask": 0,
        "filterPos": 1,
        "groupedAuxReturnFeedbackProtection": 1,
        "ecoMode": 65535,
        "faders": [
          1.0,
          1.0,
          1.0,
          1.0,
          1.0,
          1.0,
          1.0,
          1.0,
          1.0,
          1.0
        ],
        "momentaryCvButtons": 1,
        "masterFaderScalesSends": 0,
        "linearVolCvInputs": 0,
        "id_t0_gainAdjust": 0.67920357,
        "id_t0_fadeRate": 0.0,
        "id_t0_fadeProfile": 0.0,
        "id_t0_directOutsMode": 3,
        "id_t0_auxSendsMode": 3,
        "id_t0_panLawStereo": 1,
        "id_t0_vuColorThemeLocal": 0,
        "id_t0_filterPos": 1,
        "id_t0_dispColorLocal": 0,
        "id_t0_polyStereo": 0,
        "id_t0_panCvLevel": 1.0,
        "id_t0_stereoWidth": 1.0,
        "id_t0_invertInput": 0,
        "id_t1_gainAdjust": 0.682338476,
        "id_t1_fadeRate": 0.0,
        "id_t1_fadeProfile": 0.0,
        "id_t1_directOutsMode": 3,
        "id_t1_auxSendsMode": 3,
        "id_t1_panLawStereo": 1,
        "id_t1_vuColorThemeLocal": 0,
        "id_t1_filterPos": 1,
        "id_t1_dispColorLocal": 0,
        "id_t1_polyStereo": 0,
        "id_t1_panCvLevel": 1.0,
        "id_t1_stereoWidth": 1.0,
        "id_t1_invertInput": 0,
        "id_t2_gainAdjust": 0.724435627,
        "id_t2_fadeRate": 0.0,
        "id_t2_fadeProfile": 0.0,
        "id_t2_directOutsMode": 3,
        "id_t2_auxSendsMode": 3,
        "id_t2_panLawStereo": 1,
        "id_t2_vuColorThemeLocal": 0,
        "id_t2_filterPos": 1,
        "id_t2_dispColorLocal": 0,
        "id_t2_polyStereo": 0,
        "id_t2_panCvLevel": 1.0,
        "id_t2_stereoWidth": 1.0,
        "id_t2_invertInput": 0,
        "id_t3_gainAdjust": 0.682338357,
        "id_t3_fadeRate": 0.0,
        "id_t3_fadeProfile": 0.0,
        "id_t3_directOutsMode": 3,
        "id_t3_auxSendsMode": 3,
        "id_t3_panLawStereo": 1,
        "id_t3_vuColorThemeLocal": 0,
        "id_t3_filterPos": 1,
        "id_t3_dispColorLocal": 0,
        "id_t3_polyStereo": 0,
        "id_t3_panCvLevel": 1.0,
        "id_t3_stereoWidth": 1.0,
        "id_t3_invertInput": 0,
        "id_t4_gainAdjust": 1.0,
        "id_t4_fadeRate": 0.0,
        "id_t4_fadeProfile": 0.0,
        "id_t4_directOutsMode": 3,
        "id_t4_auxSendsMode": 3,
        "id_t4_panLawStereo": 1,
        "id_t4_vuColorThemeLocal": 0,
        "id_t4_filterPos": 1,
        "id_t4_dispColorLocal": 0,
        "id_t4_polyStereo": 0,
        "id_t4_panCvLevel": 1.0,
        "id_t4_stereoWidth": 1.0,
        "id_t4_invertInput": 0,
        "id_t5_gainAdjust": 1.0,
        "id_t5_fadeRate": 0.0,
        "id_t5_fadeProfile": 0.0,
        "id_t5_directOutsMode": 3,
        "id_t5_auxSendsMode": 3,
        "id_t5_panLawStereo": 1,
        "id_t5_vuColorThemeLocal": 0,
        "id_t5_filterPos": 1,
        "id_t5_dispColorLocal": 0,
        "id_t5_polyStereo": 0,
        "id_t5_panCvLevel": 1.0,
        "id_t5_stereoWidth": 1.0,
        "id_t5_invertInput": 0,
        "id_t6_gainAdjust": 1.0,
        "id_t6_fadeRate": 0.0,
        "id_t6_fadeProfile": 0.0,
        "id_t6_directOutsMode": 3,
        "id_t6_auxSendsMode": 3,
        "id_t6_panLawStereo": 1,
        "id_t6_vuColorThemeLocal": 0,
        "id_t6_filterPos": 1,
        "id_t6_dispColorLocal": 0,
        "id_t6_polyStereo": 0,
        "id_t6_panCvLevel": 1.0,
        "id_t6_stereoWidth": 1.0,
        "id_t6_invertInput": 0,
        "id_t7_gainAdjust": 1.0,
        "id_t7_fadeRate": 0.0,
        "id_t7_fadeProfile": 0.0,
        "id_t7_directOutsMode": 3,
        "id_t7_auxSendsMode": 3,
        "id_t7_panLawStereo": 1,
        "id_t7_vuColorThemeLocal": 0,
        "id_t7_filterPos": 1,
        "id_t7_dispColorLocal": 0,
        "id_t7_polyStereo": 0,
        "id_t7_panCvLevel": 1.0,
        "id_t7_stereoWidth": 1.0,
        "id_t7_invertInput": 0,
        "id_g0_fadeRate": 0.0,
        "id_g0_fadeProfile": 0.0,
        "id_g0_directOutsMode": 3,
        "id_g0_auxSendsMode": 3,
        "id_g0_panLawStereo": 1,
        "id_g0_vuColorThemeLocal": 0,
        "id_g0_filterPos": 1,
        "id_g0_dispColorLocal": 0,
        "id_g0_panCvLevel": 1.0,
        "id_g0_stereoWidth": 1.0,
        "id_g1_fadeRate": 0.0,
        "id_g1_fadeProfile": 0.0,
        "id_g1_directOutsMode": 3,
        "id_g1_auxSendsMode": 3,
        "id_g1_panLawStereo": 1,
        "id_g1_vuColorThemeLocal": 0,
        "id_g1_filterPos": 1,
        "id_g1_dispColorLocal": 0,
        "id_g1_panCvLevel": 1.0,
        "id_g1_stereoWidth": 1.0,
        "dcBlock": false,
        "clipping": 0,
        "fadeRate": 0.0,
        "fadeProfile": 0.0,
        "vuColorThemeLocal": 0,
        "dispColorLocal": 0,
        "chainOnly": 0,
        "dimGain": 0.251190007,
        "masterLabel": "MASTER"
      },
      "pos": [
        20,
        0
      ]
    },
    {
      "id": 14,
      "plugin": "MindMeldModular",
      "version": "1.1.10",
      "model": "AuxExpanderJr",
      "params": [
        {
          "id": 0,
          "value": 0.350999981
        },
        {
          "id": 1,
          "value": 0.0
        },
        {
          "id": 2,
          "value": 0.0
        },
        {
          "id": 3,
          "value": 0.0
        },
        {
          "id": 4,
          "value": 0.0
        },
        {
          "id": 5,
          "value": 0.0
        },
        {
          "id": 6,
          "value": 0.0
        },
        {
          "id": 7,
          "value": 0.0
        },
        {
          "id": 8,
          "value": 0.0
        },
        {
          "id": 9,
          "value": 0.0
        },
        {
          "id": 10,
          "value": 0.0
        },
        {
          "id": 11,
          "value": 0.0
        },
        {
          "id": 12,
          "value": 0.367500126
        },
        {
          "id": 13,
          "value": 0.0
        },
        {
          "id": 14,
          "value": 0.0
        },
        {
          "id": 15,
          "value": 0.0
        },
        {
          "id": 16,
          "value": 0.0
        },
        {
          "id": 17,
          "value": 0.0
        },
        {
          "id": 18,
          "value": 0.0
        },
        {
          "id": 19,
          "value": 0.0
        },
        {
          "id": 20,
          "value": 0.0
        },
        {
          "id": 21,
          "value": 0.0
        },
        {
          "id": 22,
          "value": 0.0
        },
        {
          "id": 23,
          "value": 0.0
        },
        {
          "id": 24,
          "value": 0.0
        },
        {
          "id": 25,
          "value": 0.0
        },
        {
          "id": 26,
          "value": 0.0
        },
        {
          "id": 27,
          "value": 0.0
        },
        {
          "id": 28,
          "value": 0.0
        },
        {
          "id": 29,
          "value": 0.0
        },
        {
          "id": 30,
          "value": 0.0
        },
        {
          "id": 31,
          "value": 0.0
        },
        {
          "id": 32,
          "value": 0.0
        },
        {
          "id": 33,
          "value": 0.0
        },
        {
          "id": 34,
          "value": 0.0
        },
        {
          "id": 35,
          "value": 0.0
        },
        {
          "id": 36,
          "value": 0.0
        },
        {
          "id": 37,
          "value": 0.0
        },
        {
          "id": 38,
          "value": 0.0
        },
        {
          "id": 39,
          "value": 0.0
        },
        {
          "id": 40,
          "value": 0.0
        },
        {
          "id": 41,
          "value": 0.0
        },
        {
          "id": 42,
          "value": 0.0
        },
        {
          "id": 43,
          "value": 0.0
        },
        {
          "id": 44,
          "value": 0.0
        },
        {
          "id": 45,
          "value": 0.0
        },
        {
          "id": 46,
          "value": 0.0
        },
        {
          "id": 47,
          "value": 0.0
        },
        {
          "id": 48,
          "value": 0.0
        },
        {
          "id": 49,
          "value": 0.0
        },
        {
          "id": 50,
          "value": 0.0
        },
        {
          "id": 51,
          "value": 0.0
        },
        {
          "id": 52,
          "value": 0.0
        },
        {
          "id": 53,
          "value": 0.0
        },
        {
          "id": 54,
          "value": 0.0
        },
        {
          "id": 55,
          "value": 0.0
        },
        {
          "id": 56,
          "value": 0.0
        },
        {
          "id": 57,
          "value": 0.0
        },
        {
          "id": 58,
          "value": 0.0
        },
        {
          "id": 59,
          "value": 0.0
        },
        {
          "id": 60,
          "value": 0.0
        },
        {
          "id": 61,
          "value": 0.0
        },
        {
          "id": 62,
          "value": 1.0
        },
        {
          "id": 63,
          "value": 1.0
        },
        {
          "id": 64,
          "value": 1.0
        },
        {
          "id": 65,
          "value": 1.0
        },
        {
          "id": 66,
          "value": 0.5
        },
        {
          "id": 67,
          "value": 0.5
        },
        {
          "id": 68,
          "value": 0.5
        },
        {
          "id": 69,
          "value": 0.5
        },
        {
          "id": 70,
          "value": 1.0
        },
        {
          "id": 71,
          "value": 1.0
        },
        {
          "id": 72,
          "value": 1.0
        },
        {
          "id": 73,
          "value": 1.0
        }
      ],
      "leftModuleId": 13,
      "rightModuleId": 12,
      "data": {
        "directOutsModeLocal": 50529027,
        "panLawStereoLocal": 16843009,
        "vuColorThemeLocal": 0,
        "dispColorAuxLocal": [
          0,
          0,
          0,
          0
        ],
        "auxFadeRatesAndProfiles": [
          0.0,
          0.0,
          0.0,
          0.0,
          0.0,
          0.0,
          0.0,
          0.0
        ],
        "auxLabels": "AUXAAUXBAUXCAUXD",
        "id_x0_hpfCutoffFreq": 13.0,
        "id_x0_lpfCutoffFreq": 20010.0,
        "id_x0_stereoWidth": 1.0,
        "id_x1_hpfCutoffFreq": 13.0,
        "id_x1_lpfCutoffFreq": 20010.0,
        "id_x1_stereoWidth": 1.0,
        "id_x2_hpfCutoffFreq": 13.0,
        "id_x2_lpfCutoffFreq": 20010.0,
        "id_x2_stereoWidth": 1.0,
        "id_x3_hpfCutoffFreq": 13.0,
        "id_x3_lpfCutoffFreq": 20010.0,
        "id_x3_stereoWidth": 1.0,
        "panCvLevels": [
          1.0,
          1.0,
          1.0,
          1.0
        ]
      },
      "pos": [
        56,
        0
      ]
    },
    {
      "id": 292,
      "plugin": "Bogaudio",
      "version": "1.1.34",
      "model": "Bogaudio-AddrSeq",
      "params": [
        {
          "id": 0,
          "value": 8.0
        },
        {
          "id": 1,
          "value": 1.0
        },
        {
          "id": 2,
          "value": 0.0
        },
        {
          "id": 3,
          "value": 0.165000021
        },
        {
          "id": 4,
          "value": 0.45600003
        },
        {
          "id": 5,
          "value": 0.464999974
        },
        {
          "id": 6,
          "value": -0.377999961
        },
        {
          "id": 7,
          "value": -0.516000152
        },
        {
          "id": 8,
          "value": -0.246000051
        },
        {
          "id": 9,
          "value": 0.318000019
        },
        {
          "id": 10,
          "value": -0.162000015
        }
      ],
      "leftModuleId": 294,
      "rightModuleId": 293,
      "data": {
        "poly_input": 0,
        "select_on_clock": false,
        "triggered_select": false,
        "reverse_on_negative_clock": false,
        "range_offset": 0.0,
        "range_scale": 1.0
      },
      "pos": [
        30,
        1
      ]
    },
    {
      "id": 293,
      "plugin": "Bogaudio",
      "version": "1.1.34",
      "model": "Bogaudio-AddrSeq",
      "params": [
        {
          "id": 0,
          "value": 5.0
        },
        {
          "id": 1,
          "value": 1.0
        },
        {
          "id": 2,
          "value": 0.0
        },
        {
          "id": 3,
          "value": -0.525000036
        },
        {
          "id": 4,
          "value": 0.357000023
        },
        {
          "id": 5,
          "value": -0.135000005
        },
        {
          "id": 6,
          "value": 0.452999949
        },
        {
          "id": 7,
          "value": -0.998999953
        },
        {
          "id": 8,
          "value": 0.0
        },
        {
          "id": 9,
          "value": 0.0
        },
        {
          "id": 10,
          "value": 0.0
        }
      ],
      "leftModuleId": 292,
      "data": {
        "poly_input": 0,
        "select_on_clock": false,
        "triggered_select": false,
        "reverse_on_negative_clock": false,
        "range_offset": 0.0,
        "range_scale": 1.0
      },
      "pos": [
        36,
        1
      ]
    },
    {
      "id": 294,
      "plugin": "Bogaudio",
      "version": "1.1.34",
      "model": "Bogaudio-AddrSeq",
      "params": [
        {
          "id": 0,
          "value": 7.0
        },
        {
          "id": 1,
          "value": 1.0
        },
        {
          "id": 2,
          "value": 0.0
        },
        {
          "id": 3,
          "value": -0.282000035
        },
        {
          "id": 4,
          "value": 0.236999989
        },
        {
          "id": 5,
          "value": 0.411000013
        },
        {
          "id": 6,
          "value": -0.447000057
        },
        {
          "id": 7,
          "value": 0.34799999
        },
        {
          "id": 8,
          "value": -0.384000093
        },
        {
          "id": 9,
          "value": 0.0
        },
        {
          "id": 10,
          "value": 0.0
        }
      ],
      "rightModuleId": 292,
      "data": {
        "poly_input": 0,
        "select_on_clock": false,
        "triggered_select": false,
        "reverse_on_negative_clock": false,
        "range_offset": 0.0,
        "range_scale": 1.0
      },
      "pos": [
        24,
        1
      ]
    },
    {
      "id": 296,
      "plugin": "HetrickCV",
      "version": "1.0.0",
      "model": "Comparator",
      "params": [
        {
          "id": 0,
          "value": 0.0
        },
        {
          "id": 1,
          "value": 1.0
        }
      ],
      "rightModuleId": 301,
      "pos": [
        57,
        1
      ]
    },
    {
      "id": 297,
      "plugin": "ML_modules",
      "version": "1.1.2",
      "model": "Quantum",
      "params": [
        {
          "id": 0,
          "value": 0.0
        },
        {
          "id": 1,
          "value": 0.0
        },
        {
          "id": 2,
          "value": 0.0
        },
        {
          "id": 3,
          "value": 0.0
        },
        {
          "id": 4,
          "value": 0.0
        },
        {
          "id": 5,
          "value": 0.0
        },
        {
          "id": 6,
          "value": 0.0
        },
        {
          "id": 7,
          "value": 0.0
        },
        {
          "id": 8,
          "value": 0.0
        },
        {
          "id": 9,
          "value": 0.0
        },
        {
          "id": 10,
          "value": 0.0
        },
        {
          "id": 11,
          "value": 0.0
        }
      ],
      "data": {
        "scale": [
          0,
          0,
          1,
          0,
          0,
          1,
          0,
          0,
          1,
          0,
          0,
          1
        ],
        "mode": 1,
        "transpose_select": 1,
        "toggle_mode": 0
      },
      "pos": [
        47,
        1
      ]
    },
    {
      "id": 298,
      "plugin": "LifeFormModular",
      "version": "1.1",
      "model": "AdditiveVibration",
      "params": [
        {
          "id": 0,
          "value": 7.0
        },
        {
          "id": 1,
          "value": 0.598400116
        },
        {
          "id": 2,
          "value": 0.607999206
        },
        {
          "id": 3,
          "value": 1.0
        },
        {
          "id": 4,
          "value": 1.0
        },
        {
          "id": 5,
          "value": 1.0
        },
        {
          "id": 6,
          "value": 0.0
        },
        {
          "id": 7,
          "value": 0.0
        },
        {
          "id": 8,
          "value": 0.0
        },
        {
          "id": 9,
          "value": 0.0
        },
        {
          "id": 10,
          "value": 0.0
        },
        {
          "id": 11,
          "value": 0.168000132
        },
        {
          "id": 12,
          "value": 0.0
        },
        {
          "id": 13,
          "value": 0.072000064
        },
        {
          "id": 14,
          "value": 0.420000166
        },
        {
          "id": 15,
          "value": 0.395999998
        },
        {
          "id": 16,
          "value": 0.0
        },
        {
          "id": 17,
          "value": 0.0
        },
        {
          "id": 18,
          "value": 0.0
        },
        {
          "id": 19,
          "value": 0.0
        },
        {
          "id": 20,
          "value": 0.519500017
        },
        {
          "id": 21,
          "value": 0.0
        },
        {
          "id": 22,
          "value": 0.0
        },
        {
          "id": 23,
          "value": 0.0
        }
      ],
      "leftModuleId": 301,
      "rightModuleId": 311,
      "pos": [
        66,
        1
      ]
    },
    {
      "id": 299,
      "plugin": "ImpromptuModular",
      "version": "1.1.9",
      "model": "Clocked",
      "params": [
        {
          "id": 0,
          "value": 120.0
        },
        {
          "id": 1,
          "value": 5.0
        },
        {
          "id": 2,
          "value": 0.0
        },
        {
          "id": 3,
          "value": 0.0
        },
        {
          "id": 4,
          "value": 0.0
        },
        {
          "id": 5,
          "value": 0.0
        },
        {
          "id": 6,
          "value": 0.0
        },
        {
          "id": 7,
          "value": 0.0
        },
        {
          "id": 8,
          "value": 0.5
        },
        {
          "id": 9,
          "value": 0.5
        },
        {
          "id": 10,
          "value": 0.5
        },
        {
          "id": 11,
          "value": 0.5
        },
        {
          "id": 12,
          "value": 0.0
        },
        {
          "id": 13,
          "value": 0.0
        },
        {
          "id": 14,
          "value": 0.0
        },
        {
          "id": 15,
          "value": 0.0
        },
        {
          "id": 16,
          "value": 0.0
        },
        {
          "id": 17,
          "value": 0.0
        },
        {
          "id": 18,
          "value": 0.0
        },
        {
          "id": 19,
          "value": 0.0
        }
      ],
      "rightModuleId": 13,
      "data": {
        "panelTheme": 1,
        "running": true,
        "displayDelayNoteMode": true,
        "bpmDetectionMode": false,
        "resetOnStartStop": 0,
        "ppqn": 4,
        "resetClockOutputsHigh": true,
        "momentaryRunInput": true,
        "clockMaster": false
      },
      "pos": [
        0,
        0
      ]
    },
    {
      "id": 300,
      "plugin": "Fundamental",
      "version": "1.4.0",
      "model": "SequentialSwitch2",
      "params": [
        {
          "id": 0,
          "value": 1.0
        }
      ],
      "pos": [
        43,
        1
      ]
    },
    {
      "id": 301,
      "plugin": "Bogaudio",
      "version": "1.1.34",
      "model": "Bogaudio-LLFO",
      "params": [
        {
          "id": 0,
          "value": 0.0
        },
        {
          "id": 1,
          "value": 1.0
        },
        {
          "id": 2,
          "value": 0.0
        },
        {
          "id": 3,
          "value": 0.0
        },
        {
          "id": 4,
          "value": 0.0494999886
        }
      ],
      "leftModuleId": 296,
      "rightModuleId": 298,
      "data": {},
      "pos": [
        63,
        1
      ]
    },
    {
      "id": 303,
      "plugin": "Core",
      "version": "1.1.6",
      "model": "Notes",
      "params": [],
      "text": "based on\n\nOmri Cohen: \nWhat are comparators and a few ways of using them\n\nhttps://www.youtube.com/watch?v=icnTFlM6rCE&list=PLiECaNQx239tD6qSspeLhMKvhdUK1TE4U\n\n05:06 - Creating interesting sequences\n",
      "pos": [
        4,
        1
      ]
    },
    {
      "id": 304,
      "plugin": "LifeFormModular",
      "version": "1.1",
      "model": "PercussiveVibration",
      "params": [
        {
          "id": 0,
          "value": 7.0
        },
        {
          "id": 1,
          "value": 0.0
        },
        {
          "id": 2,
          "value": 0.0
        },
        {
          "id": 3,
          "value": 1.0
        },
        {
          "id": 4,
          "value": 0.489000171
        },
        {
          "id": 5,
          "value": 0.0
        },
        {
          "id": 6,
          "value": 0.5
        },
        {
          "id": 7,
          "value": 0.0
        },
        {
          "id": 8,
          "value": 0.0
        },
        {
          "id": 9,
          "value": 0.0
        },
        {
          "id": 10,
          "value": 0.0
        },
        {
          "id": 11,
          "value": 0.0
        },
        {
          "id": 12,
          "value": 0.0
        },
        {
          "id": 13,
          "value": 0.0
        },
        {
          "id": 14,
          "value": 0.270000041
        },
        {
          "id": 15,
          "value": 0.0
        },
        {
          "id": 16,
          "value": 0.0
        },
        {
          "id": 17,
          "value": 0.0
        },
        {
          "id": 18,
          "value": 0.0
        },
        {
          "id": 19,
          "value": 0.0
        },
        {
          "id": 20,
          "value": 0.373500168
        },
        {
          "id": 21,
          "value": 0.0
        },
        {
          "id": 22,
          "value": 0.0
        },
        {
          "id": 23,
          "value": 0.0
        },
        {
          "id": 24,
          "value": 0.0
        },
        {
          "id": 25,
          "value": 0.240000069
        }
      ],
      "leftModuleId": 306,
      "rightModuleId": 307,
      "pos": [
        24,
        2
      ]
    },
    {
      "id": 305,
      "plugin": "ML_modules",
      "version": "1.1.2",
      "model": "Quantum",
      "params": [
        {
          "id": 0,
          "value": 0.0
        },
        {
          "id": 1,
          "value": 0.0
        },
        {
          "id": 2,
          "value": 0.0
        },
        {
          "id": 3,
          "value": 0.0
        },
        {
          "id": 4,
          "value": 0.0
        },
        {
          "id": 5,
          "value": 0.0
        },
        {
          "id": 6,
          "value": 0.0
        },
        {
          "id": 7,
          "value": 0.0
        },
        {
          "id": 8,
          "value": 0.0
        },
        {
          "id": 9,
          "value": 0.0
        },
        {
          "id": 10,
          "value": 0.0
        },
        {
          "id": 11,
          "value": 0.0
        }
      ],
      "rightModuleId": 306,
      "data": {
        "scale": [
          0,
          0,
          1,
          0,
          0,
          1,
          0,
          0,
          1,
          0,
          0,
          1
        ],
        "mode": 1,
        "transpose_select": 1,
        "toggle_mode": 0
      },
      "pos": [
        13,
        2
      ]
    },
    {
      "id": 306,
      "plugin": "Bogaudio",
      "version": "1.1.34",
      "model": "Bogaudio-SampleHold",
      "params": [
        {
          "id": 0,
          "value": 0.0
        },
        {
          "id": 1,
          "value": 0.0
        },
        {
          "id": 2,
          "value": 0.0
        },
        {
          "id": 3,
          "value": 0.0
        },
        {
          "id": 4,
          "value": 0.0
        },
        {
          "id": 5,
          "value": 0.0
        }
      ],
      "leftModuleId": 305,
      "rightModuleId": 304,
      "data": {
        "poly_input": 0,
        "noise_type": 0,
        "range_offset": 1.0,
        "range_scale": 5.0
      },
      "pos": [
        21,
        2
      ]
    },
    {
      "id": 307,
      "plugin": "AudibleInstruments",
      "version": "1.3.1",
      "model": "Plaits",
      "params": [
        {
          "id": 0,
          "value": 0.0
        },
        {
          "id": 1,
          "value": 0.0
        },
        {
          "id": 2,
          "value": -1.50000048
        },
        {
          "id": 3,
          "value": 0.616999805
        },
        {
          "id": 4,
          "value": 1.0
        },
        {
          "id": 5,
          "value": 0.385999948
        },
        {
          "id": 6,
          "value": 0.0
        },
        {
          "id": 7,
          "value": 0.0
        },
        {
          "id": 8,
          "value": 0.0
        },
        {
          "id": 9,
          "value": 0.5
        },
        {
          "id": 10,
          "value": 0.5
        }
      ],
      "leftModuleId": 304,
      "rightModuleId": 308,
      "data": {
        "lowCpu": false,
        "model": 13
      },
      "pos": [
        52,
        2
      ]
    },
    {
      "id": 308,
      "plugin": "JW-Modules",
      "version": "1.0.15",
      "model": "NoteSeq16",
      "params": [
        {
          "id": 0,
          "value": 16.0
        },
        {
          "id": 1,
          "value": 0.0
        },
        {
          "id": 2,
          "value": 0.0
        },
        {
          "id": 3,
          "value": 0.0
        },
        {
          "id": 4,
          "value": 0.100000001
        },
        {
          "id": 5,
          "value": 11.0
        },
        {
          "id": 6,
          "value": 0.0
        },
        {
          "id": 7,
          "value": 0.0
        },
        {
          "id": 8,
          "value": 0.0
        },
        {
          "id": 9,
          "value": 0.0
        }
      ],
      "leftModuleId": 307,
      "rightModuleId": 310,
      "data": {
        "channels": 1,
        "cells": [
          0,
          0,
          1,
          0,
          0,
          0,
          0,
          1,
          0,
          0,
          0,
          0,
          0,
          0,
          1,
          0,
          0,
          0,
          0,
          0,
          1,
          0,
          0,
          0,
          0,
          0,
          1,
          0,
          0,
          0,
          0,
          0,
          0,
          0,
          1,
          0,
          0,
          0,
          0,
          0,
          0,
          0,
          0,
          0,
          1,
          0,
          0,
          0,
          0,
          0,
          0,
          1,
          0,
          0,
          0,
          0,
          0,
          0,
          0,
          0,
          1,
          0,
          0,
          0,
          0,
          0,
          0,
          0,
          0,
          0,
          0,
          0,
          1,
          0,
          0,
          0,
          1,
          1,
          0,
          0,
          0,
          0,
          0,
          0,
          0,
          0,
          1,
          0,
          0,
          0,
          0,
          0,
          0,
          0,
          0,
          0,
          0,
          1,
          0,
          0,
          0,
          0,
          0,
          1,
          0,
          0,
          0,
          0,
          0,
          0,
          0,
          0,
          0,
          0,
          0,
          0,
          0,
          0,
          0,
          0,
          0,
          0,
          1,
          0,
          0,
          0,
          0,
          0,
          0,
          0,
          1,
          0,
          0,
          0,
          0,
          0,
          0,
          0,
          0,
          0,
          1,
          0,
          0,
          0,
          1,
          0,
          1,
          0,
          0,
          0,
          0,
          0,
          0,
          1,
          0,
          0,
          0,
          0,
          0,
          0,
          0,
          0,
          0,
          0,
          0,
          0,
          0,
          0,
          0,
          0,
          0,
          0,
          1,
          0,
          0,
          0,
          0,
          0,
          0,
          0,
          0,
          0,
          1,
          0,
          0,
          0,
          0,
          0,
          0,
          0,
          0,
          0,
          0,
          0,
          0,
          0,
          0,
          0,
          0,
          0,
          0,
          0,
          0,
          1,
          0,
          0,
          0,
          0,
          0,
          0,
          0,
          1,
          0,
          0,
          0,
          0,
          0,
          0,
          0,
          1,
          0,
          0,
          1,
          1,
          0,
          0,
          0,
          0,
          0,
          0,
          0,
          0,
          1,
          0,
          0,
          0,
          0,
          0,
          1,
          0,
          0,
          0,
          1,
          0,
          1,
          0,
          0,
          1,
          0,
          0,
          0,
          0,
          0,
          1,
          0,
          0
        ]
      },
      "pos": [
        64,
        2
      ]
    },
    {
      "id": 309,
      "plugin": "Valley",
      "version": "1.1.3",
      "model": "Terrorform",
      "params": [
        {
          "id": 0,
          "value": 0.0
        },
        {
          "id": 1,
          "value": 0.0
        },
        {
          "id": 2,
          "value": 0.0
        },
        {
          "id": 3,
          "value": 0.0
        },
        {
          "id": 4,
          "value": 0.145500317
        },
        {
          "id": 5,
          "value": 4.0
        },
        {
          "id": 6,
          "value": 0.0
        },
        {
          "id": 7,
          "value": 5.0
        },
        {
          "id": 8,
          "value": 0.232500076
        },
        {
          "id": 9,
          "value": 0.0
        },
        {
          "id": 10,
          "value": 0.402500778
        },
        {
          "id": 11,
          "value": 0.0
        },
        {
          "id": 12,
          "value": 0.0
        },
        {
          "id": 13,
          "value": 0.0
        },
        {
          "id": 14,
          "value": 1.0
        },
        {
          "id": 15,
          "value": 1.0
        },
        {
          "id": 16,
          "value": 0.0
        },
        {
          "id": 17,
          "value": 0.0
        },
        {
          "id": 18,
          "value": 0.0
        },
        {
          "id": 19,
          "value": 0.225000009
        },
        {
          "id": 20,
          "value": 0.333000064
        },
        {
          "id": 21,
          "value": 0.0
        },
        {
          "id": 22,
          "value": 0.0
        },
        {
          "id": 23,
          "value": 0.29400003
        },
        {
          "id": 24,
          "value": 0.0
        },
        {
          "id": 25,
          "value": 0.0
        },
        {
          "id": 26,
          "value": 0.0
        },
        {
          "id": 27,
          "value": 0.0
        },
        {
          "id": 28,
          "value": 0.0
        },
        {
          "id": 29,
          "value": 0.0
        },
        {
          "id": 30,
          "value": 0.0
        },
        {
          "id": 31,
          "value": 0.0929999799
        },
        {
          "id": 32,
          "value": 0.902999997
        },
        {
          "id": 33,
          "value": 0.752999842
        },
        {
          "id": 34,
          "value": 0.733500183
        },
        {
          "id": 35,
          "value": 0.0
        },
        {
          "id": 36,
          "value": 0.0
        },
        {
          "id": 37,
          "value": 0.0
        },
        {
          "id": 38,
          "value": 0.0
        },
        {
          "id": 39,
          "value": 1.0
        },
        {
          "id": 40,
          "value": 0.0
        },
        {
          "id": 41,
          "value": 0.0
        },
        {
          "id": 42,
          "value": 0.0
        },
        {
          "id": 43,
          "value": 0.0
        },
        {
          "id": 44,
          "value": 0.0
        },
        {
          "id": 45,
          "value": 0.0
        },
        {
          "id": 46,
          "value": 0.0
        },
        {
          "id": 47,
          "value": 0.0
        },
        {
          "id": 48,
          "value": 0.0
        },
        {
          "id": 49,
          "value": 0.0
        },
        {
          "id": 50,
          "value": 1.0
        }
      ],
      "data": {
        "version": 113,
        "panelStyle": 0,
        "displayStyle": 0,
        "lpgMode": 1,
        "syncChoice": 0,
        "reduceOutputLevel": 0,
        "spreadActive": 0,
        "numVoices": 0,
        "userWaves": []
      },
      "pos": [
        81,
        2
      ]
    },
    {
      "id": 310,
      "plugin": "Bogaudio",
      "version": "1.1.34",
      "model": "Bogaudio-SampleHold",
      "params": [
        {
          "id": 0,
          "value": 0.0
        },
        {
          "id": 1,
          "value": 0.0
        },
        {
          "id": 2,
          "value": 0.0
        },
        {
          "id": 3,
          "value": 0.0
        },
        {
          "id": 4,
          "value": 0.0
        },
        {
          "id": 5,
          "value": 0.0
        }
      ],
      "leftModuleId": 308,
      "data": {
        "poly_input": 0,
        "noise_type": 0,
        "range_offset": 1.0,
        "range_scale": 5.0
      },
      "pos": [
        77,
        2
      ]
    },
    {
      "id": 311,
      "plugin": "Hora-treasureFree",
      "version": "1.0.2",
      "model": "HiHat",
      "params": [
        {
          "id": 0,
          "value": 0.483199716
        },
        {
          "id": 1,
          "value": 0.651450515
        },
        {
          "id": 2,
          "value": 0.730440021
        },
        {
          "id": 3,
          "value": 0.0
        },
        {
          "id": 4,
          "value": 0.0
        },
        {
          "id": 5,
          "value": 0.0
        },
        {
          "id": 6,
          "value": 1.25049996
        },
        {
          "id": 7,
          "value": 0.800000012
        },
        {
          "id": 8,
          "value": 0.800000012
        },
        {
          "id": 9,
          "value": 0.574750304
        },
        {
          "id": 10,
          "value": 0.326799929
        },
        {
          "id": 11,
          "value": 0.587499917
        }
      ],
      "leftModuleId": 298,
      "pos": [
        94,
        1
      ]
    }
  ],
  "cables": [
    {
      "id": 16,
      "outputModuleId": 13,
      "outputId": 2,
      "inputModuleId": 11,
      "inputId": 0,
      "color": "#c91847"
    },
    {
      "id": 17,
      "outputModuleId": 13,
      "outputId": 3,
      "inputModuleId": 11,
      "inputId": 1,
      "color": "#0986ad"
    },
    {
      "id": 18,
      "outputModuleId": 14,
      "outputId": 0,
      "inputModuleId": 12,
      "inputId": 0,
      "color": "#c9b70e"
    },
    {
      "id": 19,
      "outputModuleId": 14,
      "outputId": 4,
      "inputModuleId": 12,
      "inputId": 1,
      "color": "#0c8e15"
    },
    {
      "id": 20,
      "outputModuleId": 12,
      "outputId": 0,
      "inputModuleId": 14,
      "inputId": 0,
      "color": "#c91847"
    },
    {
      "id": 21,
      "outputModuleId": 12,
      "outputId": 1,
      "inputModuleId": 14,
      "inputId": 1,
      "color": "#0986ad"
    },
    {
      "id": 131,
      "outputModuleId": 299,
      "outputId": 1,
      "inputModuleId": 294,
      "inputId": 0,
      "color": "#c91847"
    },
    {
      "id": 132,
      "outputModuleId": 299,
      "outputId": 1,
      "inputModuleId": 292,
      "inputId": 0,
      "color": "#c91847"
    },
    {
      "id": 133,
      "outputModuleId": 299,
      "outputId": 1,
      "inputModuleId": 293,
      "inputId": 0,
      "color": "#c91847"
    },
    {
      "id": 135,
      "outputModuleId": 297,
      "outputId": 0,
      "inputModuleId": 298,
      "inputId": 0,
      "color": "#c9b70e"
    },
    {
      "id": 136,
      "outputModuleId": 298,
      "outputId": 2,
      "inputModuleId": 13,
      "inputId": 0,
      "color": "#0c8e15"
    },
    {
      "id": 140,
      "outputModuleId": 294,
      "outputId": 0,
      "inputModuleId": 300,
      "inputId": 2,
      "color": "#0986ad"
    },
    {
      "id": 141,
      "outputModuleId": 292,
      "outputId": 0,
      "inputModuleId": 300,
      "inputId": 3,
      "color": "#0986ad"
    },
    {
      "id": 142,
      "outputModuleId": 293,
      "outputId": 0,
      "inputModuleId": 300,
      "inputId": 4,
      "color": "#0986ad"
    },
    {
      "id": 143,
      "outputModuleId": 300,
      "outputId": 0,
      "inputModuleId": 296,
      "inputId": 0,
      "color": "#c9b70e"
    },
    {
      "id": 144,
      "outputModuleId": 296,
      "outputId": 4,
      "inputModuleId": 300,
      "inputId": 0,
      "color": "#0c8e15"
    },
    {
      "id": 146,
      "outputModuleId": 299,
      "outputId": 4,
      "inputModuleId": 300,
      "inputId": 1,
      "color": "#0986ad"
    },
    {
      "id": 147,
      "outputModuleId": 299,
      "outputId": 4,
      "inputModuleId": 294,
      "inputId": 1,
      "color": "#0986ad"
    },
    {
      "id": 148,
      "outputModuleId": 299,
      "outputId": 4,
      "inputModuleId": 292,
      "inputId": 1,
      "color": "#0986ad"
    },
    {
      "id": 149,
      "outputModuleId": 299,
      "outputId": 4,
      "inputModuleId": 293,
      "inputId": 1,
      "color": "#0986ad"
    },
    {
      "id": 145,
      "outputModuleId": 300,
      "outputId": 0,
      "inputModuleId": 297,
      "inputId": 0,
      "color": "#c91847"
    },
    {
      "id": 150,
      "outputModuleId": 301,
      "outputId": 0,
      "inputModuleId": 296,
      "inputId": 1,
      "color": "#c9b70e"
    },
    {
      "id": 151,
      "outputModuleId": 297,
      "outputId": 1,
      "inputModuleId": 298,
      "inputId": 11,
      "color": "#0c8e15"
    },
    {
      "id": 152,
      "outputModuleId": 296,
      "outputId": 0,
      "inputModuleId": 298,
      "inputId": 8,
      "color": "#c91847"
    },
    {
      "id": 153,
      "outputModuleId": 296,
      "outputId": 2,
      "inputModuleId": 298,
      "inputId": 9,
      "color": "#0986ad"
    },
    {
      "id": 155,
      "outputModuleId": 296,
      "outputId": 3,
      "inputModuleId": 298,
      "inputId": 1,
      "color": "#0c8e15"
    },
    {
      "id": 156,
      "outputModuleId": 296,
      "outputId": 1,
      "inputModuleId": 298,
      "inputId": 2,
      "color": "#0c8e15"
    },
    {
      "id": 157,
      "outputModuleId": 299,
      "outputId": 4,
      "inputModuleId": 301,
      "inputId": 1,
      "color": "#0986ad"
    },
    {
      "id": 158,
      "outputModuleId": 294,
      "outputId": 0,
      "inputModuleId": 305,
      "inputId": 0,
      "color": "#c9b70e"
    },
    {
      "id": 159,
      "outputModuleId": 305,
      "outputId": 0,
      "inputModuleId": 304,
      "inputId": 1,
      "color": "#0c8e15"
    },
    {
      "id": 161,
      "outputModuleId": 305,
      "outputId": 1,
      "inputModuleId": 304,
      "inputId": 7,
      "color": "#0986ad"
    },
    {
      "id": 162,
      "outputModuleId": 305,
      "outputId": 1,
      "inputModuleId": 306,
      "inputId": 0,
      "color": "#0986ad"
    },
    {
      "id": 163,
      "outputModuleId": 306,
      "outputId": 1,
      "inputModuleId": 304,
      "inputId": 9,
      "color": "#c9b70e"
    },
    {
      "id": 164,
      "outputModuleId": 304,
      "outputId": 1,
      "inputModuleId": 13,
      "inputId": 2,
      "color": "#0c8e15"
    },
    {
      "id": 166,
      "outputModuleId": 306,
      "outputId": 0,
      "inputModuleId": 304,
      "inputId": 4,
      "color": "#c9b70e"
    },
    {
      "id": 167,
      "outputModuleId": 296,
      "outputId": 0,
      "inputModuleId": 307,
      "inputId": 5,
      "color": "#0c8e15"
    },
    {
      "id": 168,
      "outputModuleId": 307,
      "outputId": 0,
      "inputModuleId": 13,
      "inputId": 4,
      "color": "#c91847"
    },
    {
      "id": 170,
      "outputModuleId": 308,
      "outputId": 1,
      "inputModuleId": 309,
      "inputId": 26,
      "color": "#0986ad"
    },
    {
      "id": 171,
      "outputModuleId": 309,
      "outputId": 7,
      "inputModuleId": 13,
      "inputId": 6,
      "color": "#c9b70e"
    },
    {
      "id": 169,
      "outputModuleId": 308,
      "outputId": 0,
      "inputModuleId": 309,
      "inputId": 0,
      "color": "#0986ad"
    },
    {
      "id": 172,
      "outputModuleId": 296,
      "outputId": 2,
      "inputModuleId": 308,
      "inputId": 0,
      "color": "#0c8e15"
    },
    {
      "id": 173,
      "outputModuleId": 299,
      "outputId": 1,
      "inputModuleId": 310,
      "inputId": 0,
      "color": "#c91847"
    },
    {
      "id": 174,
      "outputModuleId": 310,
      "outputId": 1,
      "inputModuleId": 309,
      "inputId": 5,
      "color": "#0986ad"
    },
    {
      "id": 175,
      "outputModuleId": 310,
      "outputId": 0,
      "inputModuleId": 309,
      "inputId": 9,
      "color": "#0986ad"
    },
    {
      "id": 176,
      "outputModuleId": 310,
      "outputId": 1,
      "inputModuleId": 309,
      "inputId": 25,
      "color": "#c9b70e"
    },
    {
      "id": 178,
      "outputModuleId": 299,
      "outputId": 0,
      "inputModuleId": 311,
      "inputId": 1,
      "color": "#0986ad"
    },
    {
      "id": 179,
      "outputModuleId": 299,
      "outputId": 1,
      "inputModuleId": 311,
      "inputId": 0,
      "color": "#0986ad"
    },
    {
      "id": 180,
      "outputModuleId": 311,
      "outputId": 2,
      "inputModuleId": 13,
      "inputId": 8,
      "color": "#c9b70e"
    },
    {
      "id": 182,
      "outputModuleId": 299,
      "outputId": 4,
      "inputModuleId": 308,
      "inputId": 1,
      "color": "#0986ad"
    },
    {
      "id": 183,
      "outputModuleId": 294,
      "outputId": 0,
      "inputModuleId": 309,
      "inputId": 15,
      "color": "#c9b70e"
    },
    {
      "id": 184,
      "outputModuleId": 292,
      "outputId": 0,
      "inputModuleId": 309,
      "inputId": 16,
      "color": "#c9b70e"
    },
    {
      "id": 185,
      "outputModuleId": 305,
      "outputId": 1,
      "inputModuleId": 309,
      "inputId": 14,
      "color": "#0c8e15"
    },
    {
      "id": 186,
      "outputModuleId": 300,
      "outputId": 0,
      "inputModuleId": 309,
      "inputId": 6,
      "color": "#c91847"
    }
  ]
}