{
  "version": "1.1.6",
  "modules": [
    {
      "id": 11,
      "plugin": "Core",
      "version": "1.1.6",
      "model": "AudioInterface",
      "params": [],
      "leftModuleId": 12,
      "data": {
        "audio": {
          "driver": 4,
          "deviceName": "system",
          "offset": 0,
          "maxChannels": 8,
          "sampleRate": 44100,
          "blockSize": 2048
        }
      },
      "pos": [
        78,
        0
      ]
    },
    {
      "id": 12,
      "plugin": "Valley",
      "version": "1.0.1",
      "model": "Plateau",
      "params": [
        {
          "id": 0,
          "value": 1.0
        },
        {
          "id": 1,
          "value": 0.5
        },
        {
          "id": 2,
          "value": 0.0
        },
        {
          "id": 3,
          "value": 10.0
        },
        {
          "id": 4,
          "value": 10.0
        },
        {
          "id": 5,
          "value": 0.5
        },
        {
          "id": 6,
          "value": 10.0
        },
        {
          "id": 7,
          "value": 0.549950004
        },
        {
          "id": 8,
          "value": 10.0
        },
        {
          "id": 9,
          "value": 10.0
        },
        {
          "id": 10,
          "value": 0.0
        },
        {
          "id": 11,
          "value": 0.5
        },
        {
          "id": 12,
          "value": 0.5
        },
        {
          "id": 13,
          "value": 0.0
        },
        {
          "id": 14,
          "value": 0.0
        },
        {
          "id": 15,
          "value": 0.0
        },
        {
          "id": 16,
          "value": 0.0
        },
        {
          "id": 17,
          "value": 0.0
        },
        {
          "id": 18,
          "value": 0.0
        },
        {
          "id": 19,
          "value": 0.0
        },
        {
          "id": 20,
          "value": 0.0
        },
        {
          "id": 21,
          "value": 0.0
        },
        {
          "id": 22,
          "value": 0.0
        },
        {
          "id": 23,
          "value": 0.0
        },
        {
          "id": 24,
          "value": 0.0
        },
        {
          "id": 25,
          "value": 0.0
        },
        {
          "id": 26,
          "value": 0.0
        },
        {
          "id": 27,
          "value": 0.0
        },
        {
          "id": 28,
          "value": 0.0
        },
        {
          "id": 29,
          "value": 0.0
        },
        {
          "id": 30,
          "value": 1.0
        }
      ],
      "leftModuleId": 14,
      "rightModuleId": 11,
      "data": {
        "frozen": false,
        "freezeToggle": false,
        "panelStyle": 0,
        "tuned": 0,
        "diffuseInput": 1,
        "preDelayCVSens": 0,
        "inputSensitivity": 0,
        "outputSaturation": 0
      },
      "pos": [
        66,
        0
      ]
    },
    {
      "id": 13,
      "plugin": "MindMeldModular",
      "version": "1.1.9",
      "model": "MixMasterJr",
      "params": [
        {
          "id": 0,
          "value": 0.92818439
        },
        {
          "id": 1,
          "value": 0.935743928
        },
        {
          "id": 2,
          "value": 0.916845083
        },
        {
          "id": 3,
          "value": 0.920624852
        },
        {
          "id": 4,
          "value": 0.909285545
        },
        {
          "id": 5,
          "value": 1.0
        },
        {
          "id": 6,
          "value": 1.0
        },
        {
          "id": 7,
          "value": 1.0
        },
        {
          "id": 8,
          "value": 1.0
        },
        {
          "id": 9,
          "value": 1.0
        },
        {
          "id": 10,
          "value": 0.5
        },
        {
          "id": 11,
          "value": 0.5
        },
        {
          "id": 12,
          "value": 0.5
        },
        {
          "id": 13,
          "value": 0.5
        },
        {
          "id": 14,
          "value": 0.5
        },
        {
          "id": 15,
          "value": 0.5
        },
        {
          "id": 16,
          "value": 0.5
        },
        {
          "id": 17,
          "value": 0.5
        },
        {
          "id": 18,
          "value": 0.5
        },
        {
          "id": 19,
          "value": 0.5
        },
        {
          "id": 20,
          "value": 0.0
        },
        {
          "id": 21,
          "value": 0.0
        },
        {
          "id": 22,
          "value": 0.0
        },
        {
          "id": 23,
          "value": 0.0
        },
        {
          "id": 24,
          "value": 0.0
        },
        {
          "id": 25,
          "value": 0.0
        },
        {
          "id": 26,
          "value": 0.0
        },
        {
          "id": 27,
          "value": 0.0
        },
        {
          "id": 28,
          "value": 0.0
        },
        {
          "id": 29,
          "value": 0.0
        },
        {
          "id": 30,
          "value": 0.0
        },
        {
          "id": 31,
          "value": 0.0
        },
        {
          "id": 32,
          "value": 0.0
        },
        {
          "id": 33,
          "value": 0.0
        },
        {
          "id": 34,
          "value": 0.0
        },
        {
          "id": 35,
          "value": 0.0
        },
        {
          "id": 36,
          "value": 0.0
        },
        {
          "id": 37,
          "value": 0.0
        },
        {
          "id": 38,
          "value": 0.0
        },
        {
          "id": 39,
          "value": 0.0
        },
        {
          "id": 40,
          "value": 0.0
        },
        {
          "id": 41,
          "value": 0.0
        },
        {
          "id": 42,
          "value": 0.0
        },
        {
          "id": 43,
          "value": 0.765654266
        },
        {
          "id": 44,
          "value": 0.0
        },
        {
          "id": 45,
          "value": 0.0
        },
        {
          "id": 46,
          "value": 0.0
        },
        {
          "id": 47,
          "value": 0.0
        },
        {
          "id": 48,
          "value": 0.0
        },
        {
          "id": 49,
          "value": 0.0
        },
        {
          "id": 50,
          "value": 0.0
        },
        {
          "id": 51,
          "value": 0.0
        },
        {
          "id": 52,
          "value": 13.0
        },
        {
          "id": 53,
          "value": 13.0
        },
        {
          "id": 54,
          "value": 13.0
        },
        {
          "id": 55,
          "value": 13.0
        },
        {
          "id": 56,
          "value": 13.0
        },
        {
          "id": 57,
          "value": 13.0
        },
        {
          "id": 58,
          "value": 13.0
        },
        {
          "id": 59,
          "value": 13.0
        },
        {
          "id": 60,
          "value": 20010.0
        },
        {
          "id": 61,
          "value": 20010.0
        },
        {
          "id": 62,
          "value": 20010.0
        },
        {
          "id": 63,
          "value": 20010.0
        },
        {
          "id": 64,
          "value": 20010.0
        },
        {
          "id": 65,
          "value": 20010.0
        },
        {
          "id": 66,
          "value": 20010.0
        },
        {
          "id": 67,
          "value": 20010.0
        },
        {
          "id": 68,
          "value": 13.0
        },
        {
          "id": 69,
          "value": 13.0
        },
        {
          "id": 70,
          "value": 20010.0
        },
        {
          "id": 71,
          "value": 20010.0
        }
      ],
      "rightModuleId": 14,
      "data": {
        "trackLabels": "-01--02--03--04--05--06--07--08-GRP1GRP2",
        "panLawMono": 1,
        "panLawStereo": 1,
        "directOutsMode": 3,
        "directOutsSkipGroupedTracks": 0,
        "auxSendsMode": 3,
        "groupsControlTrackSendLevels": 0,
        "auxReturnsMutedWhenMainSolo": 0,
        "auxReturnsSolosMuteDry": 0,
        "chainMode": 1,
        "colorAndCloak": 117440512,
        "symmetricalFade": false,
        "fadeCvOutsWithVolCv": false,
        "linkBitMask": 0,
        "filterPos": 1,
        "groupedAuxReturnFeedbackProtection": 1,
        "ecoMode": 65535,
        "faders": [
          0.92818439,
          0.935743928,
          0.916845083,
          0.920624852,
          0.909285545,
          1.0,
          1.0,
          1.0,
          1.0,
          1.0
        ],
        "momentaryCvButtons": 1,
        "masterFaderScalesSends": 0,
        "linearVolCvInputs": 0,
        "id_t0_gainAdjust": 1.0,
        "id_t0_fadeRate": 0.0,
        "id_t0_fadeProfile": 0.0,
        "id_t0_directOutsMode": 3,
        "id_t0_auxSendsMode": 3,
        "id_t0_panLawStereo": 1,
        "id_t0_vuColorThemeLocal": 0,
        "id_t0_filterPos": 1,
        "id_t0_dispColorLocal": 0,
        "id_t0_polyStereo": 0,
        "id_t0_panCvLevel": 1.0,
        "id_t0_stereoWidth": 1.0,
        "id_t0_invertInput": 0,
        "id_t1_gainAdjust": 1.0,
        "id_t1_fadeRate": 0.0,
        "id_t1_fadeProfile": 0.0,
        "id_t1_directOutsMode": 3,
        "id_t1_auxSendsMode": 3,
        "id_t1_panLawStereo": 1,
        "id_t1_vuColorThemeLocal": 0,
        "id_t1_filterPos": 1,
        "id_t1_dispColorLocal": 0,
        "id_t1_polyStereo": 0,
        "id_t1_panCvLevel": 1.0,
        "id_t1_stereoWidth": 1.0,
        "id_t1_invertInput": 0,
        "id_t2_gainAdjust": 1.0,
        "id_t2_fadeRate": 0.0,
        "id_t2_fadeProfile": 0.0,
        "id_t2_directOutsMode": 3,
        "id_t2_auxSendsMode": 3,
        "id_t2_panLawStereo": 1,
        "id_t2_vuColorThemeLocal": 0,
        "id_t2_filterPos": 1,
        "id_t2_dispColorLocal": 0,
        "id_t2_polyStereo": 0,
        "id_t2_panCvLevel": 1.0,
        "id_t2_stereoWidth": 1.0,
        "id_t2_invertInput": 0,
        "id_t3_gainAdjust": 1.0,
        "id_t3_fadeRate": 0.0,
        "id_t3_fadeProfile": 0.0,
        "id_t3_directOutsMode": 3,
        "id_t3_auxSendsMode": 3,
        "id_t3_panLawStereo": 1,
        "id_t3_vuColorThemeLocal": 0,
        "id_t3_filterPos": 1,
        "id_t3_dispColorLocal": 0,
        "id_t3_polyStereo": 0,
        "id_t3_panCvLevel": 1.0,
        "id_t3_stereoWidth": 1.0,
        "id_t3_invertInput": 0,
        "id_t4_gainAdjust": 1.0,
        "id_t4_fadeRate": 0.0,
        "id_t4_fadeProfile": 0.0,
        "id_t4_directOutsMode": 3,
        "id_t4_auxSendsMode": 3,
        "id_t4_panLawStereo": 1,
        "id_t4_vuColorThemeLocal": 0,
        "id_t4_filterPos": 1,
        "id_t4_dispColorLocal": 0,
        "id_t4_polyStereo": 0,
        "id_t4_panCvLevel": 1.0,
        "id_t4_stereoWidth": 1.0,
        "id_t4_invertInput": 0,
        "id_t5_gainAdjust": 1.0,
        "id_t5_fadeRate": 0.0,
        "id_t5_fadeProfile": 0.0,
        "id_t5_directOutsMode": 3,
        "id_t5_auxSendsMode": 3,
        "id_t5_panLawStereo": 1,
        "id_t5_vuColorThemeLocal": 0,
        "id_t5_filterPos": 1,
        "id_t5_dispColorLocal": 0,
        "id_t5_polyStereo": 0,
        "id_t5_panCvLevel": 1.0,
        "id_t5_stereoWidth": 1.0,
        "id_t5_invertInput": 0,
        "id_t6_gainAdjust": 1.0,
        "id_t6_fadeRate": 0.0,
        "id_t6_fadeProfile": 0.0,
        "id_t6_directOutsMode": 3,
        "id_t6_auxSendsMode": 3,
        "id_t6_panLawStereo": 1,
        "id_t6_vuColorThemeLocal": 0,
        "id_t6_filterPos": 1,
        "id_t6_dispColorLocal": 0,
        "id_t6_polyStereo": 0,
        "id_t6_panCvLevel": 1.0,
        "id_t6_stereoWidth": 1.0,
        "id_t6_invertInput": 0,
        "id_t7_gainAdjust": 1.0,
        "id_t7_fadeRate": 0.0,
        "id_t7_fadeProfile": 0.0,
        "id_t7_directOutsMode": 3,
        "id_t7_auxSendsMode": 3,
        "id_t7_panLawStereo": 1,
        "id_t7_vuColorThemeLocal": 0,
        "id_t7_filterPos": 1,
        "id_t7_dispColorLocal": 0,
        "id_t7_polyStereo": 0,
        "id_t7_panCvLevel": 1.0,
        "id_t7_stereoWidth": 1.0,
        "id_t7_invertInput": 0,
        "id_g0_fadeRate": 0.0,
        "id_g0_fadeProfile": 0.0,
        "id_g0_directOutsMode": 3,
        "id_g0_auxSendsMode": 3,
        "id_g0_panLawStereo": 1,
        "id_g0_vuColorThemeLocal": 0,
        "id_g0_filterPos": 1,
        "id_g0_dispColorLocal": 0,
        "id_g0_panCvLevel": 1.0,
        "id_g0_stereoWidth": 1.0,
        "id_g1_fadeRate": 0.0,
        "id_g1_fadeProfile": 0.0,
        "id_g1_directOutsMode": 3,
        "id_g1_auxSendsMode": 3,
        "id_g1_panLawStereo": 1,
        "id_g1_vuColorThemeLocal": 0,
        "id_g1_filterPos": 1,
        "id_g1_dispColorLocal": 0,
        "id_g1_panCvLevel": 1.0,
        "id_g1_stereoWidth": 1.0,
        "dcBlock": false,
        "clipping": 0,
        "fadeRate": 0.0,
        "fadeProfile": 0.0,
        "vuColorThemeLocal": 0,
        "dispColorLocal": 0,
        "dimGain": 0.251190007,
        "masterLabel": "MASTER"
      },
      "pos": [
        0,
        0
      ]
    },
    {
      "id": 14,
      "plugin": "MindMeldModular",
      "version": "1.1.9",
      "model": "AuxExpanderJr",
      "params": [
        {
          "id": 0,
          "value": 0.220500022
        },
        {
          "id": 1,
          "value": 0.0
        },
        {
          "id": 2,
          "value": 0.0
        },
        {
          "id": 3,
          "value": 0.0
        },
        {
          "id": 4,
          "value": 0.238500074
        },
        {
          "id": 5,
          "value": 0.0
        },
        {
          "id": 6,
          "value": 0.0
        },
        {
          "id": 7,
          "value": 0.0
        },
        {
          "id": 8,
          "value": 0.229500011
        },
        {
          "id": 9,
          "value": 0.0
        },
        {
          "id": 10,
          "value": 0.0
        },
        {
          "id": 11,
          "value": 0.0
        },
        {
          "id": 12,
          "value": 0.238499999
        },
        {
          "id": 13,
          "value": 0.0
        },
        {
          "id": 14,
          "value": 0.0
        },
        {
          "id": 15,
          "value": 0.0
        },
        {
          "id": 16,
          "value": 0.0
        },
        {
          "id": 17,
          "value": 0.0
        },
        {
          "id": 18,
          "value": 0.0
        },
        {
          "id": 19,
          "value": 0.0
        },
        {
          "id": 20,
          "value": 0.0
        },
        {
          "id": 21,
          "value": 0.0
        },
        {
          "id": 22,
          "value": 0.0
        },
        {
          "id": 23,
          "value": 0.0
        },
        {
          "id": 24,
          "value": 0.0
        },
        {
          "id": 25,
          "value": 0.0
        },
        {
          "id": 26,
          "value": 0.0
        },
        {
          "id": 27,
          "value": 0.0
        },
        {
          "id": 28,
          "value": 0.0
        },
        {
          "id": 29,
          "value": 0.0
        },
        {
          "id": 30,
          "value": 0.0
        },
        {
          "id": 31,
          "value": 0.0
        },
        {
          "id": 32,
          "value": 0.244499981
        },
        {
          "id": 33,
          "value": 0.0
        },
        {
          "id": 34,
          "value": 0.0
        },
        {
          "id": 35,
          "value": 0.0
        },
        {
          "id": 36,
          "value": 0.0
        },
        {
          "id": 37,
          "value": 0.0
        },
        {
          "id": 38,
          "value": 0.0
        },
        {
          "id": 39,
          "value": 0.0
        },
        {
          "id": 40,
          "value": 0.0
        },
        {
          "id": 41,
          "value": 0.0
        },
        {
          "id": 42,
          "value": 0.0
        },
        {
          "id": 43,
          "value": 0.0
        },
        {
          "id": 44,
          "value": 0.0
        },
        {
          "id": 45,
          "value": 0.0
        },
        {
          "id": 46,
          "value": 0.0
        },
        {
          "id": 47,
          "value": 0.0
        },
        {
          "id": 48,
          "value": 0.0
        },
        {
          "id": 49,
          "value": 0.0
        },
        {
          "id": 50,
          "value": 0.0
        },
        {
          "id": 51,
          "value": 0.0
        },
        {
          "id": 52,
          "value": 0.0
        },
        {
          "id": 53,
          "value": 0.0
        },
        {
          "id": 54,
          "value": 0.0
        },
        {
          "id": 55,
          "value": 0.0
        },
        {
          "id": 56,
          "value": 0.0
        },
        {
          "id": 57,
          "value": 0.0
        },
        {
          "id": 58,
          "value": 0.0
        },
        {
          "id": 59,
          "value": 0.0
        },
        {
          "id": 60,
          "value": 0.0
        },
        {
          "id": 61,
          "value": 0.0
        },
        {
          "id": 62,
          "value": 1.0
        },
        {
          "id": 63,
          "value": 1.0
        },
        {
          "id": 64,
          "value": 1.0
        },
        {
          "id": 65,
          "value": 1.0
        },
        {
          "id": 66,
          "value": 0.5
        },
        {
          "id": 67,
          "value": 0.5
        },
        {
          "id": 68,
          "value": 0.5
        },
        {
          "id": 69,
          "value": 0.5
        },
        {
          "id": 70,
          "value": 1.0
        },
        {
          "id": 71,
          "value": 1.0
        },
        {
          "id": 72,
          "value": 1.0
        },
        {
          "id": 73,
          "value": 1.0
        }
      ],
      "leftModuleId": 13,
      "rightModuleId": 12,
      "data": {
        "directOutsModeLocal": 50529027,
        "panLawStereoLocal": 16843009,
        "vuColorThemeLocal": 0,
        "dispColorAuxLocal": [
          0,
          0,
          0,
          0
        ],
        "auxFadeRatesAndProfiles": [
          0.0,
          0.0,
          0.0,
          0.0,
          0.0,
          0.0,
          0.0,
          0.0
        ],
        "auxLabels": "AUXAAUXBAUXCAUXD",
        "id_x0_hpfCutoffFreq": 13.0,
        "id_x0_lpfCutoffFreq": 20010.0,
        "id_x0_stereoWidth": 1.0,
        "id_x1_hpfCutoffFreq": 13.0,
        "id_x1_lpfCutoffFreq": 20010.0,
        "id_x1_stereoWidth": 1.0,
        "id_x2_hpfCutoffFreq": 13.0,
        "id_x2_lpfCutoffFreq": 20010.0,
        "id_x2_stereoWidth": 1.0,
        "id_x3_hpfCutoffFreq": 13.0,
        "id_x3_lpfCutoffFreq": 20010.0,
        "id_x3_stereoWidth": 1.0,
        "panCvLevels": [
          1.0,
          1.0,
          1.0,
          1.0
        ]
      },
      "pos": [
        36,
        0
      ]
    },
    {
      "id": 262,
      "plugin": "21kHz",
      "version": "1.0.1",
      "model": "kHzTachyonEntangler",
      "params": [
        {
          "id": 0,
          "value": 9.0
        },
        {
          "id": 1,
          "value": 0.0
        },
        {
          "id": 2,
          "value": 0.0
        },
        {
          "id": 3,
          "value": 2.5449996
        },
        {
          "id": 4,
          "value": 0.0
        },
        {
          "id": 5,
          "value": 4.77359867
        },
        {
          "id": 6,
          "value": 0.0
        },
        {
          "id": 7,
          "value": 2.98350048
        },
        {
          "id": 8,
          "value": 0.0
        },
        {
          "id": 9,
          "value": 0.0
        },
        {
          "id": 10,
          "value": 0.0599999577
        },
        {
          "id": 11,
          "value": 0.713500261
        },
        {
          "id": 12,
          "value": 0.0
        },
        {
          "id": 13,
          "value": 0.0
        },
        {
          "id": 14,
          "value": 0.0
        },
        {
          "id": 15,
          "value": 0.0
        }
      ],
      "leftModuleId": 268,
      "rightModuleId": 264,
      "pos": [
        17,
        1
      ]
    },
    {
      "id": 264,
      "plugin": "MSM",
      "version": "1.0.0",
      "model": "ADSR",
      "params": [
        {
          "id": 0,
          "value": 0.139000058
        },
        {
          "id": 1,
          "value": 0.751000047
        },
        {
          "id": 2,
          "value": 0.562000036
        },
        {
          "id": 3,
          "value": 0.388000101
        },
        {
          "id": 4,
          "value": 1.0
        },
        {
          "id": 5,
          "value": 1.0
        },
        {
          "id": 6,
          "value": 1.0
        }
      ],
      "leftModuleId": 262,
      "rightModuleId": 267,
      "data": {
        "Theme": 0
      },
      "pos": [
        37,
        1
      ]
    },
    {
      "id": 265,
      "plugin": "JW-Modules",
      "version": "1.0.12",
      "model": "SimpleClock",
      "params": [
        {
          "id": 0,
          "value": 1.0
        },
        {
          "id": 1,
          "value": 0.0
        },
        {
          "id": 2,
          "value": -2.0
        },
        {
          "id": 3,
          "value": 0.0
        }
      ],
      "leftModuleId": 271,
      "rightModuleId": 268,
      "data": {
        "running": true
      },
      "pos": [
        10,
        1
      ]
    },
    {
      "id": 267,
      "plugin": "Fundamental",
      "version": "1.4.0",
      "model": "VCA",
      "params": [
        {
          "id": 0,
          "value": 1.0
        },
        {
          "id": 1,
          "value": 1.0
        }
      ],
      "leftModuleId": 264,
      "rightModuleId": 274,
      "pos": [
        46,
        1
      ]
    },
    {
      "id": 268,
      "plugin": "Bogaudio",
      "version": "1.1.33",
      "model": "Bogaudio-DGate",
      "params": [
        {
          "id": 0,
          "value": 0.0
        },
        {
          "id": 1,
          "value": 0.163229644
        },
        {
          "id": 2,
          "value": 1.0
        },
        {
          "id": 3,
          "value": 0.0
        }
      ],
      "leftModuleId": 265,
      "rightModuleId": 262,
      "data": {
        "triggerOnLoad": true,
        "shouldTriggerOnLoad": false
      },
      "pos": [
        14,
        1
      ]
    },
    {
      "id": 269,
      "plugin": "Bogaudio",
      "version": "1.1.33",
      "model": "Bogaudio-AddrSeq",
      "params": [
        {
          "id": 0,
          "value": 8.0
        },
        {
          "id": 1,
          "value": 1.0
        },
        {
          "id": 2,
          "value": 7.0
        },
        {
          "id": 3,
          "value": -0.510941148
        },
        {
          "id": 4,
          "value": 0.855086684
        },
        {
          "id": 5,
          "value": -0.935518622
        },
        {
          "id": 6,
          "value": -0.00147628784
        },
        {
          "id": 7,
          "value": 0.0945514441
        },
        {
          "id": 8,
          "value": 0.0319964886
        },
        {
          "id": 9,
          "value": -0.279886127
        },
        {
          "id": 10,
          "value": -0.497540832
        }
      ],
      "rightModuleId": 271,
      "data": {
        "poly_input": 0,
        "select_on_clock": false,
        "triggered_select": false,
        "reverse_on_negative_clock": false,
        "range_offset": 0.0,
        "range_scale": 1.0
      },
      "pos": [
        0,
        1
      ]
    },
    {
      "id": 271,
      "plugin": "JW-Modules",
      "version": "1.0.12",
      "model": "Quantizer",
      "params": [
        {
          "id": 0,
          "value": 5.0
        },
        {
          "id": 1,
          "value": 9.0
        }
      ],
      "leftModuleId": 269,
      "rightModuleId": 265,
      "data": {},
      "pos": [
        6,
        1
      ]
    },
    {
      "id": 272,
      "plugin": "stocaudio",
      "version": "1.0.1",
      "model": "Polydelay",
      "params": [
        {
          "id": 0,
          "value": 0.884500265
        },
        {
          "id": 1,
          "value": 0.0
        },
        {
          "id": 2,
          "value": 0.335999966
        },
        {
          "id": 3,
          "value": 0.0
        },
        {
          "id": 4,
          "value": 0.5
        },
        {
          "id": 5,
          "value": 0.450999856
        },
        {
          "id": 6,
          "value": 0.0
        },
        {
          "id": 7,
          "value": 0.0
        }
      ],
      "leftModuleId": 283,
      "rightModuleId": 276,
      "pos": [
        29,
        2
      ]
    },
    {
      "id": 274,
      "plugin": "TinyTricks",
      "version": "1.5.0",
      "model": "MG16",
      "params": [
        {
          "id": 0,
          "value": 0.0
        },
        {
          "id": 1,
          "value": 0.645999908
        },
        {
          "id": 2,
          "value": -0.299999982
        },
        {
          "id": 3,
          "value": 1.0
        }
      ],
      "leftModuleId": 267,
      "rightModuleId": 275,
      "data": {
        "skin": 0,
        "forcebright": false
      },
      "pos": [
        51,
        1
      ]
    },
    {
      "id": 275,
      "plugin": "Fundamental",
      "version": "1.4.0",
      "model": "Scope",
      "params": [
        {
          "id": 0,
          "value": 0.0
        },
        {
          "id": 1,
          "value": 0.0
        },
        {
          "id": 2,
          "value": 0.0
        },
        {
          "id": 3,
          "value": 0.0
        },
        {
          "id": 4,
          "value": 7.8499999
        },
        {
          "id": 5,
          "value": 0.0
        },
        {
          "id": 6,
          "value": 0.0
        },
        {
          "id": 7,
          "value": 0.0
        }
      ],
      "leftModuleId": 274,
      "rightModuleId": 288,
      "data": {
        "lissajous": 0,
        "external": 0
      },
      "pos": [
        59,
        1
      ]
    },
    {
      "id": 276,
      "plugin": "LindenbergResearch",
      "version": "1.3.3",
      "model": "VCF",
      "params": [
        {
          "id": 0,
          "value": 0.377000004
        },
        {
          "id": 1,
          "value": 0.699749947
        },
        {
          "id": 2,
          "value": 0.29399994
        },
        {
          "id": 3,
          "value": 2.648
        },
        {
          "id": 4,
          "value": 0.610199988
        },
        {
          "id": 5,
          "value": 0.0
        },
        {
          "id": 6,
          "value": 0.0
        }
      ],
      "leftModuleId": 272,
      "rightModuleId": 284,
      "gestaltID": 1,
      "gradient": true,
      "patina": false,
      "patina_i_x": true,
      "patina_i_y": true,
      "patina_a_x": 987.045898,
      "patina_a_y": 270.449799,
      "overlay": false,
      "overlay_r": 0.676518202,
      "overlay_g": 0.498432875,
      "overlay_b": 0.0927240252,
      "overlay_a": 0.321835667,
      "pos": [
        35,
        2
      ]
    },
    {
      "id": 278,
      "plugin": "Fundamental",
      "version": "1.4.0",
      "model": "SequentialSwitch2",
      "params": [
        {
          "id": 0,
          "value": 1.0
        }
      ],
      "leftModuleId": 282,
      "rightModuleId": 283,
      "pos": [
        20,
        2
      ]
    },
    {
      "id": 279,
      "plugin": "Bogaudio",
      "version": "1.1.33",
      "model": "Bogaudio-AddrSeq",
      "params": [
        {
          "id": 0,
          "value": 8.0
        },
        {
          "id": 1,
          "value": 1.0
        },
        {
          "id": 2,
          "value": 7.0
        },
        {
          "id": 3,
          "value": -0.510941148
        },
        {
          "id": 4,
          "value": 0.855086684
        },
        {
          "id": 5,
          "value": -0.935518622
        },
        {
          "id": 6,
          "value": -0.00147628784
        },
        {
          "id": 7,
          "value": 0.0945514441
        },
        {
          "id": 8,
          "value": 0.0319964886
        },
        {
          "id": 9,
          "value": -0.279886127
        },
        {
          "id": 10,
          "value": -0.497540832
        }
      ],
      "rightModuleId": 280,
      "data": {
        "poly_input": 0,
        "select_on_clock": false,
        "triggered_select": false,
        "reverse_on_negative_clock": false,
        "range_offset": 0.0,
        "range_scale": 1.0
      },
      "pos": [
        0,
        2
      ]
    },
    {
      "id": 280,
      "plugin": "JW-Modules",
      "version": "1.0.12",
      "model": "Quantizer",
      "params": [
        {
          "id": 0,
          "value": 2.0
        },
        {
          "id": 1,
          "value": 11.0
        }
      ],
      "leftModuleId": 279,
      "rightModuleId": 281,
      "data": {},
      "pos": [
        6,
        2
      ]
    },
    {
      "id": 281,
      "plugin": "Bogaudio",
      "version": "1.1.33",
      "model": "Bogaudio-AddrSeq",
      "params": [
        {
          "id": 0,
          "value": 8.0
        },
        {
          "id": 1,
          "value": 0.0
        },
        {
          "id": 2,
          "value": 7.0
        },
        {
          "id": 3,
          "value": -0.510941148
        },
        {
          "id": 4,
          "value": 0.855086684
        },
        {
          "id": 5,
          "value": -0.935518622
        },
        {
          "id": 6,
          "value": -0.00147628784
        },
        {
          "id": 7,
          "value": 0.0945514441
        },
        {
          "id": 8,
          "value": 0.0319964886
        },
        {
          "id": 9,
          "value": -0.279886127
        },
        {
          "id": 10,
          "value": -0.497540832
        }
      ],
      "leftModuleId": 280,
      "rightModuleId": 282,
      "data": {
        "poly_input": 0,
        "select_on_clock": false,
        "triggered_select": false,
        "reverse_on_negative_clock": false,
        "range_offset": 0.0,
        "range_scale": 1.0
      },
      "pos": [
        10,
        2
      ]
    },
    {
      "id": 282,
      "plugin": "JW-Modules",
      "version": "1.0.12",
      "model": "Quantizer",
      "params": [
        {
          "id": 0,
          "value": 2.0
        },
        {
          "id": 1,
          "value": 11.0
        }
      ],
      "leftModuleId": 281,
      "rightModuleId": 278,
      "data": {},
      "pos": [
        16,
        2
      ]
    },
    {
      "id": 284,
      "plugin": "Befaco",
      "version": "1.0.1",
      "model": "SlewLimiter",
      "params": [
        {
          "id": 0,
          "value": 0.674999833
        },
        {
          "id": 1,
          "value": 0.708000243
        },
        {
          "id": 2,
          "value": 0.70200038
        }
      ],
      "leftModuleId": 276,
      "rightModuleId": 286,
      "pos": [
        47,
        2
      ]
    },
    {
      "id": 285,
      "plugin": "VultModulesFree",
      "version": "1.11",
      "model": "Basal",
      "params": [
        {
          "id": 0,
          "value": 0.0
        },
        {
          "id": 1,
          "value": 0.440999836
        },
        {
          "id": 2,
          "value": 0.283500016
        },
        {
          "id": 3,
          "value": -0.162000015
        },
        {
          "id": 4,
          "value": 0.303000033
        },
        {
          "id": 5,
          "value": -0.210000068
        }
      ],
      "leftModuleId": 286,
      "rightModuleId": 290,
      "pos": [
        59,
        2
      ]
    },
    {
      "id": 286,
      "plugin": "stocaudio",
      "version": "1.0.1",
      "model": "Polydelay",
      "params": [
        {
          "id": 0,
          "value": 0.692000628
        },
        {
          "id": 1,
          "value": -0.177000031
        },
        {
          "id": 2,
          "value": 0.0
        },
        {
          "id": 3,
          "value": 0.0
        },
        {
          "id": 4,
          "value": 0.177000001
        },
        {
          "id": 5,
          "value": 0.19599992
        },
        {
          "id": 6,
          "value": 1.0
        },
        {
          "id": 7,
          "value": 0.0
        }
      ],
      "leftModuleId": 284,
      "rightModuleId": 285,
      "pos": [
        53,
        2
      ]
    },
    {
      "id": 288,
      "plugin": "ML_modules",
      "version": "1.1.2",
      "model": "SH8",
      "params": [],
      "leftModuleId": 275,
      "pos": [
        72,
        1
      ]
    },
    {
      "id": 289,
      "plugin": "VultModulesFree",
      "version": "1.11",
      "model": "Basal",
      "params": [
        {
          "id": 0,
          "value": 0.0
        },
        {
          "id": 1,
          "value": -0.195000052
        },
        {
          "id": 2,
          "value": 0.279000044
        },
        {
          "id": 3,
          "value": 0.0
        },
        {
          "id": 4,
          "value": 0.289500028
        },
        {
          "id": 5,
          "value": 0.0
        }
      ],
      "leftModuleId": 290,
      "pos": [
        68,
        2
      ]
    },
    {
      "id": 290,
      "plugin": "Fundamental",
      "version": "1.4.0",
      "model": "SequentialSwitch2",
      "params": [
        {
          "id": 0,
          "value": 0.0
        }
      ],
      "leftModuleId": 285,
      "rightModuleId": 289,
      "pos": [
        65,
        2
      ]
    },
    {
      "id": 292,
      "plugin": "21kHz",
      "version": "1.0.1",
      "model": "kHzPalmLoop",
      "params": [
        {
          "id": 0,
          "value": 10.0
        },
        {
          "id": 1,
          "value": 0.0
        },
        {
          "id": 2,
          "value": 0.0
        },
        {
          "id": 3,
          "value": 0.0
        },
        {
          "id": 4,
          "value": 0.0
        }
      ],
      "rightModuleId": 293,
      "pos": [
        0,
        3
      ]
    },
    {
      "id": 293,
      "plugin": "Fundamental",
      "version": "1.4.0",
      "model": "SequentialSwitch2",
      "params": [
        {
          "id": 0,
          "value": 0.0
        }
      ],
      "leftModuleId": 292,
      "rightModuleId": 296,
      "pos": [
        8,
        3
      ]
    },
    {
      "id": 296,
      "plugin": "JW-Modules",
      "version": "1.0.12",
      "model": "SimpleClock",
      "params": [
        {
          "id": 0,
          "value": 4.81600285
        },
        {
          "id": 1,
          "value": 0.0
        },
        {
          "id": 2,
          "value": 3.04000139
        },
        {
          "id": 3,
          "value": 0.0
        }
      ],
      "leftModuleId": 293,
      "rightModuleId": 299,
      "data": {
        "running": true
      },
      "pos": [
        11,
        3
      ]
    },
    {
      "id": 299,
      "plugin": "Fundamental",
      "version": "1.4.0",
      "model": "SequentialSwitch1",
      "params": [
        {
          "id": 0,
          "value": 0.0
        }
      ],
      "leftModuleId": 296,
      "rightModuleId": 300,
      "pos": [
        15,
        3
      ]
    },
    {
      "id": 300,
      "plugin": "LindenbergResearch",
      "version": "1.3.3",
      "model": "VCF",
      "params": [
        {
          "id": 0,
          "value": 0.643000185
        },
        {
          "id": 1,
          "value": 0.747000158
        },
        {
          "id": 2,
          "value": 0.21299997
        },
        {
          "id": 3,
          "value": 1.47200012
        },
        {
          "id": 4,
          "value": 0.0
        },
        {
          "id": 5,
          "value": 0.0
        },
        {
          "id": 6,
          "value": 0.0
        }
      ],
      "leftModuleId": 299,
      "rightModuleId": 301,
      "gestaltID": 1,
      "gradient": true,
      "patina": false,
      "patina_i_x": true,
      "patina_i_y": true,
      "patina_a_x": 987.045898,
      "patina_a_y": 270.449799,
      "overlay": false,
      "overlay_r": 0.138489008,
      "overlay_g": 0.376387477,
      "overlay_b": 0.727957845,
      "overlay_a": 0.221850097,
      "pos": [
        18,
        3
      ]
    },
    {
      "id": 301,
      "plugin": "VultModulesFree",
      "version": "1.11",
      "model": "Lateralus",
      "params": [
        {
          "id": 0,
          "value": 0.563000023
        },
        {
          "id": 1,
          "value": 0.284500867
        },
        {
          "id": 2,
          "value": 0.0
        },
        {
          "id": 3,
          "value": 0.897999823
        },
        {
          "id": 4,
          "value": 1.23600006
        },
        {
          "id": 5,
          "value": 0.0
        },
        {
          "id": 6,
          "value": 0.0
        }
      ],
      "leftModuleId": 300,
      "rightModuleId": 303,
      "pos": [
        30,
        3
      ]
    },
    {
      "id": 303,
      "plugin": "Bogaudio",
      "version": "1.1.33",
      "model": "Bogaudio-LLFO",
      "params": [
        {
          "id": 0,
          "value": 0.0
        },
        {
          "id": 1,
          "value": 1.0
        },
        {
          "id": 2,
          "value": 0.0
        },
        {
          "id": 3,
          "value": 1.0
        },
        {
          "id": 4,
          "value": 1.0
        }
      ],
      "leftModuleId": 301,
      "rightModuleId": 304,
      "pos": [
        40,
        3
      ]
    },
    {
      "id": 283,
      "plugin": "Befaco",
      "version": "1.0.1",
      "model": "SlewLimiter",
      "params": [
        {
          "id": 0,
          "value": 0.527999938
        },
        {
          "id": 1,
          "value": 0.419999689
        },
        {
          "id": 2,
          "value": 0.443999738
        }
      ],
      "leftModuleId": 278,
      "rightModuleId": 272,
      "pos": [
        23,
        2
      ]
    },
    {
      "id": 304,
      "plugin": "Bogaudio",
      "version": "1.1.33",
      "model": "Bogaudio-FMOp",
      "params": [
        {
          "id": 0,
          "value": 0.0
        },
        {
          "id": 1,
          "value": -0.0629999861
        },
        {
          "id": 2,
          "value": 0.0814209804
        },
        {
          "id": 3,
          "value": 0.316229999
        },
        {
          "id": 4,
          "value": 1.0
        },
        {
          "id": 5,
          "value": 0.661230087
        },
        {
          "id": 6,
          "value": 0.0
        },
        {
          "id": 7,
          "value": 0.0
        },
        {
          "id": 8,
          "value": 1.0
        },
        {
          "id": 9,
          "value": 1.0
        },
        {
          "id": 10,
          "value": 0.0
        },
        {
          "id": 11,
          "value": 0.0
        }
      ],
      "leftModuleId": 303,
      "rightModuleId": 306,
      "data": {
        "linearLevel": false
      },
      "pos": [
        43,
        3
      ]
    },
    {
      "id": 305,
      "plugin": "Fundamental",
      "version": "1.4.0",
      "model": "Unity",
      "params": [
        {
          "id": 0,
          "value": 0.0
        },
        {
          "id": 1,
          "value": 0.0
        }
      ],
      "leftModuleId": 306,
      "data": {
        "merge": false
      },
      "pos": [
        63,
        3
      ]
    },
    {
      "id": 306,
      "plugin": "Bogaudio",
      "version": "1.1.33",
      "model": "Bogaudio-FMOp",
      "params": [
        {
          "id": 0,
          "value": 0.111111112
        },
        {
          "id": 1,
          "value": 0.0299999993
        },
        {
          "id": 2,
          "value": 0.0814209804
        },
        {
          "id": 3,
          "value": 0.316229999
        },
        {
          "id": 4,
          "value": 1.0
        },
        {
          "id": 5,
          "value": 0.661230087
        },
        {
          "id": 6,
          "value": 0.0
        },
        {
          "id": 7,
          "value": 0.0
        },
        {
          "id": 8,
          "value": 1.0
        },
        {
          "id": 9,
          "value": 1.0
        },
        {
          "id": 10,
          "value": 0.0
        },
        {
          "id": 11,
          "value": 0.0
        }
      ],
      "leftModuleId": 304,
      "rightModuleId": 305,
      "data": {
        "linearLevel": false
      },
      "pos": [
        53,
        3
      ]
    }
  ],
  "cables": [
    {
      "id": 16,
      "outputModuleId": 13,
      "outputId": 2,
      "inputModuleId": 11,
      "inputId": 0,
      "color": "#c91847"
    },
    {
      "id": 17,
      "outputModuleId": 13,
      "outputId": 3,
      "inputModuleId": 11,
      "inputId": 1,
      "color": "#0986ad"
    },
    {
      "id": 18,
      "outputModuleId": 14,
      "outputId": 0,
      "inputModuleId": 12,
      "inputId": 0,
      "color": "#c9b70e"
    },
    {
      "id": 19,
      "outputModuleId": 14,
      "outputId": 4,
      "inputModuleId": 12,
      "inputId": 1,
      "color": "#0c8e15"
    },
    {
      "id": 20,
      "outputModuleId": 12,
      "outputId": 0,
      "inputModuleId": 14,
      "inputId": 0,
      "color": "#c91847"
    },
    {
      "id": 21,
      "outputModuleId": 12,
      "outputId": 1,
      "inputModuleId": 14,
      "inputId": 1,
      "color": "#0986ad"
    },
    {
      "id": 656,
      "outputModuleId": 268,
      "outputId": 0,
      "inputModuleId": 264,
      "inputId": 4,
      "color": "#0c8e15"
    },
    {
      "id": 662,
      "outputModuleId": 264,
      "outputId": 0,
      "inputModuleId": 267,
      "inputId": 0,
      "color": "#0986ad"
    },
    {
      "id": 675,
      "outputModuleId": 264,
      "outputId": 0,
      "inputModuleId": 267,
      "inputId": 3,
      "color": "#c9b70e"
    },
    {
      "id": 667,
      "outputModuleId": 265,
      "outputId": 3,
      "inputModuleId": 269,
      "inputId": 0,
      "color": "#c9b70e"
    },
    {
      "id": 679,
      "outputModuleId": 269,
      "outputId": 0,
      "inputModuleId": 271,
      "inputId": 2,
      "color": "#0c8e15"
    },
    {
      "id": 680,
      "outputModuleId": 267,
      "outputId": 1,
      "inputModuleId": 272,
      "inputId": 1,
      "color": "#c91847"
    },
    {
      "id": 673,
      "outputModuleId": 262,
      "outputId": 2,
      "inputModuleId": 267,
      "inputId": 5,
      "color": "#c91847"
    },
    {
      "id": 681,
      "outputModuleId": 267,
      "outputId": 0,
      "inputModuleId": 272,
      "inputId": 0,
      "color": "#0986ad"
    },
    {
      "id": 685,
      "outputModuleId": 262,
      "outputId": 1,
      "inputModuleId": 267,
      "inputId": 2,
      "color": "#0986ad"
    },
    {
      "id": 663,
      "outputModuleId": 265,
      "outputId": 2,
      "inputModuleId": 268,
      "inputId": 0,
      "color": "#c9b70e"
    },
    {
      "id": 690,
      "outputModuleId": 265,
      "outputId": 2,
      "inputModuleId": 274,
      "inputId": 0,
      "color": "#0986ad"
    },
    {
      "id": 689,
      "outputModuleId": 274,
      "outputId": 0,
      "inputModuleId": 262,
      "inputId": 3,
      "color": "#c91847"
    },
    {
      "id": 692,
      "outputModuleId": 274,
      "outputId": 0,
      "inputModuleId": 275,
      "inputId": 0,
      "color": "#0c8e15"
    },
    {
      "id": 694,
      "outputModuleId": 274,
      "outputId": 11,
      "inputModuleId": 275,
      "inputId": 1,
      "color": "#0986ad"
    },
    {
      "id": 674,
      "outputModuleId": 276,
      "outputId": 0,
      "inputModuleId": 13,
      "inputId": 2,
      "color": "#0986ad"
    },
    {
      "id": 696,
      "outputModuleId": 272,
      "outputId": 1,
      "inputModuleId": 276,
      "inputId": 0,
      "color": "#0c8e15"
    },
    {
      "id": 697,
      "outputModuleId": 264,
      "outputId": 0,
      "inputModuleId": 276,
      "inputId": 1,
      "color": "#c91847"
    },
    {
      "id": 701,
      "outputModuleId": 265,
      "outputId": 2,
      "inputModuleId": 279,
      "inputId": 0,
      "color": "#c91847"
    },
    {
      "id": 702,
      "outputModuleId": 271,
      "outputId": 0,
      "inputModuleId": 278,
      "inputId": 2,
      "color": "#0986ad"
    },
    {
      "id": 672,
      "outputModuleId": 271,
      "outputId": 0,
      "inputModuleId": 262,
      "inputId": 11,
      "color": "#0c8e15"
    },
    {
      "id": 703,
      "outputModuleId": 279,
      "outputId": 0,
      "inputModuleId": 280,
      "inputId": 2,
      "color": "#c9b70e"
    },
    {
      "id": 704,
      "outputModuleId": 280,
      "outputId": 0,
      "inputModuleId": 278,
      "inputId": 3,
      "color": "#0c8e15"
    },
    {
      "id": 705,
      "outputModuleId": 265,
      "outputId": 4,
      "inputModuleId": 278,
      "inputId": 0,
      "color": "#c91847"
    },
    {
      "id": 706,
      "outputModuleId": 281,
      "outputId": 0,
      "inputModuleId": 282,
      "inputId": 2,
      "color": "#0986ad"
    },
    {
      "id": 707,
      "outputModuleId": 282,
      "outputId": 0,
      "inputModuleId": 278,
      "inputId": 4,
      "color": "#c9b70e"
    },
    {
      "id": 708,
      "outputModuleId": 265,
      "outputId": 5,
      "inputModuleId": 281,
      "inputId": 0,
      "color": "#0c8e15"
    },
    {
      "id": 715,
      "outputModuleId": 284,
      "outputId": 0,
      "inputModuleId": 285,
      "inputId": 0,
      "color": "#c9b70e"
    },
    {
      "id": 719,
      "outputModuleId": 274,
      "outputId": 5,
      "inputModuleId": 285,
      "inputId": 1,
      "color": "#c9b70e"
    },
    {
      "id": 718,
      "outputModuleId": 274,
      "outputId": 13,
      "inputModuleId": 285,
      "inputId": 2,
      "color": "#0986ad"
    },
    {
      "id": 720,
      "outputModuleId": 285,
      "outputId": 0,
      "inputModuleId": 286,
      "inputId": 0,
      "color": "#0986ad"
    },
    {
      "id": 717,
      "outputModuleId": 286,
      "outputId": 0,
      "inputModuleId": 13,
      "inputId": 4,
      "color": "#c91847"
    },
    {
      "id": 721,
      "outputModuleId": 274,
      "outputId": 4,
      "inputModuleId": 286,
      "inputId": 4,
      "color": "#c9b70e"
    },
    {
      "id": 722,
      "outputModuleId": 274,
      "outputId": 1,
      "inputModuleId": 262,
      "inputId": 1,
      "color": "#0c8e15"
    },
    {
      "id": 716,
      "outputModuleId": 278,
      "outputId": 0,
      "inputModuleId": 284,
      "inputId": 2,
      "color": "#0c8e15"
    },
    {
      "id": 726,
      "outputModuleId": 274,
      "outputId": 10,
      "inputModuleId": 288,
      "inputId": 3,
      "color": "#0986ad"
    },
    {
      "id": 727,
      "outputModuleId": 265,
      "outputId": 2,
      "inputModuleId": 288,
      "inputId": 8,
      "color": "#c9b70e"
    },
    {
      "id": 728,
      "outputModuleId": 265,
      "outputId": 3,
      "inputModuleId": 288,
      "inputId": 9,
      "color": "#0c8e15"
    },
    {
      "id": 729,
      "outputModuleId": 265,
      "outputId": 4,
      "inputModuleId": 288,
      "inputId": 10,
      "color": "#c91847"
    },
    {
      "id": 731,
      "outputModuleId": 289,
      "outputId": 0,
      "inputModuleId": 13,
      "inputId": 6,
      "color": "#0c8e15"
    },
    {
      "id": 730,
      "outputModuleId": 288,
      "outputId": 0,
      "inputModuleId": 290,
      "inputId": 2,
      "color": "#c9b70e"
    },
    {
      "id": 732,
      "outputModuleId": 288,
      "outputId": 1,
      "inputModuleId": 290,
      "inputId": 3,
      "color": "#c91847"
    },
    {
      "id": 733,
      "outputModuleId": 288,
      "outputId": 2,
      "inputModuleId": 290,
      "inputId": 4,
      "color": "#0986ad"
    },
    {
      "id": 739,
      "outputModuleId": 271,
      "outputId": 0,
      "inputModuleId": 288,
      "inputId": 0,
      "color": "#0c8e15"
    },
    {
      "id": 740,
      "outputModuleId": 280,
      "outputId": 0,
      "inputModuleId": 288,
      "inputId": 1,
      "color": "#0c8e15"
    },
    {
      "id": 741,
      "outputModuleId": 282,
      "outputId": 0,
      "inputModuleId": 288,
      "inputId": 2,
      "color": "#0c8e15"
    },
    {
      "id": 742,
      "outputModuleId": 290,
      "outputId": 0,
      "inputModuleId": 289,
      "inputId": 0,
      "color": "#c91847"
    },
    {
      "id": 743,
      "outputModuleId": 265,
      "outputId": 5,
      "inputModuleId": 290,
      "inputId": 0,
      "color": "#0986ad"
    },
    {
      "id": 744,
      "outputModuleId": 265,
      "outputId": 4,
      "inputModuleId": 288,
      "inputId": 11,
      "color": "#c9b70e"
    },
    {
      "id": 749,
      "outputModuleId": 292,
      "outputId": 3,
      "inputModuleId": 293,
      "inputId": 3,
      "color": "#0c8e15"
    },
    {
      "id": 750,
      "outputModuleId": 292,
      "outputId": 2,
      "inputModuleId": 293,
      "inputId": 4,
      "color": "#c91847"
    },
    {
      "id": 751,
      "outputModuleId": 292,
      "outputId": 4,
      "inputModuleId": 293,
      "inputId": 5,
      "color": "#0c8e15"
    },
    {
      "id": 752,
      "outputModuleId": 296,
      "outputId": 2,
      "inputModuleId": 293,
      "inputId": 0,
      "color": "#c91847"
    },
    {
      "id": 755,
      "outputModuleId": 299,
      "outputId": 0,
      "inputModuleId": 269,
      "inputId": 2,
      "color": "#c91847"
    },
    {
      "id": 756,
      "outputModuleId": 296,
      "outputId": 1,
      "inputModuleId": 299,
      "inputId": 2,
      "color": "#0986ad"
    },
    {
      "id": 757,
      "outputModuleId": 299,
      "outputId": 1,
      "inputModuleId": 279,
      "inputId": 2,
      "color": "#c9b70e"
    },
    {
      "id": 758,
      "outputModuleId": 299,
      "outputId": 2,
      "inputModuleId": 281,
      "inputId": 2,
      "color": "#0c8e15"
    },
    {
      "id": 759,
      "outputModuleId": 265,
      "outputId": 5,
      "inputModuleId": 299,
      "inputId": 0,
      "color": "#c91847"
    },
    {
      "id": 762,
      "outputModuleId": 293,
      "outputId": 0,
      "inputModuleId": 301,
      "inputId": 0,
      "color": "#0c8e15"
    },
    {
      "id": 753,
      "outputModuleId": 301,
      "outputId": 1,
      "inputModuleId": 13,
      "inputId": 8,
      "color": "#0986ad"
    },
    {
      "id": 767,
      "outputModuleId": 303,
      "outputId": 0,
      "inputModuleId": 301,
      "inputId": 2,
      "color": "#c91847"
    },
    {
      "id": 695,
      "outputModuleId": 274,
      "outputId": 11,
      "inputModuleId": 272,
      "inputId": 3,
      "color": "#c9b70e"
    },
    {
      "id": 712,
      "outputModuleId": 278,
      "outputId": 0,
      "inputModuleId": 283,
      "inputId": 2,
      "color": "#0c8e15"
    },
    {
      "id": 770,
      "outputModuleId": 271,
      "outputId": 0,
      "inputModuleId": 305,
      "inputId": 0,
      "color": "#0986ad"
    },
    {
      "id": 771,
      "outputModuleId": 280,
      "outputId": 0,
      "inputModuleId": 305,
      "inputId": 2,
      "color": "#c9b70e"
    },
    {
      "id": 772,
      "outputModuleId": 282,
      "outputId": 0,
      "inputModuleId": 305,
      "inputId": 4,
      "color": "#0c8e15"
    },
    {
      "id": 775,
      "outputModuleId": 288,
      "outputId": 7,
      "inputModuleId": 304,
      "inputId": 4,
      "color": "#c9b70e"
    },
    {
      "id": 777,
      "outputModuleId": 268,
      "outputId": 0,
      "inputModuleId": 304,
      "inputId": 5,
      "color": "#c9b70e"
    },
    {
      "id": 779,
      "outputModuleId": 305,
      "outputId": 2,
      "inputModuleId": 288,
      "inputId": 6,
      "color": "#0986ad"
    },
    {
      "id": 780,
      "outputModuleId": 288,
      "outputId": 6,
      "inputModuleId": 306,
      "inputId": 4,
      "color": "#c9b70e"
    },
    {
      "id": 781,
      "outputModuleId": 306,
      "outputId": 0,
      "inputModuleId": 13,
      "inputId": 12,
      "color": "#0c8e15"
    },
    {
      "id": 774,
      "outputModuleId": 304,
      "outputId": 0,
      "inputModuleId": 13,
      "inputId": 10,
      "color": "#0986ad"
    },
    {
      "id": 783,
      "outputModuleId": 268,
      "outputId": 0,
      "inputModuleId": 306,
      "inputId": 5,
      "color": "#0986ad"
    },
    {
      "id": 773,
      "outputModuleId": 305,
      "outputId": 0,
      "inputModuleId": 288,
      "inputId": 7,
      "color": "#c91847"
    }
  ]
}