{
  "version": "1.1.6",
  "modules": [
    {
      "id": 11,
      "plugin": "Core",
      "version": "1.1.6",
      "model": "AudioInterface",
      "params": [],
      "leftModuleId": 12,
      "rightModuleId": 292,
      "data": {
        "audio": {
          "driver": 4,
          "deviceName": "system",
          "offset": 0,
          "maxChannels": 8,
          "sampleRate": 44100,
          "blockSize": 2048
        }
      },
      "pos": [
        86,
        0
      ]
    },
    {
      "id": 12,
      "plugin": "Valley",
      "version": "1.1.3",
      "model": "Plateau",
      "params": [
        {
          "id": 0,
          "value": 1.0
        },
        {
          "id": 1,
          "value": 0.5
        },
        {
          "id": 2,
          "value": 0.0
        },
        {
          "id": 3,
          "value": 10.0
        },
        {
          "id": 4,
          "value": 10.0
        },
        {
          "id": 5,
          "value": 0.5
        },
        {
          "id": 6,
          "value": 10.0
        },
        {
          "id": 7,
          "value": 0.549950004
        },
        {
          "id": 8,
          "value": 10.0
        },
        {
          "id": 9,
          "value": 10.0
        },
        {
          "id": 10,
          "value": 0.0
        },
        {
          "id": 11,
          "value": 0.5
        },
        {
          "id": 12,
          "value": 0.5
        },
        {
          "id": 13,
          "value": 0.0
        },
        {
          "id": 14,
          "value": 0.0
        },
        {
          "id": 15,
          "value": 0.0
        },
        {
          "id": 16,
          "value": 0.0
        },
        {
          "id": 17,
          "value": 0.0
        },
        {
          "id": 18,
          "value": 0.0
        },
        {
          "id": 19,
          "value": 0.0
        },
        {
          "id": 20,
          "value": 0.0
        },
        {
          "id": 21,
          "value": 0.0
        },
        {
          "id": 22,
          "value": 0.0
        },
        {
          "id": 23,
          "value": 0.0
        },
        {
          "id": 24,
          "value": 0.0
        },
        {
          "id": 25,
          "value": 0.0
        },
        {
          "id": 26,
          "value": 0.0
        },
        {
          "id": 27,
          "value": 0.0
        },
        {
          "id": 28,
          "value": 0.0
        },
        {
          "id": 29,
          "value": 0.0
        },
        {
          "id": 30,
          "value": 1.0
        }
      ],
      "leftModuleId": 14,
      "rightModuleId": 11,
      "data": {
        "frozen": false,
        "freezeToggle": false,
        "panelStyle": 0,
        "tuned": 0,
        "diffuseInput": 1,
        "preDelayCVSens": 0,
        "inputSensitivity": 0,
        "outputSaturation": 0
      },
      "pos": [
        74,
        0
      ]
    },
    {
      "id": 13,
      "plugin": "MindMeldModular",
      "version": "1.1.10",
      "model": "MixMasterJr",
      "params": [
        {
          "id": 0,
          "value": 1.0
        },
        {
          "id": 1,
          "value": 0.92818445
        },
        {
          "id": 2,
          "value": 1.0
        },
        {
          "id": 3,
          "value": 1.0
        },
        {
          "id": 4,
          "value": 0.935743928
        },
        {
          "id": 5,
          "value": 1.0
        },
        {
          "id": 6,
          "value": 1.0
        },
        {
          "id": 7,
          "value": 1.0
        },
        {
          "id": 8,
          "value": 1.0
        },
        {
          "id": 9,
          "value": 1.0
        },
        {
          "id": 10,
          "value": 0.5
        },
        {
          "id": 11,
          "value": 0.5
        },
        {
          "id": 12,
          "value": 0.5
        },
        {
          "id": 13,
          "value": 0.5
        },
        {
          "id": 14,
          "value": 0.5
        },
        {
          "id": 15,
          "value": 0.5
        },
        {
          "id": 16,
          "value": 0.5
        },
        {
          "id": 17,
          "value": 0.5
        },
        {
          "id": 18,
          "value": 0.5
        },
        {
          "id": 19,
          "value": 0.5
        },
        {
          "id": 20,
          "value": 0.0
        },
        {
          "id": 21,
          "value": 0.0
        },
        {
          "id": 22,
          "value": 0.0
        },
        {
          "id": 23,
          "value": 0.0
        },
        {
          "id": 24,
          "value": 0.0
        },
        {
          "id": 25,
          "value": 0.0
        },
        {
          "id": 26,
          "value": 0.0
        },
        {
          "id": 27,
          "value": 0.0
        },
        {
          "id": 28,
          "value": 0.0
        },
        {
          "id": 29,
          "value": 0.0
        },
        {
          "id": 30,
          "value": 0.0
        },
        {
          "id": 31,
          "value": 0.0
        },
        {
          "id": 32,
          "value": 0.0
        },
        {
          "id": 33,
          "value": 0.0
        },
        {
          "id": 34,
          "value": 0.0
        },
        {
          "id": 35,
          "value": 0.0
        },
        {
          "id": 36,
          "value": 0.0
        },
        {
          "id": 37,
          "value": 0.0
        },
        {
          "id": 38,
          "value": 0.0
        },
        {
          "id": 39,
          "value": 0.0
        },
        {
          "id": 40,
          "value": 0.0
        },
        {
          "id": 41,
          "value": 0.0
        },
        {
          "id": 42,
          "value": 0.0
        },
        {
          "id": 43,
          "value": 0.950863004
        },
        {
          "id": 44,
          "value": 0.0
        },
        {
          "id": 45,
          "value": 0.0
        },
        {
          "id": 46,
          "value": 0.0
        },
        {
          "id": 47,
          "value": 0.0
        },
        {
          "id": 48,
          "value": 0.0
        },
        {
          "id": 49,
          "value": 0.0
        },
        {
          "id": 50,
          "value": 0.0
        },
        {
          "id": 51,
          "value": 0.0
        },
        {
          "id": 52,
          "value": 13.0
        },
        {
          "id": 53,
          "value": 13.0
        },
        {
          "id": 54,
          "value": 13.0
        },
        {
          "id": 55,
          "value": 13.0
        },
        {
          "id": 56,
          "value": 13.0
        },
        {
          "id": 57,
          "value": 13.0
        },
        {
          "id": 58,
          "value": 13.0
        },
        {
          "id": 59,
          "value": 13.0
        },
        {
          "id": 60,
          "value": 20010.0
        },
        {
          "id": 61,
          "value": 20010.0
        },
        {
          "id": 62,
          "value": 20010.0
        },
        {
          "id": 63,
          "value": 20010.0
        },
        {
          "id": 64,
          "value": 20010.0
        },
        {
          "id": 65,
          "value": 20010.0
        },
        {
          "id": 66,
          "value": 20010.0
        },
        {
          "id": 67,
          "value": 20010.0
        },
        {
          "id": 68,
          "value": 13.0
        },
        {
          "id": 69,
          "value": 13.0
        },
        {
          "id": 70,
          "value": 20010.0
        },
        {
          "id": 71,
          "value": 20010.0
        }
      ],
      "rightModuleId": 14,
      "data": {
        "trackLabels": "GNRZ-02-VIB1VIB2SNA1KICKSNA2-08-GRP1GRP2",
        "panLawMono": 1,
        "panLawStereo": 1,
        "directOutsMode": 3,
        "directOutsSkipGroupedTracks": 0,
        "auxSendsMode": 3,
        "groupsControlTrackSendLevels": 0,
        "auxReturnsMutedWhenMainSolo": 0,
        "auxReturnsSolosMuteDry": 0,
        "chainMode": 1,
        "colorAndCloak": 117440512,
        "symmetricalFade": false,
        "fadeCvOutsWithVolCv": false,
        "linkBitMask": 0,
        "filterPos": 1,
        "groupedAuxReturnFeedbackProtection": 1,
        "ecoMode": 65535,
        "faders": [
          1.0,
          0.92818445,
          1.0,
          1.0,
          0.935743928,
          1.0,
          1.0,
          1.0,
          1.0,
          1.0
        ],
        "momentaryCvButtons": 1,
        "masterFaderScalesSends": 0,
        "linearVolCvInputs": 0,
        "id_t0_gainAdjust": 1.0,
        "id_t0_fadeRate": 0.0,
        "id_t0_fadeProfile": 0.0,
        "id_t0_directOutsMode": 3,
        "id_t0_auxSendsMode": 3,
        "id_t0_panLawStereo": 1,
        "id_t0_vuColorThemeLocal": 0,
        "id_t0_filterPos": 1,
        "id_t0_dispColorLocal": 0,
        "id_t0_polyStereo": 0,
        "id_t0_panCvLevel": 1.0,
        "id_t0_stereoWidth": 1.0,
        "id_t0_invertInput": 0,
        "id_t1_gainAdjust": 1.0,
        "id_t1_fadeRate": 0.0,
        "id_t1_fadeProfile": 0.0,
        "id_t1_directOutsMode": 3,
        "id_t1_auxSendsMode": 3,
        "id_t1_panLawStereo": 1,
        "id_t1_vuColorThemeLocal": 0,
        "id_t1_filterPos": 1,
        "id_t1_dispColorLocal": 0,
        "id_t1_polyStereo": 0,
        "id_t1_panCvLevel": 1.0,
        "id_t1_stereoWidth": 1.0,
        "id_t1_invertInput": 0,
        "id_t2_gainAdjust": 1.0,
        "id_t2_fadeRate": 0.0,
        "id_t2_fadeProfile": 0.0,
        "id_t2_directOutsMode": 3,
        "id_t2_auxSendsMode": 3,
        "id_t2_panLawStereo": 1,
        "id_t2_vuColorThemeLocal": 0,
        "id_t2_filterPos": 1,
        "id_t2_dispColorLocal": 0,
        "id_t2_polyStereo": 0,
        "id_t2_panCvLevel": 1.0,
        "id_t2_stereoWidth": 1.0,
        "id_t2_invertInput": 0,
        "id_t3_gainAdjust": 1.0,
        "id_t3_fadeRate": 0.0,
        "id_t3_fadeProfile": 0.0,
        "id_t3_directOutsMode": 3,
        "id_t3_auxSendsMode": 3,
        "id_t3_panLawStereo": 1,
        "id_t3_vuColorThemeLocal": 0,
        "id_t3_filterPos": 1,
        "id_t3_dispColorLocal": 0,
        "id_t3_polyStereo": 0,
        "id_t3_panCvLevel": 1.0,
        "id_t3_stereoWidth": 1.0,
        "id_t3_invertInput": 0,
        "id_t4_gainAdjust": 1.0,
        "id_t4_fadeRate": 0.0,
        "id_t4_fadeProfile": 0.0,
        "id_t4_directOutsMode": 3,
        "id_t4_auxSendsMode": 3,
        "id_t4_panLawStereo": 1,
        "id_t4_vuColorThemeLocal": 0,
        "id_t4_filterPos": 1,
        "id_t4_dispColorLocal": 0,
        "id_t4_polyStereo": 0,
        "id_t4_panCvLevel": 1.0,
        "id_t4_stereoWidth": 1.0,
        "id_t4_invertInput": 0,
        "id_t5_gainAdjust": 1.19124544,
        "id_t5_fadeRate": 0.0,
        "id_t5_fadeProfile": 0.0,
        "id_t5_directOutsMode": 3,
        "id_t5_auxSendsMode": 3,
        "id_t5_panLawStereo": 1,
        "id_t5_vuColorThemeLocal": 0,
        "id_t5_filterPos": 1,
        "id_t5_dispColorLocal": 0,
        "id_t5_polyStereo": 0,
        "id_t5_panCvLevel": 1.0,
        "id_t5_stereoWidth": 1.0,
        "id_t5_invertInput": 0,
        "id_t6_gainAdjust": 0.599790931,
        "id_t6_fadeRate": 0.0,
        "id_t6_fadeProfile": 0.0,
        "id_t6_directOutsMode": 3,
        "id_t6_auxSendsMode": 3,
        "id_t6_panLawStereo": 1,
        "id_t6_vuColorThemeLocal": 0,
        "id_t6_filterPos": 1,
        "id_t6_dispColorLocal": 0,
        "id_t6_polyStereo": 0,
        "id_t6_panCvLevel": 1.0,
        "id_t6_stereoWidth": 1.0,
        "id_t6_invertInput": 0,
        "id_t7_gainAdjust": 1.0,
        "id_t7_fadeRate": 0.0,
        "id_t7_fadeProfile": 0.0,
        "id_t7_directOutsMode": 3,
        "id_t7_auxSendsMode": 3,
        "id_t7_panLawStereo": 1,
        "id_t7_vuColorThemeLocal": 0,
        "id_t7_filterPos": 1,
        "id_t7_dispColorLocal": 0,
        "id_t7_polyStereo": 0,
        "id_t7_panCvLevel": 1.0,
        "id_t7_stereoWidth": 1.0,
        "id_t7_invertInput": 0,
        "id_g0_fadeRate": 0.0,
        "id_g0_fadeProfile": 0.0,
        "id_g0_directOutsMode": 3,
        "id_g0_auxSendsMode": 3,
        "id_g0_panLawStereo": 1,
        "id_g0_vuColorThemeLocal": 0,
        "id_g0_filterPos": 1,
        "id_g0_dispColorLocal": 0,
        "id_g0_panCvLevel": 1.0,
        "id_g0_stereoWidth": 1.0,
        "id_g1_fadeRate": 0.0,
        "id_g1_fadeProfile": 0.0,
        "id_g1_directOutsMode": 3,
        "id_g1_auxSendsMode": 3,
        "id_g1_panLawStereo": 1,
        "id_g1_vuColorThemeLocal": 0,
        "id_g1_filterPos": 1,
        "id_g1_dispColorLocal": 0,
        "id_g1_panCvLevel": 1.0,
        "id_g1_stereoWidth": 1.0,
        "dcBlock": false,
        "clipping": 0,
        "fadeRate": 0.0,
        "fadeProfile": 0.0,
        "vuColorThemeLocal": 0,
        "dispColorLocal": 0,
        "chainOnly": 0,
        "dimGain": 0.251190007,
        "masterLabel": "MASTER"
      },
      "pos": [
        8,
        0
      ]
    },
    {
      "id": 14,
      "plugin": "MindMeldModular",
      "version": "1.1.10",
      "model": "AuxExpanderJr",
      "params": [
        {
          "id": 0,
          "value": 0.158999875
        },
        {
          "id": 1,
          "value": 0.0
        },
        {
          "id": 2,
          "value": 0.0
        },
        {
          "id": 3,
          "value": 0.0
        },
        {
          "id": 4,
          "value": 0.0
        },
        {
          "id": 5,
          "value": 0.0
        },
        {
          "id": 6,
          "value": 0.0
        },
        {
          "id": 7,
          "value": 0.0
        },
        {
          "id": 8,
          "value": 0.267000049
        },
        {
          "id": 9,
          "value": 0.0
        },
        {
          "id": 10,
          "value": 0.0
        },
        {
          "id": 11,
          "value": 0.0
        },
        {
          "id": 12,
          "value": 0.279000103
        },
        {
          "id": 13,
          "value": 0.0
        },
        {
          "id": 14,
          "value": 0.0
        },
        {
          "id": 15,
          "value": 0.0
        },
        {
          "id": 16,
          "value": 0.0
        },
        {
          "id": 17,
          "value": 0.0
        },
        {
          "id": 18,
          "value": 0.0
        },
        {
          "id": 19,
          "value": 0.0
        },
        {
          "id": 20,
          "value": 0.0
        },
        {
          "id": 21,
          "value": 0.0
        },
        {
          "id": 22,
          "value": 0.0
        },
        {
          "id": 23,
          "value": 0.0
        },
        {
          "id": 24,
          "value": 0.328500092
        },
        {
          "id": 25,
          "value": 0.0
        },
        {
          "id": 26,
          "value": 0.0
        },
        {
          "id": 27,
          "value": 0.0
        },
        {
          "id": 28,
          "value": 0.0
        },
        {
          "id": 29,
          "value": 0.0
        },
        {
          "id": 30,
          "value": 0.0
        },
        {
          "id": 31,
          "value": 0.0
        },
        {
          "id": 32,
          "value": 0.0
        },
        {
          "id": 33,
          "value": 0.0
        },
        {
          "id": 34,
          "value": 0.0
        },
        {
          "id": 35,
          "value": 0.0
        },
        {
          "id": 36,
          "value": 0.0
        },
        {
          "id": 37,
          "value": 0.0
        },
        {
          "id": 38,
          "value": 0.0
        },
        {
          "id": 39,
          "value": 0.0
        },
        {
          "id": 40,
          "value": 0.0
        },
        {
          "id": 41,
          "value": 0.0
        },
        {
          "id": 42,
          "value": 0.0
        },
        {
          "id": 43,
          "value": 0.0
        },
        {
          "id": 44,
          "value": 0.0
        },
        {
          "id": 45,
          "value": 0.0
        },
        {
          "id": 46,
          "value": 0.0
        },
        {
          "id": 47,
          "value": 0.0
        },
        {
          "id": 48,
          "value": 0.0
        },
        {
          "id": 49,
          "value": 0.0
        },
        {
          "id": 50,
          "value": 0.0
        },
        {
          "id": 51,
          "value": 0.0
        },
        {
          "id": 52,
          "value": 0.0
        },
        {
          "id": 53,
          "value": 0.0
        },
        {
          "id": 54,
          "value": 0.0
        },
        {
          "id": 55,
          "value": 0.0
        },
        {
          "id": 56,
          "value": 0.0
        },
        {
          "id": 57,
          "value": 0.0
        },
        {
          "id": 58,
          "value": 0.0
        },
        {
          "id": 59,
          "value": 0.0
        },
        {
          "id": 60,
          "value": 0.0
        },
        {
          "id": 61,
          "value": 0.0
        },
        {
          "id": 62,
          "value": 1.0
        },
        {
          "id": 63,
          "value": 1.0
        },
        {
          "id": 64,
          "value": 1.0
        },
        {
          "id": 65,
          "value": 1.0
        },
        {
          "id": 66,
          "value": 0.5
        },
        {
          "id": 67,
          "value": 0.5
        },
        {
          "id": 68,
          "value": 0.5
        },
        {
          "id": 69,
          "value": 0.5
        },
        {
          "id": 70,
          "value": 1.0
        },
        {
          "id": 71,
          "value": 1.0
        },
        {
          "id": 72,
          "value": 1.0
        },
        {
          "id": 73,
          "value": 1.0
        }
      ],
      "leftModuleId": 13,
      "rightModuleId": 12,
      "data": {
        "directOutsModeLocal": 50529027,
        "panLawStereoLocal": 16843009,
        "vuColorThemeLocal": 0,
        "dispColorAuxLocal": [
          0,
          0,
          0,
          0
        ],
        "auxFadeRatesAndProfiles": [
          0.0,
          0.0,
          0.0,
          0.0,
          0.0,
          0.0,
          0.0,
          0.0
        ],
        "auxLabels": "AUXAAUXBAUXCAUXD",
        "id_x0_hpfCutoffFreq": 13.0,
        "id_x0_lpfCutoffFreq": 20010.0,
        "id_x0_stereoWidth": 1.0,
        "id_x1_hpfCutoffFreq": 13.0,
        "id_x1_lpfCutoffFreq": 20010.0,
        "id_x1_stereoWidth": 1.0,
        "id_x2_hpfCutoffFreq": 13.0,
        "id_x2_lpfCutoffFreq": 20010.0,
        "id_x2_stereoWidth": 1.0,
        "id_x3_hpfCutoffFreq": 13.0,
        "id_x3_lpfCutoffFreq": 20010.0,
        "id_x3_stereoWidth": 1.0,
        "panCvLevels": [
          1.0,
          1.0,
          1.0,
          1.0
        ]
      },
      "pos": [
        44,
        0
      ]
    },
    {
      "id": 264,
      "plugin": "CountModula",
      "version": "1.12.1",
      "model": "Comparator",
      "params": [
        {
          "id": 0,
          "value": 3.51000905
        }
      ],
      "leftModuleId": 265,
      "rightModuleId": 271,
      "data": {
        "moduleVersion": 2,
        "theme": 1
      },
      "pos": [
        41,
        1
      ]
    },
    {
      "id": 265,
      "plugin": "Fundamental",
      "version": "1.4.0",
      "model": "Scope",
      "params": [
        {
          "id": 0,
          "value": 0.0
        },
        {
          "id": 1,
          "value": 0.0
        },
        {
          "id": 2,
          "value": 0.0
        },
        {
          "id": 3,
          "value": 0.0
        },
        {
          "id": 4,
          "value": 13.4700041
        },
        {
          "id": 5,
          "value": 0.0
        },
        {
          "id": 6,
          "value": 0.0
        },
        {
          "id": 7,
          "value": 0.0
        }
      ],
      "rightModuleId": 264,
      "data": {
        "lissajous": 0,
        "external": 0
      },
      "pos": [
        28,
        1
      ]
    },
    {
      "id": 266,
      "plugin": "Bogaudio",
      "version": "1.1.34",
      "model": "Bogaudio-LLFO",
      "params": [
        {
          "id": 0,
          "value": 0.0
        },
        {
          "id": 1,
          "value": 1.0
        },
        {
          "id": 2,
          "value": 0.0
        },
        {
          "id": 3,
          "value": 0.0
        },
        {
          "id": 4,
          "value": 1.0
        }
      ],
      "data": {},
      "pos": [
        64,
        1
      ]
    },
    {
      "id": 267,
      "plugin": "VultModulesFree",
      "version": "1.12",
      "model": "Bleak",
      "params": [
        {
          "id": 0,
          "value": 0.0
        },
        {
          "id": 1,
          "value": -0.495000005
        },
        {
          "id": 2,
          "value": 0.601999998
        },
        {
          "id": 3,
          "value": -0.485999972
        },
        {
          "id": 4,
          "value": 0.33949998
        },
        {
          "id": 5,
          "value": 0.0
        }
      ],
      "rightModuleId": 268,
      "pos": [
        69,
        1
      ]
    },
    {
      "id": 268,
      "plugin": "VultModulesFree",
      "version": "1.12",
      "model": "Bleak",
      "params": [
        {
          "id": 0,
          "value": 0.0
        },
        {
          "id": 1,
          "value": -0.552000105
        },
        {
          "id": 2,
          "value": 0.552499473
        },
        {
          "id": 3,
          "value": 0.437999994
        },
        {
          "id": 4,
          "value": 0.694999933
        },
        {
          "id": 5,
          "value": 0.0
        }
      ],
      "leftModuleId": 267,
      "rightModuleId": 270,
      "pos": [
        75,
        1
      ]
    },
    {
      "id": 269,
      "plugin": "VultModulesFree",
      "version": "1.12",
      "model": "Tangents",
      "params": [
        {
          "id": 0,
          "value": 0.339499474
        },
        {
          "id": 1,
          "value": 0.337500095
        },
        {
          "id": 2,
          "value": 0.64800024
        },
        {
          "id": 3,
          "value": 0.0
        },
        {
          "id": 4,
          "value": 0.600000024
        },
        {
          "id": 5,
          "value": 0.0
        },
        {
          "id": 6,
          "value": 0.0
        }
      ],
      "leftModuleId": 270,
      "pos": [
        89,
        1
      ]
    },
    {
      "id": 270,
      "plugin": "CountModula",
      "version": "1.12.1",
      "model": "Mixer",
      "params": [
        {
          "id": 0,
          "value": 0.705499947
        },
        {
          "id": 1,
          "value": 0.844000161
        },
        {
          "id": 2,
          "value": 0.785000145
        },
        {
          "id": 3,
          "value": 0.786499798
        },
        {
          "id": 4,
          "value": 1.0
        },
        {
          "id": 5,
          "value": 0.623999655
        }
      ],
      "leftModuleId": 268,
      "rightModuleId": 269,
      "data": {
        "moduleVersion": 1,
        "theme": 1
      },
      "pos": [
        81,
        1
      ]
    },
    {
      "id": 271,
      "plugin": "Bogaudio",
      "version": "1.1.34",
      "model": "Bogaudio-Walk",
      "params": [
        {
          "id": 0,
          "value": 0.571001351
        },
        {
          "id": 1,
          "value": -0.233999684
        },
        {
          "id": 2,
          "value": 1.0
        }
      ],
      "leftModuleId": 264,
      "rightModuleId": 272,
      "data": {
        "poly_input": 0,
        "jump_mode": "jump"
      },
      "pos": [
        47,
        1
      ]
    },
    {
      "id": 272,
      "plugin": "Bogaudio",
      "version": "1.1.34",
      "model": "Bogaudio-SampleHold",
      "params": [
        {
          "id": 0,
          "value": 0.0
        },
        {
          "id": 1,
          "value": 0.0
        },
        {
          "id": 2,
          "value": 0.0
        },
        {
          "id": 3,
          "value": 0.0
        },
        {
          "id": 4,
          "value": 0.0
        },
        {
          "id": 5,
          "value": 0.0
        }
      ],
      "leftModuleId": 271,
      "rightModuleId": 273,
      "data": {
        "poly_input": 0,
        "noise_type": 0,
        "range_offset": 1.0,
        "range_scale": 5.0
      },
      "pos": [
        50,
        1
      ]
    },
    {
      "id": 273,
      "plugin": "JW-Modules",
      "version": "1.0.15",
      "model": "Quantizer",
      "params": [
        {
          "id": 0,
          "value": 7.0
        },
        {
          "id": 1,
          "value": 4.0
        }
      ],
      "leftModuleId": 272,
      "data": {},
      "pos": [
        53,
        1
      ]
    },
    {
      "id": 274,
      "plugin": "Bogaudio",
      "version": "1.1.34",
      "model": "Bogaudio-AddrSeq",
      "params": [
        {
          "id": 0,
          "value": 8.0
        },
        {
          "id": 1,
          "value": 1.0
        },
        {
          "id": 2,
          "value": 0.0
        },
        {
          "id": 3,
          "value": 0.213000014
        },
        {
          "id": 4,
          "value": -0.356999993
        },
        {
          "id": 5,
          "value": 0.522000074
        },
        {
          "id": 6,
          "value": -0.312000036
        },
        {
          "id": 7,
          "value": -0.186000004
        },
        {
          "id": 8,
          "value": 0.216000006
        },
        {
          "id": 9,
          "value": -0.210000008
        },
        {
          "id": 10,
          "value": 0.42899999
        }
      ],
      "leftModuleId": 281,
      "data": {
        "poly_input": 0,
        "select_on_clock": false,
        "triggered_select": false,
        "reverse_on_negative_clock": false,
        "range_offset": 0.0,
        "range_scale": 1.0
      },
      "pos": [
        20,
        1
      ]
    },
    {
      "id": 279,
      "plugin": "Bogaudio",
      "version": "1.1.34",
      "model": "Bogaudio-AddrSeq",
      "params": [
        {
          "id": 0,
          "value": 8.0
        },
        {
          "id": 1,
          "value": 1.0
        },
        {
          "id": 2,
          "value": 0.0
        },
        {
          "id": 3,
          "value": 0.213000014
        },
        {
          "id": 4,
          "value": -0.356999993
        },
        {
          "id": 5,
          "value": 0.522000074
        },
        {
          "id": 6,
          "value": -0.312000036
        },
        {
          "id": 7,
          "value": -0.186000004
        },
        {
          "id": 8,
          "value": 0.216000006
        },
        {
          "id": 9,
          "value": -0.210000008
        },
        {
          "id": 10,
          "value": 0.42899999
        }
      ],
      "leftModuleId": 288,
      "data": {
        "poly_input": 0,
        "select_on_clock": false,
        "triggered_select": false,
        "reverse_on_negative_clock": false,
        "range_offset": 0.0,
        "range_scale": 1.0
      },
      "pos": [
        20,
        2
      ]
    },
    {
      "id": 281,
      "plugin": "RJModules",
      "version": "1.7.2",
      "model": "Button",
      "params": [
        {
          "id": 0,
          "value": 0.0
        }
      ],
      "rightModuleId": 274,
      "pos": [
        10,
        1
      ]
    },
    {
      "id": 282,
      "plugin": "JW-Modules",
      "version": "1.0.15",
      "model": "GridSeq",
      "params": [
        {
          "id": 0,
          "value": 0.0
        },
        {
          "id": 1,
          "value": 0.0
        },
        {
          "id": 2,
          "value": 0.0
        },
        {
          "id": 3,
          "value": 7.91749668
        },
        {
          "id": 4,
          "value": 8.46576309
        },
        {
          "id": 5,
          "value": 2.92439818
        },
        {
          "id": 6,
          "value": 3.70261669
        },
        {
          "id": 7,
          "value": 9.54379749
        },
        {
          "id": 8,
          "value": 2.54785538
        },
        {
          "id": 9,
          "value": 0.873182416
        },
        {
          "id": 10,
          "value": 6.20796394
        },
        {
          "id": 11,
          "value": 0.925596356
        },
        {
          "id": 12,
          "value": 6.43959093
        },
        {
          "id": 13,
          "value": 3.35219193
        },
        {
          "id": 14,
          "value": 2.49512005
        },
        {
          "id": 15,
          "value": 6.49902391
        },
        {
          "id": 16,
          "value": 9.50666332
        },
        {
          "id": 17,
          "value": 7.9011507
        },
        {
          "id": 18,
          "value": 4.55947638
        },
        {
          "id": 19,
          "value": 0.0
        },
        {
          "id": 20,
          "value": 0.0
        },
        {
          "id": 21,
          "value": 0.0
        },
        {
          "id": 22,
          "value": 0.0
        },
        {
          "id": 23,
          "value": 0.0
        },
        {
          "id": 24,
          "value": 0.0
        },
        {
          "id": 25,
          "value": 0.0
        },
        {
          "id": 26,
          "value": 0.0
        },
        {
          "id": 27,
          "value": 0.0
        },
        {
          "id": 28,
          "value": 0.0
        },
        {
          "id": 29,
          "value": 0.0
        },
        {
          "id": 30,
          "value": 0.0
        },
        {
          "id": 31,
          "value": 0.0
        },
        {
          "id": 32,
          "value": 0.0
        },
        {
          "id": 33,
          "value": 0.0
        },
        {
          "id": 34,
          "value": 0.0
        },
        {
          "id": 35,
          "value": 0.0
        },
        {
          "id": 36,
          "value": 7.0
        },
        {
          "id": 37,
          "value": 4.0
        },
        {
          "id": 38,
          "value": 0.0
        },
        {
          "id": 39,
          "value": 0.0
        },
        {
          "id": 40,
          "value": 0.0
        },
        {
          "id": 41,
          "value": 0.0
        },
        {
          "id": 42,
          "value": 0.0
        },
        {
          "id": 43,
          "value": 0.0
        },
        {
          "id": 44,
          "value": 0.0
        },
        {
          "id": 45,
          "value": 3.0
        },
        {
          "id": 46,
          "value": -2.0
        }
      ],
      "rightModuleId": 283,
      "data": {
        "running": true,
        "ignoreGateOnPitchOut": false,
        "gates": [
          0,
          0,
          0,
          0,
          1,
          0,
          0,
          1,
          0,
          0,
          1,
          0,
          1,
          1,
          0,
          0
        ],
        "gateMode": 0
      },
      "pos": [
        31,
        2
      ]
    },
    {
      "id": 283,
      "plugin": "VultModulesFree",
      "version": "1.12",
      "model": "Basal",
      "params": [
        {
          "id": 0,
          "value": 0.0
        },
        {
          "id": 1,
          "value": 0.417000175
        },
        {
          "id": 2,
          "value": 0.0
        },
        {
          "id": 3,
          "value": 0.0
        },
        {
          "id": 4,
          "value": 0.0
        },
        {
          "id": 5,
          "value": 0.0
        }
      ],
      "leftModuleId": 282,
      "rightModuleId": 284,
      "pos": [
        51,
        2
      ]
    },
    {
      "id": 284,
      "plugin": "VultModulesFree",
      "version": "1.12",
      "model": "Basal",
      "params": [
        {
          "id": 0,
          "value": 0.0
        },
        {
          "id": 1,
          "value": 0.0
        },
        {
          "id": 2,
          "value": 0.0
        },
        {
          "id": 3,
          "value": 0.0
        },
        {
          "id": 4,
          "value": 0.0330000482
        },
        {
          "id": 5,
          "value": 0.0
        }
      ],
      "leftModuleId": 283,
      "rightModuleId": 285,
      "pos": [
        57,
        2
      ]
    },
    {
      "id": 285,
      "plugin": "VultModulesFree",
      "version": "1.12",
      "model": "Debriatus",
      "params": [
        {
          "id": 0,
          "value": 0.226500019
        },
        {
          "id": 1,
          "value": 0.0480000339
        },
        {
          "id": 2,
          "value": 0.0
        },
        {
          "id": 3,
          "value": 0.0779999122
        },
        {
          "id": 4,
          "value": 0.0
        },
        {
          "id": 5,
          "value": 0.0
        },
        {
          "id": 6,
          "value": 0.0
        },
        {
          "id": 7,
          "value": 0.0
        }
      ],
      "leftModuleId": 284,
      "rightModuleId": 286,
      "pos": [
        63,
        2
      ]
    },
    {
      "id": 286,
      "plugin": "Bogaudio",
      "version": "1.1.34",
      "model": "Bogaudio-ADSR",
      "params": [
        {
          "id": 0,
          "value": 0.141421005
        },
        {
          "id": 1,
          "value": 0.316229999
        },
        {
          "id": 2,
          "value": 0.724000156
        },
        {
          "id": 3,
          "value": 0.371730149
        },
        {
          "id": 4,
          "value": 0.0
        }
      ],
      "leftModuleId": 285,
      "rightModuleId": 287,
      "data": {
        "invert": 1.0
      },
      "pos": [
        73,
        2
      ]
    },
    {
      "id": 287,
      "plugin": "Grayscale",
      "version": "1.0.1",
      "model": "Supercell",
      "params": [
        {
          "id": 0,
          "value": 0.5
        },
        {
          "id": 1,
          "value": 0.5
        },
        {
          "id": 2,
          "value": 0.5
        },
        {
          "id": 3,
          "value": 0.282499671
        },
        {
          "id": 4,
          "value": 0.5
        },
        {
          "id": 5,
          "value": 0.0
        },
        {
          "id": 6,
          "value": 0.0
        },
        {
          "id": 7,
          "value": 0.0
        },
        {
          "id": 8,
          "value": 0.0
        },
        {
          "id": 9,
          "value": 0.0
        },
        {
          "id": 10,
          "value": 0.0
        },
        {
          "id": 11,
          "value": 1.27299988
        },
        {
          "id": 12,
          "value": 0.0
        },
        {
          "id": 13,
          "value": 0.5
        },
        {
          "id": 14,
          "value": 1.0
        },
        {
          "id": 15,
          "value": 0.634499907
        },
        {
          "id": 16,
          "value": 0.687999666
        },
        {
          "id": 17,
          "value": 0.0
        },
        {
          "id": 18,
          "value": 0.0
        },
        {
          "id": 19,
          "value": 0.0
        },
        {
          "id": 20,
          "value": 0.0
        },
        {
          "id": 21,
          "value": 0.0
        },
        {
          "id": 22,
          "value": 0.0
        },
        {
          "id": 23,
          "value": 0.0
        },
        {
          "id": 24,
          "value": 0.0
        },
        {
          "id": 25,
          "value": 0.0
        }
      ],
      "leftModuleId": 286,
      "data": {
        "playbackMode": 0,
        "quality": 0,
        "inMute": false,
        "outMute": false
      },
      "pos": [
        76,
        2
      ]
    },
    {
      "id": 288,
      "plugin": "ImpromptuModular",
      "version": "1.1.9",
      "model": "Clocked",
      "params": [
        {
          "id": 0,
          "value": 120.0
        },
        {
          "id": 1,
          "value": -1.0
        },
        {
          "id": 2,
          "value": -2.0
        },
        {
          "id": 3,
          "value": 5.0
        },
        {
          "id": 4,
          "value": 0.0
        },
        {
          "id": 5,
          "value": 0.0
        },
        {
          "id": 6,
          "value": 0.0
        },
        {
          "id": 7,
          "value": 0.0
        },
        {
          "id": 8,
          "value": 0.5
        },
        {
          "id": 9,
          "value": 0.5
        },
        {
          "id": 10,
          "value": 0.5
        },
        {
          "id": 11,
          "value": 0.5
        },
        {
          "id": 12,
          "value": 0.0
        },
        {
          "id": 13,
          "value": 0.0
        },
        {
          "id": 14,
          "value": 0.0
        },
        {
          "id": 15,
          "value": 0.0
        },
        {
          "id": 16,
          "value": 0.0
        },
        {
          "id": 17,
          "value": 0.0
        },
        {
          "id": 18,
          "value": 0.0
        },
        {
          "id": 19,
          "value": 0.0
        }
      ],
      "rightModuleId": 279,
      "data": {
        "panelTheme": 1,
        "running": true,
        "displayDelayNoteMode": true,
        "bpmDetectionMode": false,
        "resetOnStartStop": 0,
        "ppqn": 4,
        "resetClockOutputsHigh": true,
        "momentaryRunInput": true,
        "clockMaster": false
      },
      "pos": [
        0,
        2
      ]
    },
    {
      "id": 290,
      "plugin": "VultModulesFree",
      "version": "1.12",
      "model": "Trummor",
      "params": [
        {
          "id": 0,
          "value": 0.699999988
        },
        {
          "id": 1,
          "value": 0.100000001
        },
        {
          "id": 2,
          "value": 0.0
        },
        {
          "id": 3,
          "value": 0.200000003
        },
        {
          "id": 4,
          "value": 0.200000003
        },
        {
          "id": 5,
          "value": 0.0
        },
        {
          "id": 6,
          "value": 0.0500000007
        },
        {
          "id": 7,
          "value": 0.0500000007
        },
        {
          "id": 8,
          "value": 0.0
        },
        {
          "id": 9,
          "value": 0.5
        },
        {
          "id": 10,
          "value": 0.0
        },
        {
          "id": 11,
          "value": -0.699999988
        },
        {
          "id": 12,
          "value": 0.0
        },
        {
          "id": 13,
          "value": 0.0
        },
        {
          "id": 14,
          "value": 0.0
        },
        {
          "id": 15,
          "value": 0.0
        },
        {
          "id": 16,
          "value": 0.0
        },
        {
          "id": 17,
          "value": 0.0
        },
        {
          "id": 18,
          "value": 0.0
        },
        {
          "id": 19,
          "value": 0.0
        },
        {
          "id": 20,
          "value": 0.0
        }
      ],
      "pos": [
        18,
        3
      ]
    },
    {
      "id": 291,
      "plugin": "DrumKit",
      "version": "1.1.4",
      "model": "SnareDrumN",
      "params": [
        {
          "id": 0,
          "value": 9.0
        },
        {
          "id": 1,
          "value": 7.0
        },
        {
          "id": 2,
          "value": 0.0
        },
        {
          "id": 3,
          "value": 0.0
        },
        {
          "id": 4,
          "value": 0.0
        },
        {
          "id": 5,
          "value": 0.0
        },
        {
          "id": 6,
          "value": 0.0
        },
        {
          "id": 7,
          "value": 0.0
        },
        {
          "id": 8,
          "value": 0.0
        },
        {
          "id": 9,
          "value": 0.0
        },
        {
          "id": 10,
          "value": 0.0
        },
        {
          "id": 11,
          "value": 0.0
        },
        {
          "id": 12,
          "value": 0.0
        },
        {
          "id": 13,
          "value": 0.0
        },
        {
          "id": 14,
          "value": 0.0
        },
        {
          "id": 15,
          "value": 0.0
        },
        {
          "id": 16,
          "value": 0.668800354
        },
        {
          "id": 17,
          "value": 1.0
        },
        {
          "id": 18,
          "value": 0.0
        },
        {
          "id": 19,
          "value": 0.0
        },
        {
          "id": 20,
          "value": 0.0
        },
        {
          "id": 21,
          "value": 0.0
        },
        {
          "id": 22,
          "value": 0.0
        },
        {
          "id": 23,
          "value": 0.0
        },
        {
          "id": 24,
          "value": 0.0
        },
        {
          "id": 25,
          "value": 0.0
        },
        {
          "id": 26,
          "value": 0.0
        },
        {
          "id": 27,
          "value": 0.0
        },
        {
          "id": 28,
          "value": 0.0
        },
        {
          "id": 29,
          "value": 0.0
        },
        {
          "id": 30,
          "value": 0.0
        },
        {
          "id": 31,
          "value": 0.0
        }
      ],
      "pos": [
        39,
        3
      ]
    },
    {
      "id": 292,
      "plugin": "Core",
      "version": "1.1.6",
      "model": "Notes",
      "params": [],
      "leftModuleId": 11,
      "text": "Based on Omri Cohen\n\"What are comparators and a few ways of using them\"\n\nhttps://www.youtube.com/watch?v=icnTFlM6rCE&list=PLiECaNQx239tD6qSspeLhMKvhdUK1TE4U\n\nCreating Random Notes\n",
      "pos": [
        96,
        0
      ]
    }
  ],
  "cables": [
    {
      "id": 16,
      "outputModuleId": 13,
      "outputId": 2,
      "inputModuleId": 11,
      "inputId": 0,
      "color": "#c91847"
    },
    {
      "id": 17,
      "outputModuleId": 13,
      "outputId": 3,
      "inputModuleId": 11,
      "inputId": 1,
      "color": "#0986ad"
    },
    {
      "id": 18,
      "outputModuleId": 14,
      "outputId": 0,
      "inputModuleId": 12,
      "inputId": 0,
      "color": "#c9b70e"
    },
    {
      "id": 19,
      "outputModuleId": 14,
      "outputId": 4,
      "inputModuleId": 12,
      "inputId": 1,
      "color": "#0c8e15"
    },
    {
      "id": 20,
      "outputModuleId": 12,
      "outputId": 0,
      "inputModuleId": 14,
      "inputId": 0,
      "color": "#c91847"
    },
    {
      "id": 21,
      "outputModuleId": 12,
      "outputId": 1,
      "inputModuleId": 14,
      "inputId": 1,
      "color": "#0986ad"
    },
    {
      "id": 70,
      "outputModuleId": 267,
      "outputId": 0,
      "inputModuleId": 270,
      "inputId": 0,
      "color": "#0986ad"
    },
    {
      "id": 71,
      "outputModuleId": 268,
      "outputId": 0,
      "inputModuleId": 270,
      "inputId": 1,
      "color": "#0986ad"
    },
    {
      "id": 72,
      "outputModuleId": 270,
      "outputId": 0,
      "inputModuleId": 269,
      "inputId": 0,
      "color": "#c9b70e"
    },
    {
      "id": 73,
      "outputModuleId": 269,
      "outputId": 0,
      "inputModuleId": 13,
      "inputId": 0,
      "color": "#0c8e15"
    },
    {
      "id": 76,
      "outputModuleId": 271,
      "outputId": 0,
      "inputModuleId": 265,
      "inputId": 0,
      "color": "#0986ad"
    },
    {
      "id": 77,
      "outputModuleId": 271,
      "outputId": 0,
      "inputModuleId": 269,
      "inputId": 3,
      "color": "#c9b70e"
    },
    {
      "id": 79,
      "outputModuleId": 271,
      "outputId": 0,
      "inputModuleId": 264,
      "inputId": 1,
      "color": "#c91847"
    },
    {
      "id": 83,
      "outputModuleId": 273,
      "outputId": 0,
      "inputModuleId": 267,
      "inputId": 0,
      "color": "#c91847"
    },
    {
      "id": 84,
      "outputModuleId": 273,
      "outputId": 0,
      "inputModuleId": 268,
      "inputId": 0,
      "color": "#0986ad"
    },
    {
      "id": 82,
      "outputModuleId": 272,
      "outputId": 0,
      "inputModuleId": 273,
      "inputId": 2,
      "color": "#0c8e15"
    },
    {
      "id": 87,
      "outputModuleId": 274,
      "outputId": 0,
      "inputModuleId": 272,
      "inputId": 1,
      "color": "#c91847"
    },
    {
      "id": 89,
      "outputModuleId": 271,
      "outputId": 0,
      "inputModuleId": 267,
      "inputId": 1,
      "color": "#c9b70e"
    },
    {
      "id": 90,
      "outputModuleId": 271,
      "outputId": 0,
      "inputModuleId": 268,
      "inputId": 1,
      "color": "#0c8e15"
    },
    {
      "id": 88,
      "outputModuleId": 264,
      "outputId": 0,
      "inputModuleId": 274,
      "inputId": 0,
      "color": "#0986ad"
    },
    {
      "id": 81,
      "outputModuleId": 264,
      "outputId": 0,
      "inputModuleId": 272,
      "inputId": 0,
      "color": "#c9b70e"
    },
    {
      "id": 92,
      "outputModuleId": 264,
      "outputId": 1,
      "inputModuleId": 279,
      "inputId": 0,
      "color": "#0c8e15"
    },
    {
      "id": 100,
      "outputModuleId": 281,
      "outputId": 0,
      "inputModuleId": 274,
      "inputId": 1,
      "color": "#0986ad"
    },
    {
      "id": 101,
      "outputModuleId": 281,
      "outputId": 0,
      "inputModuleId": 279,
      "inputId": 1,
      "color": "#c9b70e"
    },
    {
      "id": 102,
      "outputModuleId": 270,
      "outputId": 0,
      "inputModuleId": 265,
      "inputId": 1,
      "color": "#0c8e15"
    },
    {
      "id": 103,
      "outputModuleId": 283,
      "outputId": 0,
      "inputModuleId": 285,
      "inputId": 0,
      "color": "#0c8e15"
    },
    {
      "id": 104,
      "outputModuleId": 284,
      "outputId": 0,
      "inputModuleId": 285,
      "inputId": 5,
      "color": "#c91847"
    },
    {
      "id": 105,
      "outputModuleId": 282,
      "outputId": 1,
      "inputModuleId": 283,
      "inputId": 0,
      "color": "#0986ad"
    },
    {
      "id": 106,
      "outputModuleId": 282,
      "outputId": 1,
      "inputModuleId": 284,
      "inputId": 0,
      "color": "#0986ad"
    },
    {
      "id": 107,
      "outputModuleId": 285,
      "outputId": 0,
      "inputModuleId": 287,
      "inputId": 6,
      "color": "#0c8e15"
    },
    {
      "id": 108,
      "outputModuleId": 285,
      "outputId": 1,
      "inputModuleId": 287,
      "inputId": 7,
      "color": "#c91847"
    },
    {
      "id": 109,
      "outputModuleId": 287,
      "outputId": 0,
      "inputModuleId": 13,
      "inputId": 4,
      "color": "#0986ad"
    },
    {
      "id": 111,
      "outputModuleId": 286,
      "outputId": 0,
      "inputModuleId": 287,
      "inputId": 0,
      "color": "#0c8e15"
    },
    {
      "id": 115,
      "outputModuleId": 287,
      "outputId": 1,
      "inputModuleId": 13,
      "inputId": 6,
      "color": "#c91847"
    },
    {
      "id": 118,
      "outputModuleId": 264,
      "outputId": 0,
      "inputModuleId": 286,
      "inputId": 0,
      "color": "#0c8e15"
    },
    {
      "id": 119,
      "outputModuleId": 264,
      "outputId": 0,
      "inputModuleId": 282,
      "inputId": 3,
      "color": "#c91847"
    },
    {
      "id": 120,
      "outputModuleId": 264,
      "outputId": 1,
      "inputModuleId": 282,
      "inputId": 5,
      "color": "#0986ad"
    },
    {
      "id": 121,
      "outputModuleId": 281,
      "outputId": 0,
      "inputModuleId": 282,
      "inputId": 2,
      "color": "#c9b70e"
    },
    {
      "id": 125,
      "outputModuleId": 288,
      "outputId": 0,
      "inputModuleId": 290,
      "inputId": 0,
      "color": "#c9b70e"
    },
    {
      "id": 127,
      "outputModuleId": 288,
      "outputId": 1,
      "inputModuleId": 291,
      "inputId": 16,
      "color": "#c91847"
    },
    {
      "id": 128,
      "outputModuleId": 291,
      "outputId": 0,
      "inputModuleId": 13,
      "inputId": 8,
      "color": "#0986ad"
    },
    {
      "id": 129,
      "outputModuleId": 288,
      "outputId": 2,
      "inputModuleId": 291,
      "inputId": 17,
      "color": "#c9b70e"
    },
    {
      "id": 126,
      "outputModuleId": 290,
      "outputId": 0,
      "inputModuleId": 13,
      "inputId": 10,
      "color": "#0c8e15"
    },
    {
      "id": 130,
      "outputModuleId": 291,
      "outputId": 1,
      "inputModuleId": 13,
      "inputId": 12,
      "color": "#0c8e15"
    }
  ]
}