{
  "version": "1.1.6",
  "modules": [
    {
      "id": 24,
      "plugin": "ImpromptuModular",
      "version": "1.1.9",
      "model": "Clocked",
      "params": [
        {
          "id": 0,
          "value": 85.0
        },
        {
          "id": 1,
          "value": 5.0
        },
        {
          "id": 2,
          "value": -4.0
        },
        {
          "id": 3,
          "value": -5.0
        },
        {
          "id": 4,
          "value": 0.0
        },
        {
          "id": 5,
          "value": 0.0
        },
        {
          "id": 6,
          "value": 0.0
        },
        {
          "id": 7,
          "value": 0.0
        },
        {
          "id": 8,
          "value": 0.5
        },
        {
          "id": 9,
          "value": 0.5
        },
        {
          "id": 10,
          "value": 0.5
        },
        {
          "id": 11,
          "value": 0.5
        },
        {
          "id": 12,
          "value": 0.0
        },
        {
          "id": 13,
          "value": 0.0
        },
        {
          "id": 14,
          "value": 0.0
        },
        {
          "id": 15,
          "value": 0.0
        },
        {
          "id": 16,
          "value": 0.0
        },
        {
          "id": 17,
          "value": 0.0
        },
        {
          "id": 18,
          "value": 0.0
        },
        {
          "id": 19,
          "value": 0.0
        }
      ],
      "rightModuleId": 114,
      "data": {
        "panelTheme": 1,
        "running": true,
        "displayDelayNoteMode": true,
        "bpmDetectionMode": false,
        "resetOnStartStop": 0,
        "ppqn": 4,
        "resetClockOutputsHigh": true,
        "momentaryRunInput": true,
        "clockMaster": true
      },
      "pos": [
        0,
        0
      ]
    },
    {
      "id": 25,
      "plugin": "Core",
      "version": "1.1.6",
      "model": "AudioInterface",
      "params": [],
      "leftModuleId": 126,
      "rightModuleId": 128,
      "data": {
        "audio": {
          "driver": 4,
          "deviceName": "system",
          "offset": 0,
          "maxChannels": 8,
          "sampleRate": 44100,
          "blockSize": 2048
        }
      },
      "pos": [
        107,
        0
      ]
    },
    {
      "id": 28,
      "plugin": "Valley",
      "version": "1.1.5",
      "model": "Plateau",
      "params": [
        {
          "id": 0,
          "value": 0.0
        },
        {
          "id": 1,
          "value": 1.0
        },
        {
          "id": 2,
          "value": 0.0
        },
        {
          "id": 3,
          "value": 8.66499901
        },
        {
          "id": 4,
          "value": 10.0
        },
        {
          "id": 5,
          "value": 0.5
        },
        {
          "id": 6,
          "value": 10.0
        },
        {
          "id": 7,
          "value": 0.475708216
        },
        {
          "id": 8,
          "value": 10.0
        },
        {
          "id": 9,
          "value": 7.43499994
        },
        {
          "id": 10,
          "value": 0.0
        },
        {
          "id": 11,
          "value": 0.5
        },
        {
          "id": 12,
          "value": 6.38000059
        },
        {
          "id": 13,
          "value": 0.0
        },
        {
          "id": 14,
          "value": 0.0
        },
        {
          "id": 15,
          "value": 0.0
        },
        {
          "id": 16,
          "value": 0.0
        },
        {
          "id": 17,
          "value": 0.0
        },
        {
          "id": 18,
          "value": 0.0
        },
        {
          "id": 19,
          "value": 0.0
        },
        {
          "id": 20,
          "value": 0.0
        },
        {
          "id": 21,
          "value": 0.0
        },
        {
          "id": 22,
          "value": 0.0
        },
        {
          "id": 23,
          "value": 0.0
        },
        {
          "id": 24,
          "value": 0.0
        },
        {
          "id": 25,
          "value": 0.0
        },
        {
          "id": 26,
          "value": 0.0
        },
        {
          "id": 27,
          "value": 0.0
        },
        {
          "id": 28,
          "value": 0.0
        },
        {
          "id": 29,
          "value": 0.0
        },
        {
          "id": 30,
          "value": 1.0
        }
      ],
      "leftModuleId": 115,
      "rightModuleId": 126,
      "data": {
        "frozen": false,
        "freezeToggle": false,
        "panelStyle": 0,
        "tuned": 0,
        "diffuseInput": 1,
        "preDelayCVSens": 0,
        "inputSensitivity": 0,
        "outputSaturation": 0
      },
      "pos": [
        86,
        0
      ]
    },
    {
      "id": 114,
      "plugin": "MindMeldModular",
      "version": "1.1.12",
      "model": "MixMasterJr",
      "params": [
        {
          "id": 0,
          "value": 1.0
        },
        {
          "id": 1,
          "value": 1.0
        },
        {
          "id": 2,
          "value": 1.0
        },
        {
          "id": 3,
          "value": 1.0
        },
        {
          "id": 4,
          "value": 1.0
        },
        {
          "id": 5,
          "value": 1.0
        },
        {
          "id": 6,
          "value": 1.0
        },
        {
          "id": 7,
          "value": 1.0
        },
        {
          "id": 8,
          "value": 1.0
        },
        {
          "id": 9,
          "value": 1.0
        },
        {
          "id": 10,
          "value": 0.5
        },
        {
          "id": 11,
          "value": 0.5
        },
        {
          "id": 12,
          "value": 0.5
        },
        {
          "id": 13,
          "value": 0.5
        },
        {
          "id": 14,
          "value": 0.5
        },
        {
          "id": 15,
          "value": 0.5
        },
        {
          "id": 16,
          "value": 0.5
        },
        {
          "id": 17,
          "value": 0.5
        },
        {
          "id": 18,
          "value": 0.5
        },
        {
          "id": 19,
          "value": 0.5
        },
        {
          "id": 20,
          "value": 0.0
        },
        {
          "id": 21,
          "value": 0.0
        },
        {
          "id": 22,
          "value": 0.0
        },
        {
          "id": 23,
          "value": 0.0
        },
        {
          "id": 24,
          "value": 0.0
        },
        {
          "id": 25,
          "value": 0.0
        },
        {
          "id": 26,
          "value": 0.0
        },
        {
          "id": 27,
          "value": 0.0
        },
        {
          "id": 28,
          "value": 0.0
        },
        {
          "id": 29,
          "value": 0.0
        },
        {
          "id": 30,
          "value": 0.0
        },
        {
          "id": 31,
          "value": 0.0
        },
        {
          "id": 32,
          "value": 0.0
        },
        {
          "id": 33,
          "value": 0.0
        },
        {
          "id": 34,
          "value": 0.0
        },
        {
          "id": 35,
          "value": 0.0
        },
        {
          "id": 36,
          "value": 1.0
        },
        {
          "id": 37,
          "value": 0.0
        },
        {
          "id": 38,
          "value": 0.0
        },
        {
          "id": 39,
          "value": 0.0
        },
        {
          "id": 40,
          "value": 0.0
        },
        {
          "id": 41,
          "value": 1.0
        },
        {
          "id": 42,
          "value": 0.0
        },
        {
          "id": 43,
          "value": 1.0
        },
        {
          "id": 44,
          "value": 0.0
        },
        {
          "id": 45,
          "value": 0.0
        },
        {
          "id": 46,
          "value": 0.0
        },
        {
          "id": 47,
          "value": 0.0
        },
        {
          "id": 48,
          "value": 0.0
        },
        {
          "id": 49,
          "value": 0.0
        },
        {
          "id": 50,
          "value": 0.0
        },
        {
          "id": 51,
          "value": 0.0
        },
        {
          "id": 52,
          "value": 13.0
        },
        {
          "id": 53,
          "value": 1000.0
        },
        {
          "id": 54,
          "value": 13.0
        },
        {
          "id": 55,
          "value": 13.0
        },
        {
          "id": 56,
          "value": 13.0
        },
        {
          "id": 57,
          "value": 367.333008
        },
        {
          "id": 58,
          "value": 13.0
        },
        {
          "id": 59,
          "value": 13.0
        },
        {
          "id": 60,
          "value": 20010.0
        },
        {
          "id": 61,
          "value": 20010.0
        },
        {
          "id": 62,
          "value": 20010.0
        },
        {
          "id": 63,
          "value": 20010.0
        },
        {
          "id": 64,
          "value": 20010.0
        },
        {
          "id": 65,
          "value": 20010.0
        },
        {
          "id": 66,
          "value": 20010.0
        },
        {
          "id": 67,
          "value": 20010.0
        },
        {
          "id": 68,
          "value": 13.0
        },
        {
          "id": 69,
          "value": 13.0
        },
        {
          "id": 70,
          "value": 20010.0
        },
        {
          "id": 71,
          "value": 20010.0
        }
      ],
      "leftModuleId": 24,
      "rightModuleId": 115,
      "data": {
        "trackLabels": "KICKNOISBASSSMPCDELYSNARBREV-08-GRP1GRP2",
        "panLawMono": 1,
        "panLawStereo": 1,
        "directOutsMode": 3,
        "directOutsSkipGroupedTracks": 0,
        "auxSendsMode": 3,
        "groupsControlTrackSendLevels": 0,
        "auxReturnsMutedWhenMainSolo": 0,
        "auxReturnsSolosMuteDry": 0,
        "chainMode": 1,
        "colorAndCloak": 117440512,
        "symmetricalFade": false,
        "fadeCvOutsWithVolCv": false,
        "linkBitMask": 0,
        "filterPos": 0,
        "groupedAuxReturnFeedbackProtection": 1,
        "ecoMode": 65535,
        "faders": [
          1.0,
          1.0,
          1.0,
          1.0,
          1.0,
          1.0,
          1.0,
          1.0,
          1.0,
          1.0
        ],
        "momentaryCvButtons": 1,
        "masterFaderScalesSends": 0,
        "linearVolCvInputs": 0,
        "id_t0_gainAdjust": 1.0,
        "id_t0_fadeRate": 0.0,
        "id_t0_fadeProfile": 0.0,
        "id_t0_directOutsMode": 3,
        "id_t0_auxSendsMode": 3,
        "id_t0_panLawStereo": 1,
        "id_t0_vuColorThemeLocal": 0,
        "id_t0_filterPos": 1,
        "id_t0_dispColorLocal": 0,
        "id_t0_polyStereo": 0,
        "id_t0_panCvLevel": 1.0,
        "id_t0_stereoWidth": 1.0,
        "id_t0_invertInput": 0,
        "id_t1_gainAdjust": 1.0,
        "id_t1_fadeRate": 0.0,
        "id_t1_fadeProfile": 0.0,
        "id_t1_directOutsMode": 3,
        "id_t1_auxSendsMode": 3,
        "id_t1_panLawStereo": 1,
        "id_t1_vuColorThemeLocal": 0,
        "id_t1_filterPos": 1,
        "id_t1_dispColorLocal": 0,
        "id_t1_polyStereo": 0,
        "id_t1_panCvLevel": 1.0,
        "id_t1_stereoWidth": 1.0,
        "id_t1_invertInput": 0,
        "id_t2_gainAdjust": 1.0,
        "id_t2_fadeRate": 0.0,
        "id_t2_fadeProfile": 0.0,
        "id_t2_directOutsMode": 3,
        "id_t2_auxSendsMode": 3,
        "id_t2_panLawStereo": 1,
        "id_t2_vuColorThemeLocal": 0,
        "id_t2_filterPos": 1,
        "id_t2_dispColorLocal": 0,
        "id_t2_polyStereo": 0,
        "id_t2_panCvLevel": 1.0,
        "id_t2_stereoWidth": 1.0,
        "id_t2_invertInput": 0,
        "id_t3_gainAdjust": 5.78096294,
        "id_t3_fadeRate": 0.0,
        "id_t3_fadeProfile": 0.0,
        "id_t3_directOutsMode": 3,
        "id_t3_auxSendsMode": 3,
        "id_t3_panLawStereo": 1,
        "id_t3_vuColorThemeLocal": 0,
        "id_t3_filterPos": 1,
        "id_t3_dispColorLocal": 0,
        "id_t3_polyStereo": 0,
        "id_t3_panCvLevel": 1.0,
        "id_t3_stereoWidth": 1.0,
        "id_t3_invertInput": 0,
        "id_t4_gainAdjust": 1.0,
        "id_t4_fadeRate": 0.0,
        "id_t4_fadeProfile": 0.0,
        "id_t4_directOutsMode": 3,
        "id_t4_auxSendsMode": 3,
        "id_t4_panLawStereo": 1,
        "id_t4_vuColorThemeLocal": 0,
        "id_t4_filterPos": 1,
        "id_t4_dispColorLocal": 0,
        "id_t4_polyStereo": 0,
        "id_t4_panCvLevel": 1.0,
        "id_t4_stereoWidth": 1.0,
        "id_t4_invertInput": 0,
        "id_t5_gainAdjust": 0.630957186,
        "id_t5_fadeRate": 0.0,
        "id_t5_fadeProfile": 0.0,
        "id_t5_directOutsMode": 3,
        "id_t5_auxSendsMode": 3,
        "id_t5_panLawStereo": 1,
        "id_t5_vuColorThemeLocal": 0,
        "id_t5_filterPos": 1,
        "id_t5_dispColorLocal": 0,
        "id_t5_polyStereo": 0,
        "id_t5_panCvLevel": 1.0,
        "id_t5_stereoWidth": 1.0,
        "id_t5_invertInput": 0,
        "id_t6_gainAdjust": 1.0,
        "id_t6_fadeRate": 0.0,
        "id_t6_fadeProfile": 0.0,
        "id_t6_directOutsMode": 3,
        "id_t6_auxSendsMode": 3,
        "id_t6_panLawStereo": 1,
        "id_t6_vuColorThemeLocal": 0,
        "id_t6_filterPos": 1,
        "id_t6_dispColorLocal": 0,
        "id_t6_polyStereo": 0,
        "id_t6_panCvLevel": 1.0,
        "id_t6_stereoWidth": 1.0,
        "id_t6_invertInput": 0,
        "id_t7_gainAdjust": 1.0,
        "id_t7_fadeRate": 0.0,
        "id_t7_fadeProfile": 0.0,
        "id_t7_directOutsMode": 3,
        "id_t7_auxSendsMode": 3,
        "id_t7_panLawStereo": 1,
        "id_t7_vuColorThemeLocal": 0,
        "id_t7_filterPos": 1,
        "id_t7_dispColorLocal": 0,
        "id_t7_polyStereo": 0,
        "id_t7_panCvLevel": 1.0,
        "id_t7_stereoWidth": 1.0,
        "id_t7_invertInput": 0,
        "id_g0_fadeRate": 0.0,
        "id_g0_fadeProfile": 0.0,
        "id_g0_directOutsMode": 3,
        "id_g0_auxSendsMode": 3,
        "id_g0_panLawStereo": 1,
        "id_g0_vuColorThemeLocal": 0,
        "id_g0_filterPos": 1,
        "id_g0_dispColorLocal": 0,
        "id_g0_panCvLevel": 1.0,
        "id_g0_stereoWidth": 1.0,
        "id_g1_fadeRate": 0.0,
        "id_g1_fadeProfile": 0.0,
        "id_g1_directOutsMode": 3,
        "id_g1_auxSendsMode": 3,
        "id_g1_panLawStereo": 1,
        "id_g1_vuColorThemeLocal": 0,
        "id_g1_filterPos": 1,
        "id_g1_dispColorLocal": 0,
        "id_g1_panCvLevel": 1.0,
        "id_g1_stereoWidth": 1.0,
        "dcBlock": false,
        "clipping": 0,
        "fadeRate": 0.0,
        "fadeProfile": 0.0,
        "vuColorThemeLocal": 0,
        "dispColorLocal": 0,
        "chainOnly": 0,
        "dimGain": 0.251190007,
        "masterLabel": "MASTER"
      },
      "pos": [
        20,
        0
      ]
    },
    {
      "id": 115,
      "plugin": "MindMeldModular",
      "version": "1.1.12",
      "model": "AuxExpanderJr",
      "params": [
        {
          "id": 0,
          "value": 0.0
        },
        {
          "id": 1,
          "value": 0.0
        },
        {
          "id": 2,
          "value": 0.0
        },
        {
          "id": 3,
          "value": 0.0
        },
        {
          "id": 4,
          "value": 0.284999967
        },
        {
          "id": 5,
          "value": 0.0
        },
        {
          "id": 6,
          "value": 0.0
        },
        {
          "id": 7,
          "value": 0.0
        },
        {
          "id": 8,
          "value": 0.238500044
        },
        {
          "id": 9,
          "value": 0.0
        },
        {
          "id": 10,
          "value": 0.0
        },
        {
          "id": 11,
          "value": 0.0
        },
        {
          "id": 12,
          "value": 0.405000031
        },
        {
          "id": 13,
          "value": 0.0
        },
        {
          "id": 14,
          "value": 0.0
        },
        {
          "id": 15,
          "value": 0.0
        },
        {
          "id": 16,
          "value": 0.376499951
        },
        {
          "id": 17,
          "value": 0.0
        },
        {
          "id": 18,
          "value": 0.0
        },
        {
          "id": 19,
          "value": 0.0
        },
        {
          "id": 20,
          "value": 0.341999978
        },
        {
          "id": 21,
          "value": 0.0
        },
        {
          "id": 22,
          "value": 0.0
        },
        {
          "id": 23,
          "value": 0.0
        },
        {
          "id": 24,
          "value": 0.439499766
        },
        {
          "id": 25,
          "value": 0.0
        },
        {
          "id": 26,
          "value": 0.0
        },
        {
          "id": 27,
          "value": 0.0
        },
        {
          "id": 28,
          "value": 0.0
        },
        {
          "id": 29,
          "value": 0.0
        },
        {
          "id": 30,
          "value": 0.0
        },
        {
          "id": 31,
          "value": 0.0
        },
        {
          "id": 32,
          "value": 0.0
        },
        {
          "id": 33,
          "value": 0.0
        },
        {
          "id": 34,
          "value": 0.0
        },
        {
          "id": 35,
          "value": 0.0
        },
        {
          "id": 36,
          "value": 0.0
        },
        {
          "id": 37,
          "value": 0.0
        },
        {
          "id": 38,
          "value": 0.0
        },
        {
          "id": 39,
          "value": 0.0
        },
        {
          "id": 40,
          "value": 0.0
        },
        {
          "id": 41,
          "value": 0.0
        },
        {
          "id": 42,
          "value": 0.0
        },
        {
          "id": 43,
          "value": 0.0
        },
        {
          "id": 44,
          "value": 0.0
        },
        {
          "id": 45,
          "value": 0.0
        },
        {
          "id": 46,
          "value": 0.0
        },
        {
          "id": 47,
          "value": 0.0
        },
        {
          "id": 48,
          "value": 0.0
        },
        {
          "id": 49,
          "value": 0.0
        },
        {
          "id": 50,
          "value": 0.0
        },
        {
          "id": 51,
          "value": 0.0
        },
        {
          "id": 52,
          "value": 0.0
        },
        {
          "id": 53,
          "value": 0.0
        },
        {
          "id": 54,
          "value": 0.0
        },
        {
          "id": 55,
          "value": 0.0
        },
        {
          "id": 56,
          "value": 0.0
        },
        {
          "id": 57,
          "value": 0.0
        },
        {
          "id": 58,
          "value": 0.0
        },
        {
          "id": 59,
          "value": 0.0
        },
        {
          "id": 60,
          "value": 0.0
        },
        {
          "id": 61,
          "value": 0.0
        },
        {
          "id": 62,
          "value": 1.0
        },
        {
          "id": 63,
          "value": 1.0
        },
        {
          "id": 64,
          "value": 1.0
        },
        {
          "id": 65,
          "value": 1.0
        },
        {
          "id": 66,
          "value": 0.5
        },
        {
          "id": 67,
          "value": 0.5
        },
        {
          "id": 68,
          "value": 0.5
        },
        {
          "id": 69,
          "value": 0.5
        },
        {
          "id": 70,
          "value": 1.0
        },
        {
          "id": 71,
          "value": 1.0
        },
        {
          "id": 72,
          "value": 1.0
        },
        {
          "id": 73,
          "value": 1.0
        }
      ],
      "leftModuleId": 114,
      "rightModuleId": 28,
      "data": {
        "directOutsModeLocal": 50529027,
        "panLawStereoLocal": 16843009,
        "vuColorThemeLocal": 0,
        "dispColorAuxLocal": [
          0,
          0,
          0,
          0
        ],
        "auxFadeRatesAndProfiles": [
          0.0,
          0.0,
          0.0,
          0.0,
          0.0,
          0.0,
          0.0,
          0.0
        ],
        "auxLabels": "VerbAUXBAUXCAUXD",
        "id_x0_hpfCutoffFreq": 198.556,
        "id_x0_lpfCutoffFreq": 20010.0,
        "id_x0_stereoWidth": 1.0,
        "id_x1_hpfCutoffFreq": 13.0,
        "id_x1_lpfCutoffFreq": 20010.0,
        "id_x1_stereoWidth": 1.0,
        "id_x2_hpfCutoffFreq": 13.0,
        "id_x2_lpfCutoffFreq": 20010.0,
        "id_x2_stereoWidth": 1.0,
        "id_x3_hpfCutoffFreq": 13.0,
        "id_x3_lpfCutoffFreq": 20010.0,
        "id_x3_stereoWidth": 1.0,
        "panCvLevels": [
          1.0,
          1.0,
          1.0,
          1.0
        ]
      },
      "pos": [
        56,
        0
      ]
    },
    {
      "id": 126,
      "plugin": "MindMeldModular",
      "version": "1.1.12",
      "model": "BassMaster",
      "params": [
        {
          "id": 0,
          "value": 120.0
        },
        {
          "id": 1,
          "value": 0.0
        },
        {
          "id": 2,
          "value": 0.0
        },
        {
          "id": 3,
          "value": 1.0
        },
        {
          "id": 4,
          "value": 0.0
        },
        {
          "id": 5,
          "value": 0.0
        },
        {
          "id": 6,
          "value": 0.0
        },
        {
          "id": 7,
          "value": 0.0
        },
        {
          "id": 8,
          "value": 0.0
        },
        {
          "id": 9,
          "value": 0.0
        },
        {
          "id": 10,
          "value": 1.0
        }
      ],
      "leftModuleId": 28,
      "rightModuleId": 25,
      "data": {
        "miscSettings": 0
      },
      "pos": [
        98,
        0
      ]
    },
    {
      "id": 128,
      "plugin": "Stoermelder-P1",
      "version": "1.8.0",
      "model": "Mb",
      "params": [],
      "leftModuleId": 25,
      "data": {
        "mode": 1
      },
      "pos": [
        117,
        0
      ]
    },
    {
      "id": 255,
      "plugin": "RareBreeds_Orbits",
      "version": "1.1.0",
      "model": "RareBreeds_Orbits_Eugene",
      "params": [
        {
          "id": 0,
          "value": 15.3530016
        },
        {
          "id": 1,
          "value": 0.262499958
        },
        {
          "id": 2,
          "value": 0.0
        },
        {
          "id": 3,
          "value": 0.0
        },
        {
          "id": 4,
          "value": 0.0
        },
        {
          "id": 5,
          "value": 0.0
        },
        {
          "id": 6,
          "value": 0.0
        },
        {
          "id": 7,
          "value": 0.0
        }
      ],
      "rightModuleId": 256,
      "pos": [
        0,
        1
      ]
    },
    {
      "id": 256,
      "plugin": "VultModulesFree",
      "version": "1.14",
      "model": "Trummor2",
      "params": [
        {
          "id": 0,
          "value": 0.0500000007
        },
        {
          "id": 1,
          "value": 0.142999947
        },
        {
          "id": 2,
          "value": 0.0
        },
        {
          "id": 3,
          "value": 0.0
        },
        {
          "id": 4,
          "value": 0.0
        },
        {
          "id": 5,
          "value": 0.0
        },
        {
          "id": 6,
          "value": 0.0
        },
        {
          "id": 7,
          "value": 0.200000003
        },
        {
          "id": 8,
          "value": 0.400000006
        },
        {
          "id": 9,
          "value": 0.0
        },
        {
          "id": 10,
          "value": 0.0
        },
        {
          "id": 11,
          "value": 0.699999988
        },
        {
          "id": 12,
          "value": 0.100000001
        },
        {
          "id": 13,
          "value": 0.0
        },
        {
          "id": 14,
          "value": 0.0
        },
        {
          "id": 15,
          "value": 0.949999988
        },
        {
          "id": 16,
          "value": 0.0
        },
        {
          "id": 17,
          "value": 0.0
        },
        {
          "id": 18,
          "value": 0.0
        },
        {
          "id": 19,
          "value": 0.0500000007
        },
        {
          "id": 20,
          "value": 0.0500000007
        },
        {
          "id": 21,
          "value": 0.0
        },
        {
          "id": 22,
          "value": 0.0
        },
        {
          "id": 23,
          "value": 0.365499794
        },
        {
          "id": 24,
          "value": 0.0
        },
        {
          "id": 25,
          "value": 0.0
        },
        {
          "id": 26,
          "value": 0.0
        },
        {
          "id": 27,
          "value": 0.0
        },
        {
          "id": 28,
          "value": 0.0
        },
        {
          "id": 29,
          "value": 0.0
        },
        {
          "id": 30,
          "value": 0.0
        },
        {
          "id": 31,
          "value": 0.0
        },
        {
          "id": 32,
          "value": 0.0
        }
      ],
      "leftModuleId": 255,
      "rightModuleId": 257,
      "data": {
        "mod_a": 0,
        "mod_b": 0,
        "mod_c": 0,
        "mod_d": 0,
        "mk2": true
      },
      "pos": [
        12,
        1
      ]
    },
    {
      "id": 257,
      "plugin": "AlrightDevices",
      "version": "1.0.3",
      "model": "Chronoblob2",
      "params": [
        {
          "id": 0,
          "value": 0.5
        },
        {
          "id": 1,
          "value": 0.5
        },
        {
          "id": 2,
          "value": 1.0
        },
        {
          "id": 3,
          "value": 0.0
        },
        {
          "id": 4,
          "value": 0.0
        },
        {
          "id": 5,
          "value": 0.237000108
        },
        {
          "id": 6,
          "value": 0.0
        },
        {
          "id": 7,
          "value": 0.0
        },
        {
          "id": 8,
          "value": 1.0
        },
        {
          "id": 9,
          "value": 0.0
        }
      ],
      "leftModuleId": 256,
      "data": {
        "delay_mode": 1,
        "hold_behavior": 0,
        "sync_prescaler": 6
      },
      "pos": [
        32,
        1
      ]
    },
    {
      "id": 260,
      "plugin": "Core",
      "version": "1.1.6",
      "model": "MIDIToCVInterface",
      "params": [],
      "rightModuleId": 290,
      "data": {
        "channels": 6,
        "polyMode": 2,
        "clockDivision": 24,
        "lastPitch": 8192,
        "lastMod": 0,
        "midi": {
          "driver": 2,
          "channel": -1
        }
      },
      "pos": [
        47,
        1
      ]
    },
    {
      "id": 266,
      "plugin": "az",
      "version": "1.1.1",
      "model": "modulo",
      "params": [
        {
          "id": 0,
          "value": 1.0
        },
        {
          "id": 1,
          "value": 0.0
        },
        {
          "id": 2,
          "value": 0.0
        },
        {
          "id": 3,
          "value": 1.0
        },
        {
          "id": 4,
          "value": 0.0
        },
        {
          "id": 5,
          "value": 1.0
        },
        {
          "id": 6,
          "value": 0.0
        },
        {
          "id": 7,
          "value": 0.0
        },
        {
          "id": 8,
          "value": 0.0
        },
        {
          "id": 9,
          "value": 0.0
        },
        {
          "id": 10,
          "value": 1.0
        },
        {
          "id": 11,
          "value": 0.0
        },
        {
          "id": 12,
          "value": 0.0
        },
        {
          "id": 13,
          "value": 0.0
        },
        {
          "id": 14,
          "value": 0.0
        },
        {
          "id": 15,
          "value": 1.0
        },
        {
          "id": 16,
          "value": 0.0
        },
        {
          "id": 17,
          "value": 1.0
        },
        {
          "id": 18,
          "value": 0.0
        },
        {
          "id": 19,
          "value": 0.0
        },
        {
          "id": 20,
          "value": 0.0
        },
        {
          "id": 21,
          "value": 0.0
        },
        {
          "id": 22,
          "value": 0.0
        },
        {
          "id": 23,
          "value": 0.0
        },
        {
          "id": 24,
          "value": 0.0
        },
        {
          "id": 25,
          "value": 0.0
        },
        {
          "id": 26,
          "value": 0.0
        },
        {
          "id": 27,
          "value": 0.0
        },
        {
          "id": 28,
          "value": 0.0
        },
        {
          "id": 29,
          "value": 0.0
        },
        {
          "id": 30,
          "value": 0.0
        },
        {
          "id": 31,
          "value": 0.0
        },
        {
          "id": 32,
          "value": 0.0
        },
        {
          "id": 33,
          "value": 0.0
        },
        {
          "id": 34,
          "value": 0.0
        },
        {
          "id": 35,
          "value": 0.0
        },
        {
          "id": 36,
          "value": 0.0
        },
        {
          "id": 37,
          "value": 4.0
        },
        {
          "id": 38,
          "value": 0.0
        },
        {
          "id": 39,
          "value": 5.0
        },
        {
          "id": 40,
          "value": 1.0
        },
        {
          "id": 41,
          "value": 1.0
        },
        {
          "id": 42,
          "value": 0.0
        }
      ],
      "rightModuleId": 269,
      "pos": [
        0,
        2
      ]
    },
    {
      "id": 269,
      "plugin": "LifeFormModular",
      "version": "1.1",
      "model": "PercussiveVibration",
      "params": [
        {
          "id": 0,
          "value": 7.0
        },
        {
          "id": 1,
          "value": 0.0
        },
        {
          "id": 2,
          "value": 0.17320013
        },
        {
          "id": 3,
          "value": 1.0
        },
        {
          "id": 4,
          "value": 0.0
        },
        {
          "id": 5,
          "value": 0.0
        },
        {
          "id": 6,
          "value": 0.769000173
        },
        {
          "id": 7,
          "value": 0.0
        },
        {
          "id": 8,
          "value": 0.0
        },
        {
          "id": 9,
          "value": 0.0
        },
        {
          "id": 10,
          "value": 0.0
        },
        {
          "id": 11,
          "value": 0.0
        },
        {
          "id": 12,
          "value": 0.157499984
        },
        {
          "id": 13,
          "value": 0.0
        },
        {
          "id": 14,
          "value": 0.0
        },
        {
          "id": 15,
          "value": 0.0
        },
        {
          "id": 16,
          "value": 0.0
        },
        {
          "id": 17,
          "value": 0.0
        },
        {
          "id": 18,
          "value": 0.0
        },
        {
          "id": 19,
          "value": 0.0
        },
        {
          "id": 20,
          "value": 0.180900007
        },
        {
          "id": 21,
          "value": 0.0
        },
        {
          "id": 22,
          "value": 0.0
        },
        {
          "id": 23,
          "value": 0.467999935
        },
        {
          "id": 24,
          "value": 0.0
        },
        {
          "id": 25,
          "value": 0.0
        }
      ],
      "leftModuleId": 266,
      "pos": [
        18,
        2
      ]
    },
    {
      "id": 271,
      "plugin": "Core",
      "version": "1.1.6",
      "model": "MIDIToCVInterface",
      "params": [],
      "data": {
        "channels": 6,
        "polyMode": 2,
        "clockDivision": 24,
        "lastPitch": 8192,
        "lastMod": 127,
        "midi": {
          "driver": 2,
          "deviceName": "Arturia MiniLab mkII:Arturia MiniLab mkII MIDI 1 28:0",
          "channel": 0
        }
      },
      "pos": [
        47,
        2
      ]
    },
    {
      "id": 275,
      "plugin": "Fundamental",
      "version": "1.4.0",
      "model": "Delay",
      "params": [
        {
          "id": 0,
          "value": 0.980499864
        },
        {
          "id": 1,
          "value": 1.0
        },
        {
          "id": 2,
          "value": 0.5
        },
        {
          "id": 3,
          "value": 0.5
        }
      ],
      "rightModuleId": 276,
      "pos": [
        74,
        2
      ]
    },
    {
      "id": 276,
      "plugin": "Fundamental",
      "version": "1.4.0",
      "model": "Delay",
      "params": [
        {
          "id": 0,
          "value": 1.0
        },
        {
          "id": 1,
          "value": 1.0
        },
        {
          "id": 2,
          "value": 0.5
        },
        {
          "id": 3,
          "value": 0.5
        }
      ],
      "leftModuleId": 275,
      "pos": [
        82,
        2
      ]
    },
    {
      "id": 279,
      "plugin": "AlrightDevices",
      "version": "1.0.3",
      "model": "Chronoblob2",
      "params": [
        {
          "id": 0,
          "value": 0.555499971
        },
        {
          "id": 1,
          "value": 0.149999991
        },
        {
          "id": 2,
          "value": 0.327499777
        },
        {
          "id": 3,
          "value": 0.0
        },
        {
          "id": 4,
          "value": 0.0
        },
        {
          "id": 5,
          "value": 0.0
        },
        {
          "id": 6,
          "value": 0.0
        },
        {
          "id": 7,
          "value": 0.0
        },
        {
          "id": 8,
          "value": 0.0
        },
        {
          "id": 9,
          "value": 0.0
        }
      ],
      "leftModuleId": 284,
      "rightModuleId": 286,
      "data": {
        "delay_mode": 3,
        "hold_behavior": 0,
        "sync_prescaler": 6
      },
      "pos": [
        18,
        3
      ]
    },
    {
      "id": 282,
      "plugin": "Bogaudio",
      "version": "1.1.35",
      "model": "Bogaudio-Noise",
      "params": [],
      "rightModuleId": 285,
      "data": {
        "poly_channels": 1
      },
      "pos": [
        0,
        3
      ]
    },
    {
      "id": 283,
      "plugin": "Fundamental",
      "version": "1.4.0",
      "model": "VCA-1",
      "params": [
        {
          "id": 0,
          "value": 1.0
        },
        {
          "id": 1,
          "value": 1.0
        }
      ],
      "leftModuleId": 285,
      "rightModuleId": 284,
      "pos": [
        13,
        3
      ]
    },
    {
      "id": 284,
      "plugin": "NYSTHI",
      "version": "1.0.17",
      "model": "AttackDecay",
      "params": [
        {
          "id": 0,
          "value": 0.0
        },
        {
          "id": 1,
          "value": 0.0909999907
        },
        {
          "id": 2,
          "value": 0.0
        },
        {
          "id": 3,
          "value": 1.0
        },
        {
          "id": 4,
          "value": 0.5
        },
        {
          "id": 5,
          "value": 0.0
        }
      ],
      "leftModuleId": 283,
      "rightModuleId": 279,
      "data": {
        "m_looped": false
      },
      "pos": [
        16,
        3
      ]
    },
    {
      "id": 285,
      "plugin": "VultModulesFree",
      "version": "1.14",
      "model": "Tangents",
      "params": [
        {
          "id": 0,
          "value": 0.794093192
        },
        {
          "id": 1,
          "value": 0.491499603
        },
        {
          "id": 2,
          "value": 0.0
        },
        {
          "id": 3,
          "value": 0.0
        },
        {
          "id": 4,
          "value": 0.600000024
        },
        {
          "id": 5,
          "value": 0.0
        },
        {
          "id": 6,
          "value": 0.0
        }
      ],
      "leftModuleId": 282,
      "rightModuleId": 283,
      "pos": [
        3,
        3
      ]
    },
    {
      "id": 286,
      "plugin": "NANOModules",
      "version": "1.6.0.2",
      "model": "FONT",
      "params": [
        {
          "id": 0,
          "value": 0.342000037
        },
        {
          "id": 1,
          "value": 12.0960054
        },
        {
          "id": 2,
          "value": 0.365999967
        },
        {
          "id": 3,
          "value": 0.0
        }
      ],
      "leftModuleId": 279,
      "rightModuleId": 287,
      "pos": [
        30,
        3
      ]
    },
    {
      "id": 287,
      "plugin": "Bogaudio",
      "version": "1.1.35",
      "model": "Bogaudio-LLFO",
      "params": [
        {
          "id": 0,
          "value": -0.897000015
        },
        {
          "id": 1,
          "value": 1.0
        },
        {
          "id": 2,
          "value": 1.0
        },
        {
          "id": 3,
          "value": 0.0
        },
        {
          "id": 4,
          "value": 1.0
        }
      ],
      "leftModuleId": 286,
      "data": {},
      "pos": [
        36,
        3
      ]
    },
    {
      "id": 290,
      "plugin": "Bogaudio",
      "version": "1.1.35",
      "model": "Bogaudio-FMOp",
      "params": [
        {
          "id": 0,
          "value": 0.0
        },
        {
          "id": 1,
          "value": 0.0
        },
        {
          "id": 2,
          "value": 0.0619209409
        },
        {
          "id": 3,
          "value": 0.316229999
        },
        {
          "id": 4,
          "value": 1.0
        },
        {
          "id": 5,
          "value": 0.316229999
        },
        {
          "id": 6,
          "value": 0.0
        },
        {
          "id": 7,
          "value": 0.0
        },
        {
          "id": 8,
          "value": 1.0
        },
        {
          "id": 9,
          "value": 1.0
        },
        {
          "id": 10,
          "value": 0.0
        },
        {
          "id": 11,
          "value": 0.0
        }
      ],
      "leftModuleId": 260,
      "data": {
        "linearLevel": false
      },
      "pos": [
        55,
        1
      ]
    },
    {
      "id": 291,
      "plugin": "NYSTHI",
      "version": "1.0.17",
      "model": "Simpliciter",
      "params": [
        {
          "id": 0,
          "value": 1.0
        },
        {
          "id": 1,
          "value": 0.0
        },
        {
          "id": 2,
          "value": 0.0
        },
        {
          "id": 3,
          "value": 0.0
        },
        {
          "id": 4,
          "value": 1.0
        },
        {
          "id": 5,
          "value": 0.0
        },
        {
          "id": 6,
          "value": 0.0
        },
        {
          "id": 7,
          "value": 0.0
        },
        {
          "id": 8,
          "value": 0.0
        },
        {
          "id": 9,
          "value": 0.0
        },
        {
          "id": 10,
          "value": 0.0
        },
        {
          "id": 11,
          "value": 1.0
        },
        {
          "id": 12,
          "value": 2.0
        },
        {
          "id": 13,
          "value": 0.0
        },
        {
          "id": 14,
          "value": 0.0
        },
        {
          "id": 15,
          "value": 0.0
        },
        {
          "id": 16,
          "value": 0.0
        },
        {
          "id": 17,
          "value": 0.0
        },
        {
          "id": 18,
          "value": 0.0
        },
        {
          "id": 19,
          "value": 0.0
        },
        {
          "id": 20,
          "value": 0.0
        },
        {
          "id": 21,
          "value": 0.0
        },
        {
          "id": 22,
          "value": 0.0
        },
        {
          "id": 23,
          "value": 0.0
        },
        {
          "id": 24,
          "value": 0.0
        },
        {
          "id": 25,
          "value": 0.0
        },
        {
          "id": 26,
          "value": 0.0
        },
        {
          "id": 27,
          "value": 0.0
        },
        {
          "id": 28,
          "value": 0.5
        },
        {
          "id": 29,
          "value": 0.0
        },
        {
          "id": 30,
          "value": 1.0
        },
        {
          "id": 31,
          "value": 1.0
        },
        {
          "id": 32,
          "value": 1.0
        },
        {
          "id": 33,
          "value": 0.0
        },
        {
          "id": 34,
          "value": 0.0
        },
        {
          "id": 35,
          "value": 0.0
        },
        {
          "id": 36,
          "value": 0.0
        },
        {
          "id": 37,
          "value": 0.0
        },
        {
          "id": 38,
          "value": 0.0
        }
      ],
      "data": {
        "m_declick_starts": true,
        "m_declick_ends": true,
        "m_declick_starts_linear": false,
        "m_declick_ends_linear": false,
        "m_wants_xfading_startend": false,
        "m_wants_START_STOP_smoothers": true,
        "m_autoplay_on_load": true,
        "m_dragging_scratches": false,
        "m_smoothing_seconds": 1.0,
        "m_original_file_name": "/home/mint/.Rack/recordings/Simpliciter/20210119_190902_jVBuMp.wav",
        "m_cycled": true,
        "m_waveform": 0,
        "m_grid_mode": false,
        "m_peak_grid_mode": false,
        "m_slices": 1,
        "m_curr_slice": 1,
        "m_show_channels": 0,
        "m_video_inverted": false,
        "m_show_time_mode": 0,
        "slice_start": 0,
        "slice_end": 789193,
        "m_delays_at_work": 1,
        "m_cv_can_be_negative": false,
        "m_busy_mode": false,
        "m_start_and_lenght_mode": false,
        "m_peak_threshold": 5,
        "m_peak_msecs_closeness": 200,
        "m_peakCV_mutiplier": 10,
        "m_peakCV_smoother": 1,
        "m_select_old_style": false,
        "m_prerecording_mode": false,
        "m_prerecording_time": 2.0,
        "m_ramp_out_is_relative_to_full_size": false,
        "m_kfs_vector": []
      },
      "pos": [
        71,
        1
      ]
    },
    {
      "id": 292,
      "plugin": "23volts",
      "version": "1.1.5",
      "model": "Split4",
      "params": [],
      "leftModuleId": 295,
      "pos": [
        69,
        2
      ]
    },
    {
      "id": 293,
      "plugin": "VultModulesFree",
      "version": "1.14",
      "model": "Basal",
      "params": [
        {
          "id": 0,
          "value": 0.0
        },
        {
          "id": 1,
          "value": -0.156000093
        },
        {
          "id": 2,
          "value": 0.286500096
        },
        {
          "id": 3,
          "value": 0.0
        },
        {
          "id": 4,
          "value": 0.247500032
        },
        {
          "id": 5,
          "value": 0.32099998
        }
      ],
      "rightModuleId": 294,
      "pos": [
        57,
        2
      ]
    },
    {
      "id": 294,
      "plugin": "Bogaudio",
      "version": "1.1.35",
      "model": "Bogaudio-ADSR",
      "params": [
        {
          "id": 0,
          "value": 0.54342103
        },
        {
          "id": 1,
          "value": 0.63872993
        },
        {
          "id": 2,
          "value": 1.0
        },
        {
          "id": 3,
          "value": 0.649230003
        },
        {
          "id": 4,
          "value": 0.0
        }
      ],
      "leftModuleId": 293,
      "rightModuleId": 295,
      "data": {
        "invert": 1.0
      },
      "pos": [
        63,
        2
      ]
    },
    {
      "id": 295,
      "plugin": "Fundamental",
      "version": "1.4.0",
      "model": "VCA-1",
      "params": [
        {
          "id": 0,
          "value": 1.0
        },
        {
          "id": 1,
          "value": 1.0
        }
      ],
      "leftModuleId": 294,
      "rightModuleId": 292,
      "pos": [
        66,
        2
      ]
    },
    {
      "id": 296,
      "plugin": "NYSTHI",
      "version": "1.0.17",
      "model": "Simpliciter",
      "params": [
        {
          "id": 0,
          "value": 1.0
        },
        {
          "id": 1,
          "value": 0.0
        },
        {
          "id": 2,
          "value": 0.352500021
        },
        {
          "id": 3,
          "value": 0.0
        },
        {
          "id": 4,
          "value": 4.75724936
        },
        {
          "id": 5,
          "value": 0.0185624827
        },
        {
          "id": 6,
          "value": 0.0
        },
        {
          "id": 7,
          "value": 0.0
        },
        {
          "id": 8,
          "value": 0.0
        },
        {
          "id": 9,
          "value": 0.0
        },
        {
          "id": 10,
          "value": 0.0
        },
        {
          "id": 11,
          "value": 1.0
        },
        {
          "id": 12,
          "value": 2.0
        },
        {
          "id": 13,
          "value": 0.0
        },
        {
          "id": 14,
          "value": 0.0
        },
        {
          "id": 15,
          "value": 0.0
        },
        {
          "id": 16,
          "value": 0.0
        },
        {
          "id": 17,
          "value": 0.0
        },
        {
          "id": 18,
          "value": 0.0
        },
        {
          "id": 19,
          "value": 0.0
        },
        {
          "id": 20,
          "value": 0.0
        },
        {
          "id": 21,
          "value": 0.0
        },
        {
          "id": 22,
          "value": 0.0
        },
        {
          "id": 23,
          "value": 0.0
        },
        {
          "id": 24,
          "value": 0.0
        },
        {
          "id": 25,
          "value": 0.0
        },
        {
          "id": 26,
          "value": 0.0
        },
        {
          "id": 27,
          "value": 0.0
        },
        {
          "id": 28,
          "value": 0.5
        },
        {
          "id": 29,
          "value": 0.0
        },
        {
          "id": 30,
          "value": 1.0
        },
        {
          "id": 31,
          "value": 1.0
        },
        {
          "id": 32,
          "value": 1.0
        },
        {
          "id": 33,
          "value": 0.0
        },
        {
          "id": 34,
          "value": 0.0
        },
        {
          "id": 35,
          "value": 0.0
        },
        {
          "id": 36,
          "value": 0.0
        },
        {
          "id": 37,
          "value": 0.0
        },
        {
          "id": 38,
          "value": 0.0
        }
      ],
      "data": {
        "m_declick_starts": true,
        "m_declick_ends": true,
        "m_declick_starts_linear": false,
        "m_declick_ends_linear": false,
        "m_wants_xfading_startend": false,
        "m_wants_START_STOP_smoothers": true,
        "m_autoplay_on_load": true,
        "m_dragging_scratches": false,
        "m_smoothing_seconds": 1.0,
        "m_original_file_name": "/home/mint/.Rack/recordings/Simpliciter/20210119_190941_CACTUu.wav",
        "m_cycled": true,
        "m_waveform": 0,
        "m_grid_mode": false,
        "m_peak_grid_mode": false,
        "m_slices": 1,
        "m_curr_slice": 1,
        "m_show_channels": 0,
        "m_video_inverted": false,
        "m_show_time_mode": 0,
        "slice_start": 0,
        "slice_end": 394753,
        "m_delays_at_work": 1,
        "m_cv_can_be_negative": false,
        "m_busy_mode": false,
        "m_start_and_lenght_mode": false,
        "m_peak_threshold": 5,
        "m_peak_msecs_closeness": 200,
        "m_peakCV_mutiplier": 10,
        "m_peakCV_smoother": 1,
        "m_select_old_style": false,
        "m_prerecording_mode": false,
        "m_prerecording_time": 2.0,
        "m_ramp_out_is_relative_to_full_size": false,
        "m_kfs_vector": []
      },
      "pos": [
        93,
        2
      ]
    },
    {
      "id": 297,
      "plugin": "Core",
      "version": "1.1.6",
      "model": "Notes",
      "params": [],
      "text": "Omri Cohen\n\nHow to Live Loop in VCV Rack\n\nusing Simpliciter and Delay\n\nhttps://youtu.be/MTgYuQyQb_U\n\n\n",
      "pos": [
        103,
        1
      ]
    }
  ],
  "cables": [
    {
      "id": 204,
      "outputModuleId": 115,
      "outputId": 0,
      "inputModuleId": 28,
      "inputId": 0,
      "color": "#c91847"
    },
    {
      "id": 205,
      "outputModuleId": 115,
      "outputId": 4,
      "inputModuleId": 28,
      "inputId": 1,
      "color": "#c91847"
    },
    {
      "id": 206,
      "outputModuleId": 28,
      "outputId": 0,
      "inputModuleId": 115,
      "inputId": 0,
      "color": "#c91847"
    },
    {
      "id": 207,
      "outputModuleId": 28,
      "outputId": 1,
      "inputModuleId": 115,
      "inputId": 1,
      "color": "#c91847"
    },
    {
      "id": 219,
      "outputModuleId": 114,
      "outputId": 2,
      "inputModuleId": 126,
      "inputId": 0,
      "color": "#c91847"
    },
    {
      "id": 220,
      "outputModuleId": 114,
      "outputId": 3,
      "inputModuleId": 126,
      "inputId": 1,
      "color": "#c91847"
    },
    {
      "id": 319,
      "outputModuleId": 126,
      "outputId": 0,
      "inputModuleId": 25,
      "inputId": 0,
      "color": "#c91847"
    },
    {
      "id": 320,
      "outputModuleId": 126,
      "outputId": 1,
      "inputModuleId": 25,
      "inputId": 1,
      "color": "#c91847"
    },
    {
      "id": 588,
      "outputModuleId": 24,
      "outputId": 1,
      "inputModuleId": 255,
      "inputId": 0,
      "color": "#0986ad"
    },
    {
      "id": 589,
      "outputModuleId": 24,
      "outputId": 4,
      "inputModuleId": 255,
      "inputId": 1,
      "color": "#0986ad"
    },
    {
      "id": 592,
      "outputModuleId": 256,
      "outputId": 5,
      "inputModuleId": 257,
      "inputId": 5,
      "color": "#c91847"
    },
    {
      "id": 593,
      "outputModuleId": 24,
      "outputId": 0,
      "inputModuleId": 257,
      "inputId": 7,
      "color": "#0986ad"
    },
    {
      "id": 594,
      "outputModuleId": 257,
      "outputId": 0,
      "inputModuleId": 114,
      "inputId": 2,
      "color": "#c91847"
    },
    {
      "id": 595,
      "outputModuleId": 257,
      "outputId": 1,
      "inputModuleId": 114,
      "inputId": 3,
      "color": "#c91847"
    },
    {
      "id": 620,
      "outputModuleId": 24,
      "outputId": 4,
      "inputModuleId": 266,
      "inputId": 3,
      "color": "#0986ad"
    },
    {
      "id": 621,
      "outputModuleId": 24,
      "outputId": 1,
      "inputModuleId": 266,
      "inputId": 2,
      "color": "#0986ad"
    },
    {
      "id": 622,
      "outputModuleId": 266,
      "outputId": 0,
      "inputModuleId": 269,
      "inputId": 1,
      "color": "#c9b70e"
    },
    {
      "id": 628,
      "outputModuleId": 24,
      "outputId": 1,
      "inputModuleId": 269,
      "inputId": 7,
      "color": "#0986ad"
    },
    {
      "id": 624,
      "outputModuleId": 269,
      "outputId": 1,
      "inputModuleId": 114,
      "inputId": 4,
      "color": "#c91847"
    },
    {
      "id": 590,
      "outputModuleId": 255,
      "outputId": 0,
      "inputModuleId": 256,
      "inputId": 7,
      "color": "#0986ad"
    },
    {
      "id": 591,
      "outputModuleId": 256,
      "outputId": 4,
      "inputModuleId": 114,
      "inputId": 0,
      "color": "#c91847"
    },
    {
      "id": 647,
      "outputModuleId": 255,
      "outputId": 0,
      "inputModuleId": 256,
      "inputId": 8,
      "color": "#0986ad"
    },
    {
      "id": 653,
      "outputModuleId": 279,
      "outputId": 0,
      "inputModuleId": 114,
      "inputId": 10,
      "color": "#c91847"
    },
    {
      "id": 657,
      "outputModuleId": 24,
      "outputId": 0,
      "inputModuleId": 279,
      "inputId": 7,
      "color": "#0986ad"
    },
    {
      "id": 658,
      "outputModuleId": 284,
      "outputId": 0,
      "inputModuleId": 283,
      "inputId": 0,
      "color": "#0c8e15"
    },
    {
      "id": 650,
      "outputModuleId": 283,
      "outputId": 0,
      "inputModuleId": 279,
      "inputId": 5,
      "color": "#c91847"
    },
    {
      "id": 660,
      "outputModuleId": 285,
      "outputId": 0,
      "inputModuleId": 283,
      "inputId": 1,
      "color": "#c91847"
    },
    {
      "id": 661,
      "outputModuleId": 24,
      "outputId": 2,
      "inputModuleId": 284,
      "inputId": 3,
      "color": "#0986ad"
    },
    {
      "id": 663,
      "outputModuleId": 279,
      "outputId": 1,
      "inputModuleId": 286,
      "inputId": 3,
      "color": "#c91847"
    },
    {
      "id": 664,
      "outputModuleId": 286,
      "outputId": 0,
      "inputModuleId": 279,
      "inputId": 6,
      "color": "#c91847"
    },
    {
      "id": 665,
      "outputModuleId": 287,
      "outputId": 0,
      "inputModuleId": 286,
      "inputId": 0,
      "color": "#0c8e15"
    },
    {
      "id": 659,
      "outputModuleId": 282,
      "outputId": 2,
      "inputModuleId": 285,
      "inputId": 1,
      "color": "#c91847"
    },
    {
      "id": 668,
      "outputModuleId": 260,
      "outputId": 0,
      "inputModuleId": 290,
      "inputId": 4,
      "color": "#c91847"
    },
    {
      "id": 669,
      "outputModuleId": 260,
      "outputId": 1,
      "inputModuleId": 290,
      "inputId": 5,
      "color": "#0986ad"
    },
    {
      "id": 672,
      "outputModuleId": 291,
      "outputId": 0,
      "inputModuleId": 114,
      "inputId": 6,
      "color": "#c91847"
    },
    {
      "id": 673,
      "outputModuleId": 291,
      "outputId": 1,
      "inputModuleId": 114,
      "inputId": 7,
      "color": "#0986ad"
    },
    {
      "id": 671,
      "outputModuleId": 290,
      "outputId": 0,
      "inputModuleId": 292,
      "inputId": 0,
      "color": "#0c8e15"
    },
    {
      "id": 675,
      "outputModuleId": 292,
      "outputId": 0,
      "inputModuleId": 291,
      "inputId": 0,
      "color": "#0c8e15"
    },
    {
      "id": 676,
      "outputModuleId": 292,
      "outputId": 1,
      "inputModuleId": 291,
      "inputId": 1,
      "color": "#c91847"
    },
    {
      "id": 678,
      "outputModuleId": 24,
      "outputId": 5,
      "inputModuleId": 291,
      "inputId": 2,
      "color": "#c9b70e"
    },
    {
      "id": 679,
      "outputModuleId": 293,
      "outputId": 0,
      "inputModuleId": 295,
      "inputId": 1,
      "color": "#0c8e15"
    },
    {
      "id": 681,
      "outputModuleId": 294,
      "outputId": 0,
      "inputModuleId": 295,
      "inputId": 0,
      "color": "#0986ad"
    },
    {
      "id": 682,
      "outputModuleId": 271,
      "outputId": 1,
      "inputModuleId": 294,
      "inputId": 0,
      "color": "#c9b70e"
    },
    {
      "id": 683,
      "outputModuleId": 271,
      "outputId": 0,
      "inputModuleId": 293,
      "inputId": 0,
      "color": "#0c8e15"
    },
    {
      "id": 645,
      "outputModuleId": 275,
      "outputId": 0,
      "inputModuleId": 114,
      "inputId": 8,
      "color": "#c91847"
    },
    {
      "id": 685,
      "outputModuleId": 294,
      "outputId": 0,
      "inputModuleId": 293,
      "inputId": 2,
      "color": "#0986ad"
    },
    {
      "id": 684,
      "outputModuleId": 295,
      "outputId": 0,
      "inputModuleId": 292,
      "inputId": 1,
      "color": "#c91847"
    },
    {
      "id": 694,
      "outputModuleId": 292,
      "outputId": 4,
      "inputModuleId": 275,
      "inputId": 4,
      "color": "#c9b70e"
    },
    {
      "id": 695,
      "outputModuleId": 292,
      "outputId": 5,
      "inputModuleId": 276,
      "inputId": 4,
      "color": "#0c8e15"
    },
    {
      "id": 696,
      "outputModuleId": 296,
      "outputId": 0,
      "inputModuleId": 114,
      "inputId": 12,
      "color": "#c91847"
    }
  ]
}