{
  "version": "1.1.6",
  "modules": [
    {
      "id": 20,
      "plugin": "Core",
      "version": "1.1.6",
      "model": "AudioInterface",
      "params": [],
      "leftModuleId": 35,
      "rightModuleId": 36,
      "data": {
        "audio": {
          "driver": 4,
          "deviceName": "system",
          "offset": 0,
          "maxChannels": 8,
          "sampleRate": 44100,
          "blockSize": 2048
        }
      },
      "pos": [
        92,
        0
      ]
    },
    {
      "id": 23,
      "plugin": "repelzen",
      "version": "1.1.0",
      "model": "rexmix",
      "params": [
        {
          "id": 0,
          "value": -4.40999985
        },
        {
          "id": 1,
          "value": 0.0
        },
        {
          "id": 2,
          "value": 0.0
        },
        {
          "id": 3,
          "value": 0.0
        },
        {
          "id": 4,
          "value": 0.0
        },
        {
          "id": 5,
          "value": 0.0
        },
        {
          "id": 6,
          "value": 0.0
        },
        {
          "id": 7,
          "value": -7.25997782
        },
        {
          "id": 8,
          "value": -11.8800058
        },
        {
          "id": 9,
          "value": -15.3599911
        },
        {
          "id": 10,
          "value": 0.0
        },
        {
          "id": 11,
          "value": 0.0
        },
        {
          "id": 12,
          "value": 0.0
        },
        {
          "id": 13,
          "value": 0.0
        },
        {
          "id": 14,
          "value": 0.0
        },
        {
          "id": 15,
          "value": 0.0
        },
        {
          "id": 16,
          "value": 0.0
        },
        {
          "id": 17,
          "value": 0.0
        },
        {
          "id": 18,
          "value": 0.0
        },
        {
          "id": 19,
          "value": 0.0
        },
        {
          "id": 20,
          "value": 0.0
        },
        {
          "id": 21,
          "value": 0.0
        },
        {
          "id": 22,
          "value": 0.0
        },
        {
          "id": 23,
          "value": 0.0
        },
        {
          "id": 24,
          "value": 0.0
        },
        {
          "id": 25,
          "value": 0.0
        },
        {
          "id": 26,
          "value": 0.0
        },
        {
          "id": 27,
          "value": 0.0
        },
        {
          "id": 28,
          "value": 0.0
        },
        {
          "id": 29,
          "value": 0.0
        },
        {
          "id": 30,
          "value": 0.0
        },
        {
          "id": 31,
          "value": 0.0
        },
        {
          "id": 32,
          "value": 0.0
        },
        {
          "id": 33,
          "value": 0.0
        },
        {
          "id": 34,
          "value": 0.0
        },
        {
          "id": 35,
          "value": 0.0
        },
        {
          "id": 36,
          "value": 0.0
        },
        {
          "id": 37,
          "value": 0.0
        },
        {
          "id": 38,
          "value": 0.0
        },
        {
          "id": 39,
          "value": 0.0
        },
        {
          "id": 40,
          "value": 0.331
        },
        {
          "id": 41,
          "value": 0.255000025
        },
        {
          "id": 42,
          "value": 0.0
        },
        {
          "id": 43,
          "value": 0.0
        },
        {
          "id": 44,
          "value": 0.487499744
        },
        {
          "id": 45,
          "value": 0.826500058
        },
        {
          "id": 46,
          "value": 0.0
        },
        {
          "id": 47,
          "value": 0.0
        },
        {
          "id": 48,
          "value": 0.0
        },
        {
          "id": 49,
          "value": 0.0
        },
        {
          "id": 50,
          "value": 0.0
        },
        {
          "id": 51,
          "value": 0.0
        }
      ],
      "rightModuleId": 35,
      "pos": [
        52,
        0
      ]
    },
    {
      "id": 26,
      "plugin": "ImpromptuModular",
      "version": "1.1.10",
      "model": "Clocked",
      "params": [
        {
          "id": 0,
          "value": 177.0
        },
        {
          "id": 1,
          "value": 2.0
        },
        {
          "id": 2,
          "value": -20.0
        },
        {
          "id": 3,
          "value": -17.0
        },
        {
          "id": 4,
          "value": 0.642000377
        },
        {
          "id": 5,
          "value": 0.0
        },
        {
          "id": 6,
          "value": 0.0
        },
        {
          "id": 7,
          "value": 0.0
        },
        {
          "id": 8,
          "value": 0.5
        },
        {
          "id": 9,
          "value": 0.5
        },
        {
          "id": 10,
          "value": 0.5
        },
        {
          "id": 11,
          "value": 0.5
        },
        {
          "id": 12,
          "value": 0.0
        },
        {
          "id": 13,
          "value": 0.0
        },
        {
          "id": 14,
          "value": 0.0
        },
        {
          "id": 15,
          "value": 0.0
        },
        {
          "id": 16,
          "value": 0.0
        },
        {
          "id": 17,
          "value": 0.0
        },
        {
          "id": 18,
          "value": 0.0
        },
        {
          "id": 19,
          "value": 0.0
        }
      ],
      "data": {
        "panelTheme": 1,
        "running": false,
        "displayDelayNoteMode": true,
        "bpmDetectionMode": false,
        "resetOnStartStop": 0,
        "ppqn": 4,
        "resetClockOutputsHigh": true,
        "momentaryRunInput": true,
        "clockMaster": false
      },
      "pos": [
        0,
        0
      ]
    },
    {
      "id": 35,
      "plugin": "Valley",
      "version": "1.1.7",
      "model": "Plateau",
      "params": [
        {
          "id": 0,
          "value": 1.0
        },
        {
          "id": 1,
          "value": 0.5
        },
        {
          "id": 2,
          "value": 0.183750138
        },
        {
          "id": 3,
          "value": 6.3999958
        },
        {
          "id": 4,
          "value": 8.47000027
        },
        {
          "id": 5,
          "value": 0.24149996
        },
        {
          "id": 6,
          "value": 1.875
        },
        {
          "id": 7,
          "value": 0.757826328
        },
        {
          "id": 8,
          "value": 7.02999926
        },
        {
          "id": 9,
          "value": 8.00499916
        },
        {
          "id": 10,
          "value": 0.250499576
        },
        {
          "id": 11,
          "value": 0.0915000066
        },
        {
          "id": 12,
          "value": 9.09200668
        },
        {
          "id": 13,
          "value": 0.0
        },
        {
          "id": 14,
          "value": 0.0
        },
        {
          "id": 15,
          "value": 1.0
        },
        {
          "id": 16,
          "value": 0.0
        },
        {
          "id": 17,
          "value": 0.0
        },
        {
          "id": 18,
          "value": 0.0
        },
        {
          "id": 19,
          "value": 0.0
        },
        {
          "id": 20,
          "value": 1.0
        },
        {
          "id": 21,
          "value": 0.0
        },
        {
          "id": 22,
          "value": 0.0
        },
        {
          "id": 23,
          "value": 0.0
        },
        {
          "id": 24,
          "value": 0.0
        },
        {
          "id": 25,
          "value": 0.0
        },
        {
          "id": 26,
          "value": 0.0
        },
        {
          "id": 27,
          "value": 0.0
        },
        {
          "id": 28,
          "value": 0.0
        },
        {
          "id": 29,
          "value": 0.0
        },
        {
          "id": 30,
          "value": 1.0
        }
      ],
      "leftModuleId": 23,
      "rightModuleId": 20,
      "data": {
        "frozen": true,
        "freezeToggle": true,
        "panelStyle": 0,
        "tuned": 0,
        "diffuseInput": 1,
        "preDelayCVSens": 0,
        "inputSensitivity": 0,
        "outputSaturation": 0
      },
      "pos": [
        80,
        0
      ]
    },
    {
      "id": 36,
      "plugin": "Core",
      "version": "1.1.6",
      "model": "Notes",
      "params": [],
      "leftModuleId": 20,
      "rightModuleId": 85,
      "text": "Omri Cohen \nRepelzen - VCV Rack Live Stream\n\nhttps://www.youtube.com/watch?v=9408ynAsIlc\n\n  \n2nd patch in the video starting 1:16 hrs\n\n\n ",
      "pos": [
        102,
        0
      ]
    },
    {
      "id": 37,
      "plugin": "repelzen",
      "version": "1.1.0",
      "model": "reburst",
      "params": [
        {
          "id": 0,
          "value": 0.0
        },
        {
          "id": 1,
          "value": 0.609429419
        },
        {
          "id": 2,
          "value": 8.0
        },
        {
          "id": 3,
          "value": 1.0
        },
        {
          "id": 4,
          "value": 0.0
        },
        {
          "id": 5,
          "value": 4.0
        },
        {
          "id": 6,
          "value": 0.0
        },
        {
          "id": 7,
          "value": 0.0
        },
        {
          "id": 8,
          "value": 0.0
        }
      ],
      "rightModuleId": 38,
      "pos": [
        0,
        1
      ]
    },
    {
      "id": 38,
      "plugin": "AS",
      "version": "1.0.4",
      "model": "QuadVCA",
      "params": [
        {
          "id": 0,
          "value": 0.585000753
        },
        {
          "id": 1,
          "value": 0.802000225
        },
        {
          "id": 2,
          "value": 0.556999862
        },
        {
          "id": 3,
          "value": 0.335000038
        },
        {
          "id": 4,
          "value": 1.0
        },
        {
          "id": 5,
          "value": 1.0
        },
        {
          "id": 6,
          "value": 1.0
        },
        {
          "id": 7,
          "value": 1.0
        }
      ],
      "leftModuleId": 37,
      "rightModuleId": 39,
      "pos": [
        8,
        1
      ]
    },
    {
      "id": 39,
      "plugin": "repelzen",
      "version": "1.1.0",
      "model": "rewin",
      "params": [
        {
          "id": 0,
          "value": 0.0
        },
        {
          "id": 1,
          "value": 0.0
        },
        {
          "id": 2,
          "value": 0.0
        },
        {
          "id": 3,
          "value": 0.0
        },
        {
          "id": 4,
          "value": 0.0
        },
        {
          "id": 5,
          "value": 0.0
        },
        {
          "id": 6,
          "value": 0.0
        },
        {
          "id": 7,
          "value": 0.0
        },
        {
          "id": 8,
          "value": 0.0
        },
        {
          "id": 9,
          "value": 0.0
        },
        {
          "id": 10,
          "value": 0.0
        },
        {
          "id": 11,
          "value": 0.0
        },
        {
          "id": 12,
          "value": 0.0
        },
        {
          "id": 13,
          "value": 0.0
        },
        {
          "id": 14,
          "value": 0.0
        },
        {
          "id": 15,
          "value": 0.0
        },
        {
          "id": 16,
          "value": 2.0
        }
      ],
      "leftModuleId": 38,
      "rightModuleId": 40,
      "data": {
        "notes": [
          false,
          false,
          false,
          false,
          true,
          false,
          true,
          false,
          false,
          false,
          false,
          true,
          false,
          false,
          false,
          false,
          true,
          false,
          false,
          false,
          true,
          true,
          false,
          false,
          false,
          false,
          false,
          true,
          false,
          true,
          true,
          false,
          false,
          false,
          false,
          true,
          false,
          true,
          false,
          false,
          false,
          false,
          false,
          false,
          true,
          false,
          false,
          false,
          false,
          false,
          false,
          false,
          true,
          false,
          true,
          false,
          false,
          false,
          false,
          true,
          false,
          false,
          false,
          false,
          false,
          false,
          false,
          false,
          false,
          false,
          false,
          false,
          false,
          false,
          false,
          false,
          false,
          false,
          false,
          false,
          false,
          false,
          false,
          false,
          false,
          false,
          false,
          false,
          false,
          false,
          false,
          false,
          false,
          false,
          false,
          false,
          false,
          false,
          false,
          false,
          false,
          false,
          false,
          false,
          false,
          false,
          false,
          false,
          false,
          false,
          false,
          false,
          false,
          false,
          false,
          false,
          false,
          false,
          false,
          false,
          false,
          false,
          false,
          false,
          false,
          false,
          false,
          false,
          false,
          false,
          false,
          false,
          false,
          false,
          false,
          false,
          false,
          false,
          false,
          false,
          false,
          false,
          false,
          false,
          false,
          false,
          false,
          false,
          false,
          false,
          false,
          false,
          false,
          false,
          false,
          false,
          false,
          false,
          false,
          false,
          false,
          false,
          false,
          false,
          false,
          false,
          false,
          false,
          false,
          false,
          false,
          false,
          false,
          false,
          false,
          false,
          false,
          false,
          false,
          false,
          false,
          false,
          false,
          false,
          false,
          false,
          false,
          false,
          false,
          false,
          false,
          false
        ],
        "mode": 0
      },
      "pos": [
        16,
        1
      ]
    },
    {
      "id": 40,
      "plugin": "RJModules",
      "version": "1.7.2",
      "model": "Acid",
      "params": [
        {
          "id": 0,
          "value": 2.0
        },
        {
          "id": 1,
          "value": 3.0
        },
        {
          "id": 2,
          "value": 0.628500164
        },
        {
          "id": 3,
          "value": 0.781499982
        },
        {
          "id": 4,
          "value": -0.880999923
        },
        {
          "id": 5,
          "value": 0.24849987
        },
        {
          "id": 6,
          "value": 0.767500818
        },
        {
          "id": 7,
          "value": 0.360000849
        },
        {
          "id": 8,
          "value": 0.342999935
        },
        {
          "id": 9,
          "value": 0.942099988
        },
        {
          "id": 10,
          "value": 3.64999938
        },
        {
          "id": 11,
          "value": 0.899999976
        },
        {
          "id": 12,
          "value": 0.305899978
        },
        {
          "id": 13,
          "value": 0.0940761492
        },
        {
          "id": 14,
          "value": 25.0
        }
      ],
      "leftModuleId": 39,
      "rightModuleId": 46,
      "pos": [
        24,
        1
      ]
    },
    {
      "id": 41,
      "plugin": "CountModula",
      "version": "1.14.0",
      "model": "TriggerSequencer8",
      "params": [
        {
          "id": 0,
          "value": 1.0
        },
        {
          "id": 1,
          "value": 1.0
        },
        {
          "id": 2,
          "value": 0.0
        },
        {
          "id": 3,
          "value": 2.0
        },
        {
          "id": 4,
          "value": 2.0
        },
        {
          "id": 5,
          "value": 2.0
        },
        {
          "id": 6,
          "value": 0.0
        },
        {
          "id": 7,
          "value": 2.0
        },
        {
          "id": 8,
          "value": 2.0
        },
        {
          "id": 9,
          "value": 1.0
        },
        {
          "id": 10,
          "value": 1.0
        },
        {
          "id": 11,
          "value": 1.0
        },
        {
          "id": 12,
          "value": 2.0
        },
        {
          "id": 13,
          "value": 1.0
        },
        {
          "id": 14,
          "value": 0.0
        },
        {
          "id": 15,
          "value": 1.0
        },
        {
          "id": 16,
          "value": 2.0
        },
        {
          "id": 17,
          "value": 1.0
        },
        {
          "id": 18,
          "value": 2.0
        },
        {
          "id": 19,
          "value": 1.0
        },
        {
          "id": 20,
          "value": 0.0
        },
        {
          "id": 21,
          "value": 2.0
        },
        {
          "id": 22,
          "value": 1.0
        },
        {
          "id": 23,
          "value": 1.0
        },
        {
          "id": 24,
          "value": 2.0
        },
        {
          "id": 25,
          "value": 1.0
        },
        {
          "id": 26,
          "value": 1.0
        },
        {
          "id": 27,
          "value": 1.0
        },
        {
          "id": 28,
          "value": 1.0
        },
        {
          "id": 29,
          "value": 1.0
        },
        {
          "id": 30,
          "value": 1.0
        },
        {
          "id": 31,
          "value": 1.0
        },
        {
          "id": 32,
          "value": 7.0
        },
        {
          "id": 33,
          "value": 8.0
        },
        {
          "id": 34,
          "value": 6.0
        },
        {
          "id": 35,
          "value": 5.0
        },
        {
          "id": 36,
          "value": 0.0
        },
        {
          "id": 37,
          "value": 0.0
        },
        {
          "id": 38,
          "value": 0.0
        },
        {
          "id": 39,
          "value": 0.0
        },
        {
          "id": 40,
          "value": 0.0
        },
        {
          "id": 41,
          "value": 0.0
        },
        {
          "id": 42,
          "value": 0.0
        },
        {
          "id": 43,
          "value": 0.0
        },
        {
          "id": 44,
          "value": 0.0
        },
        {
          "id": 45,
          "value": 1.0
        },
        {
          "id": 46,
          "value": 0.0
        },
        {
          "id": 47,
          "value": 0.0
        }
      ],
      "rightModuleId": 44,
      "data": {
        "moduleVersion": 0.0,
        "currentStep": [
          2,
          2,
          2,
          3
        ],
        "clockState": [
          true,
          true,
          true,
          true
        ],
        "runState": [
          true,
          true,
          true,
          true
        ],
        "theme": 0
      },
      "pos": [
        0,
        2
      ]
    },
    {
      "id": 42,
      "plugin": "Autodafe-DrumKit",
      "version": "1.0.0",
      "model": "DrumsHiHatClosed",
      "params": [
        {
          "id": 0,
          "value": 0.0
        }
      ],
      "leftModuleId": 43,
      "rightModuleId": 47,
      "data": {
        "sampletype": 8
      },
      "pos": [
        42,
        2
      ]
    },
    {
      "id": 43,
      "plugin": "Autodafe-DrumKit",
      "version": "1.0.0",
      "model": "DrumsSnare",
      "params": [
        {
          "id": 0,
          "value": 0.0
        }
      ],
      "leftModuleId": 44,
      "rightModuleId": 42,
      "data": {
        "sampletype": 2
      },
      "pos": [
        38,
        2
      ]
    },
    {
      "id": 44,
      "plugin": "Autodafe-DrumKit",
      "version": "1.0.0",
      "model": "DrumsKick",
      "params": [
        {
          "id": 0,
          "value": 0.0
        }
      ],
      "leftModuleId": 41,
      "rightModuleId": 43,
      "data": {
        "sampletype": 7
      },
      "pos": [
        34,
        2
      ]
    },
    {
      "id": 46,
      "plugin": "Autodafe-DrumKit",
      "version": "1.0.0",
      "model": "DrumsMixer",
      "params": [
        {
          "id": 0,
          "value": 1.0
        },
        {
          "id": 1,
          "value": 0.664500415
        },
        {
          "id": 2,
          "value": 0.108000092
        },
        {
          "id": 3,
          "value": 0.335499763
        },
        {
          "id": 4,
          "value": 0.755999625
        },
        {
          "id": 5,
          "value": 0.643500268
        },
        {
          "id": 6,
          "value": 0.494999945
        },
        {
          "id": 7,
          "value": 0.0
        },
        {
          "id": 8,
          "value": 0.0
        },
        {
          "id": 9,
          "value": 0.0
        },
        {
          "id": 10,
          "value": 0.0
        },
        {
          "id": 11,
          "value": 0.0
        },
        {
          "id": 12,
          "value": 0.0
        },
        {
          "id": 13,
          "value": 0.0
        },
        {
          "id": 14,
          "value": 0.0
        },
        {
          "id": 15,
          "value": 0.0
        },
        {
          "id": 16,
          "value": 0.0
        },
        {
          "id": 17,
          "value": 0.0
        },
        {
          "id": 18,
          "value": 0.0
        },
        {
          "id": 19,
          "value": 0.0
        },
        {
          "id": 20,
          "value": 0.0
        },
        {
          "id": 21,
          "value": 0.0
        },
        {
          "id": 22,
          "value": 0.0
        },
        {
          "id": 23,
          "value": 0.0
        },
        {
          "id": 24,
          "value": 0.0
        }
      ],
      "leftModuleId": 40,
      "rightModuleId": 62,
      "data": {
        "autodafeDrumMixerMutes": [
          0,
          0,
          0,
          0,
          0,
          0,
          0,
          0
        ]
      },
      "pos": [
        44,
        1
      ]
    },
    {
      "id": 47,
      "plugin": "Autodafe-DrumKit",
      "version": "1.0.0",
      "model": "DrumsRide",
      "params": [
        {
          "id": 0,
          "value": 0.0
        }
      ],
      "leftModuleId": 42,
      "rightModuleId": 49,
      "data": {
        "sampletype": 7
      },
      "pos": [
        46,
        2
      ]
    },
    {
      "id": 48,
      "plugin": "Bogaudio",
      "version": "1.1.37",
      "model": "Bogaudio-EightFO",
      "params": [
        {
          "id": 0,
          "value": -3.12000704
        },
        {
          "id": 1,
          "value": 4.0
        },
        {
          "id": 2,
          "value": 0.0
        },
        {
          "id": 3,
          "value": 0.0
        },
        {
          "id": 4,
          "value": 0.0
        },
        {
          "id": 5,
          "value": 0.0
        },
        {
          "id": 6,
          "value": 0.0
        },
        {
          "id": 7,
          "value": 0.0
        },
        {
          "id": 8,
          "value": 0.0
        },
        {
          "id": 9,
          "value": 0.0
        },
        {
          "id": 10,
          "value": 0.16700004
        },
        {
          "id": 11,
          "value": 0.0
        },
        {
          "id": 12,
          "value": 0.705999851
        },
        {
          "id": 13,
          "value": 1.0
        },
        {
          "id": 14,
          "value": 0.0
        }
      ],
      "data": {},
      "pos": [
        82,
        2
      ]
    },
    {
      "id": 49,
      "plugin": "Autodafe-DrumKit",
      "version": "1.0.0",
      "model": "DrumsRimClaves",
      "params": [
        {
          "id": 0,
          "value": 0.0
        }
      ],
      "leftModuleId": 47,
      "rightModuleId": 50,
      "data": {
        "sampletype": 1
      },
      "pos": [
        50,
        2
      ]
    },
    {
      "id": 50,
      "plugin": "Autodafe-DrumKit",
      "version": "1.0.0",
      "model": "DrumsClaps",
      "params": [
        {
          "id": 0,
          "value": 0.0
        }
      ],
      "leftModuleId": 49,
      "data": {
        "sampletype": 7
      },
      "pos": [
        54,
        2
      ]
    },
    {
      "id": 62,
      "plugin": "LindenbergResearch",
      "version": "1.3.3",
      "model": "DIODE_VCF",
      "params": [
        {
          "id": 0,
          "value": 0.803500116
        },
        {
          "id": 1,
          "value": 0.524500251
        },
        {
          "id": 2,
          "value": 0.503499985
        },
        {
          "id": 3,
          "value": 0.415799528
        },
        {
          "id": 4,
          "value": 0.0
        },
        {
          "id": 5,
          "value": 0.0
        }
      ],
      "leftModuleId": 46,
      "gestaltID": 1,
      "gradient": true,
      "patina": false,
      "patina_i_x": false,
      "patina_i_y": false,
      "patina_a_x": -216.554642,
      "patina_a_y": -303.941956,
      "overlay": false,
      "overlay_r": 0.987031043,
      "overlay_g": 0.908903182,
      "overlay_b": 0.840047777,
      "overlay_a": 0.224046662,
      "pos": [
        81,
        1
      ]
    },
    {
      "id": 85,
      "plugin": "VCV-Recorder",
      "version": "1.1.0",
      "model": "Recorder",
      "params": [
        {
          "id": 0,
          "value": 1.6159997
        },
        {
          "id": 1,
          "value": 0.0
        }
      ],
      "leftModuleId": 36,
      "data": {
        "format": "wav",
        "path": "/home/mint/.Rack/recordings/2019-08-16-Repelzen.wav",
        "incrementPath": true,
        "sampleRate": 44100,
        "depth": 16,
        "bitRate": 320000,
        "videoBitRate": 2048000
      },
      "pos": [
        118,
        0
      ]
    },
    {
      "id": 87,
      "plugin": "NYSTHI",
      "version": "1.0.17",
      "model": "Simpliciter",
      "params": [
        {
          "id": 0,
          "value": -1.0
        },
        {
          "id": 1,
          "value": 0.0
        },
        {
          "id": 2,
          "value": 0.0
        },
        {
          "id": 3,
          "value": 0.0
        },
        {
          "id": 4,
          "value": 1.0
        },
        {
          "id": 5,
          "value": 0.0
        },
        {
          "id": 6,
          "value": 0.0
        },
        {
          "id": 7,
          "value": 0.0
        },
        {
          "id": 8,
          "value": 0.0
        },
        {
          "id": 9,
          "value": 0.0
        },
        {
          "id": 10,
          "value": 0.498470962
        },
        {
          "id": 11,
          "value": 0.929663599
        },
        {
          "id": 12,
          "value": 2.0
        },
        {
          "id": 13,
          "value": 0.0
        },
        {
          "id": 14,
          "value": 0.0
        },
        {
          "id": 15,
          "value": 0.0
        },
        {
          "id": 16,
          "value": 0.0
        },
        {
          "id": 17,
          "value": 0.0
        },
        {
          "id": 18,
          "value": 0.0
        },
        {
          "id": 19,
          "value": 0.0
        },
        {
          "id": 20,
          "value": 0.0
        },
        {
          "id": 21,
          "value": 0.0
        },
        {
          "id": 22,
          "value": 0.0
        },
        {
          "id": 23,
          "value": 0.0
        },
        {
          "id": 24,
          "value": 0.0
        },
        {
          "id": 25,
          "value": 0.0
        },
        {
          "id": 26,
          "value": 0.0
        },
        {
          "id": 27,
          "value": 0.0
        },
        {
          "id": 28,
          "value": 0.5
        },
        {
          "id": 29,
          "value": 0.0
        },
        {
          "id": 30,
          "value": 1.0
        },
        {
          "id": 31,
          "value": 1.0
        },
        {
          "id": 32,
          "value": 0.0
        },
        {
          "id": 33,
          "value": 0.0
        },
        {
          "id": 34,
          "value": 0.0
        },
        {
          "id": 35,
          "value": 0.0
        },
        {
          "id": 36,
          "value": 0.0
        },
        {
          "id": 37,
          "value": 0.0
        },
        {
          "id": 38,
          "value": 0.0
        }
      ],
      "data": {
        "m_declick_starts": true,
        "m_declick_ends": true,
        "m_declick_starts_linear": false,
        "m_declick_ends_linear": false,
        "m_wants_xfading_startend": false,
        "m_wants_START_STOP_smoothers": true,
        "m_autoplay_on_load": true,
        "m_dragging_scratches": false,
        "m_smoothing_seconds": 1.0,
        "m_original_file_name": "/home/mint/.Rack/recordings/loops/2021-07-04-Repelzen/20210704_192323_7TIsNR.wav",
        "m_cycled": true,
        "m_waveform": 0,
        "m_grid_mode": false,
        "m_peak_grid_mode": false,
        "m_slices": 1,
        "m_curr_slice": 1,
        "m_show_channels": 0,
        "m_video_inverted": false,
        "m_show_time_mode": 0,
        "slice_start": 11317213,
        "slice_end": 21106948,
        "m_delays_at_work": 1,
        "m_cv_can_be_negative": false,
        "m_busy_mode": false,
        "m_start_and_lenght_mode": false,
        "m_peak_threshold": 5,
        "m_peak_msecs_closeness": 200,
        "m_peakCV_mutiplier": 10,
        "m_peakCV_smoother": 1,
        "m_select_old_style": false,
        "m_prerecording_mode": false,
        "m_prerecording_time": 2.0,
        "m_ramp_out_is_relative_to_full_size": false,
        "m_kfs_vector": []
      },
      "pos": [
        26,
        0
      ]
    }
  ],
  "cables": [
    {
      "id": 96,
      "outputModuleId": 23,
      "outputId": 0,
      "inputModuleId": 20,
      "inputId": 0,
      "color": "#c9b70e"
    },
    {
      "id": 97,
      "outputModuleId": 23,
      "outputId": 1,
      "inputModuleId": 20,
      "inputId": 1,
      "color": "#0c8e15"
    },
    {
      "id": 100,
      "outputModuleId": 23,
      "outputId": 2,
      "inputModuleId": 35,
      "inputId": 0,
      "color": "#0986ad"
    },
    {
      "id": 101,
      "outputModuleId": 23,
      "outputId": 3,
      "inputModuleId": 35,
      "inputId": 1,
      "color": "#c9b70e"
    },
    {
      "id": 103,
      "outputModuleId": 35,
      "outputId": 1,
      "inputModuleId": 23,
      "inputId": 1,
      "color": "#c91847"
    },
    {
      "id": 108,
      "outputModuleId": 37,
      "outputId": 0,
      "inputModuleId": 40,
      "inputId": 2,
      "color": "#0c8e15"
    },
    {
      "id": 114,
      "outputModuleId": 39,
      "outputId": 0,
      "inputModuleId": 40,
      "inputId": 0,
      "color": "#c9b70e"
    },
    {
      "id": 115,
      "outputModuleId": 26,
      "outputId": 1,
      "inputModuleId": 37,
      "inputId": 1,
      "color": "#c9b70e"
    },
    {
      "id": 130,
      "outputModuleId": 41,
      "outputId": 1,
      "inputModuleId": 43,
      "inputId": 0,
      "color": "#c9b70e"
    },
    {
      "id": 133,
      "outputModuleId": 41,
      "outputId": 2,
      "inputModuleId": 44,
      "inputId": 0,
      "color": "#0c8e15"
    },
    {
      "id": 138,
      "outputModuleId": 44,
      "outputId": 0,
      "inputModuleId": 46,
      "inputId": 1,
      "color": "#0986ad"
    },
    {
      "id": 141,
      "outputModuleId": 47,
      "outputId": 0,
      "inputModuleId": 46,
      "inputId": 10,
      "color": "#c91847"
    },
    {
      "id": 142,
      "outputModuleId": 48,
      "outputId": 0,
      "inputModuleId": 46,
      "inputId": 11,
      "color": "#0986ad"
    },
    {
      "id": 143,
      "outputModuleId": 41,
      "outputId": 4,
      "inputModuleId": 49,
      "inputId": 0,
      "color": "#c9b70e"
    },
    {
      "id": 144,
      "outputModuleId": 49,
      "outputId": 0,
      "inputModuleId": 46,
      "inputId": 13,
      "color": "#0c8e15"
    },
    {
      "id": 145,
      "outputModuleId": 48,
      "outputId": 1,
      "inputModuleId": 46,
      "inputId": 14,
      "color": "#c91847"
    },
    {
      "id": 146,
      "outputModuleId": 41,
      "outputId": 5,
      "inputModuleId": 50,
      "inputId": 0,
      "color": "#0986ad"
    },
    {
      "id": 147,
      "outputModuleId": 50,
      "outputId": 0,
      "inputModuleId": 46,
      "inputId": 16,
      "color": "#c9b70e"
    },
    {
      "id": 148,
      "outputModuleId": 48,
      "outputId": 1,
      "inputModuleId": 46,
      "inputId": 20,
      "color": "#0c8e15"
    },
    {
      "id": 149,
      "outputModuleId": 48,
      "outputId": 0,
      "inputModuleId": 46,
      "inputId": 17,
      "color": "#c91847"
    },
    {
      "id": 127,
      "outputModuleId": 26,
      "outputId": 1,
      "inputModuleId": 41,
      "inputId": 4,
      "color": "#0c8e15"
    },
    {
      "id": 179,
      "outputModuleId": 48,
      "outputId": 0,
      "inputModuleId": 62,
      "inputId": 1,
      "color": "#c9b70e"
    },
    {
      "id": 126,
      "outputModuleId": 37,
      "outputId": 2,
      "inputModuleId": 40,
      "inputId": 9,
      "color": "#0c8e15"
    },
    {
      "id": 217,
      "outputModuleId": 40,
      "outputId": 0,
      "inputModuleId": 48,
      "inputId": 8,
      "color": "#c91847"
    },
    {
      "id": 234,
      "outputModuleId": 26,
      "outputId": 3,
      "inputModuleId": 37,
      "inputId": 0,
      "color": "#c9b70e"
    },
    {
      "id": 230,
      "outputModuleId": 38,
      "outputId": 0,
      "inputModuleId": 39,
      "inputId": 2,
      "color": "#c9b70e"
    },
    {
      "id": 291,
      "outputModuleId": 26,
      "outputId": 4,
      "inputModuleId": 48,
      "inputId": 10,
      "color": "#c9b70e"
    },
    {
      "id": 292,
      "outputModuleId": 26,
      "outputId": 4,
      "inputModuleId": 41,
      "inputId": 8,
      "color": "#0c8e15"
    },
    {
      "id": 294,
      "outputModuleId": 23,
      "outputId": 0,
      "inputModuleId": 85,
      "inputId": 2,
      "color": "#c9b70e"
    },
    {
      "id": 295,
      "outputModuleId": 23,
      "outputId": 1,
      "inputModuleId": 85,
      "inputId": 3,
      "color": "#0c8e15"
    },
    {
      "id": 123,
      "outputModuleId": 37,
      "outputId": 2,
      "inputModuleId": 38,
      "inputId": 1,
      "color": "#c91847"
    },
    {
      "id": 102,
      "outputModuleId": 35,
      "outputId": 0,
      "inputModuleId": 23,
      "inputId": 0,
      "color": "#0c8e15"
    },
    {
      "id": 137,
      "outputModuleId": 46,
      "outputId": 1,
      "inputModuleId": 23,
      "inputId": 4,
      "color": "#0c8e15"
    },
    {
      "id": 109,
      "outputModuleId": 40,
      "outputId": 0,
      "inputModuleId": 23,
      "inputId": 5,
      "color": "#0986ad"
    },
    {
      "id": 296,
      "outputModuleId": 37,
      "outputId": 2,
      "inputModuleId": 35,
      "inputId": 6,
      "color": "#0986ad"
    },
    {
      "id": 128,
      "outputModuleId": 41,
      "outputId": 0,
      "inputModuleId": 42,
      "inputId": 0,
      "color": "#c91847"
    },
    {
      "id": 129,
      "outputModuleId": 42,
      "outputId": 0,
      "inputModuleId": 62,
      "inputId": 0,
      "color": "#0986ad"
    },
    {
      "id": 139,
      "outputModuleId": 43,
      "outputId": 0,
      "inputModuleId": 46,
      "inputId": 4,
      "color": "#c9b70e"
    },
    {
      "id": 300,
      "outputModuleId": 62,
      "outputId": 0,
      "inputModuleId": 46,
      "inputId": 7,
      "color": "#0986ad"
    },
    {
      "id": 302,
      "outputModuleId": 23,
      "outputId": 0,
      "inputModuleId": 87,
      "inputId": 0,
      "color": "#0c8e15"
    },
    {
      "id": 303,
      "outputModuleId": 23,
      "outputId": 1,
      "inputModuleId": 87,
      "inputId": 1,
      "color": "#c91847"
    },
    {
      "id": 304,
      "outputModuleId": 26,
      "outputId": 2,
      "inputModuleId": 35,
      "inputId": 15,
      "color": "#0986ad"
    },
    {
      "id": 305,
      "outputModuleId": 20,
      "outputId": 0,
      "inputModuleId": 23,
      "inputId": 9,
      "color": "#c9b70e"
    },
    {
      "id": 135,
      "outputModuleId": 41,
      "outputId": 3,
      "inputModuleId": 47,
      "inputId": 0,
      "color": "#0986ad"
    },
    {
      "id": 306,
      "outputModuleId": 87,
      "outputId": 1,
      "inputModuleId": 23,
      "inputId": 8,
      "color": "#0c8e15"
    },
    {
      "id": 307,
      "outputModuleId": 87,
      "outputId": 0,
      "inputModuleId": 23,
      "inputId": 7,
      "color": "#0c8e15"
    }
  ]
}