{
  "version": "1.1.6",
  "modules": [
    {
      "id": 11,
      "plugin": "Core",
      "version": "1.1.6",
      "model": "AudioInterface",
      "params": [],
      "leftModuleId": 12,
      "data": {
        "audio": {
          "driver": 4,
          "deviceName": "system",
          "offset": 0,
          "maxChannels": 8,
          "sampleRate": 44100,
          "blockSize": 2048
        }
      },
      "pos": [
        93,
        0
      ]
    },
    {
      "id": 12,
      "plugin": "Valley",
      "version": "1.1.7",
      "model": "Plateau",
      "params": [
        {
          "id": 0,
          "value": 1.0
        },
        {
          "id": 1,
          "value": 0.5
        },
        {
          "id": 2,
          "value": 0.0
        },
        {
          "id": 3,
          "value": 9.42999935
        },
        {
          "id": 4,
          "value": 10.0
        },
        {
          "id": 5,
          "value": 0.5
        },
        {
          "id": 6,
          "value": 10.0
        },
        {
          "id": 7,
          "value": 0.549950004
        },
        {
          "id": 8,
          "value": 10.0
        },
        {
          "id": 9,
          "value": 9.41499901
        },
        {
          "id": 10,
          "value": 0.0
        },
        {
          "id": 11,
          "value": 0.5
        },
        {
          "id": 12,
          "value": 0.5
        },
        {
          "id": 13,
          "value": 0.0
        },
        {
          "id": 14,
          "value": 0.0
        },
        {
          "id": 15,
          "value": 0.0
        },
        {
          "id": 16,
          "value": 0.0
        },
        {
          "id": 17,
          "value": 0.0
        },
        {
          "id": 18,
          "value": 0.0
        },
        {
          "id": 19,
          "value": 0.0
        },
        {
          "id": 20,
          "value": 0.0
        },
        {
          "id": 21,
          "value": 0.0
        },
        {
          "id": 22,
          "value": 0.0
        },
        {
          "id": 23,
          "value": 0.0
        },
        {
          "id": 24,
          "value": 0.0
        },
        {
          "id": 25,
          "value": 0.0
        },
        {
          "id": 26,
          "value": 0.0
        },
        {
          "id": 27,
          "value": 0.0
        },
        {
          "id": 28,
          "value": 0.0
        },
        {
          "id": 29,
          "value": 0.0
        },
        {
          "id": 30,
          "value": 1.0
        }
      ],
      "leftModuleId": 315,
      "rightModuleId": 11,
      "data": {
        "frozen": false,
        "freezeToggle": false,
        "panelStyle": 0,
        "tuned": 0,
        "diffuseInput": 1,
        "preDelayCVSens": 0,
        "inputSensitivity": 0,
        "outputSaturation": 0
      },
      "pos": [
        81,
        0
      ]
    },
    {
      "id": 144,
      "plugin": "MindMeldModular",
      "version": "1.1.12",
      "model": "MixMaster",
      "params": [
        {
          "id": 0,
          "value": 1.0
        },
        {
          "id": 1,
          "value": 1.0
        },
        {
          "id": 2,
          "value": 1.0
        },
        {
          "id": 3,
          "value": 1.0
        },
        {
          "id": 4,
          "value": 1.0
        },
        {
          "id": 5,
          "value": 1.0
        },
        {
          "id": 6,
          "value": 1.0
        },
        {
          "id": 7,
          "value": 1.0
        },
        {
          "id": 8,
          "value": 1.0
        },
        {
          "id": 9,
          "value": 1.0
        },
        {
          "id": 10,
          "value": 1.0
        },
        {
          "id": 11,
          "value": 1.0
        },
        {
          "id": 12,
          "value": 1.0
        },
        {
          "id": 13,
          "value": 1.0
        },
        {
          "id": 14,
          "value": 1.0
        },
        {
          "id": 15,
          "value": 1.0
        },
        {
          "id": 16,
          "value": 1.0
        },
        {
          "id": 17,
          "value": 1.0
        },
        {
          "id": 18,
          "value": 1.0
        },
        {
          "id": 19,
          "value": 1.0
        },
        {
          "id": 20,
          "value": 0.5
        },
        {
          "id": 21,
          "value": 0.5
        },
        {
          "id": 22,
          "value": 0.5
        },
        {
          "id": 23,
          "value": 0.5
        },
        {
          "id": 24,
          "value": 0.5
        },
        {
          "id": 25,
          "value": 0.5
        },
        {
          "id": 26,
          "value": 0.5
        },
        {
          "id": 27,
          "value": 0.5
        },
        {
          "id": 28,
          "value": 0.5
        },
        {
          "id": 29,
          "value": 0.5
        },
        {
          "id": 30,
          "value": 0.5
        },
        {
          "id": 31,
          "value": 0.5
        },
        {
          "id": 32,
          "value": 0.5
        },
        {
          "id": 33,
          "value": 0.5
        },
        {
          "id": 34,
          "value": 0.5
        },
        {
          "id": 35,
          "value": 0.5
        },
        {
          "id": 36,
          "value": 0.5
        },
        {
          "id": 37,
          "value": 0.5
        },
        {
          "id": 38,
          "value": 0.5
        },
        {
          "id": 39,
          "value": 0.5
        },
        {
          "id": 40,
          "value": 0.0
        },
        {
          "id": 41,
          "value": 0.0
        },
        {
          "id": 42,
          "value": 0.0
        },
        {
          "id": 43,
          "value": 0.0
        },
        {
          "id": 44,
          "value": 0.0
        },
        {
          "id": 45,
          "value": 0.0
        },
        {
          "id": 46,
          "value": 0.0
        },
        {
          "id": 47,
          "value": 0.0
        },
        {
          "id": 48,
          "value": 0.0
        },
        {
          "id": 49,
          "value": 0.0
        },
        {
          "id": 50,
          "value": 0.0
        },
        {
          "id": 51,
          "value": 0.0
        },
        {
          "id": 52,
          "value": 0.0
        },
        {
          "id": 53,
          "value": 0.0
        },
        {
          "id": 54,
          "value": 0.0
        },
        {
          "id": 55,
          "value": 0.0
        },
        {
          "id": 56,
          "value": 0.0
        },
        {
          "id": 57,
          "value": 0.0
        },
        {
          "id": 58,
          "value": 0.0
        },
        {
          "id": 59,
          "value": 0.0
        },
        {
          "id": 60,
          "value": 0.0
        },
        {
          "id": 61,
          "value": 0.0
        },
        {
          "id": 62,
          "value": 0.0
        },
        {
          "id": 63,
          "value": 0.0
        },
        {
          "id": 64,
          "value": 0.0
        },
        {
          "id": 65,
          "value": 0.0
        },
        {
          "id": 66,
          "value": 0.0
        },
        {
          "id": 67,
          "value": 0.0
        },
        {
          "id": 68,
          "value": 0.0
        },
        {
          "id": 69,
          "value": 0.0
        },
        {
          "id": 70,
          "value": 0.0
        },
        {
          "id": 71,
          "value": 0.0
        },
        {
          "id": 72,
          "value": 0.0
        },
        {
          "id": 73,
          "value": 0.0
        },
        {
          "id": 74,
          "value": 0.0
        },
        {
          "id": 75,
          "value": 0.0
        },
        {
          "id": 76,
          "value": 0.0
        },
        {
          "id": 77,
          "value": 0.0
        },
        {
          "id": 78,
          "value": 0.0
        },
        {
          "id": 79,
          "value": 0.0
        },
        {
          "id": 80,
          "value": 0.0
        },
        {
          "id": 81,
          "value": 1.0
        },
        {
          "id": 82,
          "value": 0.0
        },
        {
          "id": 83,
          "value": 1.0
        },
        {
          "id": 84,
          "value": 0.0
        },
        {
          "id": 85,
          "value": 0.0
        },
        {
          "id": 86,
          "value": 0.0
        },
        {
          "id": 87,
          "value": 0.0
        },
        {
          "id": 88,
          "value": 0.0
        },
        {
          "id": 89,
          "value": 0.0
        },
        {
          "id": 90,
          "value": 0.0
        },
        {
          "id": 91,
          "value": 0.0
        },
        {
          "id": 92,
          "value": 0.0
        },
        {
          "id": 93,
          "value": 0.0
        },
        {
          "id": 94,
          "value": 0.0
        },
        {
          "id": 95,
          "value": 0.0
        },
        {
          "id": 96,
          "value": 0.0
        },
        {
          "id": 97,
          "value": 0.0
        },
        {
          "id": 98,
          "value": 0.0
        },
        {
          "id": 99,
          "value": 0.0
        },
        {
          "id": 100,
          "value": 13.0
        },
        {
          "id": 101,
          "value": 13.0
        },
        {
          "id": 102,
          "value": 13.0
        },
        {
          "id": 103,
          "value": 13.0
        },
        {
          "id": 104,
          "value": 13.0
        },
        {
          "id": 105,
          "value": 13.0
        },
        {
          "id": 106,
          "value": 13.0
        },
        {
          "id": 107,
          "value": 13.0
        },
        {
          "id": 108,
          "value": 13.0
        },
        {
          "id": 109,
          "value": 13.0
        },
        {
          "id": 110,
          "value": 13.0
        },
        {
          "id": 111,
          "value": 13.0
        },
        {
          "id": 112,
          "value": 13.0
        },
        {
          "id": 113,
          "value": 13.0
        },
        {
          "id": 114,
          "value": 13.0
        },
        {
          "id": 115,
          "value": 13.0
        },
        {
          "id": 116,
          "value": 20010.0
        },
        {
          "id": 117,
          "value": 20010.0
        },
        {
          "id": 118,
          "value": 20010.0
        },
        {
          "id": 119,
          "value": 20010.0
        },
        {
          "id": 120,
          "value": 20010.0
        },
        {
          "id": 121,
          "value": 20010.0
        },
        {
          "id": 122,
          "value": 20010.0
        },
        {
          "id": 123,
          "value": 20010.0
        },
        {
          "id": 124,
          "value": 20010.0
        },
        {
          "id": 125,
          "value": 20010.0
        },
        {
          "id": 126,
          "value": 20010.0
        },
        {
          "id": 127,
          "value": 20010.0
        },
        {
          "id": 128,
          "value": 20010.0
        },
        {
          "id": 129,
          "value": 20010.0
        },
        {
          "id": 130,
          "value": 20010.0
        },
        {
          "id": 131,
          "value": 20010.0
        },
        {
          "id": 132,
          "value": 13.0
        },
        {
          "id": 133,
          "value": 13.0
        },
        {
          "id": 134,
          "value": 13.0
        },
        {
          "id": 135,
          "value": 13.0
        },
        {
          "id": 136,
          "value": 20010.0
        },
        {
          "id": 137,
          "value": 20010.0
        },
        {
          "id": 138,
          "value": 20010.0
        },
        {
          "id": 139,
          "value": 20010.0
        }
      ],
      "rightModuleId": 145,
      "data": {
        "trackLabels": "FM1 FM2 FM3 VIBRPALMKICKSNARCHRDCAT -10--11--12--13--14--15--16-GRP1GRP2GRP3GRP4",
        "panLawMono": 1,
        "panLawStereo": 1,
        "directOutsMode": 3,
        "directOutsSkipGroupedTracks": 0,
        "auxSendsMode": 3,
        "groupsControlTrackSendLevels": 0,
        "auxReturnsMutedWhenMainSolo": 0,
        "auxReturnsSolosMuteDry": 0,
        "chainMode": 0,
        "colorAndCloak": 117440512,
        "symmetricalFade": false,
        "fadeCvOutsWithVolCv": false,
        "linkBitMask": 0,
        "filterPos": 1,
        "groupedAuxReturnFeedbackProtection": 1,
        "ecoMode": 65535,
        "faders": [
          1.0,
          1.0,
          1.0,
          1.0,
          1.0,
          1.0,
          1.0,
          1.0,
          1.0,
          1.0,
          1.0,
          1.0,
          1.0,
          1.0,
          1.0,
          1.0,
          1.0,
          1.0,
          1.0,
          1.0
        ],
        "momentaryCvButtons": 1,
        "masterFaderScalesSends": 0,
        "linearVolCvInputs": 0,
        "id_t0_gainAdjust": 1.0,
        "id_t0_fadeRate": 0.0,
        "id_t0_fadeProfile": 0.0,
        "id_t0_directOutsMode": 3,
        "id_t0_auxSendsMode": 3,
        "id_t0_panLawStereo": 1,
        "id_t0_vuColorThemeLocal": 0,
        "id_t0_filterPos": 1,
        "id_t0_dispColorLocal": 0,
        "id_t0_polyStereo": 0,
        "id_t0_panCvLevel": 1.0,
        "id_t0_stereoWidth": 1.0,
        "id_t0_invertInput": 0,
        "id_t1_gainAdjust": 1.0,
        "id_t1_fadeRate": 0.0,
        "id_t1_fadeProfile": 0.0,
        "id_t1_directOutsMode": 3,
        "id_t1_auxSendsMode": 3,
        "id_t1_panLawStereo": 1,
        "id_t1_vuColorThemeLocal": 0,
        "id_t1_filterPos": 1,
        "id_t1_dispColorLocal": 0,
        "id_t1_polyStereo": 0,
        "id_t1_panCvLevel": 1.0,
        "id_t1_stereoWidth": 1.0,
        "id_t1_invertInput": 0,
        "id_t2_gainAdjust": 1.0,
        "id_t2_fadeRate": 0.0,
        "id_t2_fadeProfile": 0.0,
        "id_t2_directOutsMode": 3,
        "id_t2_auxSendsMode": 3,
        "id_t2_panLawStereo": 1,
        "id_t2_vuColorThemeLocal": 0,
        "id_t2_filterPos": 1,
        "id_t2_dispColorLocal": 0,
        "id_t2_polyStereo": 0,
        "id_t2_panCvLevel": 1.0,
        "id_t2_stereoWidth": 1.0,
        "id_t2_invertInput": 0,
        "id_t3_gainAdjust": 1.0,
        "id_t3_fadeRate": 0.0,
        "id_t3_fadeProfile": 0.0,
        "id_t3_directOutsMode": 3,
        "id_t3_auxSendsMode": 3,
        "id_t3_panLawStereo": 1,
        "id_t3_vuColorThemeLocal": 0,
        "id_t3_filterPos": 1,
        "id_t3_dispColorLocal": 0,
        "id_t3_polyStereo": 0,
        "id_t3_panCvLevel": 1.0,
        "id_t3_stereoWidth": 1.0,
        "id_t3_invertInput": 0,
        "id_t4_gainAdjust": 0.751622796,
        "id_t4_fadeRate": 0.0,
        "id_t4_fadeProfile": 0.0,
        "id_t4_directOutsMode": 3,
        "id_t4_auxSendsMode": 3,
        "id_t4_panLawStereo": 1,
        "id_t4_vuColorThemeLocal": 0,
        "id_t4_filterPos": 1,
        "id_t4_dispColorLocal": 0,
        "id_t4_polyStereo": 0,
        "id_t4_panCvLevel": 1.0,
        "id_t4_stereoWidth": 1.0,
        "id_t4_invertInput": 0,
        "id_t5_gainAdjust": 1.0,
        "id_t5_fadeRate": 0.0,
        "id_t5_fadeProfile": 0.0,
        "id_t5_directOutsMode": 3,
        "id_t5_auxSendsMode": 3,
        "id_t5_panLawStereo": 1,
        "id_t5_vuColorThemeLocal": 0,
        "id_t5_filterPos": 1,
        "id_t5_dispColorLocal": 0,
        "id_t5_polyStereo": 0,
        "id_t5_panCvLevel": 1.0,
        "id_t5_stereoWidth": 1.0,
        "id_t5_invertInput": 0,
        "id_t6_gainAdjust": 1.0,
        "id_t6_fadeRate": 0.0,
        "id_t6_fadeProfile": 0.0,
        "id_t6_directOutsMode": 3,
        "id_t6_auxSendsMode": 3,
        "id_t6_panLawStereo": 1,
        "id_t6_vuColorThemeLocal": 0,
        "id_t6_filterPos": 1,
        "id_t6_dispColorLocal": 0,
        "id_t6_polyStereo": 0,
        "id_t6_panCvLevel": 1.0,
        "id_t6_stereoWidth": 1.0,
        "id_t6_invertInput": 0,
        "id_t7_gainAdjust": 1.0,
        "id_t7_fadeRate": 0.0,
        "id_t7_fadeProfile": 0.0,
        "id_t7_directOutsMode": 3,
        "id_t7_auxSendsMode": 3,
        "id_t7_panLawStereo": 1,
        "id_t7_vuColorThemeLocal": 0,
        "id_t7_filterPos": 1,
        "id_t7_dispColorLocal": 0,
        "id_t7_polyStereo": 0,
        "id_t7_panCvLevel": 1.0,
        "id_t7_stereoWidth": 1.0,
        "id_t7_invertInput": 0,
        "id_t8_gainAdjust": 1.0,
        "id_t8_fadeRate": 0.0,
        "id_t8_fadeProfile": 0.0,
        "id_t8_directOutsMode": 3,
        "id_t8_auxSendsMode": 3,
        "id_t8_panLawStereo": 1,
        "id_t8_vuColorThemeLocal": 0,
        "id_t8_filterPos": 1,
        "id_t8_dispColorLocal": 0,
        "id_t8_polyStereo": 0,
        "id_t8_panCvLevel": 1.0,
        "id_t8_stereoWidth": 1.0,
        "id_t8_invertInput": 0,
        "id_t9_gainAdjust": 1.0,
        "id_t9_fadeRate": 0.0,
        "id_t9_fadeProfile": 0.0,
        "id_t9_directOutsMode": 3,
        "id_t9_auxSendsMode": 3,
        "id_t9_panLawStereo": 1,
        "id_t9_vuColorThemeLocal": 0,
        "id_t9_filterPos": 1,
        "id_t9_dispColorLocal": 0,
        "id_t9_polyStereo": 0,
        "id_t9_panCvLevel": 1.0,
        "id_t9_stereoWidth": 1.0,
        "id_t9_invertInput": 0,
        "id_t10_gainAdjust": 1.0,
        "id_t10_fadeRate": 0.0,
        "id_t10_fadeProfile": 0.0,
        "id_t10_directOutsMode": 3,
        "id_t10_auxSendsMode": 3,
        "id_t10_panLawStereo": 1,
        "id_t10_vuColorThemeLocal": 0,
        "id_t10_filterPos": 1,
        "id_t10_dispColorLocal": 0,
        "id_t10_polyStereo": 0,
        "id_t10_panCvLevel": 1.0,
        "id_t10_stereoWidth": 1.0,
        "id_t10_invertInput": 0,
        "id_t11_gainAdjust": 1.0,
        "id_t11_fadeRate": 0.0,
        "id_t11_fadeProfile": 0.0,
        "id_t11_directOutsMode": 3,
        "id_t11_auxSendsMode": 3,
        "id_t11_panLawStereo": 1,
        "id_t11_vuColorThemeLocal": 0,
        "id_t11_filterPos": 1,
        "id_t11_dispColorLocal": 0,
        "id_t11_polyStereo": 0,
        "id_t11_panCvLevel": 1.0,
        "id_t11_stereoWidth": 1.0,
        "id_t11_invertInput": 0,
        "id_t12_gainAdjust": 1.0,
        "id_t12_fadeRate": 0.0,
        "id_t12_fadeProfile": 0.0,
        "id_t12_directOutsMode": 3,
        "id_t12_auxSendsMode": 3,
        "id_t12_panLawStereo": 1,
        "id_t12_vuColorThemeLocal": 0,
        "id_t12_filterPos": 1,
        "id_t12_dispColorLocal": 0,
        "id_t12_polyStereo": 0,
        "id_t12_panCvLevel": 1.0,
        "id_t12_stereoWidth": 1.0,
        "id_t12_invertInput": 0,
        "id_t13_gainAdjust": 1.0,
        "id_t13_fadeRate": 0.0,
        "id_t13_fadeProfile": 0.0,
        "id_t13_directOutsMode": 3,
        "id_t13_auxSendsMode": 3,
        "id_t13_panLawStereo": 1,
        "id_t13_vuColorThemeLocal": 0,
        "id_t13_filterPos": 1,
        "id_t13_dispColorLocal": 0,
        "id_t13_polyStereo": 0,
        "id_t13_panCvLevel": 1.0,
        "id_t13_stereoWidth": 1.0,
        "id_t13_invertInput": 0,
        "id_t14_gainAdjust": 1.0,
        "id_t14_fadeRate": 0.0,
        "id_t14_fadeProfile": 0.0,
        "id_t14_directOutsMode": 3,
        "id_t14_auxSendsMode": 3,
        "id_t14_panLawStereo": 1,
        "id_t14_vuColorThemeLocal": 0,
        "id_t14_filterPos": 1,
        "id_t14_dispColorLocal": 0,
        "id_t14_polyStereo": 0,
        "id_t14_panCvLevel": 1.0,
        "id_t14_stereoWidth": 1.0,
        "id_t14_invertInput": 0,
        "id_t15_gainAdjust": 1.0,
        "id_t15_fadeRate": 0.0,
        "id_t15_fadeProfile": 0.0,
        "id_t15_directOutsMode": 3,
        "id_t15_auxSendsMode": 3,
        "id_t15_panLawStereo": 1,
        "id_t15_vuColorThemeLocal": 0,
        "id_t15_filterPos": 1,
        "id_t15_dispColorLocal": 0,
        "id_t15_polyStereo": 0,
        "id_t15_panCvLevel": 1.0,
        "id_t15_stereoWidth": 1.0,
        "id_t15_invertInput": 0,
        "id_g0_fadeRate": 0.0,
        "id_g0_fadeProfile": 0.0,
        "id_g0_directOutsMode": 3,
        "id_g0_auxSendsMode": 3,
        "id_g0_panLawStereo": 1,
        "id_g0_vuColorThemeLocal": 0,
        "id_g0_filterPos": 1,
        "id_g0_dispColorLocal": 0,
        "id_g0_panCvLevel": 1.0,
        "id_g0_stereoWidth": 1.0,
        "id_g1_fadeRate": 0.0,
        "id_g1_fadeProfile": 0.0,
        "id_g1_directOutsMode": 3,
        "id_g1_auxSendsMode": 3,
        "id_g1_panLawStereo": 1,
        "id_g1_vuColorThemeLocal": 0,
        "id_g1_filterPos": 1,
        "id_g1_dispColorLocal": 0,
        "id_g1_panCvLevel": 1.0,
        "id_g1_stereoWidth": 1.0,
        "id_g2_fadeRate": 0.0,
        "id_g2_fadeProfile": 0.0,
        "id_g2_directOutsMode": 3,
        "id_g2_auxSendsMode": 3,
        "id_g2_panLawStereo": 1,
        "id_g2_vuColorThemeLocal": 0,
        "id_g2_filterPos": 1,
        "id_g2_dispColorLocal": 0,
        "id_g2_panCvLevel": 1.0,
        "id_g2_stereoWidth": 1.0,
        "id_g3_fadeRate": 0.0,
        "id_g3_fadeProfile": 0.0,
        "id_g3_directOutsMode": 3,
        "id_g3_auxSendsMode": 3,
        "id_g3_panLawStereo": 1,
        "id_g3_vuColorThemeLocal": 0,
        "id_g3_filterPos": 1,
        "id_g3_dispColorLocal": 0,
        "id_g3_panCvLevel": 1.0,
        "id_g3_stereoWidth": 1.0,
        "dcBlock": false,
        "clipping": 0,
        "fadeRate": 0.0,
        "fadeProfile": 0.0,
        "vuColorThemeLocal": 0,
        "dispColorLocal": 0,
        "chainOnly": 0,
        "dimGain": 0.251190007,
        "masterLabel": "MASTER"
      },
      "pos": [
        0,
        1
      ]
    },
    {
      "id": 145,
      "plugin": "MindMeldModular",
      "version": "1.1.12",
      "model": "AuxExpander",
      "params": [
        {
          "id": 0,
          "value": 0.346500069
        },
        {
          "id": 1,
          "value": 0.0
        },
        {
          "id": 2,
          "value": 0.0
        },
        {
          "id": 3,
          "value": 0.0
        },
        {
          "id": 4,
          "value": 0.248999909
        },
        {
          "id": 5,
          "value": 0.0
        },
        {
          "id": 6,
          "value": 0.0
        },
        {
          "id": 7,
          "value": 0.0
        },
        {
          "id": 8,
          "value": 0.256499976
        },
        {
          "id": 9,
          "value": 0.0
        },
        {
          "id": 10,
          "value": 0.0
        },
        {
          "id": 11,
          "value": 0.0
        },
        {
          "id": 12,
          "value": 0.0
        },
        {
          "id": 13,
          "value": 0.0
        },
        {
          "id": 14,
          "value": 0.0
        },
        {
          "id": 15,
          "value": 0.0
        },
        {
          "id": 16,
          "value": 0.0
        },
        {
          "id": 17,
          "value": 0.0
        },
        {
          "id": 18,
          "value": 0.0
        },
        {
          "id": 19,
          "value": 0.0
        },
        {
          "id": 20,
          "value": 0.0
        },
        {
          "id": 21,
          "value": 0.0
        },
        {
          "id": 22,
          "value": 0.0
        },
        {
          "id": 23,
          "value": 0.0
        },
        {
          "id": 24,
          "value": 0.0
        },
        {
          "id": 25,
          "value": 1.0
        },
        {
          "id": 26,
          "value": 0.0
        },
        {
          "id": 27,
          "value": 0.0
        },
        {
          "id": 28,
          "value": 0.361500025
        },
        {
          "id": 29,
          "value": 0.955000162
        },
        {
          "id": 30,
          "value": 0.0
        },
        {
          "id": 31,
          "value": 0.0
        },
        {
          "id": 32,
          "value": 0.906999886
        },
        {
          "id": 33,
          "value": 0.777999878
        },
        {
          "id": 34,
          "value": 0.0
        },
        {
          "id": 35,
          "value": 0.0
        },
        {
          "id": 36,
          "value": 0.0
        },
        {
          "id": 37,
          "value": 0.0
        },
        {
          "id": 38,
          "value": 0.0
        },
        {
          "id": 39,
          "value": 0.0
        },
        {
          "id": 40,
          "value": 0.0
        },
        {
          "id": 41,
          "value": 0.0
        },
        {
          "id": 42,
          "value": 0.0
        },
        {
          "id": 43,
          "value": 0.0
        },
        {
          "id": 44,
          "value": 0.0
        },
        {
          "id": 45,
          "value": 0.0
        },
        {
          "id": 46,
          "value": 0.0
        },
        {
          "id": 47,
          "value": 0.0
        },
        {
          "id": 48,
          "value": 0.0
        },
        {
          "id": 49,
          "value": 0.0
        },
        {
          "id": 50,
          "value": 0.0
        },
        {
          "id": 51,
          "value": 0.0
        },
        {
          "id": 52,
          "value": 0.0
        },
        {
          "id": 53,
          "value": 0.0
        },
        {
          "id": 54,
          "value": 0.0
        },
        {
          "id": 55,
          "value": 0.0
        },
        {
          "id": 56,
          "value": 0.0
        },
        {
          "id": 57,
          "value": 0.0
        },
        {
          "id": 58,
          "value": 0.0
        },
        {
          "id": 59,
          "value": 0.0
        },
        {
          "id": 60,
          "value": 0.0
        },
        {
          "id": 61,
          "value": 0.0
        },
        {
          "id": 62,
          "value": 0.0
        },
        {
          "id": 63,
          "value": 0.0
        },
        {
          "id": 64,
          "value": 0.0
        },
        {
          "id": 65,
          "value": 0.0
        },
        {
          "id": 66,
          "value": 0.0
        },
        {
          "id": 67,
          "value": 0.0
        },
        {
          "id": 68,
          "value": 0.0
        },
        {
          "id": 69,
          "value": 0.0
        },
        {
          "id": 70,
          "value": 0.0
        },
        {
          "id": 71,
          "value": 0.0
        },
        {
          "id": 72,
          "value": 0.0
        },
        {
          "id": 73,
          "value": 0.0
        },
        {
          "id": 74,
          "value": 0.0
        },
        {
          "id": 75,
          "value": 0.0
        },
        {
          "id": 76,
          "value": 0.0
        },
        {
          "id": 77,
          "value": 0.0
        },
        {
          "id": 78,
          "value": 0.0
        },
        {
          "id": 79,
          "value": 0.0
        },
        {
          "id": 80,
          "value": 0.0
        },
        {
          "id": 81,
          "value": 0.0
        },
        {
          "id": 82,
          "value": 0.0
        },
        {
          "id": 83,
          "value": 0.0
        },
        {
          "id": 84,
          "value": 0.0
        },
        {
          "id": 85,
          "value": 0.0
        },
        {
          "id": 86,
          "value": 0.0
        },
        {
          "id": 87,
          "value": 0.0
        },
        {
          "id": 88,
          "value": 0.0
        },
        {
          "id": 89,
          "value": 0.0
        },
        {
          "id": 90,
          "value": 0.0
        },
        {
          "id": 91,
          "value": 0.0
        },
        {
          "id": 92,
          "value": 0.0
        },
        {
          "id": 93,
          "value": 0.0
        },
        {
          "id": 94,
          "value": 0.0
        },
        {
          "id": 95,
          "value": 0.0
        },
        {
          "id": 96,
          "value": 0.0
        },
        {
          "id": 97,
          "value": 0.0
        },
        {
          "id": 98,
          "value": 0.0
        },
        {
          "id": 99,
          "value": 0.0
        },
        {
          "id": 100,
          "value": 0.0
        },
        {
          "id": 101,
          "value": 0.0
        },
        {
          "id": 102,
          "value": 0.0
        },
        {
          "id": 103,
          "value": 0.0
        },
        {
          "id": 104,
          "value": 0.0
        },
        {
          "id": 105,
          "value": 0.0
        },
        {
          "id": 106,
          "value": 0.0
        },
        {
          "id": 107,
          "value": 0.0
        },
        {
          "id": 108,
          "value": 0.0
        },
        {
          "id": 109,
          "value": 0.0
        },
        {
          "id": 110,
          "value": 0.0
        },
        {
          "id": 111,
          "value": 0.0
        },
        {
          "id": 112,
          "value": 1.0
        },
        {
          "id": 113,
          "value": 1.0
        },
        {
          "id": 114,
          "value": 1.0
        },
        {
          "id": 115,
          "value": 1.0
        },
        {
          "id": 116,
          "value": 0.5
        },
        {
          "id": 117,
          "value": 0.5
        },
        {
          "id": 118,
          "value": 0.5
        },
        {
          "id": 119,
          "value": 0.5
        },
        {
          "id": 120,
          "value": 1.0
        },
        {
          "id": 121,
          "value": 1.0
        },
        {
          "id": 122,
          "value": 1.0
        },
        {
          "id": 123,
          "value": 1.0
        }
      ],
      "leftModuleId": 144,
      "rightModuleId": 223,
      "data": {
        "directOutsModeLocal": 50529027,
        "panLawStereoLocal": 16843009,
        "vuColorThemeLocal": 0,
        "dispColorAuxLocal": [
          0,
          0,
          0,
          0
        ],
        "auxFadeRatesAndProfiles": [
          0.0,
          0.0,
          0.0,
          0.0,
          0.0,
          0.0,
          0.0,
          0.0
        ],
        "auxLabels": "AUXAAUXBAUXCAUXD",
        "id_x0_hpfCutoffFreq": 13.0,
        "id_x0_lpfCutoffFreq": 20010.0,
        "id_x0_stereoWidth": 1.0,
        "id_x1_hpfCutoffFreq": 13.0,
        "id_x1_lpfCutoffFreq": 20010.0,
        "id_x1_stereoWidth": 1.0,
        "id_x2_hpfCutoffFreq": 13.0,
        "id_x2_lpfCutoffFreq": 20010.0,
        "id_x2_stereoWidth": 1.0,
        "id_x3_hpfCutoffFreq": 13.0,
        "id_x3_lpfCutoffFreq": 20010.0,
        "id_x3_stereoWidth": 1.0,
        "panCvLevels": [
          1.0,
          1.0,
          1.0,
          1.0
        ]
      },
      "pos": [
        61,
        1
      ]
    },
    {
      "id": 221,
      "plugin": "ImpromptuModular",
      "version": "1.1.10",
      "model": "Clocked",
      "params": [
        {
          "id": 0,
          "value": 129.0
        },
        {
          "id": 1,
          "value": 2.0
        },
        {
          "id": 2,
          "value": -2.0
        },
        {
          "id": 3,
          "value": -9.0
        },
        {
          "id": 4,
          "value": 0.0
        },
        {
          "id": 5,
          "value": 0.0
        },
        {
          "id": 6,
          "value": 0.0
        },
        {
          "id": 7,
          "value": 0.0
        },
        {
          "id": 8,
          "value": 0.5
        },
        {
          "id": 9,
          "value": 0.5
        },
        {
          "id": 10,
          "value": 0.5
        },
        {
          "id": 11,
          "value": 0.5
        },
        {
          "id": 12,
          "value": 0.0
        },
        {
          "id": 13,
          "value": 0.0
        },
        {
          "id": 14,
          "value": 0.0
        },
        {
          "id": 15,
          "value": 0.0
        },
        {
          "id": 16,
          "value": 0.0
        },
        {
          "id": 17,
          "value": 0.0
        },
        {
          "id": 18,
          "value": 0.0
        },
        {
          "id": 19,
          "value": 0.0
        }
      ],
      "data": {
        "panelTheme": 1,
        "running": true,
        "displayDelayNoteMode": true,
        "bpmDetectionMode": false,
        "resetOnStartStop": 0,
        "ppqn": 4,
        "resetClockOutputsHigh": true,
        "momentaryRunInput": true,
        "clockMaster": false
      },
      "pos": [
        0,
        2
      ]
    },
    {
      "id": 223,
      "plugin": "Stoermelder-P1",
      "version": "1.8.0",
      "model": "Mb",
      "params": [],
      "leftModuleId": 145,
      "data": {
        "mode": 1
      },
      "pos": [
        103,
        1
      ]
    },
    {
      "id": 262,
      "plugin": "Core",
      "version": "1.1.6",
      "model": "Notes",
      "params": [],
      "text": "Omri Cohen\n\n5 New Modules to experiment with in January 2021\n\nhttps://youtu.be/LTSPj2sUYtg\n\n\nSomething   like   eugene\n",
      "pos": [
        50,
        0
      ]
    },
    {
      "id": 292,
      "plugin": "RareBreeds_Orbits",
      "version": "1.1.1",
      "model": "RareBreeds_Orbits_Eugene",
      "params": [
        {
          "id": 0,
          "value": 13.7719717
        },
        {
          "id": 1,
          "value": 0.637998581
        },
        {
          "id": 2,
          "value": 0.0
        },
        {
          "id": 3,
          "value": 0.0
        },
        {
          "id": 4,
          "value": 0.0
        },
        {
          "id": 5,
          "value": 0.127499998
        },
        {
          "id": 6,
          "value": 0.0
        },
        {
          "id": 7,
          "value": 0.0
        }
      ],
      "rightModuleId": 293,
      "data": {
        "widget": {
          "theme": "Dark"
        }
      },
      "pos": [
        0,
        3
      ]
    },
    {
      "id": 293,
      "plugin": "Bogaudio",
      "version": "1.1.35",
      "model": "Bogaudio-Reftone",
      "params": [
        {
          "id": 0,
          "value": 2.0
        },
        {
          "id": 1,
          "value": 5.0
        },
        {
          "id": 2,
          "value": 0.0
        }
      ],
      "leftModuleId": 292,
      "rightModuleId": 294,
      "data": {},
      "pos": [
        12,
        3
      ]
    },
    {
      "id": 294,
      "plugin": "Bogaudio",
      "version": "1.1.35",
      "model": "Bogaudio-FMOp",
      "params": [
        {
          "id": 0,
          "value": 0.111111112
        },
        {
          "id": 1,
          "value": -0.0929999873
        },
        {
          "id": 2,
          "value": 0.0
        },
        {
          "id": 3,
          "value": 0.127229959
        },
        {
          "id": 4,
          "value": 1.0
        },
        {
          "id": 5,
          "value": 0.139230028
        },
        {
          "id": 6,
          "value": 0.0
        },
        {
          "id": 7,
          "value": 0.0
        },
        {
          "id": 8,
          "value": 0.987000108
        },
        {
          "id": 9,
          "value": 1.0
        },
        {
          "id": 10,
          "value": 0.0
        },
        {
          "id": 11,
          "value": 0.0
        }
      ],
      "leftModuleId": 293,
      "rightModuleId": 295,
      "data": {
        "linearLevel": false
      },
      "pos": [
        15,
        3
      ]
    },
    {
      "id": 295,
      "plugin": "Bogaudio",
      "version": "1.1.35",
      "model": "Bogaudio-FMOp",
      "params": [
        {
          "id": 0,
          "value": 0.0
        },
        {
          "id": 1,
          "value": 0.0869999975
        },
        {
          "id": 2,
          "value": 0.0
        },
        {
          "id": 3,
          "value": 0.316229999
        },
        {
          "id": 4,
          "value": 1.0
        },
        {
          "id": 5,
          "value": 0.34473002
        },
        {
          "id": 6,
          "value": 0.0779999867
        },
        {
          "id": 7,
          "value": 0.0
        },
        {
          "id": 8,
          "value": 1.0
        },
        {
          "id": 9,
          "value": 1.0
        },
        {
          "id": 10,
          "value": 0.0
        },
        {
          "id": 11,
          "value": 0.0
        }
      ],
      "leftModuleId": 294,
      "rightModuleId": 296,
      "data": {
        "linearLevel": false
      },
      "pos": [
        25,
        3
      ]
    },
    {
      "id": 296,
      "plugin": "RareBreeds_Orbits",
      "version": "1.1.1",
      "model": "RareBreeds_Orbits_Eugene",
      "params": [
        {
          "id": 0,
          "value": 16.2364902
        },
        {
          "id": 1,
          "value": 0.837498665
        },
        {
          "id": 2,
          "value": 0.0
        },
        {
          "id": 3,
          "value": 0.0
        },
        {
          "id": 4,
          "value": 0.0
        },
        {
          "id": 5,
          "value": 0.127499998
        },
        {
          "id": 6,
          "value": 0.0
        },
        {
          "id": 7,
          "value": 0.0
        }
      ],
      "leftModuleId": 295,
      "rightModuleId": 297,
      "data": {
        "widget": {
          "theme": "Dark"
        }
      },
      "pos": [
        35,
        3
      ]
    },
    {
      "id": 297,
      "plugin": "Bogaudio",
      "version": "1.1.35",
      "model": "Bogaudio-Reftone",
      "params": [
        {
          "id": 0,
          "value": 7.0
        },
        {
          "id": 1,
          "value": 4.0
        },
        {
          "id": 2,
          "value": 0.0
        }
      ],
      "leftModuleId": 296,
      "rightModuleId": 298,
      "data": {},
      "pos": [
        47,
        3
      ]
    },
    {
      "id": 298,
      "plugin": "Bogaudio",
      "version": "1.1.35",
      "model": "Bogaudio-FMOp",
      "params": [
        {
          "id": 0,
          "value": 0.111111112
        },
        {
          "id": 1,
          "value": -0.0929999873
        },
        {
          "id": 2,
          "value": 0.0
        },
        {
          "id": 3,
          "value": 0.127229959
        },
        {
          "id": 4,
          "value": 1.0
        },
        {
          "id": 5,
          "value": 0.139230028
        },
        {
          "id": 6,
          "value": 0.0
        },
        {
          "id": 7,
          "value": 0.0
        },
        {
          "id": 8,
          "value": 0.987000108
        },
        {
          "id": 9,
          "value": 1.0
        },
        {
          "id": 10,
          "value": 0.0
        },
        {
          "id": 11,
          "value": 0.0
        }
      ],
      "leftModuleId": 297,
      "rightModuleId": 299,
      "data": {
        "linearLevel": false
      },
      "pos": [
        50,
        3
      ]
    },
    {
      "id": 299,
      "plugin": "Bogaudio",
      "version": "1.1.35",
      "model": "Bogaudio-FMOp",
      "params": [
        {
          "id": 0,
          "value": 0.0
        },
        {
          "id": 1,
          "value": 0.0869999975
        },
        {
          "id": 2,
          "value": 0.0
        },
        {
          "id": 3,
          "value": 0.316229999
        },
        {
          "id": 4,
          "value": 1.0
        },
        {
          "id": 5,
          "value": 0.34473002
        },
        {
          "id": 6,
          "value": 0.0779999867
        },
        {
          "id": 7,
          "value": 0.0
        },
        {
          "id": 8,
          "value": 1.0
        },
        {
          "id": 9,
          "value": 1.0
        },
        {
          "id": 10,
          "value": 0.0
        },
        {
          "id": 11,
          "value": 0.0
        }
      ],
      "leftModuleId": 298,
      "rightModuleId": 300,
      "data": {
        "linearLevel": false
      },
      "pos": [
        60,
        3
      ]
    },
    {
      "id": 300,
      "plugin": "RareBreeds_Orbits",
      "version": "1.1.1",
      "model": "RareBreeds_Orbits_Eugene",
      "params": [
        {
          "id": 0,
          "value": 12.609498
        },
        {
          "id": 1,
          "value": 0.66649878
        },
        {
          "id": 2,
          "value": 0.0
        },
        {
          "id": 3,
          "value": 0.0
        },
        {
          "id": 4,
          "value": 0.0
        },
        {
          "id": 5,
          "value": 0.127499998
        },
        {
          "id": 6,
          "value": 0.0
        },
        {
          "id": 7,
          "value": 0.0
        }
      ],
      "leftModuleId": 299,
      "rightModuleId": 301,
      "data": {
        "widget": {
          "theme": "Dark"
        }
      },
      "pos": [
        70,
        3
      ]
    },
    {
      "id": 301,
      "plugin": "Bogaudio",
      "version": "1.1.35",
      "model": "Bogaudio-Reftone",
      "params": [
        {
          "id": 0,
          "value": 9.0
        },
        {
          "id": 1,
          "value": 4.0
        },
        {
          "id": 2,
          "value": 0.0
        }
      ],
      "leftModuleId": 300,
      "rightModuleId": 302,
      "data": {},
      "pos": [
        82,
        3
      ]
    },
    {
      "id": 302,
      "plugin": "Bogaudio",
      "version": "1.1.35",
      "model": "Bogaudio-FMOp",
      "params": [
        {
          "id": 0,
          "value": 0.111111112
        },
        {
          "id": 1,
          "value": -0.0929999873
        },
        {
          "id": 2,
          "value": 0.0
        },
        {
          "id": 3,
          "value": 0.127229959
        },
        {
          "id": 4,
          "value": 1.0
        },
        {
          "id": 5,
          "value": 0.139230028
        },
        {
          "id": 6,
          "value": 0.0
        },
        {
          "id": 7,
          "value": 0.0
        },
        {
          "id": 8,
          "value": 0.987000108
        },
        {
          "id": 9,
          "value": 1.0
        },
        {
          "id": 10,
          "value": 0.0
        },
        {
          "id": 11,
          "value": 0.0
        }
      ],
      "leftModuleId": 301,
      "rightModuleId": 303,
      "data": {
        "linearLevel": false
      },
      "pos": [
        85,
        3
      ]
    },
    {
      "id": 303,
      "plugin": "Bogaudio",
      "version": "1.1.35",
      "model": "Bogaudio-FMOp",
      "params": [
        {
          "id": 0,
          "value": 0.0
        },
        {
          "id": 1,
          "value": 0.0869999975
        },
        {
          "id": 2,
          "value": 0.0
        },
        {
          "id": 3,
          "value": 0.316229999
        },
        {
          "id": 4,
          "value": 1.0
        },
        {
          "id": 5,
          "value": 0.34473002
        },
        {
          "id": 6,
          "value": 0.0779999867
        },
        {
          "id": 7,
          "value": 0.0
        },
        {
          "id": 8,
          "value": 1.0
        },
        {
          "id": 9,
          "value": 1.0
        },
        {
          "id": 10,
          "value": 0.0
        },
        {
          "id": 11,
          "value": 0.0
        }
      ],
      "leftModuleId": 302,
      "data": {
        "linearLevel": false
      },
      "pos": [
        95,
        3
      ]
    },
    {
      "id": 304,
      "plugin": "CountModula",
      "version": "1.13.0",
      "model": "BooleanXOR",
      "params": [
        {
          "id": 0,
          "value": 0.0
        }
      ],
      "rightModuleId": 305,
      "data": {
        "moduleVersion": 1.29999995,
        "theme": 1
      },
      "pos": [
        24,
        2
      ]
    },
    {
      "id": 305,
      "plugin": "Bogaudio",
      "version": "1.1.35",
      "model": "Bogaudio-Reftone",
      "params": [
        {
          "id": 0,
          "value": 3.0
        },
        {
          "id": 1,
          "value": 4.0
        },
        {
          "id": 2,
          "value": 0.0
        }
      ],
      "leftModuleId": 304,
      "rightModuleId": 306,
      "data": {},
      "pos": [
        28,
        2
      ]
    },
    {
      "id": 306,
      "plugin": "Bogaudio",
      "version": "1.1.35",
      "model": "Bogaudio-Reftone",
      "params": [
        {
          "id": 0,
          "value": 7.0
        },
        {
          "id": 1,
          "value": 3.0
        },
        {
          "id": 2,
          "value": 0.0
        }
      ],
      "leftModuleId": 305,
      "rightModuleId": 307,
      "data": {},
      "pos": [
        31,
        2
      ]
    },
    {
      "id": 307,
      "plugin": "Bogaudio",
      "version": "1.1.35",
      "model": "Bogaudio-Reftone",
      "params": [
        {
          "id": 0,
          "value": 6.0
        },
        {
          "id": 1,
          "value": 5.0
        },
        {
          "id": 2,
          "value": 0.0
        }
      ],
      "leftModuleId": 306,
      "rightModuleId": 308,
      "data": {},
      "pos": [
        34,
        2
      ]
    },
    {
      "id": 308,
      "plugin": "Bogaudio",
      "version": "1.1.35",
      "model": "Bogaudio-Reftone",
      "params": [
        {
          "id": 0,
          "value": 7.0
        },
        {
          "id": 1,
          "value": 4.0
        },
        {
          "id": 2,
          "value": 0.0
        }
      ],
      "leftModuleId": 307,
      "rightModuleId": 309,
      "data": {},
      "pos": [
        37,
        2
      ]
    },
    {
      "id": 309,
      "plugin": "ML_modules",
      "version": "1.1.3",
      "model": "SeqSwitch",
      "params": [
        {
          "id": 0,
          "value": 8.0
        },
        {
          "id": 1,
          "value": 0.0
        },
        {
          "id": 2,
          "value": 0.0
        },
        {
          "id": 3,
          "value": 0.0
        },
        {
          "id": 4,
          "value": 0.0
        },
        {
          "id": 5,
          "value": 0.0
        },
        {
          "id": 6,
          "value": 0.0
        },
        {
          "id": 7,
          "value": 0.0
        },
        {
          "id": 8,
          "value": 0.0
        }
      ],
      "leftModuleId": 308,
      "rightModuleId": 310,
      "data": {
        "inputRange": 0
      },
      "pos": [
        40,
        2
      ]
    },
    {
      "id": 310,
      "plugin": "LifeFormModular",
      "version": "1.1",
      "model": "PercussiveVibration",
      "params": [
        {
          "id": 0,
          "value": 8.0
        },
        {
          "id": 1,
          "value": 0.0
        },
        {
          "id": 2,
          "value": 0.0
        },
        {
          "id": 3,
          "value": 1.0
        },
        {
          "id": 4,
          "value": 0.0
        },
        {
          "id": 5,
          "value": 0.0
        },
        {
          "id": 6,
          "value": 0.82700026
        },
        {
          "id": 7,
          "value": 0.0
        },
        {
          "id": 8,
          "value": 0.342000306
        },
        {
          "id": 9,
          "value": 0.0
        },
        {
          "id": 10,
          "value": 0.0
        },
        {
          "id": 11,
          "value": -1.74499977
        },
        {
          "id": 12,
          "value": 0.0
        },
        {
          "id": 13,
          "value": 0.0
        },
        {
          "id": 14,
          "value": 0.0
        },
        {
          "id": 15,
          "value": 0.0
        },
        {
          "id": 16,
          "value": 0.0
        },
        {
          "id": 17,
          "value": 0.0
        },
        {
          "id": 18,
          "value": 0.0
        },
        {
          "id": 19,
          "value": 0.0
        },
        {
          "id": 20,
          "value": 0.899999976
        },
        {
          "id": 21,
          "value": 0.0
        },
        {
          "id": 22,
          "value": 0.0
        },
        {
          "id": 23,
          "value": 0.0840001106
        },
        {
          "id": 24,
          "value": 0.0
        },
        {
          "id": 25,
          "value": 0.0
        }
      ],
      "leftModuleId": 309,
      "rightModuleId": 311,
      "pos": [
        48,
        2
      ]
    },
    {
      "id": 311,
      "plugin": "21kHz",
      "version": "1.0.1",
      "model": "kHzPalmLoop",
      "params": [
        {
          "id": 0,
          "value": 8.0
        },
        {
          "id": 1,
          "value": 0.0
        },
        {
          "id": 2,
          "value": 0.0
        },
        {
          "id": 3,
          "value": -0.384999335
        },
        {
          "id": 4,
          "value": 3.26429892
        }
      ],
      "leftModuleId": 310,
      "rightModuleId": 312,
      "pos": [
        76,
        2
      ]
    },
    {
      "id": 312,
      "plugin": "Geodesics",
      "version": "1.2.0",
      "model": "Pulsars",
      "params": [
        {
          "id": 0,
          "value": 0.0
        },
        {
          "id": 1,
          "value": 0.0
        },
        {
          "id": 2,
          "value": 0.0
        },
        {
          "id": 3,
          "value": 0.0
        },
        {
          "id": 4,
          "value": 0.0
        },
        {
          "id": 5,
          "value": 0.0
        },
        {
          "id": 6,
          "value": 0.0
        },
        {
          "id": 7,
          "value": 0.0
        }
      ],
      "leftModuleId": 311,
      "rightModuleId": 313,
      "data": {
        "panelTheme": 1,
        "isVoid0": 1.0,
        "isVoid1": 0.0,
        "isReverse0": 0.0,
        "isReverse1": 0.0,
        "isRandom0": 0.0,
        "isRandom1": 0.0,
        "cvMode0": 1,
        "cvMode1": 0
      },
      "pos": [
        84,
        2
      ]
    },
    {
      "id": 313,
      "plugin": "Bogaudio",
      "version": "1.1.35",
      "model": "Bogaudio-VCF",
      "params": [
        {
          "id": 0,
          "value": 0.165110633
        },
        {
          "id": 1,
          "value": 0.0
        },
        {
          "id": 2,
          "value": 0.294000179
        },
        {
          "id": 3,
          "value": 0.142500117
        },
        {
          "id": 4,
          "value": 0.0
        },
        {
          "id": 5,
          "value": 0.342232764
        }
      ],
      "leftModuleId": 312,
      "data": {
        "bandwidthMode": "pitched"
      },
      "pos": [
        95,
        2
      ]
    },
    {
      "id": 314,
      "plugin": "VultModulesFree",
      "version": "1.14",
      "model": "Trummor2",
      "params": [
        {
          "id": 0,
          "value": 0.0500000007
        },
        {
          "id": 1,
          "value": 0.5
        },
        {
          "id": 2,
          "value": 0.0
        },
        {
          "id": 3,
          "value": 0.0
        },
        {
          "id": 4,
          "value": 0.0
        },
        {
          "id": 5,
          "value": 0.0
        },
        {
          "id": 6,
          "value": 0.0
        },
        {
          "id": 7,
          "value": 0.200000003
        },
        {
          "id": 8,
          "value": 0.400000006
        },
        {
          "id": 9,
          "value": 0.0
        },
        {
          "id": 10,
          "value": 0.0
        },
        {
          "id": 11,
          "value": 0.699999988
        },
        {
          "id": 12,
          "value": 0.0985001549
        },
        {
          "id": 13,
          "value": 0.552000046
        },
        {
          "id": 14,
          "value": -0.805000305
        },
        {
          "id": 15,
          "value": 0.629374325
        },
        {
          "id": 16,
          "value": 0.683999956
        },
        {
          "id": 17,
          "value": 0.0
        },
        {
          "id": 18,
          "value": 0.0
        },
        {
          "id": 19,
          "value": 0.34250018
        },
        {
          "id": 20,
          "value": 0.0634999201
        },
        {
          "id": 21,
          "value": 0.0
        },
        {
          "id": 22,
          "value": 0.0
        },
        {
          "id": 23,
          "value": 0.908499956
        },
        {
          "id": 24,
          "value": 0.0
        },
        {
          "id": 25,
          "value": 0.0
        },
        {
          "id": 26,
          "value": 0.0
        },
        {
          "id": 27,
          "value": 0.0
        },
        {
          "id": 28,
          "value": 0.0
        },
        {
          "id": 29,
          "value": 0.0
        },
        {
          "id": 30,
          "value": 0.0
        },
        {
          "id": 31,
          "value": 0.0
        },
        {
          "id": 32,
          "value": 0.0
        }
      ],
      "rightModuleId": 316,
      "data": {
        "mod_a": 0,
        "mod_b": 0,
        "mod_c": 0,
        "mod_d": 0,
        "mk2": true
      },
      "pos": [
        0,
        4
      ]
    },
    {
      "id": 315,
      "plugin": "AlrightDevices",
      "version": "1.0.3",
      "model": "Chronoblob2",
      "params": [
        {
          "id": 0,
          "value": 0.5
        },
        {
          "id": 1,
          "value": 0.620000184
        },
        {
          "id": 2,
          "value": 0.370999962
        },
        {
          "id": 3,
          "value": 0.0
        },
        {
          "id": 4,
          "value": 0.0
        },
        {
          "id": 5,
          "value": -0.344999909
        },
        {
          "id": 6,
          "value": 0.0
        },
        {
          "id": 7,
          "value": 0.0
        },
        {
          "id": 8,
          "value": 0.0
        },
        {
          "id": 9,
          "value": 0.0
        }
      ],
      "rightModuleId": 12,
      "data": {
        "delay_mode": 1,
        "hold_behavior": 0,
        "sync_prescaler": 6
      },
      "pos": [
        69,
        0
      ]
    },
    {
      "id": 316,
      "plugin": "Bogaudio",
      "version": "1.1.35",
      "model": "Bogaudio-AddrSeq",
      "params": [
        {
          "id": 0,
          "value": 8.0
        },
        {
          "id": 1,
          "value": 1.0
        },
        {
          "id": 2,
          "value": 7.0
        },
        {
          "id": 3,
          "value": 0.714999914
        },
        {
          "id": 4,
          "value": 0.498000234
        },
        {
          "id": 5,
          "value": -0.530999839
        },
        {
          "id": 6,
          "value": 0.0120000038
        },
        {
          "id": 7,
          "value": 0.486000061
        },
        {
          "id": 8,
          "value": -0.36500001
        },
        {
          "id": 9,
          "value": 0.0
        },
        {
          "id": 10,
          "value": 1.0
        }
      ],
      "leftModuleId": 314,
      "rightModuleId": 318,
      "data": {
        "poly_input": 0,
        "select_on_clock": false,
        "triggered_select": false,
        "reverse_on_negative_clock": false,
        "range_offset": 1.0,
        "range_scale": 0.5
      },
      "pos": [
        20,
        4
      ]
    },
    {
      "id": 317,
      "plugin": "21kHz",
      "version": "1.0.1",
      "model": "kHzPalmLoop",
      "params": [
        {
          "id": 0,
          "value": 8.0
        },
        {
          "id": 1,
          "value": 0.0
        },
        {
          "id": 2,
          "value": 0.0
        },
        {
          "id": 3,
          "value": -0.0127500026
        },
        {
          "id": 4,
          "value": 0.0811687186
        }
      ],
      "leftModuleId": 318,
      "rightModuleId": 320,
      "pos": [
        30,
        4
      ]
    },
    {
      "id": 318,
      "plugin": "JW-Modules",
      "version": "1.0.21",
      "model": "Quantizer",
      "params": [
        {
          "id": 0,
          "value": 5.0
        },
        {
          "id": 1,
          "value": 9.0
        },
        {
          "id": 2,
          "value": 0.0
        }
      ],
      "leftModuleId": 316,
      "rightModuleId": 317,
      "data": {},
      "pos": [
        26,
        4
      ]
    },
    {
      "id": 320,
      "plugin": "Bogaudio",
      "version": "1.1.35",
      "model": "Bogaudio-Mix4",
      "params": [
        {
          "id": 0,
          "value": 0.909090936
        },
        {
          "id": 1,
          "value": 0.0
        },
        {
          "id": 2,
          "value": 0.0
        },
        {
          "id": 3,
          "value": 0.909090936
        },
        {
          "id": 4,
          "value": 0.0
        },
        {
          "id": 5,
          "value": 0.0
        },
        {
          "id": 6,
          "value": 0.909090936
        },
        {
          "id": 7,
          "value": 0.0
        },
        {
          "id": 8,
          "value": 0.0
        },
        {
          "id": 9,
          "value": 0.909090936
        },
        {
          "id": 10,
          "value": 0.0
        },
        {
          "id": 11,
          "value": 0.0
        },
        {
          "id": 12,
          "value": 0.909090936
        },
        {
          "id": 13,
          "value": 0.0
        },
        {
          "id": 14,
          "value": 0.0
        }
      ],
      "leftModuleId": 317,
      "rightModuleId": 323,
      "data": {
        "dim_decibels": 12.0,
        "poly_channel_offset": -1
      },
      "pos": [
        38,
        4
      ]
    },
    {
      "id": 323,
      "plugin": "EricaCopies",
      "version": "1.0.4",
      "model": "BlackOctasource",
      "params": [
        {
          "id": 0,
          "value": 0.1119994
        },
        {
          "id": 1,
          "value": 0.0
        },
        {
          "id": 2,
          "value": 0.0
        },
        {
          "id": 3,
          "value": 0.0
        }
      ],
      "leftModuleId": 320,
      "rightModuleId": 324,
      "data": {
        "unliPolarMode": true
      },
      "pos": [
        53,
        4
      ]
    },
    {
      "id": 324,
      "plugin": "VultModulesFree",
      "version": "1.14",
      "model": "Lateralus",
      "params": [
        {
          "id": 0,
          "value": 0.31850037
        },
        {
          "id": 1,
          "value": 0.382500231
        },
        {
          "id": 2,
          "value": 1.0
        },
        {
          "id": 3,
          "value": 0.0
        },
        {
          "id": 4,
          "value": 0.464999646
        },
        {
          "id": 5,
          "value": 0.0
        },
        {
          "id": 6,
          "value": 0.0
        }
      ],
      "leftModuleId": 323,
      "pos": [
        65,
        4
      ]
    },
    {
      "id": 325,
      "plugin": "ChordController",
      "version": "1.0.0",
      "model": "ChordController",
      "params": [
        {
          "id": 0,
          "value": 0.0
        },
        {
          "id": 1,
          "value": 1.0
        },
        {
          "id": 2,
          "value": -3.0
        },
        {
          "id": 3,
          "value": -1.0
        },
        {
          "id": 4,
          "value": 0.0
        },
        {
          "id": 5,
          "value": 0.0
        },
        {
          "id": 6,
          "value": 0.0
        }
      ],
      "leftModuleId": 332,
      "rightModuleId": 326,
      "pos": [
        12,
        5
      ]
    },
    {
      "id": 326,
      "plugin": "VultModulesFree",
      "version": "1.14",
      "model": "Basal",
      "params": [
        {
          "id": 0,
          "value": 0.0
        },
        {
          "id": 1,
          "value": 0.0
        },
        {
          "id": 2,
          "value": 0.259499878
        },
        {
          "id": 3,
          "value": 0.389999986
        },
        {
          "id": 4,
          "value": 0.121499985
        },
        {
          "id": 5,
          "value": 0.0
        }
      ],
      "leftModuleId": 325,
      "rightModuleId": 327,
      "pos": [
        19,
        5
      ]
    },
    {
      "id": 327,
      "plugin": "VultModulesFree",
      "version": "1.14",
      "model": "Basal",
      "params": [
        {
          "id": 0,
          "value": 0.0
        },
        {
          "id": 1,
          "value": 0.0
        },
        {
          "id": 2,
          "value": 0.144000128
        },
        {
          "id": 3,
          "value": 0.305999994
        },
        {
          "id": 4,
          "value": 0.0
        },
        {
          "id": 5,
          "value": 0.0
        }
      ],
      "leftModuleId": 326,
      "rightModuleId": 329,
      "pos": [
        25,
        5
      ]
    },
    {
      "id": 328,
      "plugin": "Bogaudio",
      "version": "1.1.35",
      "model": "Bogaudio-Mix4",
      "params": [
        {
          "id": 0,
          "value": 0.909090936
        },
        {
          "id": 1,
          "value": -0.422999948
        },
        {
          "id": 2,
          "value": 0.0
        },
        {
          "id": 3,
          "value": 0.909090936
        },
        {
          "id": 4,
          "value": 0.303000033
        },
        {
          "id": 5,
          "value": 0.0
        },
        {
          "id": 6,
          "value": 0.909090936
        },
        {
          "id": 7,
          "value": 0.849000156
        },
        {
          "id": 8,
          "value": 0.0
        },
        {
          "id": 9,
          "value": 0.909090936
        },
        {
          "id": 10,
          "value": -0.900000215
        },
        {
          "id": 11,
          "value": 0.0
        },
        {
          "id": 12,
          "value": 0.909090936
        },
        {
          "id": 13,
          "value": 0.0
        },
        {
          "id": 14,
          "value": 0.0
        }
      ],
      "leftModuleId": 330,
      "rightModuleId": 331,
      "data": {
        "dim_decibels": 12.0,
        "poly_channel_offset": -1
      },
      "pos": [
        43,
        5
      ]
    },
    {
      "id": 329,
      "plugin": "VultModulesFree",
      "version": "1.14",
      "model": "Basal",
      "params": [
        {
          "id": 0,
          "value": 0.0
        },
        {
          "id": 1,
          "value": 0.0
        },
        {
          "id": 2,
          "value": 0.379500091
        },
        {
          "id": 3,
          "value": -0.426000029
        },
        {
          "id": 4,
          "value": 0.155999973
        },
        {
          "id": 5,
          "value": 0.0
        }
      ],
      "leftModuleId": 327,
      "rightModuleId": 330,
      "pos": [
        31,
        5
      ]
    },
    {
      "id": 330,
      "plugin": "VultModulesFree",
      "version": "1.14",
      "model": "Basal",
      "params": [
        {
          "id": 0,
          "value": 0.0
        },
        {
          "id": 1,
          "value": 0.0
        },
        {
          "id": 2,
          "value": 0.435000122
        },
        {
          "id": 3,
          "value": -0.903000057
        },
        {
          "id": 4,
          "value": 0.252000123
        },
        {
          "id": 5,
          "value": 0.0
        }
      ],
      "leftModuleId": 329,
      "rightModuleId": 328,
      "pos": [
        37,
        5
      ]
    },
    {
      "id": 331,
      "plugin": "NYSTHI",
      "version": "1.0.17",
      "model": "PolyAttackDecay",
      "params": [
        {
          "id": 0,
          "value": 0.0225000009
        },
        {
          "id": 1,
          "value": 0.563500166
        },
        {
          "id": 2,
          "value": 0.0
        },
        {
          "id": 3,
          "value": 1.0
        },
        {
          "id": 4,
          "value": 0.5
        },
        {
          "id": 5,
          "value": 0.0
        }
      ],
      "leftModuleId": 328,
      "data": {
        "m_looped": false
      },
      "pos": [
        58,
        5
      ]
    },
    {
      "id": 332,
      "plugin": "Bogaudio",
      "version": "1.1.35",
      "model": "Bogaudio-SampleHold",
      "params": [
        {
          "id": 0,
          "value": 0.0
        },
        {
          "id": 1,
          "value": 0.0
        },
        {
          "id": 2,
          "value": 0.0
        },
        {
          "id": 3,
          "value": 0.0
        },
        {
          "id": 4,
          "value": 0.0
        },
        {
          "id": 5,
          "value": 0.0
        }
      ],
      "rightModuleId": 325,
      "data": {
        "poly_input": 0,
        "noise_type": 0,
        "range_offset": 1.0,
        "range_scale": 5.0
      },
      "pos": [
        9,
        5
      ]
    }
  ],
  "cables": [
    {
      "id": 311,
      "outputModuleId": 144,
      "outputId": 3,
      "inputModuleId": 11,
      "inputId": 0,
      "color": "#0986ad"
    },
    {
      "id": 312,
      "outputModuleId": 144,
      "outputId": 4,
      "inputModuleId": 11,
      "inputId": 1,
      "color": "#c9b70e"
    },
    {
      "id": 313,
      "outputModuleId": 145,
      "outputId": 0,
      "inputModuleId": 12,
      "inputId": 0,
      "color": "#0c8e15"
    },
    {
      "id": 314,
      "outputModuleId": 145,
      "outputId": 4,
      "inputModuleId": 12,
      "inputId": 1,
      "color": "#c91847"
    },
    {
      "id": 315,
      "outputModuleId": 12,
      "outputId": 0,
      "inputModuleId": 145,
      "inputId": 0,
      "color": "#0986ad"
    },
    {
      "id": 316,
      "outputModuleId": 12,
      "outputId": 1,
      "inputModuleId": 145,
      "inputId": 1,
      "color": "#c9b70e"
    },
    {
      "id": 367,
      "outputModuleId": 300,
      "outputId": 0,
      "inputModuleId": 302,
      "inputId": 5,
      "color": "#c91847"
    },
    {
      "id": 368,
      "outputModuleId": 300,
      "outputId": 0,
      "inputModuleId": 303,
      "inputId": 5,
      "color": "#0986ad"
    },
    {
      "id": 369,
      "outputModuleId": 302,
      "outputId": 0,
      "inputModuleId": 303,
      "inputId": 6,
      "color": "#c91847"
    },
    {
      "id": 370,
      "outputModuleId": 301,
      "outputId": 0,
      "inputModuleId": 302,
      "inputId": 4,
      "color": "#c9b70e"
    },
    {
      "id": 371,
      "outputModuleId": 301,
      "outputId": 0,
      "inputModuleId": 303,
      "inputId": 4,
      "color": "#0c8e15"
    },
    {
      "id": 372,
      "outputModuleId": 294,
      "outputId": 0,
      "inputModuleId": 295,
      "inputId": 6,
      "color": "#c91847"
    },
    {
      "id": 373,
      "outputModuleId": 297,
      "outputId": 0,
      "inputModuleId": 298,
      "inputId": 4,
      "color": "#c91847"
    },
    {
      "id": 374,
      "outputModuleId": 297,
      "outputId": 0,
      "inputModuleId": 299,
      "inputId": 4,
      "color": "#0986ad"
    },
    {
      "id": 375,
      "outputModuleId": 296,
      "outputId": 0,
      "inputModuleId": 298,
      "inputId": 5,
      "color": "#c9b70e"
    },
    {
      "id": 376,
      "outputModuleId": 296,
      "outputId": 0,
      "inputModuleId": 299,
      "inputId": 5,
      "color": "#0c8e15"
    },
    {
      "id": 377,
      "outputModuleId": 298,
      "outputId": 0,
      "inputModuleId": 299,
      "inputId": 6,
      "color": "#c91847"
    },
    {
      "id": 378,
      "outputModuleId": 292,
      "outputId": 0,
      "inputModuleId": 294,
      "inputId": 5,
      "color": "#c9b70e"
    },
    {
      "id": 379,
      "outputModuleId": 292,
      "outputId": 0,
      "inputModuleId": 295,
      "inputId": 5,
      "color": "#0c8e15"
    },
    {
      "id": 380,
      "outputModuleId": 293,
      "outputId": 0,
      "inputModuleId": 294,
      "inputId": 4,
      "color": "#c91847"
    },
    {
      "id": 381,
      "outputModuleId": 293,
      "outputId": 0,
      "inputModuleId": 295,
      "inputId": 4,
      "color": "#0986ad"
    },
    {
      "id": 383,
      "outputModuleId": 304,
      "outputId": 0,
      "inputModuleId": 310,
      "inputId": 7,
      "color": "#0c8e15"
    },
    {
      "id": 384,
      "outputModuleId": 309,
      "outputId": 0,
      "inputModuleId": 310,
      "inputId": 1,
      "color": "#c9b70e"
    },
    {
      "id": 385,
      "outputModuleId": 306,
      "outputId": 0,
      "inputModuleId": 309,
      "inputId": 1,
      "color": "#c9b70e"
    },
    {
      "id": 386,
      "outputModuleId": 306,
      "outputId": 0,
      "inputModuleId": 309,
      "inputId": 4,
      "color": "#0986ad"
    },
    {
      "id": 387,
      "outputModuleId": 305,
      "outputId": 0,
      "inputModuleId": 309,
      "inputId": 0,
      "color": "#0986ad"
    },
    {
      "id": 388,
      "outputModuleId": 307,
      "outputId": 0,
      "inputModuleId": 309,
      "inputId": 3,
      "color": "#0c8e15"
    },
    {
      "id": 389,
      "outputModuleId": 308,
      "outputId": 0,
      "inputModuleId": 309,
      "inputId": 6,
      "color": "#c91847"
    },
    {
      "id": 393,
      "outputModuleId": 295,
      "outputId": 0,
      "inputModuleId": 144,
      "inputId": 0,
      "color": "#0c8e15"
    },
    {
      "id": 395,
      "outputModuleId": 303,
      "outputId": 0,
      "inputModuleId": 144,
      "inputId": 4,
      "color": "#0986ad"
    },
    {
      "id": 396,
      "outputModuleId": 310,
      "outputId": 1,
      "inputModuleId": 144,
      "inputId": 6,
      "color": "#c9b70e"
    },
    {
      "id": 397,
      "outputModuleId": 292,
      "outputId": 0,
      "inputModuleId": 304,
      "inputId": 0,
      "color": "#0c8e15"
    },
    {
      "id": 398,
      "outputModuleId": 296,
      "outputId": 0,
      "inputModuleId": 304,
      "inputId": 1,
      "color": "#c91847"
    },
    {
      "id": 399,
      "outputModuleId": 300,
      "outputId": 0,
      "inputModuleId": 304,
      "inputId": 2,
      "color": "#0986ad"
    },
    {
      "id": 401,
      "outputModuleId": 311,
      "outputId": 1,
      "inputModuleId": 312,
      "inputId": 6,
      "color": "#0c8e15"
    },
    {
      "id": 403,
      "outputModuleId": 311,
      "outputId": 2,
      "inputModuleId": 312,
      "inputId": 5,
      "color": "#0986ad"
    },
    {
      "id": 404,
      "outputModuleId": 311,
      "outputId": 4,
      "inputModuleId": 312,
      "inputId": 1,
      "color": "#c9b70e"
    },
    {
      "id": 406,
      "outputModuleId": 311,
      "outputId": 4,
      "inputModuleId": 312,
      "inputId": 2,
      "color": "#c91847"
    },
    {
      "id": 400,
      "outputModuleId": 311,
      "outputId": 0,
      "inputModuleId": 312,
      "inputId": 11,
      "color": "#c9b70e"
    },
    {
      "id": 412,
      "outputModuleId": 311,
      "outputId": 1,
      "inputModuleId": 312,
      "inputId": 0,
      "color": "#c9b70e"
    },
    {
      "id": 414,
      "outputModuleId": 308,
      "outputId": 1,
      "inputModuleId": 311,
      "inputId": 3,
      "color": "#c91847"
    },
    {
      "id": 416,
      "outputModuleId": 308,
      "outputId": 1,
      "inputModuleId": 311,
      "inputId": 2,
      "color": "#c9b70e"
    },
    {
      "id": 417,
      "outputModuleId": 309,
      "outputId": 0,
      "inputModuleId": 311,
      "inputId": 1,
      "color": "#0c8e15"
    },
    {
      "id": 410,
      "outputModuleId": 313,
      "outputId": 0,
      "inputModuleId": 144,
      "inputId": 8,
      "color": "#c91847"
    },
    {
      "id": 418,
      "outputModuleId": 312,
      "outputId": 0,
      "inputModuleId": 313,
      "inputId": 3,
      "color": "#c91847"
    },
    {
      "id": 382,
      "outputModuleId": 304,
      "outputId": 0,
      "inputModuleId": 309,
      "inputId": 13,
      "color": "#c9b70e"
    },
    {
      "id": 409,
      "outputModuleId": 221,
      "outputId": 1,
      "inputModuleId": 312,
      "inputId": 9,
      "color": "#0c8e15"
    },
    {
      "id": 392,
      "outputModuleId": 221,
      "outputId": 1,
      "inputModuleId": 300,
      "inputId": 0,
      "color": "#c9b70e"
    },
    {
      "id": 391,
      "outputModuleId": 221,
      "outputId": 1,
      "inputModuleId": 292,
      "inputId": 0,
      "color": "#0986ad"
    },
    {
      "id": 390,
      "outputModuleId": 221,
      "outputId": 1,
      "inputModuleId": 296,
      "inputId": 0,
      "color": "#c91847"
    },
    {
      "id": 424,
      "outputModuleId": 304,
      "outputId": 0,
      "inputModuleId": 314,
      "inputId": 7,
      "color": "#c91847"
    },
    {
      "id": 425,
      "outputModuleId": 314,
      "outputId": 4,
      "inputModuleId": 144,
      "inputId": 10,
      "color": "#0986ad"
    },
    {
      "id": 428,
      "outputModuleId": 314,
      "outputId": 5,
      "inputModuleId": 144,
      "inputId": 12,
      "color": "#c91847"
    },
    {
      "id": 431,
      "outputModuleId": 221,
      "outputId": 2,
      "inputModuleId": 314,
      "inputId": 8,
      "color": "#0c8e15"
    },
    {
      "id": 432,
      "outputModuleId": 145,
      "outputId": 1,
      "inputModuleId": 315,
      "inputId": 5,
      "color": "#c91847"
    },
    {
      "id": 433,
      "outputModuleId": 145,
      "outputId": 5,
      "inputModuleId": 315,
      "inputId": 6,
      "color": "#0986ad"
    },
    {
      "id": 434,
      "outputModuleId": 315,
      "outputId": 0,
      "inputModuleId": 145,
      "inputId": 2,
      "color": "#c9b70e"
    },
    {
      "id": 435,
      "outputModuleId": 315,
      "outputId": 1,
      "inputModuleId": 145,
      "inputId": 3,
      "color": "#0c8e15"
    },
    {
      "id": 436,
      "outputModuleId": 221,
      "outputId": 0,
      "inputModuleId": 315,
      "inputId": 7,
      "color": "#c91847"
    },
    {
      "id": 438,
      "outputModuleId": 318,
      "outputId": 0,
      "inputModuleId": 317,
      "inputId": 1,
      "color": "#c9b70e"
    },
    {
      "id": 439,
      "outputModuleId": 316,
      "outputId": 0,
      "inputModuleId": 318,
      "inputId": 2,
      "color": "#0c8e15"
    },
    {
      "id": 441,
      "outputModuleId": 221,
      "outputId": 4,
      "inputModuleId": 316,
      "inputId": 1,
      "color": "#0986ad"
    },
    {
      "id": 443,
      "outputModuleId": 317,
      "outputId": 3,
      "inputModuleId": 320,
      "inputId": 2,
      "color": "#0c8e15"
    },
    {
      "id": 444,
      "outputModuleId": 317,
      "outputId": 0,
      "inputModuleId": 320,
      "inputId": 5,
      "color": "#c91847"
    },
    {
      "id": 445,
      "outputModuleId": 317,
      "outputId": 2,
      "inputModuleId": 320,
      "inputId": 8,
      "color": "#0986ad"
    },
    {
      "id": 446,
      "outputModuleId": 317,
      "outputId": 4,
      "inputModuleId": 320,
      "inputId": 11,
      "color": "#c9b70e"
    },
    {
      "id": 463,
      "outputModuleId": 323,
      "outputId": 0,
      "inputModuleId": 320,
      "inputId": 9,
      "color": "#0986ad"
    },
    {
      "id": 464,
      "outputModuleId": 323,
      "outputId": 1,
      "inputModuleId": 320,
      "inputId": 10,
      "color": "#c9b70e"
    },
    {
      "id": 465,
      "outputModuleId": 323,
      "outputId": 2,
      "inputModuleId": 320,
      "inputId": 6,
      "color": "#0c8e15"
    },
    {
      "id": 466,
      "outputModuleId": 323,
      "outputId": 3,
      "inputModuleId": 320,
      "inputId": 7,
      "color": "#c91847"
    },
    {
      "id": 467,
      "outputModuleId": 323,
      "outputId": 4,
      "inputModuleId": 320,
      "inputId": 3,
      "color": "#0986ad"
    },
    {
      "id": 468,
      "outputModuleId": 323,
      "outputId": 5,
      "inputModuleId": 320,
      "inputId": 4,
      "color": "#c9b70e"
    },
    {
      "id": 469,
      "outputModuleId": 323,
      "outputId": 6,
      "inputModuleId": 320,
      "inputId": 0,
      "color": "#0c8e15"
    },
    {
      "id": 470,
      "outputModuleId": 323,
      "outputId": 7,
      "inputModuleId": 320,
      "inputId": 1,
      "color": "#c91847"
    },
    {
      "id": 471,
      "outputModuleId": 221,
      "outputId": 3,
      "inputModuleId": 316,
      "inputId": 0,
      "color": "#0986ad"
    },
    {
      "id": 472,
      "outputModuleId": 323,
      "outputId": 4,
      "inputModuleId": 317,
      "inputId": 2,
      "color": "#c9b70e"
    },
    {
      "id": 474,
      "outputModuleId": 323,
      "outputId": 3,
      "inputModuleId": 317,
      "inputId": 3,
      "color": "#c91847"
    },
    {
      "id": 394,
      "outputModuleId": 299,
      "outputId": 0,
      "inputModuleId": 144,
      "inputId": 2,
      "color": "#c91847"
    },
    {
      "id": 477,
      "outputModuleId": 320,
      "outputId": 0,
      "inputModuleId": 324,
      "inputId": 0,
      "color": "#c9b70e"
    },
    {
      "id": 478,
      "outputModuleId": 309,
      "outputId": 0,
      "inputModuleId": 324,
      "inputId": 1,
      "color": "#0c8e15"
    },
    {
      "id": 476,
      "outputModuleId": 324,
      "outputId": 2,
      "inputModuleId": 144,
      "inputId": 16,
      "color": "#0986ad"
    },
    {
      "id": 480,
      "outputModuleId": 325,
      "outputId": 0,
      "inputModuleId": 326,
      "inputId": 0,
      "color": "#c91847"
    },
    {
      "id": 482,
      "outputModuleId": 325,
      "outputId": 1,
      "inputModuleId": 327,
      "inputId": 0,
      "color": "#c9b70e"
    },
    {
      "id": 483,
      "outputModuleId": 325,
      "outputId": 2,
      "inputModuleId": 329,
      "inputId": 0,
      "color": "#0c8e15"
    },
    {
      "id": 484,
      "outputModuleId": 325,
      "outputId": 3,
      "inputModuleId": 330,
      "inputId": 0,
      "color": "#c91847"
    },
    {
      "id": 481,
      "outputModuleId": 328,
      "outputId": 0,
      "inputModuleId": 144,
      "inputId": 14,
      "color": "#0986ad"
    },
    {
      "id": 485,
      "outputModuleId": 326,
      "outputId": 0,
      "inputModuleId": 328,
      "inputId": 2,
      "color": "#0986ad"
    },
    {
      "id": 486,
      "outputModuleId": 327,
      "outputId": 0,
      "inputModuleId": 328,
      "inputId": 5,
      "color": "#c9b70e"
    },
    {
      "id": 487,
      "outputModuleId": 329,
      "outputId": 0,
      "inputModuleId": 328,
      "inputId": 8,
      "color": "#0c8e15"
    },
    {
      "id": 488,
      "outputModuleId": 330,
      "outputId": 0,
      "inputModuleId": 328,
      "inputId": 11,
      "color": "#0986ad"
    },
    {
      "id": 489,
      "outputModuleId": 331,
      "outputId": 0,
      "inputModuleId": 328,
      "inputId": 12,
      "color": "#c9b70e"
    },
    {
      "id": 490,
      "outputModuleId": 221,
      "outputId": 0,
      "inputModuleId": 331,
      "inputId": 3,
      "color": "#c91847"
    },
    {
      "id": 491,
      "outputModuleId": 328,
      "outputId": 1,
      "inputModuleId": 144,
      "inputId": 15,
      "color": "#0986ad"
    },
    {
      "id": 492,
      "outputModuleId": 221,
      "outputId": 0,
      "inputModuleId": 332,
      "inputId": 0,
      "color": "#c9b70e"
    },
    {
      "id": 493,
      "outputModuleId": 332,
      "outputId": 0,
      "inputModuleId": 326,
      "inputId": 1,
      "color": "#0c8e15"
    },
    {
      "id": 494,
      "outputModuleId": 332,
      "outputId": 0,
      "inputModuleId": 327,
      "inputId": 1,
      "color": "#0c8e15"
    },
    {
      "id": 495,
      "outputModuleId": 332,
      "outputId": 0,
      "inputModuleId": 329,
      "inputId": 1,
      "color": "#0c8e15"
    },
    {
      "id": 496,
      "outputModuleId": 332,
      "outputId": 0,
      "inputModuleId": 330,
      "inputId": 1,
      "color": "#0c8e15"
    },
    {
      "id": 497,
      "outputModuleId": 332,
      "outputId": 1,
      "inputModuleId": 328,
      "inputId": 1,
      "color": "#c91847"
    },
    {
      "id": 498,
      "outputModuleId": 332,
      "outputId": 1,
      "inputModuleId": 328,
      "inputId": 4,
      "color": "#c91847"
    },
    {
      "id": 499,
      "outputModuleId": 332,
      "outputId": 1,
      "inputModuleId": 328,
      "inputId": 7,
      "color": "#c91847"
    },
    {
      "id": 500,
      "outputModuleId": 332,
      "outputId": 1,
      "inputModuleId": 328,
      "inputId": 10,
      "color": "#c91847"
    },
    {
      "id": 503,
      "outputModuleId": 309,
      "outputId": 0,
      "inputModuleId": 325,
      "inputId": 0,
      "color": "#0c8e15"
    }
  ]
}