{
  "version": "1.1.6",
  "modules": [
    {
      "id": 11,
      "plugin": "Core",
      "version": "1.1.6",
      "model": "AudioInterface",
      "params": [],
      "leftModuleId": 12,
      "data": {
        "audio": {
          "driver": 4,
          "deviceName": "system",
          "offset": 0,
          "maxChannels": 8,
          "sampleRate": 44100,
          "blockSize": 2048
        }
      },
      "pos": [
        93,
        0
      ]
    },
    {
      "id": 12,
      "plugin": "Valley",
      "version": "1.1.7",
      "model": "Plateau",
      "params": [
        {
          "id": 0,
          "value": 1.0
        },
        {
          "id": 1,
          "value": 0.5
        },
        {
          "id": 2,
          "value": 0.0
        },
        {
          "id": 3,
          "value": 9.42999935
        },
        {
          "id": 4,
          "value": 10.0
        },
        {
          "id": 5,
          "value": 0.5
        },
        {
          "id": 6,
          "value": 10.0
        },
        {
          "id": 7,
          "value": 0.549950004
        },
        {
          "id": 8,
          "value": 10.0
        },
        {
          "id": 9,
          "value": 9.41499901
        },
        {
          "id": 10,
          "value": 0.0
        },
        {
          "id": 11,
          "value": 0.5
        },
        {
          "id": 12,
          "value": 0.5
        },
        {
          "id": 13,
          "value": 0.0
        },
        {
          "id": 14,
          "value": 0.0
        },
        {
          "id": 15,
          "value": 0.0
        },
        {
          "id": 16,
          "value": 0.0
        },
        {
          "id": 17,
          "value": 0.0
        },
        {
          "id": 18,
          "value": 0.0
        },
        {
          "id": 19,
          "value": 0.0
        },
        {
          "id": 20,
          "value": 0.0
        },
        {
          "id": 21,
          "value": 0.0
        },
        {
          "id": 22,
          "value": 0.0
        },
        {
          "id": 23,
          "value": 0.0
        },
        {
          "id": 24,
          "value": 0.0
        },
        {
          "id": 25,
          "value": 0.0
        },
        {
          "id": 26,
          "value": 0.0
        },
        {
          "id": 27,
          "value": 0.0
        },
        {
          "id": 28,
          "value": 0.0
        },
        {
          "id": 29,
          "value": 0.0
        },
        {
          "id": 30,
          "value": 1.0
        }
      ],
      "rightModuleId": 11,
      "data": {
        "frozen": false,
        "freezeToggle": false,
        "panelStyle": 0,
        "tuned": 0,
        "diffuseInput": 1,
        "preDelayCVSens": 0,
        "inputSensitivity": 0,
        "outputSaturation": 0
      },
      "pos": [
        81,
        0
      ]
    },
    {
      "id": 144,
      "plugin": "MindMeldModular",
      "version": "1.1.14",
      "model": "MixMaster",
      "params": [
        {
          "id": 0,
          "value": 1.0
        },
        {
          "id": 1,
          "value": 1.0
        },
        {
          "id": 2,
          "value": 1.0
        },
        {
          "id": 3,
          "value": 1.0
        },
        {
          "id": 4,
          "value": 1.0
        },
        {
          "id": 5,
          "value": 1.0
        },
        {
          "id": 6,
          "value": 1.0
        },
        {
          "id": 7,
          "value": 1.0
        },
        {
          "id": 8,
          "value": 1.0
        },
        {
          "id": 9,
          "value": 1.0
        },
        {
          "id": 10,
          "value": 1.0
        },
        {
          "id": 11,
          "value": 1.0
        },
        {
          "id": 12,
          "value": 1.0
        },
        {
          "id": 13,
          "value": 1.0
        },
        {
          "id": 14,
          "value": 1.0
        },
        {
          "id": 15,
          "value": 1.0
        },
        {
          "id": 16,
          "value": 1.0
        },
        {
          "id": 17,
          "value": 1.0
        },
        {
          "id": 18,
          "value": 1.0
        },
        {
          "id": 19,
          "value": 1.0
        },
        {
          "id": 20,
          "value": 0.354499847
        },
        {
          "id": 21,
          "value": 0.5
        },
        {
          "id": 22,
          "value": 0.5
        },
        {
          "id": 23,
          "value": 0.65599978
        },
        {
          "id": 24,
          "value": 0.5
        },
        {
          "id": 25,
          "value": 0.5
        },
        {
          "id": 26,
          "value": 0.5
        },
        {
          "id": 27,
          "value": 0.5
        },
        {
          "id": 28,
          "value": 0.5
        },
        {
          "id": 29,
          "value": 0.5
        },
        {
          "id": 30,
          "value": 0.5
        },
        {
          "id": 31,
          "value": 0.5
        },
        {
          "id": 32,
          "value": 0.5
        },
        {
          "id": 33,
          "value": 0.5
        },
        {
          "id": 34,
          "value": 0.5
        },
        {
          "id": 35,
          "value": 0.5
        },
        {
          "id": 36,
          "value": 0.5
        },
        {
          "id": 37,
          "value": 0.5
        },
        {
          "id": 38,
          "value": 0.5
        },
        {
          "id": 39,
          "value": 0.5
        },
        {
          "id": 40,
          "value": 0.0
        },
        {
          "id": 41,
          "value": 0.0
        },
        {
          "id": 42,
          "value": 1.0
        },
        {
          "id": 43,
          "value": 0.0
        },
        {
          "id": 44,
          "value": 0.0
        },
        {
          "id": 45,
          "value": 0.0
        },
        {
          "id": 46,
          "value": 0.0
        },
        {
          "id": 47,
          "value": 0.0
        },
        {
          "id": 48,
          "value": 0.0
        },
        {
          "id": 49,
          "value": 0.0
        },
        {
          "id": 50,
          "value": 0.0
        },
        {
          "id": 51,
          "value": 0.0
        },
        {
          "id": 52,
          "value": 0.0
        },
        {
          "id": 53,
          "value": 0.0
        },
        {
          "id": 54,
          "value": 0.0
        },
        {
          "id": 55,
          "value": 0.0
        },
        {
          "id": 56,
          "value": 0.0
        },
        {
          "id": 57,
          "value": 0.0
        },
        {
          "id": 58,
          "value": 0.0
        },
        {
          "id": 59,
          "value": 0.0
        },
        {
          "id": 60,
          "value": 0.0
        },
        {
          "id": 61,
          "value": 0.0
        },
        {
          "id": 62,
          "value": 0.0
        },
        {
          "id": 63,
          "value": 0.0
        },
        {
          "id": 64,
          "value": 0.0
        },
        {
          "id": 65,
          "value": 0.0
        },
        {
          "id": 66,
          "value": 0.0
        },
        {
          "id": 67,
          "value": 0.0
        },
        {
          "id": 68,
          "value": 0.0
        },
        {
          "id": 69,
          "value": 0.0
        },
        {
          "id": 70,
          "value": 0.0
        },
        {
          "id": 71,
          "value": 0.0
        },
        {
          "id": 72,
          "value": 0.0
        },
        {
          "id": 73,
          "value": 0.0
        },
        {
          "id": 74,
          "value": 0.0
        },
        {
          "id": 75,
          "value": 0.0
        },
        {
          "id": 76,
          "value": 0.0
        },
        {
          "id": 77,
          "value": 0.0
        },
        {
          "id": 78,
          "value": 0.0
        },
        {
          "id": 79,
          "value": 0.0
        },
        {
          "id": 80,
          "value": 1.0
        },
        {
          "id": 81,
          "value": 0.0
        },
        {
          "id": 82,
          "value": 0.0
        },
        {
          "id": 83,
          "value": 1.0
        },
        {
          "id": 84,
          "value": 0.0
        },
        {
          "id": 85,
          "value": 0.0
        },
        {
          "id": 86,
          "value": 0.0
        },
        {
          "id": 87,
          "value": 0.0
        },
        {
          "id": 88,
          "value": 0.0
        },
        {
          "id": 89,
          "value": 0.0
        },
        {
          "id": 90,
          "value": 0.0
        },
        {
          "id": 91,
          "value": 0.0
        },
        {
          "id": 92,
          "value": 0.0
        },
        {
          "id": 93,
          "value": 0.0
        },
        {
          "id": 94,
          "value": 0.0
        },
        {
          "id": 95,
          "value": 0.0
        },
        {
          "id": 96,
          "value": 0.0
        },
        {
          "id": 97,
          "value": 0.0
        },
        {
          "id": 98,
          "value": 0.0
        },
        {
          "id": 99,
          "value": 0.0
        },
        {
          "id": 100,
          "value": 13.0
        },
        {
          "id": 101,
          "value": 13.0
        },
        {
          "id": 102,
          "value": 13.0
        },
        {
          "id": 103,
          "value": 13.0
        },
        {
          "id": 104,
          "value": 13.0
        },
        {
          "id": 105,
          "value": 13.0
        },
        {
          "id": 106,
          "value": 13.0
        },
        {
          "id": 107,
          "value": 13.0
        },
        {
          "id": 108,
          "value": 13.0
        },
        {
          "id": 109,
          "value": 13.0
        },
        {
          "id": 110,
          "value": 13.0
        },
        {
          "id": 111,
          "value": 13.0
        },
        {
          "id": 112,
          "value": 13.0
        },
        {
          "id": 113,
          "value": 13.0
        },
        {
          "id": 114,
          "value": 13.0
        },
        {
          "id": 115,
          "value": 13.0
        },
        {
          "id": 116,
          "value": 20010.0
        },
        {
          "id": 117,
          "value": 20010.0
        },
        {
          "id": 118,
          "value": 20010.0
        },
        {
          "id": 119,
          "value": 20010.0
        },
        {
          "id": 120,
          "value": 20010.0
        },
        {
          "id": 121,
          "value": 20010.0
        },
        {
          "id": 122,
          "value": 20010.0
        },
        {
          "id": 123,
          "value": 20010.0
        },
        {
          "id": 124,
          "value": 20010.0
        },
        {
          "id": 125,
          "value": 20010.0
        },
        {
          "id": 126,
          "value": 20010.0
        },
        {
          "id": 127,
          "value": 20010.0
        },
        {
          "id": 128,
          "value": 20010.0
        },
        {
          "id": 129,
          "value": 20010.0
        },
        {
          "id": 130,
          "value": 20010.0
        },
        {
          "id": 131,
          "value": 20010.0
        },
        {
          "id": 132,
          "value": 13.0
        },
        {
          "id": 133,
          "value": 13.0
        },
        {
          "id": 134,
          "value": 13.0
        },
        {
          "id": 135,
          "value": 13.0
        },
        {
          "id": 136,
          "value": 20010.0
        },
        {
          "id": 137,
          "value": 20010.0
        },
        {
          "id": 138,
          "value": 20010.0
        },
        {
          "id": 139,
          "value": 20010.0
        }
      ],
      "rightModuleId": 145,
      "data": {
        "trackLabels": "-01--02--03--04--05--06--07--08--09--10--11--12--13--14--15--16-GRP1GRP2GRP3GRP4",
        "panLawMono": 1,
        "panLawStereo": 1,
        "directOutsMode": 3,
        "directOutsSkipGroupedTracks": 0,
        "auxSendsMode": 3,
        "groupsControlTrackSendLevels": 0,
        "auxReturnsMutedWhenMainSolo": 0,
        "auxReturnsSolosMuteDry": 0,
        "chainMode": 1,
        "colorAndCloak": 117440512,
        "symmetricalFade": false,
        "fadeCvOutsWithVolCv": false,
        "linkBitMask": 0,
        "filterPos": 1,
        "groupedAuxReturnFeedbackProtection": 1,
        "ecoMode": 65535,
        "faders": [
          1.0,
          1.0,
          1.0,
          1.0,
          1.0,
          1.0,
          1.0,
          1.0,
          1.0,
          1.0,
          1.0,
          1.0,
          1.0,
          1.0,
          1.0,
          1.0,
          1.0,
          1.0,
          1.0,
          1.0
        ],
        "momentaryCvButtons": 1,
        "masterFaderScalesSends": 0,
        "linearVolCvInputs": 0,
        "id_t0_gainAdjust": 0.633869529,
        "id_t0_fadeRate": 0.0,
        "id_t0_fadeProfile": 0.0,
        "id_t0_directOutsMode": 3,
        "id_t0_auxSendsMode": 3,
        "id_t0_panLawStereo": 1,
        "id_t0_vuColorThemeLocal": 0,
        "id_t0_filterPos": 1,
        "id_t0_dispColorLocal": 0,
        "id_t0_polyStereo": 0,
        "id_t0_panCvLevel": 1.0,
        "id_t0_stereoWidth": 1.0,
        "id_t0_invertInput": 0,
        "id_t1_gainAdjust": 0.672976553,
        "id_t1_fadeRate": 0.0,
        "id_t1_fadeProfile": 0.0,
        "id_t1_directOutsMode": 3,
        "id_t1_auxSendsMode": 3,
        "id_t1_panLawStereo": 1,
        "id_t1_vuColorThemeLocal": 0,
        "id_t1_filterPos": 1,
        "id_t1_dispColorLocal": 0,
        "id_t1_polyStereo": 0,
        "id_t1_panCvLevel": 1.0,
        "id_t1_stereoWidth": 1.0,
        "id_t1_invertInput": 0,
        "id_t2_gainAdjust": 0.432513773,
        "id_t2_fadeRate": 16.5600033,
        "id_t2_fadeProfile": 0.0,
        "id_t2_directOutsMode": 3,
        "id_t2_auxSendsMode": 3,
        "id_t2_panLawStereo": 1,
        "id_t2_vuColorThemeLocal": 0,
        "id_t2_filterPos": 1,
        "id_t2_dispColorLocal": 0,
        "id_t2_polyStereo": 0,
        "id_t2_panCvLevel": 1.0,
        "id_t2_stereoWidth": 1.0,
        "id_t2_invertInput": 0,
        "id_t3_gainAdjust": 0.547015905,
        "id_t3_fadeRate": 0.0,
        "id_t3_fadeProfile": 0.0,
        "id_t3_directOutsMode": 3,
        "id_t3_auxSendsMode": 3,
        "id_t3_panLawStereo": 1,
        "id_t3_vuColorThemeLocal": 0,
        "id_t3_filterPos": 1,
        "id_t3_dispColorLocal": 0,
        "id_t3_polyStereo": 0,
        "id_t3_panCvLevel": 1.0,
        "id_t3_stereoWidth": 1.0,
        "id_t3_invertInput": 0,
        "id_t4_gainAdjust": 1.0,
        "id_t4_fadeRate": 0.0,
        "id_t4_fadeProfile": 0.0,
        "id_t4_directOutsMode": 3,
        "id_t4_auxSendsMode": 3,
        "id_t4_panLawStereo": 1,
        "id_t4_vuColorThemeLocal": 0,
        "id_t4_filterPos": 1,
        "id_t4_dispColorLocal": 0,
        "id_t4_polyStereo": 0,
        "id_t4_panCvLevel": 1.0,
        "id_t4_stereoWidth": 1.0,
        "id_t4_invertInput": 0,
        "id_t5_gainAdjust": 1.0,
        "id_t5_fadeRate": 0.0,
        "id_t5_fadeProfile": 0.0,
        "id_t5_directOutsMode": 3,
        "id_t5_auxSendsMode": 3,
        "id_t5_panLawStereo": 1,
        "id_t5_vuColorThemeLocal": 0,
        "id_t5_filterPos": 1,
        "id_t5_dispColorLocal": 0,
        "id_t5_polyStereo": 0,
        "id_t5_panCvLevel": 1.0,
        "id_t5_stereoWidth": 1.0,
        "id_t5_invertInput": 0,
        "id_t6_gainAdjust": 1.0,
        "id_t6_fadeRate": 0.0,
        "id_t6_fadeProfile": 0.0,
        "id_t6_directOutsMode": 3,
        "id_t6_auxSendsMode": 3,
        "id_t6_panLawStereo": 1,
        "id_t6_vuColorThemeLocal": 0,
        "id_t6_filterPos": 1,
        "id_t6_dispColorLocal": 0,
        "id_t6_polyStereo": 0,
        "id_t6_panCvLevel": 1.0,
        "id_t6_stereoWidth": 1.0,
        "id_t6_invertInput": 0,
        "id_t7_gainAdjust": 1.0,
        "id_t7_fadeRate": 0.0,
        "id_t7_fadeProfile": 0.0,
        "id_t7_directOutsMode": 3,
        "id_t7_auxSendsMode": 3,
        "id_t7_panLawStereo": 1,
        "id_t7_vuColorThemeLocal": 0,
        "id_t7_filterPos": 1,
        "id_t7_dispColorLocal": 0,
        "id_t7_polyStereo": 0,
        "id_t7_panCvLevel": 1.0,
        "id_t7_stereoWidth": 1.0,
        "id_t7_invertInput": 0,
        "id_t8_gainAdjust": 1.0,
        "id_t8_fadeRate": 0.0,
        "id_t8_fadeProfile": 0.0,
        "id_t8_directOutsMode": 3,
        "id_t8_auxSendsMode": 3,
        "id_t8_panLawStereo": 1,
        "id_t8_vuColorThemeLocal": 0,
        "id_t8_filterPos": 1,
        "id_t8_dispColorLocal": 0,
        "id_t8_polyStereo": 0,
        "id_t8_panCvLevel": 1.0,
        "id_t8_stereoWidth": 1.0,
        "id_t8_invertInput": 0,
        "id_t9_gainAdjust": 1.0,
        "id_t9_fadeRate": 0.0,
        "id_t9_fadeProfile": 0.0,
        "id_t9_directOutsMode": 3,
        "id_t9_auxSendsMode": 3,
        "id_t9_panLawStereo": 1,
        "id_t9_vuColorThemeLocal": 0,
        "id_t9_filterPos": 1,
        "id_t9_dispColorLocal": 0,
        "id_t9_polyStereo": 0,
        "id_t9_panCvLevel": 1.0,
        "id_t9_stereoWidth": 1.0,
        "id_t9_invertInput": 0,
        "id_t10_gainAdjust": 1.0,
        "id_t10_fadeRate": 0.0,
        "id_t10_fadeProfile": 0.0,
        "id_t10_directOutsMode": 3,
        "id_t10_auxSendsMode": 3,
        "id_t10_panLawStereo": 1,
        "id_t10_vuColorThemeLocal": 0,
        "id_t10_filterPos": 1,
        "id_t10_dispColorLocal": 0,
        "id_t10_polyStereo": 0,
        "id_t10_panCvLevel": 1.0,
        "id_t10_stereoWidth": 1.0,
        "id_t10_invertInput": 0,
        "id_t11_gainAdjust": 1.0,
        "id_t11_fadeRate": 0.0,
        "id_t11_fadeProfile": 0.0,
        "id_t11_directOutsMode": 3,
        "id_t11_auxSendsMode": 3,
        "id_t11_panLawStereo": 1,
        "id_t11_vuColorThemeLocal": 0,
        "id_t11_filterPos": 1,
        "id_t11_dispColorLocal": 0,
        "id_t11_polyStereo": 0,
        "id_t11_panCvLevel": 1.0,
        "id_t11_stereoWidth": 1.0,
        "id_t11_invertInput": 0,
        "id_t12_gainAdjust": 1.0,
        "id_t12_fadeRate": 0.0,
        "id_t12_fadeProfile": 0.0,
        "id_t12_directOutsMode": 3,
        "id_t12_auxSendsMode": 3,
        "id_t12_panLawStereo": 1,
        "id_t12_vuColorThemeLocal": 0,
        "id_t12_filterPos": 1,
        "id_t12_dispColorLocal": 0,
        "id_t12_polyStereo": 0,
        "id_t12_panCvLevel": 1.0,
        "id_t12_stereoWidth": 1.0,
        "id_t12_invertInput": 0,
        "id_t13_gainAdjust": 1.0,
        "id_t13_fadeRate": 0.0,
        "id_t13_fadeProfile": 0.0,
        "id_t13_directOutsMode": 3,
        "id_t13_auxSendsMode": 3,
        "id_t13_panLawStereo": 1,
        "id_t13_vuColorThemeLocal": 0,
        "id_t13_filterPos": 1,
        "id_t13_dispColorLocal": 0,
        "id_t13_polyStereo": 0,
        "id_t13_panCvLevel": 1.0,
        "id_t13_stereoWidth": 1.0,
        "id_t13_invertInput": 0,
        "id_t14_gainAdjust": 1.0,
        "id_t14_fadeRate": 0.0,
        "id_t14_fadeProfile": 0.0,
        "id_t14_directOutsMode": 3,
        "id_t14_auxSendsMode": 3,
        "id_t14_panLawStereo": 1,
        "id_t14_vuColorThemeLocal": 0,
        "id_t14_filterPos": 1,
        "id_t14_dispColorLocal": 0,
        "id_t14_polyStereo": 0,
        "id_t14_panCvLevel": 1.0,
        "id_t14_stereoWidth": 1.0,
        "id_t14_invertInput": 0,
        "id_t15_gainAdjust": 1.0,
        "id_t15_fadeRate": 0.0,
        "id_t15_fadeProfile": 0.0,
        "id_t15_directOutsMode": 3,
        "id_t15_auxSendsMode": 3,
        "id_t15_panLawStereo": 1,
        "id_t15_vuColorThemeLocal": 0,
        "id_t15_filterPos": 1,
        "id_t15_dispColorLocal": 0,
        "id_t15_polyStereo": 0,
        "id_t15_panCvLevel": 1.0,
        "id_t15_stereoWidth": 1.0,
        "id_t15_invertInput": 0,
        "id_g0_fadeRate": 0.0,
        "id_g0_fadeProfile": 0.0,
        "id_g0_directOutsMode": 3,
        "id_g0_auxSendsMode": 3,
        "id_g0_panLawStereo": 1,
        "id_g0_vuColorThemeLocal": 0,
        "id_g0_filterPos": 1,
        "id_g0_dispColorLocal": 0,
        "id_g0_panCvLevel": 1.0,
        "id_g0_stereoWidth": 1.0,
        "id_g1_fadeRate": 0.0,
        "id_g1_fadeProfile": 0.0,
        "id_g1_directOutsMode": 3,
        "id_g1_auxSendsMode": 3,
        "id_g1_panLawStereo": 1,
        "id_g1_vuColorThemeLocal": 0,
        "id_g1_filterPos": 1,
        "id_g1_dispColorLocal": 0,
        "id_g1_panCvLevel": 1.0,
        "id_g1_stereoWidth": 1.0,
        "id_g2_fadeRate": 0.0,
        "id_g2_fadeProfile": 0.0,
        "id_g2_directOutsMode": 3,
        "id_g2_auxSendsMode": 3,
        "id_g2_panLawStereo": 1,
        "id_g2_vuColorThemeLocal": 0,
        "id_g2_filterPos": 1,
        "id_g2_dispColorLocal": 0,
        "id_g2_panCvLevel": 1.0,
        "id_g2_stereoWidth": 1.0,
        "id_g3_fadeRate": 0.0,
        "id_g3_fadeProfile": 0.0,
        "id_g3_directOutsMode": 3,
        "id_g3_auxSendsMode": 3,
        "id_g3_panLawStereo": 1,
        "id_g3_vuColorThemeLocal": 0,
        "id_g3_filterPos": 1,
        "id_g3_dispColorLocal": 0,
        "id_g3_panCvLevel": 1.0,
        "id_g3_stereoWidth": 1.0,
        "dcBlock": false,
        "clipping": 0,
        "fadeRate": 15.960001,
        "fadeProfile": 0.0,
        "vuColorThemeLocal": 0,
        "dispColorLocal": 0,
        "chainOnly": 0,
        "dimGain": 0.251190007,
        "masterLabel": "MASTER"
      },
      "pos": [
        0,
        1
      ]
    },
    {
      "id": 145,
      "plugin": "MindMeldModular",
      "version": "1.1.14",
      "model": "AuxExpander",
      "params": [
        {
          "id": 0,
          "value": 0.550500035
        },
        {
          "id": 1,
          "value": 0.0
        },
        {
          "id": 2,
          "value": 0.0
        },
        {
          "id": 3,
          "value": 0.0
        },
        {
          "id": 4,
          "value": 0.0
        },
        {
          "id": 5,
          "value": 0.0
        },
        {
          "id": 6,
          "value": 0.0
        },
        {
          "id": 7,
          "value": 0.0
        },
        {
          "id": 8,
          "value": 0.386999995
        },
        {
          "id": 9,
          "value": 0.0
        },
        {
          "id": 10,
          "value": 0.0
        },
        {
          "id": 11,
          "value": 0.0
        },
        {
          "id": 12,
          "value": 0.0
        },
        {
          "id": 13,
          "value": 0.0
        },
        {
          "id": 14,
          "value": 0.0
        },
        {
          "id": 15,
          "value": 0.0
        },
        {
          "id": 16,
          "value": 0.0
        },
        {
          "id": 17,
          "value": 0.0
        },
        {
          "id": 18,
          "value": 0.0
        },
        {
          "id": 19,
          "value": 0.0
        },
        {
          "id": 20,
          "value": 0.0
        },
        {
          "id": 21,
          "value": 0.0
        },
        {
          "id": 22,
          "value": 0.0
        },
        {
          "id": 23,
          "value": 0.0
        },
        {
          "id": 24,
          "value": 0.0
        },
        {
          "id": 25,
          "value": 0.0
        },
        {
          "id": 26,
          "value": 0.0
        },
        {
          "id": 27,
          "value": 0.0
        },
        {
          "id": 28,
          "value": 0.0
        },
        {
          "id": 29,
          "value": 0.0
        },
        {
          "id": 30,
          "value": 0.0
        },
        {
          "id": 31,
          "value": 0.0
        },
        {
          "id": 32,
          "value": 0.0
        },
        {
          "id": 33,
          "value": 0.0
        },
        {
          "id": 34,
          "value": 0.0
        },
        {
          "id": 35,
          "value": 0.0
        },
        {
          "id": 36,
          "value": 0.0
        },
        {
          "id": 37,
          "value": 0.0
        },
        {
          "id": 38,
          "value": 0.0
        },
        {
          "id": 39,
          "value": 0.0
        },
        {
          "id": 40,
          "value": 0.0
        },
        {
          "id": 41,
          "value": 0.0
        },
        {
          "id": 42,
          "value": 0.0
        },
        {
          "id": 43,
          "value": 0.0
        },
        {
          "id": 44,
          "value": 0.0
        },
        {
          "id": 45,
          "value": 0.0
        },
        {
          "id": 46,
          "value": 0.0
        },
        {
          "id": 47,
          "value": 0.0
        },
        {
          "id": 48,
          "value": 0.0
        },
        {
          "id": 49,
          "value": 0.0
        },
        {
          "id": 50,
          "value": 0.0
        },
        {
          "id": 51,
          "value": 0.0
        },
        {
          "id": 52,
          "value": 0.0
        },
        {
          "id": 53,
          "value": 0.0
        },
        {
          "id": 54,
          "value": 0.0
        },
        {
          "id": 55,
          "value": 0.0
        },
        {
          "id": 56,
          "value": 0.0
        },
        {
          "id": 57,
          "value": 0.0
        },
        {
          "id": 58,
          "value": 0.0
        },
        {
          "id": 59,
          "value": 0.0
        },
        {
          "id": 60,
          "value": 0.0
        },
        {
          "id": 61,
          "value": 0.0
        },
        {
          "id": 62,
          "value": 0.0
        },
        {
          "id": 63,
          "value": 0.0
        },
        {
          "id": 64,
          "value": 0.0
        },
        {
          "id": 65,
          "value": 0.0
        },
        {
          "id": 66,
          "value": 0.0
        },
        {
          "id": 67,
          "value": 0.0
        },
        {
          "id": 68,
          "value": 0.0
        },
        {
          "id": 69,
          "value": 0.0
        },
        {
          "id": 70,
          "value": 0.0
        },
        {
          "id": 71,
          "value": 0.0
        },
        {
          "id": 72,
          "value": 0.0
        },
        {
          "id": 73,
          "value": 0.0
        },
        {
          "id": 74,
          "value": 0.0
        },
        {
          "id": 75,
          "value": 0.0
        },
        {
          "id": 76,
          "value": 0.0
        },
        {
          "id": 77,
          "value": 0.0
        },
        {
          "id": 78,
          "value": 0.0
        },
        {
          "id": 79,
          "value": 0.0
        },
        {
          "id": 80,
          "value": 0.0
        },
        {
          "id": 81,
          "value": 0.0
        },
        {
          "id": 82,
          "value": 0.0
        },
        {
          "id": 83,
          "value": 0.0
        },
        {
          "id": 84,
          "value": 0.0
        },
        {
          "id": 85,
          "value": 0.0
        },
        {
          "id": 86,
          "value": 0.0
        },
        {
          "id": 87,
          "value": 0.0
        },
        {
          "id": 88,
          "value": 0.0
        },
        {
          "id": 89,
          "value": 0.0
        },
        {
          "id": 90,
          "value": 0.0
        },
        {
          "id": 91,
          "value": 0.0
        },
        {
          "id": 92,
          "value": 0.0
        },
        {
          "id": 93,
          "value": 0.0
        },
        {
          "id": 94,
          "value": 0.0
        },
        {
          "id": 95,
          "value": 0.0
        },
        {
          "id": 96,
          "value": 0.0
        },
        {
          "id": 97,
          "value": 0.0
        },
        {
          "id": 98,
          "value": 0.0
        },
        {
          "id": 99,
          "value": 0.0
        },
        {
          "id": 100,
          "value": 0.0
        },
        {
          "id": 101,
          "value": 0.0
        },
        {
          "id": 102,
          "value": 0.0
        },
        {
          "id": 103,
          "value": 0.0
        },
        {
          "id": 104,
          "value": 0.0
        },
        {
          "id": 105,
          "value": 0.0
        },
        {
          "id": 106,
          "value": 0.0
        },
        {
          "id": 107,
          "value": 0.0
        },
        {
          "id": 108,
          "value": 0.0
        },
        {
          "id": 109,
          "value": 0.0
        },
        {
          "id": 110,
          "value": 0.0
        },
        {
          "id": 111,
          "value": 0.0
        },
        {
          "id": 112,
          "value": 1.0
        },
        {
          "id": 113,
          "value": 1.0
        },
        {
          "id": 114,
          "value": 1.0
        },
        {
          "id": 115,
          "value": 1.0
        },
        {
          "id": 116,
          "value": 0.5
        },
        {
          "id": 117,
          "value": 0.5
        },
        {
          "id": 118,
          "value": 0.5
        },
        {
          "id": 119,
          "value": 0.5
        },
        {
          "id": 120,
          "value": 1.0
        },
        {
          "id": 121,
          "value": 1.0
        },
        {
          "id": 122,
          "value": 1.0
        },
        {
          "id": 123,
          "value": 1.0
        }
      ],
      "leftModuleId": 144,
      "rightModuleId": 146,
      "data": {
        "directOutsModeLocal": 50529027,
        "panLawStereoLocal": 16843009,
        "vuColorThemeLocal": 0,
        "dispColorAuxLocal": [
          0,
          0,
          0,
          0
        ],
        "auxFadeRatesAndProfiles": [
          0.0,
          0.0,
          0.0,
          0.0,
          0.0,
          0.0,
          0.0,
          0.0
        ],
        "auxLabels": "VERBAUXBAUXCAUXD",
        "id_x0_hpfCutoffFreq": 13.0,
        "id_x0_lpfCutoffFreq": 20010.0,
        "id_x0_stereoWidth": 1.0,
        "id_x1_hpfCutoffFreq": 13.0,
        "id_x1_lpfCutoffFreq": 20010.0,
        "id_x1_stereoWidth": 1.0,
        "id_x2_hpfCutoffFreq": 13.0,
        "id_x2_lpfCutoffFreq": 20010.0,
        "id_x2_stereoWidth": 1.0,
        "id_x3_hpfCutoffFreq": 13.0,
        "id_x3_lpfCutoffFreq": 20010.0,
        "id_x3_stereoWidth": 1.0,
        "panCvLevels": [
          1.0,
          1.0,
          1.0,
          1.0
        ]
      },
      "pos": [
        61,
        1
      ]
    },
    {
      "id": 146,
      "plugin": "Stoermelder-P1",
      "version": "1.10.0",
      "model": "Mb",
      "params": [],
      "leftModuleId": 145,
      "data": {
        "mode": 1
      },
      "pos": [
        103,
        1
      ]
    },
    {
      "id": 259,
      "plugin": "Stoermelder-P1",
      "version": "1.10.0",
      "model": "Strip",
      "params": [
        {
          "id": 0,
          "value": 0.0
        },
        {
          "id": 1,
          "value": 0.0
        },
        {
          "id": 2,
          "value": 0.0
        },
        {
          "id": 3,
          "value": 0.0
        },
        {
          "id": 4,
          "value": 0.0
        }
      ],
      "rightModuleId": 260,
      "data": {
        "mode": 0,
        "panelTheme": 1,
        "onMode": 0,
        "excludedParams": [],
        "randomExcl": 1,
        "randomParamsOnly": false,
        "presetLoadReplace": false
      },
      "pos": [
        0,
        2
      ]
    },
    {
      "id": 260,
      "plugin": "Fundamental",
      "version": "1.4.0",
      "model": "VCMixer",
      "params": [
        {
          "id": 0,
          "value": 1.0
        },
        {
          "id": 1,
          "value": 0.60245496
        },
        {
          "id": 2,
          "value": 1.0
        },
        {
          "id": 3,
          "value": 0.941866755
        },
        {
          "id": 4,
          "value": 0.546037078
        }
      ],
      "leftModuleId": 259,
      "rightModuleId": 261,
      "pos": [
        3,
        2
      ]
    },
    {
      "id": 261,
      "plugin": "AS",
      "version": "1.0.5",
      "model": "BPMCalc2",
      "params": [
        {
          "id": 0,
          "value": 100.0
        }
      ],
      "leftModuleId": 260,
      "rightModuleId": 262,
      "pos": [
        13,
        2
      ]
    },
    {
      "id": 262,
      "plugin": "AS",
      "version": "1.0.5",
      "model": "Multiple2_5",
      "params": [],
      "leftModuleId": 261,
      "rightModuleId": 263,
      "pos": [
        21,
        2
      ]
    },
    {
      "id": 263,
      "plugin": "AS",
      "version": "1.0.5",
      "model": "SignalDelay",
      "params": [
        {
          "id": 0,
          "value": 0.0
        },
        {
          "id": 1,
          "value": 0.0
        },
        {
          "id": 2,
          "value": 0.0
        },
        {
          "id": 3,
          "value": 0.0
        }
      ],
      "leftModuleId": 262,
      "rightModuleId": 264,
      "pos": [
        26,
        2
      ]
    },
    {
      "id": 264,
      "plugin": "AS",
      "version": "1.0.5",
      "model": "SignalDelay",
      "params": [
        {
          "id": 0,
          "value": 0.0
        },
        {
          "id": 1,
          "value": 0.0
        },
        {
          "id": 2,
          "value": 0.0
        },
        {
          "id": 3,
          "value": 0.0
        }
      ],
      "leftModuleId": 263,
      "rightModuleId": 265,
      "pos": [
        32,
        2
      ]
    },
    {
      "id": 265,
      "plugin": "AS",
      "version": "1.0.5",
      "model": "SignalDelay",
      "params": [
        {
          "id": 0,
          "value": 0.0
        },
        {
          "id": 1,
          "value": 0.0
        },
        {
          "id": 2,
          "value": 0.0
        },
        {
          "id": 3,
          "value": 0.0
        }
      ],
      "leftModuleId": 264,
      "rightModuleId": 266,
      "pos": [
        38,
        2
      ]
    },
    {
      "id": 266,
      "plugin": "AS",
      "version": "1.0.5",
      "model": "SignalDelay",
      "params": [
        {
          "id": 0,
          "value": 0.0
        },
        {
          "id": 1,
          "value": 0.0
        },
        {
          "id": 2,
          "value": 0.0
        },
        {
          "id": 3,
          "value": 0.0
        }
      ],
      "leftModuleId": 265,
      "rightModuleId": 267,
      "pos": [
        44,
        2
      ]
    },
    {
      "id": 267,
      "plugin": "AS",
      "version": "1.0.5",
      "model": "Mixer8ch",
      "params": [
        {
          "id": 0,
          "value": 0.800000012
        },
        {
          "id": 1,
          "value": 0.800000012
        },
        {
          "id": 2,
          "value": 0.593000054
        },
        {
          "id": 3,
          "value": 0.758000076
        },
        {
          "id": 4,
          "value": 0.524000108
        },
        {
          "id": 5,
          "value": 0.800000012
        },
        {
          "id": 6,
          "value": 0.526999831
        },
        {
          "id": 7,
          "value": 0.730999947
        },
        {
          "id": 8,
          "value": 0.586999834
        },
        {
          "id": 9,
          "value": 0.0
        },
        {
          "id": 10,
          "value": 0.0
        },
        {
          "id": 11,
          "value": 0.0
        },
        {
          "id": 12,
          "value": 0.0
        },
        {
          "id": 13,
          "value": 0.0
        },
        {
          "id": 14,
          "value": 0.0
        },
        {
          "id": 15,
          "value": 0.0
        },
        {
          "id": 16,
          "value": 0.0
        },
        {
          "id": 17,
          "value": 0.0
        },
        {
          "id": 18,
          "value": 0.0
        },
        {
          "id": 19,
          "value": 0.0
        },
        {
          "id": 20,
          "value": 0.0
        },
        {
          "id": 21,
          "value": 0.0
        },
        {
          "id": 22,
          "value": 0.0
        },
        {
          "id": 23,
          "value": 0.0
        },
        {
          "id": 24,
          "value": 0.0
        },
        {
          "id": 25,
          "value": 0.0
        }
      ],
      "leftModuleId": 266,
      "rightModuleId": 268,
      "data": {
        "as_MixerMutes": [
          0,
          0,
          0,
          0,
          0,
          0,
          0,
          0,
          0
        ]
      },
      "pos": [
        50,
        2
      ]
    },
    {
      "id": 268,
      "plugin": "Fundamental",
      "version": "1.4.0",
      "model": "Merge",
      "params": [],
      "leftModuleId": 267,
      "rightModuleId": 269,
      "data": {
        "channels": -1
      },
      "pos": [
        76,
        2
      ]
    },
    {
      "id": 269,
      "plugin": "Bogaudio",
      "version": "1.1.38",
      "model": "Bogaudio-Follow",
      "params": [
        {
          "id": 0,
          "value": 0.300000012
        },
        {
          "id": 1,
          "value": 1.0
        }
      ],
      "leftModuleId": 268,
      "rightModuleId": 270,
      "data": {},
      "pos": [
        81,
        2
      ]
    },
    {
      "id": 270,
      "plugin": "Fundamental",
      "version": "1.4.0",
      "model": "Split",
      "params": [],
      "leftModuleId": 269,
      "pos": [
        84,
        2
      ]
    },
    {
      "id": 273,
      "plugin": "Fundamental",
      "version": "1.4.0",
      "model": "Scope",
      "params": [
        {
          "id": 0,
          "value": -0.0
        },
        {
          "id": 1,
          "value": -10.0
        },
        {
          "id": 2,
          "value": 0.0
        },
        {
          "id": 3,
          "value": 0.0
        },
        {
          "id": 4,
          "value": 6.0
        },
        {
          "id": 5,
          "value": 0.0
        },
        {
          "id": 6,
          "value": 0.0
        },
        {
          "id": 7,
          "value": 0.0
        }
      ],
      "leftModuleId": 275,
      "data": {
        "lissajous": 0,
        "external": 0
      },
      "pos": [
        67,
        3
      ]
    },
    {
      "id": 274,
      "plugin": "Bogaudio",
      "version": "1.1.38",
      "model": "Bogaudio-FMOp",
      "params": [
        {
          "id": 0,
          "value": 0.0
        },
        {
          "id": 1,
          "value": -0.00749999844
        },
        {
          "id": 2,
          "value": 0.141421005
        },
        {
          "id": 3,
          "value": 0.316229999
        },
        {
          "id": 4,
          "value": 1.0
        },
        {
          "id": 5,
          "value": 0.316229999
        },
        {
          "id": 6,
          "value": 0.0
        },
        {
          "id": 7,
          "value": 0.061499875
        },
        {
          "id": 8,
          "value": 1.0
        },
        {
          "id": 9,
          "value": 0.0
        },
        {
          "id": 10,
          "value": 0.0
        },
        {
          "id": 11,
          "value": 0.0
        }
      ],
      "leftModuleId": 277,
      "rightModuleId": 287,
      "data": {
        "linearLevel": false,
        "antialias_feedback": true,
        "antialias_depth": true
      },
      "pos": [
        33,
        3
      ]
    },
    {
      "id": 275,
      "plugin": "VultModulesFree",
      "version": "1.19.1",
      "model": "Slap",
      "params": [
        {
          "id": 0,
          "value": 0.0329999961
        },
        {
          "id": 1,
          "value": 0.378499955
        },
        {
          "id": 2,
          "value": 0.5
        },
        {
          "id": 3,
          "value": 0.456000119
        },
        {
          "id": 4,
          "value": 0.0
        },
        {
          "id": 5,
          "value": 0.0
        },
        {
          "id": 6,
          "value": 0.0
        },
        {
          "id": 7,
          "value": 1.0
        },
        {
          "id": 8,
          "value": 0.0
        }
      ],
      "leftModuleId": 286,
      "rightModuleId": 273,
      "pos": [
        57,
        3
      ]
    },
    {
      "id": 276,
      "plugin": "Bogaudio",
      "version": "1.1.38",
      "model": "Bogaudio-AddrSeq",
      "params": [
        {
          "id": 0,
          "value": 8.0
        },
        {
          "id": 1,
          "value": 0.0
        },
        {
          "id": 2,
          "value": 0.0
        },
        {
          "id": 3,
          "value": 0.367876887
        },
        {
          "id": 4,
          "value": -0.421325415
        },
        {
          "id": 5,
          "value": 0.877314091
        },
        {
          "id": 6,
          "value": 0.951033354
        },
        {
          "id": 7,
          "value": 0.619667768
        },
        {
          "id": 8,
          "value": -0.0436066389
        },
        {
          "id": 9,
          "value": -0.505157948
        },
        {
          "id": 10,
          "value": 0.729380131
        }
      ],
      "leftModuleId": 288,
      "rightModuleId": 277,
      "data": {
        "poly_input": 0,
        "select_on_clock": false,
        "triggered_select": false,
        "reverse_on_negative_clock": false,
        "wrap_select_at_steps": false,
        "range_offset": 0.0,
        "range_scale": 1.0
      },
      "pos": [
        23,
        3
      ]
    },
    {
      "id": 277,
      "plugin": "JW-Modules",
      "version": "1.0.30",
      "model": "Quantizer",
      "params": [
        {
          "id": 0,
          "value": 2.0
        },
        {
          "id": 1,
          "value": 8.0
        },
        {
          "id": 2,
          "value": -0.0
        }
      ],
      "leftModuleId": 276,
      "rightModuleId": 274,
      "data": {},
      "pos": [
        29,
        3
      ]
    },
    {
      "id": 278,
      "plugin": "ImpromptuModular",
      "version": "1.1.12",
      "model": "Clocked-Clkd",
      "params": [
        {
          "id": 0,
          "value": -9.0
        },
        {
          "id": 1,
          "value": 0.0
        },
        {
          "id": 2,
          "value": 0.0
        },
        {
          "id": 3,
          "value": 120.0
        },
        {
          "id": 4,
          "value": 0.0
        },
        {
          "id": 5,
          "value": 0.0
        },
        {
          "id": 6,
          "value": 0.0
        },
        {
          "id": 7,
          "value": 0.0
        },
        {
          "id": 8,
          "value": 0.0
        },
        {
          "id": 9,
          "value": 0.0
        }
      ],
      "rightModuleId": 279,
      "data": {
        "panelTheme": 1,
        "running": false,
        "bpmDetectionMode": false,
        "resetOnStartStop": 0,
        "ppqn": 24,
        "resetClockOutputsHigh": true,
        "momentaryRunInput": true,
        "displayIndex": 1,
        "trigOuts": [
          false,
          false,
          false,
          false
        ],
        "clockMaster": -1
      },
      "pos": [
        3,
        3
      ]
    },
    {
      "id": 279,
      "plugin": "Bogaudio",
      "version": "1.1.38",
      "model": "Bogaudio-DGate",
      "params": [
        {
          "id": 0,
          "value": 0.213844106
        },
        {
          "id": 1,
          "value": 0.171469212
        },
        {
          "id": 2,
          "value": 1.0
        },
        {
          "id": 3,
          "value": 0.0
        }
      ],
      "leftModuleId": 278,
      "rightModuleId": 281,
      "data": {
        "triggerOnLoad": true,
        "shouldTriggerOnLoad": true
      },
      "pos": [
        13,
        3
      ]
    },
    {
      "id": 281,
      "plugin": "CountModula",
      "version": "1.16.0",
      "model": "Chances",
      "params": [
        {
          "id": 0,
          "value": 0.0
        },
        {
          "id": 1,
          "value": 1.0
        }
      ],
      "leftModuleId": 279,
      "rightModuleId": 288,
      "data": {
        "moduleVersion": 1.10000002,
        "theme": 1
      },
      "pos": [
        16,
        3
      ]
    },
    {
      "id": 286,
      "plugin": "Bogaudio",
      "version": "1.1.38",
      "model": "Bogaudio-FMOp",
      "params": [
        {
          "id": 0,
          "value": 0.0
        },
        {
          "id": 1,
          "value": 0.0221250001
        },
        {
          "id": 2,
          "value": 0.124921001
        },
        {
          "id": 3,
          "value": 0.316229999
        },
        {
          "id": 4,
          "value": 1.0
        },
        {
          "id": 5,
          "value": 0.316229999
        },
        {
          "id": 6,
          "value": 0.32100001
        },
        {
          "id": 7,
          "value": 0.161999911
        },
        {
          "id": 8,
          "value": 1.0
        },
        {
          "id": 9,
          "value": 0.0
        },
        {
          "id": 10,
          "value": 0.0
        },
        {
          "id": 11,
          "value": 0.0
        }
      ],
      "leftModuleId": 287,
      "rightModuleId": 275,
      "data": {
        "linearLevel": false,
        "antialias_feedback": true,
        "antialias_depth": true
      },
      "pos": [
        47,
        3
      ]
    },
    {
      "id": 287,
      "plugin": "JW-Modules",
      "version": "1.0.30",
      "model": "Quantizer",
      "params": [
        {
          "id": 0,
          "value": 7.0
        },
        {
          "id": 1,
          "value": 8.0
        },
        {
          "id": 2,
          "value": 0.0
        }
      ],
      "leftModuleId": 274,
      "rightModuleId": 286,
      "data": {},
      "pos": [
        43,
        3
      ]
    },
    {
      "id": 288,
      "plugin": "Bogaudio",
      "version": "1.1.38",
      "model": "Bogaudio-LLFO",
      "params": [
        {
          "id": 0,
          "value": -3.33450031
        },
        {
          "id": 1,
          "value": 1.0
        },
        {
          "id": 2,
          "value": 4.0
        },
        {
          "id": 3,
          "value": 0.0
        },
        {
          "id": 4,
          "value": 1.0
        }
      ],
      "leftModuleId": 281,
      "rightModuleId": 276,
      "data": {
        "output_sampling": 0.0,
        "pulse_width": -0.851063788,
        "smoothing": 0.0,
        "reset_on_wave_change": false
      },
      "pos": [
        20,
        3
      ]
    },
    {
      "id": 289,
      "plugin": "Core",
      "version": "1.1.6",
      "model": "Notes",
      "params": [],
      "text": "Multitap ",
      "pos": [
        62,
        0
      ]
    }
  ],
  "cables": [
    {
      "id": 311,
      "outputModuleId": 144,
      "outputId": 3,
      "inputModuleId": 11,
      "inputId": 0,
      "color": "#0986ad"
    },
    {
      "id": 312,
      "outputModuleId": 144,
      "outputId": 4,
      "inputModuleId": 11,
      "inputId": 1,
      "color": "#c9b70e"
    },
    {
      "id": 313,
      "outputModuleId": 145,
      "outputId": 0,
      "inputModuleId": 12,
      "inputId": 0,
      "color": "#0c8e15"
    },
    {
      "id": 314,
      "outputModuleId": 145,
      "outputId": 4,
      "inputModuleId": 12,
      "inputId": 1,
      "color": "#c91847"
    },
    {
      "id": 315,
      "outputModuleId": 12,
      "outputId": 0,
      "inputModuleId": 145,
      "inputId": 0,
      "color": "#0986ad"
    },
    {
      "id": 316,
      "outputModuleId": 12,
      "outputId": 1,
      "inputModuleId": 145,
      "inputId": 1,
      "color": "#c9b70e"
    },
    {
      "id": 595,
      "outputModuleId": 262,
      "outputId": 0,
      "inputModuleId": 263,
      "inputId": 1,
      "color": "#0c8e15"
    },
    {
      "id": 596,
      "outputModuleId": 262,
      "outputId": 5,
      "inputModuleId": 266,
      "inputId": 0,
      "color": "#0c8e15"
    },
    {
      "id": 597,
      "outputModuleId": 262,
      "outputId": 1,
      "inputModuleId": 264,
      "inputId": 0,
      "color": "#0c8e15"
    },
    {
      "id": 598,
      "outputModuleId": 262,
      "outputId": 6,
      "inputModuleId": 266,
      "inputId": 1,
      "color": "#0c8e15"
    },
    {
      "id": 599,
      "outputModuleId": 262,
      "outputId": 2,
      "inputModuleId": 265,
      "inputId": 0,
      "color": "#0c8e15"
    },
    {
      "id": 600,
      "outputModuleId": 262,
      "outputId": 3,
      "inputModuleId": 264,
      "inputId": 1,
      "color": "#0c8e15"
    },
    {
      "id": 601,
      "outputModuleId": 262,
      "outputId": 4,
      "inputModuleId": 265,
      "inputId": 1,
      "color": "#0c8e15"
    },
    {
      "id": 603,
      "outputModuleId": 265,
      "outputId": 0,
      "inputModuleId": 265,
      "inputId": 3,
      "color": "#c91847"
    },
    {
      "id": 604,
      "outputModuleId": 265,
      "outputId": 2,
      "inputModuleId": 267,
      "inputId": 13,
      "color": "#c91847"
    },
    {
      "id": 605,
      "outputModuleId": 265,
      "outputId": 1,
      "inputModuleId": 266,
      "inputId": 2,
      "color": "#c91847"
    },
    {
      "id": 606,
      "outputModuleId": 265,
      "outputId": 3,
      "inputModuleId": 267,
      "inputId": 16,
      "color": "#c91847"
    },
    {
      "id": 607,
      "outputModuleId": 263,
      "outputId": 0,
      "inputModuleId": 263,
      "inputId": 3,
      "color": "#c91847"
    },
    {
      "id": 608,
      "outputModuleId": 263,
      "outputId": 2,
      "inputModuleId": 267,
      "inputId": 1,
      "color": "#c91847"
    },
    {
      "id": 609,
      "outputModuleId": 263,
      "outputId": 1,
      "inputModuleId": 264,
      "inputId": 2,
      "color": "#c91847"
    },
    {
      "id": 610,
      "outputModuleId": 263,
      "outputId": 3,
      "inputModuleId": 267,
      "inputId": 4,
      "color": "#c91847"
    },
    {
      "id": 611,
      "outputModuleId": 264,
      "outputId": 0,
      "inputModuleId": 264,
      "inputId": 3,
      "color": "#c91847"
    },
    {
      "id": 612,
      "outputModuleId": 264,
      "outputId": 2,
      "inputModuleId": 267,
      "inputId": 7,
      "color": "#c91847"
    },
    {
      "id": 613,
      "outputModuleId": 264,
      "outputId": 1,
      "inputModuleId": 265,
      "inputId": 2,
      "color": "#c91847"
    },
    {
      "id": 614,
      "outputModuleId": 264,
      "outputId": 3,
      "inputModuleId": 267,
      "inputId": 10,
      "color": "#c91847"
    },
    {
      "id": 615,
      "outputModuleId": 266,
      "outputId": 0,
      "inputModuleId": 266,
      "inputId": 3,
      "color": "#c91847"
    },
    {
      "id": 616,
      "outputModuleId": 266,
      "outputId": 2,
      "inputModuleId": 267,
      "inputId": 19,
      "color": "#c91847"
    },
    {
      "id": 617,
      "outputModuleId": 266,
      "outputId": 3,
      "inputModuleId": 267,
      "inputId": 22,
      "color": "#c91847"
    },
    {
      "id": 619,
      "outputModuleId": 267,
      "outputId": 3,
      "inputModuleId": 268,
      "inputId": 1,
      "color": "#0c8e15"
    },
    {
      "id": 620,
      "outputModuleId": 267,
      "outputId": 4,
      "inputModuleId": 268,
      "inputId": 2,
      "color": "#0c8e15"
    },
    {
      "id": 621,
      "outputModuleId": 267,
      "outputId": 5,
      "inputModuleId": 268,
      "inputId": 3,
      "color": "#0c8e15"
    },
    {
      "id": 622,
      "outputModuleId": 267,
      "outputId": 6,
      "inputModuleId": 268,
      "inputId": 4,
      "color": "#0c8e15"
    },
    {
      "id": 623,
      "outputModuleId": 267,
      "outputId": 7,
      "inputModuleId": 268,
      "inputId": 5,
      "color": "#0c8e15"
    },
    {
      "id": 624,
      "outputModuleId": 267,
      "outputId": 8,
      "inputModuleId": 268,
      "inputId": 6,
      "color": "#0c8e15"
    },
    {
      "id": 625,
      "outputModuleId": 267,
      "outputId": 9,
      "inputModuleId": 268,
      "inputId": 7,
      "color": "#0c8e15"
    },
    {
      "id": 626,
      "outputModuleId": 260,
      "outputId": 0,
      "inputModuleId": 263,
      "inputId": 2,
      "color": "#c91847"
    },
    {
      "id": 618,
      "outputModuleId": 267,
      "outputId": 2,
      "inputModuleId": 268,
      "inputId": 0,
      "color": "#0c8e15"
    },
    {
      "id": 628,
      "outputModuleId": 268,
      "outputId": 0,
      "inputModuleId": 269,
      "inputId": 2,
      "color": "#0c8e15"
    },
    {
      "id": 636,
      "outputModuleId": 269,
      "outputId": 0,
      "inputModuleId": 270,
      "inputId": 0,
      "color": "#0986ad"
    },
    {
      "id": 637,
      "outputModuleId": 267,
      "outputId": 0,
      "inputModuleId": 144,
      "inputId": 0,
      "color": "#c9b70e"
    },
    {
      "id": 640,
      "outputModuleId": 269,
      "outputId": 0,
      "inputModuleId": 273,
      "inputId": 0,
      "color": "#c91847"
    },
    {
      "id": 643,
      "outputModuleId": 275,
      "outputId": 0,
      "inputModuleId": 260,
      "inputId": 2,
      "color": "#0c8e15"
    },
    {
      "id": 646,
      "outputModuleId": 266,
      "outputId": 3,
      "inputModuleId": 260,
      "inputId": 4,
      "color": "#0986ad"
    },
    {
      "id": 649,
      "outputModuleId": 276,
      "outputId": 0,
      "inputModuleId": 277,
      "inputId": 2,
      "color": "#c9b70e"
    },
    {
      "id": 650,
      "outputModuleId": 277,
      "outputId": 0,
      "inputModuleId": 274,
      "inputId": 4,
      "color": "#0c8e15"
    },
    {
      "id": 655,
      "outputModuleId": 270,
      "outputId": 1,
      "inputModuleId": 275,
      "inputId": 4,
      "color": "#0c8e15"
    },
    {
      "id": 657,
      "outputModuleId": 279,
      "outputId": 0,
      "inputModuleId": 276,
      "inputId": 0,
      "color": "#0986ad"
    },
    {
      "id": 660,
      "outputModuleId": 279,
      "outputId": 0,
      "inputModuleId": 281,
      "inputId": 0,
      "color": "#c91847"
    },
    {
      "id": 662,
      "outputModuleId": 281,
      "outputId": 0,
      "inputModuleId": 275,
      "inputId": 0,
      "color": "#c9b70e"
    },
    {
      "id": 664,
      "outputModuleId": 278,
      "outputId": 1,
      "inputModuleId": 279,
      "inputId": 0,
      "color": "#c91847"
    },
    {
      "id": 670,
      "outputModuleId": 270,
      "outputId": 0,
      "inputModuleId": 273,
      "inputId": 1,
      "color": "#c9b70e"
    },
    {
      "id": 673,
      "outputModuleId": 287,
      "outputId": 0,
      "inputModuleId": 286,
      "inputId": 4,
      "color": "#0c8e15"
    },
    {
      "id": 674,
      "outputModuleId": 276,
      "outputId": 0,
      "inputModuleId": 287,
      "inputId": 2,
      "color": "#c91847"
    },
    {
      "id": 675,
      "outputModuleId": 286,
      "outputId": 0,
      "inputModuleId": 275,
      "inputId": 6,
      "color": "#0986ad"
    },
    {
      "id": 677,
      "outputModuleId": 281,
      "outputId": 1,
      "inputModuleId": 286,
      "inputId": 5,
      "color": "#0c8e15"
    },
    {
      "id": 676,
      "outputModuleId": 270,
      "outputId": 0,
      "inputModuleId": 286,
      "inputId": 3,
      "color": "#c9b70e"
    },
    {
      "id": 678,
      "outputModuleId": 270,
      "outputId": 2,
      "inputModuleId": 286,
      "inputId": 1,
      "color": "#c91847"
    },
    {
      "id": 642,
      "outputModuleId": 274,
      "outputId": 0,
      "inputModuleId": 275,
      "inputId": 5,
      "color": "#c9b70e"
    },
    {
      "id": 638,
      "outputModuleId": 267,
      "outputId": 1,
      "inputModuleId": 144,
      "inputId": 1,
      "color": "#c9b70e"
    },
    {
      "id": 679,
      "outputModuleId": 288,
      "outputId": 0,
      "inputModuleId": 281,
      "inputId": 1,
      "color": "#0986ad"
    },
    {
      "id": 669,
      "outputModuleId": 264,
      "outputId": 3,
      "inputModuleId": 260,
      "inputId": 1,
      "color": "#0986ad"
    },
    {
      "id": 667,
      "outputModuleId": 275,
      "outputId": 2,
      "inputModuleId": 260,
      "inputId": 3,
      "color": "#0c8e15"
    },
    {
      "id": 680,
      "outputModuleId": 286,
      "outputId": 0,
      "inputModuleId": 144,
      "inputId": 2,
      "color": "#0986ad"
    },
    {
      "id": 681,
      "outputModuleId": 274,
      "outputId": 0,
      "inputModuleId": 144,
      "inputId": 4,
      "color": "#c9b70e"
    },
    {
      "id": 682,
      "outputModuleId": 264,
      "outputId": 3,
      "inputModuleId": 144,
      "inputId": 6,
      "color": "#0c8e15"
    },
    {
      "id": 627,
      "outputModuleId": 261,
      "outputId": 4,
      "inputModuleId": 262,
      "inputId": 0,
      "color": "#0c8e15"
    }
  ]
}