{
  "version": "1.1.6",
  "modules": [
    {
      "id": 133,
      "plugin": "VultModulesFree",
      "version": "1.16",
      "model": "Slap",
      "params": [
        {
          "id": 0,
          "value": 0.0300000012
        },
        {
          "id": 1,
          "value": 0.5
        },
        {
          "id": 2,
          "value": 0.5
        },
        {
          "id": 3,
          "value": 0.764500141
        },
        {
          "id": 4,
          "value": 0.0
        },
        {
          "id": 5,
          "value": 0.0
        },
        {
          "id": 6,
          "value": 0.0
        },
        {
          "id": 7,
          "value": 1.0
        },
        {
          "id": 8,
          "value": 0.0
        }
      ],
      "leftModuleId": 136,
      "rightModuleId": 152,
      "pos": [
        41,
        1
      ]
    },
    {
      "id": 134,
      "plugin": "ImpromptuModular",
      "version": "1.1.10",
      "model": "Gate-Seq-64",
      "params": [
        {
          "id": 0,
          "value": 0.0
        },
        {
          "id": 1,
          "value": 0.0
        },
        {
          "id": 2,
          "value": 0.0
        },
        {
          "id": 3,
          "value": 0.0
        },
        {
          "id": 4,
          "value": 0.0
        },
        {
          "id": 5,
          "value": 0.0
        },
        {
          "id": 6,
          "value": 0.0
        },
        {
          "id": 7,
          "value": 0.0
        },
        {
          "id": 8,
          "value": 0.0
        },
        {
          "id": 9,
          "value": 0.0
        },
        {
          "id": 10,
          "value": 0.0
        },
        {
          "id": 11,
          "value": 0.0
        },
        {
          "id": 12,
          "value": 0.0
        },
        {
          "id": 13,
          "value": 0.0
        },
        {
          "id": 14,
          "value": 0.0
        },
        {
          "id": 15,
          "value": 0.0
        },
        {
          "id": 16,
          "value": 0.0
        },
        {
          "id": 17,
          "value": 0.0
        },
        {
          "id": 18,
          "value": 0.0
        },
        {
          "id": 19,
          "value": 0.0
        },
        {
          "id": 20,
          "value": 0.0
        },
        {
          "id": 21,
          "value": 0.0
        },
        {
          "id": 22,
          "value": 0.0
        },
        {
          "id": 23,
          "value": 0.0
        },
        {
          "id": 24,
          "value": 0.0
        },
        {
          "id": 25,
          "value": 0.0
        },
        {
          "id": 26,
          "value": 0.0
        },
        {
          "id": 27,
          "value": 0.0
        },
        {
          "id": 28,
          "value": 0.0
        },
        {
          "id": 29,
          "value": 0.0
        },
        {
          "id": 30,
          "value": 0.0
        },
        {
          "id": 31,
          "value": 0.0
        },
        {
          "id": 32,
          "value": 0.0
        },
        {
          "id": 33,
          "value": 0.0
        },
        {
          "id": 34,
          "value": 0.0
        },
        {
          "id": 35,
          "value": 0.0
        },
        {
          "id": 36,
          "value": 0.0
        },
        {
          "id": 37,
          "value": 0.0
        },
        {
          "id": 38,
          "value": 0.0
        },
        {
          "id": 39,
          "value": 0.0
        },
        {
          "id": 40,
          "value": 0.0
        },
        {
          "id": 41,
          "value": 0.0
        },
        {
          "id": 42,
          "value": 0.0
        },
        {
          "id": 43,
          "value": 0.0
        },
        {
          "id": 44,
          "value": 0.0
        },
        {
          "id": 45,
          "value": 0.0
        },
        {
          "id": 46,
          "value": 0.0
        },
        {
          "id": 47,
          "value": 0.0
        },
        {
          "id": 48,
          "value": 0.0
        },
        {
          "id": 49,
          "value": 0.0
        },
        {
          "id": 50,
          "value": 0.0
        },
        {
          "id": 51,
          "value": 0.0
        },
        {
          "id": 52,
          "value": 0.0
        },
        {
          "id": 53,
          "value": 0.0
        },
        {
          "id": 54,
          "value": 0.0
        },
        {
          "id": 55,
          "value": 0.0
        },
        {
          "id": 56,
          "value": 0.0
        },
        {
          "id": 57,
          "value": 0.0
        },
        {
          "id": 58,
          "value": 0.0
        },
        {
          "id": 59,
          "value": 0.0
        },
        {
          "id": 60,
          "value": 0.0
        },
        {
          "id": 61,
          "value": 0.0
        },
        {
          "id": 62,
          "value": 0.0
        },
        {
          "id": 63,
          "value": 0.0
        },
        {
          "id": 64,
          "value": 0.0
        },
        {
          "id": 65,
          "value": 0.0
        },
        {
          "id": 66,
          "value": 0.0
        },
        {
          "id": 67,
          "value": 0.0
        },
        {
          "id": 68,
          "value": 0.0
        },
        {
          "id": 69,
          "value": 0.0
        },
        {
          "id": 70,
          "value": 0.0
        },
        {
          "id": 71,
          "value": 1.0
        },
        {
          "id": 73,
          "value": 2.0
        },
        {
          "id": 74,
          "value": 0.0
        },
        {
          "id": 75,
          "value": 0.0
        },
        {
          "id": 76,
          "value": 0.0
        },
        {
          "id": 77,
          "value": 0.0
        },
        {
          "id": 78,
          "value": 0.0
        },
        {
          "id": 79,
          "value": 0.0
        },
        {
          "id": 80,
          "value": 0.0
        },
        {
          "id": 81,
          "value": 0.0
        },
        {
          "id": 82,
          "value": 0.0
        },
        {
          "id": 83,
          "value": 0.0
        }
      ],
      "leftModuleId": 158,
      "rightModuleId": 136,
      "data": {
        "panelTheme": 1,
        "autoseq": false,
        "seqCVmethod": 0,
        "pulsesPerStep": 1,
        "running": true,
        "runModeSong3": 0,
        "stepIndexEdit": 30,
        "phraseIndexEdit": 0,
        "sequence": 0,
        "phrases": 4,
        "attributes2": [
          562,
          562,
          562,
          562,
          562,
          50,
          562,
          50,
          50,
          562,
          50,
          50,
          50,
          50,
          50,
          50,
          50,
          50,
          50,
          562,
          50,
          50,
          562,
          50,
          50,
          50,
          562,
          562,
          562,
          562,
          50,
          562,
          50,
          562,
          50,
          562,
          50,
          50,
          562,
          50,
          562,
          50,
          50,
          562,
          50,
          562,
          50,
          50,
          50,
          50,
          50,
          50,
          562,
          50,
          50,
          50,
          562,
          50,
          50,
          562,
          50,
          562,
          562,
          562,
          50,
          50,
          50,
          50,
          50,
          50,
          50,
          50,
          50,
          50,
          50,
          50,
          50,
          50,
          50,
          50,
          50,
          50,
          50,
          50,
          50,
          50,
          50,
          50,
          50,
          50,
          50,
          50,
          50,
          50,
          50,
          50,
          50,
          50,
          50,
          50,
          50,
          50,
          50,
          50,
          50,
          50,
          50,
          50,
          50,
          50,
          50,
          50,
          50,
          50,
          50,
          50,
          50,
          50,
          50,
          50,
          50,
          50,
          50,
          50,
          50,
          50,
          50,
          50,
          50,
          50,
          50,
          50,
          50,
          50,
          50,
          50,
          50,
          50,
          50,
          50,
          50,
          50,
          50,
          50,
          50,
          50,
          50,
          50,
          50,
          50,
          50,
          50,
          50,
          50,
          50,
          50,
          50,
          50,
          50,
          50,
          50,
          50,
          50,
          50,
          50,
          50,
          50,
          50,
          50,
          50,
          50,
          50,
          50,
          50,
          50,
          50,
          50,
          50,
          50,
          50,
          50,
          50,
          50,
          50,
          50,
          50,
          50,
          50,
          50,
          50,
          50,
          50,
          50,
          50,
          50,
          50,
          50,
          50,
          50,
          50,
          50,
          50,
          50,
          50,
          50,
          50,
          50,
          50,
          50,
          50,
          50,
          50,
          50,
          50,
          50,
          50,
          50,
          50,
          50,
          50,
          50,
          50,
          50,
          50,
          50,
          50,
          50,
          50,
          50,
          50,
          50,
          50,
          50,
          50,
          50,
          50,
          50,
          50,
          50,
          50,
          50,
          50,
          50,
          50,
          50,
          50,
          50,
          50,
          50,
          50,
          50,
          50,
          50,
          50,
          50,
          50,
          50,
          50,
          50,
          50,
          50,
          50,
          50,
          50,
          50,
          50,
          50,
          50,
          50,
          50,
          50,
          50,
          50,
          50,
          50,
          50,
          50,
          50,
          50,
          50,
          50,
          50,
          50,
          50,
          50,
          50,
          50,
          50,
          50,
          50,
          50,
          50,
          50,
          50,
          50,
          50,
          50,
          50,
          50,
          50,
          50,
          50,
          50,
          50,
          50,
          50,
          50,
          50,
          50,
          50,
          50,
          50,
          50,
          50,
          50,
          50,
          50,
          50,
          50,
          50,
          50,
          50,
          50,
          50,
          50,
          50,
          50,
          50,
          50,
          50,
          50,
          50,
          50,
          50,
          50,
          50,
          50,
          50,
          50,
          50,
          50,
          50,
          50,
          50,
          50,
          50,
          50,
          50,
          50,
          50,
          50,
          50,
          50,
          50,
          50,
          50,
          50,
          50,
          50,
          50,
          50,
          50,
          50,
          50,
          50,
          50,
          50,
          50,
          50,
          50,
          50,
          50,
          50,
          50,
          50,
          50,
          50,
          50,
          50,
          50,
          50,
          50,
          50,
          50,
          50,
          50,
          50,
          50,
          50,
          50,
          50,
          50,
          50,
          50,
          50,
          50,
          50,
          50,
          50,
          50,
          50,
          50,
          50,
          50,
          50,
          50,
          50,
          50,
          50,
          50,
          50,
          50,
          50,
          50,
          50,
          50,
          50,
          50,
          50,
          50,
          50,
          50,
          50,
          50,
          50,
          50,
          50,
          50,
          50,
          50,
          50,
          50,
          50,
          50,
          50,
          50,
          50,
          50,
          50,
          50,
          50,
          50,
          50,
          50,
          50,
          50,
          50,
          50,
          50,
          50,
          50,
          50,
          50,
          50,
          50,
          50,
          50,
          50,
          50,
          50,
          50,
          50,
          50,
          50,
          50,
          50,
          50,
          50,
          50,
          50,
          50,
          50,
          50,
          50,
          50,
          50,
          50,
          50,
          50,
          50,
          50,
          50,
          50,
          50,
          50,
          50,
          50,
          50,
          50,
          50,
          50,
          50,
          50,
          50,
          50,
          50,
          50,
          50,
          50,
          50,
          50,
          50,
          50,
          50,
          50,
          50,
          50,
          50,
          50,
          50,
          50,
          50,
          50,
          50,
          50,
          50,
          50,
          50,
          50,
          50,
          50,
          50,
          50,
          50,
          50,
          50,
          50,
          50,
          50,
          50,
          50,
          50,
          50,
          50,
          50,
          50,
          50,
          50,
          50,
          50,
          50,
          50,
          50,
          50,
          50,
          50,
          50,
          50,
          50,
          50,
          50,
          50,
          50,
          50,
          50,
          50,
          50,
          50,
          50,
          50,
          50,
          50,
          50,
          50,
          50,
          50,
          50,
          50,
          50,
          50,
          50,
          50,
          50,
          50,
          50,
          50,
          50,
          50,
          50,
          50,
          50,
          50,
          50,
          50,
          50,
          50,
          50,
          50,
          50,
          50,
          50,
          50,
          50,
          50,
          50,
          50,
          50,
          50,
          50,
          50,
          50,
          50,
          50,
          50,
          50,
          50,
          50,
          50,
          50,
          50,
          50,
          50,
          50,
          50,
          50,
          50,
          50,
          50,
          50,
          50,
          50,
          50,
          50,
          50,
          50,
          50,
          50,
          50,
          50,
          50,
          50,
          50,
          50,
          50,
          50,
          50,
          50,
          50,
          50,
          50,
          50,
          50,
          50,
          50,
          50,
          50,
          50,
          50,
          50,
          50,
          50,
          50,
          50,
          50,
          50,
          50,
          50,
          50,
          50,
          50,
          50,
          50,
          50,
          50,
          50,
          50,
          50,
          50,
          50,
          50,
          50,
          50,
          50,
          50,
          50,
          50,
          50,
          50,
          50,
          50,
          50,
          50,
          50,
          50,
          50,
          50,
          50,
          50,
          50,
          50,
          50,
          50,
          50,
          50,
          50,
          50,
          50,
          50,
          50,
          50,
          50,
          50,
          50,
          50,
          50,
          50,
          50,
          50,
          50,
          50,
          50,
          50,
          50,
          50,
          50,
          50,
          50,
          50,
          50,
          50,
          50,
          50,
          50,
          50,
          50,
          50,
          50,
          50,
          50,
          50,
          50,
          50,
          50,
          50,
          50,
          50,
          50,
          50,
          50,
          50,
          50,
          50,
          50,
          50,
          50,
          50,
          50,
          50,
          50,
          50,
          50,
          50,
          50,
          50,
          50,
          50,
          50,
          50,
          50,
          50,
          50,
          50,
          50,
          50,
          50,
          50,
          50,
          50,
          50,
          50,
          50,
          50,
          50,
          50,
          50,
          50,
          50,
          50,
          50,
          50,
          50,
          50,
          50,
          50,
          50,
          50,
          50,
          50,
          50,
          50,
          50,
          50,
          50,
          50,
          50,
          50,
          50,
          50,
          50,
          50,
          50,
          50,
          50,
          50,
          50,
          50,
          50,
          50,
          50,
          50,
          50,
          50,
          50,
          50,
          50,
          50,
          50,
          50,
          50,
          50,
          50,
          50,
          50,
          50,
          50,
          50,
          50,
          50,
          50,
          50,
          50,
          50,
          50,
          50,
          50,
          50,
          50,
          50,
          50,
          50,
          50,
          50,
          50,
          50,
          50,
          50,
          50,
          50,
          50,
          50,
          50,
          50,
          50,
          50,
          50,
          50,
          50,
          50,
          50,
          50,
          50,
          50,
          50,
          50,
          50,
          50,
          50,
          50,
          50,
          50,
          50,
          50,
          50,
          50,
          50,
          50,
          50,
          50,
          50,
          50,
          50,
          50,
          50,
          50,
          50,
          50,
          50,
          50,
          50,
          50,
          50,
          50,
          50,
          50,
          50,
          50,
          50,
          50,
          50,
          50,
          50,
          50,
          50,
          50,
          50,
          50,
          50,
          50,
          50,
          50,
          50,
          50,
          50,
          50,
          50,
          50,
          50,
          50,
          50,
          50,
          50,
          50,
          50,
          50,
          50,
          50,
          50,
          50,
          50,
          50,
          50,
          50,
          50,
          50,
          50,
          50,
          50,
          50,
          50,
          50,
          50,
          50,
          50,
          50,
          50,
          50,
          50,
          50,
          50,
          50,
          50,
          50,
          50,
          50,
          50,
          50,
          50,
          50,
          50,
          50,
          50,
          50,
          50,
          50,
          50,
          50,
          50,
          50,
          50,
          50,
          50,
          50,
          50,
          50,
          50,
          50,
          50,
          50,
          50,
          50,
          50,
          50,
          50,
          50,
          50,
          50,
          50,
          50,
          50,
          50,
          50,
          50,
          50,
          50,
          50,
          50,
          50,
          50,
          50,
          50,
          50,
          50,
          50,
          50,
          50,
          50,
          50,
          50,
          50,
          50,
          50,
          50,
          50,
          50,
          50,
          50,
          50,
          50,
          50,
          50,
          50,
          50,
          50,
          50,
          50,
          50,
          50,
          50,
          50,
          50,
          50,
          50,
          50,
          50,
          50,
          50,
          50,
          50,
          50,
          50,
          50,
          50,
          50,
          50,
          50,
          50,
          50,
          50,
          50,
          50,
          50,
          50,
          50,
          50,
          50,
          50,
          50,
          50,
          50,
          50,
          50,
          50,
          50,
          50,
          50,
          50,
          50,
          50,
          50,
          50,
          50,
          50,
          50,
          50,
          50,
          50,
          50,
          50,
          50,
          50,
          50,
          50,
          50,
          50,
          50,
          50,
          50,
          50,
          50,
          50,
          50,
          50,
          50,
          50,
          50,
          50,
          50,
          50,
          50,
          50,
          50,
          50,
          50,
          50,
          50,
          50,
          50,
          50,
          50,
          50,
          50,
          50,
          50,
          50,
          50,
          50,
          50,
          50,
          50,
          50,
          50,
          50,
          50,
          50,
          50,
          50,
          50,
          50,
          50,
          50,
          50,
          50,
          50,
          50,
          50,
          50,
          50,
          50,
          50,
          50,
          50,
          50,
          50,
          50,
          50,
          50,
          50,
          50,
          50,
          50,
          50,
          50,
          50,
          50,
          50,
          50,
          50,
          50,
          50,
          50,
          50,
          50,
          50,
          50,
          50,
          50,
          50,
          50,
          50,
          50,
          50,
          50,
          50,
          50,
          50,
          50,
          50,
          50,
          50,
          50,
          50,
          50,
          50,
          50,
          50,
          50,
          50,
          50,
          50,
          50,
          50,
          50,
          50,
          50,
          50,
          50,
          50,
          50,
          50,
          50,
          50,
          50,
          50,
          50,
          50,
          50,
          50,
          50,
          50,
          50,
          50,
          50,
          50,
          50,
          50,
          50,
          50,
          50,
          50,
          50,
          50,
          50,
          50,
          50,
          50,
          50,
          50,
          50,
          50,
          50,
          50,
          50,
          50,
          50,
          50,
          50,
          50,
          50,
          50,
          50,
          50,
          50,
          50,
          50,
          50,
          50,
          50,
          50,
          50,
          50,
          50,
          50,
          50,
          50,
          50,
          50,
          50,
          50,
          50,
          50,
          50,
          50,
          50,
          50,
          50,
          50,
          50,
          50,
          50,
          50,
          50,
          50,
          50,
          50,
          50,
          50,
          50,
          50,
          50,
          50,
          50,
          50,
          50,
          50,
          50,
          50,
          50,
          50,
          50,
          50,
          50,
          50,
          50,
          50,
          50,
          50,
          50,
          50,
          50,
          50,
          50,
          50,
          50,
          50,
          50,
          50,
          50,
          50,
          50,
          50,
          50,
          50,
          50,
          50,
          50,
          50,
          50,
          50,
          50,
          50,
          50,
          50,
          50,
          50,
          50,
          50,
          50,
          50,
          50,
          50,
          50,
          50,
          50,
          50,
          50,
          50,
          50,
          50,
          50,
          50,
          50,
          50,
          50,
          50,
          50,
          50,
          50,
          50,
          50,
          50,
          50,
          50,
          50,
          50,
          50,
          50,
          50,
          50,
          50,
          50,
          50,
          50,
          50,
          50,
          50,
          50,
          50,
          50,
          50,
          50,
          50,
          50,
          50,
          50,
          50,
          50,
          50,
          50,
          50,
          50,
          50,
          50,
          50,
          50,
          50,
          50,
          50,
          50,
          50,
          50,
          50,
          50,
          50,
          50,
          50,
          50,
          50,
          50,
          50,
          50,
          50,
          50,
          50,
          50,
          50,
          50,
          50,
          50,
          50,
          50,
          50,
          50,
          50,
          50,
          50,
          50,
          50,
          50,
          50,
          50,
          50,
          50,
          50,
          50,
          50,
          50,
          50,
          50,
          50,
          50,
          50,
          50,
          50,
          50,
          50,
          50,
          50,
          50,
          50,
          50,
          50,
          50,
          50,
          50,
          50,
          50,
          50,
          50,
          50,
          50,
          50,
          50,
          50,
          50,
          50,
          50,
          50,
          50,
          50,
          50,
          50,
          50,
          50,
          50,
          50,
          50,
          50,
          50,
          50,
          50,
          50,
          50,
          50,
          50,
          50,
          50,
          50,
          50,
          50,
          50,
          50,
          50,
          50,
          50,
          50,
          50,
          50,
          50,
          50,
          50,
          50,
          50,
          50,
          50,
          50,
          50,
          50,
          50,
          50,
          50,
          50,
          50,
          50,
          50,
          50,
          50,
          50,
          50,
          50,
          50,
          50,
          50,
          50,
          50,
          50,
          50,
          50,
          50,
          50,
          50,
          50,
          50,
          50,
          50,
          50,
          50,
          50,
          50,
          50,
          50,
          50,
          50,
          50,
          50,
          50,
          50,
          50,
          50,
          50,
          50,
          50,
          50,
          50,
          50,
          50,
          50,
          50,
          50,
          50,
          50,
          50,
          50,
          50,
          50,
          50,
          50,
          50,
          50,
          50,
          50,
          50,
          50,
          50,
          50,
          50,
          50,
          50,
          50,
          50,
          50,
          50,
          50,
          50,
          50,
          50,
          50,
          50,
          50,
          50,
          50,
          50,
          50,
          50,
          50,
          50,
          50,
          50,
          50,
          50,
          50,
          50,
          50,
          50,
          50,
          50,
          50,
          50,
          50,
          50,
          50,
          50,
          50,
          50,
          50,
          50,
          50,
          50,
          50,
          50,
          50,
          50,
          50,
          50,
          50,
          50,
          50,
          50,
          50,
          50,
          50,
          50,
          50,
          50,
          50,
          50,
          50,
          50,
          50,
          50,
          50,
          50,
          50,
          50,
          50,
          50,
          50,
          50,
          50,
          50,
          50,
          50,
          50,
          50,
          50,
          50,
          50,
          50,
          50,
          50,
          50,
          50,
          50,
          50,
          50,
          50,
          50,
          50,
          50,
          50,
          50,
          50,
          50,
          50,
          50,
          50,
          50,
          50,
          50,
          50,
          50,
          50,
          50,
          50,
          50,
          50,
          50,
          50,
          50,
          50,
          50,
          50,
          50,
          50,
          50,
          50,
          50,
          50,
          50,
          50,
          50,
          50,
          50,
          50,
          50,
          50,
          50,
          50,
          50,
          50,
          50,
          50,
          50,
          50,
          50,
          50,
          50,
          50,
          50,
          50,
          50,
          50,
          50,
          50,
          50,
          50,
          50,
          50,
          50,
          50,
          50,
          50,
          50,
          50,
          50,
          50,
          50,
          50,
          50,
          50,
          50,
          50,
          50,
          50,
          50,
          50,
          50,
          50,
          50,
          50,
          50,
          50,
          50,
          50,
          50,
          50,
          50,
          50,
          50,
          50,
          50,
          50,
          50,
          50,
          50,
          50,
          50,
          50,
          50,
          50,
          50,
          50,
          50,
          50,
          50,
          50,
          50,
          50,
          50,
          50,
          50,
          50,
          50,
          50,
          50,
          50,
          50,
          50,
          50,
          50,
          50,
          50,
          50,
          50,
          50,
          50,
          50,
          50,
          50,
          50,
          50,
          50,
          50,
          50,
          50,
          50,
          50,
          50,
          50,
          50,
          50,
          50,
          50,
          50,
          50,
          50,
          50,
          50,
          50,
          50,
          50,
          50,
          50,
          50,
          50,
          50,
          50,
          50,
          50,
          50,
          50,
          50,
          50,
          50,
          50,
          50,
          50,
          50,
          50,
          50,
          50,
          50,
          50,
          50,
          50,
          50,
          50,
          50,
          50,
          50,
          50,
          50,
          50,
          50,
          50,
          50,
          50,
          50,
          50,
          50,
          50,
          50,
          50,
          50,
          50,
          50,
          50,
          50,
          50,
          50,
          50,
          50,
          50,
          50,
          50,
          50,
          50,
          50,
          50,
          50,
          50,
          50,
          50,
          50,
          50,
          50,
          50,
          50,
          50,
          50,
          50,
          50,
          50,
          50,
          50,
          50,
          50,
          50,
          50,
          50,
          50,
          50,
          50,
          50,
          50,
          50,
          50,
          50,
          50,
          50,
          50,
          50,
          50,
          50,
          50,
          50,
          50,
          50,
          50,
          50,
          50,
          50,
          50,
          50,
          50,
          50,
          50,
          50,
          50,
          50,
          50,
          50,
          50,
          50,
          50,
          50,
          50,
          50,
          50,
          50,
          50,
          50,
          50,
          50,
          50,
          50,
          50,
          50,
          50,
          50,
          50,
          50,
          50,
          50,
          50,
          50,
          50,
          50,
          50,
          50,
          50,
          50,
          50,
          50,
          50,
          50,
          50,
          50,
          50,
          50,
          50,
          50,
          50,
          50,
          50,
          50,
          50,
          50,
          50,
          50,
          50,
          50,
          50,
          50,
          50,
          50,
          50,
          50,
          50,
          50,
          50,
          50,
          50,
          50,
          50,
          50,
          50,
          50,
          50,
          50,
          50,
          50,
          50,
          50,
          50,
          50,
          50,
          50,
          50,
          50,
          50,
          50,
          50,
          50,
          50,
          50,
          50,
          50,
          50,
          50,
          50,
          50,
          50,
          50,
          50,
          50,
          50,
          50,
          50,
          50,
          50,
          50,
          50,
          50,
          50,
          50,
          50,
          50,
          50,
          50,
          50,
          50,
          50,
          50,
          50,
          50,
          50,
          50,
          50,
          50,
          50,
          50,
          50,
          50,
          50,
          50,
          50,
          50,
          50
        ],
        "sequences": [
          16,
          16,
          16,
          16,
          16,
          16,
          16,
          16,
          16,
          16,
          16,
          16,
          16,
          16,
          16,
          16,
          16,
          16,
          16,
          16,
          16,
          16,
          16,
          16,
          16,
          16,
          16,
          16,
          16,
          16,
          16,
          16
        ],
        "phrase2": [
          0,
          0,
          0,
          0,
          0,
          0,
          0,
          0,
          0,
          0,
          0,
          0,
          0,
          0,
          0,
          0,
          0,
          0,
          0,
          0,
          0,
          0,
          0,
          0,
          0,
          0,
          0,
          0,
          0,
          0,
          0,
          0,
          0,
          0,
          0,
          0,
          0,
          0,
          0,
          0,
          0,
          0,
          0,
          0,
          0,
          0,
          0,
          0,
          0,
          0,
          0,
          0,
          0,
          0,
          0,
          0,
          0,
          0,
          0,
          0,
          0,
          0,
          0,
          0
        ],
        "resetOnRun": false,
        "stopAtEndOfSong": false,
        "lock": false
      },
      "pos": [
        12,
        1
      ]
    },
    {
      "id": 135,
      "plugin": "DrumKit",
      "version": "1.1.4",
      "model": "Gnome",
      "params": [
        {
          "id": 0,
          "value": 149.680023
        },
        {
          "id": 1,
          "value": 0.349999994
        },
        {
          "id": 2,
          "value": 0.0
        },
        {
          "id": 3,
          "value": 0.0
        }
      ],
      "rightModuleId": 158,
      "data": {
        "running": false
      },
      "pos": [
        0,
        1
      ]
    },
    {
      "id": 136,
      "plugin": "Fundamental",
      "version": "1.4.0",
      "model": "Merge",
      "params": [],
      "leftModuleId": 134,
      "rightModuleId": 133,
      "data": {
        "channels": -1
      },
      "pos": [
        36,
        1
      ]
    },
    {
      "id": 140,
      "plugin": "VultModulesFree",
      "version": "1.16",
      "model": "Basal",
      "params": [
        {
          "id": 0,
          "value": 0.0
        },
        {
          "id": 1,
          "value": -0.230999917
        },
        {
          "id": 2,
          "value": 0.276999027
        },
        {
          "id": 3,
          "value": 0.0
        },
        {
          "id": 4,
          "value": 0.29850021
        },
        {
          "id": 5,
          "value": 0.0
        }
      ],
      "leftModuleId": 172,
      "rightModuleId": 151,
      "pos": [
        50,
        2
      ]
    },
    {
      "id": 141,
      "plugin": "Bogaudio",
      "version": "1.1.37",
      "model": "Bogaudio-Mix8",
      "params": [
        {
          "id": 0,
          "value": 0.909090936
        },
        {
          "id": 1,
          "value": 0.0
        },
        {
          "id": 2,
          "value": -0.333000124
        },
        {
          "id": 3,
          "value": 0.909090936
        },
        {
          "id": 4,
          "value": 0.0
        },
        {
          "id": 5,
          "value": 0.344999999
        },
        {
          "id": 6,
          "value": 0.909090936
        },
        {
          "id": 7,
          "value": 0.0
        },
        {
          "id": 8,
          "value": 0.0
        },
        {
          "id": 9,
          "value": 0.909090936
        },
        {
          "id": 10,
          "value": 0.0
        },
        {
          "id": 11,
          "value": -0.714000046
        },
        {
          "id": 12,
          "value": 0.909090936
        },
        {
          "id": 13,
          "value": 0.0
        },
        {
          "id": 14,
          "value": 0.656999946
        },
        {
          "id": 15,
          "value": 0.913590968
        },
        {
          "id": 16,
          "value": 0.0
        },
        {
          "id": 17,
          "value": 0.0
        },
        {
          "id": 18,
          "value": 0.909090936
        },
        {
          "id": 19,
          "value": 0.0
        },
        {
          "id": 20,
          "value": 0.0
        },
        {
          "id": 21,
          "value": 0.909090936
        },
        {
          "id": 22,
          "value": 1.0
        },
        {
          "id": 23,
          "value": 0.0
        },
        {
          "id": 24,
          "value": 0.894090891
        },
        {
          "id": 25,
          "value": 0.0
        },
        {
          "id": 26,
          "value": 0.0
        }
      ],
      "leftModuleId": 157,
      "rightModuleId": 142,
      "data": {
        "dim_decibels": 12.0,
        "poly_channel_offset": -1
      },
      "pos": [
        63,
        1
      ]
    },
    {
      "id": 142,
      "plugin": "Core",
      "version": "1.1.6",
      "model": "AudioInterface",
      "params": [],
      "leftModuleId": 141,
      "data": {
        "audio": {
          "driver": 4,
          "deviceName": "system",
          "offset": 0,
          "maxChannels": 8,
          "sampleRate": 44100,
          "blockSize": 2048
        }
      },
      "pos": [
        90,
        1
      ]
    },
    {
      "id": 143,
      "plugin": "Fundamental",
      "version": "1.4.0",
      "model": "Merge",
      "params": [],
      "leftModuleId": 145,
      "data": {
        "channels": -1
      },
      "pos": [
        22,
        2
      ]
    },
    {
      "id": 144,
      "plugin": "Fundamental",
      "version": "1.4.0",
      "model": "Split",
      "params": [],
      "leftModuleId": 151,
      "rightModuleId": 147,
      "pos": [
        64,
        2
      ]
    },
    {
      "id": 145,
      "plugin": "Fundamental",
      "version": "1.4.0",
      "model": "SEQ3",
      "params": [
        {
          "id": 0,
          "value": 2.0
        },
        {
          "id": 1,
          "value": 0.0
        },
        {
          "id": 2,
          "value": 0.0
        },
        {
          "id": 3,
          "value": 7.0
        },
        {
          "id": 4,
          "value": 0.37500003
        },
        {
          "id": 5,
          "value": 0.0
        },
        {
          "id": 6,
          "value": 0.675000012
        },
        {
          "id": 7,
          "value": 0.0
        },
        {
          "id": 8,
          "value": 0.585000038
        },
        {
          "id": 9,
          "value": 0.0
        },
        {
          "id": 10,
          "value": 1.01999998
        },
        {
          "id": 11,
          "value": 0.0
        },
        {
          "id": 12,
          "value": 0.0
        },
        {
          "id": 13,
          "value": 0.960000098
        },
        {
          "id": 14,
          "value": 0.0
        },
        {
          "id": 15,
          "value": 1.57500005
        },
        {
          "id": 16,
          "value": 0.0
        },
        {
          "id": 17,
          "value": 0.855000019
        },
        {
          "id": 18,
          "value": 0.0
        },
        {
          "id": 19,
          "value": 0.0
        },
        {
          "id": 20,
          "value": 0.0
        },
        {
          "id": 21,
          "value": 0.345000029
        },
        {
          "id": 22,
          "value": 2.68499994
        },
        {
          "id": 23,
          "value": 0.0
        },
        {
          "id": 24,
          "value": 0.210000008
        },
        {
          "id": 25,
          "value": 3.01500082
        },
        {
          "id": 26,
          "value": 0.0
        },
        {
          "id": 27,
          "value": 0.0
        },
        {
          "id": 28,
          "value": 0.0
        },
        {
          "id": 29,
          "value": 0.0
        },
        {
          "id": 30,
          "value": 0.0
        },
        {
          "id": 31,
          "value": 0.0
        },
        {
          "id": 32,
          "value": 0.0
        },
        {
          "id": 33,
          "value": 0.0
        },
        {
          "id": 34,
          "value": 0.0
        },
        {
          "id": 35,
          "value": 0.0
        }
      ],
      "rightModuleId": 143,
      "data": {
        "running": true,
        "gates": [
          1,
          1,
          0,
          1,
          1,
          1,
          1,
          1
        ]
      },
      "pos": [
        0,
        2
      ]
    },
    {
      "id": 146,
      "plugin": "CountModula",
      "version": "1.14.0",
      "model": "SampleAndHold",
      "params": [
        {
          "id": 0,
          "value": 1.0
        }
      ],
      "rightModuleId": 159,
      "data": {
        "moduleVersion": 3,
        "theme": 0
      },
      "pos": [
        40,
        2
      ]
    },
    {
      "id": 147,
      "plugin": "ML_modules",
      "version": "1.1.3",
      "model": "Sum8",
      "params": [],
      "leftModuleId": 144,
      "pos": [
        69,
        2
      ]
    },
    {
      "id": 151,
      "plugin": "ML_modules",
      "version": "1.1.3",
      "model": "Quantum",
      "params": [
        {
          "id": 0,
          "value": 0.0
        },
        {
          "id": 1,
          "value": 0.0
        },
        {
          "id": 2,
          "value": 0.0
        },
        {
          "id": 3,
          "value": 0.0
        },
        {
          "id": 4,
          "value": 0.0
        },
        {
          "id": 5,
          "value": 0.0
        },
        {
          "id": 6,
          "value": 0.0
        },
        {
          "id": 7,
          "value": 0.0
        },
        {
          "id": 8,
          "value": 0.0
        },
        {
          "id": 9,
          "value": 0.0
        },
        {
          "id": 10,
          "value": 0.0
        },
        {
          "id": 11,
          "value": 0.0
        }
      ],
      "leftModuleId": 140,
      "rightModuleId": 144,
      "data": {
        "scale": [
          1,
          0,
          1,
          0,
          0,
          1,
          0,
          0,
          1,
          0,
          1,
          0
        ],
        "mode": 1,
        "transpose_select": 1,
        "toggle_mode": 1
      },
      "pos": [
        56,
        2
      ]
    },
    {
      "id": 152,
      "plugin": "Befaco",
      "version": "1.0.1",
      "model": "DualAtenuverter",
      "params": [
        {
          "id": 0,
          "value": 0.22499983
        },
        {
          "id": 1,
          "value": 1.77000451
        },
        {
          "id": 2,
          "value": -0.277500063
        },
        {
          "id": 3,
          "value": 0.720001221
        }
      ],
      "leftModuleId": 133,
      "rightModuleId": 153,
      "pos": [
        51,
        1
      ]
    },
    {
      "id": 153,
      "plugin": "CountModula",
      "version": "1.14.0",
      "model": "Attenuator",
      "params": [
        {
          "id": 0,
          "value": 0.310000062
        },
        {
          "id": 1,
          "value": 0.0
        },
        {
          "id": 2,
          "value": 0.714000106
        }
      ],
      "leftModuleId": 152,
      "rightModuleId": 157,
      "data": {
        "moduleVersion": 2,
        "theme": 0
      },
      "pos": [
        56,
        1
      ]
    },
    {
      "id": 157,
      "plugin": "Fundamental",
      "version": "1.4.0",
      "model": "SequentialSwitch2",
      "params": [
        {
          "id": 0,
          "value": 0.0
        }
      ],
      "leftModuleId": 153,
      "rightModuleId": 141,
      "pos": [
        60,
        1
      ]
    },
    {
      "id": 158,
      "plugin": "SynthKit",
      "version": "1.0.1",
      "model": "ClockDivider",
      "params": [],
      "leftModuleId": 135,
      "rightModuleId": 134,
      "pos": [
        9,
        1
      ]
    },
    {
      "id": 159,
      "plugin": "Bogaudio",
      "version": "1.1.37",
      "model": "Bogaudio-Slew",
      "params": [
        {
          "id": 0,
          "value": 0.626730025
        },
        {
          "id": 1,
          "value": 0.0
        },
        {
          "id": 2,
          "value": 0.605729997
        },
        {
          "id": 3,
          "value": 0.0
        },
        {
          "id": 4,
          "value": 0.0
        }
      ],
      "leftModuleId": 146,
      "rightModuleId": 172,
      "data": {},
      "pos": [
        44,
        2
      ]
    },
    {
      "id": 163,
      "plugin": "Fundamental",
      "version": "1.4.0",
      "model": "Split",
      "params": [],
      "rightModuleId": 175,
      "pos": [
        82,
        2
      ]
    },
    {
      "id": 172,
      "plugin": "Bogaudio",
      "version": "1.1.37",
      "model": "Bogaudio-LLFO",
      "params": [
        {
          "id": 0,
          "value": 3.37349892
        },
        {
          "id": 1,
          "value": 1.0
        },
        {
          "id": 2,
          "value": 0.0
        },
        {
          "id": 3,
          "value": 0.314999968
        },
        {
          "id": 4,
          "value": 0.639999628
        }
      ],
      "leftModuleId": 159,
      "rightModuleId": 140,
      "data": {
        "output_sampling": 0.0,
        "pulse_width": -0.851063788,
        "smoothing": 0.0
      },
      "pos": [
        47,
        2
      ]
    },
    {
      "id": 174,
      "plugin": "VultModulesFree",
      "version": "1.16",
      "model": "Basal",
      "params": [
        {
          "id": 0,
          "value": 0.0
        },
        {
          "id": 1,
          "value": -0.230999917
        },
        {
          "id": 2,
          "value": 0.272500068
        },
        {
          "id": 3,
          "value": 0.0
        },
        {
          "id": 4,
          "value": 0.251999706
        },
        {
          "id": 5,
          "value": 0.0
        }
      ],
      "pos": [
        73,
        2
      ]
    },
    {
      "id": 175,
      "plugin": "Fundamental",
      "version": "1.4.0",
      "model": "Split",
      "params": [],
      "leftModuleId": 163,
      "rightModuleId": 177,
      "pos": [
        87,
        2
      ]
    },
    {
      "id": 177,
      "plugin": "NYSTHI",
      "version": "1.0.17",
      "model": "Ambuance",
      "params": [
        {
          "id": 0,
          "value": 0.0
        },
        {
          "id": 1,
          "value": 0.0
        },
        {
          "id": 2,
          "value": 0.724999905
        },
        {
          "id": 3,
          "value": 18.342392
        },
        {
          "id": 4,
          "value": 12.6562462
        },
        {
          "id": 5,
          "value": 0.669500053
        },
        {
          "id": 6,
          "value": 0.100000001
        },
        {
          "id": 7,
          "value": -11.0
        },
        {
          "id": 8,
          "value": -9.0
        },
        {
          "id": 9,
          "value": 0.0
        },
        {
          "id": 10,
          "value": 0.0
        },
        {
          "id": 11,
          "value": 0.0
        },
        {
          "id": 12,
          "value": 0.0
        },
        {
          "id": 13,
          "value": 0.0
        },
        {
          "id": 14,
          "value": 0.0
        },
        {
          "id": 15,
          "value": 0.0
        },
        {
          "id": 16,
          "value": 0.0
        },
        {
          "id": 17,
          "value": 0.0
        },
        {
          "id": 18,
          "value": 0.0
        },
        {
          "id": 19,
          "value": 0.0
        },
        {
          "id": 20,
          "value": 0.0
        }
      ],
      "leftModuleId": 175,
      "data": {
        "m_revonrev": false,
        "m_bypass": false,
        "m_subtract_from_wet": false
      },
      "pos": [
        92,
        2
      ]
    },
    {
      "id": 178,
      "plugin": "AudibleInstruments",
      "version": "1.5.0",
      "model": "Braids",
      "params": [
        {
          "id": 0,
          "value": 0.0
        },
        {
          "id": 1,
          "value": -1.52800095
        },
        {
          "id": 2,
          "value": 0.0
        },
        {
          "id": 3,
          "value": 0.169999927
        },
        {
          "id": 4,
          "value": 0.0
        },
        {
          "id": 5,
          "value": 0.290500075
        },
        {
          "id": 6,
          "value": 0.792001188
        }
      ],
      "leftModuleId": 179,
      "data": {
        "settings": [
          36,
          0,
          0,
          0,
          0,
          0,
          0,
          0,
          0,
          0,
          0,
          0,
          0,
          0,
          0,
          0,
          0,
          0,
          0,
          0
        ],
        "lowCpu": false
      },
      "pos": [
        45,
        3
      ]
    },
    {
      "id": 179,
      "plugin": "AudibleInstruments",
      "version": "1.5.0",
      "model": "Braids",
      "params": [
        {
          "id": 0,
          "value": 0.0
        },
        {
          "id": 1,
          "value": -2.81200147
        },
        {
          "id": 2,
          "value": 0.0
        },
        {
          "id": 3,
          "value": 0.169999927
        },
        {
          "id": 4,
          "value": 0.0
        },
        {
          "id": 5,
          "value": 0.589343846
        },
        {
          "id": 6,
          "value": 0.733501077
        }
      ],
      "rightModuleId": 178,
      "data": {
        "settings": [
          34,
          0,
          0,
          0,
          0,
          0,
          0,
          0,
          0,
          0,
          0,
          0,
          0,
          0,
          0,
          0,
          0,
          0,
          0,
          0
        ],
        "lowCpu": false
      },
      "pos": [
        29,
        3
      ]
    },
    {
      "id": 181,
      "plugin": "NYSTHI",
      "version": "1.0.17",
      "model": "PolyRecorder",
      "params": [
        {
          "id": 0,
          "value": 0.0
        },
        {
          "id": 1,
          "value": 0.0
        },
        {
          "id": 2,
          "value": 0.0
        }
      ],
      "rightModuleId": 185,
      "data": {
        "wavebits": 9,
        "m_attenuation": 0.5,
        "m_raw_pcm_float": 0.0,
        "m_autoenumeratefiles": true,
        "m_must_consolidate": false,
        "m_separated_stems": true,
        "m_separated_stems_in_dir": false,
        "m_separated_stems_are_stereo": false,
        "m_use_start_as_startstop_toggle": true
      },
      "pos": [
        43,
        0
      ]
    },
    {
      "id": 184,
      "plugin": "Bogaudio",
      "version": "1.1.37",
      "model": "Bogaudio-Manual",
      "params": [
        {
          "id": 0,
          "value": 0.0
        }
      ],
      "data": {
        "triggerOnLoad": false,
        "shouldTriggerOnLoad": true,
        "output_scale": 1.0
      },
      "pos": [
        20,
        0
      ]
    },
    {
      "id": 185,
      "plugin": "23volts",
      "version": "1.1.5",
      "model": "Merge8",
      "params": [],
      "leftModuleId": 181,
      "data": {
        "channels": -1
      },
      "pos": [
        51,
        0
      ]
    }
  ],
  "cables": [
    {
      "id": 216,
      "outputModuleId": 134,
      "outputId": 0,
      "inputModuleId": 136,
      "inputId": 0,
      "color": "#c91847"
    },
    {
      "id": 217,
      "outputModuleId": 134,
      "outputId": 1,
      "inputModuleId": 136,
      "inputId": 1,
      "color": "#0986ad"
    },
    {
      "id": 218,
      "outputModuleId": 134,
      "outputId": 2,
      "inputModuleId": 136,
      "inputId": 2,
      "color": "#c9b70e"
    },
    {
      "id": 219,
      "outputModuleId": 134,
      "outputId": 3,
      "inputModuleId": 136,
      "inputId": 3,
      "color": "#0c8e15"
    },
    {
      "id": 220,
      "outputModuleId": 136,
      "outputId": 0,
      "inputModuleId": 133,
      "inputId": 0,
      "color": "#c91847"
    },
    {
      "id": 228,
      "outputModuleId": 141,
      "outputId": 0,
      "inputModuleId": 142,
      "inputId": 0,
      "color": "#0986ad"
    },
    {
      "id": 229,
      "outputModuleId": 141,
      "outputId": 1,
      "inputModuleId": 142,
      "inputId": 1,
      "color": "#c9b70e"
    },
    {
      "id": 239,
      "outputModuleId": 145,
      "outputId": 1,
      "inputModuleId": 143,
      "inputId": 0,
      "color": "#c9b70e"
    },
    {
      "id": 240,
      "outputModuleId": 145,
      "outputId": 2,
      "inputModuleId": 143,
      "inputId": 1,
      "color": "#0c8e15"
    },
    {
      "id": 241,
      "outputModuleId": 145,
      "outputId": 3,
      "inputModuleId": 143,
      "inputId": 2,
      "color": "#c91847"
    },
    {
      "id": 227,
      "outputModuleId": 140,
      "outputId": 0,
      "inputModuleId": 133,
      "inputId": 5,
      "color": "#0c8e15"
    },
    {
      "id": 245,
      "outputModuleId": 144,
      "outputId": 2,
      "inputModuleId": 141,
      "inputId": 8,
      "color": "#c91847"
    },
    {
      "id": 257,
      "outputModuleId": 151,
      "outputId": 0,
      "inputModuleId": 140,
      "inputId": 0,
      "color": "#c9b70e"
    },
    {
      "id": 265,
      "outputModuleId": 133,
      "outputId": 0,
      "inputModuleId": 152,
      "inputId": 0,
      "color": "#c91847"
    },
    {
      "id": 272,
      "outputModuleId": 135,
      "outputId": 2,
      "inputModuleId": 145,
      "inputId": 1,
      "color": "#c9b70e"
    },
    {
      "id": 278,
      "outputModuleId": 135,
      "outputId": 3,
      "inputModuleId": 134,
      "inputId": 0,
      "color": "#0c8e15"
    },
    {
      "id": 277,
      "outputModuleId": 153,
      "outputId": 0,
      "inputModuleId": 157,
      "inputId": 2,
      "color": "#c9b70e"
    },
    {
      "id": 280,
      "outputModuleId": 152,
      "outputId": 0,
      "inputModuleId": 157,
      "inputId": 3,
      "color": "#c9b70e"
    },
    {
      "id": 282,
      "outputModuleId": 135,
      "outputId": 0,
      "inputModuleId": 158,
      "inputId": 0,
      "color": "#c91847"
    },
    {
      "id": 283,
      "outputModuleId": 158,
      "outputId": 7,
      "inputModuleId": 157,
      "inputId": 0,
      "color": "#0986ad"
    },
    {
      "id": 279,
      "outputModuleId": 135,
      "outputId": 3,
      "inputModuleId": 146,
      "inputId": 1,
      "color": "#0986ad"
    },
    {
      "id": 288,
      "outputModuleId": 145,
      "outputId": 2,
      "inputModuleId": 157,
      "inputId": 4,
      "color": "#c91847"
    },
    {
      "id": 306,
      "outputModuleId": 163,
      "outputId": 0,
      "inputModuleId": 141,
      "inputId": 11,
      "color": "#c9b70e"
    },
    {
      "id": 327,
      "outputModuleId": 172,
      "outputId": 0,
      "inputModuleId": 159,
      "inputId": 1,
      "color": "#c9b70e"
    },
    {
      "id": 243,
      "outputModuleId": 133,
      "outputId": 0,
      "inputModuleId": 144,
      "inputId": 0,
      "color": "#c9b70e"
    },
    {
      "id": 258,
      "outputModuleId": 147,
      "outputId": 0,
      "inputModuleId": 151,
      "inputId": 0,
      "color": "#0c8e15"
    },
    {
      "id": 260,
      "outputModuleId": 146,
      "outputId": 1,
      "inputModuleId": 133,
      "inputId": 4,
      "color": "#0986ad"
    },
    {
      "id": 328,
      "outputModuleId": 172,
      "outputId": 0,
      "inputModuleId": 159,
      "inputId": 0,
      "color": "#0c8e15"
    },
    {
      "id": 331,
      "outputModuleId": 146,
      "outputId": 0,
      "inputModuleId": 147,
      "inputId": 1,
      "color": "#c9b70e"
    },
    {
      "id": 286,
      "outputModuleId": 159,
      "outputId": 0,
      "inputModuleId": 147,
      "inputId": 0,
      "color": "#c9b70e"
    },
    {
      "id": 281,
      "outputModuleId": 157,
      "outputId": 0,
      "inputModuleId": 146,
      "inputId": 0,
      "color": "#0c8e15"
    },
    {
      "id": 246,
      "outputModuleId": 133,
      "outputId": 0,
      "inputModuleId": 153,
      "inputId": 0,
      "color": "#0986ad"
    },
    {
      "id": 333,
      "outputModuleId": 146,
      "outputId": 0,
      "inputModuleId": 153,
      "inputId": 1,
      "color": "#c91847"
    },
    {
      "id": 334,
      "outputModuleId": 153,
      "outputId": 1,
      "inputModuleId": 157,
      "inputId": 5,
      "color": "#0986ad"
    },
    {
      "id": 307,
      "outputModuleId": 163,
      "outputId": 1,
      "inputModuleId": 141,
      "inputId": 14,
      "color": "#0c8e15"
    },
    {
      "id": 303,
      "outputModuleId": 174,
      "outputId": 0,
      "inputModuleId": 163,
      "inputId": 0,
      "color": "#c9b70e"
    },
    {
      "id": 339,
      "outputModuleId": 151,
      "outputId": 0,
      "inputModuleId": 174,
      "inputId": 0,
      "color": "#c9b70e"
    },
    {
      "id": 343,
      "outputModuleId": 133,
      "outputId": 1,
      "inputModuleId": 175,
      "inputId": 0,
      "color": "#c9b70e"
    },
    {
      "id": 345,
      "outputModuleId": 175,
      "outputId": 0,
      "inputModuleId": 141,
      "inputId": 12,
      "color": "#c91847"
    },
    {
      "id": 344,
      "outputModuleId": 175,
      "outputId": 1,
      "inputModuleId": 141,
      "inputId": 9,
      "color": "#0c8e15"
    },
    {
      "id": 330,
      "outputModuleId": 143,
      "outputId": 0,
      "inputModuleId": 159,
      "inputId": 2,
      "color": "#0c8e15"
    },
    {
      "id": 236,
      "outputModuleId": 144,
      "outputId": 0,
      "inputModuleId": 177,
      "inputId": 0,
      "color": "#0986ad"
    },
    {
      "id": 346,
      "outputModuleId": 177,
      "outputId": 0,
      "inputModuleId": 141,
      "inputId": 2,
      "color": "#c9b70e"
    },
    {
      "id": 242,
      "outputModuleId": 144,
      "outputId": 1,
      "inputModuleId": 177,
      "inputId": 1,
      "color": "#0986ad"
    },
    {
      "id": 347,
      "outputModuleId": 177,
      "outputId": 1,
      "inputModuleId": 141,
      "inputId": 5,
      "color": "#0c8e15"
    },
    {
      "id": 349,
      "outputModuleId": 178,
      "outputId": 0,
      "inputModuleId": 141,
      "inputId": 17,
      "color": "#0986ad"
    },
    {
      "id": 352,
      "outputModuleId": 179,
      "outputId": 0,
      "inputModuleId": 141,
      "inputId": 20,
      "color": "#c91847"
    },
    {
      "id": 354,
      "outputModuleId": 175,
      "outputId": 2,
      "inputModuleId": 141,
      "inputId": 0,
      "color": "#0c8e15"
    },
    {
      "id": 355,
      "outputModuleId": 175,
      "outputId": 3,
      "inputModuleId": 141,
      "inputId": 3,
      "color": "#c91847"
    },
    {
      "id": 356,
      "outputModuleId": 158,
      "outputId": 1,
      "inputModuleId": 177,
      "inputId": 11,
      "color": "#0986ad"
    },
    {
      "id": 351,
      "outputModuleId": 158,
      "outputId": 0,
      "inputModuleId": 179,
      "inputId": 0,
      "color": "#0c8e15"
    },
    {
      "id": 357,
      "outputModuleId": 158,
      "outputId": 2,
      "inputModuleId": 178,
      "inputId": 0,
      "color": "#c9b70e"
    },
    {
      "id": 358,
      "outputModuleId": 177,
      "outputId": 0,
      "inputModuleId": 185,
      "inputId": 0,
      "color": "#c9b70e"
    },
    {
      "id": 359,
      "outputModuleId": 177,
      "outputId": 1,
      "inputModuleId": 185,
      "inputId": 1,
      "color": "#0c8e15"
    },
    {
      "id": 360,
      "outputModuleId": 144,
      "outputId": 2,
      "inputModuleId": 185,
      "inputId": 2,
      "color": "#c91847"
    },
    {
      "id": 361,
      "outputModuleId": 163,
      "outputId": 0,
      "inputModuleId": 185,
      "inputId": 3,
      "color": "#0986ad"
    },
    {
      "id": 362,
      "outputModuleId": 163,
      "outputId": 1,
      "inputModuleId": 185,
      "inputId": 4,
      "color": "#c9b70e"
    },
    {
      "id": 363,
      "outputModuleId": 178,
      "outputId": 0,
      "inputModuleId": 185,
      "inputId": 5,
      "color": "#0c8e15"
    },
    {
      "id": 364,
      "outputModuleId": 179,
      "outputId": 0,
      "inputModuleId": 185,
      "inputId": 6,
      "color": "#c91847"
    },
    {
      "id": 365,
      "outputModuleId": 185,
      "outputId": 0,
      "inputModuleId": 181,
      "inputId": 0,
      "color": "#0986ad"
    }
  ]
}