{
  "version": "1.1.6",
  "modules": [
    {
      "id": 24,
      "plugin": "ImpromptuModular",
      "version": "1.1.9",
      "model": "Clocked",
      "params": [
        {
          "id": 0,
          "value": 135.0
        },
        {
          "id": 1,
          "value": 5.0
        },
        {
          "id": 2,
          "value": -9.0
        },
        {
          "id": 3,
          "value": -33.0
        },
        {
          "id": 4,
          "value": 0.0
        },
        {
          "id": 5,
          "value": 0.0
        },
        {
          "id": 6,
          "value": 0.0
        },
        {
          "id": 7,
          "value": 0.0
        },
        {
          "id": 8,
          "value": 0.5
        },
        {
          "id": 9,
          "value": 0.5
        },
        {
          "id": 10,
          "value": 0.5
        },
        {
          "id": 11,
          "value": 0.5
        },
        {
          "id": 12,
          "value": 0.0
        },
        {
          "id": 13,
          "value": 0.0
        },
        {
          "id": 14,
          "value": 0.0
        },
        {
          "id": 15,
          "value": 0.0
        },
        {
          "id": 16,
          "value": 0.0
        },
        {
          "id": 17,
          "value": 0.0
        },
        {
          "id": 18,
          "value": 0.0
        },
        {
          "id": 19,
          "value": 0.0
        }
      ],
      "rightModuleId": 114,
      "data": {
        "panelTheme": 1,
        "running": true,
        "displayDelayNoteMode": true,
        "bpmDetectionMode": false,
        "resetOnStartStop": 0,
        "ppqn": 4,
        "resetClockOutputsHigh": true,
        "momentaryRunInput": true,
        "clockMaster": true
      },
      "pos": [
        0,
        1
      ]
    },
    {
      "id": 25,
      "plugin": "Core",
      "version": "1.1.6",
      "model": "AudioInterface",
      "params": [],
      "leftModuleId": 126,
      "rightModuleId": 128,
      "data": {
        "audio": {
          "driver": 4,
          "deviceName": "system",
          "offset": 0,
          "maxChannels": 8,
          "sampleRate": 44100,
          "blockSize": 2048
        }
      },
      "pos": [
        107,
        1
      ]
    },
    {
      "id": 28,
      "plugin": "Valley",
      "version": "1.1.6",
      "model": "Plateau",
      "params": [
        {
          "id": 0,
          "value": 0.0
        },
        {
          "id": 1,
          "value": 1.0
        },
        {
          "id": 2,
          "value": 0.0
        },
        {
          "id": 3,
          "value": 8.66499901
        },
        {
          "id": 4,
          "value": 10.0
        },
        {
          "id": 5,
          "value": 0.5
        },
        {
          "id": 6,
          "value": 10.0
        },
        {
          "id": 7,
          "value": 0.475708216
        },
        {
          "id": 8,
          "value": 10.0
        },
        {
          "id": 9,
          "value": 7.43499994
        },
        {
          "id": 10,
          "value": 0.0
        },
        {
          "id": 11,
          "value": 0.5
        },
        {
          "id": 12,
          "value": 6.38000059
        },
        {
          "id": 13,
          "value": 0.0
        },
        {
          "id": 14,
          "value": 0.0
        },
        {
          "id": 15,
          "value": 0.0
        },
        {
          "id": 16,
          "value": 0.0
        },
        {
          "id": 17,
          "value": 0.0
        },
        {
          "id": 18,
          "value": 0.0
        },
        {
          "id": 19,
          "value": 0.0
        },
        {
          "id": 20,
          "value": 0.0
        },
        {
          "id": 21,
          "value": 0.0
        },
        {
          "id": 22,
          "value": 0.0
        },
        {
          "id": 23,
          "value": 0.0
        },
        {
          "id": 24,
          "value": 0.0
        },
        {
          "id": 25,
          "value": 0.0
        },
        {
          "id": 26,
          "value": 0.0
        },
        {
          "id": 27,
          "value": 0.0
        },
        {
          "id": 28,
          "value": 0.0
        },
        {
          "id": 29,
          "value": 0.0
        },
        {
          "id": 30,
          "value": 1.0
        }
      ],
      "leftModuleId": 115,
      "rightModuleId": 126,
      "data": {
        "frozen": false,
        "freezeToggle": false,
        "panelStyle": 0,
        "tuned": 0,
        "diffuseInput": 1,
        "preDelayCVSens": 0,
        "inputSensitivity": 0,
        "outputSaturation": 0
      },
      "pos": [
        86,
        1
      ]
    },
    {
      "id": 114,
      "plugin": "MindMeldModular",
      "version": "1.1.12",
      "model": "MixMasterJr",
      "params": [
        {
          "id": 0,
          "value": 1.0
        },
        {
          "id": 1,
          "value": 1.0
        },
        {
          "id": 2,
          "value": 1.0
        },
        {
          "id": 3,
          "value": 1.0
        },
        {
          "id": 4,
          "value": 1.0
        },
        {
          "id": 5,
          "value": 1.0
        },
        {
          "id": 6,
          "value": 1.0
        },
        {
          "id": 7,
          "value": 1.0
        },
        {
          "id": 8,
          "value": 1.0
        },
        {
          "id": 9,
          "value": 1.0
        },
        {
          "id": 10,
          "value": 0.5
        },
        {
          "id": 11,
          "value": 0.5
        },
        {
          "id": 12,
          "value": 0.5
        },
        {
          "id": 13,
          "value": 0.5
        },
        {
          "id": 14,
          "value": 0.5
        },
        {
          "id": 15,
          "value": 0.5
        },
        {
          "id": 16,
          "value": 0.5
        },
        {
          "id": 17,
          "value": 0.5
        },
        {
          "id": 18,
          "value": 0.5
        },
        {
          "id": 19,
          "value": 0.5
        },
        {
          "id": 20,
          "value": 0.0
        },
        {
          "id": 21,
          "value": 0.0
        },
        {
          "id": 22,
          "value": 0.0
        },
        {
          "id": 23,
          "value": 0.0
        },
        {
          "id": 24,
          "value": 0.0
        },
        {
          "id": 25,
          "value": 0.0
        },
        {
          "id": 26,
          "value": 0.0
        },
        {
          "id": 27,
          "value": 0.0
        },
        {
          "id": 28,
          "value": 0.0
        },
        {
          "id": 29,
          "value": 0.0
        },
        {
          "id": 30,
          "value": 0.0
        },
        {
          "id": 31,
          "value": 0.0
        },
        {
          "id": 32,
          "value": 0.0
        },
        {
          "id": 33,
          "value": 0.0
        },
        {
          "id": 34,
          "value": 0.0
        },
        {
          "id": 35,
          "value": 0.0
        },
        {
          "id": 36,
          "value": 0.0
        },
        {
          "id": 37,
          "value": 0.0
        },
        {
          "id": 38,
          "value": 0.0
        },
        {
          "id": 39,
          "value": 0.0
        },
        {
          "id": 40,
          "value": 0.0
        },
        {
          "id": 41,
          "value": 1.0
        },
        {
          "id": 42,
          "value": 0.0
        },
        {
          "id": 43,
          "value": 1.0
        },
        {
          "id": 44,
          "value": 0.0
        },
        {
          "id": 45,
          "value": 0.0
        },
        {
          "id": 46,
          "value": 0.0
        },
        {
          "id": 47,
          "value": 0.0
        },
        {
          "id": 48,
          "value": 0.0
        },
        {
          "id": 49,
          "value": 0.0
        },
        {
          "id": 50,
          "value": 0.0
        },
        {
          "id": 51,
          "value": 0.0
        },
        {
          "id": 52,
          "value": 13.0
        },
        {
          "id": 53,
          "value": 13.0
        },
        {
          "id": 54,
          "value": 13.0
        },
        {
          "id": 55,
          "value": 13.0
        },
        {
          "id": 56,
          "value": 13.0
        },
        {
          "id": 57,
          "value": 13.0
        },
        {
          "id": 58,
          "value": 13.0
        },
        {
          "id": 59,
          "value": 13.0
        },
        {
          "id": 60,
          "value": 20010.0
        },
        {
          "id": 61,
          "value": 20010.0
        },
        {
          "id": 62,
          "value": 20010.0
        },
        {
          "id": 63,
          "value": 20010.0
        },
        {
          "id": 64,
          "value": 20010.0
        },
        {
          "id": 65,
          "value": 20010.0
        },
        {
          "id": 66,
          "value": 20010.0
        },
        {
          "id": 67,
          "value": 20010.0
        },
        {
          "id": 68,
          "value": 13.0
        },
        {
          "id": 69,
          "value": 13.0
        },
        {
          "id": 70,
          "value": 20010.0
        },
        {
          "id": 71,
          "value": 20010.0
        }
      ],
      "leftModuleId": 24,
      "rightModuleId": 115,
      "data": {
        "trackLabels": "BASSLUPPDRMSLUP3CAMP-06--07--08-GRP1GRP2",
        "panLawMono": 1,
        "panLawStereo": 1,
        "directOutsMode": 3,
        "directOutsSkipGroupedTracks": 0,
        "auxSendsMode": 3,
        "groupsControlTrackSendLevels": 0,
        "auxReturnsMutedWhenMainSolo": 0,
        "auxReturnsSolosMuteDry": 0,
        "chainMode": 1,
        "colorAndCloak": 117440512,
        "symmetricalFade": false,
        "fadeCvOutsWithVolCv": false,
        "linkBitMask": 0,
        "filterPos": 0,
        "groupedAuxReturnFeedbackProtection": 1,
        "ecoMode": 65535,
        "faders": [
          1.0,
          1.0,
          1.0,
          1.0,
          1.0,
          1.0,
          1.0,
          1.0,
          1.0,
          1.0
        ],
        "momentaryCvButtons": 1,
        "masterFaderScalesSends": 0,
        "linearVolCvInputs": 0,
        "id_t0_gainAdjust": 1.0,
        "id_t0_fadeRate": 0.0,
        "id_t0_fadeProfile": 0.0,
        "id_t0_directOutsMode": 3,
        "id_t0_auxSendsMode": 3,
        "id_t0_panLawStereo": 1,
        "id_t0_vuColorThemeLocal": 0,
        "id_t0_filterPos": 1,
        "id_t0_dispColorLocal": 0,
        "id_t0_polyStereo": 0,
        "id_t0_panCvLevel": 1.0,
        "id_t0_stereoWidth": 1.0,
        "id_t0_invertInput": 0,
        "id_t1_gainAdjust": 1.0,
        "id_t1_fadeRate": 0.0,
        "id_t1_fadeProfile": 0.0,
        "id_t1_directOutsMode": 3,
        "id_t1_auxSendsMode": 3,
        "id_t1_panLawStereo": 1,
        "id_t1_vuColorThemeLocal": 0,
        "id_t1_filterPos": 1,
        "id_t1_dispColorLocal": 0,
        "id_t1_polyStereo": 0,
        "id_t1_panCvLevel": 1.0,
        "id_t1_stereoWidth": 1.0,
        "id_t1_invertInput": 0,
        "id_t2_gainAdjust": 0.446683317,
        "id_t2_fadeRate": 0.0,
        "id_t2_fadeProfile": 0.0,
        "id_t2_directOutsMode": 3,
        "id_t2_auxSendsMode": 3,
        "id_t2_panLawStereo": 1,
        "id_t2_vuColorThemeLocal": 0,
        "id_t2_filterPos": 1,
        "id_t2_dispColorLocal": 0,
        "id_t2_polyStereo": 0,
        "id_t2_panCvLevel": 1.0,
        "id_t2_stereoWidth": 1.0,
        "id_t2_invertInput": 0,
        "id_t3_gainAdjust": 1.0,
        "id_t3_fadeRate": 0.0,
        "id_t3_fadeProfile": 0.0,
        "id_t3_directOutsMode": 3,
        "id_t3_auxSendsMode": 3,
        "id_t3_panLawStereo": 1,
        "id_t3_vuColorThemeLocal": 0,
        "id_t3_filterPos": 1,
        "id_t3_dispColorLocal": 0,
        "id_t3_polyStereo": 0,
        "id_t3_panCvLevel": 1.0,
        "id_t3_stereoWidth": 1.0,
        "id_t3_invertInput": 0,
        "id_t4_gainAdjust": 1.0,
        "id_t4_fadeRate": 0.0,
        "id_t4_fadeProfile": 0.0,
        "id_t4_directOutsMode": 3,
        "id_t4_auxSendsMode": 3,
        "id_t4_panLawStereo": 1,
        "id_t4_vuColorThemeLocal": 0,
        "id_t4_filterPos": 1,
        "id_t4_dispColorLocal": 0,
        "id_t4_polyStereo": 0,
        "id_t4_panCvLevel": 1.0,
        "id_t4_stereoWidth": 1.0,
        "id_t4_invertInput": 0,
        "id_t5_gainAdjust": 1.0,
        "id_t5_fadeRate": 0.0,
        "id_t5_fadeProfile": 0.0,
        "id_t5_directOutsMode": 3,
        "id_t5_auxSendsMode": 3,
        "id_t5_panLawStereo": 1,
        "id_t5_vuColorThemeLocal": 0,
        "id_t5_filterPos": 1,
        "id_t5_dispColorLocal": 0,
        "id_t5_polyStereo": 0,
        "id_t5_panCvLevel": 1.0,
        "id_t5_stereoWidth": 1.0,
        "id_t5_invertInput": 0,
        "id_t6_gainAdjust": 1.0,
        "id_t6_fadeRate": 0.0,
        "id_t6_fadeProfile": 0.0,
        "id_t6_directOutsMode": 3,
        "id_t6_auxSendsMode": 3,
        "id_t6_panLawStereo": 1,
        "id_t6_vuColorThemeLocal": 0,
        "id_t6_filterPos": 1,
        "id_t6_dispColorLocal": 0,
        "id_t6_polyStereo": 0,
        "id_t6_panCvLevel": 1.0,
        "id_t6_stereoWidth": 1.0,
        "id_t6_invertInput": 0,
        "id_t7_gainAdjust": 1.0,
        "id_t7_fadeRate": 0.0,
        "id_t7_fadeProfile": 0.0,
        "id_t7_directOutsMode": 3,
        "id_t7_auxSendsMode": 3,
        "id_t7_panLawStereo": 1,
        "id_t7_vuColorThemeLocal": 0,
        "id_t7_filterPos": 1,
        "id_t7_dispColorLocal": 0,
        "id_t7_polyStereo": 0,
        "id_t7_panCvLevel": 1.0,
        "id_t7_stereoWidth": 1.0,
        "id_t7_invertInput": 0,
        "id_g0_fadeRate": 0.0,
        "id_g0_fadeProfile": 0.0,
        "id_g0_directOutsMode": 3,
        "id_g0_auxSendsMode": 3,
        "id_g0_panLawStereo": 1,
        "id_g0_vuColorThemeLocal": 0,
        "id_g0_filterPos": 1,
        "id_g0_dispColorLocal": 0,
        "id_g0_panCvLevel": 1.0,
        "id_g0_stereoWidth": 1.0,
        "id_g1_fadeRate": 0.0,
        "id_g1_fadeProfile": 0.0,
        "id_g1_directOutsMode": 3,
        "id_g1_auxSendsMode": 3,
        "id_g1_panLawStereo": 1,
        "id_g1_vuColorThemeLocal": 0,
        "id_g1_filterPos": 1,
        "id_g1_dispColorLocal": 0,
        "id_g1_panCvLevel": 1.0,
        "id_g1_stereoWidth": 1.0,
        "dcBlock": false,
        "clipping": 0,
        "fadeRate": 0.0,
        "fadeProfile": 0.0,
        "vuColorThemeLocal": 0,
        "dispColorLocal": 0,
        "chainOnly": 0,
        "dimGain": 0.251190007,
        "masterLabel": "MASTER"
      },
      "pos": [
        20,
        1
      ]
    },
    {
      "id": 115,
      "plugin": "MindMeldModular",
      "version": "1.1.12",
      "model": "AuxExpanderJr",
      "params": [
        {
          "id": 0,
          "value": 0.26850003
        },
        {
          "id": 1,
          "value": 0.0
        },
        {
          "id": 2,
          "value": 0.0
        },
        {
          "id": 3,
          "value": 0.0
        },
        {
          "id": 4,
          "value": 0.432000101
        },
        {
          "id": 5,
          "value": 0.0
        },
        {
          "id": 6,
          "value": 0.0
        },
        {
          "id": 7,
          "value": 0.0
        },
        {
          "id": 8,
          "value": 0.0
        },
        {
          "id": 9,
          "value": 0.0
        },
        {
          "id": 10,
          "value": 0.0
        },
        {
          "id": 11,
          "value": 0.0
        },
        {
          "id": 12,
          "value": 0.709500194
        },
        {
          "id": 13,
          "value": 0.0
        },
        {
          "id": 14,
          "value": 0.0
        },
        {
          "id": 15,
          "value": 0.0
        },
        {
          "id": 16,
          "value": 0.466500074
        },
        {
          "id": 17,
          "value": 0.0
        },
        {
          "id": 18,
          "value": 0.0
        },
        {
          "id": 19,
          "value": 0.0
        },
        {
          "id": 20,
          "value": 0.0
        },
        {
          "id": 21,
          "value": 0.0
        },
        {
          "id": 22,
          "value": 0.0
        },
        {
          "id": 23,
          "value": 0.0
        },
        {
          "id": 24,
          "value": 0.0
        },
        {
          "id": 25,
          "value": 0.0
        },
        {
          "id": 26,
          "value": 0.0
        },
        {
          "id": 27,
          "value": 0.0
        },
        {
          "id": 28,
          "value": 0.0
        },
        {
          "id": 29,
          "value": 0.0
        },
        {
          "id": 30,
          "value": 0.0
        },
        {
          "id": 31,
          "value": 0.0
        },
        {
          "id": 32,
          "value": 0.0
        },
        {
          "id": 33,
          "value": 0.0
        },
        {
          "id": 34,
          "value": 0.0
        },
        {
          "id": 35,
          "value": 0.0
        },
        {
          "id": 36,
          "value": 0.0
        },
        {
          "id": 37,
          "value": 0.0
        },
        {
          "id": 38,
          "value": 0.0
        },
        {
          "id": 39,
          "value": 0.0
        },
        {
          "id": 40,
          "value": 0.0
        },
        {
          "id": 41,
          "value": 0.0
        },
        {
          "id": 42,
          "value": 0.0
        },
        {
          "id": 43,
          "value": 0.0
        },
        {
          "id": 44,
          "value": 0.0
        },
        {
          "id": 45,
          "value": 0.0
        },
        {
          "id": 46,
          "value": 0.0
        },
        {
          "id": 47,
          "value": 0.0
        },
        {
          "id": 48,
          "value": 0.0
        },
        {
          "id": 49,
          "value": 0.0
        },
        {
          "id": 50,
          "value": 0.0
        },
        {
          "id": 51,
          "value": 0.0
        },
        {
          "id": 52,
          "value": 0.0
        },
        {
          "id": 53,
          "value": 0.0
        },
        {
          "id": 54,
          "value": 0.0
        },
        {
          "id": 55,
          "value": 0.0
        },
        {
          "id": 56,
          "value": 0.0
        },
        {
          "id": 57,
          "value": 0.0
        },
        {
          "id": 58,
          "value": 0.0
        },
        {
          "id": 59,
          "value": 0.0
        },
        {
          "id": 60,
          "value": 0.0
        },
        {
          "id": 61,
          "value": 0.0
        },
        {
          "id": 62,
          "value": 1.0
        },
        {
          "id": 63,
          "value": 1.0
        },
        {
          "id": 64,
          "value": 1.0
        },
        {
          "id": 65,
          "value": 1.0
        },
        {
          "id": 66,
          "value": 0.5
        },
        {
          "id": 67,
          "value": 0.5
        },
        {
          "id": 68,
          "value": 0.5
        },
        {
          "id": 69,
          "value": 0.5
        },
        {
          "id": 70,
          "value": 1.0
        },
        {
          "id": 71,
          "value": 1.0
        },
        {
          "id": 72,
          "value": 1.0
        },
        {
          "id": 73,
          "value": 1.0
        }
      ],
      "leftModuleId": 114,
      "rightModuleId": 28,
      "data": {
        "directOutsModeLocal": 50529027,
        "panLawStereoLocal": 16843009,
        "vuColorThemeLocal": 0,
        "dispColorAuxLocal": [
          0,
          0,
          0,
          0
        ],
        "auxFadeRatesAndProfiles": [
          0.0,
          0.0,
          0.0,
          0.0,
          0.0,
          0.0,
          0.0,
          0.0
        ],
        "auxLabels": "VerbAUXBAUXCAUXD",
        "id_x0_hpfCutoffFreq": 198.556,
        "id_x0_lpfCutoffFreq": 20010.0,
        "id_x0_stereoWidth": 1.0,
        "id_x1_hpfCutoffFreq": 13.0,
        "id_x1_lpfCutoffFreq": 20010.0,
        "id_x1_stereoWidth": 1.0,
        "id_x2_hpfCutoffFreq": 13.0,
        "id_x2_lpfCutoffFreq": 20010.0,
        "id_x2_stereoWidth": 1.0,
        "id_x3_hpfCutoffFreq": 13.0,
        "id_x3_lpfCutoffFreq": 20010.0,
        "id_x3_stereoWidth": 1.0,
        "panCvLevels": [
          1.0,
          1.0,
          1.0,
          1.0
        ]
      },
      "pos": [
        56,
        1
      ]
    },
    {
      "id": 126,
      "plugin": "MindMeldModular",
      "version": "1.1.12",
      "model": "BassMaster",
      "params": [
        {
          "id": 0,
          "value": 120.0
        },
        {
          "id": 1,
          "value": 0.0
        },
        {
          "id": 2,
          "value": 0.0
        },
        {
          "id": 3,
          "value": 1.0
        },
        {
          "id": 4,
          "value": 0.0
        },
        {
          "id": 5,
          "value": 0.0
        },
        {
          "id": 6,
          "value": 0.0
        },
        {
          "id": 7,
          "value": 0.0
        },
        {
          "id": 8,
          "value": 0.0
        },
        {
          "id": 9,
          "value": 0.0
        },
        {
          "id": 10,
          "value": 1.0
        }
      ],
      "leftModuleId": 28,
      "rightModuleId": 25,
      "data": {
        "miscSettings": 0
      },
      "pos": [
        98,
        1
      ]
    },
    {
      "id": 128,
      "plugin": "Stoermelder-P1",
      "version": "1.8.0",
      "model": "Mb",
      "params": [],
      "leftModuleId": 25,
      "data": {
        "mode": 1
      },
      "pos": [
        117,
        1
      ]
    },
    {
      "id": 289,
      "plugin": "SonusModular",
      "version": "1.4.0",
      "model": "Luppolo3",
      "params": [
        {
          "id": 0,
          "value": 0.0
        },
        {
          "id": 1,
          "value": 0.0
        },
        {
          "id": 2,
          "value": 0.0
        },
        {
          "id": 3,
          "value": 0.0
        },
        {
          "id": 4,
          "value": 0.0
        },
        {
          "id": 5,
          "value": 1.44500017
        },
        {
          "id": 6,
          "value": 1.52199972
        },
        {
          "id": 7,
          "value": 1.45000064
        },
        {
          "id": 8,
          "value": 0.0
        },
        {
          "id": 9,
          "value": 0.0
        },
        {
          "id": 10,
          "value": 0.0
        },
        {
          "id": 11,
          "value": 0.0
        },
        {
          "id": 12,
          "value": 0.0
        },
        {
          "id": 13,
          "value": 0.0
        }
      ],
      "pos": [
        89,
        3
      ]
    },
    {
      "id": 290,
      "plugin": "SonusModular",
      "version": "1.4.0",
      "model": "Campione",
      "params": [
        {
          "id": 0,
          "value": 0.0
        },
        {
          "id": 1,
          "value": 0.0
        },
        {
          "id": 2,
          "value": 2.0
        },
        {
          "id": 3,
          "value": 0.0
        },
        {
          "id": 4,
          "value": 0.0
        },
        {
          "id": 5,
          "value": 0.0
        },
        {
          "id": 6,
          "value": 1.0
        },
        {
          "id": 7,
          "value": 1.0
        },
        {
          "id": 8,
          "value": 1.0
        }
      ],
      "leftModuleId": 322,
      "rightModuleId": 323,
      "pos": [
        166,
        3
      ]
    },
    {
      "id": 291,
      "plugin": "SonusModular",
      "version": "1.4.0",
      "model": "Luppolo",
      "params": [
        {
          "id": 0,
          "value": 0.0
        }
      ],
      "leftModuleId": 304,
      "rightModuleId": 306,
      "pos": [
        91,
        2
      ]
    },
    {
      "id": 293,
      "plugin": "Instruo",
      "version": "1.1.0",
      "model": "tsl",
      "params": [
        {
          "id": 0,
          "value": 0.0
        },
        {
          "id": 1,
          "value": 0.558091819
        },
        {
          "id": 2,
          "value": 0.0
        },
        {
          "id": 3,
          "value": 0.0
        },
        {
          "id": 4,
          "value": 0.0
        },
        {
          "id": 5,
          "value": 1.0
        },
        {
          "id": 6,
          "value": 0.763500094
        },
        {
          "id": 7,
          "value": 0.745499969
        },
        {
          "id": 8,
          "value": 0.492000043
        },
        {
          "id": 9,
          "value": -1.0
        }
      ],
      "leftModuleId": 295,
      "rightModuleId": 296,
      "data": {
        "deviations": {
          "frequency": {
            "minimum": 0.569999993,
            "maximum": 33530.0,
            "lfo": 158.0,
            "fine": 500.0,
            "linFM": {
              "minimum": 60.0,
              "maximum": 40.0,
              "fine": 83.0,
              "factor": 3.31999993,
              "threshold": -3.20000005
            },
            "expFM": 0.980000019,
            "vpoError": 0.00249999994
          },
          "amplitudes": [
            4.0,
            5.30000019,
            4.9000001,
            5.4000001,
            4.30000019
          ],
          "sync": {
            "voltage": 2.0,
            "phase": 0.939999998
          },
          "tanh_gain": 2.17499995,
          "pwm": {
            "minimum": 0.0500000007,
            "scale": 0.699999988
          },
          "wavefolder": {
            "symmetry": {
              "offset": 0.100000001,
              "scale": -0.300000012
            },
            "tanh": 1.29999995,
            "input": {
              "gain1": -0.0900000036,
              "bias1": 0.0199999996,
              "gain2": 60.0,
              "bias2_scale": {
                "positive": 0.5,
                "negative": 0.300000012
              }
            }
          }
        }
      },
      "pos": [
        17,
        2
      ]
    },
    {
      "id": 295,
      "plugin": "Instruo",
      "version": "1.1.0",
      "model": "ochd",
      "params": [
        {
          "id": 0,
          "value": 0.340999842
        },
        {
          "id": 1,
          "value": 0.0
        }
      ],
      "leftModuleId": 301,
      "rightModuleId": 293,
      "data": {
        "deviations": {
          "lfos": [
            {
              "amplitude": 5.5,
              "frequency": {
                "maximum": 154.699997,
                "minimum": 0.147,
                "absMinimum": 0.000294000027,
                "absMaximum": 160.887985
              }
            },
            {
              "amplitude": 5.5,
              "frequency": {
                "maximum": 84.7399979,
                "minimum": 0.0816000029,
                "absMinimum": 0.00016320002,
                "absMaximum": 88.1295929
              }
            },
            {
              "amplitude": 5.5,
              "frequency": {
                "maximum": 42.2599983,
                "minimum": 0.0417000018,
                "absMinimum": 8.34000093e-5,
                "absMaximum": 43.9503975
              }
            },
            {
              "amplitude": 5.5,
              "frequency": {
                "maximum": 22.0100002,
                "minimum": 0.0221999995,
                "absMinimum": 4.43999998e-5,
                "absMaximum": 22.8903999
              }
            },
            {
              "amplitude": 5.5,
              "frequency": {
                "maximum": 10.3699999,
                "minimum": 0.0102000004,
                "absMinimum": 2.04000025e-5,
                "absMaximum": 10.7847996
              }
            },
            {
              "amplitude": 5.5,
              "frequency": {
                "maximum": 4.69999981,
                "minimum": 0.00505999988,
                "absMinimum": 1.01200003e-5,
                "absMaximum": 4.88799953
              }
            },
            {
              "amplitude": 5.5,
              "frequency": {
                "maximum": 2.11999989,
                "minimum": 0.00212999992,
                "absMinimum": 4.25999997e-6,
                "absMaximum": 2.20479989
              }
            },
            {
              "amplitude": 5.5,
              "frequency": {
                "maximum": 1.00999999,
                "minimum": 0.00100000005,
                "absMinimum": 2.00000022e-6,
                "absMaximum": 1.0503999
              }
            }
          ]
        }
      },
      "pos": [
        13,
        2
      ]
    },
    {
      "id": 296,
      "plugin": "Instruo",
      "version": "1.1.0",
      "model": "traigh",
      "params": [
        {
          "id": 0,
          "value": 0.342999637
        },
        {
          "id": 1,
          "value": 1.0
        },
        {
          "id": 2,
          "value": 0.699999988
        },
        {
          "id": 3,
          "value": 0.699999988
        },
        {
          "id": 4,
          "value": 0.597999632
        },
        {
          "id": 5,
          "value": 0.0
        },
        {
          "id": 6,
          "value": 0.120500013
        },
        {
          "id": 7,
          "value": 0.442499995
        }
      ],
      "leftModuleId": 293,
      "data": {
        "deviations": {
          "frequency": {
            "minimum": 40.0,
            "maximum": 22000.0,
            "fine": 500.0
          }
        }
      },
      "pos": [
        23,
        2
      ]
    },
    {
      "id": 300,
      "plugin": "Core",
      "version": "1.1.6",
      "model": "MIDIToCVInterface",
      "params": [],
      "rightModuleId": 302,
      "data": {
        "channels": 1,
        "polyMode": 0,
        "clockDivision": 24,
        "lastPitch": 8192,
        "lastMod": 0,
        "midi": {
          "driver": 2,
          "deviceName": "Arturia MiniLab mkII:Arturia MiniLab mkII MIDI 1 28:0",
          "channel": 0
        }
      },
      "pos": [
        55,
        2
      ]
    },
    {
      "id": 301,
      "plugin": "JW-Modules",
      "version": "1.0.21",
      "model": "NoteSeq16",
      "params": [
        {
          "id": 0,
          "value": 16.0
        },
        {
          "id": 1,
          "value": 0.0
        },
        {
          "id": 2,
          "value": 0.0
        },
        {
          "id": 3,
          "value": 0.0
        },
        {
          "id": 4,
          "value": 0.100000001
        },
        {
          "id": 5,
          "value": 11.0
        },
        {
          "id": 6,
          "value": 0.0
        },
        {
          "id": 7,
          "value": -1.0
        },
        {
          "id": 8,
          "value": 0.0
        },
        {
          "id": 9,
          "value": 0.0
        },
        {
          "id": 10,
          "value": 0.0
        }
      ],
      "rightModuleId": 295,
      "data": {
        "channels": 1,
        "cells": [
          0,
          0,
          0,
          0,
          0,
          0,
          0,
          0,
          0,
          0,
          0,
          0,
          0,
          0,
          0,
          0,
          0,
          0,
          0,
          0,
          0,
          0,
          0,
          0,
          0,
          0,
          0,
          0,
          0,
          0,
          0,
          0,
          0,
          0,
          0,
          0,
          0,
          0,
          0,
          0,
          0,
          0,
          0,
          0,
          0,
          0,
          0,
          0,
          0,
          0,
          0,
          0,
          0,
          0,
          0,
          0,
          0,
          0,
          0,
          0,
          0,
          0,
          0,
          0,
          0,
          0,
          0,
          0,
          0,
          0,
          0,
          0,
          0,
          0,
          0,
          0,
          0,
          0,
          0,
          0,
          0,
          0,
          0,
          0,
          0,
          0,
          0,
          0,
          0,
          0,
          0,
          0,
          0,
          0,
          0,
          0,
          0,
          0,
          0,
          0,
          0,
          0,
          0,
          0,
          0,
          0,
          0,
          0,
          0,
          0,
          0,
          0,
          0,
          0,
          0,
          0,
          0,
          0,
          0,
          0,
          0,
          0,
          0,
          0,
          0,
          0,
          0,
          0,
          0,
          0,
          0,
          0,
          0,
          0,
          0,
          0,
          0,
          0,
          0,
          0,
          0,
          1,
          0,
          0,
          0,
          0,
          0,
          0,
          0,
          0,
          0,
          0,
          0,
          0,
          0,
          0,
          0,
          0,
          0,
          0,
          0,
          0,
          0,
          0,
          0,
          0,
          0,
          0,
          0,
          0,
          0,
          0,
          1,
          0,
          0,
          0,
          0,
          0,
          0,
          0,
          0,
          0,
          0,
          0,
          0,
          0,
          0,
          0,
          0,
          0,
          0,
          0,
          0,
          0,
          0,
          1,
          1,
          1,
          0,
          0,
          0,
          0,
          0,
          1,
          0,
          0,
          1,
          0,
          0,
          0,
          0,
          0,
          0,
          0,
          1,
          1,
          1,
          1,
          1,
          0,
          0,
          0,
          0,
          1,
          0,
          0,
          0,
          0,
          0,
          0,
          0,
          0,
          0,
          0,
          0,
          0,
          0,
          0,
          0,
          0,
          1,
          1,
          1,
          0,
          0,
          0,
          0,
          0,
          0,
          0,
          0,
          0,
          0,
          0,
          0,
          0
        ]
      },
      "pos": [
        0,
        2
      ]
    },
    {
      "id": 302,
      "plugin": "squinkylabs-plug1",
      "version": "1.0.15",
      "model": "squinkylabs-wvco",
      "params": [
        {
          "id": 0,
          "value": 4.0
        },
        {
          "id": 1,
          "value": 1.0
        },
        {
          "id": 2,
          "value": 0.0
        },
        {
          "id": 3,
          "value": 0.0
        },
        {
          "id": 4,
          "value": 0.0
        },
        {
          "id": 5,
          "value": 21.0
        },
        {
          "id": 6,
          "value": 1.0
        },
        {
          "id": 7,
          "value": 0.0
        },
        {
          "id": 8,
          "value": 100.0
        },
        {
          "id": 9,
          "value": 0.0
        },
        {
          "id": 10,
          "value": 70.25
        },
        {
          "id": 11,
          "value": 0.0
        },
        {
          "id": 12,
          "value": 50.0
        },
        {
          "id": 13,
          "value": 0.0
        },
        {
          "id": 14,
          "value": 0.0
        },
        {
          "id": 15,
          "value": 1.0
        },
        {
          "id": 16,
          "value": 0.0
        },
        {
          "id": 17,
          "value": 0.0
        },
        {
          "id": 18,
          "value": 0.0
        },
        {
          "id": 19,
          "value": 1.0
        }
      ],
      "leftModuleId": 300,
      "rightModuleId": 326,
      "pos": [
        63,
        2
      ]
    },
    {
      "id": 303,
      "plugin": "AlrightDevices",
      "version": "1.0.3",
      "model": "Chronoblob2",
      "params": [
        {
          "id": 0,
          "value": 0.630499959
        },
        {
          "id": 1,
          "value": 0.34100008
        },
        {
          "id": 2,
          "value": 0.323000014
        },
        {
          "id": 3,
          "value": 0.0
        },
        {
          "id": 4,
          "value": 0.0
        },
        {
          "id": 5,
          "value": 0.222000018
        },
        {
          "id": 6,
          "value": 0.0
        },
        {
          "id": 7,
          "value": 0.0
        },
        {
          "id": 8,
          "value": 1.0
        },
        {
          "id": 9,
          "value": 0.0
        }
      ],
      "leftModuleId": 306,
      "data": {
        "delay_mode": 1,
        "hold_behavior": 0,
        "sync_prescaler": 6
      },
      "pos": [
        107,
        2
      ]
    },
    {
      "id": 304,
      "plugin": "ML_modules",
      "version": "1.1.3",
      "model": "TrigBuf",
      "params": [
        {
          "id": 0,
          "value": 0.0
        },
        {
          "id": 1,
          "value": 0.0
        }
      ],
      "leftModuleId": 326,
      "rightModuleId": 291,
      "pos": [
        87,
        2
      ]
    },
    {
      "id": 306,
      "plugin": "VultModulesFree",
      "version": "1.14",
      "model": "Tangents",
      "params": [
        {
          "id": 0,
          "value": 0.579499841
        },
        {
          "id": 1,
          "value": 0.400500059
        },
        {
          "id": 2,
          "value": 0.404999942
        },
        {
          "id": 3,
          "value": 0.0
        },
        {
          "id": 4,
          "value": 0.600000024
        },
        {
          "id": 5,
          "value": 0.0
        },
        {
          "id": 6,
          "value": 0.0
        }
      ],
      "leftModuleId": 291,
      "rightModuleId": 303,
      "pos": [
        97,
        2
      ]
    },
    {
      "id": 309,
      "plugin": "JW-Modules",
      "version": "1.0.21",
      "model": "Trigs",
      "params": [
        {
          "id": 0,
          "value": 64.0
        },
        {
          "id": 1,
          "value": 0.0
        },
        {
          "id": 2,
          "value": 0.0
        },
        {
          "id": 3,
          "value": 0.0
        },
        {
          "id": 4,
          "value": 0.215500027
        },
        {
          "id": 5,
          "value": 0.0
        }
      ],
      "rightModuleId": 310,
      "data": {
        "channels": 1,
        "cells": [
          1,
          0,
          0,
          0,
          0,
          0,
          0,
          0,
          0,
          1,
          1,
          0,
          0,
          0,
          0,
          0,
          1,
          0,
          0,
          0,
          0,
          1,
          0,
          0,
          0,
          0,
          0,
          1,
          0,
          1,
          0,
          0,
          1,
          0,
          0,
          1,
          0,
          1,
          0,
          1,
          0,
          1,
          1,
          0,
          0,
          0,
          0,
          0,
          0,
          1,
          0,
          1,
          1,
          0,
          0,
          0,
          1,
          0,
          0,
          1,
          1,
          0,
          0,
          0,
          0,
          0,
          0,
          0,
          1,
          0,
          0,
          0,
          1,
          0,
          0,
          0,
          0,
          0,
          0,
          0,
          0,
          0,
          1,
          0,
          0,
          0,
          0,
          0,
          1,
          0,
          0,
          1,
          0,
          1,
          1,
          0,
          0,
          0,
          0,
          0,
          0,
          0,
          1,
          0,
          0,
          0,
          1,
          0,
          1,
          0,
          1,
          0,
          0,
          1,
          0,
          0,
          0,
          0,
          0,
          1,
          0,
          0,
          0,
          0,
          0,
          0,
          0,
          1,
          0,
          1,
          0,
          0,
          1,
          0,
          0,
          1,
          0,
          0,
          1,
          1,
          0,
          0,
          1,
          0,
          1,
          0,
          1,
          0,
          1,
          1,
          0,
          0,
          1,
          0,
          1,
          0,
          0,
          0,
          0,
          0,
          0,
          1,
          1,
          1,
          0,
          0,
          0,
          0,
          1,
          1,
          0,
          0,
          1,
          0,
          1,
          1,
          0,
          1,
          1,
          1,
          0,
          0,
          1,
          1,
          0,
          0,
          1,
          0,
          0,
          1,
          1,
          0,
          0,
          0,
          0,
          0,
          0,
          0,
          0,
          0,
          0,
          1,
          0,
          0,
          1,
          0,
          0,
          0,
          0,
          0,
          0,
          0,
          0,
          1,
          0,
          0,
          0,
          0,
          1,
          0,
          0,
          0,
          0,
          0,
          0,
          0,
          1,
          0,
          0,
          0,
          0,
          1,
          0,
          0,
          0,
          1,
          0,
          0,
          0,
          0,
          0,
          0,
          0,
          0,
          1,
          0,
          0,
          0,
          0,
          0,
          1,
          0,
          0,
          1,
          0,
          0
        ]
      },
      "pos": [
        0,
        3
      ]
    },
    {
      "id": 310,
      "plugin": "Autodafe-DrumKit",
      "version": "1.0.0",
      "model": "DrumsKick",
      "params": [
        {
          "id": 0,
          "value": 0.0
        }
      ],
      "leftModuleId": 309,
      "rightModuleId": 311,
      "data": {
        "sampletype": 2
      },
      "pos": [
        13,
        3
      ]
    },
    {
      "id": 311,
      "plugin": "Autodafe-DrumKit",
      "version": "1.0.0",
      "model": "DrumsSnare",
      "params": [
        {
          "id": 0,
          "value": 0.0
        }
      ],
      "leftModuleId": 310,
      "rightModuleId": 312,
      "data": {
        "sampletype": 3
      },
      "pos": [
        17,
        3
      ]
    },
    {
      "id": 312,
      "plugin": "Autodafe-DrumKit",
      "version": "1.0.0",
      "model": "DrumsHiHatClosed",
      "params": [
        {
          "id": 0,
          "value": 0.0
        }
      ],
      "leftModuleId": 311,
      "rightModuleId": 313,
      "data": {
        "sampletype": 4
      },
      "pos": [
        21,
        3
      ]
    },
    {
      "id": 313,
      "plugin": "Autodafe-DrumKit",
      "version": "1.0.0",
      "model": "DrumsHiHatOpen",
      "params": [
        {
          "id": 0,
          "value": 0.0
        }
      ],
      "leftModuleId": 312,
      "rightModuleId": 314,
      "data": {
        "sampletype": 1
      },
      "pos": [
        25,
        3
      ]
    },
    {
      "id": 314,
      "plugin": "NYSTHI",
      "version": "1.0.17",
      "model": "mix4",
      "params": [
        {
          "id": 0,
          "value": 0.0
        },
        {
          "id": 1,
          "value": 0.0
        },
        {
          "id": 2,
          "value": 0.0
        },
        {
          "id": 3,
          "value": 0.0
        },
        {
          "id": 4,
          "value": 0.0
        },
        {
          "id": 5,
          "value": 0.0
        },
        {
          "id": 6,
          "value": 0.0
        },
        {
          "id": 7,
          "value": 0.0
        },
        {
          "id": 8,
          "value": 0.0
        },
        {
          "id": 9,
          "value": 0.0
        },
        {
          "id": 10,
          "value": 0.0
        },
        {
          "id": 11,
          "value": 0.0
        },
        {
          "id": 12,
          "value": 0.0
        },
        {
          "id": 13,
          "value": 0.0
        },
        {
          "id": 14,
          "value": 0.0
        },
        {
          "id": 15,
          "value": 0.0
        },
        {
          "id": 16,
          "value": 0.0306000039
        },
        {
          "id": 17,
          "value": 0.0615000166
        },
        {
          "id": 18,
          "value": 0.0628500059
        },
        {
          "id": 19,
          "value": 0.0
        },
        {
          "id": 20,
          "value": 0.0
        },
        {
          "id": 21,
          "value": 0.0
        },
        {
          "id": 22,
          "value": 0.0
        },
        {
          "id": 23,
          "value": 0.0
        }
      ],
      "leftModuleId": 313,
      "rightModuleId": 316,
      "data": {
        "m_channels": [
          1.0,
          0.5,
          false,
          false,
          0.604726255,
          0.5,
          false,
          false,
          0.495468736,
          0.5,
          false,
          false,
          0.318867177,
          0.5,
          false,
          false
        ],
        "m_master_volume": 0.798203111,
        "m_master_mute_trig": false,
        "m_low_power": false,
        "m_cvcompatible": false,
        "m_show_post_out": false,
        "m_post_outputs_unaffected_by_solo_mode": false,
        "m_attenuation": 1.0,
        "m_limiting_mode": 0,
        "m_poly_out": 4
      },
      "pos": [
        29,
        3
      ]
    },
    {
      "id": 316,
      "plugin": "VultModulesFree",
      "version": "1.14",
      "model": "Debriatus",
      "params": [
        {
          "id": 0,
          "value": 0.205500007
        },
        {
          "id": 1,
          "value": 0.0
        },
        {
          "id": 2,
          "value": 0.0
        },
        {
          "id": 3,
          "value": 0.45750019
        },
        {
          "id": 4,
          "value": 0.0
        },
        {
          "id": 5,
          "value": 0.0
        },
        {
          "id": 6,
          "value": 0.0
        },
        {
          "id": 7,
          "value": 0.0
        }
      ],
      "leftModuleId": 314,
      "pos": [
        37,
        3
      ]
    },
    {
      "id": 317,
      "plugin": "Atelier",
      "version": "1.0.3",
      "model": "AtelierPalette",
      "params": [
        {
          "id": 0,
          "value": 0.0
        },
        {
          "id": 1,
          "value": 0.0
        },
        {
          "id": 2,
          "value": 0.0
        },
        {
          "id": 3,
          "value": 0.5
        },
        {
          "id": 4,
          "value": 0.0
        },
        {
          "id": 5,
          "value": 0.5
        },
        {
          "id": 6,
          "value": 0.696999729
        },
        {
          "id": 7,
          "value": 0.0
        },
        {
          "id": 8,
          "value": 0.0
        },
        {
          "id": 9,
          "value": 0.0
        },
        {
          "id": 10,
          "value": 0.0
        },
        {
          "id": 11,
          "value": 0.0
        },
        {
          "id": 12,
          "value": 0.5
        },
        {
          "id": 13,
          "value": 0.753500044
        },
        {
          "id": 14,
          "value": 0.5
        },
        {
          "id": 15,
          "value": 0.0
        },
        {
          "id": 16,
          "value": 0.0
        },
        {
          "id": 17,
          "value": 1.0
        },
        {
          "id": 18,
          "value": 0.0500000007
        },
        {
          "id": 19,
          "value": 0.0
        },
        {
          "id": 20,
          "value": 0.0
        },
        {
          "id": 21,
          "value": 0.0
        },
        {
          "id": 22,
          "value": 0.0
        },
        {
          "id": 23,
          "value": 0.0
        },
        {
          "id": 24,
          "value": 0.0
        },
        {
          "id": 25,
          "value": 0.0
        },
        {
          "id": 26,
          "value": 0.0
        }
      ],
      "leftModuleId": 318,
      "rightModuleId": 319,
      "data": {
        "rsqual": 4,
        "model": 2,
        "lpgColor": 0.5,
        "decay": 0.753500044,
        "freetune": false,
        "showmods": true,
        "lpgMode": 0
      },
      "pos": [
        67,
        3
      ]
    },
    {
      "id": 318,
      "plugin": "Core",
      "version": "1.1.6",
      "model": "MIDIToCVInterface",
      "params": [],
      "rightModuleId": 317,
      "data": {
        "channels": 7,
        "polyMode": 0,
        "clockDivision": 24,
        "lastPitch": 8192,
        "lastMod": 4,
        "midi": {
          "driver": 2,
          "deviceName": "Arturia MiniLab mkII:Arturia MiniLab mkII MIDI 1 28:0",
          "channel": 1
        }
      },
      "pos": [
        59,
        3
      ]
    },
    {
      "id": 319,
      "plugin": "MM_Tools",
      "version": "1.0.2",
      "model": "ASSprdr",
      "params": [
        {
          "id": 0,
          "value": 1.0
        },
        {
          "id": 1,
          "value": 0.886000037
        }
      ],
      "leftModuleId": 317,
      "data": {
        "mergePoly": 1
      },
      "pos": [
        85,
        3
      ]
    },
    {
      "id": 320,
      "plugin": "Valley",
      "version": "1.1.6",
      "model": "Terrorform",
      "params": [
        {
          "id": 0,
          "value": 0.0
        },
        {
          "id": 1,
          "value": 0.0
        },
        {
          "id": 2,
          "value": 0.0
        },
        {
          "id": 3,
          "value": 26.0
        },
        {
          "id": 4,
          "value": 0.0
        },
        {
          "id": 5,
          "value": 0.0
        },
        {
          "id": 6,
          "value": 0.0
        },
        {
          "id": 7,
          "value": 0.0
        },
        {
          "id": 8,
          "value": 0.0
        },
        {
          "id": 9,
          "value": 0.0
        },
        {
          "id": 10,
          "value": 0.5
        },
        {
          "id": 11,
          "value": 0.0
        },
        {
          "id": 12,
          "value": 0.511500001
        },
        {
          "id": 13,
          "value": 0.0
        },
        {
          "id": 14,
          "value": 1.0
        },
        {
          "id": 15,
          "value": 1.0
        },
        {
          "id": 16,
          "value": 0.0
        },
        {
          "id": 17,
          "value": 0.0
        },
        {
          "id": 18,
          "value": 0.432000011
        },
        {
          "id": 19,
          "value": 0.0
        },
        {
          "id": 20,
          "value": 0.0
        },
        {
          "id": 21,
          "value": 0.0
        },
        {
          "id": 22,
          "value": 0.0
        },
        {
          "id": 23,
          "value": 0.0
        },
        {
          "id": 24,
          "value": 0.0
        },
        {
          "id": 25,
          "value": 0.0
        },
        {
          "id": 26,
          "value": 0.0
        },
        {
          "id": 27,
          "value": 0.0
        },
        {
          "id": 28,
          "value": 0.0
        },
        {
          "id": 29,
          "value": 0.0
        },
        {
          "id": 30,
          "value": 0.0
        },
        {
          "id": 31,
          "value": 0.0
        },
        {
          "id": 32,
          "value": 1.0
        },
        {
          "id": 33,
          "value": 0.0
        },
        {
          "id": 34,
          "value": 0.168000057
        },
        {
          "id": 35,
          "value": 0.0
        },
        {
          "id": 36,
          "value": 0.0
        },
        {
          "id": 37,
          "value": 0.0075000003
        },
        {
          "id": 38,
          "value": 0.0
        },
        {
          "id": 39,
          "value": 0.0
        },
        {
          "id": 40,
          "value": 0.0
        },
        {
          "id": 41,
          "value": 0.0
        },
        {
          "id": 42,
          "value": 0.0
        },
        {
          "id": 43,
          "value": 0.0
        },
        {
          "id": 44,
          "value": 0.0
        },
        {
          "id": 45,
          "value": 0.0
        },
        {
          "id": 46,
          "value": 0.0
        },
        {
          "id": 47,
          "value": 0.0
        },
        {
          "id": 48,
          "value": 0.0
        },
        {
          "id": 49,
          "value": 0.0
        },
        {
          "id": 50,
          "value": 1.0
        }
      ],
      "leftModuleId": 325,
      "rightModuleId": 322,
      "data": {
        "version": 116,
        "panelStyle": 0,
        "displayStyle": 0,
        "lpgMode": 0,
        "syncChoice": 0,
        "reduceOutputLevel": 0,
        "spreadActive": 0,
        "numVoices": 0,
        "userWaves": []
      },
      "pos": [
        143,
        3
      ]
    },
    {
      "id": 321,
      "plugin": "Core",
      "version": "1.1.6",
      "model": "MIDIToCVInterface",
      "params": [],
      "rightModuleId": 325,
      "data": {
        "channels": 1,
        "polyMode": 0,
        "clockDivision": 24,
        "lastPitch": 8192,
        "lastMod": 0,
        "midi": {
          "driver": 2,
          "deviceName": "Arturia MiniLab mkII:Arturia MiniLab mkII MIDI 1 28:0",
          "channel": 0
        }
      },
      "pos": [
        132,
        3
      ]
    },
    {
      "id": 322,
      "plugin": "Fundamental",
      "version": "1.4.0",
      "model": "VCA-1",
      "params": [
        {
          "id": 0,
          "value": 1.0
        },
        {
          "id": 1,
          "value": 1.0
        }
      ],
      "leftModuleId": 320,
      "rightModuleId": 290,
      "pos": [
        163,
        3
      ]
    },
    {
      "id": 323,
      "plugin": "AlrightDevices",
      "version": "1.0.3",
      "model": "Chronoblob2",
      "params": [
        {
          "id": 0,
          "value": 0.603500068
        },
        {
          "id": 1,
          "value": 0.17749989
        },
        {
          "id": 2,
          "value": 0.367999971
        },
        {
          "id": 3,
          "value": 0.0
        },
        {
          "id": 4,
          "value": 0.0
        },
        {
          "id": 5,
          "value": 0.156000018
        },
        {
          "id": 6,
          "value": 0.0
        },
        {
          "id": 7,
          "value": 0.0
        },
        {
          "id": 8,
          "value": 1.0
        },
        {
          "id": 9,
          "value": 0.0
        }
      ],
      "leftModuleId": 290,
      "data": {
        "delay_mode": 1,
        "hold_behavior": 0,
        "sync_prescaler": 6
      },
      "pos": [
        178,
        3
      ]
    },
    {
      "id": 325,
      "plugin": "Bogaudio",
      "version": "1.1.35",
      "model": "Bogaudio-LLFO",
      "params": [
        {
          "id": 0,
          "value": 0.331500262
        },
        {
          "id": 1,
          "value": 0.0
        },
        {
          "id": 2,
          "value": 0.0
        },
        {
          "id": 3,
          "value": 1.0
        },
        {
          "id": 4,
          "value": 1.0
        }
      ],
      "leftModuleId": 321,
      "rightModuleId": 320,
      "data": {},
      "pos": [
        140,
        3
      ]
    },
    {
      "id": 326,
      "plugin": "Core",
      "version": "1.1.6",
      "model": "MIDITriggerToCVInterface",
      "params": [],
      "leftModuleId": 302,
      "rightModuleId": 304,
      "data": {
        "notes": [
          36,
          49,
          50,
          51,
          44,
          45,
          46,
          47,
          40,
          41,
          42,
          43,
          36,
          37,
          38,
          39
        ],
        "velocity": false,
        "midi": {
          "driver": -11,
          "deviceName": "Numpad keyboard (US)",
          "channel": -1
        }
      },
      "pos": [
        77,
        2
      ]
    },
    {
      "id": 334,
      "plugin": "NYSTHI",
      "version": "1.0.17",
      "model": "PolyRecorder",
      "params": [
        {
          "id": 0,
          "value": 0.0
        },
        {
          "id": 1,
          "value": 0.0
        },
        {
          "id": 2,
          "value": 0.0
        }
      ],
      "data": {
        "wavebits": 9,
        "m_attenuation": 1.0,
        "m_raw_pcm_float": 0.0,
        "m_autoenumeratefiles": true,
        "m_must_consolidate": false,
        "m_separated_stems": true,
        "m_separated_stems_in_dir": false,
        "m_separated_stems_are_stereo": true,
        "m_use_start_as_startstop_toggle": true
      },
      "pos": [
        29,
        0
      ]
    },
    {
      "id": 336,
      "plugin": "MindMeldModular",
      "version": "1.1.12",
      "model": "Meld",
      "params": [
        {
          "id": 0,
          "value": 0.0
        },
        {
          "id": 1,
          "value": 0.0
        },
        {
          "id": 2,
          "value": 0.0
        },
        {
          "id": 3,
          "value": 0.0
        },
        {
          "id": 4,
          "value": 0.0
        },
        {
          "id": 5,
          "value": 0.0
        },
        {
          "id": 6,
          "value": 0.0
        },
        {
          "id": 7,
          "value": 0.0
        }
      ],
      "data": {
        "facePlate": 0,
        "bypassState2": [
          0,
          0,
          0,
          0,
          0,
          0,
          0,
          0
        ]
      },
      "pos": [
        21,
        0
      ]
    },
    {
      "id": 341,
      "plugin": "Core",
      "version": "1.1.6",
      "model": "Notes",
      "params": [],
      "text": "Omri Cohen\n\nHow to Live Loop in VCV Rack\n\nhttps://youtu.be/MTgYuQyQb_U\n\nSonus Looper Modules\n\n\n----------------------------\n\nLoops recorded into Stereo Files using MELD and Polyrec\n\nthen loaded into Nysthi Musicalbox\n",
      "pos": [
        0,
        0
      ]
    },
    {
      "id": 342,
      "plugin": "NYSTHI",
      "version": "1.0.17",
      "model": "MusicalBox",
      "params": [
        {
          "id": 0,
          "value": 0.0
        },
        {
          "id": 1,
          "value": 0.0
        },
        {
          "id": 2,
          "value": 0.0
        },
        {
          "id": 3,
          "value": 0.0
        },
        {
          "id": 4,
          "value": 0.0
        },
        {
          "id": 5,
          "value": 0.0
        },
        {
          "id": 6,
          "value": 0.0
        },
        {
          "id": 7,
          "value": 0.0
        },
        {
          "id": 8,
          "value": 0.0
        },
        {
          "id": 9,
          "value": 0.0
        },
        {
          "id": 10,
          "value": 0.0
        },
        {
          "id": 11,
          "value": 0.0
        },
        {
          "id": 12,
          "value": 0.0
        },
        {
          "id": 13,
          "value": 0.0
        },
        {
          "id": 14,
          "value": 0.0
        },
        {
          "id": 15,
          "value": 0.0
        },
        {
          "id": 16,
          "value": 0.0
        },
        {
          "id": 17,
          "value": 0.0
        },
        {
          "id": 18,
          "value": 0.0
        },
        {
          "id": 19,
          "value": 0.0
        },
        {
          "id": 20,
          "value": 0.0
        },
        {
          "id": 21,
          "value": 0.0
        },
        {
          "id": 22,
          "value": 0.0
        },
        {
          "id": 23,
          "value": 0.0
        },
        {
          "id": 24,
          "value": 0.0
        },
        {
          "id": 25,
          "value": 0.0
        },
        {
          "id": 26,
          "value": 0.0
        },
        {
          "id": 27,
          "value": 0.0
        },
        {
          "id": 28,
          "value": 0.0
        },
        {
          "id": 29,
          "value": 0.0
        },
        {
          "id": 30,
          "value": 0.0
        },
        {
          "id": 31,
          "value": 0.0
        },
        {
          "id": 32,
          "value": 0.0
        },
        {
          "id": 33,
          "value": 0.0
        },
        {
          "id": 34,
          "value": 0.0
        },
        {
          "id": 35,
          "value": 0.0
        },
        {
          "id": 36,
          "value": 0.0
        },
        {
          "id": 37,
          "value": 0.0
        },
        {
          "id": 38,
          "value": 0.0
        },
        {
          "id": 39,
          "value": 0.0
        },
        {
          "id": 40,
          "value": 0.0
        },
        {
          "id": 41,
          "value": 0.0
        },
        {
          "id": 42,
          "value": 0.0
        },
        {
          "id": 43,
          "value": 0.0
        },
        {
          "id": 44,
          "value": 0.0
        },
        {
          "id": 45,
          "value": 0.0
        },
        {
          "id": 46,
          "value": 0.0
        },
        {
          "id": 47,
          "value": 0.0
        },
        {
          "id": 48,
          "value": 1.0
        },
        {
          "id": 49,
          "value": 1.0
        },
        {
          "id": 50,
          "value": 1.0
        },
        {
          "id": 51,
          "value": 1.0
        },
        {
          "id": 52,
          "value": 1.0
        },
        {
          "id": 53,
          "value": 1.0
        },
        {
          "id": 54,
          "value": 1.0
        },
        {
          "id": 55,
          "value": 1.0
        },
        {
          "id": 56,
          "value": 0.0
        },
        {
          "id": 57,
          "value": 0.0
        },
        {
          "id": 58,
          "value": 0.0
        },
        {
          "id": 59,
          "value": 0.0
        },
        {
          "id": 60,
          "value": 0.0
        },
        {
          "id": 61,
          "value": 0.0
        },
        {
          "id": 62,
          "value": 0.0
        },
        {
          "id": 63,
          "value": 0.0
        },
        {
          "id": 64,
          "value": 1.0
        },
        {
          "id": 65,
          "value": 1.0
        },
        {
          "id": 66,
          "value": 1.0
        },
        {
          "id": 67,
          "value": 1.0
        },
        {
          "id": 68,
          "value": 1.0
        },
        {
          "id": 69,
          "value": 1.0
        },
        {
          "id": 70,
          "value": 1.0
        },
        {
          "id": 71,
          "value": 1.0
        },
        {
          "id": 72,
          "value": 0.0
        },
        {
          "id": 73,
          "value": 0.0
        },
        {
          "id": 74,
          "value": 0.0
        },
        {
          "id": 75,
          "value": 0.0
        },
        {
          "id": 76,
          "value": 0.0
        },
        {
          "id": 77,
          "value": 0.0
        },
        {
          "id": 78,
          "value": 0.0
        },
        {
          "id": 79,
          "value": 0.0
        },
        {
          "id": 80,
          "value": 0.200000003
        },
        {
          "id": 81,
          "value": 0.200000003
        },
        {
          "id": 82,
          "value": 0.200000003
        },
        {
          "id": 83,
          "value": 0.200000003
        },
        {
          "id": 84,
          "value": 0.200000003
        },
        {
          "id": 85,
          "value": 0.200000003
        },
        {
          "id": 86,
          "value": 0.200000003
        },
        {
          "id": 87,
          "value": 0.200000003
        },
        {
          "id": 88,
          "value": 1.0
        },
        {
          "id": 89,
          "value": 1.0
        },
        {
          "id": 90,
          "value": 1.0
        },
        {
          "id": 91,
          "value": 1.0
        },
        {
          "id": 92,
          "value": 1.0
        },
        {
          "id": 93,
          "value": 1.0
        },
        {
          "id": 94,
          "value": 1.0
        },
        {
          "id": 95,
          "value": 1.0
        },
        {
          "id": 96,
          "value": 0.5
        },
        {
          "id": 97,
          "value": 0.5
        },
        {
          "id": 98,
          "value": 0.5
        },
        {
          "id": 99,
          "value": 0.5
        },
        {
          "id": 100,
          "value": 0.5
        },
        {
          "id": 101,
          "value": 0.5
        },
        {
          "id": 102,
          "value": 0.5
        },
        {
          "id": 103,
          "value": 0.5
        },
        {
          "id": 104,
          "value": 0.0
        },
        {
          "id": 105,
          "value": 0.0
        },
        {
          "id": 106,
          "value": 0.0
        },
        {
          "id": 107,
          "value": 0.0
        },
        {
          "id": 108,
          "value": 0.0
        },
        {
          "id": 109,
          "value": 0.0
        },
        {
          "id": 110,
          "value": 0.0
        },
        {
          "id": 111,
          "value": 0.0
        },
        {
          "id": 112,
          "value": 0.0
        },
        {
          "id": 113,
          "value": 0.0
        },
        {
          "id": 114,
          "value": 0.0
        },
        {
          "id": 115,
          "value": 0.0
        },
        {
          "id": 116,
          "value": 0.0
        },
        {
          "id": 117,
          "value": 0.0
        },
        {
          "id": 118,
          "value": 0.0
        },
        {
          "id": 119,
          "value": 0.0
        },
        {
          "id": 120,
          "value": 1.0
        },
        {
          "id": 121,
          "value": 0.0
        },
        {
          "id": 122,
          "value": 0.0
        },
        {
          "id": 123,
          "value": 1.0
        },
        {
          "id": 124,
          "value": 1.0
        }
      ],
      "data": {
        "m_files_array0": [
          "/home/mint/.Rack/recordings/loops/5. Sonus_202101201646_Jy.6chan.005.01.wav",
          "/home/mint/.Rack/recordings/loops/5. Sonus_202101201646_Jy.6chan.005.02.wav",
          "/home/mint/.Rack/recordings/loops/5. Sonus_202101201646_Jy.6chan.005.03.wav"
        ],
        "m_files_array1": [
          "/home/mint/.Rack/recordings/loops/5. Sonus_202101201646_Jy.6chan.005.01.wav",
          "/home/mint/.Rack/recordings/loops/5. Sonus_202101201646_Jy.6chan.005.02.wav",
          "/home/mint/.Rack/recordings/loops/5. Sonus_202101201646_Jy.6chan.005.03.wav"
        ],
        "m_files_array2": [
          "/home/mint/.Rack/recordings/loops/5. Sonus_202101201646_Jy.6chan.005.01.wav",
          "/home/mint/.Rack/recordings/loops/5. Sonus_202101201646_Jy.6chan.005.02.wav",
          "/home/mint/.Rack/recordings/loops/5. Sonus_202101201646_Jy.6chan.005.03.wav"
        ],
        "m_files_array3": [],
        "m_files_array4": [],
        "m_files_array5": [],
        "m_files_array6": [],
        "m_files_array7": [],
        "m_original_file_name_array": [
          "5. Sonus_202101201646_Jy.6chan.005.01.wav",
          "5. Sonus_202101201646_Jy.6chan.005.02.wav",
          "5. Sonus_202101201646_Jy.6chan.005.03.wav",
          "",
          "",
          "",
          "",
          ""
        ],
        "m_original_filepath_array": [
          "/home/mint/.Rack/recordings/loops/5. Sonus_202101201646_Jy.6chan.005.01.wav",
          "/home/mint/.Rack/recordings/loops/5. Sonus_202101201646_Jy.6chan.005.02.wav",
          "/home/mint/.Rack/recordings/loops/5. Sonus_202101201646_Jy.6chan.005.03.wav",
          "",
          "",
          "",
          "",
          ""
        ],
        "PA_START_SELECTION_value_array": [
          0.0,
          0.0,
          0.0,
          0.0,
          0.0,
          0.0,
          0.0,
          0.0
        ],
        "PA_END_SELECTION_value_array": [
          1.0,
          1.0,
          1.0,
          1.0,
          1.0,
          1.0,
          1.0,
          1.0
        ],
        "m_gated_array": [
          false,
          false,
          false,
          false,
          false,
          false,
          false,
          false
        ],
        "m_cycled_array": [
          true,
          true,
          true,
          false,
          false,
          false,
          false,
          false
        ],
        "m_active_array": [
          true,
          true,
          true,
          true,
          true,
          true,
          true,
          true
        ],
        "slice_start_array": [
          0,
          0,
          0,
          0,
          0,
          0,
          0,
          0
        ],
        "slice_end_array": [
          3207871,
          3207871,
          3207871,
          0,
          0,
          0,
          0,
          0
        ],
        "m_show_channels": 0,
        "m_show_time_mode": 0,
        "m_start_and_lenght_mode": false,
        "m_color_scheme_2": false,
        "m_busy_mode_array": [
          false,
          false,
          false,
          false,
          false,
          false,
          false,
          false
        ]
      },
      "pos": [
        40,
        0
      ]
    }
  ],
  "cables": [
    {
      "id": 204,
      "outputModuleId": 115,
      "outputId": 0,
      "inputModuleId": 28,
      "inputId": 0,
      "color": "#c91847"
    },
    {
      "id": 205,
      "outputModuleId": 115,
      "outputId": 4,
      "inputModuleId": 28,
      "inputId": 1,
      "color": "#c91847"
    },
    {
      "id": 206,
      "outputModuleId": 28,
      "outputId": 0,
      "inputModuleId": 115,
      "inputId": 0,
      "color": "#c91847"
    },
    {
      "id": 207,
      "outputModuleId": 28,
      "outputId": 1,
      "inputModuleId": 115,
      "inputId": 1,
      "color": "#c91847"
    },
    {
      "id": 219,
      "outputModuleId": 114,
      "outputId": 2,
      "inputModuleId": 126,
      "inputId": 0,
      "color": "#c91847"
    },
    {
      "id": 220,
      "outputModuleId": 114,
      "outputId": 3,
      "inputModuleId": 126,
      "inputId": 1,
      "color": "#c91847"
    },
    {
      "id": 319,
      "outputModuleId": 126,
      "outputId": 0,
      "inputModuleId": 25,
      "inputId": 0,
      "color": "#c91847"
    },
    {
      "id": 320,
      "outputModuleId": 126,
      "outputId": 1,
      "inputModuleId": 25,
      "inputId": 1,
      "color": "#c91847"
    },
    {
      "id": 325,
      "outputModuleId": 295,
      "outputId": 5,
      "inputModuleId": 293,
      "inputId": 4,
      "color": "#0c8e15"
    },
    {
      "id": 324,
      "outputModuleId": 295,
      "outputId": 4,
      "inputModuleId": 293,
      "inputId": 3,
      "color": "#0c8e15"
    },
    {
      "id": 321,
      "outputModuleId": 293,
      "outputId": 0,
      "inputModuleId": 296,
      "inputId": 0,
      "color": "#c91847"
    },
    {
      "id": 322,
      "outputModuleId": 293,
      "outputId": 4,
      "inputModuleId": 296,
      "inputId": 1,
      "color": "#c91847"
    },
    {
      "id": 323,
      "outputModuleId": 293,
      "outputId": 3,
      "inputModuleId": 296,
      "inputId": 2,
      "color": "#c91847"
    },
    {
      "id": 334,
      "outputModuleId": 24,
      "outputId": 1,
      "inputModuleId": 301,
      "inputId": 0,
      "color": "#0986ad"
    },
    {
      "id": 335,
      "outputModuleId": 296,
      "outputId": 0,
      "inputModuleId": 114,
      "inputId": 0,
      "color": "#c91847"
    },
    {
      "id": 332,
      "outputModuleId": 301,
      "outputId": 0,
      "inputModuleId": 293,
      "inputId": 0,
      "color": "#c9b70e"
    },
    {
      "id": 337,
      "outputModuleId": 24,
      "outputId": 4,
      "inputModuleId": 301,
      "inputId": 1,
      "color": "#0986ad"
    },
    {
      "id": 338,
      "outputModuleId": 300,
      "outputId": 0,
      "inputModuleId": 302,
      "inputId": 0,
      "color": "#c9b70e"
    },
    {
      "id": 339,
      "outputModuleId": 300,
      "outputId": 1,
      "inputModuleId": 302,
      "inputId": 3,
      "color": "#0986ad"
    },
    {
      "id": 342,
      "outputModuleId": 300,
      "outputId": 2,
      "inputModuleId": 302,
      "inputId": 5,
      "color": "#0c8e15"
    },
    {
      "id": 344,
      "outputModuleId": 24,
      "outputId": 0,
      "inputModuleId": 303,
      "inputId": 7,
      "color": "#0986ad"
    },
    {
      "id": 349,
      "outputModuleId": 24,
      "outputId": 2,
      "inputModuleId": 304,
      "inputId": 2,
      "color": "#0986ad"
    },
    {
      "id": 353,
      "outputModuleId": 295,
      "outputId": 6,
      "inputModuleId": 296,
      "inputId": 4,
      "color": "#0c8e15"
    },
    {
      "id": 354,
      "outputModuleId": 306,
      "outputId": 0,
      "inputModuleId": 303,
      "inputId": 5,
      "color": "#c91847"
    },
    {
      "id": 351,
      "outputModuleId": 302,
      "outputId": 0,
      "inputModuleId": 291,
      "inputId": 0,
      "color": "#c91847"
    },
    {
      "id": 352,
      "outputModuleId": 291,
      "outputId": 0,
      "inputModuleId": 306,
      "inputId": 0,
      "color": "#c91847"
    },
    {
      "id": 355,
      "outputModuleId": 295,
      "outputId": 5,
      "inputModuleId": 306,
      "inputId": 3,
      "color": "#0c8e15"
    },
    {
      "id": 359,
      "outputModuleId": 24,
      "outputId": 1,
      "inputModuleId": 309,
      "inputId": 0,
      "color": "#0986ad"
    },
    {
      "id": 360,
      "outputModuleId": 24,
      "outputId": 4,
      "inputModuleId": 309,
      "inputId": 1,
      "color": "#0986ad"
    },
    {
      "id": 361,
      "outputModuleId": 309,
      "outputId": 0,
      "inputModuleId": 310,
      "inputId": 0,
      "color": "#0986ad"
    },
    {
      "id": 362,
      "outputModuleId": 310,
      "outputId": 0,
      "inputModuleId": 314,
      "inputId": 0,
      "color": "#c91847"
    },
    {
      "id": 365,
      "outputModuleId": 309,
      "outputId": 1,
      "inputModuleId": 311,
      "inputId": 0,
      "color": "#0986ad"
    },
    {
      "id": 366,
      "outputModuleId": 311,
      "outputId": 0,
      "inputModuleId": 314,
      "inputId": 1,
      "color": "#c91847"
    },
    {
      "id": 367,
      "outputModuleId": 309,
      "outputId": 2,
      "inputModuleId": 312,
      "inputId": 0,
      "color": "#0986ad"
    },
    {
      "id": 368,
      "outputModuleId": 312,
      "outputId": 0,
      "inputModuleId": 314,
      "inputId": 2,
      "color": "#c91847"
    },
    {
      "id": 369,
      "outputModuleId": 309,
      "outputId": 3,
      "inputModuleId": 313,
      "inputId": 0,
      "color": "#0986ad"
    },
    {
      "id": 370,
      "outputModuleId": 313,
      "outputId": 0,
      "inputModuleId": 314,
      "inputId": 3,
      "color": "#c91847"
    },
    {
      "id": 364,
      "outputModuleId": 316,
      "outputId": 1,
      "inputModuleId": 114,
      "inputId": 5,
      "color": "#c91847"
    },
    {
      "id": 363,
      "outputModuleId": 316,
      "outputId": 0,
      "inputModuleId": 114,
      "inputId": 4,
      "color": "#c91847"
    },
    {
      "id": 372,
      "outputModuleId": 314,
      "outputId": 0,
      "inputModuleId": 316,
      "inputId": 0,
      "color": "#c91847"
    },
    {
      "id": 373,
      "outputModuleId": 314,
      "outputId": 1,
      "inputModuleId": 316,
      "inputId": 5,
      "color": "#c91847"
    },
    {
      "id": 374,
      "outputModuleId": 295,
      "outputId": 0,
      "inputModuleId": 314,
      "inputId": 17,
      "color": "#0c8e15"
    },
    {
      "id": 375,
      "outputModuleId": 295,
      "outputId": 1,
      "inputModuleId": 314,
      "inputId": 18,
      "color": "#0c8e15"
    },
    {
      "id": 376,
      "outputModuleId": 295,
      "outputId": 2,
      "inputModuleId": 314,
      "inputId": 16,
      "color": "#0c8e15"
    },
    {
      "id": 377,
      "outputModuleId": 318,
      "outputId": 0,
      "inputModuleId": 317,
      "inputId": 7,
      "color": "#c9b70e"
    },
    {
      "id": 378,
      "outputModuleId": 318,
      "outputId": 1,
      "inputModuleId": 317,
      "inputId": 5,
      "color": "#0986ad"
    },
    {
      "id": 379,
      "outputModuleId": 318,
      "outputId": 2,
      "inputModuleId": 317,
      "inputId": 1,
      "color": "#0c8e15"
    },
    {
      "id": 380,
      "outputModuleId": 317,
      "outputId": 0,
      "inputModuleId": 319,
      "inputId": 0,
      "color": "#c91847"
    },
    {
      "id": 381,
      "outputModuleId": 319,
      "outputId": 0,
      "inputModuleId": 289,
      "inputId": 0,
      "color": "#c91847"
    },
    {
      "id": 382,
      "outputModuleId": 319,
      "outputId": 1,
      "inputModuleId": 289,
      "inputId": 1,
      "color": "#c91847"
    },
    {
      "id": 387,
      "outputModuleId": 321,
      "outputId": 0,
      "inputModuleId": 320,
      "inputId": 0,
      "color": "#c9b70e"
    },
    {
      "id": 389,
      "outputModuleId": 320,
      "outputId": 7,
      "inputModuleId": 322,
      "inputId": 1,
      "color": "#c91847"
    },
    {
      "id": 391,
      "outputModuleId": 322,
      "outputId": 0,
      "inputModuleId": 290,
      "inputId": 0,
      "color": "#c91847"
    },
    {
      "id": 394,
      "outputModuleId": 290,
      "outputId": 0,
      "inputModuleId": 323,
      "inputId": 5,
      "color": "#c91847"
    },
    {
      "id": 395,
      "outputModuleId": 325,
      "outputId": 0,
      "inputModuleId": 320,
      "inputId": 16,
      "color": "#0c8e15"
    },
    {
      "id": 397,
      "outputModuleId": 321,
      "outputId": 0,
      "inputModuleId": 325,
      "inputId": 0,
      "color": "#0c8e15"
    },
    {
      "id": 346,
      "outputModuleId": 326,
      "outputId": 0,
      "inputModuleId": 304,
      "inputId": 0,
      "color": "#0986ad"
    },
    {
      "id": 350,
      "outputModuleId": 304,
      "outputId": 0,
      "inputModuleId": 291,
      "inputId": 1,
      "color": "#0986ad"
    },
    {
      "id": 702,
      "outputModuleId": 24,
      "outputId": 3,
      "inputModuleId": 289,
      "inputId": 2,
      "color": "#c91847"
    },
    {
      "id": 388,
      "outputModuleId": 321,
      "outputId": 5,
      "inputModuleId": 322,
      "inputId": 0,
      "color": "#0c8e15"
    },
    {
      "id": 390,
      "outputModuleId": 321,
      "outputId": 5,
      "inputModuleId": 320,
      "inputId": 4,
      "color": "#0c8e15"
    },
    {
      "id": 396,
      "outputModuleId": 321,
      "outputId": 5,
      "inputModuleId": 320,
      "inputId": 14,
      "color": "#0c8e15"
    },
    {
      "id": 709,
      "outputModuleId": 24,
      "outputId": 5,
      "inputModuleId": 290,
      "inputId": 2,
      "color": "#c9b70e"
    },
    {
      "id": 341,
      "outputModuleId": 303,
      "outputId": 0,
      "inputModuleId": 336,
      "inputId": 1,
      "color": "#c91847"
    },
    {
      "id": 343,
      "outputModuleId": 303,
      "outputId": 1,
      "inputModuleId": 336,
      "inputId": 2,
      "color": "#c91847"
    },
    {
      "id": 383,
      "outputModuleId": 289,
      "outputId": 0,
      "inputModuleId": 336,
      "inputId": 3,
      "color": "#c91847"
    },
    {
      "id": 384,
      "outputModuleId": 289,
      "outputId": 1,
      "inputModuleId": 336,
      "inputId": 4,
      "color": "#c91847"
    },
    {
      "id": 392,
      "outputModuleId": 323,
      "outputId": 0,
      "inputModuleId": 336,
      "inputId": 5,
      "color": "#c91847"
    },
    {
      "id": 393,
      "outputModuleId": 323,
      "outputId": 1,
      "inputModuleId": 336,
      "inputId": 6,
      "color": "#c91847"
    },
    {
      "id": 726,
      "outputModuleId": 342,
      "outputId": 0,
      "inputModuleId": 114,
      "inputId": 2,
      "color": "#c91847"
    },
    {
      "id": 727,
      "outputModuleId": 342,
      "outputId": 8,
      "inputModuleId": 114,
      "inputId": 3,
      "color": "#c91847"
    },
    {
      "id": 728,
      "outputModuleId": 342,
      "outputId": 1,
      "inputModuleId": 114,
      "inputId": 6,
      "color": "#0986ad"
    },
    {
      "id": 729,
      "outputModuleId": 342,
      "outputId": 9,
      "inputModuleId": 114,
      "inputId": 7,
      "color": "#0986ad"
    },
    {
      "id": 730,
      "outputModuleId": 342,
      "outputId": 2,
      "inputModuleId": 114,
      "inputId": 8,
      "color": "#0c8e15"
    },
    {
      "id": 731,
      "outputModuleId": 342,
      "outputId": 10,
      "inputModuleId": 114,
      "inputId": 9,
      "color": "#0c8e15"
    },
    {
      "id": 735,
      "outputModuleId": 24,
      "outputId": 5,
      "inputModuleId": 342,
      "inputId": 24,
      "color": "#0986ad"
    },
    {
      "id": 736,
      "outputModuleId": 24,
      "outputId": 5,
      "inputModuleId": 342,
      "inputId": 25,
      "color": "#c9b70e"
    },
    {
      "id": 737,
      "outputModuleId": 24,
      "outputId": 5,
      "inputModuleId": 342,
      "inputId": 26,
      "color": "#0c8e15"
    }
  ]
}