{
  "version": "1.1.2",
  "modules": [
    {
      "id": 25,
      "plugin": "Core",
      "version": "1.1.2",
      "model": "AudioInterface",
      "params": [],
      "leftModuleId": 62,
      "data": {
        "audio": {
          "driver": 7,
          "offset": 0,
          "maxChannels": 8,
          "sampleRate": 44100,
          "blockSize": 128
        }
      },
      "pos": [
        103,
        0
      ]
    },
    {
      "id": 41,
      "plugin": "NYSTHI",
      "version": "1.0.3",
      "model": "b208_5steps",
      "params": [
        {
          "id": 0,
          "value": 0.0
        },
        {
          "id": 1,
          "value": 0.0
        },
        {
          "id": 2,
          "value": 0.0
        },
        {
          "id": 3,
          "value": 0.0
        },
        {
          "id": 4,
          "value": 0.0
        },
        {
          "id": 5,
          "value": 0.0
        },
        {
          "id": 6,
          "value": 0.0
        },
        {
          "id": 7,
          "value": 0.168749943
        },
        {
          "id": 8,
          "value": 0.828750551
        },
        {
          "id": 9,
          "value": 0.419999927
        },
        {
          "id": 10,
          "value": 0.836250126
        },
        {
          "id": 11,
          "value": 0.746250331
        },
        {
          "id": 12,
          "value": 0.0
        },
        {
          "id": 13,
          "value": 0.0
        },
        {
          "id": 14,
          "value": 0.0
        },
        {
          "id": 15,
          "value": 0.0
        },
        {
          "id": 16,
          "value": 0.0
        },
        {
          "id": 17,
          "value": 0.0
        },
        {
          "id": 18,
          "value": 0.0
        },
        {
          "id": 19,
          "value": 0.0
        },
        {
          "id": 20,
          "value": 0.0
        },
        {
          "id": 21,
          "value": 1.0
        },
        {
          "id": 22,
          "value": 1.0
        },
        {
          "id": 23,
          "value": 1.0
        },
        {
          "id": 24,
          "value": 1.0
        },
        {
          "id": 25,
          "value": 1.0
        },
        {
          "id": 26,
          "value": 0.0
        },
        {
          "id": 27,
          "value": 0.0
        }
      ],
      "leftModuleId": 70,
      "rightModuleId": 54,
      "data": {
        "m_max_steps1": 5,
        "m_max_steps2": 5,
        "m_trig_on_bitset": 9,
        "m_trig_on2_bitset": 17,
        "m_reset_is_immediate": true
      },
      "pos": [
        4,
        1
      ]
    },
    {
      "id": 42,
      "plugin": "NYSTHI",
      "version": "1.0.3",
      "model": "b208_envelope",
      "params": [
        {
          "id": 0,
          "value": 10.0
        },
        {
          "id": 1,
          "value": 10.0
        },
        {
          "id": 2,
          "value": 8.79000568
        },
        {
          "id": 3,
          "value": 0.0
        },
        {
          "id": 4,
          "value": 0.0
        },
        {
          "id": 5,
          "value": 0.0
        },
        {
          "id": 6,
          "value": 4.0
        },
        {
          "id": 7,
          "value": 10.0
        },
        {
          "id": 8,
          "value": 6.0
        },
        {
          "id": 9,
          "value": 0.0
        },
        {
          "id": 10,
          "value": 0.0
        },
        {
          "id": 11,
          "value": 0.0
        }
      ],
      "leftModuleId": 57,
      "data": {
        "m_env_reset_to_zero": false,
        "m_sustained_mode": true,
        "m_sustained_mode2": false
      },
      "pos": [
        31,
        2
      ]
    },
    {
      "id": 43,
      "plugin": "NYSTHI",
      "version": "1.0.3",
      "model": "b208_pulser",
      "params": [
        {
          "id": 0,
          "value": 0.5
        },
        {
          "id": 1,
          "value": 9.8181324
        },
        {
          "id": 2,
          "value": 0.0
        },
        {
          "id": 3,
          "value": 0.0
        },
        {
          "id": 4,
          "value": 0.150000021
        },
        {
          "id": 5,
          "value": 10.0
        },
        {
          "id": 6,
          "value": 0.0
        },
        {
          "id": 7,
          "value": 0.5
        }
      ],
      "rightModuleId": 45,
      "data": {
        "m_autotrig": true,
        "m_autotrig2": false
      },
      "pos": [
        59,
        1
      ]
    },
    {
      "id": 44,
      "plugin": "NYSTHI",
      "version": "1.0.3",
      "model": "b208_random",
      "params": [
        {
          "id": 0,
          "value": 0.0
        },
        {
          "id": 1,
          "value": 0.0
        },
        {
          "id": 2,
          "value": 0.0
        }
      ],
      "leftModuleId": 53,
      "data": {},
      "pos": [
        95,
        2
      ]
    },
    {
      "id": 45,
      "plugin": "NYSTHI",
      "version": "1.0.3",
      "model": "b208_dualLPG",
      "params": [
        {
          "id": 0,
          "value": 0.0
        },
        {
          "id": 1,
          "value": 1.0
        },
        {
          "id": 2,
          "value": 0.0
        },
        {
          "id": 3,
          "value": 1.0
        },
        {
          "id": 4,
          "value": 0.5
        },
        {
          "id": 5,
          "value": 0.0
        },
        {
          "id": 6,
          "value": 0.0
        },
        {
          "id": 7,
          "value": 1.0
        },
        {
          "id": 8,
          "value": 0.0
        },
        {
          "id": 9,
          "value": 1.0
        },
        {
          "id": 10,
          "value": 0.524999857
        },
        {
          "id": 11,
          "value": 2.0
        },
        {
          "id": 12,
          "value": 0.5
        },
        {
          "id": 13,
          "value": 0.0
        },
        {
          "id": 14,
          "value": 0.0
        },
        {
          "id": 15,
          "value": 1.0
        }
      ],
      "leftModuleId": 43,
      "rightModuleId": 47,
      "data": {
        "m_vactrol_speed0": 1,
        "m_vactrol_speed1": 1,
        "m_vactrol_speed2": 1,
        "m_vactrol_speed3": 1,
        "m_vactrol_lineartities0": false,
        "m_vactrol_lineartities1": false,
        "m_vactrol_lineartities2": false,
        "m_vactrol_lineartities3": false
      },
      "pos": [
        63,
        1
      ]
    },
    {
      "id": 47,
      "plugin": "NYSTHI",
      "version": "1.0.3",
      "model": "SoyModelSOU",
      "params": [
        {
          "id": 0,
          "value": 0.0
        },
        {
          "id": 1,
          "value": 0.630500257
        },
        {
          "id": 2,
          "value": 0.0
        },
        {
          "id": 3,
          "value": 0.0
        },
        {
          "id": 4,
          "value": 0.5
        },
        {
          "id": 5,
          "value": 0.5
        },
        {
          "id": 6,
          "value": 0.5
        },
        {
          "id": 7,
          "value": 0.0
        },
        {
          "id": 8,
          "value": 0.0
        },
        {
          "id": 9,
          "value": 0.5
        },
        {
          "id": 10,
          "value": 0.0
        },
        {
          "id": 11,
          "value": 0.0
        },
        {
          "id": 12,
          "value": 3.0
        },
        {
          "id": 13,
          "value": 0.0
        },
        {
          "id": 14,
          "value": 0.5
        }
      ],
      "leftModuleId": 45,
      "data": {
        "m_data_can_repeat": false
      },
      "pos": [
        72,
        1
      ]
    },
    {
      "id": 49,
      "plugin": "NYSTHI",
      "version": "1.0.3",
      "model": "DelayAttackHoldDecay",
      "params": [
        {
          "id": 0,
          "value": 0.0
        },
        {
          "id": 1,
          "value": 0.0
        },
        {
          "id": 2,
          "value": 0.0
        },
        {
          "id": 3,
          "value": 0.303499818
        },
        {
          "id": 4,
          "value": 1.0
        },
        {
          "id": 5,
          "value": 1.0
        },
        {
          "id": 6,
          "value": 0.0
        },
        {
          "id": 7,
          "value": 0.0
        },
        {
          "id": 8,
          "value": 0.0
        },
        {
          "id": 9,
          "value": 0.0
        },
        {
          "id": 10,
          "value": 0.0
        },
        {
          "id": 11,
          "value": 0.0
        }
      ],
      "rightModuleId": 51,
      "data": {
        "m_looped": false,
        "m_hanged": false,
        "m_ZEROONTRIG": false,
        "m_TRIGIFSTABLE": false
      },
      "pos": [
        46,
        2
      ]
    },
    {
      "id": 51,
      "plugin": "NYSTHI",
      "version": "1.0.3",
      "model": "Model277",
      "params": [
        {
          "id": 0,
          "value": 0.25
        },
        {
          "id": 1,
          "value": 0.25
        },
        {
          "id": 2,
          "value": 1.0
        },
        {
          "id": 3,
          "value": 0.25
        },
        {
          "id": 4,
          "value": 0.134187445
        },
        {
          "id": 5,
          "value": 0.105999999
        },
        {
          "id": 6,
          "value": 1.0
        }
      ],
      "leftModuleId": 49,
      "pos": [
        52,
        2
      ]
    },
    {
      "id": 53,
      "plugin": "Hora-Processors",
      "version": "1.0.1",
      "model": "SpectralProcessor",
      "params": [
        {
          "id": 0,
          "value": 0.0
        },
        {
          "id": 1,
          "value": 0.0
        },
        {
          "id": 2,
          "value": 0.0
        },
        {
          "id": 3,
          "value": 0.0
        },
        {
          "id": 4,
          "value": 0.0
        },
        {
          "id": 5,
          "value": 0.0
        },
        {
          "id": 6,
          "value": 0.0
        },
        {
          "id": 7,
          "value": 0.0
        },
        {
          "id": 8,
          "value": 0.5
        },
        {
          "id": 9,
          "value": 0.5
        },
        {
          "id": 10,
          "value": 191.0
        },
        {
          "id": 11,
          "value": 69.75
        },
        {
          "id": 12,
          "value": 0.5
        },
        {
          "id": 13,
          "value": 0.0
        }
      ],
      "rightModuleId": 44,
      "data": {
        "bandGain_A": [
          0.300813019,
          0.300813019,
          0.300813019,
          0.300813019,
          0.294778973,
          0.227716386,
          0.13573426,
          0.074409306,
          1.98682155e-8,
          1.98682155e-8,
          1.98682155e-8,
          1.98682155e-8,
          1.98682155e-8,
          1.98682155e-8,
          1.98682155e-8,
          1.98682155e-8
        ],
        "bandGain_B": [
          1.98682155e-8,
          1.98682155e-8,
          1.98682155e-8,
          1.98682155e-8,
          1.98682155e-8,
          1.98682155e-8,
          0.00351458788,
          0.0514164194,
          0.0878218263,
          0.141482472,
          0.183636114,
          0.223884225,
          0.271786094,
          0.300813019,
          0.300813019,
          0.300813019
        ],
        "bandEnvLev": [
          4.14212865e-11,
          6.66492028e-10,
          1.00772519e-8,
          0.000169937237,
          2.63168415e-12,
          1.687375e-7,
          5.25191951e-39,
          1.3563128e-19,
          5.96046448e-8,
          5.96046448e-8,
          5.96046448e-8,
          5.96046448e-8,
          5.96046448e-8,
          5.96046448e-8,
          5.96046448e-8,
          5.96046448e-8
        ],
        "bandEnvDec": [
          5.5999999,
          5.5999999,
          5.5999999,
          5.5999999,
          5.5999999,
          5.5999999,
          5.5999999,
          5.5999999,
          5.5999999,
          5.5999999,
          5.5999999,
          5.5999999,
          5.5999999,
          5.5999999,
          5.5999999,
          5.5999999
        ],
        "displayMode": 2
      },
      "pos": [
        61,
        2
      ]
    },
    {
      "id": 54,
      "plugin": "dBiz",
      "version": "1.1.0",
      "model": "Verbo",
      "params": [
        {
          "id": 0,
          "value": 0.0
        },
        {
          "id": 1,
          "value": 0.0
        },
        {
          "id": 2,
          "value": 0.0
        },
        {
          "id": 3,
          "value": 0.0
        },
        {
          "id": 4,
          "value": -1.0
        },
        {
          "id": 5,
          "value": 0.0
        },
        {
          "id": 6,
          "value": 1.0
        },
        {
          "id": 7,
          "value": 0.0
        },
        {
          "id": 8,
          "value": 0.0
        },
        {
          "id": 9,
          "value": 0.0
        },
        {
          "id": 10,
          "value": 0.0
        },
        {
          "id": 11,
          "value": 0.0
        },
        {
          "id": 12,
          "value": 0.0
        },
        {
          "id": 13,
          "value": 0.0
        },
        {
          "id": 14,
          "value": 0.0
        },
        {
          "id": 15,
          "value": 0.0
        },
        {
          "id": 16,
          "value": 0.0
        }
      ],
      "leftModuleId": 41,
      "rightModuleId": 63,
      "pos": [
        13,
        1
      ]
    },
    {
      "id": 57,
      "plugin": "Fundamental",
      "version": "1.0.2",
      "model": "Scope",
      "params": [
        {
          "id": 0,
          "value": 0.0
        },
        {
          "id": 1,
          "value": 0.0
        },
        {
          "id": 2,
          "value": 0.0
        },
        {
          "id": 3,
          "value": 0.0
        },
        {
          "id": 4,
          "value": 16.0
        },
        {
          "id": 5,
          "value": 0.0
        },
        {
          "id": 6,
          "value": 0.0
        },
        {
          "id": 7,
          "value": 0.0
        }
      ],
      "leftModuleId": 64,
      "rightModuleId": 42,
      "data": {
        "lissajous": 0,
        "external": 0
      },
      "pos": [
        18,
        2
      ]
    },
    {
      "id": 60,
      "plugin": "NYSTHI",
      "version": "1.0.3",
      "model": "mix16",
      "params": [
        {
          "id": 0,
          "value": 0.0
        },
        {
          "id": 1,
          "value": 0.0
        },
        {
          "id": 2,
          "value": 0.0
        },
        {
          "id": 3,
          "value": 0.0
        },
        {
          "id": 4,
          "value": 0.0
        },
        {
          "id": 5,
          "value": 0.0
        },
        {
          "id": 6,
          "value": 0.0
        },
        {
          "id": 7,
          "value": 0.0
        },
        {
          "id": 8,
          "value": 0.0
        },
        {
          "id": 9,
          "value": 0.0
        },
        {
          "id": 10,
          "value": 0.0
        },
        {
          "id": 11,
          "value": 0.0
        },
        {
          "id": 12,
          "value": 0.0
        },
        {
          "id": 13,
          "value": 0.0
        },
        {
          "id": 14,
          "value": 0.0
        },
        {
          "id": 15,
          "value": 0.0
        },
        {
          "id": 16,
          "value": 0.0
        },
        {
          "id": 17,
          "value": 0.0
        },
        {
          "id": 18,
          "value": 0.0
        },
        {
          "id": 19,
          "value": 0.0
        },
        {
          "id": 20,
          "value": 0.0
        },
        {
          "id": 21,
          "value": 0.0
        },
        {
          "id": 22,
          "value": 0.0
        },
        {
          "id": 23,
          "value": 0.0
        },
        {
          "id": 24,
          "value": 0.0
        },
        {
          "id": 25,
          "value": 0.0
        },
        {
          "id": 26,
          "value": 0.0
        },
        {
          "id": 27,
          "value": 0.0
        },
        {
          "id": 28,
          "value": 0.0
        },
        {
          "id": 29,
          "value": 0.0
        },
        {
          "id": 30,
          "value": 0.0
        },
        {
          "id": 31,
          "value": 0.0
        },
        {
          "id": 32,
          "value": 0.0
        },
        {
          "id": 33,
          "value": 0.0
        },
        {
          "id": 34,
          "value": 0.0
        },
        {
          "id": 35,
          "value": 0.0
        },
        {
          "id": 36,
          "value": 0.0
        },
        {
          "id": 37,
          "value": 0.0
        },
        {
          "id": 38,
          "value": 0.0
        },
        {
          "id": 39,
          "value": 0.0
        },
        {
          "id": 40,
          "value": 0.0
        },
        {
          "id": 41,
          "value": 0.0
        },
        {
          "id": 42,
          "value": 0.0
        },
        {
          "id": 43,
          "value": 0.0
        },
        {
          "id": 44,
          "value": 0.0
        },
        {
          "id": 45,
          "value": 0.0
        },
        {
          "id": 46,
          "value": 0.0
        },
        {
          "id": 47,
          "value": 0.0
        },
        {
          "id": 48,
          "value": 0.0
        },
        {
          "id": 49,
          "value": 0.0
        },
        {
          "id": 50,
          "value": 0.0
        },
        {
          "id": 51,
          "value": 0.100000001
        },
        {
          "id": 52,
          "value": 0.0
        },
        {
          "id": 53,
          "value": 0.0
        },
        {
          "id": 54,
          "value": 0.0
        },
        {
          "id": 55,
          "value": 0.0
        },
        {
          "id": 56,
          "value": 0.0
        },
        {
          "id": 57,
          "value": 0.0
        },
        {
          "id": 58,
          "value": 0.0
        },
        {
          "id": 59,
          "value": 0.0
        },
        {
          "id": 60,
          "value": 0.0
        },
        {
          "id": 61,
          "value": 0.0
        },
        {
          "id": 62,
          "value": 0.0
        },
        {
          "id": 63,
          "value": 0.0
        },
        {
          "id": 64,
          "value": 0.0
        },
        {
          "id": 65,
          "value": 0.0
        },
        {
          "id": 66,
          "value": 0.0
        },
        {
          "id": 67,
          "value": 0.0
        },
        {
          "id": 68,
          "value": 0.0
        },
        {
          "id": 69,
          "value": 0.0
        },
        {
          "id": 70,
          "value": 0.0
        },
        {
          "id": 71,
          "value": 0.0
        }
      ],
      "rightModuleId": 61,
      "data": {
        "m_channels": [
          0.476835996,
          0.0,
          false,
          false,
          0.417851567,
          0.5,
          false,
          false,
          0.472421885,
          0.5,
          false,
          false,
          0.891328156,
          0.5,
          false,
          false,
          0.362578213,
          0.5,
          false,
          false,
          0.766953111,
          0.5,
          false,
          false,
          1.0,
          0.5,
          false,
          false,
          1.0,
          0.5,
          false,
          false,
          1.0,
          0.5,
          false,
          false,
          1.0,
          0.5,
          false,
          false,
          1.0,
          0.5,
          false,
          false,
          1.0,
          0.5,
          false,
          false,
          1.0,
          0.5,
          false,
          false,
          1.0,
          0.5,
          false,
          false,
          1.0,
          0.5,
          false,
          false,
          1.0,
          0.5,
          false,
          false
        ],
        "m_master_volume": 0.5,
        "m_master_mute_trig": false,
        "m_low_power": false,
        "m_cvcompatible": false,
        "m_show_post_out": false,
        "m_post_outputs_unaffected_by_solo_mode": false,
        "m_attenuation": 1.0,
        "m_limiting_mode": 0,
        "m_poly_out": 16
      },
      "pos": [
        61,
        0
      ]
    },
    {
      "id": 61,
      "plugin": "Valley",
      "version": "1.0.1",
      "model": "Plateau",
      "params": [
        {
          "id": 0,
          "value": 1.0
        },
        {
          "id": 1,
          "value": 0.306000203
        },
        {
          "id": 2,
          "value": 0.0
        },
        {
          "id": 3,
          "value": 8.12500191
        },
        {
          "id": 4,
          "value": 10.0
        },
        {
          "id": 5,
          "value": 0.5
        },
        {
          "id": 6,
          "value": 10.0
        },
        {
          "id": 7,
          "value": 0.390667737
        },
        {
          "id": 8,
          "value": 10.0
        },
        {
          "id": 9,
          "value": 8.45499992
        },
        {
          "id": 10,
          "value": 0.0
        },
        {
          "id": 11,
          "value": 0.5
        },
        {
          "id": 12,
          "value": 4.38800049
        },
        {
          "id": 13,
          "value": 0.0
        },
        {
          "id": 14,
          "value": 0.0
        },
        {
          "id": 15,
          "value": 0.0
        },
        {
          "id": 16,
          "value": 0.0
        },
        {
          "id": 17,
          "value": 0.0
        },
        {
          "id": 18,
          "value": 0.0
        },
        {
          "id": 19,
          "value": 0.0
        },
        {
          "id": 20,
          "value": 0.0
        },
        {
          "id": 21,
          "value": 0.0
        },
        {
          "id": 22,
          "value": 0.0
        },
        {
          "id": 23,
          "value": 0.0
        },
        {
          "id": 24,
          "value": 0.0
        },
        {
          "id": 25,
          "value": 0.0
        },
        {
          "id": 26,
          "value": 0.0
        },
        {
          "id": 27,
          "value": 0.0
        },
        {
          "id": 28,
          "value": 0.0
        },
        {
          "id": 29,
          "value": 0.0
        },
        {
          "id": 30,
          "value": 1.0
        }
      ],
      "leftModuleId": 60,
      "rightModuleId": 62,
      "data": {
        "frozen": false,
        "freezeToggle": false,
        "panelStyle": 0,
        "tuned": 0,
        "diffuseInput": 1,
        "preDelayCVSens": 0,
        "inputSensitivity": 0,
        "outputSaturation": 0
      },
      "pos": [
        85,
        0
      ]
    },
    {
      "id": 62,
      "plugin": "cf",
      "version": "1.1.0",
      "model": "STEREO",
      "params": [
        {
          "id": 0,
          "value": 0.0
        },
        {
          "id": 1,
          "value": 5.0
        },
        {
          "id": 2,
          "value": 0.0
        },
        {
          "id": 3,
          "value": 0.0
        }
      ],
      "leftModuleId": 61,
      "rightModuleId": 25,
      "data": {
        "solostate": 0,
        "onstate": 1
      },
      "pos": [
        97,
        0
      ]
    },
    {
      "id": 63,
      "plugin": "NYSTHI",
      "version": "1.0.3",
      "model": "QuadPanner",
      "params": [
        {
          "id": 0,
          "value": 2.0
        },
        {
          "id": 1,
          "value": 1.0
        },
        {
          "id": 2,
          "value": 0.0
        },
        {
          "id": 3,
          "value": 1.0
        },
        {
          "id": 4,
          "value": 0.0
        },
        {
          "id": 5,
          "value": 1.0
        },
        {
          "id": 6,
          "value": 0.0
        },
        {
          "id": 7,
          "value": 1.0
        },
        {
          "id": 8,
          "value": 0.0
        },
        {
          "id": 9,
          "value": 0.0
        },
        {
          "id": 10,
          "value": 0.514999866
        },
        {
          "id": 11,
          "value": 0.999899983
        },
        {
          "id": 12,
          "value": 0.0
        },
        {
          "id": 13,
          "value": 0.0
        }
      ],
      "leftModuleId": 54,
      "data": {
        "m_swirling": true,
        "m_equal_power_panning": false,
        "m_infinitedistance_center": false
      },
      "pos": [
        38,
        1
      ]
    },
    {
      "id": 64,
      "plugin": "LindenbergResearch",
      "version": "1.0.0",
      "model": "Westcoast_VCS",
      "params": [
        {
          "id": 0,
          "value": 0.0
        },
        {
          "id": 1,
          "value": 0.607499778
        },
        {
          "id": 2,
          "value": 0.0
        },
        {
          "id": 3,
          "value": 0.0
        },
        {
          "id": 4,
          "value": 2.0
        }
      ],
      "rightModuleId": 57,
      "gestaltID": 1,
      "gradient": true,
      "patina": true,
      "patina_a_x": -512.340332,
      "patina_a_y": -323.444244,
      "patina_b_x": -59.5766068,
      "patina_b_y": -59.1807365,
      "pos": [
        4,
        2
      ]
    },
    {
      "id": 70,
      "plugin": "NYSTHI",
      "version": "1.0.3",
      "model": "b208_pulser",
      "params": [
        {
          "id": 0,
          "value": 0.5
        },
        {
          "id": 1,
          "value": 6.2481308
        },
        {
          "id": 2,
          "value": 0.0
        },
        {
          "id": 3,
          "value": 0.0
        },
        {
          "id": 4,
          "value": 0.150000021
        },
        {
          "id": 5,
          "value": 6.49000168
        },
        {
          "id": 6,
          "value": 0.0
        },
        {
          "id": 7,
          "value": 0.5
        }
      ],
      "rightModuleId": 41,
      "data": {
        "m_autotrig": true,
        "m_autotrig2": false
      },
      "pos": [
        0,
        1
      ]
    }
  ],
  "cables": [
    {
      "id": 166,
      "outputModuleId": 62,
      "outputId": 3,
      "inputModuleId": 25,
      "inputId": 0,
      "color": "#707070"
    },
    {
      "id": 167,
      "outputModuleId": 62,
      "outputId": 4,
      "inputModuleId": 25,
      "inputId": 1,
      "color": "#707070"
    },
    {
      "id": 168,
      "outputModuleId": 61,
      "outputId": 0,
      "inputModuleId": 62,
      "inputId": 8,
      "color": "#707070"
    },
    {
      "id": 169,
      "outputModuleId": 61,
      "outputId": 1,
      "inputModuleId": 62,
      "inputId": 9,
      "color": "#707070"
    },
    {
      "id": 170,
      "outputModuleId": 60,
      "outputId": 0,
      "inputModuleId": 61,
      "inputId": 0,
      "color": "#707070"
    },
    {
      "id": 171,
      "outputModuleId": 60,
      "outputId": 1,
      "inputModuleId": 61,
      "inputId": 1,
      "color": "#707070"
    },
    {
      "id": 259,
      "outputModuleId": 43,
      "outputId": 0,
      "inputModuleId": 45,
      "inputId": 0,
      "color": "#0c8e15"
    },
    {
      "id": 260,
      "outputModuleId": 45,
      "outputId": 0,
      "inputModuleId": 60,
      "inputId": 0,
      "color": "#c91847"
    },
    {
      "id": 261,
      "outputModuleId": 47,
      "outputId": 8,
      "inputModuleId": 45,
      "inputId": 4,
      "color": "#0c8e15"
    },
    {
      "id": 264,
      "outputModuleId": 47,
      "outputId": 6,
      "inputModuleId": 60,
      "inputId": 51,
      "color": "#c9b70e"
    },
    {
      "id": 265,
      "outputModuleId": 43,
      "outputId": 0,
      "inputModuleId": 43,
      "inputId": 2,
      "color": "#707070"
    },
    {
      "id": 267,
      "outputModuleId": 43,
      "outputId": 1,
      "inputModuleId": 45,
      "inputId": 2,
      "color": "#0986ad"
    },
    {
      "id": 268,
      "outputModuleId": 45,
      "outputId": 2,
      "inputModuleId": 60,
      "inputId": 1,
      "color": "#c91847"
    },
    {
      "id": 269,
      "outputModuleId": 47,
      "outputId": 9,
      "inputModuleId": 45,
      "inputId": 6,
      "color": "#0c8e15"
    },
    {
      "id": 271,
      "outputModuleId": 47,
      "outputId": 7,
      "inputModuleId": 43,
      "inputId": 3,
      "color": "#c9b70e"
    },
    {
      "id": 274,
      "outputModuleId": 41,
      "outputId": 1,
      "inputModuleId": 54,
      "inputId": 1,
      "color": "#0c8e15"
    },
    {
      "id": 275,
      "outputModuleId": 70,
      "outputId": 0,
      "inputModuleId": 47,
      "inputId": 0,
      "color": "#c91847"
    },
    {
      "id": 276,
      "outputModuleId": 70,
      "outputId": 0,
      "inputModuleId": 41,
      "inputId": 1,
      "color": "#0986ad"
    },
    {
      "id": 277,
      "outputModuleId": 54,
      "outputId": 0,
      "inputModuleId": 60,
      "inputId": 2,
      "color": "#707070"
    },
    {
      "id": 278,
      "outputModuleId": 47,
      "outputId": 10,
      "inputModuleId": 63,
      "inputId": 0,
      "color": "#c9b70e"
    },
    {
      "id": 279,
      "outputModuleId": 63,
      "outputId": 0,
      "inputModuleId": 54,
      "inputId": 6,
      "color": "#0c8e15"
    },
    {
      "id": 280,
      "outputModuleId": 63,
      "outputId": 1,
      "inputModuleId": 54,
      "inputId": 7,
      "color": "#c91847"
    },
    {
      "id": 281,
      "outputModuleId": 63,
      "outputId": 2,
      "inputModuleId": 54,
      "inputId": 8,
      "color": "#0986ad"
    },
    {
      "id": 282,
      "outputModuleId": 63,
      "outputId": 3,
      "inputModuleId": 54,
      "inputId": 9,
      "color": "#707070"
    },
    {
      "id": 283,
      "outputModuleId": 54,
      "outputId": 3,
      "inputModuleId": 49,
      "inputId": 9,
      "color": "#c9b70e"
    },
    {
      "id": 284,
      "outputModuleId": 54,
      "outputId": 2,
      "inputModuleId": 49,
      "inputId": 10,
      "color": "#0c8e15"
    },
    {
      "id": 287,
      "outputModuleId": 41,
      "outputId": 0,
      "inputModuleId": 49,
      "inputId": 6,
      "color": "#c9b70e"
    },
    {
      "id": 288,
      "outputModuleId": 49,
      "outputId": 2,
      "inputModuleId": 51,
      "inputId": 0,
      "color": "#0c8e15"
    },
    {
      "id": 289,
      "outputModuleId": 49,
      "outputId": 3,
      "inputModuleId": 51,
      "inputId": 1,
      "color": "#c91847"
    },
    {
      "id": 290,
      "outputModuleId": 51,
      "outputId": 3,
      "inputModuleId": 60,
      "inputId": 4,
      "color": "#0986ad"
    },
    {
      "id": 291,
      "outputModuleId": 51,
      "outputId": 2,
      "inputModuleId": 60,
      "inputId": 21,
      "color": "#707070"
    },
    {
      "id": 292,
      "outputModuleId": 51,
      "outputId": 1,
      "inputModuleId": 51,
      "inputId": 2,
      "color": "#c9b70e"
    },
    {
      "id": 293,
      "outputModuleId": 49,
      "outputId": 2,
      "inputModuleId": 53,
      "inputId": 16,
      "color": "#c91847"
    },
    {
      "id": 294,
      "outputModuleId": 49,
      "outputId": 3,
      "inputModuleId": 53,
      "inputId": 17,
      "color": "#0986ad"
    },
    {
      "id": 295,
      "outputModuleId": 53,
      "outputId": 17,
      "inputModuleId": 60,
      "inputId": 3,
      "color": "#707070"
    },
    {
      "id": 296,
      "outputModuleId": 53,
      "outputId": 18,
      "inputModuleId": 60,
      "inputId": 20,
      "color": "#c9b70e"
    },
    {
      "id": 298,
      "outputModuleId": 41,
      "outputId": 0,
      "inputModuleId": 44,
      "inputId": 0,
      "color": "#c91847"
    },
    {
      "id": 299,
      "outputModuleId": 44,
      "outputId": 0,
      "inputModuleId": 53,
      "inputId": 18,
      "color": "#0986ad"
    },
    {
      "id": 300,
      "outputModuleId": 44,
      "outputId": 1,
      "inputModuleId": 53,
      "inputId": 6,
      "color": "#707070"
    },
    {
      "id": 301,
      "outputModuleId": 44,
      "outputId": 2,
      "inputModuleId": 53,
      "inputId": 9,
      "color": "#c9b70e"
    },
    {
      "id": 302,
      "outputModuleId": 44,
      "outputId": 3,
      "inputModuleId": 53,
      "inputId": 11,
      "color": "#0c8e15"
    },
    {
      "id": 303,
      "outputModuleId": 44,
      "outputId": 0,
      "inputModuleId": 51,
      "inputId": 6,
      "color": "#c91847"
    },
    {
      "id": 304,
      "outputModuleId": 54,
      "outputId": 1,
      "inputModuleId": 64,
      "inputId": 0,
      "color": "#0986ad"
    },
    {
      "id": 305,
      "outputModuleId": 64,
      "outputId": 0,
      "inputModuleId": 57,
      "inputId": 0,
      "color": "#707070"
    },
    {
      "id": 306,
      "outputModuleId": 64,
      "outputId": 0,
      "inputModuleId": 60,
      "inputId": 5,
      "color": "#c9b70e"
    },
    {
      "id": 307,
      "outputModuleId": 70,
      "outputId": 0,
      "inputModuleId": 70,
      "inputId": 2,
      "color": "#0c8e15"
    },
    {
      "id": 308,
      "outputModuleId": 70,
      "outputId": 1,
      "inputModuleId": 41,
      "inputId": 3,
      "color": "#c91847"
    },
    {
      "id": 309,
      "outputModuleId": 41,
      "outputId": 2,
      "inputModuleId": 42,
      "inputId": 0,
      "color": "#0986ad"
    },
    {
      "id": 310,
      "outputModuleId": 42,
      "outputId": 2,
      "inputModuleId": 64,
      "inputId": 1,
      "color": "#707070"
    },
    {
      "id": 311,
      "outputModuleId": 47,
      "outputId": 11,
      "inputModuleId": 42,
      "inputId": 3,
      "color": "#c9b70e"
    }
  ]
}