{
  "version": "1.1.6",
  "modules": [
    {
      "id": 21,
      "plugin": "mscHack",
      "version": "1.0.2",
      "model": "Mix_16_4_4",
      "params": [
        {
          "id": 0,
          "value": 0.5
        },
        {
          "id": 1,
          "value": 0.0
        },
        {
          "id": 2,
          "value": 0.0
        },
        {
          "id": 3,
          "value": 0.0
        },
        {
          "id": 4,
          "value": 0.0
        },
        {
          "id": 5,
          "value": 0.0
        },
        {
          "id": 6,
          "value": 0.0
        },
        {
          "id": 7,
          "value": 0.0
        },
        {
          "id": 8,
          "value": 0.329999775
        },
        {
          "id": 9,
          "value": 0.0
        },
        {
          "id": 10,
          "value": 0.0
        },
        {
          "id": 11,
          "value": 0.0
        },
        {
          "id": 12,
          "value": 0.0
        },
        {
          "id": 13,
          "value": 0.0
        },
        {
          "id": 14,
          "value": 0.0
        },
        {
          "id": 15,
          "value": 0.0
        },
        {
          "id": 16,
          "value": 0.0
        },
        {
          "id": 17,
          "value": 0.0
        },
        {
          "id": 18,
          "value": 0.0
        },
        {
          "id": 19,
          "value": 0.0
        },
        {
          "id": 20,
          "value": 0.0
        },
        {
          "id": 21,
          "value": 0.461999953
        },
        {
          "id": 22,
          "value": 0.0
        },
        {
          "id": 23,
          "value": 0.0
        },
        {
          "id": 24,
          "value": 0.0
        },
        {
          "id": 25,
          "value": 0.0
        },
        {
          "id": 26,
          "value": 0.0
        },
        {
          "id": 27,
          "value": 0.0
        },
        {
          "id": 28,
          "value": 0.0
        },
        {
          "id": 29,
          "value": 0.0
        },
        {
          "id": 30,
          "value": 0.0
        },
        {
          "id": 31,
          "value": 0.0
        },
        {
          "id": 32,
          "value": 0.0
        },
        {
          "id": 33,
          "value": 0.0
        },
        {
          "id": 34,
          "value": 0.0
        },
        {
          "id": 35,
          "value": 0.0
        },
        {
          "id": 36,
          "value": 0.0
        },
        {
          "id": 37,
          "value": 0.0
        },
        {
          "id": 38,
          "value": 0.0
        },
        {
          "id": 39,
          "value": 0.0
        },
        {
          "id": 40,
          "value": 0.0
        },
        {
          "id": 41,
          "value": 0.0
        },
        {
          "id": 42,
          "value": 0.0
        },
        {
          "id": 43,
          "value": 0.0
        },
        {
          "id": 44,
          "value": 0.0
        },
        {
          "id": 45,
          "value": 0.0
        },
        {
          "id": 46,
          "value": 0.0
        },
        {
          "id": 47,
          "value": 0.0
        },
        {
          "id": 48,
          "value": 0.0
        },
        {
          "id": 49,
          "value": 0.5
        },
        {
          "id": 50,
          "value": 0.5
        },
        {
          "id": 51,
          "value": 0.5
        },
        {
          "id": 52,
          "value": 0.5
        },
        {
          "id": 53,
          "value": 0.5
        },
        {
          "id": 54,
          "value": 0.5
        },
        {
          "id": 55,
          "value": 0.5
        },
        {
          "id": 56,
          "value": 0.5
        },
        {
          "id": 57,
          "value": 0.5
        },
        {
          "id": 58,
          "value": 0.5
        },
        {
          "id": 59,
          "value": 0.5
        },
        {
          "id": 60,
          "value": 0.5
        },
        {
          "id": 61,
          "value": 0.5
        },
        {
          "id": 62,
          "value": 0.5
        },
        {
          "id": 63,
          "value": 0.5
        },
        {
          "id": 64,
          "value": 0.5
        },
        {
          "id": 65,
          "value": 0.5
        },
        {
          "id": 66,
          "value": 0.5
        },
        {
          "id": 67,
          "value": 0.5
        },
        {
          "id": 68,
          "value": 0.5
        },
        {
          "id": 69,
          "value": 0.5
        },
        {
          "id": 70,
          "value": 0.5
        },
        {
          "id": 71,
          "value": 0.5
        },
        {
          "id": 72,
          "value": 0.5
        },
        {
          "id": 73,
          "value": 0.5
        },
        {
          "id": 74,
          "value": 0.5
        },
        {
          "id": 75,
          "value": 0.5
        },
        {
          "id": 76,
          "value": 0.5
        },
        {
          "id": 77,
          "value": 0.5
        },
        {
          "id": 78,
          "value": 0.5
        },
        {
          "id": 79,
          "value": 0.5
        },
        {
          "id": 80,
          "value": 0.5
        },
        {
          "id": 81,
          "value": 0.5
        },
        {
          "id": 82,
          "value": 0.5
        },
        {
          "id": 83,
          "value": 0.5
        },
        {
          "id": 84,
          "value": 0.5
        },
        {
          "id": 85,
          "value": 0.5
        },
        {
          "id": 86,
          "value": 0.5
        },
        {
          "id": 87,
          "value": 0.5
        },
        {
          "id": 88,
          "value": 0.5
        },
        {
          "id": 89,
          "value": 0.5
        },
        {
          "id": 90,
          "value": 0.5
        },
        {
          "id": 91,
          "value": 0.5
        },
        {
          "id": 92,
          "value": 0.5
        },
        {
          "id": 93,
          "value": 0.5
        },
        {
          "id": 94,
          "value": 0.5
        },
        {
          "id": 95,
          "value": 0.5
        },
        {
          "id": 96,
          "value": 0.5
        },
        {
          "id": 97,
          "value": 0.5
        },
        {
          "id": 98,
          "value": 0.5
        },
        {
          "id": 99,
          "value": 0.5
        },
        {
          "id": 100,
          "value": 0.5
        },
        {
          "id": 101,
          "value": 0.5
        },
        {
          "id": 102,
          "value": 0.5
        },
        {
          "id": 103,
          "value": 0.5
        },
        {
          "id": 104,
          "value": 0.5
        },
        {
          "id": 105,
          "value": 0.5
        },
        {
          "id": 106,
          "value": 0.0
        },
        {
          "id": 107,
          "value": 0.5
        },
        {
          "id": 108,
          "value": 0.5
        },
        {
          "id": 109,
          "value": 0.5
        },
        {
          "id": 110,
          "value": 0.5
        },
        {
          "id": 111,
          "value": 0.5
        },
        {
          "id": 112,
          "value": 0.5
        },
        {
          "id": 113,
          "value": 0.5
        },
        {
          "id": 114,
          "value": 0.5
        },
        {
          "id": 115,
          "value": 0.5
        },
        {
          "id": 116,
          "value": 0.5
        },
        {
          "id": 117,
          "value": 0.5
        },
        {
          "id": 118,
          "value": 0.5
        },
        {
          "id": 119,
          "value": 0.5
        },
        {
          "id": 120,
          "value": 0.5
        },
        {
          "id": 121,
          "value": 0.456000239
        },
        {
          "id": 122,
          "value": 0.0
        },
        {
          "id": 123,
          "value": 0.0
        },
        {
          "id": 124,
          "value": 0.0
        },
        {
          "id": 125,
          "value": 1.0
        },
        {
          "id": 126,
          "value": 0.0
        },
        {
          "id": 127,
          "value": 0.0
        },
        {
          "id": 128,
          "value": 0.0
        },
        {
          "id": 129,
          "value": 1.0
        },
        {
          "id": 130,
          "value": 0.0
        },
        {
          "id": 131,
          "value": 0.0
        },
        {
          "id": 132,
          "value": 0.0
        },
        {
          "id": 133,
          "value": 0.0
        },
        {
          "id": 134,
          "value": 0.0
        },
        {
          "id": 135,
          "value": 0.0
        },
        {
          "id": 136,
          "value": 0.0
        },
        {
          "id": 137,
          "value": 0.532499969
        },
        {
          "id": 138,
          "value": 0.0
        },
        {
          "id": 139,
          "value": 0.0
        },
        {
          "id": 140,
          "value": 0.0
        },
        {
          "id": 141,
          "value": 0.0
        },
        {
          "id": 142,
          "value": 0.0
        },
        {
          "id": 143,
          "value": 0.0
        },
        {
          "id": 144,
          "value": 0.0
        },
        {
          "id": 145,
          "value": 0.133499995
        },
        {
          "id": 146,
          "value": 0.0
        },
        {
          "id": 147,
          "value": 0.0
        },
        {
          "id": 148,
          "value": 0.0
        },
        {
          "id": 149,
          "value": 0.56250006
        },
        {
          "id": 150,
          "value": 0.0
        },
        {
          "id": 151,
          "value": 0.0
        },
        {
          "id": 152,
          "value": 0.0
        },
        {
          "id": 153,
          "value": 0.4815
        },
        {
          "id": 154,
          "value": 0.0
        },
        {
          "id": 155,
          "value": 0.0
        },
        {
          "id": 156,
          "value": 0.0
        },
        {
          "id": 157,
          "value": 1.0
        },
        {
          "id": 158,
          "value": 0.0
        },
        {
          "id": 159,
          "value": 0.0
        },
        {
          "id": 160,
          "value": 0.0
        },
        {
          "id": 161,
          "value": 0.0
        },
        {
          "id": 162,
          "value": 0.0
        },
        {
          "id": 163,
          "value": 0.0
        },
        {
          "id": 164,
          "value": 0.0
        },
        {
          "id": 165,
          "value": 0.0
        },
        {
          "id": 166,
          "value": 0.0
        },
        {
          "id": 167,
          "value": 0.0
        },
        {
          "id": 168,
          "value": 0.0
        },
        {
          "id": 169,
          "value": 0.0
        },
        {
          "id": 170,
          "value": 0.0
        },
        {
          "id": 171,
          "value": 0.0
        },
        {
          "id": 172,
          "value": 0.0
        },
        {
          "id": 173,
          "value": 0.0
        },
        {
          "id": 174,
          "value": 0.0
        },
        {
          "id": 175,
          "value": 0.0
        },
        {
          "id": 176,
          "value": 0.0
        },
        {
          "id": 177,
          "value": 0.0
        },
        {
          "id": 178,
          "value": 0.0
        },
        {
          "id": 179,
          "value": 0.0
        },
        {
          "id": 180,
          "value": 0.0
        },
        {
          "id": 181,
          "value": 0.0
        },
        {
          "id": 182,
          "value": 0.0
        },
        {
          "id": 183,
          "value": 0.0
        },
        {
          "id": 184,
          "value": 0.0
        },
        {
          "id": 185,
          "value": 0.0
        },
        {
          "id": 186,
          "value": 0.0
        },
        {
          "id": 187,
          "value": 0.0
        },
        {
          "id": 188,
          "value": 0.0
        },
        {
          "id": 189,
          "value": 0.0
        },
        {
          "id": 190,
          "value": 0.0
        },
        {
          "id": 191,
          "value": 0.0
        },
        {
          "id": 192,
          "value": 0.0
        },
        {
          "id": 193,
          "value": 0.0
        },
        {
          "id": 194,
          "value": 0.0
        },
        {
          "id": 195,
          "value": 0.0
        },
        {
          "id": 196,
          "value": 0.0
        },
        {
          "id": 197,
          "value": 0.0
        },
        {
          "id": 198,
          "value": 0.0
        },
        {
          "id": 199,
          "value": 0.0
        },
        {
          "id": 200,
          "value": 0.0
        },
        {
          "id": 201,
          "value": 1.0
        },
        {
          "id": 202,
          "value": 0.0
        },
        {
          "id": 203,
          "value": 0.0
        },
        {
          "id": 204,
          "value": 0.0
        }
      ],
      "rightModuleId": 103,
      "data": {
        "m_bMuteStates": [
          false,
          false,
          false,
          false,
          false,
          false,
          false,
          true,
          false,
          false,
          false,
          false,
          false,
          false,
          false,
          false,
          false,
          false,
          false,
          false,
          false,
          false,
          false,
          false
        ],
        "m_bSoloStates": [
          false,
          false,
          false,
          false,
          false,
          false,
          false,
          false,
          false,
          false,
          false,
          false,
          false,
          false,
          false,
          false,
          false,
          false,
          false,
          false,
          false,
          false,
          false,
          false
        ],
        "m_iRouteGroup": [
          4,
          4,
          4,
          4,
          4,
          4,
          4,
          4,
          4,
          4,
          4,
          4,
          4,
          4,
          4,
          4
        ],
        "m_bGroupPreMute": [
          true
        ],
        "m_bGainLevelx2": [
          false
        ],
        "m_bPreFader": [
          false,
          false,
          false,
          false,
          false,
          false,
          false,
          false,
          false,
          false,
          false,
          false,
          false,
          false,
          false,
          false,
          false,
          false,
          false,
          false
        ],
        "m_bAuxIgnoreSolo": [
          true
        ]
      },
      "pos": [
        71,
        0
      ]
    },
    {
      "id": 24,
      "plugin": "ImpromptuModular",
      "version": "1.1.2",
      "model": "Clocked",
      "params": [
        {
          "id": 0,
          "value": 168.0
        },
        {
          "id": 1,
          "value": 2.0
        },
        {
          "id": 2,
          "value": -17.0
        },
        {
          "id": 3,
          "value": -2.0
        },
        {
          "id": 4,
          "value": 0.0
        },
        {
          "id": 5,
          "value": 0.0
        },
        {
          "id": 6,
          "value": 0.0
        },
        {
          "id": 7,
          "value": 0.0
        },
        {
          "id": 8,
          "value": 0.5
        },
        {
          "id": 9,
          "value": 0.5
        },
        {
          "id": 10,
          "value": 0.0
        },
        {
          "id": 11,
          "value": 0.5
        },
        {
          "id": 12,
          "value": 0.0
        },
        {
          "id": 13,
          "value": 0.0
        },
        {
          "id": 14,
          "value": 0.0
        },
        {
          "id": 15,
          "value": 0.0
        },
        {
          "id": 16,
          "value": 0.0
        },
        {
          "id": 17,
          "value": 0.0
        },
        {
          "id": 18,
          "value": 0.0
        },
        {
          "id": 19,
          "value": 0.0
        }
      ],
      "rightModuleId": 159,
      "data": {
        "panelTheme": 1,
        "running": true,
        "displayDelayNoteMode": true,
        "bpmDetectionMode": false,
        "restartOnStopStartRun": 0,
        "sendResetOnRestart": false,
        "ppqn": 4,
        "resetClockOutputsHigh": true
      },
      "pos": [
        0,
        0
      ]
    },
    {
      "id": 25,
      "plugin": "Core",
      "version": "1.1.6",
      "model": "AudioInterface",
      "params": [],
      "leftModuleId": 103,
      "data": {
        "audio": {
          "driver": 4,
          "deviceName": "system",
          "offset": 0,
          "maxChannels": 8,
          "sampleRate": 48000,
          "blockSize": 1024
        }
      },
      "pos": [
        128,
        0
      ]
    },
    {
      "id": 103,
      "plugin": "Valley",
      "version": "1.0.1",
      "model": "Plateau",
      "params": [
        {
          "id": 0,
          "value": 0.0
        },
        {
          "id": 1,
          "value": 1.0
        },
        {
          "id": 2,
          "value": 0.0
        },
        {
          "id": 3,
          "value": 8.91999912
        },
        {
          "id": 4,
          "value": 10.0
        },
        {
          "id": 5,
          "value": 0.5
        },
        {
          "id": 6,
          "value": 10.0
        },
        {
          "id": 7,
          "value": 0.479757816
        },
        {
          "id": 8,
          "value": 10.0
        },
        {
          "id": 9,
          "value": 8.76999855
        },
        {
          "id": 10,
          "value": 0.0
        },
        {
          "id": 11,
          "value": 0.5
        },
        {
          "id": 12,
          "value": 5.70799971
        },
        {
          "id": 13,
          "value": 0.0
        },
        {
          "id": 14,
          "value": 0.0
        },
        {
          "id": 15,
          "value": 0.0
        },
        {
          "id": 16,
          "value": 0.0
        },
        {
          "id": 17,
          "value": 0.0
        },
        {
          "id": 18,
          "value": 0.0
        },
        {
          "id": 19,
          "value": 0.0
        },
        {
          "id": 20,
          "value": 0.0
        },
        {
          "id": 21,
          "value": 0.0
        },
        {
          "id": 22,
          "value": 0.0
        },
        {
          "id": 23,
          "value": 0.0
        },
        {
          "id": 24,
          "value": 0.0
        },
        {
          "id": 25,
          "value": 0.0
        },
        {
          "id": 26,
          "value": 0.0
        },
        {
          "id": 27,
          "value": 0.0
        },
        {
          "id": 28,
          "value": 0.0
        },
        {
          "id": 29,
          "value": 0.0
        },
        {
          "id": 30,
          "value": 1.0
        }
      ],
      "leftModuleId": 21,
      "rightModuleId": 25,
      "data": {
        "frozen": false,
        "freezeToggle": false,
        "panelStyle": 0,
        "tuned": 0,
        "diffuseInput": 1,
        "preDelayCVSens": 0,
        "inputSensitivity": 0,
        "outputSaturation": 0
      },
      "pos": [
        116,
        0
      ]
    },
    {
      "id": 149,
      "plugin": "ML_modules",
      "version": "1.0.3",
      "model": "Constants",
      "params": [],
      "pos": [
        0,
        1
      ]
    },
    {
      "id": 150,
      "plugin": "Bogaudio",
      "version": "1.1.23",
      "model": "Bogaudio-FMOp",
      "params": [
        {
          "id": 0,
          "value": 0.0
        },
        {
          "id": 1,
          "value": 0.0
        },
        {
          "id": 2,
          "value": 0.0239999983
        },
        {
          "id": 3,
          "value": 0.316229999
        },
        {
          "id": 4,
          "value": 0.0
        },
        {
          "id": 5,
          "value": 0.316229999
        },
        {
          "id": 6,
          "value": 0.0
        },
        {
          "id": 7,
          "value": 0.203999966
        },
        {
          "id": 8,
          "value": 1.0
        },
        {
          "id": 9,
          "value": 1.0
        },
        {
          "id": 10,
          "value": 0.0
        },
        {
          "id": 11,
          "value": 0.0
        }
      ],
      "leftModuleId": 156,
      "rightModuleId": 151,
      "data": {
        "linearLevel": false
      },
      "pos": [
        53,
        1
      ]
    },
    {
      "id": 151,
      "plugin": "Bogaudio",
      "version": "1.1.23",
      "model": "Bogaudio-FMOp",
      "params": [
        {
          "id": 0,
          "value": 0.0
        },
        {
          "id": 1,
          "value": 0.0
        },
        {
          "id": 2,
          "value": 0.0344999991
        },
        {
          "id": 3,
          "value": 0.316229999
        },
        {
          "id": 4,
          "value": 0.0
        },
        {
          "id": 5,
          "value": 0.316229999
        },
        {
          "id": 6,
          "value": 0.0
        },
        {
          "id": 7,
          "value": 0.18599993
        },
        {
          "id": 8,
          "value": 1.0
        },
        {
          "id": 9,
          "value": 1.0
        },
        {
          "id": 10,
          "value": 0.0
        },
        {
          "id": 11,
          "value": 0.0
        }
      ],
      "leftModuleId": 150,
      "data": {
        "linearLevel": false
      },
      "pos": [
        63,
        1
      ]
    },
    {
      "id": 152,
      "plugin": "ML_modules",
      "version": "1.0.3",
      "model": "Quantum",
      "params": [
        {
          "id": 0,
          "value": 0.0
        },
        {
          "id": 1,
          "value": 0.0
        },
        {
          "id": 2,
          "value": 0.0
        },
        {
          "id": 3,
          "value": 0.0
        },
        {
          "id": 4,
          "value": 0.0
        },
        {
          "id": 5,
          "value": 0.0
        },
        {
          "id": 6,
          "value": 0.0
        },
        {
          "id": 7,
          "value": 0.0
        },
        {
          "id": 8,
          "value": 0.0
        },
        {
          "id": 9,
          "value": 0.0
        },
        {
          "id": 10,
          "value": 0.0
        },
        {
          "id": 11,
          "value": 0.0
        }
      ],
      "leftModuleId": 153,
      "rightModuleId": 155,
      "data": {
        "scale": [
          1,
          0,
          1,
          1,
          0,
          1,
          0,
          1,
          1,
          0,
          1,
          0
        ],
        "mode": 4,
        "transpose_select": 1,
        "toggle_mode": 0
      },
      "pos": [
        35,
        1
      ]
    },
    {
      "id": 153,
      "plugin": "ML_modules",
      "version": "1.0.3",
      "model": "Quantum",
      "params": [
        {
          "id": 0,
          "value": 0.0
        },
        {
          "id": 1,
          "value": 0.0
        },
        {
          "id": 2,
          "value": 0.0
        },
        {
          "id": 3,
          "value": 0.0
        },
        {
          "id": 4,
          "value": 0.0
        },
        {
          "id": 5,
          "value": 0.0
        },
        {
          "id": 6,
          "value": 0.0
        },
        {
          "id": 7,
          "value": 0.0
        },
        {
          "id": 8,
          "value": 0.0
        },
        {
          "id": 9,
          "value": 0.0
        },
        {
          "id": 10,
          "value": 0.0
        },
        {
          "id": 11,
          "value": 0.0
        }
      ],
      "leftModuleId": 154,
      "rightModuleId": 152,
      "data": {
        "scale": [
          1,
          0,
          0,
          1,
          0,
          0,
          0,
          1,
          0,
          0,
          0,
          0
        ],
        "mode": 1,
        "transpose_select": 1,
        "toggle_mode": 0
      },
      "pos": [
        27,
        1
      ]
    },
    {
      "id": 154,
      "plugin": "Fundamental",
      "version": "1.4.0",
      "model": "Merge",
      "params": [],
      "rightModuleId": 153,
      "data": {
        "channels": -1
      },
      "pos": [
        22,
        1
      ]
    },
    {
      "id": 155,
      "plugin": "Fundamental",
      "version": "1.4.0",
      "model": "Split",
      "params": [],
      "leftModuleId": 152,
      "rightModuleId": 156,
      "pos": [
        43,
        1
      ]
    },
    {
      "id": 156,
      "plugin": "Fundamental",
      "version": "1.4.0",
      "model": "Split",
      "params": [],
      "leftModuleId": 155,
      "rightModuleId": 150,
      "pos": [
        48,
        1
      ]
    },
    {
      "id": 157,
      "plugin": "Bogaudio",
      "version": "1.1.23",
      "model": "Bogaudio-EightFO",
      "params": [
        {
          "id": 0,
          "value": 0.0
        },
        {
          "id": 1,
          "value": 4.0
        },
        {
          "id": 2,
          "value": 0.0
        },
        {
          "id": 3,
          "value": 0.0
        },
        {
          "id": 4,
          "value": 0.0
        },
        {
          "id": 5,
          "value": 0.0
        },
        {
          "id": 6,
          "value": 0.0
        },
        {
          "id": 7,
          "value": 0.0
        },
        {
          "id": 8,
          "value": 0.0
        },
        {
          "id": 9,
          "value": 0.0
        },
        {
          "id": 10,
          "value": 0.0
        },
        {
          "id": 11,
          "value": 1.0
        },
        {
          "id": 12,
          "value": 1.0
        },
        {
          "id": 13,
          "value": 1.0
        }
      ],
      "leftModuleId": 159,
      "rightModuleId": 158,
      "pos": [
        26,
        0
      ]
    },
    {
      "id": 158,
      "plugin": "ML_modules",
      "version": "1.0.3",
      "model": "SeqSwitch",
      "params": [
        {
          "id": 0,
          "value": 8.0
        },
        {
          "id": 1,
          "value": 0.0
        },
        {
          "id": 2,
          "value": 0.0
        },
        {
          "id": 3,
          "value": 0.0
        },
        {
          "id": 4,
          "value": 0.0
        },
        {
          "id": 5,
          "value": 0.0
        },
        {
          "id": 6,
          "value": 0.0
        },
        {
          "id": 7,
          "value": 0.0
        },
        {
          "id": 8,
          "value": 0.0
        }
      ],
      "leftModuleId": 157,
      "rightModuleId": 177,
      "data": {
        "inputRange": 0
      },
      "pos": [
        43,
        0
      ]
    },
    {
      "id": 159,
      "plugin": "AudibleInstruments",
      "version": "1.0.0",
      "model": "Branches",
      "params": [
        {
          "id": 0,
          "value": 0.546500325
        },
        {
          "id": 1,
          "value": 0.5
        },
        {
          "id": 2,
          "value": 0.0
        },
        {
          "id": 3,
          "value": 0.0
        }
      ],
      "leftModuleId": 24,
      "rightModuleId": 157,
      "data": {
        "modes": [
          false,
          false
        ]
      },
      "pos": [
        20,
        0
      ]
    },
    {
      "id": 162,
      "plugin": "Geodesics",
      "version": "1.0.0",
      "model": "Energy",
      "params": [
        {
          "id": 0,
          "value": 0.0
        },
        {
          "id": 1,
          "value": 0.0
        },
        {
          "id": 2,
          "value": 0.0
        },
        {
          "id": 3,
          "value": 0.0
        },
        {
          "id": 4,
          "value": 0.0
        },
        {
          "id": 5,
          "value": -0.00900001079
        },
        {
          "id": 6,
          "value": 0.432000101
        },
        {
          "id": 7,
          "value": 0.0
        },
        {
          "id": 8,
          "value": 0.0
        },
        {
          "id": 9,
          "value": 0.0
        }
      ],
      "rightModuleId": 163,
      "data": {
        "panelTheme": 1,
        "oscM_phase": 634720592,
        "oscC_phase": 3342456328,
        "routing": 1,
        "planck0": 2,
        "planck1": 2,
        "modtype0": 1,
        "modtype1": 1,
        "cross": 0
      },
      "pos": [
        16,
        2
      ]
    },
    {
      "id": 163,
      "plugin": "Geodesics",
      "version": "1.0.0",
      "model": "Energy",
      "params": [
        {
          "id": 0,
          "value": 0.0
        },
        {
          "id": 1,
          "value": 0.0
        },
        {
          "id": 2,
          "value": 0.0
        },
        {
          "id": 3,
          "value": 0.0
        },
        {
          "id": 4,
          "value": 0.0
        },
        {
          "id": 5,
          "value": 0.504000068
        },
        {
          "id": 6,
          "value": 0.396000147
        },
        {
          "id": 7,
          "value": 0.0
        },
        {
          "id": 8,
          "value": 0.0
        },
        {
          "id": 9,
          "value": 0.0
        }
      ],
      "leftModuleId": 162,
      "rightModuleId": 164,
      "data": {
        "panelTheme": 1,
        "oscM_phase": 1548594056,
        "oscC_phase": 1568711688,
        "routing": 1,
        "planck0": 2,
        "planck1": 2,
        "modtype0": 1,
        "modtype1": 1,
        "cross": 0
      },
      "pos": [
        23,
        2
      ]
    },
    {
      "id": 164,
      "plugin": "AudibleInstruments",
      "version": "1.0.0",
      "model": "Veils",
      "params": [
        {
          "id": 0,
          "value": 0.309000015
        },
        {
          "id": 1,
          "value": 0.264000028
        },
        {
          "id": 2,
          "value": 0.32099998
        },
        {
          "id": 3,
          "value": 0.271500051
        },
        {
          "id": 4,
          "value": 1.0
        },
        {
          "id": 5,
          "value": 1.0
        },
        {
          "id": 6,
          "value": 1.0
        },
        {
          "id": 7,
          "value": 1.0
        }
      ],
      "leftModuleId": 163,
      "rightModuleId": 172,
      "pos": [
        30,
        2
      ]
    },
    {
      "id": 165,
      "plugin": "NYSTHI",
      "version": "1.0.8",
      "model": "Strummer",
      "params": [
        {
          "id": 0,
          "value": 0.0
        },
        {
          "id": 1,
          "value": 0.0
        },
        {
          "id": 2,
          "value": 0.0
        },
        {
          "id": 3,
          "value": 0.0
        },
        {
          "id": 4,
          "value": 0.0
        },
        {
          "id": 5,
          "value": 0.0
        },
        {
          "id": 6,
          "value": 0.0
        },
        {
          "id": 7,
          "value": 0.0
        },
        {
          "id": 8,
          "value": 0.0
        },
        {
          "id": 9,
          "value": 0.0
        },
        {
          "id": 10,
          "value": 0.0
        },
        {
          "id": 11,
          "value": 0.233500063
        }
      ],
      "leftModuleId": 171,
      "rightModuleId": 167,
      "data": {
        "m_strum_differential_time": 0.0848952159,
        "m_strum_down": true
      },
      "pos": [
        87,
        1
      ]
    },
    {
      "id": 166,
      "plugin": "AudibleInstruments",
      "version": "1.0.0",
      "model": "Braids",
      "params": [
        {
          "id": 0,
          "value": 0.0
        },
        {
          "id": 1,
          "value": 0.0
        },
        {
          "id": 2,
          "value": 0.0
        },
        {
          "id": 3,
          "value": 0.5
        },
        {
          "id": 4,
          "value": 0.0
        },
        {
          "id": 5,
          "value": 0.5
        },
        {
          "id": 6,
          "value": 0.609000802
        }
      ],
      "leftModuleId": 169,
      "rightModuleId": 170,
      "data": {
        "settings": [
          28,
          0,
          0,
          0,
          0,
          0,
          0,
          0,
          0,
          0,
          0,
          0,
          4,
          0,
          0,
          0,
          0,
          0,
          0,
          0
        ],
        "lowCpu": false
      },
      "pos": [
        105,
        1
      ]
    },
    {
      "id": 167,
      "plugin": "Bogaudio",
      "version": "1.1.23",
      "model": "Bogaudio-UMix",
      "params": [
        {
          "id": 0,
          "value": 1.0
        }
      ],
      "leftModuleId": 165,
      "rightModuleId": 169,
      "data": {
        "sum": true,
        "cv_mode": false
      },
      "pos": [
        94,
        1
      ]
    },
    {
      "id": 169,
      "plugin": "ML_modules",
      "version": "1.0.3",
      "model": "SeqSwitch",
      "params": [
        {
          "id": 0,
          "value": 5.0
        },
        {
          "id": 1,
          "value": 0.0
        },
        {
          "id": 2,
          "value": 0.0
        },
        {
          "id": 3,
          "value": 0.0
        },
        {
          "id": 4,
          "value": 0.0
        },
        {
          "id": 5,
          "value": 0.0
        },
        {
          "id": 6,
          "value": 0.0
        },
        {
          "id": 7,
          "value": 0.0
        },
        {
          "id": 8,
          "value": 0.0
        }
      ],
      "leftModuleId": 167,
      "rightModuleId": 166,
      "data": {
        "inputRange": 0
      },
      "pos": [
        97,
        1
      ]
    },
    {
      "id": 170,
      "plugin": "AlrightDevices",
      "version": "1.0.2",
      "model": "Chronoblob2",
      "params": [
        {
          "id": 0,
          "value": 0.493998706
        },
        {
          "id": 1,
          "value": 0.5
        },
        {
          "id": 2,
          "value": 0.292999804
        },
        {
          "id": 3,
          "value": 0.0
        },
        {
          "id": 4,
          "value": 0.32099995
        },
        {
          "id": 5,
          "value": 0.0
        },
        {
          "id": 6,
          "value": 0.0
        },
        {
          "id": 7,
          "value": 0.0
        },
        {
          "id": 8,
          "value": 1.0
        },
        {
          "id": 9,
          "value": 0.0
        }
      ],
      "leftModuleId": 166,
      "data": {
        "delay_mode": 1,
        "hold_behavior": 0,
        "sync_prescaler": 6
      },
      "pos": [
        121,
        1
      ]
    },
    {
      "id": 171,
      "plugin": "Befaco",
      "version": "1.0.0",
      "model": "DualAtenuverter",
      "params": [
        {
          "id": 0,
          "value": 0.119999997
        },
        {
          "id": 1,
          "value": 3.47999954
        },
        {
          "id": 2,
          "value": 0.0
        },
        {
          "id": 3,
          "value": 0.0
        }
      ],
      "rightModuleId": 165,
      "pos": [
        82,
        1
      ]
    },
    {
      "id": 172,
      "plugin": "Blamsoft-XFXWave",
      "version": "1.0.1",
      "model": "Blamsoft-XFXWave",
      "params": [
        {
          "id": 0,
          "value": 0.144996747
        },
        {
          "id": 1,
          "value": 0.0
        },
        {
          "id": 2,
          "value": 3.0
        },
        {
          "id": 3,
          "value": 0.280999839
        },
        {
          "id": 4,
          "value": 1.0
        },
        {
          "id": 5,
          "value": -2.0
        },
        {
          "id": 6,
          "value": 0.0
        },
        {
          "id": 7,
          "value": 0.5
        },
        {
          "id": 8,
          "value": 0.699999988
        },
        {
          "id": 9,
          "value": 0.0
        },
        {
          "id": 10,
          "value": 0.0
        },
        {
          "id": 11,
          "value": 0.0
        },
        {
          "id": 12,
          "value": 0.0
        },
        {
          "id": 13,
          "value": 0.563500285
        },
        {
          "id": 14,
          "value": 0.0
        },
        {
          "id": 15,
          "value": 0.0
        },
        {
          "id": 16,
          "value": 0.0
        },
        {
          "id": 17,
          "value": 0.0
        },
        {
          "id": 18,
          "value": 0.0
        },
        {
          "id": 19,
          "value": 1.0
        },
        {
          "id": 20,
          "value": 1.0
        },
        {
          "id": 21,
          "value": 0.0
        },
        {
          "id": 22,
          "value": 0.5
        }
      ],
      "leftModuleId": 164,
      "rightModuleId": 173,
      "data": {
        "wavetable": 52,
        "mod1_mode": 7,
        "mod2_mode": 14,
        "mod3_mode": 0,
        "magnitude_0": 1.0,
        "phase_0": 0.0,
        "magnitude_1": 0.0,
        "phase_1": 0.0,
        "magnitude_2": 0.0,
        "phase_2": 0.0,
        "magnitude_3": 0.0,
        "phase_3": 0.0,
        "magnitude_4": 0.0,
        "phase_4": 0.0,
        "magnitude_5": 0.0,
        "phase_5": 0.0,
        "magnitude_6": 0.0,
        "phase_6": 0.0,
        "magnitude_7": 0.050290104,
        "phase_7": 0.0,
        "magnitude_8": 0.0,
        "phase_8": 0.0,
        "magnitude_9": 0.0,
        "phase_9": 0.0,
        "magnitude_10": 0.0,
        "phase_10": 0.0,
        "magnitude_11": 0.0,
        "phase_11": 0.0,
        "magnitude_12": 0.0,
        "phase_12": 0.0,
        "magnitude_13": 0.0,
        "phase_13": 0.0,
        "magnitude_14": 0.0,
        "phase_14": 0.0,
        "magnitude_15": 0.0235122349,
        "phase_15": 0.0,
        "magnitude_16": 0.0,
        "phase_16": 0.0,
        "magnitude_17": 0.0,
        "phase_17": 0.0,
        "magnitude_18": 0.0,
        "phase_18": 0.0,
        "magnitude_19": 0.0,
        "phase_19": 0.0,
        "magnitude_20": 0.0,
        "phase_20": 0.0,
        "magnitude_21": 0.0,
        "phase_21": 0.0,
        "magnitude_22": 0.0,
        "phase_22": 0.0,
        "magnitude_23": 0.0,
        "phase_23": 0.0,
        "magnitude_24": 0.0,
        "phase_24": 0.0,
        "magnitude_25": 0.0,
        "phase_25": 0.0
      },
      "pos": [
        42,
        2
      ]
    },
    {
      "id": 173,
      "plugin": "AS",
      "version": "1.0.3",
      "model": "VCA",
      "params": [
        {
          "id": 0,
          "value": 1.0
        },
        {
          "id": 1,
          "value": 1.0
        },
        {
          "id": 2,
          "value": 1.0
        },
        {
          "id": 3,
          "value": 1.0
        }
      ],
      "leftModuleId": 172,
      "rightModuleId": 174,
      "pos": [
        68,
        2
      ]
    },
    {
      "id": 174,
      "plugin": "Bogaudio",
      "version": "1.1.23",
      "model": "Bogaudio-ADSR",
      "params": [
        {
          "id": 0,
          "value": 0.141421005
        },
        {
          "id": 1,
          "value": 0.316229999
        },
        {
          "id": 2,
          "value": 1.0
        },
        {
          "id": 3,
          "value": 0.316229999
        },
        {
          "id": 4,
          "value": 0.0
        }
      ],
      "leftModuleId": 173,
      "data": {
        "invert": 1.0
      },
      "pos": [
        74,
        2
      ]
    },
    {
      "id": 177,
      "plugin": "ML_modules",
      "version": "1.0.3",
      "model": "SH8",
      "params": [],
      "leftModuleId": 158,
      "rightModuleId": 178,
      "pos": [
        51,
        0
      ]
    },
    {
      "id": 178,
      "plugin": "AS",
      "version": "1.0.3",
      "model": "ReScale",
      "params": [
        {
          "id": 0,
          "value": 2.0
        }
      ],
      "leftModuleId": 177,
      "rightModuleId": 188,
      "pos": [
        59,
        0
      ]
    },
    {
      "id": 179,
      "plugin": "Bogaudio",
      "version": "1.1.23",
      "model": "Bogaudio-AddrSeq",
      "params": [
        {
          "id": 0,
          "value": 7.0
        },
        {
          "id": 1,
          "value": 1.0
        },
        {
          "id": 2,
          "value": 0.0
        },
        {
          "id": 3,
          "value": 0.18900001
        },
        {
          "id": 4,
          "value": 0.0
        },
        {
          "id": 5,
          "value": 0.0
        },
        {
          "id": 6,
          "value": 0.0
        },
        {
          "id": 7,
          "value": 0.171000004
        },
        {
          "id": 8,
          "value": 0.0
        },
        {
          "id": 9,
          "value": 0.0
        },
        {
          "id": 10,
          "value": 0.0
        }
      ],
      "rightModuleId": 181,
      "data": {
        "select_on_clock": false,
        "range_offset": 0.0,
        "range_scale": 10.0
      },
      "pos": [
        80,
        2
      ]
    },
    {
      "id": 180,
      "plugin": "Bogaudio",
      "version": "1.1.23",
      "model": "Bogaudio-FMOp",
      "params": [
        {
          "id": 0,
          "value": 0.0
        },
        {
          "id": 1,
          "value": 0.0
        },
        {
          "id": 2,
          "value": 0.0
        },
        {
          "id": 3,
          "value": 0.316229999
        },
        {
          "id": 4,
          "value": 0.0
        },
        {
          "id": 5,
          "value": 0.316229999
        },
        {
          "id": 6,
          "value": 0.0
        },
        {
          "id": 7,
          "value": 0.198000029
        },
        {
          "id": 8,
          "value": 1.0
        },
        {
          "id": 9,
          "value": 1.0
        },
        {
          "id": 10,
          "value": 0.0
        },
        {
          "id": 11,
          "value": 0.0
        }
      ],
      "leftModuleId": 181,
      "rightModuleId": 183,
      "data": {
        "linearLevel": false
      },
      "pos": [
        91,
        2
      ]
    },
    {
      "id": 181,
      "plugin": "Geodesics",
      "version": "1.0.0",
      "model": "Fate",
      "params": [
        {
          "id": 0,
          "value": 0.275999993
        },
        {
          "id": 1,
          "value": 0.162499934
        }
      ],
      "leftModuleId": 179,
      "rightModuleId": 180,
      "data": {
        "panelTheme": 1
      },
      "pos": [
        86,
        2
      ]
    },
    {
      "id": 183,
      "plugin": "CountModula",
      "version": "1.5.1",
      "model": "TriggerSequencer8",
      "params": [
        {
          "id": 0,
          "value": 2.0
        },
        {
          "id": 1,
          "value": 2.0
        },
        {
          "id": 2,
          "value": 1.0
        },
        {
          "id": 3,
          "value": 1.0
        },
        {
          "id": 4,
          "value": 1.0
        },
        {
          "id": 5,
          "value": 1.0
        },
        {
          "id": 6,
          "value": 1.0
        },
        {
          "id": 7,
          "value": 1.0
        },
        {
          "id": 8,
          "value": 2.0
        },
        {
          "id": 9,
          "value": 2.0
        },
        {
          "id": 10,
          "value": 0.0
        },
        {
          "id": 11,
          "value": 2.0
        },
        {
          "id": 12,
          "value": 2.0
        },
        {
          "id": 13,
          "value": 2.0
        },
        {
          "id": 14,
          "value": 0.0
        },
        {
          "id": 15,
          "value": 2.0
        },
        {
          "id": 16,
          "value": 2.0
        },
        {
          "id": 17,
          "value": 1.0
        },
        {
          "id": 18,
          "value": 2.0
        },
        {
          "id": 19,
          "value": 2.0
        },
        {
          "id": 20,
          "value": 1.0
        },
        {
          "id": 21,
          "value": 1.0
        },
        {
          "id": 22,
          "value": 1.0
        },
        {
          "id": 23,
          "value": 1.0
        },
        {
          "id": 24,
          "value": 1.0
        },
        {
          "id": 25,
          "value": 1.0
        },
        {
          "id": 26,
          "value": 1.0
        },
        {
          "id": 27,
          "value": 1.0
        },
        {
          "id": 28,
          "value": 1.0
        },
        {
          "id": 29,
          "value": 1.0
        },
        {
          "id": 30,
          "value": 1.0
        },
        {
          "id": 31,
          "value": 1.0
        },
        {
          "id": 32,
          "value": 7.0
        },
        {
          "id": 33,
          "value": 8.0
        },
        {
          "id": 34,
          "value": 5.0
        },
        {
          "id": 35,
          "value": 8.0
        },
        {
          "id": 36,
          "value": 0.0
        },
        {
          "id": 37,
          "value": 0.0
        },
        {
          "id": 38,
          "value": 0.0
        },
        {
          "id": 39,
          "value": 0.0
        },
        {
          "id": 40,
          "value": 0.0
        },
        {
          "id": 41,
          "value": 0.0
        },
        {
          "id": 42,
          "value": 0.0
        },
        {
          "id": 43,
          "value": 0.0
        },
        {
          "id": 44,
          "value": 0.0
        },
        {
          "id": 45,
          "value": 0.0
        },
        {
          "id": 46,
          "value": 0.0
        },
        {
          "id": 47,
          "value": 0.0
        }
      ],
      "leftModuleId": 180,
      "rightModuleId": 184,
      "data": {
        "moduleVersion": "1.1",
        "theme": 0
      },
      "pos": [
        101,
        2
      ]
    },
    {
      "id": 184,
      "plugin": "VultModulesFree",
      "version": "1.6.0",
      "model": "Trummor2",
      "params": [
        {
          "id": 0,
          "value": 0.0500000007
        },
        {
          "id": 1,
          "value": 0.5
        },
        {
          "id": 2,
          "value": 0.0
        },
        {
          "id": 3,
          "value": 0.0
        },
        {
          "id": 4,
          "value": 0.0
        },
        {
          "id": 5,
          "value": 0.0
        },
        {
          "id": 6,
          "value": 0.0
        },
        {
          "id": 7,
          "value": 0.200000003
        },
        {
          "id": 8,
          "value": 0.400000006
        },
        {
          "id": 9,
          "value": 0.0
        },
        {
          "id": 10,
          "value": 0.0
        },
        {
          "id": 11,
          "value": 0.699999988
        },
        {
          "id": 12,
          "value": 0.100000001
        },
        {
          "id": 13,
          "value": 0.0
        },
        {
          "id": 14,
          "value": 0.0
        },
        {
          "id": 15,
          "value": 0.94857496
        },
        {
          "id": 16,
          "value": 0.0
        },
        {
          "id": 17,
          "value": 0.0
        },
        {
          "id": 18,
          "value": 0.0
        },
        {
          "id": 19,
          "value": 0.0500000007
        },
        {
          "id": 20,
          "value": 0.0500000007
        },
        {
          "id": 21,
          "value": 0.0
        },
        {
          "id": 22,
          "value": 0.0
        },
        {
          "id": 23,
          "value": 0.763000071
        },
        {
          "id": 24,
          "value": 0.0
        },
        {
          "id": 25,
          "value": 0.0
        },
        {
          "id": 26,
          "value": 0.0
        },
        {
          "id": 27,
          "value": 0.0
        },
        {
          "id": 28,
          "value": 0.0
        },
        {
          "id": 29,
          "value": 0.0
        },
        {
          "id": 30,
          "value": 0.0
        },
        {
          "id": 31,
          "value": 0.0
        },
        {
          "id": 32,
          "value": 0.0
        }
      ],
      "leftModuleId": 183,
      "rightModuleId": 185,
      "data": {
        "mod_a": 0,
        "mod_b": 0,
        "mod_c": 0,
        "mod_d": 0,
        "mk2": false
      },
      "pos": [
        135,
        2
      ]
    },
    {
      "id": 185,
      "plugin": "Bogaudio",
      "version": "1.1.23",
      "model": "Bogaudio-ADSR",
      "params": [
        {
          "id": 0,
          "value": 0.0
        },
        {
          "id": 1,
          "value": 0.190230042
        },
        {
          "id": 2,
          "value": 0.0
        },
        {
          "id": 3,
          "value": 0.103500009
        },
        {
          "id": 4,
          "value": 0.0
        }
      ],
      "leftModuleId": 184,
      "rightModuleId": 186,
      "data": {
        "invert": 1.0
      },
      "pos": [
        155,
        2
      ]
    },
    {
      "id": 186,
      "plugin": "Fundamental",
      "version": "1.4.0",
      "model": "VCO",
      "params": [
        {
          "id": 0,
          "value": 1.0
        },
        {
          "id": 1,
          "value": 1.0
        },
        {
          "id": 2,
          "value": 30.4053802
        },
        {
          "id": 3,
          "value": 0.0
        },
        {
          "id": 4,
          "value": 0.0839999989
        },
        {
          "id": 5,
          "value": 0.5
        },
        {
          "id": 6,
          "value": 0.0
        }
      ],
      "leftModuleId": 185,
      "rightModuleId": 187,
      "pos": [
        158,
        2
      ]
    },
    {
      "id": 187,
      "plugin": "Fundamental",
      "version": "1.4.0",
      "model": "VCA-1",
      "params": [
        {
          "id": 0,
          "value": 1.0
        },
        {
          "id": 1,
          "value": 0.0
        }
      ],
      "leftModuleId": 186,
      "pos": [
        168,
        2
      ]
    },
    {
      "id": 188,
      "plugin": "AS",
      "version": "1.0.3",
      "model": "ReScale",
      "params": [
        {
          "id": 0,
          "value": 2.0
        }
      ],
      "leftModuleId": 178,
      "pos": [
        63,
        0
      ]
    },
    {
      "id": 192,
      "plugin": "AudibleInstruments",
      "version": "1.0.0",
      "model": "Clouds",
      "params": [
        {
          "id": 0,
          "value": 0.0
        },
        {
          "id": 1,
          "value": 0.0
        },
        {
          "id": 2,
          "value": 0.0
        },
        {
          "id": 3,
          "value": 0.5
        },
        {
          "id": 4,
          "value": 0.5
        },
        {
          "id": 5,
          "value": 0.0
        },
        {
          "id": 6,
          "value": 0.627500474
        },
        {
          "id": 7,
          "value": 0.735499978
        },
        {
          "id": 8,
          "value": 1.0
        },
        {
          "id": 9,
          "value": 1.0
        },
        {
          "id": 10,
          "value": 1.0
        },
        {
          "id": 11,
          "value": 0.423000067
        },
        {
          "id": 12,
          "value": 1.0
        }
      ],
      "rightModuleId": 193,
      "data": {
        "playback": 0,
        "quality": 2,
        "blendMode": 3
      },
      "pos": [
        139,
        0
      ]
    },
    {
      "id": 193,
      "plugin": "Befaco",
      "version": "1.0.0",
      "model": "Rampage",
      "params": [
        {
          "id": 0,
          "value": 0.0
        },
        {
          "id": 1,
          "value": 0.0
        },
        {
          "id": 2,
          "value": 0.0
        },
        {
          "id": 3,
          "value": 0.0
        },
        {
          "id": 4,
          "value": 0.0
        },
        {
          "id": 5,
          "value": 0.0
        },
        {
          "id": 6,
          "value": 0.179999992
        },
        {
          "id": 7,
          "value": 0.273000032
        },
        {
          "id": 8,
          "value": 0.116999976
        },
        {
          "id": 9,
          "value": 0.191999942
        },
        {
          "id": 10,
          "value": 0.0
        },
        {
          "id": 11,
          "value": 0.0
        },
        {
          "id": 12,
          "value": 0.5
        }
      ],
      "leftModuleId": 192,
      "rightModuleId": 194,
      "pos": [
        157,
        0
      ]
    },
    {
      "id": 194,
      "plugin": "AS",
      "version": "1.0.3",
      "model": "VCA",
      "params": [
        {
          "id": 0,
          "value": 0.5
        },
        {
          "id": 1,
          "value": 0.5
        },
        {
          "id": 2,
          "value": 1.0
        },
        {
          "id": 3,
          "value": 1.0
        }
      ],
      "leftModuleId": 193,
      "rightModuleId": 195,
      "pos": [
        175,
        0
      ]
    },
    {
      "id": 195,
      "plugin": "Bogaudio",
      "version": "1.1.23",
      "model": "Bogaudio-DADSRH",
      "params": [
        {
          "id": 0,
          "value": 0.0
        },
        {
          "id": 1,
          "value": 0.0
        },
        {
          "id": 2,
          "value": 0.208229974
        },
        {
          "id": 3,
          "value": 0.0
        },
        {
          "id": 4,
          "value": 0.19773002
        },
        {
          "id": 5,
          "value": 0.447210014
        },
        {
          "id": 6,
          "value": 1.0
        },
        {
          "id": 7,
          "value": 1.0
        },
        {
          "id": 8,
          "value": 1.0
        },
        {
          "id": 9,
          "value": 0.0
        },
        {
          "id": 10,
          "value": 1.0
        },
        {
          "id": 11,
          "value": 1.0
        },
        {
          "id": 12,
          "value": 1.0
        },
        {
          "id": 13,
          "value": 1.0
        }
      ],
      "leftModuleId": 194,
      "data": {
        "triggerOnLoad": true,
        "shouldTriggerOnLoad": false
      },
      "pos": [
        181,
        0
      ]
    }
  ],
  "cables": [
    {
      "id": 1,
      "outputModuleId": 21,
      "outputId": 0,
      "inputModuleId": 25,
      "inputId": 0,
      "color": "#0c8e15"
    },
    {
      "id": 2,
      "outputModuleId": 21,
      "outputId": 1,
      "inputModuleId": 25,
      "inputId": 1,
      "color": "#c91847"
    },
    {
      "id": 3,
      "outputModuleId": 103,
      "outputId": 0,
      "inputModuleId": 21,
      "inputId": 20,
      "color": "#0c8e15"
    },
    {
      "id": 4,
      "outputModuleId": 103,
      "outputId": 1,
      "inputModuleId": 21,
      "inputId": 44,
      "color": "#c91847"
    },
    {
      "id": 5,
      "outputModuleId": 21,
      "outputId": 10,
      "inputModuleId": 103,
      "inputId": 0,
      "color": "#0986ad"
    },
    {
      "id": 6,
      "outputModuleId": 21,
      "outputId": 14,
      "inputModuleId": 103,
      "inputId": 1,
      "color": "#c9b70e"
    },
    {
      "id": 132,
      "outputModuleId": 150,
      "outputId": 0,
      "inputModuleId": 21,
      "inputId": 0,
      "color": "#c9b70e"
    },
    {
      "id": 133,
      "outputModuleId": 151,
      "outputId": 0,
      "inputModuleId": 21,
      "inputId": 24,
      "color": "#0c8e15"
    },
    {
      "id": 136,
      "outputModuleId": 154,
      "outputId": 0,
      "inputModuleId": 153,
      "inputId": 0,
      "color": "#c9b70e"
    },
    {
      "id": 137,
      "outputModuleId": 153,
      "outputId": 0,
      "inputModuleId": 152,
      "inputId": 0,
      "color": "#0c8e15"
    },
    {
      "id": 138,
      "outputModuleId": 152,
      "outputId": 0,
      "inputModuleId": 155,
      "inputId": 0,
      "color": "#c91847"
    },
    {
      "id": 139,
      "outputModuleId": 155,
      "outputId": 0,
      "inputModuleId": 150,
      "inputId": 4,
      "color": "#0986ad"
    },
    {
      "id": 140,
      "outputModuleId": 155,
      "outputId": 1,
      "inputModuleId": 151,
      "inputId": 4,
      "color": "#c9b70e"
    },
    {
      "id": 141,
      "outputModuleId": 153,
      "outputId": 2,
      "inputModuleId": 156,
      "inputId": 0,
      "color": "#0c8e15"
    },
    {
      "id": 142,
      "outputModuleId": 156,
      "outputId": 0,
      "inputModuleId": 150,
      "inputId": 5,
      "color": "#c91847"
    },
    {
      "id": 143,
      "outputModuleId": 156,
      "outputId": 1,
      "inputModuleId": 151,
      "inputId": 5,
      "color": "#0986ad"
    },
    {
      "id": 144,
      "outputModuleId": 157,
      "outputId": 0,
      "inputModuleId": 150,
      "inputId": 2,
      "color": "#c9b70e"
    },
    {
      "id": 145,
      "outputModuleId": 157,
      "outputId": 2,
      "inputModuleId": 151,
      "inputId": 2,
      "color": "#0c8e15"
    },
    {
      "id": 147,
      "outputModuleId": 149,
      "outputId": 2,
      "inputModuleId": 158,
      "inputId": 2,
      "color": "#0986ad"
    },
    {
      "id": 146,
      "outputModuleId": 149,
      "outputId": 4,
      "inputModuleId": 158,
      "inputId": 1,
      "color": "#c91847"
    },
    {
      "id": 148,
      "outputModuleId": 149,
      "outputId": 9,
      "inputModuleId": 158,
      "inputId": 4,
      "color": "#c9b70e"
    },
    {
      "id": 149,
      "outputModuleId": 149,
      "outputId": 5,
      "inputModuleId": 158,
      "inputId": 6,
      "color": "#0c8e15"
    },
    {
      "id": 150,
      "outputModuleId": 149,
      "outputId": 11,
      "inputModuleId": 158,
      "inputId": 7,
      "color": "#c91847"
    },
    {
      "id": 151,
      "outputModuleId": 24,
      "outputId": 2,
      "inputModuleId": 158,
      "inputId": 9,
      "color": "#0986ad"
    },
    {
      "id": 152,
      "outputModuleId": 158,
      "outputId": 0,
      "inputModuleId": 153,
      "inputId": 1,
      "color": "#c9b70e"
    },
    {
      "id": 153,
      "outputModuleId": 24,
      "outputId": 1,
      "inputModuleId": 159,
      "inputId": 0,
      "color": "#0c8e15"
    },
    {
      "id": 166,
      "outputModuleId": 155,
      "outputId": 2,
      "inputModuleId": 162,
      "inputId": 2,
      "color": "#c91847"
    },
    {
      "id": 167,
      "outputModuleId": 155,
      "outputId": 3,
      "inputModuleId": 163,
      "inputId": 2,
      "color": "#0986ad"
    },
    {
      "id": 168,
      "outputModuleId": 162,
      "outputId": 0,
      "inputModuleId": 21,
      "inputId": 1,
      "color": "#c9b70e"
    },
    {
      "id": 169,
      "outputModuleId": 163,
      "outputId": 0,
      "inputModuleId": 21,
      "inputId": 25,
      "color": "#0c8e15"
    },
    {
      "id": 170,
      "outputModuleId": 157,
      "outputId": 4,
      "inputModuleId": 164,
      "inputId": 0,
      "color": "#c91847"
    },
    {
      "id": 172,
      "outputModuleId": 157,
      "outputId": 5,
      "inputModuleId": 164,
      "inputId": 1,
      "color": "#c9b70e"
    },
    {
      "id": 173,
      "outputModuleId": 157,
      "outputId": 7,
      "inputModuleId": 164,
      "inputId": 2,
      "color": "#0c8e15"
    },
    {
      "id": 174,
      "outputModuleId": 164,
      "outputId": 0,
      "inputModuleId": 162,
      "inputId": 5,
      "color": "#c91847"
    },
    {
      "id": 175,
      "outputModuleId": 164,
      "outputId": 1,
      "inputModuleId": 162,
      "inputId": 4,
      "color": "#0986ad"
    },
    {
      "id": 176,
      "outputModuleId": 164,
      "outputId": 2,
      "inputModuleId": 163,
      "inputId": 5,
      "color": "#0c8e15"
    },
    {
      "id": 177,
      "outputModuleId": 164,
      "outputId": 3,
      "inputModuleId": 163,
      "inputId": 4,
      "color": "#c91847"
    },
    {
      "id": 171,
      "outputModuleId": 157,
      "outputId": 6,
      "inputModuleId": 164,
      "inputId": 3,
      "color": "#0986ad"
    },
    {
      "id": 178,
      "outputModuleId": 165,
      "outputId": 0,
      "inputModuleId": 167,
      "inputId": 0,
      "color": "#0986ad"
    },
    {
      "id": 179,
      "outputModuleId": 165,
      "outputId": 1,
      "inputModuleId": 167,
      "inputId": 1,
      "color": "#c9b70e"
    },
    {
      "id": 180,
      "outputModuleId": 165,
      "outputId": 2,
      "inputModuleId": 167,
      "inputId": 2,
      "color": "#0c8e15"
    },
    {
      "id": 181,
      "outputModuleId": 165,
      "outputId": 3,
      "inputModuleId": 167,
      "inputId": 3,
      "color": "#c91847"
    },
    {
      "id": 184,
      "outputModuleId": 167,
      "outputId": 0,
      "inputModuleId": 166,
      "inputId": 0,
      "color": "#0c8e15"
    },
    {
      "id": 190,
      "outputModuleId": 155,
      "outputId": 0,
      "inputModuleId": 169,
      "inputId": 0,
      "color": "#0986ad"
    },
    {
      "id": 191,
      "outputModuleId": 155,
      "outputId": 1,
      "inputModuleId": 169,
      "inputId": 1,
      "color": "#c9b70e"
    },
    {
      "id": 192,
      "outputModuleId": 155,
      "outputId": 2,
      "inputModuleId": 169,
      "inputId": 2,
      "color": "#0c8e15"
    },
    {
      "id": 193,
      "outputModuleId": 155,
      "outputId": 3,
      "inputModuleId": 169,
      "inputId": 3,
      "color": "#c91847"
    },
    {
      "id": 194,
      "outputModuleId": 169,
      "outputId": 0,
      "inputModuleId": 166,
      "inputId": 1,
      "color": "#0986ad"
    },
    {
      "id": 195,
      "outputModuleId": 167,
      "outputId": 0,
      "inputModuleId": 169,
      "inputId": 9,
      "color": "#c9b70e"
    },
    {
      "id": 196,
      "outputModuleId": 24,
      "outputId": 2,
      "inputModuleId": 165,
      "inputId": 9,
      "color": "#0c8e15"
    },
    {
      "id": 197,
      "outputModuleId": 166,
      "outputId": 0,
      "inputModuleId": 170,
      "inputId": 5,
      "color": "#c91847"
    },
    {
      "id": 198,
      "outputModuleId": 170,
      "outputId": 0,
      "inputModuleId": 21,
      "inputId": 2,
      "color": "#0986ad"
    },
    {
      "id": 199,
      "outputModuleId": 24,
      "outputId": 0,
      "inputModuleId": 170,
      "inputId": 7,
      "color": "#0c8e15"
    },
    {
      "id": 200,
      "outputModuleId": 170,
      "outputId": 1,
      "inputModuleId": 21,
      "inputId": 26,
      "color": "#c91847"
    },
    {
      "id": 201,
      "outputModuleId": 155,
      "outputId": 2,
      "inputModuleId": 169,
      "inputId": 4,
      "color": "#0986ad"
    },
    {
      "id": 203,
      "outputModuleId": 165,
      "outputId": 4,
      "inputModuleId": 167,
      "inputId": 4,
      "color": "#0c8e15"
    },
    {
      "id": 206,
      "outputModuleId": 171,
      "outputId": 0,
      "inputModuleId": 165,
      "inputId": 11,
      "color": "#c9b70e"
    },
    {
      "id": 207,
      "outputModuleId": 157,
      "outputId": 1,
      "inputModuleId": 171,
      "inputId": 0,
      "color": "#0c8e15"
    },
    {
      "id": 208,
      "outputModuleId": 172,
      "outputId": 0,
      "inputModuleId": 173,
      "inputId": 1,
      "color": "#c91847"
    },
    {
      "id": 209,
      "outputModuleId": 172,
      "outputId": 1,
      "inputModuleId": 173,
      "inputId": 3,
      "color": "#0986ad"
    },
    {
      "id": 210,
      "outputModuleId": 174,
      "outputId": 0,
      "inputModuleId": 173,
      "inputId": 0,
      "color": "#0c8e15"
    },
    {
      "id": 211,
      "outputModuleId": 174,
      "outputId": 0,
      "inputModuleId": 173,
      "inputId": 2,
      "color": "#c91847"
    },
    {
      "id": 212,
      "outputModuleId": 173,
      "outputId": 0,
      "inputModuleId": 21,
      "inputId": 3,
      "color": "#c9b70e"
    },
    {
      "id": 213,
      "outputModuleId": 173,
      "outputId": 1,
      "inputModuleId": 21,
      "inputId": 27,
      "color": "#0c8e15"
    },
    {
      "id": 214,
      "outputModuleId": 24,
      "outputId": 3,
      "inputModuleId": 174,
      "inputId": 0,
      "color": "#c91847"
    },
    {
      "id": 215,
      "outputModuleId": 157,
      "outputId": 3,
      "inputModuleId": 172,
      "inputId": 0,
      "color": "#0986ad"
    },
    {
      "id": 220,
      "outputModuleId": 157,
      "outputId": 0,
      "inputModuleId": 172,
      "inputId": 2,
      "color": "#c9b70e"
    },
    {
      "id": 221,
      "outputModuleId": 157,
      "outputId": 7,
      "inputModuleId": 172,
      "inputId": 3,
      "color": "#c91847"
    },
    {
      "id": 223,
      "outputModuleId": 167,
      "outputId": 0,
      "inputModuleId": 177,
      "inputId": 8,
      "color": "#c9b70e"
    },
    {
      "id": 224,
      "outputModuleId": 177,
      "outputId": 0,
      "inputModuleId": 178,
      "inputId": 0,
      "color": "#0c8e15"
    },
    {
      "id": 225,
      "outputModuleId": 178,
      "outputId": 0,
      "inputModuleId": 21,
      "inputId": 66,
      "color": "#c91847"
    },
    {
      "id": 227,
      "outputModuleId": 155,
      "outputId": 4,
      "inputModuleId": 180,
      "inputId": 4,
      "color": "#c9b70e"
    },
    {
      "id": 228,
      "outputModuleId": 156,
      "outputId": 4,
      "inputModuleId": 180,
      "inputId": 5,
      "color": "#0c8e15"
    },
    {
      "id": 229,
      "outputModuleId": 24,
      "outputId": 1,
      "inputModuleId": 179,
      "inputId": 0,
      "color": "#c91847"
    },
    {
      "id": 230,
      "outputModuleId": 180,
      "outputId": 0,
      "inputModuleId": 21,
      "inputId": 4,
      "color": "#0986ad"
    },
    {
      "id": 231,
      "outputModuleId": 157,
      "outputId": 7,
      "inputModuleId": 180,
      "inputId": 2,
      "color": "#0c8e15"
    },
    {
      "id": 232,
      "outputModuleId": 179,
      "outputId": 0,
      "inputModuleId": 181,
      "inputId": 2,
      "color": "#c91847"
    },
    {
      "id": 233,
      "outputModuleId": 24,
      "outputId": 1,
      "inputModuleId": 181,
      "inputId": 1,
      "color": "#0986ad"
    },
    {
      "id": 234,
      "outputModuleId": 181,
      "outputId": 0,
      "inputModuleId": 154,
      "inputId": 4,
      "color": "#c9b70e"
    },
    {
      "id": 235,
      "outputModuleId": 24,
      "outputId": 1,
      "inputModuleId": 183,
      "inputId": 4,
      "color": "#0c8e15"
    },
    {
      "id": 236,
      "outputModuleId": 24,
      "outputId": 4,
      "inputModuleId": 183,
      "inputId": 8,
      "color": "#c91847"
    },
    {
      "id": 237,
      "outputModuleId": 24,
      "outputId": 4,
      "inputModuleId": 169,
      "inputId": 11,
      "color": "#0986ad"
    },
    {
      "id": 238,
      "outputModuleId": 24,
      "outputId": 4,
      "inputModuleId": 179,
      "inputId": 1,
      "color": "#c9b70e"
    },
    {
      "id": 239,
      "outputModuleId": 24,
      "outputId": 4,
      "inputModuleId": 158,
      "inputId": 11,
      "color": "#0c8e15"
    },
    {
      "id": 240,
      "outputModuleId": 183,
      "outputId": 0,
      "inputModuleId": 184,
      "inputId": 7,
      "color": "#c91847"
    },
    {
      "id": 241,
      "outputModuleId": 184,
      "outputId": 4,
      "inputModuleId": 21,
      "inputId": 5,
      "color": "#0986ad"
    },
    {
      "id": 242,
      "outputModuleId": 183,
      "outputId": 2,
      "inputModuleId": 184,
      "inputId": 8,
      "color": "#c9b70e"
    },
    {
      "id": 243,
      "outputModuleId": 184,
      "outputId": 5,
      "inputModuleId": 21,
      "inputId": 6,
      "color": "#0c8e15"
    },
    {
      "id": 246,
      "outputModuleId": 185,
      "outputId": 0,
      "inputModuleId": 187,
      "inputId": 0,
      "color": "#c9b70e"
    },
    {
      "id": 247,
      "outputModuleId": 187,
      "outputId": 0,
      "inputModuleId": 21,
      "inputId": 7,
      "color": "#0c8e15"
    },
    {
      "id": 248,
      "outputModuleId": 185,
      "outputId": 0,
      "inputModuleId": 186,
      "inputId": 1,
      "color": "#c91847"
    },
    {
      "id": 249,
      "outputModuleId": 183,
      "outputId": 4,
      "inputModuleId": 185,
      "inputId": 0,
      "color": "#0986ad"
    },
    {
      "id": 245,
      "outputModuleId": 186,
      "outputId": 1,
      "inputModuleId": 187,
      "inputId": 1,
      "color": "#0986ad"
    },
    {
      "id": 250,
      "outputModuleId": 183,
      "outputId": 4,
      "inputModuleId": 177,
      "inputId": 9,
      "color": "#c9b70e"
    },
    {
      "id": 251,
      "outputModuleId": 177,
      "outputId": 1,
      "inputModuleId": 188,
      "inputId": 0,
      "color": "#0c8e15"
    },
    {
      "id": 252,
      "outputModuleId": 188,
      "outputId": 0,
      "inputModuleId": 21,
      "inputId": 71,
      "color": "#c91847"
    },
    {
      "id": 268,
      "outputModuleId": 192,
      "outputId": 0,
      "inputModuleId": 193,
      "inputId": 0,
      "color": "#0986ad"
    },
    {
      "id": 269,
      "outputModuleId": 192,
      "outputId": 1,
      "inputModuleId": 193,
      "inputId": 1,
      "color": "#c9b70e"
    },
    {
      "id": 271,
      "outputModuleId": 194,
      "outputId": 1,
      "inputModuleId": 21,
      "inputId": 33,
      "color": "#c91847"
    },
    {
      "id": 270,
      "outputModuleId": 194,
      "outputId": 0,
      "inputModuleId": 21,
      "inputId": 9,
      "color": "#0c8e15"
    },
    {
      "id": 272,
      "outputModuleId": 193,
      "outputId": 0,
      "inputModuleId": 194,
      "inputId": 1,
      "color": "#0986ad"
    },
    {
      "id": 273,
      "outputModuleId": 193,
      "outputId": 1,
      "inputModuleId": 194,
      "inputId": 3,
      "color": "#c9b70e"
    },
    {
      "id": 274,
      "outputModuleId": 183,
      "outputId": 0,
      "inputModuleId": 195,
      "inputId": 0,
      "color": "#0c8e15"
    },
    {
      "id": 275,
      "outputModuleId": 195,
      "outputId": 1,
      "inputModuleId": 194,
      "inputId": 0,
      "color": "#c91847"
    },
    {
      "id": 276,
      "outputModuleId": 195,
      "outputId": 1,
      "inputModuleId": 194,
      "inputId": 2,
      "color": "#0986ad"
    }
  ]
}