{
  "version": "1.1.3",
  "modules": [
    {
      "id": 0,
      "plugin": "Core",
      "version": "1.1.3",
      "model": "AudioInterface",
      "params": [],
      "leftModuleId": 2,
      "rightModuleId": 3,
      "data": {
        "audio": {
          "driver": 1,
          "deviceName": "hw:Scarlett 2i2 USB,0",
          "offset": 0,
          "maxChannels": 8,
          "sampleRate": 48000,
          "blockSize": 256
        }
      },
      "pos": [
        23,
        0
      ]
    },
    {
      "id": 1,
      "plugin": "Fundamental",
      "version": "1.2.0",
      "model": "VCO",
      "params": [
        {
          "id": 0,
          "value": 1.0
        },
        {
          "id": 1,
          "value": 0.0
        },
        {
          "id": 2,
          "value": 0.0
        },
        {
          "id": 3,
          "value": 0.0
        },
        {
          "id": 4,
          "value": 0.0750000104
        },
        {
          "id": 5,
          "value": 0.418500155
        },
        {
          "id": 6,
          "value": 0.250500023
        }
      ],
      "leftModuleId": 4,
      "rightModuleId": 2,
      "pos": [
        8,
        0
      ]
    },
    {
      "id": 2,
      "plugin": "Fundamental",
      "version": "1.2.0",
      "model": "VCA",
      "params": [
        {
          "id": 0,
          "value": 0.204999968
        },
        {
          "id": 1,
          "value": 0.571500063
        }
      ],
      "leftModuleId": 1,
      "rightModuleId": 0,
      "pos": [
        18,
        0
      ]
    },
    {
      "id": 3,
      "plugin": "Fundamental",
      "version": "1.2.0",
      "model": "Scope",
      "params": [
        {
          "id": 0,
          "value": 0.0
        },
        {
          "id": 1,
          "value": 0.0
        },
        {
          "id": 2,
          "value": 0.0
        },
        {
          "id": 3,
          "value": 0.0
        },
        {
          "id": 4,
          "value": -9.11000538
        },
        {
          "id": 5,
          "value": 0.0
        },
        {
          "id": 6,
          "value": 0.0
        },
        {
          "id": 7,
          "value": 0.0
        }
      ],
      "leftModuleId": 0,
      "data": {
        "lissajous": 0,
        "external": 0
      },
      "pos": [
        33,
        0
      ]
    },
    {
      "id": 4,
      "plugin": "Core",
      "version": "1.1.3",
      "model": "MIDIToCVInterface",
      "params": [],
      "rightModuleId": 1,
      "data": {
        "channels": 1,
        "polyMode": 0,
        "clockDivision": 24,
        "lastPitch": 8192,
        "lastMod": 0,
        "midi": {
          "driver": -11,
          "deviceName": "QWERTY keyboard (US)",
          "channel": -1
        }
      },
      "pos": [
        0,
        0
      ]
    },
    {
      "id": 5,
      "plugin": "Fundamental",
      "version": "1.2.0",
      "model": "ADSR",
      "params": [
        {
          "id": 0,
          "value": 0.375499368
        },
        {
          "id": 1,
          "value": 0.776499867
        },
        {
          "id": 2,
          "value": 0.778999925
        },
        {
          "id": 3,
          "value": 0.720499873
        }
      ],
      "leftModuleId": 6,
      "pos": [
        10,
        1
      ]
    },
    {
      "id": 6,
      "plugin": "Fundamental",
      "version": "1.2.0",
      "model": "LFO",
      "params": [
        {
          "id": 0,
          "value": 1.0
        },
        {
          "id": 1,
          "value": 1.0
        },
        {
          "id": 2,
          "value": 2.37700534
        },
        {
          "id": 3,
          "value": 0.197999939
        },
        {
          "id": 4,
          "value": 0.0945000052
        },
        {
          "id": 5,
          "value": 0.5
        },
        {
          "id": 6,
          "value": 0.0
        }
      ],
      "rightModuleId": 5,
      "pos": [
        0,
        1
      ]
    }
  ],
  "cables": [
    {
      "id": 68,
      "outputModuleId": 6,
      "outputId": 0,
      "inputModuleId": 1,
      "inputId": 1,
      "color": "#c9b70e"
    },
    {
      "id": 69,
      "outputModuleId": 4,
      "outputId": 0,
      "inputModuleId": 1,
      "inputId": 0,
      "color": "#c91847"
    },
    {
      "id": 70,
      "outputModuleId": 4,
      "outputId": 1,
      "inputModuleId": 5,
      "inputId": 4,
      "color": "#0c8e15"
    },
    {
      "id": 71,
      "outputModuleId": 5,
      "outputId": 0,
      "inputModuleId": 2,
      "inputId": 0,
      "color": "#0986ad"
    },
    {
      "id": 72,
      "outputModuleId": 1,
      "outputId": 3,
      "inputModuleId": 2,
      "inputId": 2,
      "color": "#c9b70e"
    },
    {
      "id": 73,
      "outputModuleId": 2,
      "outputId": 0,
      "inputModuleId": 0,
      "inputId": 0,
      "color": "#c91847"
    },
    {
      "id": 74,
      "outputModuleId": 2,
      "outputId": 0,
      "inputModuleId": 0,
      "inputId": 1,
      "color": "#0c8e15"
    },
    {
      "id": 75,
      "outputModuleId": 2,
      "outputId": 0,
      "inputModuleId": 3,
      "inputId": 0,
      "color": "#0986ad"
    },
    {
      "id": 76,
      "outputModuleId": 4,
      "outputId": 6,
      "inputModuleId": 5,
      "inputId": 5,
      "color": "#c9b70e"
    }
  ]
}