{
  "version": "1.1.3",
  "modules": [
    {
      "id": 0,
      "plugin": "Core",
      "version": "1.1.3",
      "model": "AudioInterface",
      "params": [],
      "leftModuleId": 2,
      "data": {
        "audio": {
          "driver": 1,
          "deviceName": "hw:Scarlett 2i2 USB,0",
          "offset": 0,
          "maxChannels": 8,
          "sampleRate": 48000,
          "blockSize": 256
        }
      },
      "pos": [
        49,
        0
      ]
    },
    {
      "id": 1,
      "plugin": "Fundamental",
      "version": "1.2.0",
      "model": "VCO",
      "params": [
        {
          "id": 0,
          "value": 1.0
        },
        {
          "id": 1,
          "value": 0.0
        },
        {
          "id": 2,
          "value": -9.2339983
        },
        {
          "id": 3,
          "value": 0.0
        },
        {
          "id": 4,
          "value": 0.491999865
        },
        {
          "id": 5,
          "value": 0.333499879
        },
        {
          "id": 6,
          "value": 0.0
        }
      ],
      "leftModuleId": 3,
      "rightModuleId": 5,
      "pos": [
        8,
        0
      ]
    },
    {
      "id": 2,
      "plugin": "Fundamental",
      "version": "1.2.0",
      "model": "VCA",
      "params": [
        {
          "id": 0,
          "value": 0.300999999
        },
        {
          "id": 1,
          "value": 0.571500063
        }
      ],
      "leftModuleId": 4,
      "rightModuleId": 0,
      "pos": [
        44,
        0
      ]
    },
    {
      "id": 3,
      "plugin": "Core",
      "version": "1.1.3",
      "model": "MIDIToCVInterface",
      "params": [],
      "rightModuleId": 1,
      "data": {
        "channels": 1,
        "polyMode": 0,
        "clockDivision": 24,
        "lastPitch": 8192,
        "lastMod": 0,
        "midi": {
          "driver": -11,
          "deviceName": "QWERTY keyboard (US)",
          "channel": -1
        }
      },
      "pos": [
        0,
        0
      ]
    },
    {
      "id": 4,
      "plugin": "VultModulesFree",
      "version": "1.1.0",
      "model": "Unstabile",
      "params": [
        {
          "id": 0,
          "value": 0.607999682
        },
        {
          "id": 1,
          "value": 0.547499597
        },
        {
          "id": 2,
          "value": 0.255000025
        },
        {
          "id": 3,
          "value": 0.335999906
        },
        {
          "id": 4,
          "value": 0.151500016
        },
        {
          "id": 5,
          "value": 0.0
        },
        {
          "id": 6,
          "value": 0.881999314
        },
        {
          "id": 7,
          "value": 0.0
        }
      ],
      "leftModuleId": 6,
      "rightModuleId": 2,
      "pos": [
        34,
        0
      ]
    },
    {
      "id": 5,
      "plugin": "Fundamental",
      "version": "1.2.0",
      "model": "ADSR",
      "params": [
        {
          "id": 0,
          "value": 0.377000123
        },
        {
          "id": 1,
          "value": 0.627500057
        },
        {
          "id": 2,
          "value": 0.694999695
        },
        {
          "id": 3,
          "value": 0.5
        }
      ],
      "leftModuleId": 1,
      "rightModuleId": 6,
      "pos": [
        18,
        0
      ]
    },
    {
      "id": 6,
      "plugin": "Fundamental",
      "version": "1.2.0",
      "model": "ADSR",
      "params": [
        {
          "id": 0,
          "value": 0.705500364
        },
        {
          "id": 1,
          "value": 0.622999847
        },
        {
          "id": 2,
          "value": 0.687499702
        },
        {
          "id": 3,
          "value": 0.5
        }
      ],
      "leftModuleId": 5,
      "rightModuleId": 4,
      "pos": [
        26,
        0
      ]
    }
  ],
  "cables": [
    {
      "id": 77,
      "outputModuleId": 2,
      "outputId": 0,
      "inputModuleId": 0,
      "inputId": 0,
      "color": "#c91847"
    },
    {
      "id": 78,
      "outputModuleId": 2,
      "outputId": 0,
      "inputModuleId": 0,
      "inputId": 1,
      "color": "#0c8e15"
    },
    {
      "id": 79,
      "outputModuleId": 3,
      "outputId": 0,
      "inputModuleId": 1,
      "inputId": 0,
      "color": "#0c8e15"
    },
    {
      "id": 80,
      "outputModuleId": 1,
      "outputId": 3,
      "inputModuleId": 4,
      "inputId": 0,
      "color": "#0986ad"
    },
    {
      "id": 81,
      "outputModuleId": 4,
      "outputId": 3,
      "inputModuleId": 2,
      "inputId": 2,
      "color": "#c9b70e"
    },
    {
      "id": 82,
      "outputModuleId": 3,
      "outputId": 1,
      "inputModuleId": 5,
      "inputId": 4,
      "color": "#c91847"
    },
    {
      "id": 83,
      "outputModuleId": 3,
      "outputId": 1,
      "inputModuleId": 6,
      "inputId": 4,
      "color": "#0c8e15"
    },
    {
      "id": 84,
      "outputModuleId": 5,
      "outputId": 0,
      "inputModuleId": 2,
      "inputId": 0,
      "color": "#0986ad"
    },
    {
      "id": 85,
      "outputModuleId": 6,
      "outputId": 0,
      "inputModuleId": 4,
      "inputId": 2,
      "color": "#c9b70e"
    },
    {
      "id": 86,
      "outputModuleId": 3,
      "outputId": 0,
      "inputModuleId": 4,
      "inputId": 1,
      "color": "#c91847"
    }
  ]
}